<?xml version="1.0" encoding="UTF-8" standalone="no"?>
<!DOCTYPE svg PUBLIC "-//W3C//DTD SVG 1.1//EN"
 "http://www.w3.org/Graphics/SVG/1.1/DTD/svg11.dtd">
<!-- Generated by graphviz version 2.38.0 (20140413.2041)
 -->
<!-- Title: org.msrg.raccoon.engine.CodingEngine Pages: 1 -->
<!--zoomable 727 -->
<svg id="main" version="1.1" xmlns="http://www.w3.org/2000/svg" xmlns:xlink="http://www.w3.org/1999/xlink" xml:space="preserve" onload="init(evt)">
<style type="text/css"><![CDATA[
.edge:hover path { stroke: red; }
.edge:hover polygon { stroke: red; fill: red; }
]]></style>
<script type="text/javascript"><![CDATA[
var edges = document.getElementsByTagName('g');
if (edges && edges.length) {
  for (var i=0;i<edges.length;i++) {
    if (edges[i].id.substr(0,4)=='edge') {
      edges[i].setAttribute('class','edge');
    }
  }
}
]]></script>
        <defs>
                <circle id="rim" cx="0" cy="0" r="7"/>
                <circle id="rim2" cx="0" cy="0" r="3.5"/>
                <g id="zoomPlus">
                        <use xlink:href="#rim" fill="#404040">
                                <set attributeName="fill" to="#808080" begin="zoomplus.mouseover" end="zoomplus.mouseout"/>
                        </use>
                        <path d="M-4,0h8M0,-4v8" fill="none" stroke="white" stroke-width="1.5" pointer-events="none"/>
                </g>
                <g id="zoomMin">
                        <use xlink:href="#rim" fill="#404040">
                                <set attributeName="fill" to="#808080" begin="zoomminus.mouseover" end="zoomminus.mouseout"/>
                        </use>
                        <path d="M-4,0h8" fill="none" stroke="white" stroke-width="1.5" pointer-events="none"/>
                </g>
                <g id="dirArrow">
                        <path fill="none" stroke="white" stroke-width="1.5" d="M0,-3.0v7 M-2.5,-0.5L0,-3.0L2.5,-0.5"/>
                </g>
               <g id="resetDef">
                       <use xlink:href="#rim2" fill="#404040">
                               <set attributeName="fill" to="#808080" begin="reset.mouseover" end="reset.mouseout"/>
                       </use>
               </g>
        </defs>

<script type="text/javascript">
var viewWidth = 1194;
var viewHeight = 727;
var sectionId = 'dynsection-1';
</script>
<script xlink:href="../../svgpan.js"/>
<svg id="graph" class="graph">
<g id="viewport">
<title>org.msrg.raccoon.engine.CodingEngine</title>
<!-- Node1 -->
<g id="node1" class="node"><title>Node1</title>
<polygon fill="#bfbfbf" stroke="black" points="432,-0.5 432,-310.5 587,-310.5 587,-0.5 432,-0.5"/>
<text text-anchor="start" x="440" y="-298.5" font-family="Helvetica,sans-Serif" font-size="10.00">org.msrg.raccoon.engine.</text>
<text text-anchor="middle" x="509.5" y="-287.5" font-family="Helvetica,sans-Serif" font-size="10.00">CodingEngine</text>
<polyline fill="none" stroke="black" points="432,-280.5 587,-280.5 "/>
<text text-anchor="start" x="440" y="-268.5" font-family="Helvetica,sans-Serif" font-size="10.00">+ DEBUG</text>
<text text-anchor="start" x="440" y="-257.5" font-family="Helvetica,sans-Serif" font-size="10.00">+ LATE_THREAD_CHECKIN</text>
<text text-anchor="start" x="440" y="-246.5" font-family="Helvetica,sans-Serif" font-size="10.00">_TIMEOUT</text>
<text text-anchor="start" x="440" y="-235.5" font-family="Helvetica,sans-Serif" font-size="10.00"># _lock</text>
<text text-anchor="start" x="440" y="-224.5" font-family="Helvetica,sans-Serif" font-size="10.00"># _threadCount</text>
<polyline fill="none" stroke="black" points="432,-217.5 587,-217.5 "/>
<text text-anchor="start" x="440" y="-205.5" font-family="Helvetica,sans-Serif" font-size="10.00">+ registerCodingListener()</text>
<text text-anchor="start" x="440" y="-194.5" font-family="Helvetica,sans-Serif" font-size="10.00">+ deregisterCodingListener()</text>
<text text-anchor="start" x="440" y="-183.5" font-family="Helvetica,sans-Serif" font-size="10.00">+ threadIsFree()</text>
<text text-anchor="start" x="440" y="-172.5" font-family="Helvetica,sans-Serif" font-size="10.00">+ startComponent()</text>
<text text-anchor="start" x="440" y="-161.5" font-family="Helvetica,sans-Serif" font-size="10.00">+ start()</text>
<text text-anchor="start" x="440" y="-150.5" font-family="Helvetica,sans-Serif" font-size="10.00">+ run()</text>
<text text-anchor="start" x="440" y="-139.5" font-family="Helvetica,sans-Serif" font-size="10.00">+ init()</text>
<text text-anchor="start" x="440" y="-128.5" font-family="Helvetica,sans-Serif" font-size="10.00">+ codingThreadFailed()</text>
<text text-anchor="start" x="440" y="-117.5" font-family="Helvetica,sans-Serif" font-size="10.00">+ codingTaskStarted()</text>
<text text-anchor="start" x="440" y="-106.5" font-family="Helvetica,sans-Serif" font-size="10.00">+ codingTaskFinished()</text>
<text text-anchor="start" x="440" y="-95.5" font-family="Helvetica,sans-Serif" font-size="10.00">and 11 more...</text>
<text text-anchor="start" x="440" y="-84.5" font-family="Helvetica,sans-Serif" font-size="10.00"># addCodingTaskEngineEvent()</text>
<text text-anchor="start" x="440" y="-73.5" font-family="Helvetica,sans-Serif" font-size="10.00"># CodingEngine()</text>
<text text-anchor="start" x="440" y="-62.5" font-family="Helvetica,sans-Serif" font-size="10.00"># threadIsBusy()</text>
<text text-anchor="start" x="440" y="-51.5" font-family="Helvetica,sans-Serif" font-size="10.00"># processCodingEvent()</text>
<text text-anchor="start" x="440" y="-40.5" font-family="Helvetica,sans-Serif" font-size="10.00"># scheduleTask()</text>
<text text-anchor="start" x="440" y="-29.5" font-family="Helvetica,sans-Serif" font-size="10.00"># scheduleTask()</text>
<text text-anchor="start" x="440" y="-18.5" font-family="Helvetica,sans-Serif" font-size="10.00"># notifyListener()</text>
<text text-anchor="start" x="440" y="-7.5" font-family="Helvetica,sans-Serif" font-size="10.00"># getLateThreads()</text>
</g>
<!-- Node2 -->
<g id="node2" class="node"><title>Node2</title>
<polygon fill="none" stroke="#bfbfbf" points="0,-457.5 0,-514.5 47,-514.5 47,-457.5 0,-457.5"/>
<text text-anchor="middle" x="23.5" y="-502.5" font-family="Helvetica,sans-Serif" font-size="10.00">Thread</text>
<polyline fill="none" stroke="#bfbfbf" points="0,-495.5 47,-495.5 "/>
<text text-anchor="middle" x="23.5" y="-483.5" font-family="Helvetica,sans-Serif" font-size="10.00"> </text>
<polyline fill="none" stroke="#bfbfbf" points="0,-476.5 47,-476.5 "/>
<text text-anchor="middle" x="23.5" y="-464.5" font-family="Helvetica,sans-Serif" font-size="10.00"> </text>
</g>
<!-- Node2&#45;&gt;Node1 -->
<g id="edge1" class="edge"><title>Node2&#45;&gt;Node1</title>
<path fill="none" stroke="midnightblue" d="M27.9161,-447.183C32.1439,-425.436 40.3996,-398.789 56.5,-380 156.218,-263.629 330.88,-201.989 431.705,-174.583"/>
<polygon fill="none" stroke="midnightblue" points="24.4572,-446.645 26.1954,-457.096 31.3541,-447.842 24.4572,-446.645"/>
</g>
<!-- Node3 -->
<g id="node3" class="node"><title>Node3</title>
<g id="a_node3"><a xlink:href="../../dd/dff/interfaceorg_1_1msrg_1_1raccoon_1_1engine_1_1ICodingEngine.html" target="_top" xlink:title="{org.msrg.raccoon.engine.\lICodingEngine\n||+ init()\l+ startComponent()\l+ registerCodingListener()\l+ deregisterCodingListener()\l+ encode()\l+ decode()\l+ multiply()\l+ multiply()\l+ inverse()\l+ checkEquality()\l+ checkEquality()\l+ getFreeThreadsCount()\l+ getBusyThreadsCount()\l+ getTotalThreadsCount()\l}">
<polygon fill="none" stroke="black" points="65.5,-380.5 65.5,-591.5 205.5,-591.5 205.5,-380.5 65.5,-380.5"/>
<text text-anchor="start" x="73.5" y="-579.5" font-family="Helvetica,sans-Serif" font-size="10.00">org.msrg.raccoon.engine.</text>
<text text-anchor="middle" x="135.5" y="-568.5" font-family="Helvetica,sans-Serif" font-size="10.00">ICodingEngine</text>
<polyline fill="none" stroke="black" points="65.5,-561.5 205.5,-561.5 "/>
<text text-anchor="middle" x="135.5" y="-549.5" font-family="Helvetica,sans-Serif" font-size="10.00"> </text>
<polyline fill="none" stroke="black" points="65.5,-542.5 205.5,-542.5 "/>
<text text-anchor="start" x="73.5" y="-530.5" font-family="Helvetica,sans-Serif" font-size="10.00">+ init()</text>
<text text-anchor="start" x="73.5" y="-519.5" font-family="Helvetica,sans-Serif" font-size="10.00">+ startComponent()</text>
<text text-anchor="start" x="73.5" y="-508.5" font-family="Helvetica,sans-Serif" font-size="10.00">+ registerCodingListener()</text>
<text text-anchor="start" x="73.5" y="-497.5" font-family="Helvetica,sans-Serif" font-size="10.00">+ deregisterCodingListener()</text>
<text text-anchor="start" x="73.5" y="-486.5" font-family="Helvetica,sans-Serif" font-size="10.00">+ encode()</text>
<text text-anchor="start" x="73.5" y="-475.5" font-family="Helvetica,sans-Serif" font-size="10.00">+ decode()</text>
<text text-anchor="start" x="73.5" y="-464.5" font-family="Helvetica,sans-Serif" font-size="10.00">+ multiply()</text>
<text text-anchor="start" x="73.5" y="-453.5" font-family="Helvetica,sans-Serif" font-size="10.00">+ multiply()</text>
<text text-anchor="start" x="73.5" y="-442.5" font-family="Helvetica,sans-Serif" font-size="10.00">+ inverse()</text>
<text text-anchor="start" x="73.5" y="-431.5" font-family="Helvetica,sans-Serif" font-size="10.00">+ checkEquality()</text>
<text text-anchor="start" x="73.5" y="-420.5" font-family="Helvetica,sans-Serif" font-size="10.00">+ checkEquality()</text>
<text text-anchor="start" x="73.5" y="-409.5" font-family="Helvetica,sans-Serif" font-size="10.00">+ getFreeThreadsCount()</text>
<text text-anchor="start" x="73.5" y="-398.5" font-family="Helvetica,sans-Serif" font-size="10.00">+ getBusyThreadsCount()</text>
<text text-anchor="start" x="73.5" y="-387.5" font-family="Helvetica,sans-Serif" font-size="10.00">+ getTotalThreadsCount()</text>
</a>
</g>
</g>
<!-- Node3&#45;&gt;Node1 -->
<g id="edge2" class="edge"><title>Node3&#45;&gt;Node1</title>
<path fill="none" stroke="midnightblue" d="M212.548,-381.978C213.197,-381.313 213.848,-380.654 214.5,-380 281.517,-312.758 369.441,-248.686 431.816,-206.522"/>
<polygon fill="none" stroke="midnightblue" points="209.964,-379.616 205.629,-389.284 215.047,-384.429 209.964,-379.616"/>
</g>
<!-- Node4 -->
<g id="node4" class="node"><title>Node4</title>
<polygon fill="none" stroke="#bfbfbf" points="224,-452 224,-520 405,-520 405,-452 224,-452"/>
<text text-anchor="start" x="232" y="-508" font-family="Helvetica,sans-Serif" font-size="10.00">Set&lt; org.msrg.raccoon.engine.thread.</text>
<text text-anchor="middle" x="314.5" y="-497" font-family="Helvetica,sans-Serif" font-size="10.00">CodingThread &gt;</text>
<polyline fill="none" stroke="#bfbfbf" points="224,-490 405,-490 "/>
<text text-anchor="middle" x="314.5" y="-478" font-family="Helvetica,sans-Serif" font-size="10.00"> </text>
<polyline fill="none" stroke="#bfbfbf" points="224,-471 405,-471 "/>
<text text-anchor="middle" x="314.5" y="-459" font-family="Helvetica,sans-Serif" font-size="10.00"> </text>
</g>
<!-- Node4&#45;&gt;Node1 -->
<g id="edge3" class="edge"><title>Node4&#45;&gt;Node1</title>
<path fill="none" stroke="#404040" d="M334.09,-451.998C355.639,-415.697 391.716,-354.921 425.568,-297.893"/>
<polygon fill="none" stroke="#404040" points="425.734,-297.614 425.357,-290.413 431.859,-287.295 432.236,-294.496 425.734,-297.614"/>
<text text-anchor="middle" x="440" y="-354" font-family="Helvetica,sans-Serif" font-size="10.00"> #_freeThreads</text>
<text text-anchor="middle" x="440" y="-343" font-family="Helvetica,sans-Serif" font-size="10.00">#_busyThreads</text>
<text text-anchor="middle" x="440" y="-332" font-family="Helvetica,sans-Serif" font-size="10.00">#_threads</text>
</g>
<!-- Node5 -->
<g id="node5" class="node"><title>Node5</title>
<polygon fill="none" stroke="#bfbfbf" points="298.5,-661.5 298.5,-718.5 330.5,-718.5 330.5,-661.5 298.5,-661.5"/>
<text text-anchor="middle" x="314.5" y="-706.5" font-family="Helvetica,sans-Serif" font-size="10.00">Set</text>
<polyline fill="none" stroke="#bfbfbf" points="298.5,-699.5 330.5,-699.5 "/>
<text text-anchor="middle" x="314.5" y="-687.5" font-family="Helvetica,sans-Serif" font-size="10.00"> </text>
<polyline fill="none" stroke="#bfbfbf" points="298.5,-680.5 330.5,-680.5 "/>
<text text-anchor="middle" x="314.5" y="-668.5" font-family="Helvetica,sans-Serif" font-size="10.00"> </text>
</g>
<!-- Node5&#45;&gt;Node4 -->
<g id="edge4" class="edge"><title>Node5&#45;&gt;Node4</title>
<path fill="none" stroke="orange" d="M314.5,-651.245C314.5,-613.492 314.5,-556.009 314.5,-520.02"/>
<polygon fill="orange" stroke="orange" points="311,-651.336 314.5,-661.336 318,-651.336 311,-651.336"/>
<text text-anchor="start" x="314.5" y="-629.5" font-family="Helvetica,sans-Serif" font-size="10.00"> &lt; org::msrg::raccoon</text>
<text text-anchor="middle" x="386.5" y="-618.5" font-family="Helvetica,sans-Serif" font-size="10.00">::engine::thread::CodingThread &gt;</text>
</g>
<!-- Node6 -->
<g id="node6" class="node"><title>Node6</title>
<polygon fill="none" stroke="#bfbfbf" points="423,-452 423,-520 596,-520 596,-452 423,-452"/>
<text text-anchor="start" x="431" y="-508" font-family="Helvetica,sans-Serif" font-size="10.00">List&lt; org.msrg.raccoon.engine.task.</text>
<text text-anchor="middle" x="509.5" y="-497" font-family="Helvetica,sans-Serif" font-size="10.00">CodingTask &gt;</text>
<polyline fill="none" stroke="#bfbfbf" points="423,-490 596,-490 "/>
<text text-anchor="middle" x="509.5" y="-478" font-family="Helvetica,sans-Serif" font-size="10.00"> </text>
<polyline fill="none" stroke="#bfbfbf" points="423,-471 596,-471 "/>
<text text-anchor="middle" x="509.5" y="-459" font-family="Helvetica,sans-Serif" font-size="10.00"> </text>
</g>
<!-- Node6&#45;&gt;Node1 -->
<g id="edge5" class="edge"><title>Node6&#45;&gt;Node1</title>
<path fill="none" stroke="#404040" d="M509.5,-451.998C509.5,-420.959 509.5,-372.027 509.5,-322.844"/>
<polygon fill="none" stroke="#404040" points="509.5,-322.683 505.5,-316.683 509.5,-310.683 513.5,-316.683 509.5,-322.683"/>
<text text-anchor="middle" x="555" y="-343" font-family="Helvetica,sans-Serif" font-size="10.00"> #_outstandingTasks</text>
</g>
<!-- Node7 -->
<g id="node7" class="node"><title>Node7</title>
<polygon fill="none" stroke="#bfbfbf" points="674.5,-661.5 674.5,-718.5 706.5,-718.5 706.5,-661.5 674.5,-661.5"/>
<text text-anchor="middle" x="690.5" y="-706.5" font-family="Helvetica,sans-Serif" font-size="10.00">List</text>
<polyline fill="none" stroke="#bfbfbf" points="674.5,-699.5 706.5,-699.5 "/>
<text text-anchor="middle" x="690.5" y="-687.5" font-family="Helvetica,sans-Serif" font-size="10.00"> </text>
<polyline fill="none" stroke="#bfbfbf" points="674.5,-680.5 706.5,-680.5 "/>
<text text-anchor="middle" x="690.5" y="-668.5" font-family="Helvetica,sans-Serif" font-size="10.00"> </text>
</g>
<!-- Node7&#45;&gt;Node6 -->
<g id="edge6" class="edge"><title>Node7&#45;&gt;Node6</title>
<path fill="none" stroke="orange" d="M664.418,-686.68C635.012,-682.694 587.643,-671.929 559.5,-643 526.976,-609.568 515.603,-554.948 511.63,-520.008"/>
<polygon fill="orange" stroke="orange" points="664.027,-690.158 674.37,-687.863 664.853,-683.207 664.027,-690.158"/>
<text text-anchor="start" x="559.5" y="-629.5" font-family="Helvetica,sans-Serif" font-size="10.00"> &lt; org::msrg::raccoon</text>
<text text-anchor="middle" x="623" y="-618.5" font-family="Helvetica,sans-Serif" font-size="10.00">::engine::task::CodingTask &gt;</text>
</g>
<!-- Node10 -->
<g id="node10" class="node"><title>Node10</title>
<polygon fill="none" stroke="#bfbfbf" points="614.5,-452 614.5,-520 766.5,-520 766.5,-452 614.5,-452"/>
<text text-anchor="start" x="622.5" y="-508" font-family="Helvetica,sans-Serif" font-size="10.00">List&lt; org.msrg.raccoon.engine.</text>
<text text-anchor="middle" x="690.5" y="-497" font-family="Helvetica,sans-Serif" font-size="10.00">ICodingListener &gt;</text>
<polyline fill="none" stroke="#bfbfbf" points="614.5,-490 766.5,-490 "/>
<text text-anchor="middle" x="690.5" y="-478" font-family="Helvetica,sans-Serif" font-size="10.00"> </text>
<polyline fill="none" stroke="#bfbfbf" points="614.5,-471 766.5,-471 "/>
<text text-anchor="middle" x="690.5" y="-459" font-family="Helvetica,sans-Serif" font-size="10.00"> </text>
</g>
<!-- Node7&#45;&gt;Node10 -->
<g id="edge10" class="edge"><title>Node7&#45;&gt;Node10</title>
<path fill="none" stroke="orange" d="M690.5,-651.245C690.5,-613.492 690.5,-556.009 690.5,-520.02"/>
<polygon fill="orange" stroke="orange" points="687,-651.336 690.5,-661.336 694,-651.336 687,-651.336"/>
<text text-anchor="start" x="690.5" y="-629.5" font-family="Helvetica,sans-Serif" font-size="10.00"> &lt; org::msrg::raccoon</text>
<text text-anchor="middle" x="749.5" y="-618.5" font-family="Helvetica,sans-Serif" font-size="10.00">::engine::ICodingListener &gt;</text>
</g>
<!-- Node11 -->
<g id="node11" class="node"><title>Node11</title>
<polygon fill="none" stroke="#bfbfbf" points="784.5,-452 784.5,-520 936.5,-520 936.5,-452 784.5,-452"/>
<text text-anchor="start" x="792.5" y="-508" font-family="Helvetica,sans-Serif" font-size="10.00">List&lt; org.msrg.raccoon.engine.</text>
<text text-anchor="middle" x="860.5" y="-497" font-family="Helvetica,sans-Serif" font-size="10.00">CodingEngineEvent &gt;</text>
<polyline fill="none" stroke="#bfbfbf" points="784.5,-490 936.5,-490 "/>
<text text-anchor="middle" x="860.5" y="-478" font-family="Helvetica,sans-Serif" font-size="10.00"> </text>
<polyline fill="none" stroke="#bfbfbf" points="784.5,-471 936.5,-471 "/>
<text text-anchor="middle" x="860.5" y="-459" font-family="Helvetica,sans-Serif" font-size="10.00"> </text>
</g>
<!-- Node7&#45;&gt;Node11 -->
<g id="edge12" class="edge"><title>Node7&#45;&gt;Node11</title>
<path fill="none" stroke="orange" d="M716.938,-685.871C744.514,-681.228 787.182,-669.94 812.5,-643 844.228,-609.239 855.008,-554.97 858.655,-520.159"/>
<polygon fill="orange" stroke="orange" points="716.198,-682.443 706.829,-687.39 717.239,-689.365 716.198,-682.443"/>
<text text-anchor="start" x="835.5" y="-629.5" font-family="Helvetica,sans-Serif" font-size="10.00"> &lt; org::msrg::raccoon</text>
<text text-anchor="middle" x="903.5" y="-618.5" font-family="Helvetica,sans-Serif" font-size="10.00">::engine::CodingEngineEvent &gt;</text>
</g>
<!-- Node8 -->
<g id="node8" class="node"><title>Node8</title>
<polygon fill="none" stroke="#bfbfbf" points="955,-452 955,-520 1140,-520 1140,-452 955,-452"/>
<text text-anchor="start" x="963" y="-508" font-family="Helvetica,sans-Serif" font-size="10.00">Map&lt; org.msrg.raccoon.engine.thread.</text>
<text text-anchor="middle" x="1047.5" y="-497" font-family="Helvetica,sans-Serif" font-size="10.00">CodingThread, Long &gt;</text>
<polyline fill="none" stroke="#bfbfbf" points="955,-490 1140,-490 "/>
<text text-anchor="middle" x="1047.5" y="-478" font-family="Helvetica,sans-Serif" font-size="10.00"> </text>
<polyline fill="none" stroke="#bfbfbf" points="955,-471 1140,-471 "/>
<text text-anchor="middle" x="1047.5" y="-459" font-family="Helvetica,sans-Serif" font-size="10.00"> </text>
</g>
<!-- Node8&#45;&gt;Node1 -->
<g id="edge7" class="edge"><title>Node8&#45;&gt;Node1</title>
<path fill="none" stroke="#404040" d="M1016.58,-451.569C996.748,-430.533 970.181,-403.094 945.5,-380 919.944,-356.088 915.016,-347.807 885.5,-329 792.988,-270.053 677.022,-220.04 598.521,-189.285"/>
<polygon fill="none" stroke="#404040" points="598.401,-189.238 591.359,-190.791 587.218,-184.888 594.26,-183.335 598.401,-189.238"/>
<text text-anchor="middle" x="968.5" y="-343" font-family="Helvetica,sans-Serif" font-size="10.00"> #_threadCheckins</text>
</g>
<!-- Node9 -->
<g id="node9" class="node"><title>Node9</title>
<polygon fill="none" stroke="#bfbfbf" points="1030,-661.5 1030,-718.5 1065,-718.5 1065,-661.5 1030,-661.5"/>
<text text-anchor="middle" x="1047.5" y="-706.5" font-family="Helvetica,sans-Serif" font-size="10.00">Map</text>
<polyline fill="none" stroke="#bfbfbf" points="1030,-699.5 1065,-699.5 "/>
<text text-anchor="middle" x="1047.5" y="-687.5" font-family="Helvetica,sans-Serif" font-size="10.00"> </text>
<polyline fill="none" stroke="#bfbfbf" points="1030,-680.5 1065,-680.5 "/>
<text text-anchor="middle" x="1047.5" y="-668.5" font-family="Helvetica,sans-Serif" font-size="10.00"> </text>
</g>
<!-- Node9&#45;&gt;Node8 -->
<g id="edge8" class="edge"><title>Node9&#45;&gt;Node8</title>
<path fill="none" stroke="orange" d="M1047.5,-651.245C1047.5,-613.492 1047.5,-556.009 1047.5,-520.02"/>
<polygon fill="orange" stroke="orange" points="1044,-651.336 1047.5,-661.336 1051,-651.336 1044,-651.336"/>
<text text-anchor="start" x="1047.5" y="-635" font-family="Helvetica,sans-Serif" font-size="10.00"> &lt; org::msrg::raccoon</text>
<text text-anchor="start" x="1047.5" y="-624" font-family="Helvetica,sans-Serif" font-size="10.00">::engine::thread::CodingThread,</text>
<text text-anchor="middle" x="1116.5" y="-613" font-family="Helvetica,sans-Serif" font-size="10.00"> Long &gt;</text>
</g>
<!-- Node10&#45;&gt;Node1 -->
<g id="edge9" class="edge"><title>Node10&#45;&gt;Node1</title>
<path fill="none" stroke="#404040" d="M672.316,-451.998C653.49,-417.831 622.717,-361.98 592.965,-307.981"/>
<polygon fill="none" stroke="#404040" points="592.823,-307.724 586.424,-304.399 587.032,-297.213 593.43,-300.538 592.823,-307.724"/>
<text text-anchor="middle" x="647" y="-343" font-family="Helvetica,sans-Serif" font-size="10.00"> &#45;_listeners</text>
</g>
<!-- Node11&#45;&gt;Node1 -->
<g id="edge11" class="edge"><title>Node11&#45;&gt;Node1</title>
<path fill="none" stroke="#404040" d="M836.35,-451.944C820.108,-430.556 797.683,-402.592 775.5,-380 719.588,-323.057 650.419,-265.275 596.631,-222.731"/>
<polygon fill="none" stroke="#404040" points="596.542,-222.661 589.353,-222.091 587.115,-215.236 594.303,-215.806 596.542,-222.661"/>
<text text-anchor="middle" x="819" y="-354" font-family="Helvetica,sans-Serif" font-size="10.00"> #_lowPriorityEventQueue</text>
<text text-anchor="middle" x="819" y="-343" font-family="Helvetica,sans-Serif" font-size="10.00">#_highPriorityEventQueue</text>
<text text-anchor="middle" x="819" y="-332" font-family="Helvetica,sans-Serif" font-size="10.00">#_normalPriorityEventQueue</text>
</g>
</g>
</svg>
        <g id="navigator" transform="translate(0 0)" fill="#404254">
                <rect fill="#f2f5e9" fill-opacity="0.5" stroke="#606060" stroke-width=".5" x="0" y="0" width="60" height="60"/>
                <use id="zoomplus" xlink:href="#zoomPlus" x="17" y="9" onmousedown="handleZoom(evt,'in')"/>
                <use id="zoomminus" xlink:href="#zoomMin" x="42" y="9" onmousedown="handleZoom(evt,'out')"/>
                <use id="reset" xlink:href="#resetDef" x="30" y="36" onmousedown="handleReset()"/>
                <g id="arrowUp" xlink:href="#dirArrow" transform="translate(30 24)" onmousedown="handlePan(0,-1)">
                  <use xlink:href="#rim" fill="#404040">
                        <set attributeName="fill" to="#808080" begin="arrowUp.mouseover" end="arrowUp.mouseout"/>
                  </use>
                  <path fill="none" stroke="white" stroke-width="1.5" d="M0,-3.0v7 M-2.5,-0.5L0,-3.0L2.5,-0.5"/>
                </g>
                <g id="arrowRight" xlink:href="#dirArrow" transform="rotate(90) translate(36 -43)" onmousedown="handlePan(1,0)">
                  <use xlink:href="#rim" fill="#404040">
                        <set attributeName="fill" to="#808080" begin="arrowRight.mouseover" end="arrowRight.mouseout"/>
                  </use>
                  <path fill="none" stroke="white" stroke-width="1.5" d="M0,-3.0v7 M-2.5,-0.5L0,-3.0L2.5,-0.5"/>
                </g>
                <g id="arrowDown" xlink:href="#dirArrow" transform="rotate(180) translate(-30 -48)" onmousedown="handlePan(0,1)">
                  <use xlink:href="#rim" fill="#404040">
                        <set attributeName="fill" to="#808080" begin="arrowDown.mouseover" end="arrowDown.mouseout"/>
                  </use>
                  <path fill="none" stroke="white" stroke-width="1.5" d="M0,-3.0v7 M-2.5,-0.5L0,-3.0L2.5,-0.5"/>
                </g>
                <g id="arrowLeft" xlink:href="#dirArrow" transform="rotate(270) translate(-36 17)" onmousedown="handlePan(-1,0)">
                  <use xlink:href="#rim" fill="#404040">
                        <set attributeName="fill" to="#808080" begin="arrowLeft.mouseover" end="arrowLeft.mouseout"/>
                  </use>
                  <path fill="none" stroke="white" stroke-width="1.5" d="M0,-3.0v7 M-2.5,-0.5L0,-3.0L2.5,-0.5"/>
                </g>
        </g>
        <svg viewBox="0 0 15 15" width="100%" height="30px" preserveAspectRatio="xMaxYMin meet">
         <g id="arrow_out" transform="scale(0.3 0.3)">
          <a xlink:href="classorg_1_1msrg_1_1raccoon_1_1engine_1_1CodingEngine__coll__graph_org.svg" target="_base">
           <rect id="button" ry="5" rx="5" y="6" x="6" height="38" width="38"
                fill="#f2f5e9" fill-opacity="0.5" stroke="#606060" stroke-width="1.0"/>
           <path id="arrow"
             d="M 11.500037,31.436501 C 11.940474,20.09759 22.043105,11.32322 32.158766,21.979434 L 37.068811,17.246167 C 37.068811,17.246167 37.088388,32 37.088388,32 L 22.160133,31.978069 C 22.160133,31.978069 26.997745,27.140456 26.997745,27.140456 C 18.528582,18.264221 13.291696,25.230495 11.500037,31.436501 z"
             style="fill:#404040;"/>
          </a>
         </g>
        </svg>
</svg>
