<?xml version="1.0" encoding="UTF-8" standalone="no"?>
<!DOCTYPE svg PUBLIC "-//W3C//DTD SVG 1.1//EN"
 "http://www.w3.org/Graphics/SVG/1.1/DTD/svg11.dtd">
<!-- Generated by graphviz version 2.38.0 (20140413.2041)
 -->
<!-- Title: org.msrg.raccoon.engine.CodingEngine Pages: 1 -->
<svg width="1291pt" height="727pt"
 viewBox="0.00 0.00 1291.00 727.00" xmlns="http://www.w3.org/2000/svg" xmlns:xlink="http://www.w3.org/1999/xlink">
<g id="graph0" class="graph" transform="scale(1 1) rotate(0) translate(4 723)">
<title>org.msrg.raccoon.engine.CodingEngine</title>
<!-- Node4 -->
<g id="node1" class="node"><title>Node4</title>
<polygon fill="#bfbfbf" stroke="black" points="511.5,-0.5 511.5,-321.5 666.5,-321.5 666.5,-0.5 511.5,-0.5"/>
<text text-anchor="start" x="519.5" y="-309.5" font-family="Helvetica,sans-Serif" font-size="10.00">org.msrg.raccoon.engine.</text>
<text text-anchor="middle" x="589" y="-298.5" font-family="Helvetica,sans-Serif" font-size="10.00">CodingEngine</text>
<polyline fill="none" stroke="black" points="511.5,-291.5 666.5,-291.5 "/>
<text text-anchor="start" x="519.5" y="-279.5" font-family="Helvetica,sans-Serif" font-size="10.00">+ LATE_THREAD_CHECKIN</text>
<text text-anchor="start" x="519.5" y="-268.5" font-family="Helvetica,sans-Serif" font-size="10.00">_TIMEOUT</text>
<text text-anchor="start" x="519.5" y="-257.5" font-family="Helvetica,sans-Serif" font-size="10.00">+ DEBUG</text>
<text text-anchor="start" x="519.5" y="-246.5" font-family="Helvetica,sans-Serif" font-size="10.00"># _lock</text>
<text text-anchor="start" x="519.5" y="-235.5" font-family="Helvetica,sans-Serif" font-size="10.00"># _threadCount</text>
<text text-anchor="start" x="519.5" y="-224.5" font-family="Helvetica,sans-Serif" font-size="10.00"># _threadCheckins</text>
<polyline fill="none" stroke="black" points="511.5,-217.5 666.5,-217.5 "/>
<text text-anchor="start" x="519.5" y="-205.5" font-family="Helvetica,sans-Serif" font-size="10.00">+ registerCodingListener()</text>
<text text-anchor="start" x="519.5" y="-194.5" font-family="Helvetica,sans-Serif" font-size="10.00">+ deregisterCodingListener()</text>
<text text-anchor="start" x="519.5" y="-183.5" font-family="Helvetica,sans-Serif" font-size="10.00">+ threadIsFree()</text>
<text text-anchor="start" x="519.5" y="-172.5" font-family="Helvetica,sans-Serif" font-size="10.00">+ startComponent()</text>
<text text-anchor="start" x="519.5" y="-161.5" font-family="Helvetica,sans-Serif" font-size="10.00">+ init()</text>
<text text-anchor="start" x="519.5" y="-150.5" font-family="Helvetica,sans-Serif" font-size="10.00">+ codingThreadFailed()</text>
<text text-anchor="start" x="519.5" y="-139.5" font-family="Helvetica,sans-Serif" font-size="10.00">+ codingTaskStarted()</text>
<text text-anchor="start" x="519.5" y="-128.5" font-family="Helvetica,sans-Serif" font-size="10.00">+ codingTaskFinished()</text>
<text text-anchor="start" x="519.5" y="-117.5" font-family="Helvetica,sans-Serif" font-size="10.00">+ codingTaskFailed()</text>
<text text-anchor="start" x="519.5" y="-106.5" font-family="Helvetica,sans-Serif" font-size="10.00">+ getFreeThreadsCount()</text>
<text text-anchor="start" x="519.5" y="-95.5" font-family="Helvetica,sans-Serif" font-size="10.00">and 9 more...</text>
<text text-anchor="start" x="519.5" y="-84.5" font-family="Helvetica,sans-Serif" font-size="10.00"># CodingEngine()</text>
<text text-anchor="start" x="519.5" y="-73.5" font-family="Helvetica,sans-Serif" font-size="10.00"># addCodingTaskEngineEvent()</text>
<text text-anchor="start" x="519.5" y="-62.5" font-family="Helvetica,sans-Serif" font-size="10.00"># threadIsBusy()</text>
<text text-anchor="start" x="519.5" y="-51.5" font-family="Helvetica,sans-Serif" font-size="10.00"># processCodingEvent()</text>
<text text-anchor="start" x="519.5" y="-40.5" font-family="Helvetica,sans-Serif" font-size="10.00"># scheduleTask()</text>
<text text-anchor="start" x="519.5" y="-29.5" font-family="Helvetica,sans-Serif" font-size="10.00"># scheduleTask()</text>
<text text-anchor="start" x="519.5" y="-18.5" font-family="Helvetica,sans-Serif" font-size="10.00"># notifyListener()</text>
<text text-anchor="start" x="519.5" y="-7.5" font-family="Helvetica,sans-Serif" font-size="10.00"># getLateThreads()</text>
</g>
<!-- Node5 -->
<g id="node2" class="node"><title>Node5</title>
<g id="a_node2"><a xlink:href="../../dd/dff/interfaceorg_1_1msrg_1_1raccoon_1_1engine_1_1ICodingEngine.html" target="_top" xlink:title="{org.msrg.raccoon.engine.\lICodingEngine\n||+ init()\l+ startComponent()\l+ registerCodingListener()\l+ deregisterCodingListener()\l+ encode()\l+ decode()\l+ multiply()\l+ multiply()\l+ inverse()\l+ checkEquality()\l+ checkEquality()\l+ getFreeThreadsCount()\l+ getBusyThreadsCount()\l+ getTotalThreadsCount()\l}">
<polygon fill="none" stroke="black" points="0,-391.5 0,-602.5 140,-602.5 140,-391.5 0,-391.5"/>
<text text-anchor="start" x="8" y="-590.5" font-family="Helvetica,sans-Serif" font-size="10.00">org.msrg.raccoon.engine.</text>
<text text-anchor="middle" x="70" y="-579.5" font-family="Helvetica,sans-Serif" font-size="10.00">ICodingEngine</text>
<polyline fill="none" stroke="black" points="0,-572.5 140,-572.5 "/>
<text text-anchor="middle" x="70" y="-560.5" font-family="Helvetica,sans-Serif" font-size="10.00"> </text>
<polyline fill="none" stroke="black" points="0,-553.5 140,-553.5 "/>
<text text-anchor="start" x="8" y="-541.5" font-family="Helvetica,sans-Serif" font-size="10.00">+ init()</text>
<text text-anchor="start" x="8" y="-530.5" font-family="Helvetica,sans-Serif" font-size="10.00">+ startComponent()</text>
<text text-anchor="start" x="8" y="-519.5" font-family="Helvetica,sans-Serif" font-size="10.00">+ registerCodingListener()</text>
<text text-anchor="start" x="8" y="-508.5" font-family="Helvetica,sans-Serif" font-size="10.00">+ deregisterCodingListener()</text>
<text text-anchor="start" x="8" y="-497.5" font-family="Helvetica,sans-Serif" font-size="10.00">+ encode()</text>
<text text-anchor="start" x="8" y="-486.5" font-family="Helvetica,sans-Serif" font-size="10.00">+ decode()</text>
<text text-anchor="start" x="8" y="-475.5" font-family="Helvetica,sans-Serif" font-size="10.00">+ multiply()</text>
<text text-anchor="start" x="8" y="-464.5" font-family="Helvetica,sans-Serif" font-size="10.00">+ multiply()</text>
<text text-anchor="start" x="8" y="-453.5" font-family="Helvetica,sans-Serif" font-size="10.00">+ inverse()</text>
<text text-anchor="start" x="8" y="-442.5" font-family="Helvetica,sans-Serif" font-size="10.00">+ checkEquality()</text>
<text text-anchor="start" x="8" y="-431.5" font-family="Helvetica,sans-Serif" font-size="10.00">+ checkEquality()</text>
<text text-anchor="start" x="8" y="-420.5" font-family="Helvetica,sans-Serif" font-size="10.00">+ getFreeThreadsCount()</text>
<text text-anchor="start" x="8" y="-409.5" font-family="Helvetica,sans-Serif" font-size="10.00">+ getBusyThreadsCount()</text>
<text text-anchor="start" x="8" y="-398.5" font-family="Helvetica,sans-Serif" font-size="10.00">+ getTotalThreadsCount()</text>
</a>
</g>
</g>
<!-- Node5&#45;&gt;Node4 -->
<g id="edge1" class="edge"><title>Node5&#45;&gt;Node4</title>
<path fill="none" stroke="midnightblue" d="M147.576,-392.22C148.049,-391.81 148.524,-391.403 149,-391 260.703,-296.373 418.081,-226.438 511.214,-190.13"/>
<polygon fill="none" stroke="midnightblue" points="145.038,-389.797 140.011,-399.124 149.757,-394.968 145.038,-389.797"/>
</g>
<!-- Node6 -->
<g id="node3" class="node"><title>Node6</title>
<g id="a_node3"><a xlink:href="../../d0/d4e/classorg_1_1msrg_1_1raccoon_1_1engine_1_1CodingEngine_1_1MyThread.html" target="_top" xlink:title="{org.msrg.raccoon.engine.\lCodingEngine.MyThread\n||+ MyThread()\l+ run()\l+ toString()\l}">
<polygon fill="none" stroke="black" points="158.5,-452 158.5,-542 285.5,-542 285.5,-452 158.5,-452"/>
<text text-anchor="start" x="166.5" y="-530" font-family="Helvetica,sans-Serif" font-size="10.00">org.msrg.raccoon.engine.</text>
<text text-anchor="middle" x="222" y="-519" font-family="Helvetica,sans-Serif" font-size="10.00">CodingEngine.MyThread</text>
<polyline fill="none" stroke="black" points="158.5,-512 285.5,-512 "/>
<text text-anchor="middle" x="222" y="-500" font-family="Helvetica,sans-Serif" font-size="10.00"> </text>
<polyline fill="none" stroke="black" points="158.5,-493 285.5,-493 "/>
<text text-anchor="start" x="166.5" y="-481" font-family="Helvetica,sans-Serif" font-size="10.00">+ MyThread()</text>
<text text-anchor="start" x="166.5" y="-470" font-family="Helvetica,sans-Serif" font-size="10.00">+ run()</text>
<text text-anchor="start" x="166.5" y="-459" font-family="Helvetica,sans-Serif" font-size="10.00">+ toString()</text>
</a>
</g>
</g>
<!-- Node6&#45;&gt;Node4 -->
<g id="edge2" class="edge"><title>Node6&#45;&gt;Node4</title>
<path fill="none" stroke="#404040" d="M247.929,-451.845C260.548,-432.163 276.716,-409.335 294,-391 356.454,-324.746 439.16,-262.27 501.105,-219.364"/>
<polygon fill="none" stroke="#404040" points="501.365,-219.186 504.04,-212.489 511.25,-212.383 508.575,-219.08 501.365,-219.186"/>
<text text-anchor="middle" x="363" y="-354" font-family="Helvetica,sans-Serif" font-size="10.00"> &#45;thread</text>
</g>
<!-- Node7 -->
<g id="node4" class="node"><title>Node7</title>
<polygon fill="none" stroke="#bfbfbf" points="198.5,-661.5 198.5,-718.5 245.5,-718.5 245.5,-661.5 198.5,-661.5"/>
<text text-anchor="middle" x="222" y="-706.5" font-family="Helvetica,sans-Serif" font-size="10.00">Thread</text>
<polyline fill="none" stroke="#bfbfbf" points="198.5,-699.5 245.5,-699.5 "/>
<text text-anchor="middle" x="222" y="-687.5" font-family="Helvetica,sans-Serif" font-size="10.00"> </text>
<polyline fill="none" stroke="#bfbfbf" points="198.5,-680.5 245.5,-680.5 "/>
<text text-anchor="middle" x="222" y="-668.5" font-family="Helvetica,sans-Serif" font-size="10.00"> </text>
</g>
<!-- Node7&#45;&gt;Node6 -->
<g id="edge3" class="edge"><title>Node7&#45;&gt;Node6</title>
<path fill="none" stroke="midnightblue" d="M222,-651.126C222,-619.735 222,-575.077 222,-542.083"/>
<polygon fill="none" stroke="midnightblue" points="218.5,-651.227 222,-661.227 225.5,-651.227 218.5,-651.227"/>
</g>
<!-- Node8 -->
<g id="node5" class="node"><title>Node8</title>
<polygon fill="none" stroke="#bfbfbf" points="303.5,-463 303.5,-531 484.5,-531 484.5,-463 303.5,-463"/>
<text text-anchor="start" x="311.5" y="-519" font-family="Helvetica,sans-Serif" font-size="10.00">Set&lt; org.msrg.raccoon.engine.thread.</text>
<text text-anchor="middle" x="394" y="-508" font-family="Helvetica,sans-Serif" font-size="10.00">CodingThread &gt;</text>
<polyline fill="none" stroke="#bfbfbf" points="303.5,-501 484.5,-501 "/>
<text text-anchor="middle" x="394" y="-489" font-family="Helvetica,sans-Serif" font-size="10.00"> </text>
<polyline fill="none" stroke="#bfbfbf" points="303.5,-482 484.5,-482 "/>
<text text-anchor="middle" x="394" y="-470" font-family="Helvetica,sans-Serif" font-size="10.00"> </text>
</g>
<!-- Node8&#45;&gt;Node4 -->
<g id="edge4" class="edge"><title>Node8&#45;&gt;Node4</title>
<path fill="none" stroke="#404040" d="M413.41,-462.754C434.994,-425.785 471.311,-363.58 505.334,-305.305"/>
<polygon fill="none" stroke="#404040" points="505.384,-305.22 504.954,-298.021 511.434,-294.857 511.863,-302.055 505.384,-305.22"/>
<text text-anchor="middle" x="513.5" y="-359.5" font-family="Helvetica,sans-Serif" font-size="10.00"> #_freeThreads</text>
<text text-anchor="middle" x="513.5" y="-348.5" font-family="Helvetica,sans-Serif" font-size="10.00">#_busyThreads</text>
</g>
<!-- Node9 -->
<g id="node6" class="node"><title>Node9</title>
<polygon fill="none" stroke="#bfbfbf" points="378,-661.5 378,-718.5 410,-718.5 410,-661.5 378,-661.5"/>
<text text-anchor="middle" x="394" y="-706.5" font-family="Helvetica,sans-Serif" font-size="10.00">Set</text>
<polyline fill="none" stroke="#bfbfbf" points="378,-699.5 410,-699.5 "/>
<text text-anchor="middle" x="394" y="-687.5" font-family="Helvetica,sans-Serif" font-size="10.00"> </text>
<polyline fill="none" stroke="#bfbfbf" points="378,-680.5 410,-680.5 "/>
<text text-anchor="middle" x="394" y="-668.5" font-family="Helvetica,sans-Serif" font-size="10.00"> </text>
</g>
<!-- Node9&#45;&gt;Node8 -->
<g id="edge5" class="edge"><title>Node9&#45;&gt;Node8</title>
<path fill="none" stroke="orange" d="M394,-650.936C394,-615.963 394,-564.638 394,-531.269"/>
<polygon fill="orange" stroke="orange" points="390.5,-651.227 394,-661.227 397.5,-651.227 390.5,-651.227"/>
<text text-anchor="start" x="394" y="-635" font-family="Helvetica,sans-Serif" font-size="10.00"> &lt; org::msrg::raccoon</text>
<text text-anchor="middle" x="466" y="-624" font-family="Helvetica,sans-Serif" font-size="10.00">::engine::thread::CodingThread &gt;</text>
</g>
<!-- Node10 -->
<g id="node7" class="node"><title>Node10</title>
<polygon fill="none" stroke="#bfbfbf" points="502.5,-463 502.5,-531 675.5,-531 675.5,-463 502.5,-463"/>
<text text-anchor="start" x="510.5" y="-519" font-family="Helvetica,sans-Serif" font-size="10.00">List&lt; org.msrg.raccoon.engine.task.</text>
<text text-anchor="middle" x="589" y="-508" font-family="Helvetica,sans-Serif" font-size="10.00">CodingTask &gt;</text>
<polyline fill="none" stroke="#bfbfbf" points="502.5,-501 675.5,-501 "/>
<text text-anchor="middle" x="589" y="-489" font-family="Helvetica,sans-Serif" font-size="10.00"> </text>
<polyline fill="none" stroke="#bfbfbf" points="502.5,-482 675.5,-482 "/>
<text text-anchor="middle" x="589" y="-470" font-family="Helvetica,sans-Serif" font-size="10.00"> </text>
</g>
<!-- Node10&#45;&gt;Node4 -->
<g id="edge6" class="edge"><title>Node10&#45;&gt;Node4</title>
<path fill="none" stroke="#404040" d="M589,-462.754C589,-431.81 589,-383.184 589,-333.981"/>
<polygon fill="none" stroke="#404040" points="589,-333.808 585,-327.808 589,-321.808 593,-327.808 589,-333.808"/>
<text text-anchor="middle" x="634.5" y="-354" font-family="Helvetica,sans-Serif" font-size="10.00"> #_outstandingTasks</text>
</g>
<!-- Node11 -->
<g id="node8" class="node"><title>Node11</title>
<polygon fill="none" stroke="#bfbfbf" points="663,-661.5 663,-718.5 695,-718.5 695,-661.5 663,-661.5"/>
<text text-anchor="middle" x="679" y="-706.5" font-family="Helvetica,sans-Serif" font-size="10.00">List</text>
<polyline fill="none" stroke="#bfbfbf" points="663,-699.5 695,-699.5 "/>
<text text-anchor="middle" x="679" y="-687.5" font-family="Helvetica,sans-Serif" font-size="10.00"> </text>
<polyline fill="none" stroke="#bfbfbf" points="663,-680.5 695,-680.5 "/>
<text text-anchor="middle" x="679" y="-668.5" font-family="Helvetica,sans-Serif" font-size="10.00"> </text>
</g>
<!-- Node11&#45;&gt;Node10 -->
<g id="edge7" class="edge"><title>Node11&#45;&gt;Node10</title>
<path fill="none" stroke="orange" d="M653.549,-677.552C639.349,-669.831 622.631,-658.258 613,-643 591.616,-609.124 587.434,-562.263 587.398,-531.084"/>
<polygon fill="orange" stroke="orange" points="652.359,-680.873 662.859,-682.28 655.528,-674.632 652.359,-680.873"/>
<text text-anchor="start" x="613" y="-635" font-family="Helvetica,sans-Serif" font-size="10.00"> &lt; org::msrg::raccoon</text>
<text text-anchor="middle" x="676.5" y="-624" font-family="Helvetica,sans-Serif" font-size="10.00">::engine::task::CodingTask &gt;</text>
</g>
<!-- Node14 -->
<g id="node11" class="node"><title>Node14</title>
<polygon fill="none" stroke="#bfbfbf" points="694,-463 694,-531 846,-531 846,-463 694,-463"/>
<text text-anchor="start" x="702" y="-519" font-family="Helvetica,sans-Serif" font-size="10.00">List&lt; org.msrg.raccoon.engine.</text>
<text text-anchor="middle" x="770" y="-508" font-family="Helvetica,sans-Serif" font-size="10.00">CodingEngineEvent &gt;</text>
<polyline fill="none" stroke="#bfbfbf" points="694,-501 846,-501 "/>
<text text-anchor="middle" x="770" y="-489" font-family="Helvetica,sans-Serif" font-size="10.00"> </text>
<polyline fill="none" stroke="#bfbfbf" points="694,-482 846,-482 "/>
<text text-anchor="middle" x="770" y="-470" font-family="Helvetica,sans-Serif" font-size="10.00"> </text>
</g>
<!-- Node11&#45;&gt;Node14 -->
<g id="edge11" class="edge"><title>Node11&#45;&gt;Node14</title>
<path fill="none" stroke="orange" d="M703.937,-675.992C716.635,-668.11 731.208,-656.888 740,-643 761.518,-609.007 767.939,-562.386 769.679,-531.281"/>
<polygon fill="orange" stroke="orange" points="702.004,-673.067 695.132,-681.131 705.532,-679.113 702.004,-673.067"/>
<text text-anchor="start" x="752" y="-635" font-family="Helvetica,sans-Serif" font-size="10.00"> &lt; org::msrg::raccoon</text>
<text text-anchor="middle" x="820" y="-624" font-family="Helvetica,sans-Serif" font-size="10.00">::engine::CodingEngineEvent &gt;</text>
</g>
<!-- Node12 -->
<g id="node9" class="node"><title>Node12</title>
<polygon fill="none" stroke="#bfbfbf" points="864.5,-463 864.5,-531 1043.5,-531 1043.5,-463 864.5,-463"/>
<text text-anchor="start" x="872.5" y="-519" font-family="Helvetica,sans-Serif" font-size="10.00">Collection&lt; org.msrg.raccoon.engine.</text>
<text text-anchor="middle" x="954" y="-508" font-family="Helvetica,sans-Serif" font-size="10.00">ICodingListener &gt;</text>
<polyline fill="none" stroke="#bfbfbf" points="864.5,-501 1043.5,-501 "/>
<text text-anchor="middle" x="954" y="-489" font-family="Helvetica,sans-Serif" font-size="10.00"> </text>
<polyline fill="none" stroke="#bfbfbf" points="864.5,-482 1043.5,-482 "/>
<text text-anchor="middle" x="954" y="-470" font-family="Helvetica,sans-Serif" font-size="10.00"> </text>
</g>
<!-- Node12&#45;&gt;Node4 -->
<g id="edge8" class="edge"><title>Node12&#45;&gt;Node4</title>
<path fill="none" stroke="#404040" d="M931.817,-462.824C908.798,-429.709 870.668,-378.361 831,-340 783.923,-294.473 724.805,-250.783 676.785,-218.081"/>
<polygon fill="none" stroke="#404040" points="676.656,-217.994 669.445,-217.947 666.715,-211.273 673.926,-211.32 676.656,-217.994"/>
<text text-anchor="middle" x="885.5" y="-354" font-family="Helvetica,sans-Serif" font-size="10.00"> &#45;_listeners</text>
</g>
<!-- Node13 -->
<g id="node10" class="node"><title>Node13</title>
<polygon fill="none" stroke="#bfbfbf" points="1030,-661.5 1030,-718.5 1090,-718.5 1090,-661.5 1030,-661.5"/>
<text text-anchor="middle" x="1060" y="-706.5" font-family="Helvetica,sans-Serif" font-size="10.00">Collection</text>
<polyline fill="none" stroke="#bfbfbf" points="1030,-699.5 1090,-699.5 "/>
<text text-anchor="middle" x="1060" y="-687.5" font-family="Helvetica,sans-Serif" font-size="10.00"> </text>
<polyline fill="none" stroke="#bfbfbf" points="1030,-680.5 1090,-680.5 "/>
<text text-anchor="middle" x="1060" y="-668.5" font-family="Helvetica,sans-Serif" font-size="10.00"> </text>
</g>
<!-- Node13&#45;&gt;Node12 -->
<g id="edge9" class="edge"><title>Node13&#45;&gt;Node12</title>
<path fill="none" stroke="orange" d="M1022.56,-660.012C1017.21,-654.752 1012.13,-649.012 1008,-643 984.286,-608.45 969.421,-562.164 961.426,-531.275"/>
<polygon fill="orange" stroke="orange" points="1020.25,-662.642 1029.96,-666.868 1025,-657.506 1020.25,-662.642"/>
<text text-anchor="start" x="1008" y="-635" font-family="Helvetica,sans-Serif" font-size="10.00"> &lt; org::msrg::raccoon</text>
<text text-anchor="middle" x="1067" y="-624" font-family="Helvetica,sans-Serif" font-size="10.00">::engine::ICodingListener &gt;</text>
</g>
<!-- Node15 -->
<g id="node12" class="node"><title>Node15</title>
<polygon fill="none" stroke="#bfbfbf" points="1061.5,-463 1061.5,-531 1270.5,-531 1270.5,-463 1061.5,-463"/>
<text text-anchor="start" x="1069.5" y="-519" font-family="Helvetica,sans-Serif" font-size="10.00">Collection&lt; org.msrg.raccoon.engine.thread.</text>
<text text-anchor="middle" x="1166" y="-508" font-family="Helvetica,sans-Serif" font-size="10.00">CodingThread &gt;</text>
<polyline fill="none" stroke="#bfbfbf" points="1061.5,-501 1270.5,-501 "/>
<text text-anchor="middle" x="1166" y="-489" font-family="Helvetica,sans-Serif" font-size="10.00"> </text>
<polyline fill="none" stroke="#bfbfbf" points="1061.5,-482 1270.5,-482 "/>
<text text-anchor="middle" x="1166" y="-470" font-family="Helvetica,sans-Serif" font-size="10.00"> </text>
</g>
<!-- Node13&#45;&gt;Node15 -->
<g id="edge13" class="edge"><title>Node13&#45;&gt;Node15</title>
<path fill="none" stroke="orange" d="M1098.7,-668.6C1108.82,-661.66 1118.88,-653.066 1126,-643 1149.68,-609.528 1159.36,-562.575 1163.3,-531.266"/>
<polygon fill="orange" stroke="orange" points="1096.76,-665.685 1090.24,-674.037 1100.55,-671.573 1096.76,-665.685"/>
<text text-anchor="start" x="1139" y="-635" font-family="Helvetica,sans-Serif" font-size="10.00"> &lt; org::msrg::raccoon</text>
<text text-anchor="middle" x="1211" y="-624" font-family="Helvetica,sans-Serif" font-size="10.00">::engine::thread::CodingThread &gt;</text>
</g>
<!-- Node14&#45;&gt;Node4 -->
<g id="edge10" class="edge"><title>Node14&#45;&gt;Node4</title>
<path fill="none" stroke="#404040" d="M751.983,-462.754C733.166,-428.031 702.285,-371.045 672.434,-315.962"/>
<polygon fill="none" stroke="#404040" points="672.397,-315.892 666.021,-312.523 666.679,-305.342 673.055,-308.711 672.397,-315.892"/>
<text text-anchor="middle" x="764.5" y="-365" font-family="Helvetica,sans-Serif" font-size="10.00"> #_lowPriorityEventQueue</text>
<text text-anchor="middle" x="764.5" y="-354" font-family="Helvetica,sans-Serif" font-size="10.00">#_highPriorityEventQueue</text>
<text text-anchor="middle" x="764.5" y="-343" font-family="Helvetica,sans-Serif" font-size="10.00">#_normalPriorityEventQueue</text>
</g>
<!-- Node15&#45;&gt;Node4 -->
<g id="edge12" class="edge"><title>Node15&#45;&gt;Node4</title>
<path fill="none" stroke="#404040" d="M1134.7,-462.557C1112.9,-440.474 1082.39,-411.87 1052,-391 930.587,-307.612 774.381,-236.961 678.005,-197.029"/>
<polygon fill="none" stroke="#404040" points="677.94,-197.002 670.869,-198.415 666.845,-192.431 673.916,-191.018 677.94,-197.002"/>
<text text-anchor="middle" x="1041" y="-354" font-family="Helvetica,sans-Serif" font-size="10.00"> #_threads</text>
</g>
</g>
</svg>
