<?xml version="1.0" encoding="UTF-8" standalone="no"?>
<!DOCTYPE svg PUBLIC "-//W3C//DTD SVG 1.1//EN"
 "http://www.w3.org/Graphics/SVG/1.1/DTD/svg11.dtd">
<!-- Generated by graphviz version 2.38.0 (20140413.2041)
 -->
<!-- Title: org.msrg.raccoon.CodedPieceTest Pages: 1 -->
<svg width="176pt" height="215pt"
 viewBox="0.00 0.00 176.00 215.00" xmlns="http://www.w3.org/2000/svg" xmlns:xlink="http://www.w3.org/1999/xlink">
<g id="graph0" class="graph" transform="scale(1 1) rotate(0) translate(4 211)">
<title>org.msrg.raccoon.CodedPieceTest</title>
<!-- Node1 -->
<g id="node1" class="node"><title>Node1</title>
<polygon fill="#bfbfbf" stroke="black" points="-1.42109e-14,-0.5 -1.42109e-14,-112.5 168,-112.5 168,-0.5 -1.42109e-14,-0.5"/>
<text text-anchor="middle" x="84" y="-100.5" font-family="Helvetica,sans-Serif" font-size="10.00">org.msrg.raccoon.CodedPieceTest</text>
<polyline fill="none" stroke="black" points="-1.42109e-14,-93.5 168,-93.5 "/>
<text text-anchor="start" x="8" y="-81.5" font-family="Helvetica,sans-Serif" font-size="10.00">+ _rows</text>
<text text-anchor="start" x="8" y="-70.5" font-family="Helvetica,sans-Serif" font-size="10.00">+ _cols</text>
<text text-anchor="start" x="8" y="-59.5" font-family="Helvetica,sans-Serif" font-size="10.00">~ _b</text>
<text text-anchor="start" x="8" y="-48.5" font-family="Helvetica,sans-Serif" font-size="10.00">~ _bm</text>
<text text-anchor="start" x="8" y="-37.5" font-family="Helvetica,sans-Serif" font-size="10.00">~ _cp</text>
<polyline fill="none" stroke="black" points="-1.42109e-14,-30.5 168,-30.5 "/>
<text text-anchor="start" x="8" y="-18.5" font-family="Helvetica,sans-Serif" font-size="10.00">+ setUp()</text>
<text text-anchor="start" x="8" y="-7.5" font-family="Helvetica,sans-Serif" font-size="10.00">+ testCodedPiece()</text>
</g>
<!-- Node2 -->
<g id="node2" class="node"><title>Node2</title>
<polygon fill="none" stroke="#bfbfbf" points="54.5,-149.5 54.5,-206.5 113.5,-206.5 113.5,-149.5 54.5,-149.5"/>
<text text-anchor="middle" x="84" y="-194.5" font-family="Helvetica,sans-Serif" font-size="10.00">TestCase</text>
<polyline fill="none" stroke="#bfbfbf" points="54.5,-187.5 113.5,-187.5 "/>
<text text-anchor="middle" x="84" y="-175.5" font-family="Helvetica,sans-Serif" font-size="10.00"> </text>
<polyline fill="none" stroke="#bfbfbf" points="54.5,-168.5 113.5,-168.5 "/>
<text text-anchor="middle" x="84" y="-156.5" font-family="Helvetica,sans-Serif" font-size="10.00"> </text>
</g>
<!-- Node2&#45;&gt;Node1 -->
<g id="edge1" class="edge"><title>Node2&#45;&gt;Node1</title>
<path fill="none" stroke="midnightblue" d="M84,-139.108C84,-130.748 84,-121.725 84,-112.834"/>
<polygon fill="none" stroke="midnightblue" points="80.5001,-139.284 84,-149.284 87.5001,-139.284 80.5001,-139.284"/>
</g>
</g>
</svg>
