<?xml version="1.0" encoding="UTF-8" standalone="no"?>
<!DOCTYPE svg PUBLIC "-//W3C//DTD SVG 1.1//EN"
 "http://www.w3.org/Graphics/SVG/1.1/DTD/svg11.dtd">
<!-- Generated by graphviz version 2.38.0 (20140413.2041)
 -->
<!-- Title: org.msrg.raccoon.engine.task.sequential.EncodingReceivedCodedBatch_SequentialCodingTask.runStagePrivately Pages: 1 -->
<!--zoomable 568 -->
<svg id="main" version="1.1" xmlns="http://www.w3.org/2000/svg" xmlns:xlink="http://www.w3.org/1999/xlink" xml:space="preserve" onload="init(evt)">
<style type="text/css"><![CDATA[
.edge:hover path { stroke: red; }
.edge:hover polygon { stroke: red; fill: red; }
]]></style>
<script type="text/javascript"><![CDATA[
var edges = document.getElementsByTagName('g');
if (edges && edges.length) {
  for (var i=0;i<edges.length;i++) {
    if (edges[i].id.substr(0,4)=='edge') {
      edges[i].setAttribute('class','edge');
    }
  }
}
]]></script>
        <defs>
                <circle id="rim" cx="0" cy="0" r="7"/>
                <circle id="rim2" cx="0" cy="0" r="3.5"/>
                <g id="zoomPlus">
                        <use xlink:href="#rim" fill="#404040">
                                <set attributeName="fill" to="#808080" begin="zoomplus.mouseover" end="zoomplus.mouseout"/>
                        </use>
                        <path d="M-4,0h8M0,-4v8" fill="none" stroke="white" stroke-width="1.5" pointer-events="none"/>
                </g>
                <g id="zoomMin">
                        <use xlink:href="#rim" fill="#404040">
                                <set attributeName="fill" to="#808080" begin="zoomminus.mouseover" end="zoomminus.mouseout"/>
                        </use>
                        <path d="M-4,0h8" fill="none" stroke="white" stroke-width="1.5" pointer-events="none"/>
                </g>
                <g id="dirArrow">
                        <path fill="none" stroke="white" stroke-width="1.5" d="M0,-3.0v7 M-2.5,-0.5L0,-3.0L2.5,-0.5"/>
                </g>
               <g id="resetDef">
                       <use xlink:href="#rim2" fill="#404040">
                               <set attributeName="fill" to="#808080" begin="reset.mouseover" end="reset.mouseout"/>
                       </use>
               </g>
        </defs>

<script type="text/javascript">
var viewWidth = 868;
var viewHeight = 568;
var sectionId = 'dynsection-0';
</script>
<script xlink:href="../../svgpan.js"/>
<svg id="graph" class="graph">
<g id="viewport">
<title>org.msrg.raccoon.engine.task.sequential.EncodingReceivedCodedBatch_SequentialCodingTask.runStagePrivately</title>
<!-- Node0 -->
<g id="node1" class="node"><title>Node0</title>
<polygon fill="#bfbfbf" stroke="black" points="0,-257 0,-298 234,-298 234,-257 0,-257"/>
<text text-anchor="start" x="8" y="-286" font-family="Helvetica,sans-Serif" font-size="10.00">org.msrg.raccoon.engine.task.sequential.</text>
<text text-anchor="start" x="8" y="-275" font-family="Helvetica,sans-Serif" font-size="10.00">EncodingReceivedCodedBatch_SequentialCoding</text>
<text text-anchor="middle" x="117" y="-264" font-family="Helvetica,sans-Serif" font-size="10.00">Task.runStagePrivately</text>
</g>
<!-- Node1 -->
<g id="node2" class="node"><title>Node1</title>
<g id="a_node2"><a xlink:href="../../d6/d6d/classorg_1_1msrg_1_1raccoon_1_1matrix_1_1bulk_1_1SliceMatrix_a79fcf9310cb51ef4ff605abec91d29a8.html#a79fcf9310cb51ef4ff605abec91d29a8" target="_top" xlink:title="org.msrg.raccoon.matrix.bulk.\lSliceMatrix.createEmptyCodedPiece">
<polygon fill="none" stroke="black" points="279.5,-529.5 279.5,-559.5 456.5,-559.5 456.5,-529.5 279.5,-529.5"/>
<text text-anchor="start" x="287.5" y="-547.5" font-family="Helvetica,sans-Serif" font-size="10.00">org.msrg.raccoon.matrix.bulk.</text>
<text text-anchor="middle" x="368" y="-536.5" font-family="Helvetica,sans-Serif" font-size="10.00">SliceMatrix.createEmptyCodedPiece</text>
</a>
</g>
</g>
<!-- Node0&#45;&gt;Node1 -->
<g id="edge1" class="edge"><title>Node0&#45;&gt;Node1</title>
<path fill="none" stroke="midnightblue" d="M124.819,-298.201C141.499,-345.476 189.016,-461.801 270,-520.5 272.089,-522.014 274.263,-523.434 276.505,-524.764"/>
<polygon fill="midnightblue" stroke="midnightblue" points="274.973,-527.913 285.453,-529.467 278.229,-521.716 274.973,-527.913"/>
</g>
<!-- Node2 -->
<g id="node3" class="node"><title>Node2</title>
<g id="a_node3"><a xlink:href="../../dd/da2/classorg_1_1msrg_1_1raccoon_1_1CodedBatch_ab414d020a52f6be774b5752596dd6660.html#ab414d020a52f6be774b5752596dd6660" target="_top" xlink:title="org.msrg.raccoon.CodedBatch.create\lNewBulkMatrix">
<polygon fill="none" stroke="black" points="278.5,-480.5 278.5,-510.5 457.5,-510.5 457.5,-480.5 278.5,-480.5"/>
<text text-anchor="start" x="286.5" y="-498.5" font-family="Helvetica,sans-Serif" font-size="10.00">org.msrg.raccoon.CodedBatch.create</text>
<text text-anchor="middle" x="368" y="-487.5" font-family="Helvetica,sans-Serif" font-size="10.00">NewBulkMatrix</text>
</a>
</g>
</g>
<!-- Node0&#45;&gt;Node2 -->
<g id="edge2" class="edge"><title>Node0&#45;&gt;Node2</title>
<path fill="none" stroke="midnightblue" d="M128.166,-298.19C148.955,-338.245 200.313,-426.401 270,-471.5 272.458,-473.091 275.013,-474.576 277.642,-475.962"/>
<polygon fill="midnightblue" stroke="midnightblue" points="276.295,-479.197 286.832,-480.308 279.288,-472.869 276.295,-479.197"/>
</g>
<!-- Node3 -->
<g id="node4" class="node"><title>Node3</title>
<g id="a_node4"><a xlink:href="../../d6/d78/classorg_1_1msrg_1_1raccoon_1_1engine_1_1task_1_1sequential_1_1SequentialCodingTask_aa6775297516c20f0f7a5d691376b4937.html#aa6775297516c20f0f7a5d691376b4937" target="_top" xlink:title="org.msrg.raccoon.engine.task.sequential.\lSequentialCodingTask.failed">
<polygon fill="none" stroke="black" points="270,-431.5 270,-461.5 466,-461.5 466,-431.5 270,-431.5"/>
<text text-anchor="start" x="278" y="-449.5" font-family="Helvetica,sans-Serif" font-size="10.00">org.msrg.raccoon.engine.task.sequential.</text>
<text text-anchor="middle" x="368" y="-438.5" font-family="Helvetica,sans-Serif" font-size="10.00">SequentialCodingTask.failed</text>
</a>
</g>
</g>
<!-- Node0&#45;&gt;Node3 -->
<g id="edge3" class="edge"><title>Node0&#45;&gt;Node3</title>
<path fill="none" stroke="midnightblue" d="M133.554,-298.051C158.677,-329.754 211.34,-390.287 270,-422.5 273.451,-424.395 277.053,-426.143 280.751,-427.755"/>
<polygon fill="midnightblue" stroke="midnightblue" points="279.527,-431.034 290.112,-431.486 282.119,-424.532 279.527,-431.034"/>
</g>
<!-- Node4 -->
<g id="node5" class="node"><title>Node4</title>
<g id="a_node5"><a xlink:href="../../dd/d36/classorg_1_1msrg_1_1raccoon_1_1matrix_1_1finitefields_1_1ByteMatrix_a9d2e2b6104ba9495e675cd3a7d4c3140.html#a9d2e2b6104ba9495e675cd3a7d4c3140" target="_top" xlink:title="org.msrg.raccoon.matrix.finitefields.\lByteMatrix.getByteArray">
<polygon fill="none" stroke="black" points="281.5,-382.5 281.5,-412.5 454.5,-412.5 454.5,-382.5 281.5,-382.5"/>
<text text-anchor="start" x="289.5" y="-400.5" font-family="Helvetica,sans-Serif" font-size="10.00">org.msrg.raccoon.matrix.finitefields.</text>
<text text-anchor="middle" x="368" y="-389.5" font-family="Helvetica,sans-Serif" font-size="10.00">ByteMatrix.getByteArray</text>
</a>
</g>
</g>
<!-- Node0&#45;&gt;Node4 -->
<g id="edge4" class="edge"><title>Node0&#45;&gt;Node4</title>
<path fill="none" stroke="midnightblue" d="M144.539,-298.007C173.775,-319.675 222.913,-353.429 270,-373.5 274.987,-375.626 280.202,-377.59 285.515,-379.401"/>
<polygon fill="midnightblue" stroke="midnightblue" points="284.565,-382.772 295.156,-382.496 286.704,-376.107 284.565,-382.772"/>
</g>
<!-- Node6 -->
<g id="node7" class="node"><title>Node6</title>
<g id="a_node7"><a xlink:href="../../dd/da2/classorg_1_1msrg_1_1raccoon_1_1CodedBatch_afe8effcfcebef8536811b72ddd553cd1.html#afe8effcfcebef8536811b72ddd553cd1" target="_top" xlink:title="org.msrg.raccoon.CodedBatch.get\lNewCodedCoefficients">
<polygon fill="none" stroke="black" points="285,-333.5 285,-363.5 451,-363.5 451,-333.5 285,-333.5"/>
<text text-anchor="start" x="293" y="-351.5" font-family="Helvetica,sans-Serif" font-size="10.00">org.msrg.raccoon.CodedBatch.get</text>
<text text-anchor="middle" x="368" y="-340.5" font-family="Helvetica,sans-Serif" font-size="10.00">NewCodedCoefficients</text>
</a>
</g>
</g>
<!-- Node0&#45;&gt;Node6 -->
<g id="edge6" class="edge"><title>Node0&#45;&gt;Node6</title>
<path fill="none" stroke="midnightblue" d="M181.733,-298.098C208.839,-306.627 240.86,-316.397 270,-324.5 277.783,-326.664 285.944,-328.835 294.088,-330.939"/>
<polygon fill="midnightblue" stroke="midnightblue" points="293.432,-334.384 303.987,-333.467 295.164,-327.601 293.432,-334.384"/>
</g>
<!-- Node7 -->
<g id="node8" class="node"><title>Node7</title>
<g id="a_node8"><a xlink:href="../../d0/d50/classorg_1_1msrg_1_1raccoon_1_1engine_1_1task_1_1result_1_1SliceMatrix__CodingResult_a3927c013fc0f3416dfb055b484327201.html#a3927c013fc0f3416dfb055b484327201" target="_top" xlink:title="org.msrg.raccoon.engine.task.result.\lSliceMatrix_CodingResult.getResult">
<polygon fill="none" stroke="black" points="280,-284.5 280,-314.5 456,-314.5 456,-284.5 280,-284.5"/>
<text text-anchor="start" x="288" y="-302.5" font-family="Helvetica,sans-Serif" font-size="10.00">org.msrg.raccoon.engine.task.result.</text>
<text text-anchor="middle" x="368" y="-291.5" font-family="Helvetica,sans-Serif" font-size="10.00">SliceMatrix_CodingResult.getResult</text>
</a>
</g>
</g>
<!-- Node0&#45;&gt;Node7 -->
<g id="edge7" class="edge"><title>Node0&#45;&gt;Node7</title>
<path fill="none" stroke="midnightblue" d="M234.116,-287.759C245.982,-288.808 257.95,-289.865 269.585,-290.893"/>
<polygon fill="midnightblue" stroke="midnightblue" points="269.445,-294.394 279.714,-291.788 270.061,-287.421 269.445,-294.394"/>
</g>
<!-- Node8 -->
<g id="node9" class="node"><title>Node8</title>
<g id="a_node9"><a xlink:href="../../df/d3e/classorg_1_1msrg_1_1raccoon_1_1engine_1_1task_1_1result_1_1CodingResult_a3d4ac3e6ad6ad1a0bbbbc8f345092652.html#a3d4ac3e6ad6ad1a0bbbbc8f345092652" target="_top" xlink:title="org.msrg.raccoon.engine.task.result.\lCodingResult.isFinished">
<polygon fill="none" stroke="black" points="502,-262.5 502,-292.5 678,-292.5 678,-262.5 502,-262.5"/>
<text text-anchor="start" x="510" y="-280.5" font-family="Helvetica,sans-Serif" font-size="10.00">org.msrg.raccoon.engine.task.result.</text>
<text text-anchor="middle" x="590" y="-269.5" font-family="Helvetica,sans-Serif" font-size="10.00">CodingResult.isFinished</text>
</a>
</g>
</g>
<!-- Node0&#45;&gt;Node8 -->
<g id="edge10" class="edge"><title>Node0&#45;&gt;Node8</title>
<path fill="none" stroke="midnightblue" d="M234.183,-275.814C246.278,-275.686 258.388,-275.576 270,-275.5 357.109,-274.927 378.892,-274.792 466,-275.5 474.366,-275.568 483.051,-275.662 491.762,-275.773"/>
<polygon fill="midnightblue" stroke="midnightblue" points="491.937,-279.275 501.983,-275.909 492.031,-272.276 491.937,-279.275"/>
</g>
<!-- Node9 -->
<g id="node10" class="node"><title>Node9</title>
<g id="a_node10"><a xlink:href="../../df/d3e/classorg_1_1msrg_1_1raccoon_1_1engine_1_1task_1_1result_1_1CodingResult_af346f009892c564aa7b2a6751914b154.html#af346f009892c564aa7b2a6751914b154" target="_top" xlink:title="org.msrg.raccoon.engine.task.result.\lCodingResult.isFailed">
<polygon fill="none" stroke="black" points="280,-196.5 280,-226.5 456,-226.5 456,-196.5 280,-196.5"/>
<text text-anchor="start" x="288" y="-214.5" font-family="Helvetica,sans-Serif" font-size="10.00">org.msrg.raccoon.engine.task.result.</text>
<text text-anchor="middle" x="368" y="-203.5" font-family="Helvetica,sans-Serif" font-size="10.00">CodingResult.isFailed</text>
</a>
</g>
</g>
<!-- Node0&#45;&gt;Node9 -->
<g id="edge9" class="edge"><title>Node0&#45;&gt;Node9</title>
<path fill="none" stroke="midnightblue" d="M195.42,-256.979C229.059,-248.063 268.075,-237.721 300.394,-229.155"/>
<polygon fill="midnightblue" stroke="midnightblue" points="301.427,-232.502 310.196,-226.556 299.633,-225.735 301.427,-232.502"/>
</g>
<!-- Node10 -->
<g id="node11" class="node"><title>Node10</title>
<g id="a_node11"><a xlink:href="../../dd/dff/interfaceorg_1_1msrg_1_1raccoon_1_1engine_1_1ICodingEngine_a0b4cebd680a0fa0a6d0fb420fec4bd52.html#a0b4cebd680a0fa0a6d0fb420fec4bd52" target="_top" xlink:title="org.msrg.raccoon.engine.\lICodingEngine.multiply">
<polygon fill="none" stroke="black" points="304.5,-147.5 304.5,-177.5 431.5,-177.5 431.5,-147.5 304.5,-147.5"/>
<text text-anchor="start" x="312.5" y="-165.5" font-family="Helvetica,sans-Serif" font-size="10.00">org.msrg.raccoon.engine.</text>
<text text-anchor="middle" x="368" y="-154.5" font-family="Helvetica,sans-Serif" font-size="10.00">ICodingEngine.multiply</text>
</a>
</g>
</g>
<!-- Node0&#45;&gt;Node10 -->
<g id="edge11" class="edge"><title>Node0&#45;&gt;Node10</title>
<path fill="none" stroke="midnightblue" d="M146.974,-256.959C176.635,-236.764 224.68,-206.31 270,-187.5 277.793,-184.266 286.115,-181.359 294.488,-178.773"/>
<polygon fill="midnightblue" stroke="midnightblue" points="295.704,-182.063 304.31,-175.883 293.728,-175.348 295.704,-182.063"/>
</g>
<!-- Node11 -->
<g id="node12" class="node"><title>Node11</title>
<g id="a_node12"><a xlink:href="../../dd/d36/classorg_1_1msrg_1_1raccoon_1_1matrix_1_1finitefields_1_1ByteMatrix_a5a3c18a9905c1d33c6a992930e2b6a78.html#a5a3c18a9905c1d33c6a992930e2b6a78" target="_top" xlink:title="org.msrg.raccoon.matrix.finitefields.\lByteMatrix.multiply">
<polygon fill="none" stroke="black" points="281.5,-98.5 281.5,-128.5 454.5,-128.5 454.5,-98.5 281.5,-98.5"/>
<text text-anchor="start" x="289.5" y="-116.5" font-family="Helvetica,sans-Serif" font-size="10.00">org.msrg.raccoon.matrix.finitefields.</text>
<text text-anchor="middle" x="368" y="-105.5" font-family="Helvetica,sans-Serif" font-size="10.00">ByteMatrix.multiply</text>
</a>
</g>
</g>
<!-- Node0&#45;&gt;Node11 -->
<g id="edge12" class="edge"><title>Node0&#45;&gt;Node11</title>
<path fill="none" stroke="midnightblue" d="M134.627,-256.891C160.381,-226.364 212.934,-169.417 270,-138.5 274.222,-136.213 278.661,-134.128 283.222,-132.229"/>
<polygon fill="midnightblue" stroke="midnightblue" points="284.64,-135.434 292.724,-128.586 282.134,-128.898 284.64,-135.434"/>
</g>
<!-- Node17 -->
<g id="node18" class="node"><title>Node17</title>
<g id="a_node18"><a xlink:href="../../d6/d78/classorg_1_1msrg_1_1raccoon_1_1engine_1_1task_1_1sequential_1_1SequentialCodingTask_a9fee0e39302d3e057700653cea01cfe4.html#a9fee0e39302d3e057700653cea01cfe4" target="_top" xlink:title="org.msrg.raccoon.engine.task.sequential.\lSequentialCodingTask.setCurrentStage">
<polygon fill="none" stroke="black" points="270,-49.5 270,-79.5 466,-79.5 466,-49.5 270,-49.5"/>
<text text-anchor="start" x="278" y="-67.5" font-family="Helvetica,sans-Serif" font-size="10.00">org.msrg.raccoon.engine.task.sequential.</text>
<text text-anchor="middle" x="368" y="-56.5" font-family="Helvetica,sans-Serif" font-size="10.00">SequentialCodingTask.setCurrentStage</text>
</a>
</g>
</g>
<!-- Node0&#45;&gt;Node17 -->
<g id="edge18" class="edge"><title>Node0&#45;&gt;Node17</title>
<path fill="none" stroke="midnightblue" d="M128.707,-256.908C150.074,-217.922 201.869,-133.32 270,-89.5 273.186,-87.4509 276.532,-85.5696 279.987,-83.8422"/>
<polygon fill="midnightblue" stroke="midnightblue" points="281.678,-86.9196 289.357,-79.6201 278.802,-80.5377 281.678,-86.9196"/>
</g>
<!-- Node18 -->
<g id="node19" class="node"><title>Node18</title>
<g id="a_node19"><a xlink:href="../../db/d3f/classorg_1_1msrg_1_1raccoon_1_1matrix_1_1TypedMatrix_af8b135c80a283acac5996df88e99c99a.html#af8b135c80a283acac5996df88e99c99a" target="_top" xlink:title="org.msrg.raccoon.matrix.\lTypedMatrix.verify">
<polygon fill="none" stroke="black" points="305.5,-0.5 305.5,-30.5 430.5,-30.5 430.5,-0.5 305.5,-0.5"/>
<text text-anchor="start" x="313.5" y="-18.5" font-family="Helvetica,sans-Serif" font-size="10.00">org.msrg.raccoon.matrix.</text>
<text text-anchor="middle" x="368" y="-7.5" font-family="Helvetica,sans-Serif" font-size="10.00">TypedMatrix.verify</text>
</a>
</g>
</g>
<!-- Node0&#45;&gt;Node18 -->
<g id="edge19" class="edge"><title>Node0&#45;&gt;Node18</title>
<path fill="none" stroke="midnightblue" d="M125.074,-256.873C142.135,-210.342 190.139,-96.8149 270,-39.5 277.741,-33.9446 286.625,-29.6683 295.805,-26.3779"/>
<polygon fill="midnightblue" stroke="midnightblue" points="296.986,-29.6748 305.444,-23.2936 294.853,-23.0079 296.986,-29.6748"/>
</g>
<!-- Node5 -->
<g id="node6" class="node"><title>Node5</title>
<g id="a_node6"><a xlink:href="../../dd/d36/classorg_1_1msrg_1_1raccoon_1_1matrix_1_1finitefields_1_1ByteMatrix_ae680bc03b706fb0ed7304506d2eb42fc.html#ae680bc03b706fb0ed7304506d2eb42fc" target="_top" xlink:title="org.msrg.raccoon.matrix.finitefields.\lByteMatrix.unwrap">
<polygon fill="none" stroke="black" points="503.5,-382.5 503.5,-412.5 676.5,-412.5 676.5,-382.5 503.5,-382.5"/>
<text text-anchor="start" x="511.5" y="-400.5" font-family="Helvetica,sans-Serif" font-size="10.00">org.msrg.raccoon.matrix.finitefields.</text>
<text text-anchor="middle" x="590" y="-389.5" font-family="Helvetica,sans-Serif" font-size="10.00">ByteMatrix.unwrap</text>
</a>
</g>
</g>
<!-- Node4&#45;&gt;Node5 -->
<g id="edge5" class="edge"><title>Node4&#45;&gt;Node5</title>
<path fill="none" stroke="midnightblue" d="M454.688,-397.5C467.254,-397.5 480.266,-397.5 493.022,-397.5"/>
<polygon fill="midnightblue" stroke="midnightblue" points="493.184,-401 503.184,-397.5 493.184,-394 493.184,-401"/>
</g>
<!-- Node7&#45;&gt;Node8 -->
<g id="edge8" class="edge"><title>Node7&#45;&gt;Node8</title>
<path fill="none" stroke="midnightblue" d="M456.266,-290.773C467.864,-289.614 479.815,-288.419 491.572,-287.243"/>
<polygon fill="midnightblue" stroke="midnightblue" points="492.238,-290.694 501.84,-286.216 491.541,-283.729 492.238,-290.694"/>
</g>
<!-- Node12 -->
<g id="node13" class="node"><title>Node12</title>
<g id="a_node13"><a xlink:href="../../df/da4/classorg_1_1msrg_1_1raccoon_1_1matrix_1_1bulk_1_1BulkMatrix_a804160abadbedfe02caa0c441731a519.html#a804160abadbedfe02caa0c441731a519" target="_top" xlink:title="org.msrg.raccoon.matrix.bulk.\lBulkMatrix.getContent">
<polygon fill="none" stroke="black" points="517,-171.5 517,-201.5 663,-201.5 663,-171.5 517,-171.5"/>
<text text-anchor="start" x="525" y="-189.5" font-family="Helvetica,sans-Serif" font-size="10.00">org.msrg.raccoon.matrix.bulk.</text>
<text text-anchor="middle" x="590" y="-178.5" font-family="Helvetica,sans-Serif" font-size="10.00">BulkMatrix.getContent</text>
</a>
</g>
</g>
<!-- Node11&#45;&gt;Node12 -->
<g id="edge13" class="edge"><title>Node11&#45;&gt;Node12</title>
<path fill="none" stroke="midnightblue" d="M439.116,-128.557C448.324,-131.405 457.505,-134.705 466,-138.5 483.557,-146.343 484.51,-154.508 502,-162.5 506.315,-164.472 510.827,-166.313 515.429,-168.027"/>
<polygon fill="midnightblue" stroke="midnightblue" points="514.37,-171.364 524.965,-171.367 516.684,-164.758 514.37,-171.364"/>
</g>
<!-- Node13 -->
<g id="node14" class="node"><title>Node13</title>
<g id="a_node14"><a xlink:href="../../df/da4/classorg_1_1msrg_1_1raccoon_1_1matrix_1_1bulk_1_1BulkMatrix_a1ea2bca79aa590fdcfa5f472acc479cc.html#a1ea2bca79aa590fdcfa5f472acc479cc" target="_top" xlink:title="org.msrg.raccoon.matrix.bulk.\lBulkMatrix.createEmptyMatrix">
<polygon fill="none" stroke="black" points="515.5,-122.5 515.5,-152.5 664.5,-152.5 664.5,-122.5 515.5,-122.5"/>
<text text-anchor="start" x="523.5" y="-140.5" font-family="Helvetica,sans-Serif" font-size="10.00">org.msrg.raccoon.matrix.bulk.</text>
<text text-anchor="middle" x="590" y="-129.5" font-family="Helvetica,sans-Serif" font-size="10.00">BulkMatrix.createEmptyMatrix</text>
</a>
</g>
</g>
<!-- Node11&#45;&gt;Node13 -->
<g id="edge14" class="edge"><title>Node11&#45;&gt;Node13</title>
<path fill="none" stroke="midnightblue" d="M454.688,-122.848C471.273,-124.657 488.635,-126.551 505.16,-128.354"/>
<polygon fill="midnightblue" stroke="midnightblue" points="505.007,-131.858 515.327,-129.463 505.766,-124.899 505.007,-131.858"/>
</g>
<!-- Node15 -->
<g id="node16" class="node"><title>Node15</title>
<g id="a_node16"><a xlink:href="../../df/da4/classorg_1_1msrg_1_1raccoon_1_1matrix_1_1bulk_1_1BulkMatrix_a7f382b71b1e7fb03fa68f22724f75f88.html#a7f382b71b1e7fb03fa68f22724f75f88" target="_top" xlink:title="org.msrg.raccoon.matrix.bulk.\lBulkMatrix.slice">
<polygon fill="none" stroke="black" points="517,-73.5 517,-103.5 663,-103.5 663,-73.5 517,-73.5"/>
<text text-anchor="start" x="525" y="-91.5" font-family="Helvetica,sans-Serif" font-size="10.00">org.msrg.raccoon.matrix.bulk.</text>
<text text-anchor="middle" x="590" y="-80.5" font-family="Helvetica,sans-Serif" font-size="10.00">BulkMatrix.slice</text>
</a>
</g>
</g>
<!-- Node11&#45;&gt;Node15 -->
<g id="edge16" class="edge"><title>Node11&#45;&gt;Node15</title>
<path fill="none" stroke="midnightblue" d="M454.688,-103.763C471.673,-101.833 489.472,-99.81 506.353,-97.8916"/>
<polygon fill="midnightblue" stroke="midnightblue" points="507.19,-101.319 516.731,-96.7124 506.399,-94.364 507.19,-101.319"/>
</g>
<!-- Node16 -->
<g id="node17" class="node"><title>Node16</title>
<g id="a_node17"><a xlink:href="../../d6/d6d/classorg_1_1msrg_1_1raccoon_1_1matrix_1_1bulk_1_1SliceMatrix_a4c85807433398a037c9d6885569fba0e.html#a4c85807433398a037c9d6885569fba0e" target="_top" xlink:title="org.msrg.raccoon.matrix.bulk.\lSliceMatrix.loadNoCopy">
<polygon fill="none" stroke="black" points="517,-24.5 517,-54.5 663,-54.5 663,-24.5 517,-24.5"/>
<text text-anchor="start" x="525" y="-42.5" font-family="Helvetica,sans-Serif" font-size="10.00">org.msrg.raccoon.matrix.bulk.</text>
<text text-anchor="middle" x="590" y="-31.5" font-family="Helvetica,sans-Serif" font-size="10.00">SliceMatrix.loadNoCopy</text>
</a>
</g>
</g>
<!-- Node11&#45;&gt;Node16 -->
<g id="edge17" class="edge"><title>Node11&#45;&gt;Node16</title>
<path fill="none" stroke="midnightblue" d="M439.7,-98.4321C448.724,-95.5974 457.7,-92.3029 466,-88.5 483.709,-80.3863 484.36,-71.7633 502,-63.5 506.297,-61.4874 510.794,-59.615 515.384,-57.878"/>
<polygon fill="midnightblue" stroke="midnightblue" points="516.649,-61.1431 524.904,-54.501 514.309,-54.5459 516.649,-61.1431"/>
</g>
<!-- Node14 -->
<g id="node15" class="node"><title>Node14</title>
<g id="a_node15"><a xlink:href="../../df/da4/classorg_1_1msrg_1_1raccoon_1_1matrix_1_1bulk_1_1BulkMatrix_ae52685687565b5725a204d70237d300a.html#ae52685687565b5725a204d70237d300a" target="_top" xlink:title="org.msrg.raccoon.matrix.bulk.\lBulkMatrix.BulkMatrix">
<polygon fill="none" stroke="black" points="714,-122.5 714,-152.5 860,-152.5 860,-122.5 714,-122.5"/>
<text text-anchor="start" x="722" y="-140.5" font-family="Helvetica,sans-Serif" font-size="10.00">org.msrg.raccoon.matrix.bulk.</text>
<text text-anchor="middle" x="787" y="-129.5" font-family="Helvetica,sans-Serif" font-size="10.00">BulkMatrix.BulkMatrix</text>
</a>
</g>
</g>
<!-- Node13&#45;&gt;Node14 -->
<g id="edge15" class="edge"><title>Node13&#45;&gt;Node14</title>
<path fill="none" stroke="midnightblue" d="M664.721,-137.5C677.401,-137.5 690.653,-137.5 703.545,-137.5"/>
<polygon fill="midnightblue" stroke="midnightblue" points="703.79,-141 713.79,-137.5 703.79,-134 703.79,-141"/>
</g>
</g>
</svg>
        <g id="navigator" transform="translate(0 0)" fill="#404254">
                <rect fill="#f2f5e9" fill-opacity="0.5" stroke="#606060" stroke-width=".5" x="0" y="0" width="60" height="60"/>
                <use id="zoomplus" xlink:href="#zoomPlus" x="17" y="9" onmousedown="handleZoom(evt,'in')"/>
                <use id="zoomminus" xlink:href="#zoomMin" x="42" y="9" onmousedown="handleZoom(evt,'out')"/>
                <use id="reset" xlink:href="#resetDef" x="30" y="36" onmousedown="handleReset()"/>
                <g id="arrowUp" xlink:href="#dirArrow" transform="translate(30 24)" onmousedown="handlePan(0,-1)">
                  <use xlink:href="#rim" fill="#404040">
                        <set attributeName="fill" to="#808080" begin="arrowUp.mouseover" end="arrowUp.mouseout"/>
                  </use>
                  <path fill="none" stroke="white" stroke-width="1.5" d="M0,-3.0v7 M-2.5,-0.5L0,-3.0L2.5,-0.5"/>
                </g>
                <g id="arrowRight" xlink:href="#dirArrow" transform="rotate(90) translate(36 -43)" onmousedown="handlePan(1,0)">
                  <use xlink:href="#rim" fill="#404040">
                        <set attributeName="fill" to="#808080" begin="arrowRight.mouseover" end="arrowRight.mouseout"/>
                  </use>
                  <path fill="none" stroke="white" stroke-width="1.5" d="M0,-3.0v7 M-2.5,-0.5L0,-3.0L2.5,-0.5"/>
                </g>
                <g id="arrowDown" xlink:href="#dirArrow" transform="rotate(180) translate(-30 -48)" onmousedown="handlePan(0,1)">
                  <use xlink:href="#rim" fill="#404040">
                        <set attributeName="fill" to="#808080" begin="arrowDown.mouseover" end="arrowDown.mouseout"/>
                  </use>
                  <path fill="none" stroke="white" stroke-width="1.5" d="M0,-3.0v7 M-2.5,-0.5L0,-3.0L2.5,-0.5"/>
                </g>
                <g id="arrowLeft" xlink:href="#dirArrow" transform="rotate(270) translate(-36 17)" onmousedown="handlePan(-1,0)">
                  <use xlink:href="#rim" fill="#404040">
                        <set attributeName="fill" to="#808080" begin="arrowLeft.mouseover" end="arrowLeft.mouseout"/>
                  </use>
                  <path fill="none" stroke="white" stroke-width="1.5" d="M0,-3.0v7 M-2.5,-0.5L0,-3.0L2.5,-0.5"/>
                </g>
        </g>
        <svg viewBox="0 0 15 15" width="100%" height="30px" preserveAspectRatio="xMaxYMin meet">
         <g id="arrow_out" transform="scale(0.3 0.3)">
          <a xlink:href="classorg_1_1msrg_1_1raccoon_1_1engine_1_1task_1_1sequential_1_1EncodingReceivedCodedBatch__SequentialCodingTask_a42110602418c15d727175229b4b8f9cb_a42110602418c15d727175229b4b8f9cb_cgraph_org.svg" target="_base">
           <rect id="button" ry="5" rx="5" y="6" x="6" height="38" width="38"
                fill="#f2f5e9" fill-opacity="0.5" stroke="#606060" stroke-width="1.0"/>
           <path id="arrow"
             d="M 11.500037,31.436501 C 11.940474,20.09759 22.043105,11.32322 32.158766,21.979434 L 37.068811,17.246167 C 37.068811,17.246167 37.088388,32 37.088388,32 L 22.160133,31.978069 C 22.160133,31.978069 26.997745,27.140456 26.997745,27.140456 C 18.528582,18.264221 13.291696,25.230495 11.500037,31.436501 z"
             style="fill:#404040;"/>
          </a>
         </g>
        </svg>
</svg>
