<?xml version="1.0" encoding="UTF-8" standalone="no"?>
<!DOCTYPE svg PUBLIC "-//W3C//DTD SVG 1.1//EN"
 "http://www.w3.org/Graphics/SVG/1.1/DTD/svg11.dtd">
<!-- Generated by graphviz version 2.38.0 (20140413.2041)
 -->
<!-- Title: org.msrg.raccoon.engine.task.sequential.EncodingReceivedCodedBatch_SequentialCodingTask.runStagePrivately Pages: 1 -->
<svg width="868pt" height="519pt"
 viewBox="0.00 0.00 868.00 519.00" xmlns="http://www.w3.org/2000/svg" xmlns:xlink="http://www.w3.org/1999/xlink">
<g id="graph0" class="graph" transform="scale(1 1) rotate(0) translate(4 515)">
<title>org.msrg.raccoon.engine.task.sequential.EncodingReceivedCodedBatch_SequentialCodingTask.runStagePrivately</title>
<!-- Node1 -->
<g id="node1" class="node"><title>Node1</title>
<polygon fill="#bfbfbf" stroke="black" points="0,-235 0,-276 234,-276 234,-235 0,-235"/>
<text text-anchor="start" x="8" y="-264" font-family="Helvetica,sans-Serif" font-size="10.00">org.msrg.raccoon.engine.task.sequential.</text>
<text text-anchor="start" x="8" y="-253" font-family="Helvetica,sans-Serif" font-size="10.00">EncodingReceivedCodedBatch_SequentialCoding</text>
<text text-anchor="middle" x="117" y="-242" font-family="Helvetica,sans-Serif" font-size="10.00">Task.runStagePrivately</text>
</g>
<!-- Node2 -->
<g id="node2" class="node"><title>Node2</title>
<g id="a_node2"><a xlink:href="../../d6/d6d/classorg_1_1msrg_1_1raccoon_1_1matrix_1_1bulk_1_1SliceMatrix_a79fcf9310cb51ef4ff605abec91d29a8.html#a79fcf9310cb51ef4ff605abec91d29a8" target="_top" xlink:title="org.msrg.raccoon.matrix.bulk.\lSliceMatrix.createEmptyCodedPiece">
<polygon fill="none" stroke="black" points="279.5,-480.5 279.5,-510.5 456.5,-510.5 456.5,-480.5 279.5,-480.5"/>
<text text-anchor="start" x="287.5" y="-498.5" font-family="Helvetica,sans-Serif" font-size="10.00">org.msrg.raccoon.matrix.bulk.</text>
<text text-anchor="middle" x="368" y="-487.5" font-family="Helvetica,sans-Serif" font-size="10.00">SliceMatrix.createEmptyCodedPiece</text>
</a>
</g>
</g>
<!-- Node1&#45;&gt;Node2 -->
<g id="edge1" class="edge"><title>Node1&#45;&gt;Node2</title>
<path fill="none" stroke="midnightblue" d="M126.476,-276.172C145.373,-319.567 195.259,-420.359 270,-471.5 272.271,-473.054 274.632,-474.507 277.065,-475.866"/>
<polygon fill="midnightblue" stroke="midnightblue" points="275.635,-479.064 286.147,-480.389 278.756,-472.798 275.635,-479.064"/>
</g>
<!-- Node3 -->
<g id="node3" class="node"><title>Node3</title>
<g id="a_node3"><a xlink:href="../../d6/d78/classorg_1_1msrg_1_1raccoon_1_1engine_1_1task_1_1sequential_1_1SequentialCodingTask_aa6775297516c20f0f7a5d691376b4937.html#aa6775297516c20f0f7a5d691376b4937" target="_top" xlink:title="org.msrg.raccoon.engine.task.sequential.\lSequentialCodingTask.failed">
<polygon fill="none" stroke="black" points="270,-431.5 270,-461.5 466,-461.5 466,-431.5 270,-431.5"/>
<text text-anchor="start" x="278" y="-449.5" font-family="Helvetica,sans-Serif" font-size="10.00">org.msrg.raccoon.engine.task.sequential.</text>
<text text-anchor="middle" x="368" y="-438.5" font-family="Helvetica,sans-Serif" font-size="10.00">SequentialCodingTask.failed</text>
</a>
</g>
</g>
<!-- Node1&#45;&gt;Node3 -->
<g id="edge2" class="edge"><title>Node1&#45;&gt;Node3</title>
<path fill="none" stroke="midnightblue" d="M130.705,-276.034C153.835,-311.619 206.351,-384.566 270,-422.5 272.997,-424.286 276.121,-425.94 279.335,-427.47"/>
<polygon fill="midnightblue" stroke="midnightblue" points="278.027,-430.718 288.596,-431.468 280.801,-424.291 278.027,-430.718"/>
</g>
<!-- Node4 -->
<g id="node4" class="node"><title>Node4</title>
<g id="a_node4"><a xlink:href="../../dd/d36/classorg_1_1msrg_1_1raccoon_1_1matrix_1_1finitefields_1_1ByteMatrix_a9d2e2b6104ba9495e675cd3a7d4c3140.html#a9d2e2b6104ba9495e675cd3a7d4c3140" target="_top" xlink:title="org.msrg.raccoon.matrix.finitefields.\lByteMatrix.getByteArray">
<polygon fill="none" stroke="black" points="281.5,-382.5 281.5,-412.5 454.5,-412.5 454.5,-382.5 281.5,-382.5"/>
<text text-anchor="start" x="289.5" y="-400.5" font-family="Helvetica,sans-Serif" font-size="10.00">org.msrg.raccoon.matrix.finitefields.</text>
<text text-anchor="middle" x="368" y="-389.5" font-family="Helvetica,sans-Serif" font-size="10.00">ByteMatrix.getByteArray</text>
</a>
</g>
</g>
<!-- Node1&#45;&gt;Node4 -->
<g id="edge3" class="edge"><title>Node1&#45;&gt;Node4</title>
<path fill="none" stroke="midnightblue" d="M138.695,-276.26C166.27,-302.744 217.692,-348.146 270,-373.5 274.106,-375.49 278.393,-377.325 282.78,-379.015"/>
<polygon fill="midnightblue" stroke="midnightblue" points="281.916,-382.423 292.511,-382.488 284.269,-375.831 281.916,-382.423"/>
</g>
<!-- Node6 -->
<g id="node6" class="node"><title>Node6</title>
<g id="a_node6"><a xlink:href="../../dd/da2/classorg_1_1msrg_1_1raccoon_1_1CodedBatch_afe8effcfcebef8536811b72ddd553cd1.html#afe8effcfcebef8536811b72ddd553cd1" target="_top" xlink:title="org.msrg.raccoon.CodedBatch.get\lNewCodedCoefficients">
<polygon fill="none" stroke="black" points="285,-333.5 285,-363.5 451,-363.5 451,-333.5 285,-333.5"/>
<text text-anchor="start" x="293" y="-351.5" font-family="Helvetica,sans-Serif" font-size="10.00">org.msrg.raccoon.CodedBatch.get</text>
<text text-anchor="middle" x="368" y="-340.5" font-family="Helvetica,sans-Serif" font-size="10.00">NewCodedCoefficients</text>
</a>
</g>
</g>
<!-- Node1&#45;&gt;Node6 -->
<g id="edge5" class="edge"><title>Node1&#45;&gt;Node6</title>
<path fill="none" stroke="midnightblue" d="M157.819,-276.014C188.012,-290.965 230.853,-310.901 270,-324.5 276.331,-326.699 282.96,-328.781 289.653,-330.731"/>
<polygon fill="midnightblue" stroke="midnightblue" points="288.904,-334.156 299.478,-333.493 290.798,-327.417 288.904,-334.156"/>
</g>
<!-- Node7 -->
<g id="node7" class="node"><title>Node7</title>
<g id="a_node7"><a xlink:href="../../d0/d50/classorg_1_1msrg_1_1raccoon_1_1engine_1_1task_1_1result_1_1SliceMatrix__CodingResult_a3927c013fc0f3416dfb055b484327201.html#a3927c013fc0f3416dfb055b484327201" target="_top" xlink:title="org.msrg.raccoon.engine.task.result.\lSliceMatrix_CodingResult.getResult">
<polygon fill="none" stroke="black" points="280,-284.5 280,-314.5 456,-314.5 456,-284.5 280,-284.5"/>
<text text-anchor="start" x="288" y="-302.5" font-family="Helvetica,sans-Serif" font-size="10.00">org.msrg.raccoon.engine.task.result.</text>
<text text-anchor="middle" x="368" y="-291.5" font-family="Helvetica,sans-Serif" font-size="10.00">SliceMatrix_CodingResult.getResult</text>
</a>
</g>
</g>
<!-- Node1&#45;&gt;Node7 -->
<g id="edge6" class="edge"><title>Node1&#45;&gt;Node7</title>
<path fill="none" stroke="midnightblue" d="M234.116,-276.019C246.822,-278.264 259.644,-280.53 272.051,-282.722"/>
<polygon fill="midnightblue" stroke="midnightblue" points="271.446,-286.169 281.902,-284.463 272.664,-279.276 271.446,-286.169"/>
</g>
<!-- Node8 -->
<g id="node8" class="node"><title>Node8</title>
<g id="a_node8"><a xlink:href="../../df/d3e/classorg_1_1msrg_1_1raccoon_1_1engine_1_1task_1_1result_1_1CodingResult_a3d4ac3e6ad6ad1a0bbbbc8f345092652.html#a3d4ac3e6ad6ad1a0bbbbc8f345092652" target="_top" xlink:title="org.msrg.raccoon.engine.task.result.\lCodingResult.isFinished">
<polygon fill="none" stroke="black" points="502,-262.5 502,-292.5 678,-292.5 678,-262.5 502,-262.5"/>
<text text-anchor="start" x="510" y="-280.5" font-family="Helvetica,sans-Serif" font-size="10.00">org.msrg.raccoon.engine.task.result.</text>
<text text-anchor="middle" x="590" y="-269.5" font-family="Helvetica,sans-Serif" font-size="10.00">CodingResult.isFinished</text>
</a>
</g>
</g>
<!-- Node1&#45;&gt;Node8 -->
<g id="edge9" class="edge"><title>Node1&#45;&gt;Node8</title>
<path fill="none" stroke="midnightblue" d="M234.125,-260.924C313.214,-264.618 416.723,-269.453 491.524,-272.947"/>
<polygon fill="midnightblue" stroke="midnightblue" points="491.73,-276.46 501.882,-273.431 492.056,-269.468 491.73,-276.46"/>
</g>
<!-- Node9 -->
<g id="node9" class="node"><title>Node9</title>
<g id="a_node9"><a xlink:href="../../df/d3e/classorg_1_1msrg_1_1raccoon_1_1engine_1_1task_1_1result_1_1CodingResult_af346f009892c564aa7b2a6751914b154.html#af346f009892c564aa7b2a6751914b154" target="_top" xlink:title="org.msrg.raccoon.engine.task.result.\lCodingResult.isFailed">
<polygon fill="none" stroke="black" points="280,-196.5 280,-226.5 456,-226.5 456,-196.5 280,-196.5"/>
<text text-anchor="start" x="288" y="-214.5" font-family="Helvetica,sans-Serif" font-size="10.00">org.msrg.raccoon.engine.task.result.</text>
<text text-anchor="middle" x="368" y="-203.5" font-family="Helvetica,sans-Serif" font-size="10.00">CodingResult.isFailed</text>
</a>
</g>
</g>
<!-- Node1&#45;&gt;Node9 -->
<g id="edge8" class="edge"><title>Node1&#45;&gt;Node9</title>
<path fill="none" stroke="midnightblue" d="M234.116,-234.981C246.822,-232.736 259.644,-230.47 272.051,-228.278"/>
<polygon fill="midnightblue" stroke="midnightblue" points="272.664,-231.724 281.902,-226.537 271.446,-224.831 272.664,-231.724"/>
</g>
<!-- Node10 -->
<g id="node10" class="node"><title>Node10</title>
<g id="a_node10"><a xlink:href="../../dd/dff/interfaceorg_1_1msrg_1_1raccoon_1_1engine_1_1ICodingEngine_a0b4cebd680a0fa0a6d0fb420fec4bd52.html#a0b4cebd680a0fa0a6d0fb420fec4bd52" target="_top" xlink:title="org.msrg.raccoon.engine.\lICodingEngine.multiply">
<polygon fill="none" stroke="black" points="304.5,-147.5 304.5,-177.5 431.5,-177.5 431.5,-147.5 304.5,-147.5"/>
<text text-anchor="start" x="312.5" y="-165.5" font-family="Helvetica,sans-Serif" font-size="10.00">org.msrg.raccoon.engine.</text>
<text text-anchor="middle" x="368" y="-154.5" font-family="Helvetica,sans-Serif" font-size="10.00">ICodingEngine.multiply</text>
</a>
</g>
</g>
<!-- Node1&#45;&gt;Node10 -->
<g id="edge10" class="edge"><title>Node1&#45;&gt;Node10</title>
<path fill="none" stroke="midnightblue" d="M158.848,-234.964C189.021,-220.356 231.387,-201.005 270,-187.5 277.905,-184.735 286.269,-182.126 294.638,-179.711"/>
<polygon fill="midnightblue" stroke="midnightblue" points="295.752,-183.034 304.439,-176.969 293.866,-176.293 295.752,-183.034"/>
</g>
<!-- Node11 -->
<g id="node11" class="node"><title>Node11</title>
<g id="a_node11"><a xlink:href="../../dd/d36/classorg_1_1msrg_1_1raccoon_1_1matrix_1_1finitefields_1_1ByteMatrix_a5a3c18a9905c1d33c6a992930e2b6a78.html#a5a3c18a9905c1d33c6a992930e2b6a78" target="_top" xlink:title="org.msrg.raccoon.matrix.finitefields.\lByteMatrix.multiply">
<polygon fill="none" stroke="black" points="281.5,-98.5 281.5,-128.5 454.5,-128.5 454.5,-98.5 281.5,-98.5"/>
<text text-anchor="start" x="289.5" y="-116.5" font-family="Helvetica,sans-Serif" font-size="10.00">org.msrg.raccoon.matrix.finitefields.</text>
<text text-anchor="middle" x="368" y="-105.5" font-family="Helvetica,sans-Serif" font-size="10.00">ByteMatrix.multiply</text>
</a>
</g>
</g>
<!-- Node1&#45;&gt;Node11 -->
<g id="edge11" class="edge"><title>Node1&#45;&gt;Node11</title>
<path fill="none" stroke="midnightblue" d="M139.247,-234.548C167.014,-208.319 218.228,-163.773 270,-138.5 274.933,-136.092 280.123,-133.898 285.434,-131.901"/>
<polygon fill="midnightblue" stroke="midnightblue" points="286.811,-135.127 295.091,-128.518 284.496,-128.521 286.811,-135.127"/>
</g>
<!-- Node17 -->
<g id="node17" class="node"><title>Node17</title>
<g id="a_node17"><a xlink:href="../../d6/d78/classorg_1_1msrg_1_1raccoon_1_1engine_1_1task_1_1sequential_1_1SequentialCodingTask_a9fee0e39302d3e057700653cea01cfe4.html#a9fee0e39302d3e057700653cea01cfe4" target="_top" xlink:title="org.msrg.raccoon.engine.task.sequential.\lSequentialCodingTask.setCurrentStage">
<polygon fill="none" stroke="black" points="270,-49.5 270,-79.5 466,-79.5 466,-49.5 270,-49.5"/>
<text text-anchor="start" x="278" y="-67.5" font-family="Helvetica,sans-Serif" font-size="10.00">org.msrg.raccoon.engine.task.sequential.</text>
<text text-anchor="middle" x="368" y="-56.5" font-family="Helvetica,sans-Serif" font-size="10.00">SequentialCodingTask.setCurrentStage</text>
</a>
</g>
</g>
<!-- Node1&#45;&gt;Node17 -->
<g id="edge17" class="edge"><title>Node1&#45;&gt;Node17</title>
<path fill="none" stroke="midnightblue" d="M130.959,-234.873C154.289,-199.5 206.854,-127.422 270,-89.5 273.648,-87.3092 277.485,-85.3089 281.441,-83.4825"/>
<polygon fill="midnightblue" stroke="midnightblue" points="282.991,-86.6278 290.856,-79.5291 280.281,-80.1736 282.991,-86.6278"/>
</g>
<!-- Node18 -->
<g id="node18" class="node"><title>Node18</title>
<g id="a_node18"><a xlink:href="../../db/d3f/classorg_1_1msrg_1_1raccoon_1_1matrix_1_1TypedMatrix_af8b135c80a283acac5996df88e99c99a.html#af8b135c80a283acac5996df88e99c99a" target="_top" xlink:title="org.msrg.raccoon.matrix.\lTypedMatrix.verify">
<polygon fill="none" stroke="black" points="305.5,-0.5 305.5,-30.5 430.5,-30.5 430.5,-0.5 305.5,-0.5"/>
<text text-anchor="start" x="313.5" y="-18.5" font-family="Helvetica,sans-Serif" font-size="10.00">org.msrg.raccoon.matrix.</text>
<text text-anchor="middle" x="368" y="-7.5" font-family="Helvetica,sans-Serif" font-size="10.00">TypedMatrix.verify</text>
</a>
</g>
</g>
<!-- Node1&#45;&gt;Node18 -->
<g id="edge18" class="edge"><title>Node1&#45;&gt;Node18</title>
<path fill="none" stroke="midnightblue" d="M126.476,-234.828C145.373,-191.433 195.259,-90.6406 270,-39.5 277.81,-34.1559 286.696,-29.9996 295.845,-26.7676"/>
<polygon fill="midnightblue" stroke="midnightblue" points="296.967,-30.0836 305.44,-23.7229 294.85,-23.4114 296.967,-30.0836"/>
</g>
<!-- Node5 -->
<g id="node5" class="node"><title>Node5</title>
<g id="a_node5"><a xlink:href="../../dd/d36/classorg_1_1msrg_1_1raccoon_1_1matrix_1_1finitefields_1_1ByteMatrix_ae680bc03b706fb0ed7304506d2eb42fc.html#ae680bc03b706fb0ed7304506d2eb42fc" target="_top" xlink:title="org.msrg.raccoon.matrix.finitefields.\lByteMatrix.unwrap">
<polygon fill="none" stroke="black" points="503.5,-382.5 503.5,-412.5 676.5,-412.5 676.5,-382.5 503.5,-382.5"/>
<text text-anchor="start" x="511.5" y="-400.5" font-family="Helvetica,sans-Serif" font-size="10.00">org.msrg.raccoon.matrix.finitefields.</text>
<text text-anchor="middle" x="590" y="-389.5" font-family="Helvetica,sans-Serif" font-size="10.00">ByteMatrix.unwrap</text>
</a>
</g>
</g>
<!-- Node4&#45;&gt;Node5 -->
<g id="edge4" class="edge"><title>Node4&#45;&gt;Node5</title>
<path fill="none" stroke="midnightblue" d="M454.688,-397.5C467.254,-397.5 480.266,-397.5 493.022,-397.5"/>
<polygon fill="midnightblue" stroke="midnightblue" points="493.184,-401 503.184,-397.5 493.184,-394 493.184,-401"/>
</g>
<!-- Node7&#45;&gt;Node8 -->
<g id="edge7" class="edge"><title>Node7&#45;&gt;Node8</title>
<path fill="none" stroke="midnightblue" d="M456.266,-290.773C467.864,-289.614 479.815,-288.419 491.572,-287.243"/>
<polygon fill="midnightblue" stroke="midnightblue" points="492.238,-290.694 501.84,-286.216 491.541,-283.729 492.238,-290.694"/>
</g>
<!-- Node12 -->
<g id="node12" class="node"><title>Node12</title>
<g id="a_node12"><a xlink:href="../../df/da4/classorg_1_1msrg_1_1raccoon_1_1matrix_1_1bulk_1_1BulkMatrix_a804160abadbedfe02caa0c441731a519.html#a804160abadbedfe02caa0c441731a519" target="_top" xlink:title="org.msrg.raccoon.matrix.bulk.\lBulkMatrix.getContent">
<polygon fill="none" stroke="black" points="517,-171.5 517,-201.5 663,-201.5 663,-171.5 517,-171.5"/>
<text text-anchor="start" x="525" y="-189.5" font-family="Helvetica,sans-Serif" font-size="10.00">org.msrg.raccoon.matrix.bulk.</text>
<text text-anchor="middle" x="590" y="-178.5" font-family="Helvetica,sans-Serif" font-size="10.00">BulkMatrix.getContent</text>
</a>
</g>
</g>
<!-- Node11&#45;&gt;Node12 -->
<g id="edge12" class="edge"><title>Node11&#45;&gt;Node12</title>
<path fill="none" stroke="midnightblue" d="M439.116,-128.557C448.324,-131.405 457.505,-134.705 466,-138.5 483.557,-146.343 484.51,-154.508 502,-162.5 506.315,-164.472 510.827,-166.313 515.429,-168.027"/>
<polygon fill="midnightblue" stroke="midnightblue" points="514.37,-171.364 524.965,-171.367 516.684,-164.758 514.37,-171.364"/>
</g>
<!-- Node13 -->
<g id="node13" class="node"><title>Node13</title>
<g id="a_node13"><a xlink:href="../../df/da4/classorg_1_1msrg_1_1raccoon_1_1matrix_1_1bulk_1_1BulkMatrix_a1ea2bca79aa590fdcfa5f472acc479cc.html#a1ea2bca79aa590fdcfa5f472acc479cc" target="_top" xlink:title="org.msrg.raccoon.matrix.bulk.\lBulkMatrix.createEmptyMatrix">
<polygon fill="none" stroke="black" points="515.5,-122.5 515.5,-152.5 664.5,-152.5 664.5,-122.5 515.5,-122.5"/>
<text text-anchor="start" x="523.5" y="-140.5" font-family="Helvetica,sans-Serif" font-size="10.00">org.msrg.raccoon.matrix.bulk.</text>
<text text-anchor="middle" x="590" y="-129.5" font-family="Helvetica,sans-Serif" font-size="10.00">BulkMatrix.createEmptyMatrix</text>
</a>
</g>
</g>
<!-- Node11&#45;&gt;Node13 -->
<g id="edge13" class="edge"><title>Node11&#45;&gt;Node13</title>
<path fill="none" stroke="midnightblue" d="M454.688,-122.848C471.273,-124.657 488.635,-126.551 505.16,-128.354"/>
<polygon fill="midnightblue" stroke="midnightblue" points="505.007,-131.858 515.327,-129.463 505.766,-124.899 505.007,-131.858"/>
</g>
<!-- Node15 -->
<g id="node15" class="node"><title>Node15</title>
<g id="a_node15"><a xlink:href="../../df/da4/classorg_1_1msrg_1_1raccoon_1_1matrix_1_1bulk_1_1BulkMatrix_a7f382b71b1e7fb03fa68f22724f75f88.html#a7f382b71b1e7fb03fa68f22724f75f88" target="_top" xlink:title="org.msrg.raccoon.matrix.bulk.\lBulkMatrix.slice">
<polygon fill="none" stroke="black" points="517,-73.5 517,-103.5 663,-103.5 663,-73.5 517,-73.5"/>
<text text-anchor="start" x="525" y="-91.5" font-family="Helvetica,sans-Serif" font-size="10.00">org.msrg.raccoon.matrix.bulk.</text>
<text text-anchor="middle" x="590" y="-80.5" font-family="Helvetica,sans-Serif" font-size="10.00">BulkMatrix.slice</text>
</a>
</g>
</g>
<!-- Node11&#45;&gt;Node15 -->
<g id="edge15" class="edge"><title>Node11&#45;&gt;Node15</title>
<path fill="none" stroke="midnightblue" d="M454.688,-103.763C471.673,-101.833 489.472,-99.81 506.353,-97.8916"/>
<polygon fill="midnightblue" stroke="midnightblue" points="507.19,-101.319 516.731,-96.7124 506.399,-94.364 507.19,-101.319"/>
</g>
<!-- Node16 -->
<g id="node16" class="node"><title>Node16</title>
<g id="a_node16"><a xlink:href="../../d6/d6d/classorg_1_1msrg_1_1raccoon_1_1matrix_1_1bulk_1_1SliceMatrix_a4c85807433398a037c9d6885569fba0e.html#a4c85807433398a037c9d6885569fba0e" target="_top" xlink:title="org.msrg.raccoon.matrix.bulk.\lSliceMatrix.loadNoCopy">
<polygon fill="none" stroke="black" points="517,-24.5 517,-54.5 663,-54.5 663,-24.5 517,-24.5"/>
<text text-anchor="start" x="525" y="-42.5" font-family="Helvetica,sans-Serif" font-size="10.00">org.msrg.raccoon.matrix.bulk.</text>
<text text-anchor="middle" x="590" y="-31.5" font-family="Helvetica,sans-Serif" font-size="10.00">SliceMatrix.loadNoCopy</text>
</a>
</g>
</g>
<!-- Node11&#45;&gt;Node16 -->
<g id="edge16" class="edge"><title>Node11&#45;&gt;Node16</title>
<path fill="none" stroke="midnightblue" d="M439.7,-98.4321C448.724,-95.5974 457.7,-92.3029 466,-88.5 483.709,-80.3863 484.36,-71.7633 502,-63.5 506.297,-61.4874 510.794,-59.615 515.384,-57.878"/>
<polygon fill="midnightblue" stroke="midnightblue" points="516.649,-61.1431 524.904,-54.501 514.309,-54.5459 516.649,-61.1431"/>
</g>
<!-- Node14 -->
<g id="node14" class="node"><title>Node14</title>
<g id="a_node14"><a xlink:href="../../df/da4/classorg_1_1msrg_1_1raccoon_1_1matrix_1_1bulk_1_1BulkMatrix_ae52685687565b5725a204d70237d300a.html#ae52685687565b5725a204d70237d300a" target="_top" xlink:title="org.msrg.raccoon.matrix.bulk.\lBulkMatrix.BulkMatrix">
<polygon fill="none" stroke="black" points="714,-122.5 714,-152.5 860,-152.5 860,-122.5 714,-122.5"/>
<text text-anchor="start" x="722" y="-140.5" font-family="Helvetica,sans-Serif" font-size="10.00">org.msrg.raccoon.matrix.bulk.</text>
<text text-anchor="middle" x="787" y="-129.5" font-family="Helvetica,sans-Serif" font-size="10.00">BulkMatrix.BulkMatrix</text>
</a>
</g>
</g>
<!-- Node13&#45;&gt;Node14 -->
<g id="edge14" class="edge"><title>Node13&#45;&gt;Node14</title>
<path fill="none" stroke="midnightblue" d="M664.721,-137.5C677.401,-137.5 690.653,-137.5 703.545,-137.5"/>
<polygon fill="midnightblue" stroke="midnightblue" points="703.79,-141 713.79,-137.5 703.79,-134 703.79,-141"/>
</g>
</g>
</svg>
