<?xml version="1.0" encoding="UTF-8" standalone="no"?>
<!DOCTYPE svg PUBLIC "-//W3C//DTD SVG 1.1//EN"
 "http://www.w3.org/Graphics/SVG/1.1/DTD/svg11.dtd">
<!-- Generated by graphviz version 2.38.0 (20140413.2041)
 -->
<!-- Title: org.msrg.raccoon.engine.task.sequential.EncodingReceivedEncodingDecodingEqual_SequentialCodingTask.codingFinished Pages: 1 -->
<svg width="921pt" height="558pt"
 viewBox="0.00 0.00 921.00 558.21" xmlns="http://www.w3.org/2000/svg" xmlns:xlink="http://www.w3.org/1999/xlink">
<g id="graph0" class="graph" transform="scale(1 1) rotate(0) translate(4 554.213)">
<title>org.msrg.raccoon.engine.task.sequential.EncodingReceivedEncodingDecodingEqual_SequentialCodingTask.codingFinished</title>
<!-- Node1 -->
<g id="node1" class="node"><title>Node1</title>
<polygon fill="#bfbfbf" stroke="black" points="0,-330.213 0,-371.213 205,-371.213 205,-330.213 0,-330.213"/>
<text text-anchor="start" x="8" y="-359.213" font-family="Helvetica,sans-Serif" font-size="10.00">org.msrg.raccoon.engine.task.sequential.</text>
<text text-anchor="start" x="8" y="-348.213" font-family="Helvetica,sans-Serif" font-size="10.00">EncodingReceivedEncodingDecodingEqual</text>
<text text-anchor="middle" x="102.5" y="-337.213" font-family="Helvetica,sans-Serif" font-size="10.00">_SequentialCodingTask.codingFinished</text>
</g>
<!-- Node2 -->
<g id="node2" class="node"><title>Node2</title>
<g id="a_node2"><a xlink:href="../../da/df0/classorg_1_1msrg_1_1raccoon_1_1ReceivedCodedBatch_a7fb696930d2d487574d2ec3ecfbbcae7.html#a7fb696930d2d487574d2ec3ecfbbcae7" target="_top" xlink:title="org.msrg.raccoon.Received\lCodedBatch.addCodedSlice">
<polygon fill="none" stroke="black" points="273.5,-479.713 273.5,-509.713 413.5,-509.713 413.5,-479.713 273.5,-479.713"/>
<text text-anchor="start" x="281.5" y="-497.713" font-family="Helvetica,sans-Serif" font-size="10.00">org.msrg.raccoon.Received</text>
<text text-anchor="middle" x="343.5" y="-486.713" font-family="Helvetica,sans-Serif" font-size="10.00">CodedBatch.addCodedSlice</text>
</a>
</g>
</g>
<!-- Node1&#45;&gt;Node2 -->
<g id="edge1" class="edge"><title>Node1&#45;&gt;Node2</title>
<path fill="none" stroke="midnightblue" d="M137.743,-371.345C183.362,-398.831 263.571,-447.158 308.875,-474.454"/>
<polygon fill="midnightblue" stroke="midnightblue" points="307.078,-477.458 317.45,-479.621 310.691,-471.462 307.078,-477.458"/>
</g>
<!-- Node4 -->
<g id="node4" class="node"><title>Node4</title>
<g id="a_node4"><a xlink:href="../../dd/dff/interfaceorg_1_1msrg_1_1raccoon_1_1engine_1_1ICodingEngine_a20761d073b00f407a6f4b50c9be5eceb.html#a20761d073b00f407a6f4b50c9be5eceb" target="_top" xlink:title="org.msrg.raccoon.engine.\lICodingEngine.encode">
<polygon fill="none" stroke="black" points="518,-470.713 518,-500.713 645,-500.713 645,-470.713 518,-470.713"/>
<text text-anchor="start" x="526" y="-488.713" font-family="Helvetica,sans-Serif" font-size="10.00">org.msrg.raccoon.engine.</text>
<text text-anchor="middle" x="581.5" y="-477.713" font-family="Helvetica,sans-Serif" font-size="10.00">ICodingEngine.encode</text>
</a>
</g>
</g>
<!-- Node1&#45;&gt;Node4 -->
<g id="edge3" class="edge"><title>Node1&#45;&gt;Node4</title>
<path fill="none" stroke="midnightblue" d="M170.241,-371.302C245.654,-394.329 372.208,-432.256 482,-461.713 490.399,-463.967 499.225,-466.244 508,-468.453"/>
<polygon fill="midnightblue" stroke="midnightblue" points="507.31,-471.888 517.86,-470.912 509.004,-465.096 507.31,-471.888"/>
</g>
<!-- Node5 -->
<g id="node5" class="node"><title>Node5</title>
<g id="a_node5"><a xlink:href="../../d7/d68/classorg_1_1msrg_1_1raccoon_1_1engine_1_1task_1_1result_1_1CodedSlice__CodingResult_a41d676bc21e2de3065a7cfb8c38cb2d2.html#a41d676bc21e2de3065a7cfb8c38cb2d2" target="_top" xlink:title="org.msrg.raccoon.engine.task.result.\lCodedSlice_CodingResult.getResult">
<polygon fill="none" stroke="black" points="255.5,-103.713 255.5,-133.713 431.5,-133.713 431.5,-103.713 255.5,-103.713"/>
<text text-anchor="start" x="263.5" y="-121.713" font-family="Helvetica,sans-Serif" font-size="10.00">org.msrg.raccoon.engine.task.result.</text>
<text text-anchor="middle" x="343.5" y="-110.713" font-family="Helvetica,sans-Serif" font-size="10.00">CodedSlice_CodingResult.getResult</text>
</a>
</g>
</g>
<!-- Node1&#45;&gt;Node5 -->
<g id="edge4" class="edge"><title>Node1&#45;&gt;Node5</title>
<path fill="none" stroke="midnightblue" d="M124.71,-330.125C169.42,-286.724 273.027,-186.152 319.37,-141.166"/>
<polygon fill="midnightblue" stroke="midnightblue" points="322.078,-143.415 326.816,-133.938 317.202,-138.392 322.078,-143.415"/>
</g>
<!-- Node7 -->
<g id="node7" class="node"><title>Node7</title>
<g id="a_node7"><a xlink:href="../../d5/daf/classorg_1_1msrg_1_1raccoon_1_1engine_1_1task_1_1sequential_1_1EncodingReceivedEncodingDecodingEqual__SequentialCodingTask_acf664608beaee091834399cde52cbf8f.html#acf664608beaee091834399cde52cbf8f" target="_top" xlink:title="org.msrg.raccoon.engine.task.sequential.\lEncodingReceivedEncodingDecodingEqual\l_SequentialCodingTask.runStagePrivately">
<polygon fill="none" stroke="black" points="241,-269.213 241,-310.213 446,-310.213 446,-269.213 241,-269.213"/>
<text text-anchor="start" x="249" y="-298.213" font-family="Helvetica,sans-Serif" font-size="10.00">org.msrg.raccoon.engine.task.sequential.</text>
<text text-anchor="start" x="249" y="-287.213" font-family="Helvetica,sans-Serif" font-size="10.00">EncodingReceivedEncodingDecodingEqual</text>
<text text-anchor="middle" x="343.5" y="-276.213" font-family="Helvetica,sans-Serif" font-size="10.00">_SequentialCodingTask.runStagePrivately</text>
</a>
</g>
</g>
<!-- Node1&#45;&gt;Node7 -->
<g id="edge6" class="edge"><title>Node1&#45;&gt;Node7</title>
<path fill="none" stroke="midnightblue" d="M184.081,-330.147C205.92,-324.573 229.705,-318.502 252.049,-312.799"/>
<polygon fill="midnightblue" stroke="midnightblue" points="253.038,-316.159 261.862,-310.295 251.307,-309.376 253.038,-316.159"/>
</g>
<!-- Node3 -->
<g id="node3" class="node"><title>Node3</title>
<g id="a_node3"><a xlink:href="../../da/df0/classorg_1_1msrg_1_1raccoon_1_1ReceivedCodedBatch_a7316fa460477ba3d98da31f9a7dd1326.html#a7316fa460477ba3d98da31f9a7dd1326" target="_top" xlink:title="org.msrg.raccoon.Received\lCodedBatch.isSolved">
<polygon fill="none" stroke="black" points="513,-519.713 513,-549.713 650,-549.713 650,-519.713 513,-519.713"/>
<text text-anchor="start" x="521" y="-537.713" font-family="Helvetica,sans-Serif" font-size="10.00">org.msrg.raccoon.Received</text>
<text text-anchor="middle" x="581.5" y="-526.713" font-family="Helvetica,sans-Serif" font-size="10.00">CodedBatch.isSolved</text>
</a>
</g>
</g>
<!-- Node2&#45;&gt;Node3 -->
<g id="edge2" class="edge"><title>Node2&#45;&gt;Node3</title>
<path fill="none" stroke="midnightblue" d="M413.713,-506.444C441.696,-511.187 474.122,-516.683 502.901,-521.561"/>
<polygon fill="midnightblue" stroke="midnightblue" points="502.471,-525.038 512.915,-523.258 503.641,-518.136 502.471,-525.038"/>
</g>
<!-- Node6 -->
<g id="node6" class="node"><title>Node6</title>
<g id="a_node6"><a xlink:href="../../df/d3e/classorg_1_1msrg_1_1raccoon_1_1engine_1_1task_1_1result_1_1CodingResult_a3d4ac3e6ad6ad1a0bbbbc8f345092652.html#a3d4ac3e6ad6ad1a0bbbbc8f345092652" target="_top" xlink:title="org.msrg.raccoon.engine.task.result.\lCodingResult.isFinished">
<polygon fill="none" stroke="black" points="727,-7.7134 727,-37.7134 903,-37.7134 903,-7.7134 727,-7.7134"/>
<text text-anchor="start" x="735" y="-25.7134" font-family="Helvetica,sans-Serif" font-size="10.00">org.msrg.raccoon.engine.task.result.</text>
<text text-anchor="middle" x="815" y="-14.7134" font-family="Helvetica,sans-Serif" font-size="10.00">CodingResult.isFinished</text>
</a>
</g>
</g>
<!-- Node5&#45;&gt;Node6 -->
<g id="edge5" class="edge"><title>Node5&#45;&gt;Node6</title>
<path fill="none" stroke="midnightblue" d="M358.788,-103.568C381.992,-80.2027 430.489,-36.3281 482,-19.7134 559.487,5.27969 652.538,1.77941 720.388,-6.38029"/>
<polygon fill="midnightblue" stroke="midnightblue" points="720.274,-9.89344 730.633,-7.67053 721.149,-2.94831 720.274,-9.89344"/>
</g>
<!-- Node7&#45;&gt;Node4 -->
<g id="edge9" class="edge"><title>Node7&#45;&gt;Node4</title>
<path fill="none" stroke="midnightblue" d="M366.744,-310.277C388.495,-331.062 421.785,-364.737 446,-397.713 465.316,-424.019 455.994,-441.996 482,-461.713 489.837,-467.655 498.945,-472.146 508.396,-475.537"/>
<polygon fill="midnightblue" stroke="midnightblue" points="507.337,-478.873 517.928,-478.574 509.462,-472.203 507.337,-478.873"/>
</g>
<!-- Node8 -->
<g id="node8" class="node"><title>Node8</title>
<g id="a_node8"><a xlink:href="../../dd/dff/interfaceorg_1_1msrg_1_1raccoon_1_1engine_1_1ICodingEngine_addf00ef4ea73a36f94342e34fdebf456.html#addf00ef4ea73a36f94342e34fdebf456" target="_top" xlink:title="org.msrg.raccoon.engine.\lICodingEngine.checkEquality">
<polygon fill="none" stroke="black" points="509,-274.713 509,-304.713 654,-304.713 654,-274.713 509,-274.713"/>
<text text-anchor="start" x="517" y="-292.713" font-family="Helvetica,sans-Serif" font-size="10.00">org.msrg.raccoon.engine.</text>
<text text-anchor="middle" x="581.5" y="-281.713" font-family="Helvetica,sans-Serif" font-size="10.00">ICodingEngine.checkEquality</text>
</a>
</g>
</g>
<!-- Node7&#45;&gt;Node8 -->
<g id="edge7" class="edge"><title>Node7&#45;&gt;Node8</title>
<path fill="none" stroke="midnightblue" d="M446.298,-289.713C463.757,-289.713 481.699,-289.713 498.555,-289.713"/>
<polygon fill="midnightblue" stroke="midnightblue" points="498.896,-293.213 508.896,-289.713 498.896,-286.213 498.896,-293.213"/>
</g>
<!-- Node9 -->
<g id="node9" class="node"><title>Node9</title>
<g id="a_node9"><a xlink:href="../../dd/dff/interfaceorg_1_1msrg_1_1raccoon_1_1engine_1_1ICodingEngine_aea8ac998374eff0d1e70a09ea543bf82.html#aea8ac998374eff0d1e70a09ea543bf82" target="_top" xlink:title="org.msrg.raccoon.engine.\lICodingEngine.decode">
<polygon fill="none" stroke="black" points="518,-225.713 518,-255.713 645,-255.713 645,-225.713 518,-225.713"/>
<text text-anchor="start" x="526" y="-243.713" font-family="Helvetica,sans-Serif" font-size="10.00">org.msrg.raccoon.engine.</text>
<text text-anchor="middle" x="581.5" y="-232.713" font-family="Helvetica,sans-Serif" font-size="10.00">ICodingEngine.decode</text>
</a>
</g>
</g>
<!-- Node7&#45;&gt;Node9 -->
<g id="edge8" class="edge"><title>Node7&#45;&gt;Node9</title>
<path fill="none" stroke="midnightblue" d="M443.559,-269.146C465.131,-264.667 487.571,-260.008 507.891,-255.789"/>
<polygon fill="midnightblue" stroke="midnightblue" points="508.603,-259.216 517.683,-253.756 507.18,-252.362 508.603,-259.216"/>
</g>
<!-- Node10 -->
<g id="node10" class="node"><title>Node10</title>
<g id="a_node10"><a xlink:href="../../d6/d78/classorg_1_1msrg_1_1raccoon_1_1engine_1_1task_1_1sequential_1_1SequentialCodingTask_a144e5086b6be72e0c13869c563c7189c.html#a144e5086b6be72e0c13869c563c7189c" target="_top" xlink:title="org.msrg.raccoon.engine.task.sequential.\lSequentialCodingTask.finished">
<polygon fill="none" stroke="black" points="483.5,-176.713 483.5,-206.713 679.5,-206.713 679.5,-176.713 483.5,-176.713"/>
<text text-anchor="start" x="491.5" y="-194.713" font-family="Helvetica,sans-Serif" font-size="10.00">org.msrg.raccoon.engine.task.sequential.</text>
<text text-anchor="middle" x="581.5" y="-183.713" font-family="Helvetica,sans-Serif" font-size="10.00">SequentialCodingTask.finished</text>
</a>
</g>
</g>
<!-- Node7&#45;&gt;Node10 -->
<g id="edge10" class="edge"><title>Node7&#45;&gt;Node10</title>
<path fill="none" stroke="midnightblue" d="M376.992,-269.155C404.167,-252.725 444.415,-230.134 482,-215.713 487.579,-213.573 493.412,-211.578 499.331,-209.727"/>
<polygon fill="midnightblue" stroke="midnightblue" points="500.759,-212.954 509.347,-206.75 498.764,-206.244 500.759,-212.954"/>
</g>
<!-- Node11 -->
<g id="node11" class="node"><title>Node11</title>
<g id="a_node11"><a xlink:href="../../d2/da2/classorg_1_1msrg_1_1raccoon_1_1SourceCodedBatch_aa73a2a30e1b805d0686fd5bc7ab0e387.html#aa73a2a30e1b805d0686fd5bc7ab0e387" target="_top" xlink:title="org.msrg.raccoon.SourceCoded\lBatch.getAvailableCodedPieceCount">
<polygon fill="none" stroke="black" points="492.5,-127.713 492.5,-157.713 670.5,-157.713 670.5,-127.713 492.5,-127.713"/>
<text text-anchor="start" x="500.5" y="-145.713" font-family="Helvetica,sans-Serif" font-size="10.00">org.msrg.raccoon.SourceCoded</text>
<text text-anchor="middle" x="581.5" y="-134.713" font-family="Helvetica,sans-Serif" font-size="10.00">Batch.getAvailableCodedPieceCount</text>
</a>
</g>
</g>
<!-- Node7&#45;&gt;Node11 -->
<g id="edge11" class="edge"><title>Node7&#45;&gt;Node11</title>
<path fill="none" stroke="midnightblue" d="M361.776,-268.876C385.831,-241.257 432.114,-192.964 482,-166.713 485.68,-164.777 489.519,-162.994 493.458,-161.352"/>
<polygon fill="midnightblue" stroke="midnightblue" points="494.714,-164.618 502.798,-157.771 492.208,-158.082 494.714,-164.618"/>
</g>
<!-- Node13 -->
<g id="node13" class="node"><title>Node13</title>
<g id="a_node13"><a xlink:href="../../dd/da2/classorg_1_1msrg_1_1raccoon_1_1CodedBatch_aa5a1b5260f8abc65a0cd2d07ee11caa0.html#aa5a1b5260f8abc65a0cd2d07ee11caa0" target="_top" xlink:title="org.msrg.raccoon.CodedBatch.get\lBulkMatrix">
<polygon fill="none" stroke="black" points="498.5,-78.7134 498.5,-108.713 664.5,-108.713 664.5,-78.7134 498.5,-78.7134"/>
<text text-anchor="start" x="506.5" y="-96.7134" font-family="Helvetica,sans-Serif" font-size="10.00">org.msrg.raccoon.CodedBatch.get</text>
<text text-anchor="middle" x="581.5" y="-85.7134" font-family="Helvetica,sans-Serif" font-size="10.00">BulkMatrix</text>
</a>
</g>
</g>
<!-- Node7&#45;&gt;Node13 -->
<g id="edge13" class="edge"><title>Node7&#45;&gt;Node13</title>
<path fill="none" stroke="midnightblue" d="M354.993,-269.099C374.681,-232.597 420.757,-156.77 482,-117.713 484.624,-116.04 487.355,-114.484 490.166,-113.036"/>
<polygon fill="midnightblue" stroke="midnightblue" points="491.777,-116.147 499.383,-108.77 488.837,-109.794 491.777,-116.147"/>
</g>
<!-- Node14 -->
<g id="node14" class="node"><title>Node14</title>
<g id="a_node14"><a xlink:href="../../db/d63/classorg_1_1msrg_1_1raccoon_1_1engine_1_1task_1_1result_1_1Equals__CodingResult_af1abb9e1bfe895f261cd1c89334163df.html#af1abb9e1bfe895f261cd1c89334163df" target="_top" xlink:title="org.msrg.raccoon.engine.task.result.\lEquals_CodingResult.getResult">
<polygon fill="none" stroke="black" points="493.5,-29.7134 493.5,-59.7134 669.5,-59.7134 669.5,-29.7134 493.5,-29.7134"/>
<text text-anchor="start" x="501.5" y="-47.7134" font-family="Helvetica,sans-Serif" font-size="10.00">org.msrg.raccoon.engine.task.result.</text>
<text text-anchor="middle" x="581.5" y="-36.7134" font-family="Helvetica,sans-Serif" font-size="10.00">Equals_CodingResult.getResult</text>
</a>
</g>
</g>
<!-- Node7&#45;&gt;Node14 -->
<g id="edge14" class="edge"><title>Node7&#45;&gt;Node14</title>
<path fill="none" stroke="midnightblue" d="M360.334,-268.953C381.25,-241.065 418.631,-189.581 446,-142.713 464.443,-111.13 453.527,-91.6686 482,-68.7134 483.593,-67.4292 485.244,-66.2121 486.946,-65.0588"/>
<polygon fill="midnightblue" stroke="midnightblue" points="489.001,-67.9094 495.827,-59.8067 485.438,-61.884 489.001,-67.9094"/>
</g>
<!-- Node15 -->
<g id="node15" class="node"><title>Node15</title>
<g id="a_node15"><a xlink:href="../../d9/d22/classorg_1_1msrg_1_1raccoon_1_1engine_1_1task_1_1CodingTask_ae73495361c978756abf28bfd65138fb3.html#ae73495361c978756abf28bfd65138fb3" target="_top" xlink:title="org.msrg.raccoon.engine.task.\lCodingTask.isFailed">
<polygon fill="none" stroke="black" points="507,-421.713 507,-451.713 656,-451.713 656,-421.713 507,-421.713"/>
<text text-anchor="start" x="515" y="-439.713" font-family="Helvetica,sans-Serif" font-size="10.00">org.msrg.raccoon.engine.task.</text>
<text text-anchor="middle" x="581.5" y="-428.713" font-family="Helvetica,sans-Serif" font-size="10.00">CodingTask.isFailed</text>
</a>
</g>
</g>
<!-- Node7&#45;&gt;Node15 -->
<g id="edge16" class="edge"><title>Node7&#45;&gt;Node15</title>
<path fill="none" stroke="midnightblue" d="M361.85,-310.306C385.989,-337.617 432.366,-385.421 482,-411.713 486.872,-414.294 492.022,-416.618 497.31,-418.708"/>
<polygon fill="midnightblue" stroke="midnightblue" points="496.354,-422.084 506.947,-422.224 498.753,-415.508 496.354,-422.084"/>
</g>
<!-- Node16 -->
<g id="node16" class="node"><title>Node16</title>
<g id="a_node16"><a xlink:href="../../d6/d78/classorg_1_1msrg_1_1raccoon_1_1engine_1_1task_1_1sequential_1_1SequentialCodingTask_a20507db4cd28c24453172612ae32afe5.html#a20507db4cd28c24453172612ae32afe5" target="_top" xlink:title="org.msrg.raccoon.engine.task.sequential.\lSequentialCodingTask.reachedFinalStage">
<polygon fill="none" stroke="black" points="482,-372.713 482,-402.713 681,-402.713 681,-372.713 482,-372.713"/>
<text text-anchor="start" x="490" y="-390.713" font-family="Helvetica,sans-Serif" font-size="10.00">org.msrg.raccoon.engine.task.sequential.</text>
<text text-anchor="middle" x="581.5" y="-379.713" font-family="Helvetica,sans-Serif" font-size="10.00">SequentialCodingTask.reachedFinalStage</text>
</a>
</g>
</g>
<!-- Node7&#45;&gt;Node16 -->
<g id="edge17" class="edge"><title>Node7&#45;&gt;Node16</title>
<path fill="none" stroke="midnightblue" d="M377.896,-310.366C405.099,-326.462 444.934,-348.409 482,-362.713 488.62,-365.268 495.591,-367.637 502.639,-369.816"/>
<polygon fill="midnightblue" stroke="midnightblue" points="501.691,-373.185 512.273,-372.668 503.678,-366.473 501.691,-373.185"/>
</g>
<!-- Node18 -->
<g id="node18" class="node"><title>Node18</title>
<g id="a_node18"><a xlink:href="../../d6/d78/classorg_1_1msrg_1_1raccoon_1_1engine_1_1task_1_1sequential_1_1SequentialCodingTask_a9fee0e39302d3e057700653cea01cfe4.html#a9fee0e39302d3e057700653cea01cfe4" target="_top" xlink:title="org.msrg.raccoon.engine.task.sequential.\lSequentialCodingTask.setCurrentStage">
<polygon fill="none" stroke="black" points="483.5,-323.713 483.5,-353.713 679.5,-353.713 679.5,-323.713 483.5,-323.713"/>
<text text-anchor="start" x="491.5" y="-341.713" font-family="Helvetica,sans-Serif" font-size="10.00">org.msrg.raccoon.engine.task.sequential.</text>
<text text-anchor="middle" x="581.5" y="-330.713" font-family="Helvetica,sans-Serif" font-size="10.00">SequentialCodingTask.setCurrentStage</text>
</a>
</g>
</g>
<!-- Node7&#45;&gt;Node18 -->
<g id="edge19" class="edge"><title>Node7&#45;&gt;Node18</title>
<path fill="none" stroke="midnightblue" d="M443.559,-310.281C461.696,-314.046 480.446,-317.939 498.034,-321.591"/>
<polygon fill="midnightblue" stroke="midnightblue" points="497.739,-325.105 508.242,-323.711 499.162,-318.251 497.739,-325.105"/>
</g>
<!-- Node12 -->
<g id="node12" class="node"><title>Node12</title>
<g id="a_node12"><a xlink:href="../../dd/da2/classorg_1_1msrg_1_1raccoon_1_1CodedBatch_ae74adbc0bb2deba0ababd9f2c1cd7fb9.html#ae74adbc0bb2deba0ababd9f2c1cd7fb9" target="_top" xlink:title="org.msrg.raccoon.CodedBatch.get\lRequiredCodedPieceCount">
<polygon fill="none" stroke="black" points="732,-127.713 732,-157.713 898,-157.713 898,-127.713 732,-127.713"/>
<text text-anchor="start" x="740" y="-145.713" font-family="Helvetica,sans-Serif" font-size="10.00">org.msrg.raccoon.CodedBatch.get</text>
<text text-anchor="middle" x="815" y="-134.713" font-family="Helvetica,sans-Serif" font-size="10.00">RequiredCodedPieceCount</text>
</a>
</g>
</g>
<!-- Node11&#45;&gt;Node12 -->
<g id="edge12" class="edge"><title>Node11&#45;&gt;Node12</title>
<path fill="none" stroke="midnightblue" d="M670.681,-142.713C687.294,-142.713 704.711,-142.713 721.453,-142.713"/>
<polygon fill="midnightblue" stroke="midnightblue" points="721.777,-146.213 731.777,-142.713 721.777,-139.213 721.777,-146.213"/>
</g>
<!-- Node14&#45;&gt;Node6 -->
<g id="edge15" class="edge"><title>Node14&#45;&gt;Node6</title>
<path fill="none" stroke="midnightblue" d="M669.69,-36.4275C685.041,-34.9687 701.106,-33.442 716.712,-31.959"/>
<polygon fill="midnightblue" stroke="midnightblue" points="717.264,-35.4223 726.888,-30.9918 716.602,-28.4537 717.264,-35.4223"/>
</g>
<!-- Node17 -->
<g id="node17" class="node"><title>Node17</title>
<g id="a_node17"><a xlink:href="../../d6/d78/classorg_1_1msrg_1_1raccoon_1_1engine_1_1task_1_1sequential_1_1SequentialCodingTask_aac71a63fa055d799d050d072c04e5eec.html#aac71a63fa055d799d050d072c04e5eec" target="_top" xlink:title="org.msrg.raccoon.engine.task.sequential.\lSequentialCodingTask.getFinalStage">
<polygon fill="none" stroke="black" points="717,-372.713 717,-402.713 913,-402.713 913,-372.713 717,-372.713"/>
<text text-anchor="start" x="725" y="-390.713" font-family="Helvetica,sans-Serif" font-size="10.00">org.msrg.raccoon.engine.task.sequential.</text>
<text text-anchor="middle" x="815" y="-379.713" font-family="Helvetica,sans-Serif" font-size="10.00">SequentialCodingTask.getFinalStage</text>
</a>
</g>
</g>
<!-- Node16&#45;&gt;Node17 -->
<g id="edge18" class="edge"><title>Node16&#45;&gt;Node17</title>
<path fill="none" stroke="midnightblue" d="M681.013,-387.713C689.504,-387.713 698.122,-387.713 706.678,-387.713"/>
<polygon fill="midnightblue" stroke="midnightblue" points="706.683,-391.213 716.683,-387.713 706.683,-384.213 706.683,-391.213"/>
</g>
</g>
</svg>
