<?xml version="1.0" encoding="UTF-8" standalone="no"?>
<!DOCTYPE svg PUBLIC "-//W3C//DTD SVG 1.1//EN"
 "http://www.w3.org/Graphics/SVG/1.1/DTD/svg11.dtd">
<!-- Generated by graphviz version 2.38.0 (20140413.2041)
 -->
<!-- Title: org.msrg.raccoon.engine.task.sequential.EncodingReceivedEncodingDecodingEqual_SequentialCodingTask.EncodingReceivedEncodingDecodingEqual_SequentialCodingTask Pages: 1 -->
<svg width="670pt" height="83pt"
 viewBox="0.00 0.00 670.00 83.00" xmlns="http://www.w3.org/2000/svg" xmlns:xlink="http://www.w3.org/1999/xlink">
<g id="graph0" class="graph" transform="scale(1 1) rotate(0) translate(4 79)">
<title>org.msrg.raccoon.engine.task.sequential.EncodingReceivedEncodingDecodingEqual_SequentialCodingTask.EncodingReceivedEncodingDecodingEqual_SequentialCodingTask</title>
<!-- Node0 -->
<g id="node1" class="node"><title>Node0</title>
<polygon fill="#bfbfbf" stroke="black" points="0,-11.5 0,-63.5 245,-63.5 245,-11.5 0,-11.5"/>
<text text-anchor="start" x="8" y="-51.5" font-family="Helvetica,sans-Serif" font-size="10.00">org.msrg.raccoon.engine.task.sequential.</text>
<text text-anchor="start" x="8" y="-40.5" font-family="Helvetica,sans-Serif" font-size="10.00">EncodingReceivedEncodingDecodingEqual</text>
<text text-anchor="start" x="8" y="-29.5" font-family="Helvetica,sans-Serif" font-size="10.00">_SequentialCodingTask.EncodingReceivedEncoding</text>
<text text-anchor="middle" x="122.5" y="-18.5" font-family="Helvetica,sans-Serif" font-size="10.00">DecodingEqual_SequentialCodingTask</text>
</g>
<!-- Node1 -->
<g id="node2" class="node"><title>Node1</title>
<g id="a_node2"><a xlink:href="../../d2/da2/classorg_1_1msrg_1_1raccoon_1_1SourceCodedBatch_a043dbd2ce40f3fb5e394fe7d97e80a19.html#a043dbd2ce40f3fb5e394fe7d97e80a19" target="_top" xlink:title="org.msrg.raccoon.SourceCoded\lBatch.getRows">
<polygon fill="none" stroke="black" points="296,-44.5 296,-74.5 451,-74.5 451,-44.5 296,-44.5"/>
<text text-anchor="start" x="304" y="-62.5" font-family="Helvetica,sans-Serif" font-size="10.00">org.msrg.raccoon.SourceCoded</text>
<text text-anchor="middle" x="373.5" y="-51.5" font-family="Helvetica,sans-Serif" font-size="10.00">Batch.getRows</text>
</a>
</g>
</g>
<!-- Node0&#45;&gt;Node1 -->
<g id="edge1" class="edge"><title>Node0&#45;&gt;Node1</title>
<path fill="none" stroke="midnightblue" d="M245.082,-48.2422C258.72,-49.4471 272.404,-50.6562 285.48,-51.8115"/>
<polygon fill="midnightblue" stroke="midnightblue" points="285.554,-55.3316 295.824,-52.7254 286.171,-48.3588 285.554,-55.3316"/>
</g>
<!-- Node2 -->
<g id="node3" class="node"><title>Node2</title>
<g id="a_node3"><a xlink:href="../../dd/da2/classorg_1_1msrg_1_1raccoon_1_1CodedBatch_a790dedc7e8851563c2ab75be32a9425f.html#a790dedc7e8851563c2ab75be32a9425f" target="_top" xlink:title="org.msrg.raccoon.CodedBatch.getSize">
<polygon fill="none" stroke="black" points="281,-6 281,-25 466,-25 466,-6 281,-6"/>
<text text-anchor="middle" x="373.5" y="-13" font-family="Helvetica,sans-Serif" font-size="10.00">org.msrg.raccoon.CodedBatch.getSize</text>
</a>
</g>
</g>
<!-- Node0&#45;&gt;Node2 -->
<g id="edge2" class="edge"><title>Node0&#45;&gt;Node2</title>
<path fill="none" stroke="midnightblue" d="M245.082,-26.7578C253.596,-26.0056 262.127,-25.2518 270.518,-24.5105"/>
<polygon fill="midnightblue" stroke="midnightblue" points="271.018,-27.98 280.671,-23.6134 270.402,-21.0072 271.018,-27.98"/>
</g>
<!-- Node3 -->
<g id="node4" class="node"><title>Node3</title>
<g id="a_node4"><a xlink:href="../../dd/da2/classorg_1_1msrg_1_1raccoon_1_1CodedBatch_add35b13e6611e5eea0f1ce5c97923634.html#add35b13e6611e5eea0f1ce5c97923634" target="_top" xlink:title="org.msrg.raccoon.CodedBatch.is\lSolved">
<polygon fill="none" stroke="black" points="502,-0.5 502,-30.5 662,-30.5 662,-0.5 502,-0.5"/>
<text text-anchor="start" x="510" y="-18.5" font-family="Helvetica,sans-Serif" font-size="10.00">org.msrg.raccoon.CodedBatch.is</text>
<text text-anchor="middle" x="582" y="-7.5" font-family="Helvetica,sans-Serif" font-size="10.00">Solved</text>
</a>
</g>
</g>
<!-- Node2&#45;&gt;Node3 -->
<g id="edge3" class="edge"><title>Node2&#45;&gt;Node3</title>
<path fill="none" stroke="midnightblue" d="M466.276,-15.5C474.7,-15.5 483.227,-15.5 491.629,-15.5"/>
<polygon fill="midnightblue" stroke="midnightblue" points="491.801,-19.0001 501.801,-15.5 491.801,-12.0001 491.801,-19.0001"/>
</g>
</g>
</svg>
