<?xml version="1.0" encoding="UTF-8" standalone="no"?>
<!DOCTYPE svg PUBLIC "-//W3C//DTD SVG 1.1//EN"
 "http://www.w3.org/Graphics/SVG/1.1/DTD/svg11.dtd">
<!-- Generated by graphviz version 2.38.0 (20140413.2041)
 -->
<!-- Title: org.msrg.raccoon.engine.task.Multiply_CodingTask Pages: 1 -->
<svg width="1181pt" height="1575pt"
 viewBox="0.00 0.00 1181.00 1575.00" xmlns="http://www.w3.org/2000/svg" xmlns:xlink="http://www.w3.org/1999/xlink">
<g id="graph0" class="graph" transform="scale(1 1) rotate(0) translate(4 1571)">
<title>org.msrg.raccoon.engine.task.Multiply_CodingTask</title>
<!-- Node2 -->
<g id="node1" class="node"><title>Node2</title>
<polygon fill="#bfbfbf" stroke="black" points="714,-33.5 714,-112.5 863,-112.5 863,-33.5 714,-33.5"/>
<text text-anchor="start" x="722" y="-100.5" font-family="Helvetica,sans-Serif" font-size="10.00">org.msrg.raccoon.engine.task.</text>
<text text-anchor="middle" x="788.5" y="-89.5" font-family="Helvetica,sans-Serif" font-size="10.00">Multiply_CodingTask</text>
<polyline fill="none" stroke="black" points="714,-82.5 863,-82.5 "/>
<text text-anchor="middle" x="788.5" y="-70.5" font-family="Helvetica,sans-Serif" font-size="10.00"> </text>
<polyline fill="none" stroke="black" points="714,-63.5 863,-63.5 "/>
<text text-anchor="start" x="722" y="-51.5" font-family="Helvetica,sans-Serif" font-size="10.00">+ Multiply_CodingTask()</text>
<text text-anchor="start" x="722" y="-40.5" font-family="Helvetica,sans-Serif" font-size="10.00"># getEmptyCodingResults()</text>
</g>
<!-- Node3 -->
<g id="node2" class="node"><title>Node3</title>
<g id="a_node2"><a xlink:href="../../d9/d22/classorg_1_1msrg_1_1raccoon_1_1engine_1_1task_1_1CodingTask.html" target="_top" xlink:title="{org.msrg.raccoon.engine.task.\lCodingTask\n||+ getCodingResults()\l+ getStatus()\l+ isStarted()\l+ isFinished()\l+ isFailed()\l+ failed()\l+ started()\l+ finished()\l+ isSequencial()\l+ equals()\l+ hashCode()\l# CodingTask()\l# getEmptyCodingResults()\l# changeStatus()\l}">
<polygon fill="none" stroke="black" points="397,-193.5 397,-404.5 546,-404.5 546,-193.5 397,-193.5"/>
<text text-anchor="start" x="405" y="-392.5" font-family="Helvetica,sans-Serif" font-size="10.00">org.msrg.raccoon.engine.task.</text>
<text text-anchor="middle" x="471.5" y="-381.5" font-family="Helvetica,sans-Serif" font-size="10.00">CodingTask</text>
<polyline fill="none" stroke="black" points="397,-374.5 546,-374.5 "/>
<text text-anchor="middle" x="471.5" y="-362.5" font-family="Helvetica,sans-Serif" font-size="10.00"> </text>
<polyline fill="none" stroke="black" points="397,-355.5 546,-355.5 "/>
<text text-anchor="start" x="405" y="-343.5" font-family="Helvetica,sans-Serif" font-size="10.00">+ getCodingResults()</text>
<text text-anchor="start" x="405" y="-332.5" font-family="Helvetica,sans-Serif" font-size="10.00">+ getStatus()</text>
<text text-anchor="start" x="405" y="-321.5" font-family="Helvetica,sans-Serif" font-size="10.00">+ isStarted()</text>
<text text-anchor="start" x="405" y="-310.5" font-family="Helvetica,sans-Serif" font-size="10.00">+ isFinished()</text>
<text text-anchor="start" x="405" y="-299.5" font-family="Helvetica,sans-Serif" font-size="10.00">+ isFailed()</text>
<text text-anchor="start" x="405" y="-288.5" font-family="Helvetica,sans-Serif" font-size="10.00">+ failed()</text>
<text text-anchor="start" x="405" y="-277.5" font-family="Helvetica,sans-Serif" font-size="10.00">+ started()</text>
<text text-anchor="start" x="405" y="-266.5" font-family="Helvetica,sans-Serif" font-size="10.00">+ finished()</text>
<text text-anchor="start" x="405" y="-255.5" font-family="Helvetica,sans-Serif" font-size="10.00">+ isSequencial()</text>
<text text-anchor="start" x="405" y="-244.5" font-family="Helvetica,sans-Serif" font-size="10.00">+ equals()</text>
<text text-anchor="start" x="405" y="-233.5" font-family="Helvetica,sans-Serif" font-size="10.00">+ hashCode()</text>
<text text-anchor="start" x="405" y="-222.5" font-family="Helvetica,sans-Serif" font-size="10.00"># CodingTask()</text>
<text text-anchor="start" x="405" y="-211.5" font-family="Helvetica,sans-Serif" font-size="10.00"># getEmptyCodingResults()</text>
<text text-anchor="start" x="405" y="-200.5" font-family="Helvetica,sans-Serif" font-size="10.00"># changeStatus()</text>
</a>
</g>
</g>
<!-- Node3&#45;&gt;Node2 -->
<g id="edge1" class="edge"><title>Node3&#45;&gt;Node2</title>
<path fill="none" stroke="midnightblue" d="M554.437,-239.395C610.964,-199.452 684.23,-147.68 733.612,-112.785"/>
<polygon fill="none" stroke="midnightblue" points="552.37,-236.569 546.223,-245.199 556.41,-242.286 552.37,-236.569"/>
</g>
<!-- Node6 -->
<g id="node5" class="node"><title>Node6</title>
<g id="a_node5"><a xlink:href="../../df/d3e/classorg_1_1msrg_1_1raccoon_1_1engine_1_1task_1_1result_1_1CodingResult.html" target="_top" xlink:title="{org.msrg.raccoon.engine.task.result.\lCodingResult\n||+ equals()\l+ hashCode()\l+ getStatus()\l+ setStatus()\l+ isStarted()\l+ isFailed()\l+ isFinished()\l# CodingResult()\l}">
<polygon fill="none" stroke="black" points="203.5,-0.5 203.5,-145.5 379.5,-145.5 379.5,-0.5 203.5,-0.5"/>
<text text-anchor="start" x="211.5" y="-133.5" font-family="Helvetica,sans-Serif" font-size="10.00">org.msrg.raccoon.engine.task.result.</text>
<text text-anchor="middle" x="291.5" y="-122.5" font-family="Helvetica,sans-Serif" font-size="10.00">CodingResult</text>
<polyline fill="none" stroke="black" points="203.5,-115.5 379.5,-115.5 "/>
<text text-anchor="middle" x="291.5" y="-103.5" font-family="Helvetica,sans-Serif" font-size="10.00"> </text>
<polyline fill="none" stroke="black" points="203.5,-96.5 379.5,-96.5 "/>
<text text-anchor="start" x="211.5" y="-84.5" font-family="Helvetica,sans-Serif" font-size="10.00">+ equals()</text>
<text text-anchor="start" x="211.5" y="-73.5" font-family="Helvetica,sans-Serif" font-size="10.00">+ hashCode()</text>
<text text-anchor="start" x="211.5" y="-62.5" font-family="Helvetica,sans-Serif" font-size="10.00">+ getStatus()</text>
<text text-anchor="start" x="211.5" y="-51.5" font-family="Helvetica,sans-Serif" font-size="10.00">+ setStatus()</text>
<text text-anchor="start" x="211.5" y="-40.5" font-family="Helvetica,sans-Serif" font-size="10.00">+ isStarted()</text>
<text text-anchor="start" x="211.5" y="-29.5" font-family="Helvetica,sans-Serif" font-size="10.00">+ isFailed()</text>
<text text-anchor="start" x="211.5" y="-18.5" font-family="Helvetica,sans-Serif" font-size="10.00">+ isFinished()</text>
<text text-anchor="start" x="211.5" y="-7.5" font-family="Helvetica,sans-Serif" font-size="10.00"># CodingResult()</text>
</a>
</g>
</g>
<!-- Node3&#45;&gt;Node6 -->
<g id="edge5" class="edge"><title>Node3&#45;&gt;Node6</title>
<path fill="none" stroke="#404040" d="M396.91,-203.502C394.074,-199.953 391.264,-196.443 388.5,-193 378.661,-180.743 368.208,-167.819 357.946,-155.185"/>
<polygon fill="none" stroke="#404040" points="357.72,-154.907 350.831,-152.775 350.149,-145.596 357.038,-147.728 357.72,-154.907"/>
<text text-anchor="middle" x="394.5" y="-167" font-family="Helvetica,sans-Serif" font-size="10.00"> +_cTask</text>
</g>
<!-- Node4 -->
<g id="node3" class="node"><title>Node4</title>
<g id="a_node3"><a xlink:href="../../d6/d58/interfaceorg_1_1msrg_1_1raccoon_1_1engine_1_1ICodingListener.html" target="_top" xlink:title="{org.msrg.raccoon.engine.\lICodingListener\n||+ codingStarted()\l+ codingPreliminaryStageCompleted()\l+ codingFailed()\l+ codingFinished()\l}">
<polygon fill="none" stroke="black" points="334.5,-562.5 334.5,-663.5 516.5,-663.5 516.5,-562.5 334.5,-562.5"/>
<text text-anchor="start" x="342.5" y="-651.5" font-family="Helvetica,sans-Serif" font-size="10.00">org.msrg.raccoon.engine.</text>
<text text-anchor="middle" x="425.5" y="-640.5" font-family="Helvetica,sans-Serif" font-size="10.00">ICodingListener</text>
<polyline fill="none" stroke="black" points="334.5,-633.5 516.5,-633.5 "/>
<text text-anchor="middle" x="425.5" y="-621.5" font-family="Helvetica,sans-Serif" font-size="10.00"> </text>
<polyline fill="none" stroke="black" points="334.5,-614.5 516.5,-614.5 "/>
<text text-anchor="start" x="342.5" y="-602.5" font-family="Helvetica,sans-Serif" font-size="10.00">+ codingStarted()</text>
<text text-anchor="start" x="342.5" y="-591.5" font-family="Helvetica,sans-Serif" font-size="10.00">+ codingPreliminaryStageCompleted()</text>
<text text-anchor="start" x="342.5" y="-580.5" font-family="Helvetica,sans-Serif" font-size="10.00">+ codingFailed()</text>
<text text-anchor="start" x="342.5" y="-569.5" font-family="Helvetica,sans-Serif" font-size="10.00">+ codingFinished()</text>
</a>
</g>
</g>
<!-- Node4&#45;&gt;Node3 -->
<g id="edge2" class="edge"><title>Node4&#45;&gt;Node3</title>
<path fill="none" stroke="#404040" d="M432.84,-562.218C438.616,-523.036 446.903,-466.83 454.324,-416.497"/>
<polygon fill="none" stroke="#404040" points="454.34,-416.389 451.258,-409.869 456.09,-404.517 459.172,-411.036 454.34,-416.389"/>
<text text-anchor="middle" x="475.5" y="-426" font-family="Helvetica,sans-Serif" font-size="10.00"> +_listener</text>
</g>
<!-- Node5 -->
<g id="node4" class="node"><title>Node5</title>
<g id="a_node4"><a xlink:href="../../d5/d15/classorg_1_1msrg_1_1raccoon_1_1engine_1_1task_1_1CodingId.html" target="_top" xlink:title="{org.msrg.raccoon.engine.task.\lCodingId\n|&#45; _id\l&#45; _lastId\l|+ equals()\l+ hashCode()\l+ toString()\l+ getNewCodingId()\l&#45; CodingId()\l}">
<polygon fill="none" stroke="black" points="0,-551.5 0,-674.5 149,-674.5 149,-551.5 0,-551.5"/>
<text text-anchor="start" x="8" y="-662.5" font-family="Helvetica,sans-Serif" font-size="10.00">org.msrg.raccoon.engine.task.</text>
<text text-anchor="middle" x="74.5" y="-651.5" font-family="Helvetica,sans-Serif" font-size="10.00">CodingId</text>
<polyline fill="none" stroke="black" points="0,-644.5 149,-644.5 "/>
<text text-anchor="start" x="8" y="-632.5" font-family="Helvetica,sans-Serif" font-size="10.00">&#45; _id</text>
<text text-anchor="start" x="8" y="-621.5" font-family="Helvetica,sans-Serif" font-size="10.00">&#45; _lastId</text>
<polyline fill="none" stroke="black" points="0,-614.5 149,-614.5 "/>
<text text-anchor="start" x="8" y="-602.5" font-family="Helvetica,sans-Serif" font-size="10.00">+ equals()</text>
<text text-anchor="start" x="8" y="-591.5" font-family="Helvetica,sans-Serif" font-size="10.00">+ hashCode()</text>
<text text-anchor="start" x="8" y="-580.5" font-family="Helvetica,sans-Serif" font-size="10.00">+ toString()</text>
<text text-anchor="start" x="8" y="-569.5" font-family="Helvetica,sans-Serif" font-size="10.00">+ getNewCodingId()</text>
<text text-anchor="start" x="8" y="-558.5" font-family="Helvetica,sans-Serif" font-size="10.00">&#45; CodingId()</text>
</a>
</g>
</g>
<!-- Node5&#45;&gt;Node3 -->
<g id="edge3" class="edge"><title>Node5&#45;&gt;Node3</title>
<path fill="none" stroke="#404040" d="M91.5759,-551.288C104.293,-517.068 125.153,-476.411 157.5,-452 196.7,-422.416 326.207,-431.11 385.959,-405.019"/>
<polygon fill="none" stroke="#404040" points="386.284,-404.85 389.763,-398.534 396.931,-399.316 393.452,-405.632 386.284,-404.85"/>
<text text-anchor="middle" x="322.5" y="-426" font-family="Helvetica,sans-Serif" font-size="10.00"> +_id</text>
</g>
<!-- Node5&#45;&gt;Node6 -->
<g id="edge7" class="edge"><title>Node5&#45;&gt;Node6</title>
<path fill="none" stroke="#404040" d="M63.2377,-551.163C50.5898,-464.877 39.71,-305.005 106.5,-193 126.355,-159.704 159.553,-134.102 192.391,-115.328"/>
<polygon fill="none" stroke="#404040" points="192.511,-115.262 195.837,-108.863 203.022,-109.471 199.697,-115.87 192.511,-115.262"/>
<text text-anchor="middle" x="117.5" y="-296.5" font-family="Helvetica,sans-Serif" font-size="10.00"> +_id</text>
</g>
<!-- Node6&#45;&gt;Node3 -->
<g id="edge4" class="edge"><title>Node6&#45;&gt;Node3</title>
<path fill="none" stroke="#404040" d="M379.702,-112.231C402.072,-125.682 424.098,-142.851 439.5,-164 443.649,-169.698 447.267,-175.859 450.421,-182.302"/>
<polygon fill="none" stroke="#404040" points="450.464,-182.398 456.544,-186.276 455.303,-193.379 449.223,-189.502 450.464,-182.398"/>
<text text-anchor="middle" x="465" y="-167" font-family="Helvetica,sans-Serif" font-size="10.00"> +_result</text>
</g>
<!-- Node7 -->
<g id="node6" class="node"><title>Node7</title>
<g id="a_node6"><a xlink:href="../../d1/dce/namespaceorg_1_1msrg_1_1raccoon_1_1engine_1_1task_1_1result.html#de/d82/enumorg_1_1msrg_1_1raccoon_1_1engine_1_1task_1_1result_1_1CodingResultsType" target="_top" xlink:title="{org.msrg.raccoon.engine.task.result.\lCodingResultsType\n|+ BOOLEAN\l+ NC_MATRIX\l+ BULK_MATRIX\l+ CODED_SLICE_MATRIX\l+ SLICE_MATRIX\l+ CODED_SLICE\l+ FILE_RESULT\l|}">
<polygon fill="none" stroke="black" points="203.5,-232 203.5,-366 379.5,-366 379.5,-232 203.5,-232"/>
<text text-anchor="start" x="211.5" y="-354" font-family="Helvetica,sans-Serif" font-size="10.00">org.msrg.raccoon.engine.task.result.</text>
<text text-anchor="middle" x="291.5" y="-343" font-family="Helvetica,sans-Serif" font-size="10.00">CodingResultsType</text>
<polyline fill="none" stroke="black" points="203.5,-336 379.5,-336 "/>
<text text-anchor="start" x="211.5" y="-324" font-family="Helvetica,sans-Serif" font-size="10.00">+ BOOLEAN</text>
<text text-anchor="start" x="211.5" y="-313" font-family="Helvetica,sans-Serif" font-size="10.00">+ NC_MATRIX</text>
<text text-anchor="start" x="211.5" y="-302" font-family="Helvetica,sans-Serif" font-size="10.00">+ BULK_MATRIX</text>
<text text-anchor="start" x="211.5" y="-291" font-family="Helvetica,sans-Serif" font-size="10.00">+ CODED_SLICE_MATRIX</text>
<text text-anchor="start" x="211.5" y="-280" font-family="Helvetica,sans-Serif" font-size="10.00">+ SLICE_MATRIX</text>
<text text-anchor="start" x="211.5" y="-269" font-family="Helvetica,sans-Serif" font-size="10.00">+ CODED_SLICE</text>
<text text-anchor="start" x="211.5" y="-258" font-family="Helvetica,sans-Serif" font-size="10.00">+ FILE_RESULT</text>
<polyline fill="none" stroke="black" points="203.5,-251 379.5,-251 "/>
<text text-anchor="middle" x="291.5" y="-239" font-family="Helvetica,sans-Serif" font-size="10.00"> </text>
</a>
</g>
</g>
<!-- Node7&#45;&gt;Node6 -->
<g id="edge6" class="edge"><title>Node7&#45;&gt;Node6</title>
<path fill="none" stroke="#404040" d="M291.5,-231.702C291.5,-208.526 291.5,-182.198 291.5,-157.784"/>
<polygon fill="none" stroke="#404040" points="291.5,-157.598 287.5,-151.598 291.5,-145.598 295.5,-151.598 291.5,-157.598"/>
<text text-anchor="middle" x="324.5" y="-167" font-family="Helvetica,sans-Serif" font-size="10.00"> +_resultsType</text>
</g>
<!-- Node8 -->
<g id="node7" class="node"><title>Node8</title>
<g id="a_node7"><a xlink:href="../../df/de9/namespaceorg_1_1msrg_1_1raccoon_1_1engine_1_1task.html#dd/d1c/enumorg_1_1msrg_1_1raccoon_1_1engine_1_1task_1_1CodingTaskStatus" target="_top" xlink:title="{org.msrg.raccoon.engine.task.\lCodingTaskStatus\n|+ CREATED\l+ STARTED\l+ FINISHED\l+ FAILED\l|}">
<polygon fill="none" stroke="black" points="167,-562.5 167,-663.5 316,-663.5 316,-562.5 167,-562.5"/>
<text text-anchor="start" x="175" y="-651.5" font-family="Helvetica,sans-Serif" font-size="10.00">org.msrg.raccoon.engine.task.</text>
<text text-anchor="middle" x="241.5" y="-640.5" font-family="Helvetica,sans-Serif" font-size="10.00">CodingTaskStatus</text>
<polyline fill="none" stroke="black" points="167,-633.5 316,-633.5 "/>
<text text-anchor="start" x="175" y="-621.5" font-family="Helvetica,sans-Serif" font-size="10.00">+ CREATED</text>
<text text-anchor="start" x="175" y="-610.5" font-family="Helvetica,sans-Serif" font-size="10.00">+ STARTED</text>
<text text-anchor="start" x="175" y="-599.5" font-family="Helvetica,sans-Serif" font-size="10.00">+ FINISHED</text>
<text text-anchor="start" x="175" y="-588.5" font-family="Helvetica,sans-Serif" font-size="10.00">+ FAILED</text>
<polyline fill="none" stroke="black" points="167,-581.5 316,-581.5 "/>
<text text-anchor="middle" x="241.5" y="-569.5" font-family="Helvetica,sans-Serif" font-size="10.00"> </text>
</a>
</g>
</g>
<!-- Node8&#45;&gt;Node3 -->
<g id="edge9" class="edge"><title>Node8&#45;&gt;Node3</title>
<path fill="none" stroke="#404040" d="M260.671,-562.344C275.176,-528.849 297.389,-484.928 325.5,-452 348.182,-425.432 363.456,-429.354 388.5,-405 388.588,-404.914 388.677,-404.828 388.765,-404.742"/>
<polygon fill="none" stroke="#404040" points="388.511,-404.998 389.89,-397.92 396.955,-396.471 395.575,-403.549 388.511,-404.998"/>
<text text-anchor="middle" x="385" y="-426" font-family="Helvetica,sans-Serif" font-size="10.00"> #_status</text>
</g>
<!-- Node8&#45;&gt;Node6 -->
<g id="edge8" class="edge"><title>Node8&#45;&gt;Node6</title>
<path fill="none" stroke="#404040" d="M211.91,-562.365C167.881,-481.601 96.1488,-318.185 153.5,-193 162.839,-172.615 177.584,-154.397 194.027,-138.707"/>
<polygon fill="none" stroke="#404040" points="194.439,-138.332 196.183,-131.335 203.312,-130.253 201.568,-137.251 194.439,-138.332"/>
<text text-anchor="middle" x="174" y="-296.5" font-family="Helvetica,sans-Serif" font-size="10.00"> #_status</text>
</g>
<!-- Node9 -->
<g id="node8" class="node"><title>Node9</title>
<g id="a_node8"><a xlink:href="../../d5/da9/enumorg_1_1msrg_1_1raccoon_1_1engine_1_1task_1_1CodingTaskType.html" target="_top" xlink:title="{org.msrg.raccoon.engine.task.\lCodingTaskType\n|+ FILE_TASK\l+ SLICES_EQUAL\l+ MULTIPLY\l+ INVERSE\l+ SEQUENCIAL\l+ _isSequencial\l|+ CodingTaskType()\l}">
<polygon fill="none" stroke="black" points="535,-551.5 535,-674.5 684,-674.5 684,-551.5 535,-551.5"/>
<text text-anchor="start" x="543" y="-662.5" font-family="Helvetica,sans-Serif" font-size="10.00">org.msrg.raccoon.engine.task.</text>
<text text-anchor="middle" x="609.5" y="-651.5" font-family="Helvetica,sans-Serif" font-size="10.00">CodingTaskType</text>
<polyline fill="none" stroke="black" points="535,-644.5 684,-644.5 "/>
<text text-anchor="start" x="543" y="-632.5" font-family="Helvetica,sans-Serif" font-size="10.00">+ FILE_TASK</text>
<text text-anchor="start" x="543" y="-621.5" font-family="Helvetica,sans-Serif" font-size="10.00">+ SLICES_EQUAL</text>
<text text-anchor="start" x="543" y="-610.5" font-family="Helvetica,sans-Serif" font-size="10.00">+ MULTIPLY</text>
<text text-anchor="start" x="543" y="-599.5" font-family="Helvetica,sans-Serif" font-size="10.00">+ INVERSE</text>
<text text-anchor="start" x="543" y="-588.5" font-family="Helvetica,sans-Serif" font-size="10.00">+ SEQUENCIAL</text>
<text text-anchor="start" x="543" y="-577.5" font-family="Helvetica,sans-Serif" font-size="10.00">+ _isSequencial</text>
<polyline fill="none" stroke="black" points="535,-570.5 684,-570.5 "/>
<text text-anchor="start" x="543" y="-558.5" font-family="Helvetica,sans-Serif" font-size="10.00">+ CodingTaskType()</text>
</a>
</g>
</g>
<!-- Node9&#45;&gt;Node3 -->
<g id="edge10" class="edge"><title>Node9&#45;&gt;Node3</title>
<path fill="none" stroke="#404040" d="M582.729,-551.473C565.676,-512.92 543.032,-461.726 522.628,-415.594"/>
<polygon fill="none" stroke="#404040" points="522.622,-415.58 516.537,-411.711 517.768,-404.606 523.853,-408.475 522.622,-415.58"/>
<text text-anchor="middle" x="555" y="-426" font-family="Helvetica,sans-Serif" font-size="10.00"> +_taskType</text>
</g>
<!-- Node10 -->
<g id="node9" class="node"><title>Node10</title>
<g id="a_node9"><a xlink:href="../../d6/d37/classorg_1_1msrg_1_1raccoon_1_1matrix_1_1finitefields_1_1ByteMatrix1D.html" target="_top" xlink:title="{org.msrg.raccoon.matrix.finitefields.\lByteMatrix1D\n||+ ByteMatrix1D()\l+ ByteMatrix1D()\l+ ByteMatrix1D()\l+ multiply1D()\l# make1dArray2d()\l}">
<polygon fill="none" stroke="black" points="702,-243 702,-355 875,-355 875,-243 702,-243"/>
<text text-anchor="start" x="710" y="-343" font-family="Helvetica,sans-Serif" font-size="10.00">org.msrg.raccoon.matrix.finitefields.</text>
<text text-anchor="middle" x="788.5" y="-332" font-family="Helvetica,sans-Serif" font-size="10.00">ByteMatrix1D</text>
<polyline fill="none" stroke="black" points="702,-325 875,-325 "/>
<text text-anchor="middle" x="788.5" y="-313" font-family="Helvetica,sans-Serif" font-size="10.00"> </text>
<polyline fill="none" stroke="black" points="702,-306 875,-306 "/>
<text text-anchor="start" x="710" y="-294" font-family="Helvetica,sans-Serif" font-size="10.00">+ ByteMatrix1D()</text>
<text text-anchor="start" x="710" y="-283" font-family="Helvetica,sans-Serif" font-size="10.00">+ ByteMatrix1D()</text>
<text text-anchor="start" x="710" y="-272" font-family="Helvetica,sans-Serif" font-size="10.00">+ ByteMatrix1D()</text>
<text text-anchor="start" x="710" y="-261" font-family="Helvetica,sans-Serif" font-size="10.00">+ multiply1D()</text>
<text text-anchor="start" x="710" y="-250" font-family="Helvetica,sans-Serif" font-size="10.00"># make1dArray2d()</text>
</a>
</g>
</g>
<!-- Node10&#45;&gt;Node2 -->
<g id="edge11" class="edge"><title>Node10&#45;&gt;Node2</title>
<path fill="none" stroke="#404040" d="M788.5,-242.917C788.5,-206.921 788.5,-160.242 788.5,-125.079"/>
<polygon fill="none" stroke="#404040" points="788.5,-124.686 784.5,-118.686 788.5,-112.686 792.5,-118.686 788.5,-124.686"/>
<text text-anchor="middle" x="800" y="-167" font-family="Helvetica,sans-Serif" font-size="10.00"> +_m</text>
</g>
<!-- Node11 -->
<g id="node10" class="node"><title>Node11</title>
<g id="a_node10"><a xlink:href="../../dd/d36/classorg_1_1msrg_1_1raccoon_1_1matrix_1_1finitefields_1_1ByteMatrix.html" target="_top" xlink:title="{org.msrg.raccoon.matrix.finitefields.\lByteMatrix\n||+ ByteMatrix()\l+ ByteMatrix()\l+ ByteMatrix()\l+ isInversable()\l+ getByteArray()\l+ multiply()\l+ multiply()\l+ getZeroMatrix()\l+ verifyNotNull()\l+ wrap()\l+ wrap()\l+ unwrap()\l+ createRandomByteMatrix()\l+ createMatrix()\l# createByteMatrix()\l# createNewMatrix()\l}">
<polygon fill="none" stroke="black" points="702,-496.5 702,-729.5 875,-729.5 875,-496.5 702,-496.5"/>
<text text-anchor="start" x="710" y="-717.5" font-family="Helvetica,sans-Serif" font-size="10.00">org.msrg.raccoon.matrix.finitefields.</text>
<text text-anchor="middle" x="788.5" y="-706.5" font-family="Helvetica,sans-Serif" font-size="10.00">ByteMatrix</text>
<polyline fill="none" stroke="black" points="702,-699.5 875,-699.5 "/>
<text text-anchor="middle" x="788.5" y="-687.5" font-family="Helvetica,sans-Serif" font-size="10.00"> </text>
<polyline fill="none" stroke="black" points="702,-680.5 875,-680.5 "/>
<text text-anchor="start" x="710" y="-668.5" font-family="Helvetica,sans-Serif" font-size="10.00">+ ByteMatrix()</text>
<text text-anchor="start" x="710" y="-657.5" font-family="Helvetica,sans-Serif" font-size="10.00">+ ByteMatrix()</text>
<text text-anchor="start" x="710" y="-646.5" font-family="Helvetica,sans-Serif" font-size="10.00">+ ByteMatrix()</text>
<text text-anchor="start" x="710" y="-635.5" font-family="Helvetica,sans-Serif" font-size="10.00">+ isInversable()</text>
<text text-anchor="start" x="710" y="-624.5" font-family="Helvetica,sans-Serif" font-size="10.00">+ getByteArray()</text>
<text text-anchor="start" x="710" y="-613.5" font-family="Helvetica,sans-Serif" font-size="10.00">+ multiply()</text>
<text text-anchor="start" x="710" y="-602.5" font-family="Helvetica,sans-Serif" font-size="10.00">+ multiply()</text>
<text text-anchor="start" x="710" y="-591.5" font-family="Helvetica,sans-Serif" font-size="10.00">+ getZeroMatrix()</text>
<text text-anchor="start" x="710" y="-580.5" font-family="Helvetica,sans-Serif" font-size="10.00">+ verifyNotNull()</text>
<text text-anchor="start" x="710" y="-569.5" font-family="Helvetica,sans-Serif" font-size="10.00">+ wrap()</text>
<text text-anchor="start" x="710" y="-558.5" font-family="Helvetica,sans-Serif" font-size="10.00">+ wrap()</text>
<text text-anchor="start" x="710" y="-547.5" font-family="Helvetica,sans-Serif" font-size="10.00">+ unwrap()</text>
<text text-anchor="start" x="710" y="-536.5" font-family="Helvetica,sans-Serif" font-size="10.00">+ createRandomByteMatrix()</text>
<text text-anchor="start" x="710" y="-525.5" font-family="Helvetica,sans-Serif" font-size="10.00">+ createMatrix()</text>
<text text-anchor="start" x="710" y="-514.5" font-family="Helvetica,sans-Serif" font-size="10.00"># createByteMatrix()</text>
<text text-anchor="start" x="710" y="-503.5" font-family="Helvetica,sans-Serif" font-size="10.00"># createNewMatrix()</text>
</a>
</g>
</g>
<!-- Node11&#45;&gt;Node10 -->
<g id="edge12" class="edge"><title>Node11&#45;&gt;Node10</title>
<path fill="none" stroke="midnightblue" d="M788.5,-486.022C788.5,-440.573 788.5,-391.591 788.5,-355.303"/>
<polygon fill="none" stroke="midnightblue" points="785,-486.266 788.5,-496.266 792,-486.266 785,-486.266"/>
</g>
<!-- Node12 -->
<g id="node11" class="node"><title>Node12</title>
<g id="a_node11"><a xlink:href="../../de/d17/classorg_1_1msrg_1_1raccoon_1_1matrix_1_1finitefields_1_1FFByteMatrix.html" target="_top" xlink:title="{org.msrg.raccoon.matrix.finitefields.\lFFByteMatrix\n|# m\l# DIG\l|+ FFByteMatrix()\l+ FFByteMatrix()\l+ add()\l+ decloneExtended()\l+ cloneExtended()\l+ clone()\l+ getOne()\l+ getZero()\l+ getZeroMatrix()\l+ getNullMatrix()\land 10 more...\l+ createRandomSquareByteMatrix()\l+ createRandomByteMatrix()\l+ createMatrix()\l+ random()\l# createNewMatrix()\l# toString()\l# multiply2()\l# makeZero2d()\l}">
<polygon fill="none" stroke="black" points="685,-821.5 685,-1098.5 858,-1098.5 858,-821.5 685,-821.5"/>
<text text-anchor="start" x="693" y="-1086.5" font-family="Helvetica,sans-Serif" font-size="10.00">org.msrg.raccoon.matrix.finitefields.</text>
<text text-anchor="middle" x="771.5" y="-1075.5" font-family="Helvetica,sans-Serif" font-size="10.00">FFByteMatrix</text>
<polyline fill="none" stroke="black" points="685,-1068.5 858,-1068.5 "/>
<text text-anchor="start" x="693" y="-1056.5" font-family="Helvetica,sans-Serif" font-size="10.00"># m</text>
<text text-anchor="start" x="693" y="-1045.5" font-family="Helvetica,sans-Serif" font-size="10.00"># DIG</text>
<polyline fill="none" stroke="black" points="685,-1038.5 858,-1038.5 "/>
<text text-anchor="start" x="693" y="-1026.5" font-family="Helvetica,sans-Serif" font-size="10.00">+ FFByteMatrix()</text>
<text text-anchor="start" x="693" y="-1015.5" font-family="Helvetica,sans-Serif" font-size="10.00">+ FFByteMatrix()</text>
<text text-anchor="start" x="693" y="-1004.5" font-family="Helvetica,sans-Serif" font-size="10.00">+ add()</text>
<text text-anchor="start" x="693" y="-993.5" font-family="Helvetica,sans-Serif" font-size="10.00">+ decloneExtended()</text>
<text text-anchor="start" x="693" y="-982.5" font-family="Helvetica,sans-Serif" font-size="10.00">+ cloneExtended()</text>
<text text-anchor="start" x="693" y="-971.5" font-family="Helvetica,sans-Serif" font-size="10.00">+ clone()</text>
<text text-anchor="start" x="693" y="-960.5" font-family="Helvetica,sans-Serif" font-size="10.00">+ getOne()</text>
<text text-anchor="start" x="693" y="-949.5" font-family="Helvetica,sans-Serif" font-size="10.00">+ getZero()</text>
<text text-anchor="start" x="693" y="-938.5" font-family="Helvetica,sans-Serif" font-size="10.00">+ getZeroMatrix()</text>
<text text-anchor="start" x="693" y="-927.5" font-family="Helvetica,sans-Serif" font-size="10.00">+ getNullMatrix()</text>
<text text-anchor="start" x="693" y="-916.5" font-family="Helvetica,sans-Serif" font-size="10.00">and 10 more...</text>
<text text-anchor="start" x="693" y="-905.5" font-family="Helvetica,sans-Serif" font-size="10.00">+ createRandomSquareByteMatrix()</text>
<text text-anchor="start" x="693" y="-894.5" font-family="Helvetica,sans-Serif" font-size="10.00">+ createRandomByteMatrix()</text>
<text text-anchor="start" x="693" y="-883.5" font-family="Helvetica,sans-Serif" font-size="10.00">+ createMatrix()</text>
<text text-anchor="start" x="693" y="-872.5" font-family="Helvetica,sans-Serif" font-size="10.00">+ random()</text>
<text text-anchor="start" x="693" y="-861.5" font-family="Helvetica,sans-Serif" font-size="10.00"># createNewMatrix()</text>
<text text-anchor="start" x="693" y="-850.5" font-family="Helvetica,sans-Serif" font-size="10.00"># toString()</text>
<text text-anchor="start" x="693" y="-839.5" font-family="Helvetica,sans-Serif" font-size="10.00"># multiply2()</text>
<text text-anchor="start" x="693" y="-828.5" font-family="Helvetica,sans-Serif" font-size="10.00"># makeZero2d()</text>
</a>
</g>
</g>
<!-- Node12&#45;&gt;Node11 -->
<g id="edge13" class="edge"><title>Node12&#45;&gt;Node11</title>
<path fill="none" stroke="midnightblue" d="M778.785,-811.165C780.127,-783.921 781.511,-755.839 782.798,-729.713"/>
<polygon fill="none" stroke="midnightblue" points="775.289,-810.999 778.292,-821.16 782.28,-811.344 775.289,-810.999"/>
</g>
<!-- Node13 -->
<g id="node12" class="node"><title>Node13</title>
<g id="a_node12"><a xlink:href="../../db/d3f/classorg_1_1msrg_1_1raccoon_1_1matrix_1_1TypedMatrix.html" target="_top" xlink:title="{org::msrg::raccoon\l::matrix::TypedMatrix\l\&lt; Byte \&gt;\n|+ _b\l+ _MAX_ROWS_PRINT\l+ _MAX_COLS_PRINT\l# _rows\l# _cols\l# _lock\l# _inverseRowZero\l# _inverse\l|+ TypedMatrix()\l+ clone()\l+ cloneExtended()\l+ decloneExtended()\l+ compareToAbs()\l+ isZero()\l+ isOne()\l+ getOne()\l+ getZero()\l+ inverse()\land 25 more...\l+ toStringMult()\l+ toStringAdd()\l+ toString()\l# toString()\l# getNullMatrix()\l# getZeroMatrix()\l# getEmptyArray()\l# inverseMatrixPrivately()\l# devideRow()\l# subtractRow()\l# subtractRowFromRow()\l# addRow()\l# multiplyRow()\land 8 more...\l}">
<polygon fill="none" stroke="black" points="545,-1146.5 545,-1566.5 674,-1566.5 674,-1146.5 545,-1146.5"/>
<text text-anchor="start" x="553" y="-1554.5" font-family="Helvetica,sans-Serif" font-size="10.00">org::msrg::raccoon</text>
<text text-anchor="start" x="553" y="-1543.5" font-family="Helvetica,sans-Serif" font-size="10.00">::matrix::TypedMatrix</text>
<text text-anchor="middle" x="609.5" y="-1532.5" font-family="Helvetica,sans-Serif" font-size="10.00">&lt; Byte &gt;</text>
<polyline fill="none" stroke="black" points="545,-1525.5 674,-1525.5 "/>
<text text-anchor="start" x="553" y="-1513.5" font-family="Helvetica,sans-Serif" font-size="10.00">+ _b</text>
<text text-anchor="start" x="553" y="-1502.5" font-family="Helvetica,sans-Serif" font-size="10.00">+ _MAX_ROWS_PRINT</text>
<text text-anchor="start" x="553" y="-1491.5" font-family="Helvetica,sans-Serif" font-size="10.00">+ _MAX_COLS_PRINT</text>
<text text-anchor="start" x="553" y="-1480.5" font-family="Helvetica,sans-Serif" font-size="10.00"># _rows</text>
<text text-anchor="start" x="553" y="-1469.5" font-family="Helvetica,sans-Serif" font-size="10.00"># _cols</text>
<text text-anchor="start" x="553" y="-1458.5" font-family="Helvetica,sans-Serif" font-size="10.00"># _lock</text>
<text text-anchor="start" x="553" y="-1447.5" font-family="Helvetica,sans-Serif" font-size="10.00"># _inverseRowZero</text>
<text text-anchor="start" x="553" y="-1436.5" font-family="Helvetica,sans-Serif" font-size="10.00"># _inverse</text>
<polyline fill="none" stroke="black" points="545,-1429.5 674,-1429.5 "/>
<text text-anchor="start" x="553" y="-1417.5" font-family="Helvetica,sans-Serif" font-size="10.00">+ TypedMatrix()</text>
<text text-anchor="start" x="553" y="-1406.5" font-family="Helvetica,sans-Serif" font-size="10.00">+ clone()</text>
<text text-anchor="start" x="553" y="-1395.5" font-family="Helvetica,sans-Serif" font-size="10.00">+ cloneExtended()</text>
<text text-anchor="start" x="553" y="-1384.5" font-family="Helvetica,sans-Serif" font-size="10.00">+ decloneExtended()</text>
<text text-anchor="start" x="553" y="-1373.5" font-family="Helvetica,sans-Serif" font-size="10.00">+ compareToAbs()</text>
<text text-anchor="start" x="553" y="-1362.5" font-family="Helvetica,sans-Serif" font-size="10.00">+ isZero()</text>
<text text-anchor="start" x="553" y="-1351.5" font-family="Helvetica,sans-Serif" font-size="10.00">+ isOne()</text>
<text text-anchor="start" x="553" y="-1340.5" font-family="Helvetica,sans-Serif" font-size="10.00">+ getOne()</text>
<text text-anchor="start" x="553" y="-1329.5" font-family="Helvetica,sans-Serif" font-size="10.00">+ getZero()</text>
<text text-anchor="start" x="553" y="-1318.5" font-family="Helvetica,sans-Serif" font-size="10.00">+ inverse()</text>
<text text-anchor="start" x="553" y="-1307.5" font-family="Helvetica,sans-Serif" font-size="10.00">and 25 more...</text>
<text text-anchor="start" x="553" y="-1296.5" font-family="Helvetica,sans-Serif" font-size="10.00">+ toStringMult()</text>
<text text-anchor="start" x="553" y="-1285.5" font-family="Helvetica,sans-Serif" font-size="10.00">+ toStringAdd()</text>
<text text-anchor="start" x="553" y="-1274.5" font-family="Helvetica,sans-Serif" font-size="10.00">+ toString()</text>
<text text-anchor="start" x="553" y="-1263.5" font-family="Helvetica,sans-Serif" font-size="10.00"># toString()</text>
<text text-anchor="start" x="553" y="-1252.5" font-family="Helvetica,sans-Serif" font-size="10.00"># getNullMatrix()</text>
<text text-anchor="start" x="553" y="-1241.5" font-family="Helvetica,sans-Serif" font-size="10.00"># getZeroMatrix()</text>
<text text-anchor="start" x="553" y="-1230.5" font-family="Helvetica,sans-Serif" font-size="10.00"># getEmptyArray()</text>
<text text-anchor="start" x="553" y="-1219.5" font-family="Helvetica,sans-Serif" font-size="10.00"># inverseMatrixPrivately()</text>
<text text-anchor="start" x="553" y="-1208.5" font-family="Helvetica,sans-Serif" font-size="10.00"># devideRow()</text>
<text text-anchor="start" x="553" y="-1197.5" font-family="Helvetica,sans-Serif" font-size="10.00"># subtractRow()</text>
<text text-anchor="start" x="553" y="-1186.5" font-family="Helvetica,sans-Serif" font-size="10.00"># subtractRowFromRow()</text>
<text text-anchor="start" x="553" y="-1175.5" font-family="Helvetica,sans-Serif" font-size="10.00"># addRow()</text>
<text text-anchor="start" x="553" y="-1164.5" font-family="Helvetica,sans-Serif" font-size="10.00"># multiplyRow()</text>
<text text-anchor="start" x="553" y="-1153.5" font-family="Helvetica,sans-Serif" font-size="10.00">and 8 more...</text>
</a>
</g>
</g>
<!-- Node13&#45;&gt;Node12 -->
<g id="edge14" class="edge"><title>Node13&#45;&gt;Node12</title>
<path fill="none" stroke="midnightblue" d="M677.874,-1159.84C679.743,-1155.17 681.62,-1150.55 683.5,-1146 689.883,-1130.55 696.888,-1114.54 704.072,-1098.69"/>
<polygon fill="none" stroke="midnightblue" points="674.483,-1158.89 674.051,-1169.48 680.99,-1161.47 674.483,-1158.89"/>
</g>
<!-- Node14 -->
<g id="node13" class="node"><title>Node14</title>
<g id="a_node13"><a xlink:href="../../d6/d93/classorg_1_1msrg_1_1raccoon_1_1finitefields_1_1Tables.html" target="_top" xlink:title="{org.msrg.raccoon.finitefields.\lTables\n|+ LOG\l+ EXP\l|+ FFMulFast()\l+ FFInv()\l}">
<polygon fill="none" stroke="black" points="692,-1311.5 692,-1401.5 835,-1401.5 835,-1311.5 692,-1311.5"/>
<text text-anchor="start" x="700" y="-1389.5" font-family="Helvetica,sans-Serif" font-size="10.00">org.msrg.raccoon.finitefields.</text>
<text text-anchor="middle" x="763.5" y="-1378.5" font-family="Helvetica,sans-Serif" font-size="10.00">Tables</text>
<polyline fill="none" stroke="black" points="692,-1371.5 835,-1371.5 "/>
<text text-anchor="start" x="700" y="-1359.5" font-family="Helvetica,sans-Serif" font-size="10.00">+ LOG</text>
<text text-anchor="start" x="700" y="-1348.5" font-family="Helvetica,sans-Serif" font-size="10.00">+ EXP</text>
<polyline fill="none" stroke="black" points="692,-1341.5 835,-1341.5 "/>
<text text-anchor="start" x="700" y="-1329.5" font-family="Helvetica,sans-Serif" font-size="10.00">+ FFMulFast()</text>
<text text-anchor="start" x="700" y="-1318.5" font-family="Helvetica,sans-Serif" font-size="10.00">+ FFInv()</text>
</a>
</g>
</g>
<!-- Node14&#45;&gt;Node12 -->
<g id="edge15" class="edge"><title>Node14&#45;&gt;Node12</title>
<path fill="none" stroke="#404040" d="M763.147,-1311.1C762.893,-1263.19 762.84,-1184.68 764.5,-1117 764.55,-1114.95 764.604,-1112.89 764.66,-1110.81"/>
<polygon fill="none" stroke="#404040" points="764.66,-1110.79 760.838,-1104.68 765.013,-1098.8 768.835,-1104.91 764.66,-1110.79"/>
<text text-anchor="middle" x="784.5" y="-1120" font-family="Helvetica,sans-Serif" font-size="10.00"> #_tables</text>
</g>
<!-- Node15 -->
<g id="node14" class="node"><title>Node15</title>
<polygon fill="none" stroke="#bfbfbf" points="875,-1328 875,-1385 928,-1385 928,-1328 875,-1328"/>
<text text-anchor="middle" x="901.5" y="-1373" font-family="Helvetica,sans-Serif" font-size="10.00">Random</text>
<polyline fill="none" stroke="#bfbfbf" points="875,-1366 928,-1366 "/>
<text text-anchor="middle" x="901.5" y="-1354" font-family="Helvetica,sans-Serif" font-size="10.00"> </text>
<polyline fill="none" stroke="#bfbfbf" points="875,-1347 928,-1347 "/>
<text text-anchor="middle" x="901.5" y="-1335" font-family="Helvetica,sans-Serif" font-size="10.00"> </text>
</g>
<!-- Node15&#45;&gt;Node12 -->
<g id="edge16" class="edge"><title>Node15&#45;&gt;Node12</title>
<path fill="none" stroke="#404040" d="M898.332,-1327.76C892.633,-1286.03 877.972,-1205.67 844.5,-1146 839.116,-1136.4 833.159,-1137.44 827.5,-1128 823.923,-1122.04 820.54,-1115.81 817.344,-1109.43"/>
<polygon fill="none" stroke="#404040" points="817.315,-1109.36 811.119,-1105.67 812.142,-1098.54 818.338,-1102.23 817.315,-1109.36"/>
<text text-anchor="middle" x="857.5" y="-1120" font-family="Helvetica,sans-Serif" font-size="10.00"> ~_RANDOM</text>
</g>
<!-- Node16 -->
<g id="node15" class="node"><title>Node16</title>
<g id="a_node15"><a xlink:href="../../df/da4/classorg_1_1msrg_1_1raccoon_1_1matrix_1_1bulk_1_1BulkMatrix.html" target="_top" xlink:title="{org.msrg.raccoon.matrix.bulk.\lBulkMatrix\n|+ _size\l+ _cols\l+ _rows\l+ _SLICE_LENGTH\l+ _MAX_ROWS_PRINT\l+ _MAX_SLICES_PRINT\l&#45; serialVersionUID\l|+ BulkMatrix()\l+ BulkMatrix()\l+ BulkMatrix()\l+ createEmptyMatrix()\l+ createOneEmtpySlice()\l+ getSliceCount()\l+ slice()\l+ equals()\l+ getByte()\l+ getSize()\l+ add()\l+ toString()\l+ getSizeInByteBuffer()\l+ getContent()\l+ getSlices()\l+ createBulkMatixRandomData()\l+ createBulkMatixIncrementalData()\l# toString()\l}">
<polygon fill="none" stroke="black" points="898.5,-452.5 898.5,-773.5 1072.5,-773.5 1072.5,-452.5 898.5,-452.5"/>
<text text-anchor="start" x="906.5" y="-761.5" font-family="Helvetica,sans-Serif" font-size="10.00">org.msrg.raccoon.matrix.bulk.</text>
<text text-anchor="middle" x="985.5" y="-750.5" font-family="Helvetica,sans-Serif" font-size="10.00">BulkMatrix</text>
<polyline fill="none" stroke="black" points="898.5,-743.5 1072.5,-743.5 "/>
<text text-anchor="start" x="906.5" y="-731.5" font-family="Helvetica,sans-Serif" font-size="10.00">+ _size</text>
<text text-anchor="start" x="906.5" y="-720.5" font-family="Helvetica,sans-Serif" font-size="10.00">+ _cols</text>
<text text-anchor="start" x="906.5" y="-709.5" font-family="Helvetica,sans-Serif" font-size="10.00">+ _rows</text>
<text text-anchor="start" x="906.5" y="-698.5" font-family="Helvetica,sans-Serif" font-size="10.00">+ _SLICE_LENGTH</text>
<text text-anchor="start" x="906.5" y="-687.5" font-family="Helvetica,sans-Serif" font-size="10.00">+ _MAX_ROWS_PRINT</text>
<text text-anchor="start" x="906.5" y="-676.5" font-family="Helvetica,sans-Serif" font-size="10.00">+ _MAX_SLICES_PRINT</text>
<text text-anchor="start" x="906.5" y="-665.5" font-family="Helvetica,sans-Serif" font-size="10.00">&#45; serialVersionUID</text>
<polyline fill="none" stroke="black" points="898.5,-658.5 1072.5,-658.5 "/>
<text text-anchor="start" x="906.5" y="-646.5" font-family="Helvetica,sans-Serif" font-size="10.00">+ BulkMatrix()</text>
<text text-anchor="start" x="906.5" y="-635.5" font-family="Helvetica,sans-Serif" font-size="10.00">+ BulkMatrix()</text>
<text text-anchor="start" x="906.5" y="-624.5" font-family="Helvetica,sans-Serif" font-size="10.00">+ BulkMatrix()</text>
<text text-anchor="start" x="906.5" y="-613.5" font-family="Helvetica,sans-Serif" font-size="10.00">+ createEmptyMatrix()</text>
<text text-anchor="start" x="906.5" y="-602.5" font-family="Helvetica,sans-Serif" font-size="10.00">+ createOneEmtpySlice()</text>
<text text-anchor="start" x="906.5" y="-591.5" font-family="Helvetica,sans-Serif" font-size="10.00">+ getSliceCount()</text>
<text text-anchor="start" x="906.5" y="-580.5" font-family="Helvetica,sans-Serif" font-size="10.00">+ slice()</text>
<text text-anchor="start" x="906.5" y="-569.5" font-family="Helvetica,sans-Serif" font-size="10.00">+ equals()</text>
<text text-anchor="start" x="906.5" y="-558.5" font-family="Helvetica,sans-Serif" font-size="10.00">+ getByte()</text>
<text text-anchor="start" x="906.5" y="-547.5" font-family="Helvetica,sans-Serif" font-size="10.00">+ getSize()</text>
<text text-anchor="start" x="906.5" y="-536.5" font-family="Helvetica,sans-Serif" font-size="10.00">+ add()</text>
<text text-anchor="start" x="906.5" y="-525.5" font-family="Helvetica,sans-Serif" font-size="10.00">+ toString()</text>
<text text-anchor="start" x="906.5" y="-514.5" font-family="Helvetica,sans-Serif" font-size="10.00">+ getSizeInByteBuffer()</text>
<text text-anchor="start" x="906.5" y="-503.5" font-family="Helvetica,sans-Serif" font-size="10.00">+ getContent()</text>
<text text-anchor="start" x="906.5" y="-492.5" font-family="Helvetica,sans-Serif" font-size="10.00">+ getSlices()</text>
<text text-anchor="start" x="906.5" y="-481.5" font-family="Helvetica,sans-Serif" font-size="10.00">+ createBulkMatixRandomData()</text>
<text text-anchor="start" x="906.5" y="-470.5" font-family="Helvetica,sans-Serif" font-size="10.00">+ createBulkMatixIncrementalData()</text>
<text text-anchor="start" x="906.5" y="-459.5" font-family="Helvetica,sans-Serif" font-size="10.00"># toString()</text>
</a>
</g>
</g>
<!-- Node15&#45;&gt;Node16 -->
<g id="edge22" class="edge"><title>Node15&#45;&gt;Node16</title>
<path fill="none" stroke="#404040" d="M898.795,-1327.93C891.673,-1248.43 875.266,-1012.21 910.5,-821 912.656,-809.3 915.396,-797.385 918.547,-785.48"/>
<polygon fill="none" stroke="#404040" points="918.637,-785.155 916.377,-778.307 921.828,-773.587 924.088,-780.435 918.637,-785.155"/>
<text text-anchor="middle" x="940" y="-957.5" font-family="Helvetica,sans-Serif" font-size="10.00"> #_RANDOM</text>
</g>
<!-- Node18 -->
<g id="node17" class="node"><title>Node18</title>
<g id="a_node17"><a xlink:href="../../d6/d6d/classorg_1_1msrg_1_1raccoon_1_1matrix_1_1bulk_1_1SliceMatrix.html" target="_top" xlink:title="{org.msrg.raccoon.matrix.bulk.\lSliceMatrix\n|+ _cols\l+ _MAX_COLS_PRINT\l# _b\l&#45; serialVersionUID\l|+ SliceMatrix()\l+ SliceMatrix()\l+ SliceMatrix()\l+ loadNoCopy()\l+ loadWithCopy()\l+ getContent()\l+ hasContent()\l+ clone()\l+ equals()\l+ getByte()\land 6 more...\l+ createRandomSliceMatrix()\l+ getEmptySliceMatrix()\l}">
<polygon fill="none" stroke="black" points="978.5,-843.5 978.5,-1076.5 1124.5,-1076.5 1124.5,-843.5 978.5,-843.5"/>
<text text-anchor="start" x="986.5" y="-1064.5" font-family="Helvetica,sans-Serif" font-size="10.00">org.msrg.raccoon.matrix.bulk.</text>
<text text-anchor="middle" x="1051.5" y="-1053.5" font-family="Helvetica,sans-Serif" font-size="10.00">SliceMatrix</text>
<polyline fill="none" stroke="black" points="978.5,-1046.5 1124.5,-1046.5 "/>
<text text-anchor="start" x="986.5" y="-1034.5" font-family="Helvetica,sans-Serif" font-size="10.00">+ _cols</text>
<text text-anchor="start" x="986.5" y="-1023.5" font-family="Helvetica,sans-Serif" font-size="10.00">+ _MAX_COLS_PRINT</text>
<text text-anchor="start" x="986.5" y="-1012.5" font-family="Helvetica,sans-Serif" font-size="10.00"># _b</text>
<text text-anchor="start" x="986.5" y="-1001.5" font-family="Helvetica,sans-Serif" font-size="10.00">&#45; serialVersionUID</text>
<polyline fill="none" stroke="black" points="978.5,-994.5 1124.5,-994.5 "/>
<text text-anchor="start" x="986.5" y="-982.5" font-family="Helvetica,sans-Serif" font-size="10.00">+ SliceMatrix()</text>
<text text-anchor="start" x="986.5" y="-971.5" font-family="Helvetica,sans-Serif" font-size="10.00">+ SliceMatrix()</text>
<text text-anchor="start" x="986.5" y="-960.5" font-family="Helvetica,sans-Serif" font-size="10.00">+ SliceMatrix()</text>
<text text-anchor="start" x="986.5" y="-949.5" font-family="Helvetica,sans-Serif" font-size="10.00">+ loadNoCopy()</text>
<text text-anchor="start" x="986.5" y="-938.5" font-family="Helvetica,sans-Serif" font-size="10.00">+ loadWithCopy()</text>
<text text-anchor="start" x="986.5" y="-927.5" font-family="Helvetica,sans-Serif" font-size="10.00">+ getContent()</text>
<text text-anchor="start" x="986.5" y="-916.5" font-family="Helvetica,sans-Serif" font-size="10.00">+ hasContent()</text>
<text text-anchor="start" x="986.5" y="-905.5" font-family="Helvetica,sans-Serif" font-size="10.00">+ clone()</text>
<text text-anchor="start" x="986.5" y="-894.5" font-family="Helvetica,sans-Serif" font-size="10.00">+ equals()</text>
<text text-anchor="start" x="986.5" y="-883.5" font-family="Helvetica,sans-Serif" font-size="10.00">+ getByte()</text>
<text text-anchor="start" x="986.5" y="-872.5" font-family="Helvetica,sans-Serif" font-size="10.00">and 6 more...</text>
<text text-anchor="start" x="986.5" y="-861.5" font-family="Helvetica,sans-Serif" font-size="10.00">+ createRandomSliceMatrix()</text>
<text text-anchor="start" x="986.5" y="-850.5" font-family="Helvetica,sans-Serif" font-size="10.00">+ getEmptySliceMatrix()</text>
</a>
</g>
</g>
<!-- Node15&#45;&gt;Node18 -->
<g id="edge21" class="edge"><title>Node15&#45;&gt;Node18</title>
<path fill="none" stroke="#404040" d="M912.048,-1327.76C930.747,-1278.58 970.793,-1173.26 1003.19,-1088.04"/>
<polygon fill="none" stroke="#404040" points="1003.24,-1087.91 1001.64,-1080.88 1007.51,-1076.7 1009.12,-1083.73 1003.24,-1087.91"/>
<text text-anchor="middle" x="1019" y="-1120" font-family="Helvetica,sans-Serif" font-size="10.00"> #_RANDOM</text>
</g>
<!-- Node16&#45;&gt;Node2 -->
<g id="edge17" class="edge"><title>Node16&#45;&gt;Node2</title>
<path fill="none" stroke="#404040" d="M964.099,-452.341C949.105,-371.662 924.383,-273.97 884.5,-193 871.888,-167.394 852.933,-142.304 835.189,-121.813"/>
<polygon fill="none" stroke="#404040" points="835.106,-121.719 828.133,-119.881 827.149,-112.737 834.121,-114.576 835.106,-121.719"/>
<text text-anchor="middle" x="967.5" y="-296.5" font-family="Helvetica,sans-Serif" font-size="10.00"> +_bm</text>
</g>
<!-- Node17 -->
<g id="node16" class="node"><title>Node17</title>
<polygon fill="none" stroke="#bfbfbf" points="1106,-1328 1106,-1385 1173,-1385 1173,-1328 1106,-1328"/>
<text text-anchor="middle" x="1139.5" y="-1373" font-family="Helvetica,sans-Serif" font-size="10.00">Serializable</text>
<polyline fill="none" stroke="#bfbfbf" points="1106,-1366 1173,-1366 "/>
<text text-anchor="middle" x="1139.5" y="-1354" font-family="Helvetica,sans-Serif" font-size="10.00"> </text>
<polyline fill="none" stroke="#bfbfbf" points="1106,-1347 1173,-1347 "/>
<text text-anchor="middle" x="1139.5" y="-1335" font-family="Helvetica,sans-Serif" font-size="10.00"> </text>
</g>
<!-- Node17&#45;&gt;Node16 -->
<g id="edge18" class="edge"><title>Node17&#45;&gt;Node16</title>
<path fill="none" stroke="midnightblue" d="M1146.59,-1317.97C1161.81,-1228.96 1191.75,-999.18 1133.5,-821 1120.56,-781.423 1097.09,-742.93 1072.59,-710.087"/>
<polygon fill="none" stroke="midnightblue" points="1143.13,-1317.42 1144.85,-1327.87 1150.03,-1318.62 1143.13,-1317.42"/>
</g>
<!-- Node17&#45;&gt;Node18 -->
<g id="edge20" class="edge"><title>Node17&#45;&gt;Node18</title>
<path fill="none" stroke="midnightblue" d="M1131.08,-1317.77C1118.83,-1262.82 1095.54,-1158.42 1077.31,-1076.7"/>
<polygon fill="none" stroke="midnightblue" points="1127.72,-1318.76 1133.31,-1327.76 1134.55,-1317.24 1127.72,-1318.76"/>
</g>
<!-- Node18&#45;&gt;Node16 -->
<g id="edge19" class="edge"><title>Node18&#45;&gt;Node16</title>
<path fill="none" stroke="#404040" d="M1029.34,-843.16C1025.79,-824.593 1022.05,-805.04 1018.31,-785.504"/>
<polygon fill="none" stroke="#404040" points="1018.3,-785.469 1013.25,-780.328 1016.05,-773.683 1021.1,-778.824 1018.3,-785.469"/>
<text text-anchor="middle" x="1039.5" y="-795" font-family="Helvetica,sans-Serif" font-size="10.00"> #_slices</text>
</g>
</g>
</svg>
