<?xml version="1.0" encoding="UTF-8" standalone="no"?>
<!DOCTYPE svg PUBLIC "-//W3C//DTD SVG 1.1//EN"
 "http://www.w3.org/Graphics/SVG/1.1/DTD/svg11.dtd">
<!-- Generated by graphviz version 2.38.0 (20140413.2041)
 -->
<!-- Title: org.msrg.raccoon.engine.task.sequential.MultiplyInverseMultiplyEqual_SequentialCodingTask.codingFinished Pages: 1 -->
<svg width="883pt" height="519pt"
 viewBox="0.00 0.00 883.00 519.00" xmlns="http://www.w3.org/2000/svg" xmlns:xlink="http://www.w3.org/1999/xlink">
<g id="graph0" class="graph" transform="scale(1 1) rotate(0) translate(4 515)">
<title>org.msrg.raccoon.engine.task.sequential.MultiplyInverseMultiplyEqual_SequentialCodingTask.codingFinished</title>
<!-- Node1 -->
<g id="node1" class="node"><title>Node1</title>
<polygon fill="#bfbfbf" stroke="black" points="0,-384 0,-425 196,-425 196,-384 0,-384"/>
<text text-anchor="start" x="8" y="-413" font-family="Helvetica,sans-Serif" font-size="10.00">org.msrg.raccoon.engine.task.sequential.</text>
<text text-anchor="start" x="8" y="-402" font-family="Helvetica,sans-Serif" font-size="10.00">MultiplyInverseMultiplyEqual_Sequential</text>
<text text-anchor="middle" x="98" y="-391" font-family="Helvetica,sans-Serif" font-size="10.00">CodingTask.codingFinished</text>
</g>
<!-- Node2 -->
<g id="node2" class="node"><title>Node2</title>
<g id="a_node2"><a xlink:href="../../d6/d78/classorg_1_1msrg_1_1raccoon_1_1engine_1_1task_1_1sequential_1_1SequentialCodingTask_a144e5086b6be72e0c13869c563c7189c.html#a144e5086b6be72e0c13869c563c7189c" target="_top" xlink:title="org.msrg.raccoon.engine.task.sequential.\lSequentialCodingTask.finished">
<polygon fill="none" stroke="black" points="233.5,-438.5 233.5,-468.5 429.5,-468.5 429.5,-438.5 233.5,-438.5"/>
<text text-anchor="start" x="241.5" y="-456.5" font-family="Helvetica,sans-Serif" font-size="10.00">org.msrg.raccoon.engine.task.sequential.</text>
<text text-anchor="middle" x="331.5" y="-445.5" font-family="Helvetica,sans-Serif" font-size="10.00">SequentialCodingTask.finished</text>
</a>
</g>
</g>
<!-- Node1&#45;&gt;Node2 -->
<g id="edge1" class="edge"><title>Node1&#45;&gt;Node2</title>
<path fill="none" stroke="midnightblue" d="M196.171,-425.067C213.961,-428.833 232.354,-432.726 249.606,-436.378"/>
<polygon fill="midnightblue" stroke="midnightblue" points="249.111,-439.851 259.619,-438.497 250.561,-433.002 249.111,-439.851"/>
</g>
<!-- Node3 -->
<g id="node3" class="node"><title>Node3</title>
<g id="a_node3"><a xlink:href="../../d6/d78/classorg_1_1msrg_1_1raccoon_1_1engine_1_1task_1_1sequential_1_1SequentialCodingTask_a20507db4cd28c24453172612ae32afe5.html#a20507db4cd28c24453172612ae32afe5" target="_top" xlink:title="org.msrg.raccoon.engine.task.sequential.\lSequentialCodingTask.reachedFinalStage">
<polygon fill="none" stroke="black" points="232,-389.5 232,-419.5 431,-419.5 431,-389.5 232,-389.5"/>
<text text-anchor="start" x="240" y="-407.5" font-family="Helvetica,sans-Serif" font-size="10.00">org.msrg.raccoon.engine.task.sequential.</text>
<text text-anchor="middle" x="331.5" y="-396.5" font-family="Helvetica,sans-Serif" font-size="10.00">SequentialCodingTask.reachedFinalStage</text>
</a>
</g>
</g>
<!-- Node1&#45;&gt;Node3 -->
<g id="edge2" class="edge"><title>Node1&#45;&gt;Node3</title>
<path fill="none" stroke="midnightblue" d="M196.171,-404.5C204.528,-404.5 213.017,-404.5 221.459,-404.5"/>
<polygon fill="midnightblue" stroke="midnightblue" points="221.721,-408 231.721,-404.5 221.721,-401 221.721,-408"/>
</g>
<!-- Node5 -->
<g id="node5" class="node"><title>Node5</title>
<g id="a_node5"><a xlink:href="../../d4/d5e/classorg_1_1msrg_1_1raccoon_1_1engine_1_1task_1_1sequential_1_1MultiplyInverseMultiplyEqual__SequentialCodingTask_a8870d11208f9be305c378f932d7abaa0.html#a8870d11208f9be305c378f932d7abaa0" target="_top" xlink:title="org.msrg.raccoon.engine.task.sequential.\lMultiplyInverseMultiplyEqual_Sequential\lCodingTask.runStagePrivately">
<polygon fill="none" stroke="black" points="233.5,-240 233.5,-281 429.5,-281 429.5,-240 233.5,-240"/>
<text text-anchor="start" x="241.5" y="-269" font-family="Helvetica,sans-Serif" font-size="10.00">org.msrg.raccoon.engine.task.sequential.</text>
<text text-anchor="start" x="241.5" y="-258" font-family="Helvetica,sans-Serif" font-size="10.00">MultiplyInverseMultiplyEqual_Sequential</text>
<text text-anchor="middle" x="331.5" y="-247" font-family="Helvetica,sans-Serif" font-size="10.00">CodingTask.runStagePrivately</text>
</a>
</g>
</g>
<!-- Node1&#45;&gt;Node5 -->
<g id="edge4" class="edge"><title>Node1&#45;&gt;Node5</title>
<path fill="none" stroke="midnightblue" d="M132.168,-383.868C173.426,-358.205 243.891,-314.373 288.774,-286.455"/>
<polygon fill="midnightblue" stroke="midnightblue" points="290.751,-289.347 297.393,-281.093 287.053,-283.403 290.751,-289.347"/>
</g>
<!-- Node4 -->
<g id="node4" class="node"><title>Node4</title>
<g id="a_node4"><a xlink:href="../../d6/d78/classorg_1_1msrg_1_1raccoon_1_1engine_1_1task_1_1sequential_1_1SequentialCodingTask_aac71a63fa055d799d050d072c04e5eec.html#aac71a63fa055d799d050d072c04e5eec" target="_top" xlink:title="org.msrg.raccoon.engine.task.sequential.\lSequentialCodingTask.getFinalStage">
<polygon fill="none" stroke="black" points="467,-480.5 467,-510.5 663,-510.5 663,-480.5 467,-480.5"/>
<text text-anchor="start" x="475" y="-498.5" font-family="Helvetica,sans-Serif" font-size="10.00">org.msrg.raccoon.engine.task.sequential.</text>
<text text-anchor="middle" x="565" y="-487.5" font-family="Helvetica,sans-Serif" font-size="10.00">SequentialCodingTask.getFinalStage</text>
</a>
</g>
</g>
<!-- Node3&#45;&gt;Node4 -->
<g id="edge3" class="edge"><title>Node3&#45;&gt;Node4</title>
<path fill="none" stroke="midnightblue" d="M410.717,-419.512C417.822,-422.295 424.704,-425.593 431,-429.5 451.89,-442.463 446.071,-458.6 467,-471.5 469.806,-473.229 472.73,-474.834 475.738,-476.324"/>
<polygon fill="midnightblue" stroke="midnightblue" points="474.428,-479.572 484.986,-480.454 477.283,-473.18 474.428,-479.572"/>
</g>
<!-- Node6 -->
<g id="node6" class="node"><title>Node6</title>
<g id="a_node6"><a xlink:href="../../dd/dff/interfaceorg_1_1msrg_1_1raccoon_1_1engine_1_1ICodingEngine_addf00ef4ea73a36f94342e34fdebf456.html#addf00ef4ea73a36f94342e34fdebf456" target="_top" xlink:title="org.msrg.raccoon.engine.\lICodingEngine.checkEquality">
<polygon fill="none" stroke="black" points="492.5,-431.5 492.5,-461.5 637.5,-461.5 637.5,-431.5 492.5,-431.5"/>
<text text-anchor="start" x="500.5" y="-449.5" font-family="Helvetica,sans-Serif" font-size="10.00">org.msrg.raccoon.engine.</text>
<text text-anchor="middle" x="565" y="-438.5" font-family="Helvetica,sans-Serif" font-size="10.00">ICodingEngine.checkEquality</text>
</a>
</g>
</g>
<!-- Node5&#45;&gt;Node6 -->
<g id="edge5" class="edge"><title>Node5&#45;&gt;Node6</title>
<path fill="none" stroke="midnightblue" d="M349.493,-281.309C384.805,-324.501 463.168,-420.096 467,-422.5 471.99,-425.63 477.362,-428.352 482.928,-430.719"/>
<polygon fill="midnightblue" stroke="midnightblue" points="481.855,-434.056 492.444,-434.376 484.366,-427.522 481.855,-434.056"/>
</g>
<!-- Node7 -->
<g id="node7" class="node"><title>Node7</title>
<g id="a_node7"><a xlink:href="../../d6/d78/classorg_1_1msrg_1_1raccoon_1_1engine_1_1task_1_1sequential_1_1SequentialCodingTask_aa6775297516c20f0f7a5d691376b4937.html#aa6775297516c20f0f7a5d691376b4937" target="_top" xlink:title="org.msrg.raccoon.engine.task.sequential.\lSequentialCodingTask.failed">
<polygon fill="none" stroke="black" points="467,-382.5 467,-412.5 663,-412.5 663,-382.5 467,-382.5"/>
<text text-anchor="start" x="475" y="-400.5" font-family="Helvetica,sans-Serif" font-size="10.00">org.msrg.raccoon.engine.task.sequential.</text>
<text text-anchor="middle" x="565" y="-389.5" font-family="Helvetica,sans-Serif" font-size="10.00">SequentialCodingTask.failed</text>
</a>
</g>
</g>
<!-- Node5&#45;&gt;Node7 -->
<g id="edge6" class="edge"><title>Node5&#45;&gt;Node7</title>
<path fill="none" stroke="midnightblue" d="M351.339,-281.331C375.603,-306.88 420.247,-349.713 467,-373.5 470.783,-375.425 474.73,-377.201 478.773,-378.839"/>
<polygon fill="midnightblue" stroke="midnightblue" points="477.761,-382.197 488.353,-382.417 480.21,-375.64 477.761,-382.197"/>
</g>
<!-- Node8 -->
<g id="node8" class="node"><title>Node8</title>
<g id="a_node8"><a xlink:href="../../db/d63/classorg_1_1msrg_1_1raccoon_1_1engine_1_1task_1_1result_1_1Equals__CodingResult_af1abb9e1bfe895f261cd1c89334163df.html#af1abb9e1bfe895f261cd1c89334163df" target="_top" xlink:title="org.msrg.raccoon.engine.task.result.\lEquals_CodingResult.getResult">
<polygon fill="none" stroke="black" points="477,-333.5 477,-363.5 653,-363.5 653,-333.5 477,-333.5"/>
<text text-anchor="start" x="485" y="-351.5" font-family="Helvetica,sans-Serif" font-size="10.00">org.msrg.raccoon.engine.task.result.</text>
<text text-anchor="middle" x="565" y="-340.5" font-family="Helvetica,sans-Serif" font-size="10.00">Equals_CodingResult.getResult</text>
</a>
</g>
</g>
<!-- Node5&#45;&gt;Node8 -->
<g id="edge7" class="edge"><title>Node5&#45;&gt;Node8</title>
<path fill="none" stroke="midnightblue" d="M376.848,-281.048C402.839,-292.731 436.464,-307.231 467,-318.5 478.24,-322.648 490.349,-326.708 502.074,-330.435"/>
<polygon fill="midnightblue" stroke="midnightblue" points="501.215,-333.834 511.804,-333.481 503.307,-327.153 501.215,-333.834"/>
</g>
<!-- Node9 -->
<g id="node9" class="node"><title>Node9</title>
<g id="a_node9"><a xlink:href="../../df/d3e/classorg_1_1msrg_1_1raccoon_1_1engine_1_1task_1_1result_1_1CodingResult_a3d4ac3e6ad6ad1a0bbbbc8f345092652.html#a3d4ac3e6ad6ad1a0bbbbc8f345092652" target="_top" xlink:title="org.msrg.raccoon.engine.task.result.\lCodingResult.isFinished">
<polygon fill="none" stroke="black" points="699,-267.5 699,-297.5 875,-297.5 875,-267.5 699,-267.5"/>
<text text-anchor="start" x="707" y="-285.5" font-family="Helvetica,sans-Serif" font-size="10.00">org.msrg.raccoon.engine.task.result.</text>
<text text-anchor="middle" x="787" y="-274.5" font-family="Helvetica,sans-Serif" font-size="10.00">CodingResult.isFinished</text>
</a>
</g>
</g>
<!-- Node5&#45;&gt;Node9 -->
<g id="edge15" class="edge"><title>Node5&#45;&gt;Node9</title>
<path fill="none" stroke="midnightblue" d="M429.543,-280.723C442.097,-282.695 454.82,-284.378 467,-285.5 553.744,-293.493 575.895,-286.562 663,-285.5 671.367,-285.398 680.053,-285.257 688.765,-285.091"/>
<polygon fill="midnightblue" stroke="midnightblue" points="689.058,-288.586 698.986,-284.886 688.918,-281.588 689.058,-288.586"/>
</g>
<!-- Node10 -->
<g id="node10" class="node"><title>Node10</title>
<g id="a_node10"><a xlink:href="../../d6/db6/classorg_1_1msrg_1_1raccoon_1_1engine_1_1task_1_1result_1_1BulkMatrix__CodingResult_ad453ea60e42b1efc3dbeac57f77f09c2.html#ad453ea60e42b1efc3dbeac57f77f09c2" target="_top" xlink:title="org.msrg.raccoon.engine.task.result.\lBulkMatrix_CodingResult.getResult">
<polygon fill="none" stroke="black" points="477,-245.5 477,-275.5 653,-275.5 653,-245.5 477,-245.5"/>
<text text-anchor="start" x="485" y="-263.5" font-family="Helvetica,sans-Serif" font-size="10.00">org.msrg.raccoon.engine.task.result.</text>
<text text-anchor="middle" x="565" y="-252.5" font-family="Helvetica,sans-Serif" font-size="10.00">BulkMatrix_CodingResult.getResult</text>
</a>
</g>
</g>
<!-- Node5&#45;&gt;Node10 -->
<g id="edge9" class="edge"><title>Node5&#45;&gt;Node10</title>
<path fill="none" stroke="midnightblue" d="M429.671,-260.5C441.851,-260.5 454.313,-260.5 466.498,-260.5"/>
<polygon fill="midnightblue" stroke="midnightblue" points="466.656,-264 476.656,-260.5 466.656,-257 466.656,-264"/>
</g>
<!-- Node11 -->
<g id="node11" class="node"><title>Node11</title>
<g id="a_node11"><a xlink:href="../../d2/da1/classorg_1_1msrg_1_1raccoon_1_1engine_1_1task_1_1result_1_1ByteMatrix__CodingResult_aeb24ac28072ad6781d801502944a8387.html#aeb24ac28072ad6781d801502944a8387" target="_top" xlink:title="org.msrg.raccoon.engine.task.result.\lByteMatrix_CodingResult.getResult">
<polygon fill="none" stroke="black" points="477,-196.5 477,-226.5 653,-226.5 653,-196.5 477,-196.5"/>
<text text-anchor="start" x="485" y="-214.5" font-family="Helvetica,sans-Serif" font-size="10.00">org.msrg.raccoon.engine.task.result.</text>
<text text-anchor="middle" x="565" y="-203.5" font-family="Helvetica,sans-Serif" font-size="10.00">ByteMatrix_CodingResult.getResult</text>
</a>
</g>
</g>
<!-- Node5&#45;&gt;Node11 -->
<g id="edge11" class="edge"><title>Node5&#45;&gt;Node11</title>
<path fill="none" stroke="midnightblue" d="M429.671,-239.933C447.461,-236.167 465.854,-232.274 483.106,-228.622"/>
<polygon fill="midnightblue" stroke="midnightblue" points="484.061,-231.998 493.119,-226.503 482.611,-225.149 484.061,-231.998"/>
</g>
<!-- Node12 -->
<g id="node12" class="node"><title>Node12</title>
<g id="a_node12"><a xlink:href="../../dd/dff/interfaceorg_1_1msrg_1_1raccoon_1_1engine_1_1ICodingEngine_a8646f6b2d3d418452cba3e9064f7f61e.html#a8646f6b2d3d418452cba3e9064f7f61e" target="_top" xlink:title="org.msrg.raccoon.engine.\lICodingEngine.inverse">
<polygon fill="none" stroke="black" points="501.5,-147.5 501.5,-177.5 628.5,-177.5 628.5,-147.5 501.5,-147.5"/>
<text text-anchor="start" x="509.5" y="-165.5" font-family="Helvetica,sans-Serif" font-size="10.00">org.msrg.raccoon.engine.</text>
<text text-anchor="middle" x="565" y="-154.5" font-family="Helvetica,sans-Serif" font-size="10.00">ICodingEngine.inverse</text>
</a>
</g>
</g>
<!-- Node5&#45;&gt;Node12 -->
<g id="edge13" class="edge"><title>Node5&#45;&gt;Node12</title>
<path fill="none" stroke="midnightblue" d="M365.119,-239.842C391.702,-223.744 430.655,-201.796 467,-187.5 474.852,-184.412 483.211,-181.596 491.604,-179.061"/>
<polygon fill="midnightblue" stroke="midnightblue" points="492.81,-182.355 501.443,-176.213 490.864,-175.631 492.81,-182.355"/>
</g>
<!-- Node13 -->
<g id="node13" class="node"><title>Node13</title>
<g id="a_node13"><a xlink:href="../../df/d3e/classorg_1_1msrg_1_1raccoon_1_1engine_1_1task_1_1result_1_1CodingResult_af346f009892c564aa7b2a6751914b154.html#af346f009892c564aa7b2a6751914b154" target="_top" xlink:title="org.msrg.raccoon.engine.task.result.\lCodingResult.isFailed">
<polygon fill="none" stroke="black" points="477,-98.5 477,-128.5 653,-128.5 653,-98.5 477,-98.5"/>
<text text-anchor="start" x="485" y="-116.5" font-family="Helvetica,sans-Serif" font-size="10.00">org.msrg.raccoon.engine.task.result.</text>
<text text-anchor="middle" x="565" y="-105.5" font-family="Helvetica,sans-Serif" font-size="10.00">CodingResult.isFailed</text>
</a>
</g>
</g>
<!-- Node5&#45;&gt;Node13 -->
<g id="edge14" class="edge"><title>Node5&#45;&gt;Node13</title>
<path fill="none" stroke="midnightblue" d="M349.387,-239.918C372.903,-212.621 418.161,-164.832 467,-138.5 471.272,-136.197 475.765,-134.099 480.38,-132.188"/>
<polygon fill="midnightblue" stroke="midnightblue" points="481.896,-135.357 489.994,-128.525 479.403,-128.815 481.896,-135.357"/>
</g>
<!-- Node14 -->
<g id="node14" class="node"><title>Node14</title>
<g id="a_node14"><a xlink:href="../../dd/dff/interfaceorg_1_1msrg_1_1raccoon_1_1engine_1_1ICodingEngine_a0b4cebd680a0fa0a6d0fb420fec4bd52.html#a0b4cebd680a0fa0a6d0fb420fec4bd52" target="_top" xlink:title="org.msrg.raccoon.engine.\lICodingEngine.multiply">
<polygon fill="none" stroke="black" points="501.5,-49.5 501.5,-79.5 628.5,-79.5 628.5,-49.5 501.5,-49.5"/>
<text text-anchor="start" x="509.5" y="-67.5" font-family="Helvetica,sans-Serif" font-size="10.00">org.msrg.raccoon.engine.</text>
<text text-anchor="middle" x="565" y="-56.5" font-family="Helvetica,sans-Serif" font-size="10.00">ICodingEngine.multiply</text>
</a>
</g>
</g>
<!-- Node5&#45;&gt;Node14 -->
<g id="edge16" class="edge"><title>Node5&#45;&gt;Node14</title>
<path fill="none" stroke="midnightblue" d="M342.879,-239.798C362.162,-203.524 407.063,-128.622 467,-89.5 474.593,-84.5438 483.117,-80.5695 491.878,-77.3826"/>
<polygon fill="midnightblue" stroke="midnightblue" points="493.046,-80.683 501.444,-74.2243 490.851,-74.0359 493.046,-80.683"/>
</g>
<!-- Node15 -->
<g id="node15" class="node"><title>Node15</title>
<g id="a_node15"><a xlink:href="../../d6/d78/classorg_1_1msrg_1_1raccoon_1_1engine_1_1task_1_1sequential_1_1SequentialCodingTask_a9fee0e39302d3e057700653cea01cfe4.html#a9fee0e39302d3e057700653cea01cfe4" target="_top" xlink:title="org.msrg.raccoon.engine.task.sequential.\lSequentialCodingTask.setCurrentStage">
<polygon fill="none" stroke="black" points="467,-0.5 467,-30.5 663,-30.5 663,-0.5 467,-0.5"/>
<text text-anchor="start" x="475" y="-18.5" font-family="Helvetica,sans-Serif" font-size="10.00">org.msrg.raccoon.engine.task.sequential.</text>
<text text-anchor="middle" x="565" y="-7.5" font-family="Helvetica,sans-Serif" font-size="10.00">SequentialCodingTask.setCurrentStage</text>
</a>
</g>
</g>
<!-- Node5&#45;&gt;Node15 -->
<g id="edge17" class="edge"><title>Node5&#45;&gt;Node15</title>
<path fill="none" stroke="midnightblue" d="M339.045,-239.713C354.059,-195.552 395.315,-92.1317 467,-39.5 468.875,-38.1236 470.819,-36.8255 472.821,-35.6014"/>
<polygon fill="midnightblue" stroke="midnightblue" points="474.783,-38.5197 481.925,-30.6937 471.461,-32.3579 474.783,-38.5197"/>
</g>
<!-- Node8&#45;&gt;Node9 -->
<g id="edge8" class="edge"><title>Node8&#45;&gt;Node9</title>
<path fill="none" stroke="midnightblue" d="M616.197,-333.441C648.746,-323.676 691.333,-310.9 725.714,-300.586"/>
<polygon fill="midnightblue" stroke="midnightblue" points="727.066,-303.834 735.639,-297.608 725.055,-297.13 727.066,-303.834"/>
</g>
<!-- Node10&#45;&gt;Node9 -->
<g id="edge10" class="edge"><title>Node10&#45;&gt;Node9</title>
<path fill="none" stroke="midnightblue" d="M653.266,-269.227C664.864,-270.386 676.815,-271.581 688.572,-272.757"/>
<polygon fill="midnightblue" stroke="midnightblue" points="688.541,-276.271 698.84,-273.784 689.238,-269.306 688.541,-276.271"/>
</g>
<!-- Node11&#45;&gt;Node9 -->
<g id="edge12" class="edge"><title>Node11&#45;&gt;Node9</title>
<path fill="none" stroke="midnightblue" d="M628.372,-226.537C639.946,-229.62 651.886,-233 663,-236.5 688.592,-244.559 716.649,-254.93 739.495,-263.784"/>
<polygon fill="midnightblue" stroke="midnightblue" points="738.357,-267.097 748.945,-267.474 740.904,-260.576 738.357,-267.097"/>
</g>
</g>
</svg>
