<?xml version="1.0" encoding="UTF-8" standalone="no"?>
<!DOCTYPE svg PUBLIC "-//W3C//DTD SVG 1.1//EN"
 "http://www.w3.org/Graphics/SVG/1.1/DTD/svg11.dtd">
<!-- Generated by graphviz version 2.38.0 (20140413.2041)
 -->
<!-- Title: org.msrg.raccoon.engine.task.sequential.MultiplyInverseMultiplyEqual_SequentialCodingTask.runStagePrivately Pages: 1 -->
<svg width="648pt" height="470pt"
 viewBox="0.00 0.00 648.00 470.00" xmlns="http://www.w3.org/2000/svg" xmlns:xlink="http://www.w3.org/1999/xlink">
<g id="graph0" class="graph" transform="scale(1 1) rotate(0) translate(4 466)">
<title>org.msrg.raccoon.engine.task.sequential.MultiplyInverseMultiplyEqual_SequentialCodingTask.runStagePrivately</title>
<!-- Node0 -->
<g id="node1" class="node"><title>Node0</title>
<polygon fill="#bfbfbf" stroke="black" points="0,-215 0,-256 196,-256 196,-215 0,-215"/>
<text text-anchor="start" x="8" y="-244" font-family="Helvetica,sans-Serif" font-size="10.00">org.msrg.raccoon.engine.task.sequential.</text>
<text text-anchor="start" x="8" y="-233" font-family="Helvetica,sans-Serif" font-size="10.00">MultiplyInverseMultiplyEqual_Sequential</text>
<text text-anchor="middle" x="98" y="-222" font-family="Helvetica,sans-Serif" font-size="10.00">CodingTask.runStagePrivately</text>
</g>
<!-- Node1 -->
<g id="node2" class="node"><title>Node1</title>
<g id="a_node2"><a xlink:href="../../dd/dff/interfaceorg_1_1msrg_1_1raccoon_1_1engine_1_1ICodingEngine_addf00ef4ea73a36f94342e34fdebf456.html#addf00ef4ea73a36f94342e34fdebf456" target="_top" xlink:title="org.msrg.raccoon.engine.\lICodingEngine.checkEquality">
<polygon fill="none" stroke="black" points="257.5,-431.5 257.5,-461.5 402.5,-461.5 402.5,-431.5 257.5,-431.5"/>
<text text-anchor="start" x="265.5" y="-449.5" font-family="Helvetica,sans-Serif" font-size="10.00">org.msrg.raccoon.engine.</text>
<text text-anchor="middle" x="330" y="-438.5" font-family="Helvetica,sans-Serif" font-size="10.00">ICodingEngine.checkEquality</text>
</a>
</g>
</g>
<!-- Node0&#45;&gt;Node1 -->
<g id="edge1" class="edge"><title>Node0&#45;&gt;Node1</title>
<path fill="none" stroke="midnightblue" d="M107.651,-256.041C125.12,-294.922 168.435,-379.24 232,-422.5 236.915,-425.845 242.253,-428.725 247.812,-431.204"/>
<polygon fill="midnightblue" stroke="midnightblue" points="246.757,-434.551 257.341,-435.009 249.352,-428.05 246.757,-434.551"/>
</g>
<!-- Node2 -->
<g id="node3" class="node"><title>Node2</title>
<g id="a_node3"><a xlink:href="../../d6/d78/classorg_1_1msrg_1_1raccoon_1_1engine_1_1task_1_1sequential_1_1SequentialCodingTask_aa6775297516c20f0f7a5d691376b4937.html#aa6775297516c20f0f7a5d691376b4937" target="_top" xlink:title="org.msrg.raccoon.engine.task.sequential.\lSequentialCodingTask.failed">
<polygon fill="none" stroke="black" points="232,-382.5 232,-412.5 428,-412.5 428,-382.5 232,-382.5"/>
<text text-anchor="start" x="240" y="-400.5" font-family="Helvetica,sans-Serif" font-size="10.00">org.msrg.raccoon.engine.task.sequential.</text>
<text text-anchor="middle" x="330" y="-389.5" font-family="Helvetica,sans-Serif" font-size="10.00">SequentialCodingTask.failed</text>
</a>
</g>
</g>
<!-- Node0&#45;&gt;Node2 -->
<g id="edge2" class="edge"><title>Node0&#45;&gt;Node2</title>
<path fill="none" stroke="midnightblue" d="M112.944,-256.093C134.698,-286.57 179.687,-343.325 232,-373.5 235.193,-375.342 238.525,-377.043 241.95,-378.615"/>
<polygon fill="midnightblue" stroke="midnightblue" points="240.626,-381.855 251.202,-382.48 243.324,-375.396 240.626,-381.855"/>
</g>
<!-- Node3 -->
<g id="node4" class="node"><title>Node3</title>
<g id="a_node4"><a xlink:href="../../db/d63/classorg_1_1msrg_1_1raccoon_1_1engine_1_1task_1_1result_1_1Equals__CodingResult_af1abb9e1bfe895f261cd1c89334163df.html#af1abb9e1bfe895f261cd1c89334163df" target="_top" xlink:title="org.msrg.raccoon.engine.task.result.\lEquals_CodingResult.getResult">
<polygon fill="none" stroke="black" points="242,-333.5 242,-363.5 418,-363.5 418,-333.5 242,-333.5"/>
<text text-anchor="start" x="250" y="-351.5" font-family="Helvetica,sans-Serif" font-size="10.00">org.msrg.raccoon.engine.task.result.</text>
<text text-anchor="middle" x="330" y="-340.5" font-family="Helvetica,sans-Serif" font-size="10.00">Equals_CodingResult.getResult</text>
</a>
</g>
</g>
<!-- Node0&#45;&gt;Node3 -->
<g id="edge3" class="edge"><title>Node0&#45;&gt;Node3</title>
<path fill="none" stroke="midnightblue" d="M127.109,-256.049C153.233,-274.4 193.758,-301.011 232,-318.5 241.475,-322.833 251.747,-326.765 261.941,-330.25"/>
<polygon fill="midnightblue" stroke="midnightblue" points="261.07,-333.648 271.663,-333.452 263.26,-326.999 261.07,-333.648"/>
</g>
<!-- Node4 -->
<g id="node5" class="node"><title>Node4</title>
<g id="a_node5"><a xlink:href="../../df/d3e/classorg_1_1msrg_1_1raccoon_1_1engine_1_1task_1_1result_1_1CodingResult_a3d4ac3e6ad6ad1a0bbbbc8f345092652.html#a3d4ac3e6ad6ad1a0bbbbc8f345092652" target="_top" xlink:title="org.msrg.raccoon.engine.task.result.\lCodingResult.isFinished">
<polygon fill="none" stroke="black" points="464,-267.5 464,-297.5 640,-297.5 640,-267.5 464,-267.5"/>
<text text-anchor="start" x="472" y="-285.5" font-family="Helvetica,sans-Serif" font-size="10.00">org.msrg.raccoon.engine.task.result.</text>
<text text-anchor="middle" x="552" y="-274.5" font-family="Helvetica,sans-Serif" font-size="10.00">CodingResult.isFinished</text>
</a>
</g>
</g>
<!-- Node0&#45;&gt;Node4 -->
<g id="edge11" class="edge"><title>Node0&#45;&gt;Node4</title>
<path fill="none" stroke="midnightblue" d="M141.605,-256.005C167.164,-267.158 200.691,-279.809 232,-285.5 305.578,-298.874 390.285,-297.305 453.911,-292.836"/>
<polygon fill="midnightblue" stroke="midnightblue" points="454.222,-296.322 463.937,-292.096 453.707,-289.342 454.222,-296.322"/>
</g>
<!-- Node5 -->
<g id="node6" class="node"><title>Node5</title>
<g id="a_node6"><a xlink:href="../../d6/db6/classorg_1_1msrg_1_1raccoon_1_1engine_1_1task_1_1result_1_1BulkMatrix__CodingResult_ad453ea60e42b1efc3dbeac57f77f09c2.html#ad453ea60e42b1efc3dbeac57f77f09c2" target="_top" xlink:title="org.msrg.raccoon.engine.task.result.\lBulkMatrix_CodingResult.getResult">
<polygon fill="none" stroke="black" points="242,-245.5 242,-275.5 418,-275.5 418,-245.5 242,-245.5"/>
<text text-anchor="start" x="250" y="-263.5" font-family="Helvetica,sans-Serif" font-size="10.00">org.msrg.raccoon.engine.task.result.</text>
<text text-anchor="middle" x="330" y="-252.5" font-family="Helvetica,sans-Serif" font-size="10.00">BulkMatrix_CodingResult.getResult</text>
</a>
</g>
</g>
<!-- Node0&#45;&gt;Node5 -->
<g id="edge5" class="edge"><title>Node0&#45;&gt;Node5</title>
<path fill="none" stroke="midnightblue" d="M196.207,-246.066C207.966,-247.344 219.978,-248.65 231.737,-249.928"/>
<polygon fill="midnightblue" stroke="midnightblue" points="231.673,-253.442 241.993,-251.043 232.43,-246.483 231.673,-253.442"/>
</g>
<!-- Node6 -->
<g id="node7" class="node"><title>Node6</title>
<g id="a_node7"><a xlink:href="../../d2/da1/classorg_1_1msrg_1_1raccoon_1_1engine_1_1task_1_1result_1_1ByteMatrix__CodingResult_aeb24ac28072ad6781d801502944a8387.html#aeb24ac28072ad6781d801502944a8387" target="_top" xlink:title="org.msrg.raccoon.engine.task.result.\lByteMatrix_CodingResult.getResult">
<polygon fill="none" stroke="black" points="242,-196.5 242,-226.5 418,-226.5 418,-196.5 242,-196.5"/>
<text text-anchor="start" x="250" y="-214.5" font-family="Helvetica,sans-Serif" font-size="10.00">org.msrg.raccoon.engine.task.result.</text>
<text text-anchor="middle" x="330" y="-203.5" font-family="Helvetica,sans-Serif" font-size="10.00">ByteMatrix_CodingResult.getResult</text>
</a>
</g>
</g>
<!-- Node0&#45;&gt;Node6 -->
<g id="edge7" class="edge"><title>Node0&#45;&gt;Node6</title>
<path fill="none" stroke="midnightblue" d="M196.207,-225.357C207.966,-224.13 219.978,-222.876 231.737,-221.649"/>
<polygon fill="midnightblue" stroke="midnightblue" points="232.41,-225.098 241.993,-220.579 231.684,-218.136 232.41,-225.098"/>
</g>
<!-- Node7 -->
<g id="node8" class="node"><title>Node7</title>
<g id="a_node8"><a xlink:href="../../dd/dff/interfaceorg_1_1msrg_1_1raccoon_1_1engine_1_1ICodingEngine_a8646f6b2d3d418452cba3e9064f7f61e.html#a8646f6b2d3d418452cba3e9064f7f61e" target="_top" xlink:title="org.msrg.raccoon.engine.\lICodingEngine.inverse">
<polygon fill="none" stroke="black" points="266.5,-147.5 266.5,-177.5 393.5,-177.5 393.5,-147.5 266.5,-147.5"/>
<text text-anchor="start" x="274.5" y="-165.5" font-family="Helvetica,sans-Serif" font-size="10.00">org.msrg.raccoon.engine.</text>
<text text-anchor="middle" x="330" y="-154.5" font-family="Helvetica,sans-Serif" font-size="10.00">ICodingEngine.inverse</text>
</a>
</g>
</g>
<!-- Node0&#45;&gt;Node7 -->
<g id="edge9" class="edge"><title>Node0&#45;&gt;Node7</title>
<path fill="none" stroke="midnightblue" d="M152.324,-214.957C176.474,-205.99 205.494,-195.679 232,-187.5 240.21,-184.967 248.864,-182.48 257.485,-180.116"/>
<polygon fill="midnightblue" stroke="midnightblue" points="258.434,-183.486 267.178,-177.504 256.612,-176.727 258.434,-183.486"/>
</g>
<!-- Node8 -->
<g id="node9" class="node"><title>Node8</title>
<g id="a_node9"><a xlink:href="../../df/d3e/classorg_1_1msrg_1_1raccoon_1_1engine_1_1task_1_1result_1_1CodingResult_af346f009892c564aa7b2a6751914b154.html#af346f009892c564aa7b2a6751914b154" target="_top" xlink:title="org.msrg.raccoon.engine.task.result.\lCodingResult.isFailed">
<polygon fill="none" stroke="black" points="242,-98.5 242,-128.5 418,-128.5 418,-98.5 242,-98.5"/>
<text text-anchor="start" x="250" y="-116.5" font-family="Helvetica,sans-Serif" font-size="10.00">org.msrg.raccoon.engine.task.result.</text>
<text text-anchor="middle" x="330" y="-105.5" font-family="Helvetica,sans-Serif" font-size="10.00">CodingResult.isFailed</text>
</a>
</g>
</g>
<!-- Node0&#45;&gt;Node8 -->
<g id="edge10" class="edge"><title>Node0&#45;&gt;Node8</title>
<path fill="none" stroke="midnightblue" d="M121.764,-214.676C146.955,-192.694 189.619,-158.514 232,-138.5 237.188,-136.05 242.65,-133.816 248.229,-131.784"/>
<polygon fill="midnightblue" stroke="midnightblue" points="249.368,-135.093 257.701,-128.55 247.107,-128.469 249.368,-135.093"/>
</g>
<!-- Node9 -->
<g id="node10" class="node"><title>Node9</title>
<g id="a_node10"><a xlink:href="../../dd/dff/interfaceorg_1_1msrg_1_1raccoon_1_1engine_1_1ICodingEngine_a0b4cebd680a0fa0a6d0fb420fec4bd52.html#a0b4cebd680a0fa0a6d0fb420fec4bd52" target="_top" xlink:title="org.msrg.raccoon.engine.\lICodingEngine.multiply">
<polygon fill="none" stroke="black" points="266.5,-49.5 266.5,-79.5 393.5,-79.5 393.5,-49.5 266.5,-49.5"/>
<text text-anchor="start" x="274.5" y="-67.5" font-family="Helvetica,sans-Serif" font-size="10.00">org.msrg.raccoon.engine.</text>
<text text-anchor="middle" x="330" y="-56.5" font-family="Helvetica,sans-Serif" font-size="10.00">ICodingEngine.multiply</text>
</a>
</g>
</g>
<!-- Node0&#45;&gt;Node9 -->
<g id="edge12" class="edge"><title>Node0&#45;&gt;Node9</title>
<path fill="none" stroke="midnightblue" d="M111.991,-214.814C133.137,-182.901 178.103,-121.962 232,-89.5 239.577,-84.9367 247.971,-81.1998 256.56,-78.1411"/>
<polygon fill="midnightblue" stroke="midnightblue" points="257.881,-81.3919 266.306,-74.968 255.714,-74.7358 257.881,-81.3919"/>
</g>
<!-- Node10 -->
<g id="node11" class="node"><title>Node10</title>
<g id="a_node11"><a xlink:href="../../d6/d78/classorg_1_1msrg_1_1raccoon_1_1engine_1_1task_1_1sequential_1_1SequentialCodingTask_a9fee0e39302d3e057700653cea01cfe4.html#a9fee0e39302d3e057700653cea01cfe4" target="_top" xlink:title="org.msrg.raccoon.engine.task.sequential.\lSequentialCodingTask.setCurrentStage">
<polygon fill="none" stroke="black" points="232,-0.5 232,-30.5 428,-30.5 428,-0.5 232,-0.5"/>
<text text-anchor="start" x="240" y="-18.5" font-family="Helvetica,sans-Serif" font-size="10.00">org.msrg.raccoon.engine.task.sequential.</text>
<text text-anchor="middle" x="330" y="-7.5" font-family="Helvetica,sans-Serif" font-size="10.00">SequentialCodingTask.setCurrentStage</text>
</a>
</g>
</g>
<!-- Node0&#45;&gt;Node10 -->
<g id="edge13" class="edge"><title>Node0&#45;&gt;Node10</title>
<path fill="none" stroke="midnightblue" d="M107.176,-214.766C124.108,-174.614 166.941,-86.1876 232,-40.5 234.862,-38.4902 237.873,-36.6419 240.992,-34.9421"/>
<polygon fill="midnightblue" stroke="midnightblue" points="242.577,-38.0628 250.032,-30.5343 239.51,-31.7708 242.577,-38.0628"/>
</g>
<!-- Node3&#45;&gt;Node4 -->
<g id="edge4" class="edge"><title>Node3&#45;&gt;Node4</title>
<path fill="none" stroke="midnightblue" d="M381.197,-333.441C413.746,-323.676 456.333,-310.9 490.714,-300.586"/>
<polygon fill="midnightblue" stroke="midnightblue" points="492.066,-303.834 500.639,-297.608 490.055,-297.13 492.066,-303.834"/>
</g>
<!-- Node5&#45;&gt;Node4 -->
<g id="edge6" class="edge"><title>Node5&#45;&gt;Node4</title>
<path fill="none" stroke="midnightblue" d="M418.266,-269.227C429.864,-270.386 441.815,-271.581 453.572,-272.757"/>
<polygon fill="midnightblue" stroke="midnightblue" points="453.541,-276.271 463.84,-273.784 454.238,-269.306 453.541,-276.271"/>
</g>
<!-- Node6&#45;&gt;Node4 -->
<g id="edge8" class="edge"><title>Node6&#45;&gt;Node4</title>
<path fill="none" stroke="midnightblue" d="M393.372,-226.537C404.946,-229.62 416.886,-233 428,-236.5 453.592,-244.559 481.649,-254.93 504.495,-263.784"/>
<polygon fill="midnightblue" stroke="midnightblue" points="503.357,-267.097 513.945,-267.474 505.904,-260.576 503.357,-267.097"/>
</g>
</g>
</svg>
