<?xml version="1.0" encoding="UTF-8" standalone="no"?>
<!DOCTYPE svg PUBLIC "-//W3C//DTD SVG 1.1//EN"
 "http://www.w3.org/Graphics/SVG/1.1/DTD/svg11.dtd">
<!-- Generated by graphviz version 2.38.0 (20140413.2041)
 -->
<!-- Title: org.msrg.raccoon.matrix.TypedMatrix.getColumnSize Pages: 1 -->
<svg width="612pt" height="470pt"
 viewBox="0.00 0.00 612.00 470.00" xmlns="http://www.w3.org/2000/svg" xmlns:xlink="http://www.w3.org/1999/xlink">
<g id="graph0" class="graph" transform="scale(1 1) rotate(0) translate(4 466)">
<title>org.msrg.raccoon.matrix.TypedMatrix.getColumnSize</title>
<!-- Node1 -->
<g id="node1" class="node"><title>Node1</title>
<polygon fill="#bfbfbf" stroke="black" points="0,-220.5 0,-250.5 140,-250.5 140,-220.5 0,-220.5"/>
<text text-anchor="start" x="8" y="-238.5" font-family="Helvetica,sans-Serif" font-size="10.00">org.msrg.raccoon.matrix.</text>
<text text-anchor="middle" x="70" y="-227.5" font-family="Helvetica,sans-Serif" font-size="10.00">TypedMatrix.getColumnSize</text>
</g>
<!-- Node2 -->
<g id="node2" class="node"><title>Node2</title>
<g id="a_node2"><a xlink:href="../../db/d3f/classorg_1_1msrg_1_1raccoon_1_1matrix_1_1TypedMatrix_a67b8cd08054df6b8c87bc4ff2718588e.html#a67b8cd08054df6b8c87bc4ff2718588e" target="_top" xlink:title="org.msrg.raccoon.matrix.\lTypedMatrix\&lt; Byte \&gt;::addInPlace">
<polygon fill="none" stroke="black" points="203.5,-431.5 203.5,-461.5 367.5,-461.5 367.5,-431.5 203.5,-431.5"/>
<text text-anchor="start" x="211.5" y="-449.5" font-family="Helvetica,sans-Serif" font-size="10.00">org.msrg.raccoon.matrix.</text>
<text text-anchor="middle" x="285.5" y="-438.5" font-family="Helvetica,sans-Serif" font-size="10.00">TypedMatrix&lt; Byte &gt;::addInPlace</text>
</a>
</g>
</g>
<!-- Node1&#45;&gt;Node2 -->
<g id="edge1" class="edge"><title>Node1&#45;&gt;Node2</title>
<path fill="none" stroke="midnightblue" d="M77.7279,-260.355C90.0657,-300.97 120.302,-381.166 176,-422.5 184.133,-428.536 193.494,-433.105 203.236,-436.556"/>
<polygon fill="midnightblue" stroke="midnightblue" points="81.0713,-259.318 74.9078,-250.701 74.352,-261.281 81.0713,-259.318"/>
</g>
<!-- Node3 -->
<g id="node3" class="node"><title>Node3</title>
<g id="a_node3"><a xlink:href="../../de/d17/classorg_1_1msrg_1_1raccoon_1_1matrix_1_1finitefields_1_1FFByteMatrix_a816ad2e99b9c0076470c72f6e3056d57.html#a816ad2e99b9c0076470c72f6e3056d57" target="_top" xlink:title="org.msrg.raccoon.matrix.finitefields.\lFFByteMatrix.clone">
<polygon fill="none" stroke="black" points="199,-382.5 199,-412.5 372,-412.5 372,-382.5 199,-382.5"/>
<text text-anchor="start" x="207" y="-400.5" font-family="Helvetica,sans-Serif" font-size="10.00">org.msrg.raccoon.matrix.finitefields.</text>
<text text-anchor="middle" x="285.5" y="-389.5" font-family="Helvetica,sans-Serif" font-size="10.00">FFByteMatrix.clone</text>
</a>
</g>
</g>
<!-- Node1&#45;&gt;Node3 -->
<g id="edge2" class="edge"><title>Node1&#45;&gt;Node3</title>
<path fill="none" stroke="midnightblue" d="M83.8231,-259.655C100.899,-289.478 133.905,-339.661 176,-367.5 185.292,-373.645 195.825,-378.541 206.586,-382.439"/>
<polygon fill="midnightblue" stroke="midnightblue" points="86.7778,-257.767 78.8475,-250.741 80.6656,-261.179 86.7778,-257.767"/>
</g>
<!-- Node5 -->
<g id="node5" class="node"><title>Node5</title>
<g id="a_node5"><a xlink:href="../../de/d17/classorg_1_1msrg_1_1raccoon_1_1matrix_1_1finitefields_1_1FFByteMatrix_a24f33e9d6ecdd54e19682bdcfd5fc8d4.html#a24f33e9d6ecdd54e19682bdcfd5fc8d4" target="_top" xlink:title="org.msrg.raccoon.matrix.finitefields.\lFFByteMatrix.cloneExtended">
<polygon fill="none" stroke="black" points="431,-338.5 431,-368.5 604,-368.5 604,-338.5 431,-338.5"/>
<text text-anchor="start" x="439" y="-356.5" font-family="Helvetica,sans-Serif" font-size="10.00">org.msrg.raccoon.matrix.finitefields.</text>
<text text-anchor="middle" x="517.5" y="-345.5" font-family="Helvetica,sans-Serif" font-size="10.00">FFByteMatrix.cloneExtended</text>
</a>
</g>
</g>
<!-- Node1&#45;&gt;Node5 -->
<g id="edge5" class="edge"><title>Node1&#45;&gt;Node5</title>
<path fill="none" stroke="midnightblue" d="M87.6536,-258.826C106.177,-282.656 138.483,-318.378 176,-334.5 257.323,-369.447 359.787,-370.057 430.965,-364.516"/>
<polygon fill="midnightblue" stroke="midnightblue" points="90.2906,-256.511 81.4687,-250.643 84.7062,-260.731 90.2906,-256.511"/>
</g>
<!-- Node6 -->
<g id="node6" class="node"><title>Node6</title>
<g id="a_node6"><a xlink:href="../../db/d3f/classorg_1_1msrg_1_1raccoon_1_1matrix_1_1TypedMatrix_af8ba92888035faa665c8e955cb8eedfa.html#af8ba92888035faa665c8e955cb8eedfa" target="_top" xlink:title="org.msrg.raccoon.matrix.\lTypedMatrix\&lt; Byte \&gt;::multiply">
<polygon fill="none" stroke="black" points="211,-294.5 211,-324.5 360,-324.5 360,-294.5 211,-294.5"/>
<text text-anchor="start" x="219" y="-312.5" font-family="Helvetica,sans-Serif" font-size="10.00">org.msrg.raccoon.matrix.</text>
<text text-anchor="middle" x="285.5" y="-301.5" font-family="Helvetica,sans-Serif" font-size="10.00">TypedMatrix&lt; Byte &gt;::multiply</text>
</a>
</g>
</g>
<!-- Node1&#45;&gt;Node6 -->
<g id="edge6" class="edge"><title>Node1&#45;&gt;Node6</title>
<path fill="none" stroke="midnightblue" d="M107.341,-255.317C127.174,-265.483 152.428,-277.398 176,-285.5 187.129,-289.325 199.115,-292.69 210.917,-295.597"/>
<polygon fill="midnightblue" stroke="midnightblue" points="108.84,-252.152 98.3537,-250.64 105.609,-258.361 108.84,-252.152"/>
</g>
<!-- Node7 -->
<g id="node7" class="node"><title>Node7</title>
<g id="a_node7"><a xlink:href="../../de/d17/classorg_1_1msrg_1_1raccoon_1_1matrix_1_1finitefields_1_1FFByteMatrix_aae53e5325eaf7a19351d6a9f064f1cc8.html#aae53e5325eaf7a19351d6a9f064f1cc8" target="_top" xlink:title="org.msrg.raccoon.matrix.finitefields.\lFFByteMatrix.multiply2">
<polygon fill="none" stroke="black" points="199,-245.5 199,-275.5 372,-275.5 372,-245.5 199,-245.5"/>
<text text-anchor="start" x="207" y="-263.5" font-family="Helvetica,sans-Serif" font-size="10.00">org.msrg.raccoon.matrix.finitefields.</text>
<text text-anchor="middle" x="285.5" y="-252.5" font-family="Helvetica,sans-Serif" font-size="10.00">FFByteMatrix.multiply2</text>
</a>
</g>
</g>
<!-- Node1&#45;&gt;Node7 -->
<g id="edge7" class="edge"><title>Node1&#45;&gt;Node7</title>
<path fill="none" stroke="midnightblue" d="M150.293,-244.785C166.136,-246.64 182.845,-248.597 198.89,-250.475"/>
<polygon fill="midnightblue" stroke="midnightblue" points="150.362,-241.269 140.022,-243.582 149.548,-248.222 150.362,-241.269"/>
</g>
<!-- Node8 -->
<g id="node8" class="node"><title>Node8</title>
<g id="a_node8"><a xlink:href="../../d5/d96/classorg_1_1msrg_1_1raccoon_1_1matrix_1_1finitefields_1_1ByteMatrixTest_ae32ff4ec2714b4cecdb5f85253619a41.html#ae32ff4ec2714b4cecdb5f85253619a41" target="_top" xlink:title="org.msrg.raccoon.matrix.finitefields.\lByteMatrixTest.runTestM2timesInvIsM">
<polygon fill="none" stroke="black" points="192,-196.5 192,-226.5 379,-226.5 379,-196.5 192,-196.5"/>
<text text-anchor="start" x="200" y="-214.5" font-family="Helvetica,sans-Serif" font-size="10.00">org.msrg.raccoon.matrix.finitefields.</text>
<text text-anchor="middle" x="285.5" y="-203.5" font-family="Helvetica,sans-Serif" font-size="10.00">ByteMatrixTest.runTestM2timesInvIsM</text>
</a>
</g>
</g>
<!-- Node1&#45;&gt;Node8 -->
<g id="edge8" class="edge"><title>Node1&#45;&gt;Node8</title>
<path fill="none" stroke="midnightblue" d="M150.275,-226.588C163.867,-225.061 178.095,-223.461 191.996,-221.899"/>
<polygon fill="midnightblue" stroke="midnightblue" points="149.569,-223.146 140.022,-227.741 150.351,-230.102 149.569,-223.146"/>
</g>
<!-- Node11 -->
<g id="node11" class="node"><title>Node11</title>
<g id="a_node11"><a xlink:href="../../d5/d96/classorg_1_1msrg_1_1raccoon_1_1matrix_1_1finitefields_1_1ByteMatrixTest_a2fbf8530351ff362158e4f2e5c036171.html#a2fbf8530351ff362158e4f2e5c036171" target="_top" xlink:title="org.msrg.raccoon.matrix.finitefields.\lByteMatrixTest.runTestManyInverse">
<polygon fill="none" stroke="black" points="197.5,-147.5 197.5,-177.5 373.5,-177.5 373.5,-147.5 197.5,-147.5"/>
<text text-anchor="start" x="205.5" y="-165.5" font-family="Helvetica,sans-Serif" font-size="10.00">org.msrg.raccoon.matrix.finitefields.</text>
<text text-anchor="middle" x="285.5" y="-154.5" font-family="Helvetica,sans-Serif" font-size="10.00">ByteMatrixTest.runTestManyInverse</text>
</a>
</g>
</g>
<!-- Node1&#45;&gt;Node11 -->
<g id="edge11" class="edge"><title>Node1&#45;&gt;Node11</title>
<path fill="none" stroke="midnightblue" d="M108.981,-215.881C128.605,-206.328 153.168,-195.26 176,-187.5 186.89,-183.799 198.579,-180.468 210.107,-177.534"/>
<polygon fill="midnightblue" stroke="midnightblue" points="107.19,-212.861 99.7735,-220.427 110.29,-219.138 107.19,-212.861"/>
</g>
<!-- Node13 -->
<g id="node13" class="node"><title>Node13</title>
<g id="a_node13"><a xlink:href="../../d5/d96/classorg_1_1msrg_1_1raccoon_1_1matrix_1_1finitefields_1_1ByteMatrixTest_ac60808b559cdc155d008f0d650fe5c34.html#ac60808b559cdc155d008f0d650fe5c34" target="_top" xlink:title="org.msrg.raccoon.matrix.finitefields.\lByteMatrixTest.testMtimesBMtimesInvMIsBM">
<polygon fill="none" stroke="black" points="176,-98.5 176,-128.5 395,-128.5 395,-98.5 176,-98.5"/>
<text text-anchor="start" x="184" y="-116.5" font-family="Helvetica,sans-Serif" font-size="10.00">org.msrg.raccoon.matrix.finitefields.</text>
<text text-anchor="middle" x="285.5" y="-105.5" font-family="Helvetica,sans-Serif" font-size="10.00">ByteMatrixTest.testMtimesBMtimesInvMIsBM</text>
</a>
</g>
</g>
<!-- Node1&#45;&gt;Node13 -->
<g id="edge13" class="edge"><title>Node1&#45;&gt;Node13</title>
<path fill="none" stroke="midnightblue" d="M89.2992,-212.766C108.528,-190.435 140.824,-157.088 176,-138.5 183.349,-134.616 191.29,-131.332 199.418,-128.556"/>
<polygon fill="midnightblue" stroke="midnightblue" points="86.5935,-210.545 82.825,-220.447 91.9459,-215.057 86.5935,-210.545"/>
</g>
<!-- Node14 -->
<g id="node14" class="node"><title>Node14</title>
<g id="a_node14"><a xlink:href="../../db/d3f/classorg_1_1msrg_1_1raccoon_1_1matrix_1_1TypedMatrix_a14d33018db22f14ad0939c722d6ef7e1.html#a14d33018db22f14ad0939c722d6ef7e1" target="_top" xlink:title="org.msrg.raccoon.matrix.\lTypedMatrix\&lt; Byte \&gt;::toString">
<polygon fill="none" stroke="black" points="211,-49.5 211,-79.5 360,-79.5 360,-49.5 211,-49.5"/>
<text text-anchor="start" x="219" y="-67.5" font-family="Helvetica,sans-Serif" font-size="10.00">org.msrg.raccoon.matrix.</text>
<text text-anchor="middle" x="285.5" y="-56.5" font-family="Helvetica,sans-Serif" font-size="10.00">TypedMatrix&lt; Byte &gt;::toString</text>
</a>
</g>
</g>
<!-- Node1&#45;&gt;Node14 -->
<g id="edge14" class="edge"><title>Node1&#45;&gt;Node14</title>
<path fill="none" stroke="midnightblue" d="M81.7552,-210.956C97.5092,-177.997 130.058,-120.054 176,-89.5 186.462,-82.542 198.606,-77.5056 210.904,-73.8637"/>
<polygon fill="midnightblue" stroke="midnightblue" points="78.4424,-209.78 77.409,-220.325 84.7924,-212.726 78.4424,-209.78"/>
</g>
<!-- Node15 -->
<g id="node15" class="node"><title>Node15</title>
<g id="a_node15"><a xlink:href="../../db/d3f/classorg_1_1msrg_1_1raccoon_1_1matrix_1_1TypedMatrix_a8bc7146f66d2a3ea817f1c3aebd00a5b.html#a8bc7146f66d2a3ea817f1c3aebd00a5b" target="_top" xlink:title="org.msrg.raccoon.matrix.\lTypedMatrix\&lt; Byte \&gt;::toStringRow">
<polygon fill="none" stroke="black" points="201,-0.5 201,-30.5 370,-30.5 370,-0.5 201,-0.5"/>
<text text-anchor="start" x="209" y="-18.5" font-family="Helvetica,sans-Serif" font-size="10.00">org.msrg.raccoon.matrix.</text>
<text text-anchor="middle" x="285.5" y="-7.5" font-family="Helvetica,sans-Serif" font-size="10.00">TypedMatrix&lt; Byte &gt;::toStringRow</text>
</a>
</g>
</g>
<!-- Node1&#45;&gt;Node15 -->
<g id="edge15" class="edge"><title>Node1&#45;&gt;Node15</title>
<path fill="none" stroke="midnightblue" d="M77.0335,-210.678C88.6217,-168.543 118.133,-83.3392 176,-39.5 183.458,-33.8498 191.985,-29.4791 200.907,-26.1059"/>
<polygon fill="midnightblue" stroke="midnightblue" points="73.6325,-209.849 74.4671,-220.411 80.4011,-211.634 73.6325,-209.849"/>
</g>
<!-- Node4 -->
<g id="node4" class="node"><title>Node4</title>
<g id="a_node4"><a xlink:href="../../de/d17/classorg_1_1msrg_1_1raccoon_1_1matrix_1_1finitefields_1_1FFByteMatrix_a7aa95ca8ee24659a4f34b343ff6e68ba.html#a7aa95ca8ee24659a4f34b343ff6e68ba" target="_top" xlink:title="org.msrg.raccoon.matrix.finitefields.\lFFByteMatrix.decloneExtended">
<polygon fill="none" stroke="black" points="431,-387.5 431,-417.5 604,-417.5 604,-387.5 431,-387.5"/>
<text text-anchor="start" x="439" y="-405.5" font-family="Helvetica,sans-Serif" font-size="10.00">org.msrg.raccoon.matrix.finitefields.</text>
<text text-anchor="middle" x="517.5" y="-394.5" font-family="Helvetica,sans-Serif" font-size="10.00">FFByteMatrix.decloneExtended</text>
</a>
</g>
</g>
<!-- Node3&#45;&gt;Node4 -->
<g id="edge3" class="edge"><title>Node3&#45;&gt;Node4</title>
<path fill="none" stroke="midnightblue" d="M382.57,-399.588C398.567,-399.936 415.067,-400.295 430.785,-400.637"/>
<polygon fill="midnightblue" stroke="midnightblue" points="382.217,-396.08 372.144,-399.362 382.065,-403.078 382.217,-396.08"/>
</g>
<!-- Node3&#45;&gt;Node5 -->
<g id="edge4" class="edge"><title>Node3&#45;&gt;Node5</title>
<path fill="none" stroke="midnightblue" d="M375.069,-380.556C395.785,-376.593 417.71,-372.399 437.954,-368.526"/>
<polygon fill="midnightblue" stroke="midnightblue" points="374.174,-377.164 365.01,-382.481 375.489,-384.039 374.174,-377.164"/>
</g>
<!-- Node9 -->
<g id="node9" class="node"><title>Node9</title>
<g id="a_node9"><a xlink:href="../../d5/d96/classorg_1_1msrg_1_1raccoon_1_1matrix_1_1finitefields_1_1ByteMatrixTest_af84f780201f4ae5e9d625748fa84ca38.html#af84f780201f4ae5e9d625748fa84ca38" target="_top" xlink:title="org.msrg.raccoon.matrix.finitefields.\lByteMatrixTest.testM2timesInvIsM\l_HasNoInvserse">
<polygon fill="none" stroke="black" points="431,-251 431,-292 604,-292 604,-251 431,-251"/>
<text text-anchor="start" x="439" y="-280" font-family="Helvetica,sans-Serif" font-size="10.00">org.msrg.raccoon.matrix.finitefields.</text>
<text text-anchor="start" x="439" y="-269" font-family="Helvetica,sans-Serif" font-size="10.00">ByteMatrixTest.testM2timesInvIsM</text>
<text text-anchor="middle" x="517.5" y="-258" font-family="Helvetica,sans-Serif" font-size="10.00">_HasNoInvserse</text>
</a>
</g>
</g>
<!-- Node8&#45;&gt;Node9 -->
<g id="edge9" class="edge"><title>Node8&#45;&gt;Node9</title>
<path fill="none" stroke="midnightblue" d="M364.238,-228.876C374.602,-231.349 385.073,-233.929 395,-236.5 412.106,-240.931 430.468,-246.036 447.605,-250.954"/>
<polygon fill="midnightblue" stroke="midnightblue" points="364.892,-225.434 354.355,-226.541 363.282,-232.247 364.892,-225.434"/>
</g>
<!-- Node10 -->
<g id="node10" class="node"><title>Node10</title>
<g id="a_node10"><a xlink:href="../../d5/d96/classorg_1_1msrg_1_1raccoon_1_1matrix_1_1finitefields_1_1ByteMatrixTest_a810788f9ce020bbab969821becb0ef3f.html#a810788f9ce020bbab969821becb0ef3f" target="_top" xlink:title="org.msrg.raccoon.matrix.finitefields.\lByteMatrixTest.testM2timesInvIsM\l_HasInvserse">
<polygon fill="none" stroke="black" points="431,-191 431,-232 604,-232 604,-191 431,-191"/>
<text text-anchor="start" x="439" y="-220" font-family="Helvetica,sans-Serif" font-size="10.00">org.msrg.raccoon.matrix.finitefields.</text>
<text text-anchor="start" x="439" y="-209" font-family="Helvetica,sans-Serif" font-size="10.00">ByteMatrixTest.testM2timesInvIsM</text>
<text text-anchor="middle" x="517.5" y="-198" font-family="Helvetica,sans-Serif" font-size="10.00">_HasInvserse</text>
</a>
</g>
</g>
<!-- Node8&#45;&gt;Node10 -->
<g id="edge10" class="edge"><title>Node8&#45;&gt;Node10</title>
<path fill="none" stroke="midnightblue" d="M389.143,-211.5C403.072,-211.5 417.245,-211.5 430.833,-211.5"/>
<polygon fill="midnightblue" stroke="midnightblue" points="389.056,-208 379.056,-211.5 389.056,-215 389.056,-208"/>
</g>
<!-- Node12 -->
<g id="node12" class="node"><title>Node12</title>
<g id="a_node12"><a xlink:href="../../d5/d96/classorg_1_1msrg_1_1raccoon_1_1matrix_1_1finitefields_1_1ByteMatrixTest_ab8f3114007e92860f4f740a9cbae6e18.html#ab8f3114007e92860f4f740a9cbae6e18" target="_top" xlink:title="org.msrg.raccoon.matrix.finitefields.\lByteMatrixTest.testManyInverse">
<polygon fill="none" stroke="black" points="431,-142.5 431,-172.5 604,-172.5 604,-142.5 431,-142.5"/>
<text text-anchor="start" x="439" y="-160.5" font-family="Helvetica,sans-Serif" font-size="10.00">org.msrg.raccoon.matrix.finitefields.</text>
<text text-anchor="middle" x="517.5" y="-149.5" font-family="Helvetica,sans-Serif" font-size="10.00">ByteMatrixTest.testManyInverse</text>
</a>
</g>
</g>
<!-- Node11&#45;&gt;Node12 -->
<g id="edge12" class="edge"><title>Node11&#45;&gt;Node12</title>
<path fill="none" stroke="midnightblue" d="M383.939,-160.382C399.513,-160.043 415.526,-159.695 430.801,-159.363"/>
<polygon fill="midnightblue" stroke="midnightblue" points="383.703,-156.886 373.781,-160.603 383.855,-163.884 383.703,-156.886"/>
</g>
</g>
</svg>
