<?xml version="1.0" encoding="UTF-8" standalone="no"?>
<!DOCTYPE svg PUBLIC "-//W3C//DTD SVG 1.1//EN"
 "http://www.w3.org/Graphics/SVG/1.1/DTD/svg11.dtd">
<!-- Generated by graphviz version 2.38.0 (20140413.2041)
 -->
<!-- Title: org.msrg.raccoon.matrix.TypedMatrix.toArray Pages: 1 -->
<svg width="1096pt" height="314pt"
 viewBox="0.00 0.00 1096.00 313.50" xmlns="http://www.w3.org/2000/svg" xmlns:xlink="http://www.w3.org/1999/xlink">
<g id="graph0" class="graph" transform="scale(1 1) rotate(0) translate(4 309.5)">
<title>org.msrg.raccoon.matrix.TypedMatrix.toArray</title>
<!-- Node1 -->
<g id="node1" class="node"><title>Node1</title>
<polygon fill="#bfbfbf" stroke="black" points="0,-147 0,-177 125,-177 125,-147 0,-147"/>
<text text-anchor="start" x="8" y="-165" font-family="Helvetica,sans-Serif" font-size="10.00">org.msrg.raccoon.matrix.</text>
<text text-anchor="middle" x="62.5" y="-154" font-family="Helvetica,sans-Serif" font-size="10.00">TypedMatrix.toArray</text>
</g>
<!-- Node2 -->
<g id="node2" class="node"><title>Node2</title>
<g id="a_node2"><a xlink:href="../../dd/dfd/classorg_1_1msrg_1_1raccoon_1_1CodedPiece_a916100d89d5cbded0ba4a2d7c86727b6.html#a916100d89d5cbded0ba4a2d7c86727b6" target="_top" xlink:title="org.msrg.raccoon.CodedPiece.\lCodedPiece">
<polygon fill="none" stroke="black" points="193.5,-223 193.5,-253 345.5,-253 345.5,-223 193.5,-223"/>
<text text-anchor="start" x="201.5" y="-241" font-family="Helvetica,sans-Serif" font-size="10.00">org.msrg.raccoon.CodedPiece.</text>
<text text-anchor="middle" x="269.5" y="-230" font-family="Helvetica,sans-Serif" font-size="10.00">CodedPiece</text>
</a>
</g>
</g>
<!-- Node1&#45;&gt;Node2 -->
<g id="edge1" class="edge"><title>Node1&#45;&gt;Node2</title>
<path fill="none" stroke="midnightblue" d="M96.8013,-182.113C115.205,-192.53 138.783,-204.759 161,-213 171.33,-216.832 182.443,-220.204 193.466,-223.129"/>
<polygon fill="midnightblue" stroke="midnightblue" points="98.3606,-178.972 87.9478,-177.016 94.8682,-185.039 98.3606,-178.972"/>
</g>
<!-- Node10 -->
<g id="node10" class="node"><title>Node10</title>
<g id="a_node10"><a xlink:href="../../dd/d36/classorg_1_1msrg_1_1raccoon_1_1matrix_1_1finitefields_1_1ByteMatrix_a25491e8ba3b3c3e18ec2392b7393bac3.html#a25491e8ba3b3c3e18ec2392b7393bac3" target="_top" xlink:title="org.msrg.raccoon.matrix.finitefields.\lByteMatrix.multiply">
<polygon fill="none" stroke="black" points="183,-174 183,-204 356,-204 356,-174 183,-174"/>
<text text-anchor="start" x="191" y="-192" font-family="Helvetica,sans-Serif" font-size="10.00">org.msrg.raccoon.matrix.finitefields.</text>
<text text-anchor="middle" x="269.5" y="-181" font-family="Helvetica,sans-Serif" font-size="10.00">ByteMatrix.multiply</text>
</a>
</g>
</g>
<!-- Node1&#45;&gt;Node10 -->
<g id="edge9" class="edge"><title>Node1&#45;&gt;Node10</title>
<path fill="none" stroke="midnightblue" d="M134.98,-171.414C150.408,-173.446 166.872,-175.615 182.782,-177.71"/>
<polygon fill="midnightblue" stroke="midnightblue" points="135.378,-167.937 125.007,-170.101 134.464,-174.877 135.378,-167.937"/>
</g>
<!-- Node11 -->
<g id="node11" class="node"><title>Node11</title>
<g id="a_node11"><a xlink:href="../../df/d07/classorg_1_1msrg_1_1raccoon_1_1engine_1_1task_1_1sequential_1_1MultiplyBulkMatrix__SequentialCodingTask_a7e9cd0301479f76cdaa37d35547c760a.html#a7e9cd0301479f76cdaa37d35547c760a" target="_top" xlink:title="org.msrg.raccoon.engine.task.sequential.\lMultiplyBulkMatrix_SequentialCodingTask.run\lStagePrivately">
<polygon fill="none" stroke="black" points="161,-114.5 161,-155.5 378,-155.5 378,-114.5 161,-114.5"/>
<text text-anchor="start" x="169" y="-143.5" font-family="Helvetica,sans-Serif" font-size="10.00">org.msrg.raccoon.engine.task.sequential.</text>
<text text-anchor="start" x="169" y="-132.5" font-family="Helvetica,sans-Serif" font-size="10.00">MultiplyBulkMatrix_SequentialCodingTask.run</text>
<text text-anchor="middle" x="269.5" y="-121.5" font-family="Helvetica,sans-Serif" font-size="10.00">StagePrivately</text>
</a>
</g>
</g>
<!-- Node1&#45;&gt;Node11 -->
<g id="edge10" class="edge"><title>Node1&#45;&gt;Node11</title>
<path fill="none" stroke="midnightblue" d="M135.008,-152.582C143.345,-151.484 151.983,-150.346 160.672,-149.202"/>
<polygon fill="midnightblue" stroke="midnightblue" points="134.464,-149.123 125.007,-153.899 135.378,-156.063 134.464,-149.123"/>
</g>
<!-- Node13 -->
<g id="node13" class="node"><title>Node13</title>
<g id="a_node13"><a xlink:href="../../d5/d96/classorg_1_1msrg_1_1raccoon_1_1matrix_1_1finitefields_1_1ByteMatrixTest_ae32ff4ec2714b4cecdb5f85253619a41.html#ae32ff4ec2714b4cecdb5f85253619a41" target="_top" xlink:title="org.msrg.raccoon.matrix.finitefields.\lByteMatrixTest.runTestM2timesInvIsM">
<polygon fill="none" stroke="black" points="176,-66 176,-96 363,-96 363,-66 176,-66"/>
<text text-anchor="start" x="184" y="-84" font-family="Helvetica,sans-Serif" font-size="10.00">org.msrg.raccoon.matrix.finitefields.</text>
<text text-anchor="middle" x="269.5" y="-73" font-family="Helvetica,sans-Serif" font-size="10.00">ByteMatrixTest.runTestM2timesInvIsM</text>
</a>
</g>
</g>
<!-- Node1&#45;&gt;Node13 -->
<g id="edge12" class="edge"><title>Node1&#45;&gt;Node13</title>
<path fill="none" stroke="midnightblue" d="M93.3433,-141.28C112.039,-129.147 137.053,-114.408 161,-105 169.632,-101.609 178.852,-98.6409 188.127,-96.058"/>
<polygon fill="midnightblue" stroke="midnightblue" points="91.3782,-138.384 84.9655,-146.817 95.2379,-144.224 91.3782,-138.384"/>
</g>
<!-- Node3 -->
<g id="node3" class="node"><title>Node3</title>
<g id="a_node3"><a xlink:href="../../dd/dfd/classorg_1_1msrg_1_1raccoon_1_1CodedPiece_acaf7264810bbdf99b73278b11ac1da72.html#acaf7264810bbdf99b73278b11ac1da72" target="_top" xlink:title="org.msrg.raccoon.CodedPiece.equals">
<polygon fill="none" stroke="black" points="440,-250.5 440,-269.5 620,-269.5 620,-250.5 440,-250.5"/>
<text text-anchor="middle" x="530" y="-257.5" font-family="Helvetica,sans-Serif" font-size="10.00">org.msrg.raccoon.CodedPiece.equals</text>
</a>
</g>
</g>
<!-- Node2&#45;&gt;Node3 -->
<g id="edge2" class="edge"><title>Node2&#45;&gt;Node3</title>
<path fill="none" stroke="midnightblue" d="M355.812,-245.261C382.817,-247.559 412.726,-250.104 439.984,-252.424"/>
<polygon fill="midnightblue" stroke="midnightblue" points="355.877,-241.754 345.616,-244.393 355.283,-248.728 355.877,-241.754"/>
</g>
<!-- Node4 -->
<g id="node4" class="node"><title>Node4</title>
<g id="a_node4"><a xlink:href="../../dd/dfd/classorg_1_1msrg_1_1raccoon_1_1CodedPiece_a2356802d8204151b602ba47d25c34ff3.html#a2356802d8204151b602ba47d25c34ff3" target="_top" xlink:title="org.msrg.raccoon.CodedPiece.make\lCodedPiece">
<polygon fill="none" stroke="black" points="442,-201 442,-231 618,-231 618,-201 442,-201"/>
<text text-anchor="start" x="450" y="-219" font-family="Helvetica,sans-Serif" font-size="10.00">org.msrg.raccoon.CodedPiece.make</text>
<text text-anchor="middle" x="530" y="-208" font-family="Helvetica,sans-Serif" font-size="10.00">CodedPiece</text>
</a>
</g>
</g>
<!-- Node2&#45;&gt;Node4 -->
<g id="edge3" class="edge"><title>Node2&#45;&gt;Node4</title>
<path fill="none" stroke="midnightblue" d="M355.657,-230.753C383.317,-228.399 414.039,-225.784 441.843,-223.418"/>
<polygon fill="midnightblue" stroke="midnightblue" points="355.283,-227.272 345.616,-231.607 355.877,-234.246 355.283,-227.272"/>
</g>
<!-- Node5 -->
<g id="node5" class="node"><title>Node5</title>
<g id="a_node5"><a xlink:href="../../d2/da2/classorg_1_1msrg_1_1raccoon_1_1SourceCodedBatch_aa614a213e1484d4643bf8f6b4eb8616a.html#aa614a213e1484d4643bf8f6b4eb8616a" target="_top" xlink:title="org.msrg.raccoon.SourceCoded\lBatch.code">
<polygon fill="none" stroke="black" points="701.5,-250 701.5,-280 856.5,-280 856.5,-250 701.5,-250"/>
<text text-anchor="start" x="709.5" y="-268" font-family="Helvetica,sans-Serif" font-size="10.00">org.msrg.raccoon.SourceCoded</text>
<text text-anchor="middle" x="779" y="-257" font-family="Helvetica,sans-Serif" font-size="10.00">Batch.code</text>
</a>
</g>
</g>
<!-- Node4&#45;&gt;Node5 -->
<g id="edge4" class="edge"><title>Node4&#45;&gt;Node5</title>
<path fill="none" stroke="midnightblue" d="M616.896,-233.04C644.712,-238.558 675.341,-244.634 702.357,-249.994"/>
<polygon fill="midnightblue" stroke="midnightblue" points="617.277,-229.547 606.787,-231.035 615.915,-236.414 617.277,-229.547"/>
</g>
<!-- Node8 -->
<g id="node8" class="node"><title>Node8</title>
<g id="a_node8"><a xlink:href="../../d7/da5/classorg_1_1msrg_1_1raccoon_1_1CodedPieceTest_a264feb2dd21ccabd0fa19fe54a7c52db.html#a264feb2dd21ccabd0fa19fe54a7c52db" target="_top" xlink:title="org.msrg.raccoon.CodedPiece\lTest.setUp">
<polygon fill="none" stroke="black" points="704.5,-201 704.5,-231 853.5,-231 853.5,-201 704.5,-201"/>
<text text-anchor="start" x="712.5" y="-219" font-family="Helvetica,sans-Serif" font-size="10.00">org.msrg.raccoon.CodedPiece</text>
<text text-anchor="middle" x="779" y="-208" font-family="Helvetica,sans-Serif" font-size="10.00">Test.setUp</text>
</a>
</g>
</g>
<!-- Node4&#45;&gt;Node8 -->
<g id="edge7" class="edge"><title>Node4&#45;&gt;Node8</title>
<path fill="none" stroke="midnightblue" d="M628.099,-216C653.485,-216 680.432,-216 704.374,-216"/>
<polygon fill="midnightblue" stroke="midnightblue" points="628.083,-212.5 618.083,-216 628.083,-219.5 628.083,-212.5"/>
</g>
<!-- Node9 -->
<g id="node9" class="node"><title>Node9</title>
<g id="a_node9"><a xlink:href="../../db/d26/classorg_1_1msrg_1_1raccoon_1_1ReceivedCodedBatchTest_af7c8b12bc8b1dc5d9c5e353b838d830d.html#af7c8b12bc8b1dc5d9c5e353b838d830d" target="_top" xlink:title="org.msrg.raccoon.Received\lCodedBatchTest.ttestEncodingDecoding\lReceivedCodedBatch">
<polygon fill="none" stroke="black" points="682,-141.5 682,-182.5 876,-182.5 876,-141.5 682,-141.5"/>
<text text-anchor="start" x="690" y="-170.5" font-family="Helvetica,sans-Serif" font-size="10.00">org.msrg.raccoon.Received</text>
<text text-anchor="start" x="690" y="-159.5" font-family="Helvetica,sans-Serif" font-size="10.00">CodedBatchTest.ttestEncodingDecoding</text>
<text text-anchor="middle" x="779" y="-148.5" font-family="Helvetica,sans-Serif" font-size="10.00">ReceivedCodedBatch</text>
</a>
</g>
</g>
<!-- Node4&#45;&gt;Node9 -->
<g id="edge8" class="edge"><title>Node4&#45;&gt;Node9</title>
<path fill="none" stroke="midnightblue" d="M609.779,-198.777C633.445,-193.603 659.645,-187.875 684.182,-182.511"/>
<polygon fill="midnightblue" stroke="midnightblue" points="608.825,-195.403 599.803,-200.958 610.32,-202.241 608.825,-195.403"/>
</g>
<!-- Node6 -->
<g id="node6" class="node"><title>Node6</title>
<g id="a_node6"><a xlink:href="../../db/d77/classorg_1_1msrg_1_1raccoon_1_1CodedBatchTest_a04baac235b53bea4fab4b550de9271a5.html#a04baac235b53bea4fab4b550de9271a5" target="_top" xlink:title="org.msrg.raccoon.CodedBatch\lTest.testReceivedCodedBatch">
<polygon fill="none" stroke="black" points="924.5,-275 924.5,-305 1075.5,-305 1075.5,-275 924.5,-275"/>
<text text-anchor="start" x="932.5" y="-293" font-family="Helvetica,sans-Serif" font-size="10.00">org.msrg.raccoon.CodedBatch</text>
<text text-anchor="middle" x="1000" y="-282" font-family="Helvetica,sans-Serif" font-size="10.00">Test.testReceivedCodedBatch</text>
</a>
</g>
</g>
<!-- Node5&#45;&gt;Node6 -->
<g id="edge5" class="edge"><title>Node5&#45;&gt;Node6</title>
<path fill="none" stroke="midnightblue" d="M866.751,-274.903C885.786,-277.076 905.78,-279.358 924.293,-281.472"/>
<polygon fill="midnightblue" stroke="midnightblue" points="866.928,-271.401 856.596,-273.744 866.134,-278.355 866.928,-271.401"/>
</g>
<!-- Node7 -->
<g id="node7" class="node"><title>Node7</title>
<g id="a_node7"><a xlink:href="../../d7/d47/classorg_1_1msrg_1_1raccoon_1_1SlicedCodedBatchTest_aa7d0bdfa77013b46a1f2e416dbb71b8c.html#aa7d0bdfa77013b46a1f2e416dbb71b8c" target="_top" xlink:title="org.msrg.raccoon.SlicedCoded\lBatchTest.testReceivedCodedBatch">
<polygon fill="none" stroke="black" points="912,-226 912,-256 1088,-256 1088,-226 912,-226"/>
<text text-anchor="start" x="920" y="-244" font-family="Helvetica,sans-Serif" font-size="10.00">org.msrg.raccoon.SlicedCoded</text>
<text text-anchor="middle" x="1000" y="-233" font-family="Helvetica,sans-Serif" font-size="10.00">BatchTest.testReceivedCodedBatch</text>
</a>
</g>
</g>
<!-- Node5&#45;&gt;Node7 -->
<g id="edge6" class="edge"><title>Node5&#45;&gt;Node7</title>
<path fill="none" stroke="midnightblue" d="M866.778,-255.49C881.641,-253.861 897.089,-252.168 911.959,-250.539"/>
<polygon fill="midnightblue" stroke="midnightblue" points="866.155,-252.037 856.596,-256.606 866.917,-258.996 866.155,-252.037"/>
</g>
<!-- Node12 -->
<g id="node12" class="node"><title>Node12</title>
<g id="a_node12"><a xlink:href="../../df/d07/classorg_1_1msrg_1_1raccoon_1_1engine_1_1task_1_1sequential_1_1MultiplyBulkMatrix__SequentialCodingTask_a811e36a15733ee58c71e7b8f12f0cec8.html#a811e36a15733ee58c71e7b8f12f0cec8" target="_top" xlink:title="org.msrg.raccoon.engine.task.sequential.\lMultiplyBulkMatrix_SequentialCodingTask.coding\lFinished">
<polygon fill="none" stroke="black" points="414,-120.5 414,-161.5 646,-161.5 646,-120.5 414,-120.5"/>
<text text-anchor="start" x="422" y="-149.5" font-family="Helvetica,sans-Serif" font-size="10.00">org.msrg.raccoon.engine.task.sequential.</text>
<text text-anchor="start" x="422" y="-138.5" font-family="Helvetica,sans-Serif" font-size="10.00">MultiplyBulkMatrix_SequentialCodingTask.coding</text>
<text text-anchor="middle" x="530" y="-127.5" font-family="Helvetica,sans-Serif" font-size="10.00">Finished</text>
</a>
</g>
</g>
<!-- Node11&#45;&gt;Node12 -->
<g id="edge11" class="edge"><title>Node11&#45;&gt;Node12</title>
<path fill="none" stroke="midnightblue" d="M388.518,-137.739C396.967,-137.935 405.479,-138.133 413.91,-138.329"/>
<polygon fill="midnightblue" stroke="midnightblue" points="388.334,-134.234 378.255,-137.501 388.171,-141.232 388.334,-134.234"/>
</g>
<!-- Node14 -->
<g id="node14" class="node"><title>Node14</title>
<g id="a_node14"><a xlink:href="../../d5/d96/classorg_1_1msrg_1_1raccoon_1_1matrix_1_1finitefields_1_1ByteMatrixTest_af84f780201f4ae5e9d625748fa84ca38.html#af84f780201f4ae5e9d625748fa84ca38" target="_top" xlink:title="org.msrg.raccoon.matrix.finitefields.\lByteMatrixTest.testM2timesInvIsM\l_HasNoInvserse">
<polygon fill="none" stroke="black" points="443.5,-60.5 443.5,-101.5 616.5,-101.5 616.5,-60.5 443.5,-60.5"/>
<text text-anchor="start" x="451.5" y="-89.5" font-family="Helvetica,sans-Serif" font-size="10.00">org.msrg.raccoon.matrix.finitefields.</text>
<text text-anchor="start" x="451.5" y="-78.5" font-family="Helvetica,sans-Serif" font-size="10.00">ByteMatrixTest.testM2timesInvIsM</text>
<text text-anchor="middle" x="530" y="-67.5" font-family="Helvetica,sans-Serif" font-size="10.00">_HasNoInvserse</text>
</a>
</g>
</g>
<!-- Node13&#45;&gt;Node14 -->
<g id="edge13" class="edge"><title>Node13&#45;&gt;Node14</title>
<path fill="none" stroke="midnightblue" d="M373.277,-81C396.411,-81 420.727,-81 443.086,-81"/>
<polygon fill="midnightblue" stroke="midnightblue" points="373.094,-77.5001 363.094,-81 373.094,-84.5001 373.094,-77.5001"/>
</g>
<!-- Node15 -->
<g id="node15" class="node"><title>Node15</title>
<g id="a_node15"><a xlink:href="../../d5/d96/classorg_1_1msrg_1_1raccoon_1_1matrix_1_1finitefields_1_1ByteMatrixTest_a810788f9ce020bbab969821becb0ef3f.html#a810788f9ce020bbab969821becb0ef3f" target="_top" xlink:title="org.msrg.raccoon.matrix.finitefields.\lByteMatrixTest.testM2timesInvIsM\l_HasInvserse">
<polygon fill="none" stroke="black" points="443.5,-0.5 443.5,-41.5 616.5,-41.5 616.5,-0.5 443.5,-0.5"/>
<text text-anchor="start" x="451.5" y="-29.5" font-family="Helvetica,sans-Serif" font-size="10.00">org.msrg.raccoon.matrix.finitefields.</text>
<text text-anchor="start" x="451.5" y="-18.5" font-family="Helvetica,sans-Serif" font-size="10.00">ByteMatrixTest.testM2timesInvIsM</text>
<text text-anchor="middle" x="530" y="-7.5" font-family="Helvetica,sans-Serif" font-size="10.00">_HasInvserse</text>
</a>
</g>
</g>
<!-- Node13&#45;&gt;Node15 -->
<g id="edge14" class="edge"><title>Node13&#45;&gt;Node15</title>
<path fill="none" stroke="midnightblue" d="M345.147,-63.6738C375.754,-56.5696 411.367,-48.3036 443.054,-40.9488"/>
<polygon fill="midnightblue" stroke="midnightblue" points="344.346,-60.2665 335.397,-65.9369 345.929,-67.0852 344.346,-60.2665"/>
</g>
</g>
</svg>
