<?xml version="1.0" encoding="UTF-8" standalone="no"?>
<!DOCTYPE svg PUBLIC "-//W3C//DTD SVG 1.1//EN"
 "http://www.w3.org/Graphics/SVG/1.1/DTD/svg11.dtd">
<!-- Generated by graphviz version 2.38.0 (20140413.2041)
 -->
<!-- Title: org.msrg.raccoon.matrix.TypedMatrix.isOne Pages: 1 -->
<svg width="328pt" height="99pt"
 viewBox="0.00 0.00 328.00 98.50" xmlns="http://www.w3.org/2000/svg" xmlns:xlink="http://www.w3.org/1999/xlink">
<g id="graph0" class="graph" transform="scale(1 1) rotate(0) translate(4 94.5)">
<title>org.msrg.raccoon.matrix.TypedMatrix.isOne</title>
<!-- Node1 -->
<g id="node1" class="node"><title>Node1</title>
<polygon fill="#bfbfbf" stroke="black" points="0,-27.5 0,-57.5 125,-57.5 125,-27.5 0,-27.5"/>
<text text-anchor="start" x="8" y="-45.5" font-family="Helvetica,sans-Serif" font-size="10.00">org.msrg.raccoon.matrix.</text>
<text text-anchor="middle" x="62.5" y="-34.5" font-family="Helvetica,sans-Serif" font-size="10.00">TypedMatrix.isOne</text>
</g>
<!-- Node2 -->
<g id="node2" class="node"><title>Node2</title>
<g id="a_node2"><a xlink:href="../../db/d3f/classorg_1_1msrg_1_1raccoon_1_1matrix_1_1TypedMatrix_aa8fe56a4cd0a9be95c3580b4618c699d.html#aa8fe56a4cd0a9be95c3580b4618c699d" target="_top" xlink:title="org.msrg.raccoon.matrix.\lTypedMatrix\&lt; Byte \&gt;::eliminated\lMatrix">
<polygon fill="none" stroke="black" points="161,-49 161,-90 320,-90 320,-49 161,-49"/>
<text text-anchor="start" x="169" y="-78" font-family="Helvetica,sans-Serif" font-size="10.00">org.msrg.raccoon.matrix.</text>
<text text-anchor="start" x="169" y="-67" font-family="Helvetica,sans-Serif" font-size="10.00">TypedMatrix&lt; Byte &gt;::eliminated</text>
<text text-anchor="middle" x="240.5" y="-56" font-family="Helvetica,sans-Serif" font-size="10.00">Matrix</text>
</a>
</g>
</g>
<!-- Node1&#45;&gt;Node2 -->
<g id="edge1" class="edge"><title>Node1&#45;&gt;Node2</title>
<path fill="none" stroke="midnightblue" d="M134.982,-53.466C143.539,-54.7787 152.312,-56.1246 160.962,-57.4516"/>
<polygon fill="midnightblue" stroke="midnightblue" points="135.471,-50.0002 125.056,-51.9433 134.41,-56.9193 135.471,-50.0002"/>
</g>
<!-- Node3 -->
<g id="node3" class="node"><title>Node3</title>
<g id="a_node3"><a xlink:href="../../db/d3f/classorg_1_1msrg_1_1raccoon_1_1matrix_1_1TypedMatrix_a3bbb9fb8ae836b4d61acd52e001b72c2.html#a3bbb9fb8ae836b4d61acd52e001b72c2" target="_top" xlink:title="org.msrg.raccoon.matrix.\lTypedMatrix\&lt; Byte \&gt;::isIdentity">
<polygon fill="none" stroke="black" points="163,-0.5 163,-30.5 318,-30.5 318,-0.5 163,-0.5"/>
<text text-anchor="start" x="171" y="-18.5" font-family="Helvetica,sans-Serif" font-size="10.00">org.msrg.raccoon.matrix.</text>
<text text-anchor="middle" x="240.5" y="-7.5" font-family="Helvetica,sans-Serif" font-size="10.00">TypedMatrix&lt; Byte &gt;::isIdentity</text>
</a>
</g>
</g>
<!-- Node1&#45;&gt;Node3 -->
<g id="edge2" class="edge"><title>Node1&#45;&gt;Node3</title>
<path fill="none" stroke="midnightblue" d="M135.204,-31.5C144.302,-30.1043 153.64,-28.6717 162.812,-27.2647"/>
<polygon fill="midnightblue" stroke="midnightblue" points="134.41,-28.0807 125.056,-33.0567 135.471,-34.9998 134.41,-28.0807"/>
</g>
</g>
</svg>
