<?xml version="1.0" encoding="UTF-8" standalone="no"?>
<!DOCTYPE svg PUBLIC "-//W3C//DTD SVG 1.1//EN"
 "http://www.w3.org/Graphics/SVG/1.1/DTD/svg11.dtd">
<!-- Generated by graphviz version 2.38.0 (20140413.2041)
 -->
<!-- Title: org.msrg.raccoon.matrix.TypedMatrix.isOne Pages: 1 -->
<svg width="324pt" height="88pt"
 viewBox="0.00 0.00 324.00 88.00" xmlns="http://www.w3.org/2000/svg" xmlns:xlink="http://www.w3.org/1999/xlink">
<g id="graph0" class="graph" transform="scale(1 1) rotate(0) translate(4 84)">
<title>org.msrg.raccoon.matrix.TypedMatrix.isOne</title>
<!-- Node1 -->
<g id="node1" class="node"><title>Node1</title>
<polygon fill="#bfbfbf" stroke="black" points="0,-24.5 0,-54.5 125,-54.5 125,-24.5 0,-24.5"/>
<text text-anchor="start" x="8" y="-42.5" font-family="Helvetica,sans-Serif" font-size="10.00">org.msrg.raccoon.matrix.</text>
<text text-anchor="middle" x="62.5" y="-31.5" font-family="Helvetica,sans-Serif" font-size="10.00">TypedMatrix.isOne</text>
</g>
<!-- Node2 -->
<g id="node2" class="node"><title>Node2</title>
<g id="a_node2"><a xlink:href="../../db/d3f/classorg_1_1msrg_1_1raccoon_1_1matrix_1_1TypedMatrix_a3bbb9fb8ae836b4d61acd52e001b72c2.html#a3bbb9fb8ae836b4d61acd52e001b72c2" target="_top" xlink:title="org.msrg.raccoon.matrix.\lTypedMatrix\&lt; Byte \&gt;::isIdentity">
<polygon fill="none" stroke="black" points="161,-49.5 161,-79.5 316,-79.5 316,-49.5 161,-49.5"/>
<text text-anchor="start" x="169" y="-67.5" font-family="Helvetica,sans-Serif" font-size="10.00">org.msrg.raccoon.matrix.</text>
<text text-anchor="middle" x="238.5" y="-56.5" font-family="Helvetica,sans-Serif" font-size="10.00">TypedMatrix&lt; Byte &gt;::isIdentity</text>
</a>
</g>
</g>
<!-- Node1&#45;&gt;Node2 -->
<g id="edge1" class="edge"><title>Node1&#45;&gt;Node2</title>
<path fill="none" stroke="midnightblue" d="M135.471,-49.8407C143.876,-51.0483 152.475,-52.2838 160.94,-53.5"/>
<polygon fill="midnightblue" stroke="midnightblue" points="135.732,-46.3423 125.336,-48.3845 134.736,-53.2711 135.732,-46.3423"/>
</g>
<!-- Node3 -->
<g id="node3" class="node"><title>Node3</title>
<g id="a_node3"><a xlink:href="../../db/d3f/classorg_1_1msrg_1_1raccoon_1_1matrix_1_1TypedMatrix_a8f46d821e9af757868868a61bdc766d3.html#a8f46d821e9af757868868a61bdc766d3" target="_top" xlink:title="org.msrg.raccoon.matrix.\lTypedMatrix\&lt; Byte \&gt;::toString">
<polygon fill="none" stroke="black" points="164,-0.5 164,-30.5 313,-30.5 313,-0.5 164,-0.5"/>
<text text-anchor="start" x="172" y="-18.5" font-family="Helvetica,sans-Serif" font-size="10.00">org.msrg.raccoon.matrix.</text>
<text text-anchor="middle" x="238.5" y="-7.5" font-family="Helvetica,sans-Serif" font-size="10.00">TypedMatrix&lt; Byte &gt;::toString</text>
</a>
</g>
</g>
<!-- Node1&#45;&gt;Node3 -->
<g id="edge2" class="edge"><title>Node1&#45;&gt;Node3</title>
<path fill="none" stroke="midnightblue" d="M135.438,-29.5775C144.856,-28.2785 154.517,-26.946 163.961,-25.6434"/>
<polygon fill="midnightblue" stroke="midnightblue" points="134.764,-26.1373 125.336,-30.9709 135.72,-33.0716 134.764,-26.1373"/>
</g>
</g>
</svg>
