<?xml version="1.0" encoding="UTF-8" standalone="no"?>
<!DOCTYPE svg PUBLIC "-//W3C//DTD SVG 1.1//EN"
 "http://www.w3.org/Graphics/SVG/1.1/DTD/svg11.dtd">
<!-- Generated by graphviz version 2.38.0 (20140413.2041)
 -->
<!-- Title: org.msrg.raccoon.matrix.TypedMatrix.inverseMatrix Pages: 1 -->
<svg width="1321pt" height="480pt"
 viewBox="0.00 0.00 1321.00 480.00" xmlns="http://www.w3.org/2000/svg" xmlns:xlink="http://www.w3.org/1999/xlink">
<g id="graph0" class="graph" transform="scale(1 1) rotate(0) translate(4 476)">
<title>org.msrg.raccoon.matrix.TypedMatrix.inverseMatrix</title>
<!-- Node1 -->
<g id="node1" class="node"><title>Node1</title>
<polygon fill="#bfbfbf" stroke="black" points="0,-220.5 0,-250.5 132,-250.5 132,-220.5 0,-220.5"/>
<text text-anchor="start" x="8" y="-238.5" font-family="Helvetica,sans-Serif" font-size="10.00">org.msrg.raccoon.matrix.</text>
<text text-anchor="middle" x="66" y="-227.5" font-family="Helvetica,sans-Serif" font-size="10.00">TypedMatrix.inverseMatrix</text>
</g>
<!-- Node2 -->
<g id="node2" class="node"><title>Node2</title>
<g id="a_node2"><a xlink:href="../../da/df0/classorg_1_1msrg_1_1raccoon_1_1ReceivedCodedBatch_abe5a8dd787d94591fcbdc4aa01e639df.html#abe5a8dd787d94591fcbdc4aa01e639df" target="_top" xlink:title="org.msrg.raccoon.Received\lCodedBatch.canSolveHighPriority">
<polygon fill="none" stroke="black" points="427,-387.5 427,-417.5 592,-417.5 592,-387.5 427,-387.5"/>
<text text-anchor="start" x="435" y="-405.5" font-family="Helvetica,sans-Serif" font-size="10.00">org.msrg.raccoon.Received</text>
<text text-anchor="middle" x="509.5" y="-394.5" font-family="Helvetica,sans-Serif" font-size="10.00">CodedBatch.canSolveHighPriority</text>
</a>
</g>
</g>
<!-- Node1&#45;&gt;Node2 -->
<g id="edge1" class="edge"><title>Node1&#45;&gt;Node2</title>
<path fill="none" stroke="midnightblue" d="M71.9725,-260.51C81.8624,-302.717 108.404,-386.955 168,-422.5 264.248,-479.905 404.276,-441.506 470.755,-417.578"/>
<polygon fill="midnightblue" stroke="midnightblue" points="75.3881,-259.745 69.8068,-250.74 68.554,-261.26 75.3881,-259.745"/>
</g>
<!-- Node4 -->
<g id="node4" class="node"><title>Node4</title>
<g id="a_node4"><a xlink:href="../../da/df0/classorg_1_1msrg_1_1raccoon_1_1ReceivedCodedBatch_aa025693c18e525356f5750174ceccd70.html#aa025693c18e525356f5750174ceccd70" target="_top" xlink:title="org.msrg.raccoon.Received\lCodedBatch.decode">
<polygon fill="none" stroke="black" points="857.5,-338.5 857.5,-368.5 994.5,-368.5 994.5,-338.5 857.5,-338.5"/>
<text text-anchor="start" x="865.5" y="-356.5" font-family="Helvetica,sans-Serif" font-size="10.00">org.msrg.raccoon.Received</text>
<text text-anchor="middle" x="926" y="-345.5" font-family="Helvetica,sans-Serif" font-size="10.00">CodedBatch.decode</text>
</a>
</g>
</g>
<!-- Node1&#45;&gt;Node4 -->
<g id="edge10" class="edge"><title>Node1&#45;&gt;Node4</title>
<path fill="none" stroke="midnightblue" d="M82.7151,-259.036C100.279,-283.041 131.144,-318.907 168,-334.5 291.042,-386.557 695.881,-367.93 857.495,-358.043"/>
<polygon fill="midnightblue" stroke="midnightblue" points="85.5025,-256.916 76.8596,-250.788 79.7947,-260.968 85.5025,-256.916"/>
</g>
<!-- Node10 -->
<g id="node10" class="node"><title>Node10</title>
<g id="a_node10"><a xlink:href="../../dd/d36/classorg_1_1msrg_1_1raccoon_1_1matrix_1_1finitefields_1_1ByteMatrix_a8d9b66312ac41346f1149bc30061c96a.html#a8d9b66312ac41346f1149bc30061c96a" target="_top" xlink:title="org.msrg.raccoon.matrix.finitefields.\lByteMatrix.isInversable">
<polygon fill="none" stroke="black" points="191,-382.5 191,-412.5 364,-412.5 364,-382.5 191,-382.5"/>
<text text-anchor="start" x="199" y="-400.5" font-family="Helvetica,sans-Serif" font-size="10.00">org.msrg.raccoon.matrix.finitefields.</text>
<text text-anchor="middle" x="277.5" y="-389.5" font-family="Helvetica,sans-Serif" font-size="10.00">ByteMatrix.isInversable</text>
</a>
</g>
</g>
<!-- Node1&#45;&gt;Node10 -->
<g id="edge11" class="edge"><title>Node1&#45;&gt;Node10</title>
<path fill="none" stroke="midnightblue" d="M79.101,-259.66C95.2831,-289.489 126.779,-339.678 168,-367.5 177.152,-373.677 187.55,-378.589 198.197,-382.494"/>
<polygon fill="midnightblue" stroke="midnightblue" points="82.1574,-257.953 74.3922,-250.745 75.9677,-261.222 82.1574,-257.953"/>
</g>
<!-- Node11 -->
<g id="node11" class="node"><title>Node11</title>
<g id="a_node11"><a xlink:href="../../dd/d0e/classorg_1_1msrg_1_1raccoon_1_1matrix_1_1DoubleMatrix_ab7b5fc56aa9107cbc2ec414102293fca.html#ab7b5fc56aa9107cbc2ec414102293fca" target="_top" xlink:title="org.msrg.raccoon.matrix.\lDoubleMatrix.main">
<polygon fill="none" stroke="black" points="215,-294.5 215,-324.5 340,-324.5 340,-294.5 215,-294.5"/>
<text text-anchor="start" x="223" y="-312.5" font-family="Helvetica,sans-Serif" font-size="10.00">org.msrg.raccoon.matrix.</text>
<text text-anchor="middle" x="277.5" y="-301.5" font-family="Helvetica,sans-Serif" font-size="10.00">DoubleMatrix.main</text>
</a>
</g>
</g>
<!-- Node1&#45;&gt;Node11 -->
<g id="edge13" class="edge"><title>Node1&#45;&gt;Node11</title>
<path fill="none" stroke="midnightblue" d="M102.128,-255.517C121.142,-265.67 145.321,-277.511 168,-285.5 182.921,-290.756 199.415,-295.107 214.944,-298.594"/>
<polygon fill="midnightblue" stroke="midnightblue" points="103.697,-252.386 93.2385,-250.692 100.358,-258.538 103.697,-252.386"/>
</g>
<!-- Node12 -->
<g id="node12" class="node"><title>Node12</title>
<g id="a_node12"><a xlink:href="../../d6/d19/classorg_1_1msrg_1_1raccoon_1_1engine_1_1thread_1_1CodingThreadImpl_af81a44607be02e9f01c5f4c119ff5ed4.html#af81a44607be02e9f01c5f4c119ff5ed4" target="_top" xlink:title="org.msrg.raccoon.engine.thread.\lCodingThreadImpl.runTask">
<polygon fill="none" stroke="black" points="199,-245.5 199,-275.5 356,-275.5 356,-245.5 199,-245.5"/>
<text text-anchor="start" x="207" y="-263.5" font-family="Helvetica,sans-Serif" font-size="10.00">org.msrg.raccoon.engine.thread.</text>
<text text-anchor="middle" x="277.5" y="-252.5" font-family="Helvetica,sans-Serif" font-size="10.00">CodingThreadImpl.runTask</text>
</a>
</g>
</g>
<!-- Node1&#45;&gt;Node12 -->
<g id="edge14" class="edge"><title>Node1&#45;&gt;Node12</title>
<path fill="none" stroke="midnightblue" d="M142.217,-244.476C160.633,-246.673 180.374,-249.029 198.899,-251.24"/>
<polygon fill="midnightblue" stroke="midnightblue" points="142.483,-240.983 132.139,-243.273 141.654,-247.933 142.483,-240.983"/>
</g>
<!-- Node13 -->
<g id="node13" class="node"><title>Node13</title>
<g id="a_node13"><a xlink:href="../../d5/d96/classorg_1_1msrg_1_1raccoon_1_1matrix_1_1finitefields_1_1ByteMatrixTest_ae32ff4ec2714b4cecdb5f85253619a41.html#ae32ff4ec2714b4cecdb5f85253619a41" target="_top" xlink:title="org.msrg.raccoon.matrix.finitefields.\lByteMatrixTest.runTestM2timesInvIsM">
<polygon fill="none" stroke="black" points="184,-196.5 184,-226.5 371,-226.5 371,-196.5 184,-196.5"/>
<text text-anchor="start" x="192" y="-214.5" font-family="Helvetica,sans-Serif" font-size="10.00">org.msrg.raccoon.matrix.finitefields.</text>
<text text-anchor="middle" x="277.5" y="-203.5" font-family="Helvetica,sans-Serif" font-size="10.00">ByteMatrixTest.runTestM2timesInvIsM</text>
</a>
</g>
</g>
<!-- Node1&#45;&gt;Node13 -->
<g id="edge15" class="edge"><title>Node1&#45;&gt;Node13</title>
<path fill="none" stroke="midnightblue" d="M142.263,-226.878C155.705,-225.338 169.851,-223.718 183.714,-222.129"/>
<polygon fill="midnightblue" stroke="midnightblue" points="141.675,-223.422 132.139,-228.038 142.472,-230.377 141.675,-223.422"/>
</g>
<!-- Node16 -->
<g id="node16" class="node"><title>Node16</title>
<g id="a_node16"><a xlink:href="../../d5/d96/classorg_1_1msrg_1_1raccoon_1_1matrix_1_1finitefields_1_1ByteMatrixTest_a2fbf8530351ff362158e4f2e5c036171.html#a2fbf8530351ff362158e4f2e5c036171" target="_top" xlink:title="org.msrg.raccoon.matrix.finitefields.\lByteMatrixTest.runTestManyInverse">
<polygon fill="none" stroke="black" points="189.5,-147.5 189.5,-177.5 365.5,-177.5 365.5,-147.5 189.5,-147.5"/>
<text text-anchor="start" x="197.5" y="-165.5" font-family="Helvetica,sans-Serif" font-size="10.00">org.msrg.raccoon.matrix.finitefields.</text>
<text text-anchor="middle" x="277.5" y="-154.5" font-family="Helvetica,sans-Serif" font-size="10.00">ByteMatrixTest.runTestManyInverse</text>
</a>
</g>
</g>
<!-- Node1&#45;&gt;Node16 -->
<g id="edge18" class="edge"><title>Node1&#45;&gt;Node16</title>
<path fill="none" stroke="midnightblue" d="M103.71,-215.683C122.523,-206.143 146.041,-195.146 168,-187.5 178.679,-183.782 190.144,-180.457 201.477,-177.541"/>
<polygon fill="midnightblue" stroke="midnightblue" points="101.896,-212.68 94.6083,-220.37 105.101,-218.904 101.896,-212.68"/>
</g>
<!-- Node18 -->
<g id="node18" class="node"><title>Node18</title>
<g id="a_node18"><a xlink:href="../../d3/dbf/classorg_1_1msrg_1_1raccoon_1_1matrix_1_1finitefields_1_1FFByteMatrixTest_a8d0d9f8aa3c271bf44839894d8038c7c.html#a8d0d9f8aa3c271bf44839894d8038c7c" target="_top" xlink:title="org.msrg.raccoon.matrix.finitefields.\lFFByteMatrixTest.testM2timesInvIsM">
<polygon fill="none" stroke="black" points="186.5,-98.5 186.5,-128.5 368.5,-128.5 368.5,-98.5 186.5,-98.5"/>
<text text-anchor="start" x="194.5" y="-116.5" font-family="Helvetica,sans-Serif" font-size="10.00">org.msrg.raccoon.matrix.finitefields.</text>
<text text-anchor="middle" x="277.5" y="-105.5" font-family="Helvetica,sans-Serif" font-size="10.00">FFByteMatrixTest.testM2timesInvIsM</text>
</a>
</g>
</g>
<!-- Node1&#45;&gt;Node18 -->
<g id="edge20" class="edge"><title>Node1&#45;&gt;Node18</title>
<path fill="none" stroke="midnightblue" d="M84.6576,-212.452C103.037,-190.108 133.869,-156.961 168,-138.5 175.226,-134.591 183.043,-131.292 191.056,-128.506"/>
<polygon fill="midnightblue" stroke="midnightblue" points="81.7792,-210.447 78.2423,-220.434 87.2352,-214.832 81.7792,-210.447"/>
</g>
<!-- Node19 -->
<g id="node19" class="node"><title>Node19</title>
<g id="a_node19"><a xlink:href="../../d5/d96/classorg_1_1msrg_1_1raccoon_1_1matrix_1_1finitefields_1_1ByteMatrixTest_ac60808b559cdc155d008f0d650fe5c34.html#ac60808b559cdc155d008f0d650fe5c34" target="_top" xlink:title="org.msrg.raccoon.matrix.finitefields.\lByteMatrixTest.testMtimesBMtimesInvMIsBM">
<polygon fill="none" stroke="black" points="168,-49.5 168,-79.5 387,-79.5 387,-49.5 168,-49.5"/>
<text text-anchor="start" x="176" y="-67.5" font-family="Helvetica,sans-Serif" font-size="10.00">org.msrg.raccoon.matrix.finitefields.</text>
<text text-anchor="middle" x="277.5" y="-56.5" font-family="Helvetica,sans-Serif" font-size="10.00">ByteMatrixTest.testMtimesBMtimesInvMIsBM</text>
</a>
</g>
</g>
<!-- Node1&#45;&gt;Node19 -->
<g id="edge21" class="edge"><title>Node1&#45;&gt;Node19</title>
<path fill="none" stroke="midnightblue" d="M77.0913,-210.962C91.9522,-178.011 122.925,-120.076 168,-89.5 173.759,-85.5935 180.044,-82.2913 186.593,-79.5007"/>
<polygon fill="midnightblue" stroke="midnightblue" points="73.7955,-209.764 72.9988,-220.329 80.2099,-212.567 73.7955,-209.764"/>
</g>
<!-- Node20 -->
<g id="node20" class="node"><title>Node20</title>
<g id="a_node20"><a xlink:href="../../d3/dbf/classorg_1_1msrg_1_1raccoon_1_1matrix_1_1finitefields_1_1FFByteMatrixTest_a5ccbea71ba50b68456d1625106b2091e.html#a5ccbea71ba50b68456d1625106b2091e" target="_top" xlink:title="org.msrg.raccoon.matrix.finitefields.\lFFByteMatrixTest.testMtimesMInvIsIdentity">
<polygon fill="none" stroke="black" points="173,-0.5 173,-30.5 382,-30.5 382,-0.5 173,-0.5"/>
<text text-anchor="start" x="181" y="-18.5" font-family="Helvetica,sans-Serif" font-size="10.00">org.msrg.raccoon.matrix.finitefields.</text>
<text text-anchor="middle" x="277.5" y="-7.5" font-family="Helvetica,sans-Serif" font-size="10.00">FFByteMatrixTest.testMtimesMInvIsIdentity</text>
</a>
</g>
</g>
<!-- Node1&#45;&gt;Node20 -->
<g id="edge22" class="edge"><title>Node1&#45;&gt;Node20</title>
<path fill="none" stroke="midnightblue" d="M72.514,-210.697C83.2228,-168.591 110.967,-83.4298 168,-39.5 172.432,-36.086 177.253,-33.1375 182.317,-30.5929"/>
<polygon fill="midnightblue" stroke="midnightblue" points="69.1109,-209.879 70.151,-220.423 75.913,-211.532 69.1109,-209.879"/>
</g>
<!-- Node3 -->
<g id="node3" class="node"><title>Node3</title>
<g id="a_node3"><a xlink:href="../../da/df0/classorg_1_1msrg_1_1raccoon_1_1ReceivedCodedBatch_a0eb883fc8fa5805904afcc3d6297b85a.html#a0eb883fc8fa5805904afcc3d6297b85a" target="_top" xlink:title="org.msrg.raccoon.Received\lCodedBatch.canSolve">
<polygon fill="none" stroke="black" points="632,-387.5 632,-417.5 769,-417.5 769,-387.5 632,-387.5"/>
<text text-anchor="start" x="640" y="-405.5" font-family="Helvetica,sans-Serif" font-size="10.00">org.msrg.raccoon.Received</text>
<text text-anchor="middle" x="700.5" y="-394.5" font-family="Helvetica,sans-Serif" font-size="10.00">CodedBatch.canSolve</text>
</a>
</g>
</g>
<!-- Node2&#45;&gt;Node3 -->
<g id="edge2" class="edge"><title>Node2&#45;&gt;Node3</title>
<path fill="none" stroke="midnightblue" d="M602.039,-402.5C612.085,-402.5 622.176,-402.5 631.856,-402.5"/>
<polygon fill="midnightblue" stroke="midnightblue" points="602.024,-399 592.024,-402.5 602.024,-406 602.024,-399"/>
</g>
<!-- Node3&#45;&gt;Node4 -->
<g id="edge3" class="edge"><title>Node3&#45;&gt;Node4</title>
<path fill="none" stroke="midnightblue" d="M779.131,-385.48C804.541,-379.909 832.553,-373.768 857.181,-368.369"/>
<polygon fill="midnightblue" stroke="midnightblue" points="778.182,-382.105 769.164,-387.665 779.681,-388.943 778.182,-382.105"/>
</g>
<!-- Node7 -->
<g id="node7" class="node"><title>Node7</title>
<g id="a_node7"><a xlink:href="../../db/d26/classorg_1_1msrg_1_1raccoon_1_1ReceivedCodedBatchTest_af7c8b12bc8b1dc5d9c5e353b838d830d.html#af7c8b12bc8b1dc5d9c5e353b838d830d" target="_top" xlink:title="org.msrg.raccoon.Received\lCodedBatchTest.ttestEncodingDecoding\lReceivedCodedBatch">
<polygon fill="none" stroke="black" points="1101,-382 1101,-423 1295,-423 1295,-382 1101,-382"/>
<text text-anchor="start" x="1109" y="-411" font-family="Helvetica,sans-Serif" font-size="10.00">org.msrg.raccoon.Received</text>
<text text-anchor="start" x="1109" y="-400" font-family="Helvetica,sans-Serif" font-size="10.00">CodedBatchTest.ttestEncodingDecoding</text>
<text text-anchor="middle" x="1198" y="-389" font-family="Helvetica,sans-Serif" font-size="10.00">ReceivedCodedBatch</text>
</a>
</g>
</g>
<!-- Node3&#45;&gt;Node7 -->
<g id="edge9" class="edge"><title>Node3&#45;&gt;Node7</title>
<path fill="none" stroke="midnightblue" d="M779.17,-402.5C866.146,-402.5 1007.18,-402.5 1101,-402.5"/>
<polygon fill="midnightblue" stroke="midnightblue" points="779.099,-399 769.099,-402.5 779.099,-406 779.099,-399"/>
</g>
<!-- Node8 -->
<g id="node8" class="node"><title>Node8</title>
<g id="a_node8"><a xlink:href="../../d3/d36/classorg_1_1msrg_1_1raccoon_1_1engine_1_1task_1_1sequential_1_1Decoding__SequentialCodingTask_aa875e6c27f9bd356223417ae1689c3b4.html#aa875e6c27f9bd356223417ae1689c3b4" target="_top" xlink:title="org.msrg.raccoon.engine.task.sequential.\lDecoding_SequentialCodingTask.runStagePrivately">
<polygon fill="none" stroke="black" points="805,-436.5 805,-466.5 1047,-466.5 1047,-436.5 805,-436.5"/>
<text text-anchor="start" x="813" y="-454.5" font-family="Helvetica,sans-Serif" font-size="10.00">org.msrg.raccoon.engine.task.sequential.</text>
<text text-anchor="middle" x="926" y="-443.5" font-family="Helvetica,sans-Serif" font-size="10.00">Decoding_SequentialCodingTask.runStagePrivately</text>
</a>
</g>
</g>
<!-- Node3&#45;&gt;Node8 -->
<g id="edge7" class="edge"><title>Node3&#45;&gt;Node8</title>
<path fill="none" stroke="midnightblue" d="M779.038,-419.499C804.207,-425.017 831.939,-431.097 856.408,-436.462"/>
<polygon fill="midnightblue" stroke="midnightblue" points="779.681,-416.057 769.164,-417.335 778.182,-422.895 779.681,-416.057"/>
</g>
<!-- Node5 -->
<g id="node5" class="node"><title>Node5</title>
<g id="a_node5"><a xlink:href="../../db/d77/classorg_1_1msrg_1_1raccoon_1_1CodedBatchTest_a04baac235b53bea4fab4b550de9271a5.html#a04baac235b53bea4fab4b550de9271a5" target="_top" xlink:title="org.msrg.raccoon.CodedBatch\lTest.testReceivedCodedBatch">
<polygon fill="none" stroke="black" points="1122.5,-333.5 1122.5,-363.5 1273.5,-363.5 1273.5,-333.5 1122.5,-333.5"/>
<text text-anchor="start" x="1130.5" y="-351.5" font-family="Helvetica,sans-Serif" font-size="10.00">org.msrg.raccoon.CodedBatch</text>
<text text-anchor="middle" x="1198" y="-340.5" font-family="Helvetica,sans-Serif" font-size="10.00">Test.testReceivedCodedBatch</text>
</a>
</g>
</g>
<!-- Node4&#45;&gt;Node5 -->
<g id="edge4" class="edge"><title>Node4&#45;&gt;Node5</title>
<path fill="none" stroke="midnightblue" d="M1004.98,-352.056C1041.82,-351.374 1085.6,-350.563 1122.05,-349.888"/>
<polygon fill="midnightblue" stroke="midnightblue" points="1004.72,-348.56 994.784,-352.245 1004.85,-355.559 1004.72,-348.56"/>
</g>
<!-- Node6 -->
<g id="node6" class="node"><title>Node6</title>
<g id="a_node6"><a xlink:href="../../d7/d47/classorg_1_1msrg_1_1raccoon_1_1SlicedCodedBatchTest_aa7d0bdfa77013b46a1f2e416dbb71b8c.html#aa7d0bdfa77013b46a1f2e416dbb71b8c" target="_top" xlink:title="org.msrg.raccoon.SlicedCoded\lBatchTest.testReceivedCodedBatch">
<polygon fill="none" stroke="black" points="1110,-284.5 1110,-314.5 1286,-314.5 1286,-284.5 1110,-284.5"/>
<text text-anchor="start" x="1118" y="-302.5" font-family="Helvetica,sans-Serif" font-size="10.00">org.msrg.raccoon.SlicedCoded</text>
<text text-anchor="middle" x="1198" y="-291.5" font-family="Helvetica,sans-Serif" font-size="10.00">BatchTest.testReceivedCodedBatch</text>
</a>
</g>
</g>
<!-- Node4&#45;&gt;Node6 -->
<g id="edge5" class="edge"><title>Node4&#45;&gt;Node6</title>
<path fill="none" stroke="midnightblue" d="M1004.94,-337.913C1041.63,-330.575 1085.2,-321.859 1121.57,-314.586"/>
<polygon fill="midnightblue" stroke="midnightblue" points="1003.9,-334.55 994.784,-339.943 1005.28,-341.414 1003.9,-334.55"/>
</g>
<!-- Node4&#45;&gt;Node7 -->
<g id="edge6" class="edge"><title>Node4&#45;&gt;Node7</title>
<path fill="none" stroke="midnightblue" d="M1004.76,-367.613C1034.75,-373.054 1069.36,-379.335 1100.87,-385.055"/>
<polygon fill="midnightblue" stroke="midnightblue" points="1005.25,-364.144 994.784,-365.802 1004,-371.031 1005.25,-364.144"/>
</g>
<!-- Node9 -->
<g id="node9" class="node"><title>Node9</title>
<g id="a_node9"><a xlink:href="../../d3/d36/classorg_1_1msrg_1_1raccoon_1_1engine_1_1task_1_1sequential_1_1Decoding__SequentialCodingTask_a3497f9c294517ca7934dea0ad28f411d.html#a3497f9c294517ca7934dea0ad28f411d" target="_top" xlink:title="org.msrg.raccoon.engine.task.sequential.\lDecoding_SequentialCodingTask.codingFinished">
<polygon fill="none" stroke="black" points="1083,-441.5 1083,-471.5 1313,-471.5 1313,-441.5 1083,-441.5"/>
<text text-anchor="start" x="1091" y="-459.5" font-family="Helvetica,sans-Serif" font-size="10.00">org.msrg.raccoon.engine.task.sequential.</text>
<text text-anchor="middle" x="1198" y="-448.5" font-family="Helvetica,sans-Serif" font-size="10.00">Decoding_SequentialCodingTask.codingFinished</text>
</a>
</g>
</g>
<!-- Node8&#45;&gt;Node9 -->
<g id="edge8" class="edge"><title>Node8&#45;&gt;Node9</title>
<path fill="none" stroke="midnightblue" d="M1057.66,-453.92C1066.1,-454.076 1074.56,-454.233 1082.91,-454.387"/>
<polygon fill="midnightblue" stroke="midnightblue" points="1057.45,-450.415 1047.39,-453.729 1057.33,-457.414 1057.45,-450.415"/>
</g>
<!-- Node10&#45;&gt;Node2 -->
<g id="edge12" class="edge"><title>Node10&#45;&gt;Node2</title>
<path fill="none" stroke="midnightblue" d="M374.36,-399.584C391.853,-399.964 409.953,-400.358 426.981,-400.728"/>
<polygon fill="midnightblue" stroke="midnightblue" points="374.217,-396.08 364.144,-399.362 374.065,-403.078 374.217,-396.08"/>
</g>
<!-- Node14 -->
<g id="node14" class="node"><title>Node14</title>
<g id="a_node14"><a xlink:href="../../d5/d96/classorg_1_1msrg_1_1raccoon_1_1matrix_1_1finitefields_1_1ByteMatrixTest_af84f780201f4ae5e9d625748fa84ca38.html#af84f780201f4ae5e9d625748fa84ca38" target="_top" xlink:title="org.msrg.raccoon.matrix.finitefields.\lByteMatrixTest.testM2timesInvIsM\l_HasNoInvserse">
<polygon fill="none" stroke="black" points="423,-191 423,-232 596,-232 596,-191 423,-191"/>
<text text-anchor="start" x="431" y="-220" font-family="Helvetica,sans-Serif" font-size="10.00">org.msrg.raccoon.matrix.finitefields.</text>
<text text-anchor="start" x="431" y="-209" font-family="Helvetica,sans-Serif" font-size="10.00">ByteMatrixTest.testM2timesInvIsM</text>
<text text-anchor="middle" x="509.5" y="-198" font-family="Helvetica,sans-Serif" font-size="10.00">_HasNoInvserse</text>
</a>
</g>
</g>
<!-- Node13&#45;&gt;Node14 -->
<g id="edge16" class="edge"><title>Node13&#45;&gt;Node14</title>
<path fill="none" stroke="midnightblue" d="M381.143,-211.5C395.072,-211.5 409.245,-211.5 422.833,-211.5"/>
<polygon fill="midnightblue" stroke="midnightblue" points="381.056,-208 371.056,-211.5 381.056,-215 381.056,-208"/>
</g>
<!-- Node15 -->
<g id="node15" class="node"><title>Node15</title>
<g id="a_node15"><a xlink:href="../../d5/d96/classorg_1_1msrg_1_1raccoon_1_1matrix_1_1finitefields_1_1ByteMatrixTest_a810788f9ce020bbab969821becb0ef3f.html#a810788f9ce020bbab969821becb0ef3f" target="_top" xlink:title="org.msrg.raccoon.matrix.finitefields.\lByteMatrixTest.testM2timesInvIsM\l_HasInvserse">
<polygon fill="none" stroke="black" points="423,-251 423,-292 596,-292 596,-251 423,-251"/>
<text text-anchor="start" x="431" y="-280" font-family="Helvetica,sans-Serif" font-size="10.00">org.msrg.raccoon.matrix.finitefields.</text>
<text text-anchor="start" x="431" y="-269" font-family="Helvetica,sans-Serif" font-size="10.00">ByteMatrixTest.testM2timesInvIsM</text>
<text text-anchor="middle" x="509.5" y="-258" font-family="Helvetica,sans-Serif" font-size="10.00">_HasInvserse</text>
</a>
</g>
</g>
<!-- Node13&#45;&gt;Node15 -->
<g id="edge17" class="edge"><title>Node13&#45;&gt;Node15</title>
<path fill="none" stroke="midnightblue" d="M356.238,-228.876C366.602,-231.349 377.073,-233.929 387,-236.5 404.106,-240.931 422.468,-246.036 439.605,-250.954"/>
<polygon fill="midnightblue" stroke="midnightblue" points="356.892,-225.434 346.355,-226.541 355.282,-232.247 356.892,-225.434"/>
</g>
<!-- Node17 -->
<g id="node17" class="node"><title>Node17</title>
<g id="a_node17"><a xlink:href="../../d5/d96/classorg_1_1msrg_1_1raccoon_1_1matrix_1_1finitefields_1_1ByteMatrixTest_ab8f3114007e92860f4f740a9cbae6e18.html#ab8f3114007e92860f4f740a9cbae6e18" target="_top" xlink:title="org.msrg.raccoon.matrix.finitefields.\lByteMatrixTest.testManyInverse">
<polygon fill="none" stroke="black" points="423,-142.5 423,-172.5 596,-172.5 596,-142.5 423,-142.5"/>
<text text-anchor="start" x="431" y="-160.5" font-family="Helvetica,sans-Serif" font-size="10.00">org.msrg.raccoon.matrix.finitefields.</text>
<text text-anchor="middle" x="509.5" y="-149.5" font-family="Helvetica,sans-Serif" font-size="10.00">ByteMatrixTest.testManyInverse</text>
</a>
</g>
</g>
<!-- Node16&#45;&gt;Node17 -->
<g id="edge19" class="edge"><title>Node16&#45;&gt;Node17</title>
<path fill="none" stroke="midnightblue" d="M375.939,-160.382C391.513,-160.043 407.526,-159.695 422.801,-159.363"/>
<polygon fill="midnightblue" stroke="midnightblue" points="375.703,-156.886 365.781,-160.603 375.855,-163.884 375.703,-156.886"/>
</g>
</g>
</svg>
