<?xml version="1.0" encoding="UTF-8" standalone="no"?>
<!DOCTYPE svg PUBLIC "-//W3C//DTD SVG 1.1//EN"
 "http://www.w3.org/Graphics/SVG/1.1/DTD/svg11.dtd">
<!-- Generated by graphviz version 2.38.0 (20140413.2041)
 -->
<!-- Title: org.msrg.raccoon.matrix.TypedMatrix.inverse Pages: 1 -->
<svg width="333pt" height="159pt"
 viewBox="0.00 0.00 333.00 158.50" xmlns="http://www.w3.org/2000/svg" xmlns:xlink="http://www.w3.org/1999/xlink">
<g id="graph0" class="graph" transform="scale(1 1) rotate(0) translate(4 154.5)">
<title>org.msrg.raccoon.matrix.TypedMatrix.inverse</title>
<!-- Node1 -->
<g id="node1" class="node"><title>Node1</title>
<polygon fill="#bfbfbf" stroke="black" points="0,-66 0,-96 125,-96 125,-66 0,-66"/>
<text text-anchor="start" x="8" y="-84" font-family="Helvetica,sans-Serif" font-size="10.00">org.msrg.raccoon.matrix.</text>
<text text-anchor="middle" x="62.5" y="-73" font-family="Helvetica,sans-Serif" font-size="10.00">TypedMatrix.inverse</text>
</g>
<!-- Node2 -->
<g id="node2" class="node"><title>Node2</title>
<g id="a_node2"><a xlink:href="../../db/d3f/classorg_1_1msrg_1_1raccoon_1_1matrix_1_1TypedMatrix_ac826f7738f5911f45aae05cd317556d2.html#ac826f7738f5911f45aae05cd317556d2" target="_top" xlink:title="org.msrg.raccoon.matrix.\lTypedMatrix\&lt; Byte \&gt;::devideRow">
<polygon fill="none" stroke="black" points="161,-120 161,-150 325,-150 325,-120 161,-120"/>
<text text-anchor="start" x="169" y="-138" font-family="Helvetica,sans-Serif" font-size="10.00">org.msrg.raccoon.matrix.</text>
<text text-anchor="middle" x="243" y="-127" font-family="Helvetica,sans-Serif" font-size="10.00">TypedMatrix&lt; Byte &gt;::devideRow</text>
</a>
</g>
</g>
<!-- Node1&#45;&gt;Node2 -->
<g id="edge1" class="edge"><title>Node1&#45;&gt;Node2</title>
<path fill="none" stroke="midnightblue" d="M121.777,-99.0402C134.685,-103.006 148.3,-107.165 161,-111 170.688,-113.926 181.038,-117.018 190.989,-119.974"/>
<polygon fill="midnightblue" stroke="midnightblue" points="122.658,-95.6495 112.071,-96.0543 120.6,-102.34 122.658,-95.6495"/>
</g>
<!-- Node3 -->
<g id="node3" class="node"><title>Node3</title>
<g id="a_node3"><a xlink:href="../../db/d3f/classorg_1_1msrg_1_1raccoon_1_1matrix_1_1TypedMatrix_a62f3b28a72c0c130fa783e1129694d4e.html#a62f3b28a72c0c130fa783e1129694d4e" target="_top" xlink:title="org.msrg.raccoon.matrix.\lTypedMatrix\&lt; Byte \&gt;::inverse\lMatrix">
<polygon fill="none" stroke="black" points="170,-60.5 170,-101.5 316,-101.5 316,-60.5 170,-60.5"/>
<text text-anchor="start" x="178" y="-89.5" font-family="Helvetica,sans-Serif" font-size="10.00">org.msrg.raccoon.matrix.</text>
<text text-anchor="start" x="178" y="-78.5" font-family="Helvetica,sans-Serif" font-size="10.00">TypedMatrix&lt; Byte &gt;::inverse</text>
<text text-anchor="middle" x="243" y="-67.5" font-family="Helvetica,sans-Serif" font-size="10.00">Matrix</text>
</a>
</g>
</g>
<!-- Node1&#45;&gt;Node3 -->
<g id="edge2" class="edge"><title>Node1&#45;&gt;Node3</title>
<path fill="none" stroke="midnightblue" d="M135.465,-81C146.807,-81 158.536,-81 169.882,-81"/>
<polygon fill="midnightblue" stroke="midnightblue" points="135.18,-77.5001 125.18,-81 135.179,-84.5001 135.18,-77.5001"/>
</g>
<!-- Node4 -->
<g id="node4" class="node"><title>Node4</title>
<g id="a_node4"><a xlink:href="../../db/d3f/classorg_1_1msrg_1_1raccoon_1_1matrix_1_1TypedMatrix_a8af1abaa1a91413498a8fe31c786332e.html#a8af1abaa1a91413498a8fe31c786332e" target="_top" xlink:title="org.msrg.raccoon.matrix.\lTypedMatrix\&lt; Byte \&gt;::inverse\lMatrixPrivately">
<polygon fill="none" stroke="black" points="170,-0.5 170,-41.5 316,-41.5 316,-0.5 170,-0.5"/>
<text text-anchor="start" x="178" y="-29.5" font-family="Helvetica,sans-Serif" font-size="10.00">org.msrg.raccoon.matrix.</text>
<text text-anchor="start" x="178" y="-18.5" font-family="Helvetica,sans-Serif" font-size="10.00">TypedMatrix&lt; Byte &gt;::inverse</text>
<text text-anchor="middle" x="243" y="-7.5" font-family="Helvetica,sans-Serif" font-size="10.00">MatrixPrivately</text>
</a>
</g>
</g>
<!-- Node1&#45;&gt;Node4 -->
<g id="edge3" class="edge"><title>Node1&#45;&gt;Node4</title>
<path fill="none" stroke="midnightblue" d="M118.041,-62.6671C137.874,-56.0004 160.416,-48.4231 180.789,-41.5751"/>
<polygon fill="midnightblue" stroke="midnightblue" points="116.907,-59.3556 108.543,-65.8595 119.137,-65.9908 116.907,-59.3556"/>
</g>
</g>
</svg>
