<?xml version="1.0" encoding="UTF-8" standalone="no"?>
<!DOCTYPE svg PUBLIC "-//W3C//DTD SVG 1.1//EN"
 "http://www.w3.org/Graphics/SVG/1.1/DTD/svg11.dtd">
<!-- Generated by graphviz version 2.38.0 (20140413.2041)
 -->
<!-- Title: org.msrg.raccoon.matrix.TypedMatrix.add Pages: 1 -->
<svg width="494pt" height="186pt"
 viewBox="0.00 0.00 494.00 186.00" xmlns="http://www.w3.org/2000/svg" xmlns:xlink="http://www.w3.org/1999/xlink">
<g id="graph0" class="graph" transform="scale(1 1) rotate(0) translate(4 182)">
<title>org.msrg.raccoon.matrix.TypedMatrix.add</title>
<!-- Node1 -->
<g id="node1" class="node"><title>Node1</title>
<polygon fill="#bfbfbf" stroke="black" points="0,-73.5 0,-103.5 125,-103.5 125,-73.5 0,-73.5"/>
<text text-anchor="start" x="8" y="-91.5" font-family="Helvetica,sans-Serif" font-size="10.00">org.msrg.raccoon.matrix.</text>
<text text-anchor="middle" x="62.5" y="-80.5" font-family="Helvetica,sans-Serif" font-size="10.00">TypedMatrix.add</text>
</g>
<!-- Node2 -->
<g id="node2" class="node"><title>Node2</title>
<g id="a_node2"><a xlink:href="../../d5/dcc/classorg_1_1msrg_1_1raccoon_1_1matrix_1_1MatrixFactory_ae68ccb57e1a751895f23ddb9a66baf4d.html#ae68ccb57e1a751895f23ddb9a66baf4d" target="_top" xlink:title="org.msrg.raccoon.matrix.\lMatrixFactory.add">
<polygon fill="none" stroke="black" points="180.5,-147.5 180.5,-177.5 305.5,-177.5 305.5,-147.5 180.5,-147.5"/>
<text text-anchor="start" x="188.5" y="-165.5" font-family="Helvetica,sans-Serif" font-size="10.00">org.msrg.raccoon.matrix.</text>
<text text-anchor="middle" x="243" y="-154.5" font-family="Helvetica,sans-Serif" font-size="10.00">MatrixFactory.add</text>
</a>
</g>
</g>
<!-- Node1&#45;&gt;Node2 -->
<g id="edge1" class="edge"><title>Node1&#45;&gt;Node2</title>
<path fill="none" stroke="midnightblue" d="M98.8402,-108.637C117.034,-118.482 139.796,-130.008 161,-138.5 169.033,-141.717 177.666,-144.727 186.195,-147.453"/>
<polygon fill="midnightblue" stroke="midnightblue" points="100.226,-105.405 89.7747,-103.667 96.8607,-111.544 100.226,-105.405"/>
</g>
<!-- Node4 -->
<g id="node4" class="node"><title>Node4</title>
<g id="a_node4"><a xlink:href="../../db/d3f/classorg_1_1msrg_1_1raccoon_1_1matrix_1_1TypedMatrix_a6a7066014a9e631d0f699dfd04dff88d.html#a6a7066014a9e631d0f699dfd04dff88d" target="_top" xlink:title="org.msrg.raccoon.matrix.\lTypedMatrix\&lt; Byte \&gt;::add">
<polygon fill="none" stroke="black" points="177.5,-98.5 177.5,-128.5 308.5,-128.5 308.5,-98.5 177.5,-98.5"/>
<text text-anchor="start" x="185.5" y="-116.5" font-family="Helvetica,sans-Serif" font-size="10.00">org.msrg.raccoon.matrix.</text>
<text text-anchor="middle" x="243" y="-105.5" font-family="Helvetica,sans-Serif" font-size="10.00">TypedMatrix&lt; Byte &gt;::add</text>
</a>
</g>
</g>
<!-- Node1&#45;&gt;Node4 -->
<g id="edge3" class="edge"><title>Node1&#45;&gt;Node4</title>
<path fill="none" stroke="midnightblue" d="M135.186,-98.54C149.099,-100.489 163.606,-102.52 177.28,-104.436"/>
<polygon fill="midnightblue" stroke="midnightblue" points="135.568,-95.0595 125.18,-97.1386 134.597,-101.992 135.568,-95.0595"/>
</g>
<!-- Node5 -->
<g id="node5" class="node"><title>Node5</title>
<g id="a_node5"><a xlink:href="../../db/d3f/classorg_1_1msrg_1_1raccoon_1_1matrix_1_1TypedMatrix_a67b8cd08054df6b8c87bc4ff2718588e.html#a67b8cd08054df6b8c87bc4ff2718588e" target="_top" xlink:title="org.msrg.raccoon.matrix.\lTypedMatrix\&lt; Byte \&gt;::addInPlace">
<polygon fill="none" stroke="black" points="161,-49.5 161,-79.5 325,-79.5 325,-49.5 161,-49.5"/>
<text text-anchor="start" x="169" y="-67.5" font-family="Helvetica,sans-Serif" font-size="10.00">org.msrg.raccoon.matrix.</text>
<text text-anchor="middle" x="243" y="-56.5" font-family="Helvetica,sans-Serif" font-size="10.00">TypedMatrix&lt; Byte &gt;::addInPlace</text>
</a>
</g>
</g>
<!-- Node1&#45;&gt;Node5 -->
<g id="edge4" class="edge"><title>Node1&#45;&gt;Node5</title>
<path fill="none" stroke="midnightblue" d="M135.29,-78.8476C143.683,-77.7191 152.291,-76.5617 160.8,-75.4176"/>
<polygon fill="midnightblue" stroke="midnightblue" points="134.624,-75.4055 125.18,-80.207 135.557,-82.3431 134.624,-75.4055"/>
</g>
<!-- Node6 -->
<g id="node6" class="node"><title>Node6</title>
<g id="a_node6"><a xlink:href="../../db/d3f/classorg_1_1msrg_1_1raccoon_1_1matrix_1_1TypedMatrix_a8759d749f02dd3c340889595d3fc9f07.html#a8759d749f02dd3c340889595d3fc9f07" target="_top" xlink:title="org.msrg.raccoon.matrix.\lTypedMatrix\&lt; Byte \&gt;::addRow">
<polygon fill="none" stroke="black" points="167.5,-0.5 167.5,-30.5 318.5,-30.5 318.5,-0.5 167.5,-0.5"/>
<text text-anchor="start" x="175.5" y="-18.5" font-family="Helvetica,sans-Serif" font-size="10.00">org.msrg.raccoon.matrix.</text>
<text text-anchor="middle" x="243" y="-7.5" font-family="Helvetica,sans-Serif" font-size="10.00">TypedMatrix&lt; Byte &gt;::addRow</text>
</a>
</g>
</g>
<!-- Node1&#45;&gt;Node6 -->
<g id="edge5" class="edge"><title>Node1&#45;&gt;Node6</title>
<path fill="none" stroke="midnightblue" d="M100.139,-68.7491C118.164,-59.4771 140.397,-48.6915 161,-40.5 169.889,-36.9658 179.486,-33.6146 188.859,-30.5813"/>
<polygon fill="midnightblue" stroke="midnightblue" points="98.3827,-65.7173 91.1273,-73.4381 101.614,-71.927 98.3827,-65.7173"/>
</g>
<!-- Node3 -->
<g id="node3" class="node"><title>Node3</title>
<g id="a_node3"><a xlink:href="../../dd/d0e/classorg_1_1msrg_1_1raccoon_1_1matrix_1_1DoubleMatrix_a6295a296b6239fef50c22aa29ac16338.html#a6295a296b6239fef50c22aa29ac16338" target="_top" xlink:title="org.msrg.raccoon.matrix.\lDoubleMatrix.main0">
<polygon fill="none" stroke="black" points="361,-147.5 361,-177.5 486,-177.5 486,-147.5 361,-147.5"/>
<text text-anchor="start" x="369" y="-165.5" font-family="Helvetica,sans-Serif" font-size="10.00">org.msrg.raccoon.matrix.</text>
<text text-anchor="middle" x="423.5" y="-154.5" font-family="Helvetica,sans-Serif" font-size="10.00">DoubleMatrix.main0</text>
</a>
</g>
</g>
<!-- Node2&#45;&gt;Node3 -->
<g id="edge2" class="edge"><title>Node2&#45;&gt;Node3</title>
<path fill="none" stroke="midnightblue" d="M315.863,-162.5C330.758,-162.5 346.326,-162.5 360.818,-162.5"/>
<polygon fill="midnightblue" stroke="midnightblue" points="315.68,-159 305.68,-162.5 315.679,-166 315.68,-159"/>
</g>
</g>
</svg>
