<?xml version="1.0" encoding="UTF-8" standalone="no"?>
<!DOCTYPE svg PUBLIC "-//W3C//DTD SVG 1.1//EN"
 "http://www.w3.org/Graphics/SVG/1.1/DTD/svg11.dtd">
<!-- Generated by graphviz version 2.38.0 (20140413.2041)
 -->
<!-- Title: org.msrg.raccoon.matrix.TypedMatrix.decloneExtended Pages: 1 -->
<svg width="342pt" height="100pt"
 viewBox="0.00 0.00 342.00 99.50" xmlns="http://www.w3.org/2000/svg" xmlns:xlink="http://www.w3.org/1999/xlink">
<g id="graph0" class="graph" transform="scale(1 1) rotate(0) translate(4 95.5)">
<title>org.msrg.raccoon.matrix.TypedMatrix.decloneExtended</title>
<!-- Node1 -->
<g id="node1" class="node"><title>Node1</title>
<polygon fill="#bfbfbf" stroke="black" points="0,-27.5 0,-57.5 149,-57.5 149,-27.5 0,-27.5"/>
<text text-anchor="start" x="8" y="-45.5" font-family="Helvetica,sans-Serif" font-size="10.00">org.msrg.raccoon.matrix.</text>
<text text-anchor="middle" x="74.5" y="-34.5" font-family="Helvetica,sans-Serif" font-size="10.00">TypedMatrix.decloneExtended</text>
</g>
<!-- Node2 -->
<g id="node2" class="node"><title>Node2</title>
<g id="a_node2"><a xlink:href="../../db/d3f/classorg_1_1msrg_1_1raccoon_1_1matrix_1_1TypedMatrix_a8af1abaa1a91413498a8fe31c786332e.html#a8af1abaa1a91413498a8fe31c786332e" target="_top" xlink:title="org.msrg.raccoon.matrix.\lTypedMatrix\&lt; Byte \&gt;::inverse\lMatrixPrivately">
<polygon fill="none" stroke="black" points="186.5,-50 186.5,-91 332.5,-91 332.5,-50 186.5,-50"/>
<text text-anchor="start" x="194.5" y="-79" font-family="Helvetica,sans-Serif" font-size="10.00">org.msrg.raccoon.matrix.</text>
<text text-anchor="start" x="194.5" y="-68" font-family="Helvetica,sans-Serif" font-size="10.00">TypedMatrix&lt; Byte &gt;::inverse</text>
<text text-anchor="middle" x="259.5" y="-57" font-family="Helvetica,sans-Serif" font-size="10.00">MatrixPrivately</text>
</a>
</g>
</g>
<!-- Node1&#45;&gt;Node2 -->
<g id="edge1" class="edge"><title>Node1&#45;&gt;Node2</title>
<path fill="none" stroke="midnightblue" d="M159.033,-55.2811C168.204,-56.6842 177.482,-58.1038 186.496,-59.483"/>
<polygon fill="midnightblue" stroke="midnightblue" points="159.556,-51.8204 149.142,-53.7676 158.498,-58.7399 159.556,-51.8204"/>
</g>
<!-- Node3 -->
<g id="node3" class="node"><title>Node3</title>
<g id="a_node3"><a xlink:href="../../db/d3f/classorg_1_1msrg_1_1raccoon_1_1matrix_1_1TypedMatrix_a8f46d821e9af757868868a61bdc766d3.html#a8f46d821e9af757868868a61bdc766d3" target="_top" xlink:title="org.msrg.raccoon.matrix.\lTypedMatrix\&lt; Byte \&gt;::toString">
<polygon fill="none" stroke="black" points="185,-0.5 185,-30.5 334,-30.5 334,-0.5 185,-0.5"/>
<text text-anchor="start" x="193" y="-18.5" font-family="Helvetica,sans-Serif" font-size="10.00">org.msrg.raccoon.matrix.</text>
<text text-anchor="middle" x="259.5" y="-7.5" font-family="Helvetica,sans-Serif" font-size="10.00">TypedMatrix&lt; Byte &gt;::toString</text>
</a>
</g>
</g>
<!-- Node1&#45;&gt;Node3 -->
<g id="edge2" class="edge"><title>Node1&#45;&gt;Node3</title>
<path fill="none" stroke="midnightblue" d="M159.109,-30.1643C167.651,-28.904 176.285,-27.6301 184.711,-26.3869"/>
<polygon fill="midnightblue" stroke="midnightblue" points="158.524,-26.7126 149.142,-31.6348 159.546,-33.6376 158.524,-26.7126"/>
</g>
</g>
</svg>
