<?xml version="1.0" encoding="UTF-8" standalone="no"?>
<!DOCTYPE svg PUBLIC "-//W3C//DTD SVG 1.1//EN"
 "http://www.w3.org/Graphics/SVG/1.1/DTD/svg11.dtd">
<!-- Generated by graphviz version 2.38.0 (20140413.2041)
 -->
<!-- Title: org.msrg.raccoon.matrix.TypedMatrix.subtract Pages: 1 -->
<svg width="339pt" height="149pt"
 viewBox="0.00 0.00 339.00 149.00" xmlns="http://www.w3.org/2000/svg" xmlns:xlink="http://www.w3.org/1999/xlink">
<g id="graph0" class="graph" transform="scale(1 1) rotate(0) translate(4 145)">
<title>org.msrg.raccoon.matrix.TypedMatrix.subtract</title>
<!-- Node1 -->
<g id="node1" class="node"><title>Node1</title>
<polygon fill="#bfbfbf" stroke="black" points="0,-55.5 0,-85.5 125,-85.5 125,-55.5 0,-55.5"/>
<text text-anchor="start" x="8" y="-73.5" font-family="Helvetica,sans-Serif" font-size="10.00">org.msrg.raccoon.matrix.</text>
<text text-anchor="middle" x="62.5" y="-62.5" font-family="Helvetica,sans-Serif" font-size="10.00">TypedMatrix.subtract</text>
</g>
<!-- Node2 -->
<g id="node2" class="node"><title>Node2</title>
<g id="a_node2"><a xlink:href="../../db/d3f/classorg_1_1msrg_1_1raccoon_1_1matrix_1_1TypedMatrix_a77f1b783e3b30e54555ef536016ff65d.html#a77f1b783e3b30e54555ef536016ff65d" target="_top" xlink:title="org.msrg.raccoon.matrix.\lTypedMatrix\&lt; Byte \&gt;::subtractRow">
<polygon fill="none" stroke="black" points="161,-110.5 161,-140.5 331,-140.5 331,-110.5 161,-110.5"/>
<text text-anchor="start" x="169" y="-128.5" font-family="Helvetica,sans-Serif" font-size="10.00">org.msrg.raccoon.matrix.</text>
<text text-anchor="middle" x="246" y="-117.5" font-family="Helvetica,sans-Serif" font-size="10.00">TypedMatrix&lt; Byte &gt;::subtractRow</text>
</a>
</g>
</g>
<!-- Node1&#45;&gt;Node2 -->
<g id="edge1" class="edge"><title>Node1&#45;&gt;Node2</title>
<path fill="none" stroke="midnightblue" d="M121.781,-88.5287C134.688,-92.4947 148.303,-96.6572 161,-100.5 171.631,-103.717 183.03,-107.133 193.893,-110.372"/>
<polygon fill="midnightblue" stroke="midnightblue" points="122.662,-85.1379 112.075,-85.5426 120.603,-91.8285 122.662,-85.1379"/>
</g>
<!-- Node3 -->
<g id="node3" class="node"><title>Node3</title>
<g id="a_node3"><a xlink:href="../../db/d3f/classorg_1_1msrg_1_1raccoon_1_1matrix_1_1TypedMatrix_ad8c546f75976e5da73d8f2b449c533ca.html#ad8c546f75976e5da73d8f2b449c533ca" target="_top" xlink:title="org.msrg.raccoon.matrix.\lTypedMatrix\&lt; Byte \&gt;::subtract\lRowFromRow">
<polygon fill="none" stroke="black" points="171,-50 171,-91 321,-91 321,-50 171,-50"/>
<text text-anchor="start" x="179" y="-79" font-family="Helvetica,sans-Serif" font-size="10.00">org.msrg.raccoon.matrix.</text>
<text text-anchor="start" x="179" y="-68" font-family="Helvetica,sans-Serif" font-size="10.00">TypedMatrix&lt; Byte &gt;::subtract</text>
<text text-anchor="middle" x="246" y="-57" font-family="Helvetica,sans-Serif" font-size="10.00">RowFromRow</text>
</a>
</g>
</g>
<!-- Node1&#45;&gt;Node3 -->
<g id="edge2" class="edge"><title>Node1&#45;&gt;Node3</title>
<path fill="none" stroke="midnightblue" d="M135.344,-70.5C147.037,-70.5 159.169,-70.5 170.916,-70.5"/>
<polygon fill="midnightblue" stroke="midnightblue" points="135.201,-67.0001 125.201,-70.5 135.201,-74.0001 135.201,-67.0001"/>
</g>
<!-- Node4 -->
<g id="node4" class="node"><title>Node4</title>
<g id="a_node4"><a xlink:href="../../db/d3f/classorg_1_1msrg_1_1raccoon_1_1matrix_1_1TypedMatrix_a8f46d821e9af757868868a61bdc766d3.html#a8f46d821e9af757868868a61bdc766d3" target="_top" xlink:title="org.msrg.raccoon.matrix.\lTypedMatrix\&lt; Byte \&gt;::toString">
<polygon fill="none" stroke="black" points="171.5,-0.5 171.5,-30.5 320.5,-30.5 320.5,-0.5 171.5,-0.5"/>
<text text-anchor="start" x="179.5" y="-18.5" font-family="Helvetica,sans-Serif" font-size="10.00">org.msrg.raccoon.matrix.</text>
<text text-anchor="middle" x="246" y="-7.5" font-family="Helvetica,sans-Serif" font-size="10.00">TypedMatrix&lt; Byte &gt;::toString</text>
</a>
</g>
</g>
<!-- Node1&#45;&gt;Node4 -->
<g id="edge3" class="edge"><title>Node1&#45;&gt;Node4</title>
<path fill="none" stroke="midnightblue" d="M121.781,-52.4713C134.688,-48.5053 148.303,-44.3428 161,-40.5 171.631,-37.2825 183.03,-33.8671 193.893,-30.6284"/>
<polygon fill="midnightblue" stroke="midnightblue" points="120.603,-49.1715 112.075,-55.4574 122.662,-55.8621 120.603,-49.1715"/>
</g>
</g>
</svg>
