<?xml version="1.0" encoding="UTF-8" standalone="no"?>
<!DOCTYPE svg PUBLIC "-//W3C//DTD SVG 1.1//EN"
 "http://www.w3.org/Graphics/SVG/1.1/DTD/svg11.dtd">
<!-- Generated by graphviz version 2.38.0 (20140413.2041)
 -->
<!-- Title: org.msrg.raccoon.matrix.TypedMatrix.inverse Pages: 1 -->
<svg width="333pt" height="209pt"
 viewBox="0.00 0.00 333.00 209.00" xmlns="http://www.w3.org/2000/svg" xmlns:xlink="http://www.w3.org/1999/xlink">
<g id="graph0" class="graph" transform="scale(1 1) rotate(0) translate(4 205)">
<title>org.msrg.raccoon.matrix.TypedMatrix.inverse</title>
<!-- Node1 -->
<g id="node1" class="node"><title>Node1</title>
<polygon fill="#bfbfbf" stroke="black" points="0,-85.5 0,-115.5 125,-115.5 125,-85.5 0,-85.5"/>
<text text-anchor="start" x="8" y="-103.5" font-family="Helvetica,sans-Serif" font-size="10.00">org.msrg.raccoon.matrix.</text>
<text text-anchor="middle" x="62.5" y="-92.5" font-family="Helvetica,sans-Serif" font-size="10.00">TypedMatrix.inverse</text>
</g>
<!-- Node2 -->
<g id="node2" class="node"><title>Node2</title>
<g id="a_node2"><a xlink:href="../../db/d3f/classorg_1_1msrg_1_1raccoon_1_1matrix_1_1TypedMatrix_ac826f7738f5911f45aae05cd317556d2.html#ac826f7738f5911f45aae05cd317556d2" target="_top" xlink:title="org.msrg.raccoon.matrix.\lTypedMatrix\&lt; Byte \&gt;::devideRow">
<polygon fill="none" stroke="black" points="161,-170.5 161,-200.5 325,-200.5 325,-170.5 161,-170.5"/>
<text text-anchor="start" x="169" y="-188.5" font-family="Helvetica,sans-Serif" font-size="10.00">org.msrg.raccoon.matrix.</text>
<text text-anchor="middle" x="243" y="-177.5" font-family="Helvetica,sans-Serif" font-size="10.00">TypedMatrix&lt; Byte &gt;::devideRow</text>
</a>
</g>
</g>
<!-- Node1&#45;&gt;Node2 -->
<g id="edge1" class="edge"><title>Node1&#45;&gt;Node2</title>
<path fill="none" stroke="midnightblue" d="M93.1111,-121.448C111.897,-134.037 137.089,-149.664 161,-160.5 169.043,-164.145 177.765,-167.455 186.406,-170.386"/>
<polygon fill="midnightblue" stroke="midnightblue" points="94.9354,-118.456 84.6982,-115.727 90.9989,-124.244 94.9354,-118.456"/>
</g>
<!-- Node3 -->
<g id="node3" class="node"><title>Node3</title>
<g id="a_node3"><a xlink:href="../../db/d3f/classorg_1_1msrg_1_1raccoon_1_1matrix_1_1TypedMatrix_a62f3b28a72c0c130fa783e1129694d4e.html#a62f3b28a72c0c130fa783e1129694d4e" target="_top" xlink:title="org.msrg.raccoon.matrix.\lTypedMatrix\&lt; Byte \&gt;::inverse\lMatrix">
<polygon fill="none" stroke="black" points="170,-110 170,-151 316,-151 316,-110 170,-110"/>
<text text-anchor="start" x="178" y="-139" font-family="Helvetica,sans-Serif" font-size="10.00">org.msrg.raccoon.matrix.</text>
<text text-anchor="start" x="178" y="-128" font-family="Helvetica,sans-Serif" font-size="10.00">TypedMatrix&lt; Byte &gt;::inverse</text>
<text text-anchor="middle" x="243" y="-117" font-family="Helvetica,sans-Serif" font-size="10.00">Matrix</text>
</a>
</g>
</g>
<!-- Node1&#45;&gt;Node3 -->
<g id="edge2" class="edge"><title>Node1&#45;&gt;Node3</title>
<path fill="none" stroke="midnightblue" d="M135.118,-112.537C146.568,-114.461 158.421,-116.453 169.882,-118.379"/>
<polygon fill="midnightblue" stroke="midnightblue" points="135.621,-109.072 125.18,-110.866 134.461,-115.975 135.621,-109.072"/>
</g>
<!-- Node4 -->
<g id="node4" class="node"><title>Node4</title>
<g id="a_node4"><a xlink:href="../../db/d3f/classorg_1_1msrg_1_1raccoon_1_1matrix_1_1TypedMatrix_a8af1abaa1a91413498a8fe31c786332e.html#a8af1abaa1a91413498a8fe31c786332e" target="_top" xlink:title="org.msrg.raccoon.matrix.\lTypedMatrix\&lt; Byte \&gt;::inverse\lMatrixPrivately">
<polygon fill="none" stroke="black" points="170,-50 170,-91 316,-91 316,-50 170,-50"/>
<text text-anchor="start" x="178" y="-79" font-family="Helvetica,sans-Serif" font-size="10.00">org.msrg.raccoon.matrix.</text>
<text text-anchor="start" x="178" y="-68" font-family="Helvetica,sans-Serif" font-size="10.00">TypedMatrix&lt; Byte &gt;::inverse</text>
<text text-anchor="middle" x="243" y="-57" font-family="Helvetica,sans-Serif" font-size="10.00">MatrixPrivately</text>
</a>
</g>
</g>
<!-- Node1&#45;&gt;Node4 -->
<g id="edge3" class="edge"><title>Node1&#45;&gt;Node4</title>
<path fill="none" stroke="midnightblue" d="M135.118,-88.4634C146.568,-86.5391 158.421,-84.5469 169.882,-82.6207"/>
<polygon fill="midnightblue" stroke="midnightblue" points="134.461,-85.0246 125.18,-90.1337 135.621,-91.9278 134.461,-85.0246"/>
</g>
<!-- Node5 -->
<g id="node5" class="node"><title>Node5</title>
<g id="a_node5"><a xlink:href="../../db/d3f/classorg_1_1msrg_1_1raccoon_1_1matrix_1_1TypedMatrix_a8f46d821e9af757868868a61bdc766d3.html#a8f46d821e9af757868868a61bdc766d3" target="_top" xlink:title="org.msrg.raccoon.matrix.\lTypedMatrix\&lt; Byte \&gt;::toString">
<polygon fill="none" stroke="black" points="168.5,-0.5 168.5,-30.5 317.5,-30.5 317.5,-0.5 168.5,-0.5"/>
<text text-anchor="start" x="176.5" y="-18.5" font-family="Helvetica,sans-Serif" font-size="10.00">org.msrg.raccoon.matrix.</text>
<text text-anchor="middle" x="243" y="-7.5" font-family="Helvetica,sans-Serif" font-size="10.00">TypedMatrix&lt; Byte &gt;::toString</text>
</a>
</g>
</g>
<!-- Node1&#45;&gt;Node5 -->
<g id="edge4" class="edge"><title>Node1&#45;&gt;Node5</title>
<path fill="none" stroke="midnightblue" d="M93.1111,-79.5518C111.897,-66.9628 137.089,-51.3364 161,-40.5 169.043,-36.855 177.765,-33.5453 186.406,-30.614"/>
<polygon fill="midnightblue" stroke="midnightblue" points="90.9989,-76.7556 84.6982,-85.2734 94.9354,-82.5438 90.9989,-76.7556"/>
</g>
</g>
</svg>
