<?xml version="1.0" encoding="UTF-8" standalone="no"?>
<!DOCTYPE svg PUBLIC "-//W3C//DTD SVG 1.1//EN"
 "http://www.w3.org/Graphics/SVG/1.1/DTD/svg11.dtd">
<!-- Generated by graphviz version 2.38.0 (20140413.2041)
 -->
<!-- Title: Graphical Class Hierarchy Pages: 1 -->
<svg width="439pt" height="88pt"
 viewBox="0.00 0.00 439.00 88.00" xmlns="http://www.w3.org/2000/svg" xmlns:xlink="http://www.w3.org/1999/xlink">
<g id="graph0" class="graph" transform="scale(1 1) rotate(0) translate(4 84)">
<title>Graphical Class Hierarchy</title>
<!-- Node1 -->
<g id="node1" class="node"><title>Node1</title>
<polygon fill="none" stroke="#bfbfbf" points="0,-30 0,-49 67,-49 67,-30 0,-30"/>
<text text-anchor="middle" x="33.5" y="-37" font-family="Helvetica,sans-Serif" font-size="10.00">Serializable</text>
</g>
<!-- Node2 -->
<g id="node2" class="node"><title>Node2</title>
<g id="a_node2"><a xlink:href="df/da4/classorg_1_1msrg_1_1raccoon_1_1matrix_1_1bulk_1_1BulkMatrix.html" target="_top" xlink:title="org.msrg.raccoon.matrix.bulk.\lBulkMatrix">
<polygon fill="none" stroke="black" points="103,-49.5 103,-79.5 249,-79.5 249,-49.5 103,-49.5"/>
<text text-anchor="start" x="111" y="-67.5" font-family="Helvetica,sans-Serif" font-size="10.00">org.msrg.raccoon.matrix.bulk.</text>
<text text-anchor="middle" x="176" y="-56.5" font-family="Helvetica,sans-Serif" font-size="10.00">BulkMatrix</text>
</a>
</g>
</g>
<!-- Node1&#45;&gt;Node2 -->
<g id="edge1" class="edge"><title>Node1&#45;&gt;Node2</title>
<path fill="none" stroke="midnightblue" d="M77.0915,-47.0786C85.2746,-48.5346 94.0537,-50.0967 102.872,-51.6659"/>
<polygon fill="midnightblue" stroke="midnightblue" points="77.5452,-43.6044 67.0867,-45.2983 76.3189,-50.4961 77.5452,-43.6044"/>
</g>
<!-- Node4 -->
<g id="node4" class="node"><title>Node4</title>
<g id="a_node4"><a xlink:href="d6/d6d/classorg_1_1msrg_1_1raccoon_1_1matrix_1_1bulk_1_1SliceMatrix.html" target="_top" xlink:title="org.msrg.raccoon.matrix.bulk.\lSliceMatrix">
<polygon fill="none" stroke="black" points="103,-0.5 103,-30.5 249,-30.5 249,-0.5 103,-0.5"/>
<text text-anchor="start" x="111" y="-18.5" font-family="Helvetica,sans-Serif" font-size="10.00">org.msrg.raccoon.matrix.bulk.</text>
<text text-anchor="middle" x="176" y="-7.5" font-family="Helvetica,sans-Serif" font-size="10.00">SliceMatrix</text>
</a>
</g>
</g>
<!-- Node1&#45;&gt;Node4 -->
<g id="edge3" class="edge"><title>Node1&#45;&gt;Node4</title>
<path fill="none" stroke="midnightblue" d="M77.0915,-32.2246C85.2746,-30.8268 94.0537,-29.3271 102.872,-27.8208"/>
<polygon fill="midnightblue" stroke="midnightblue" points="76.3545,-28.7997 67.0867,-33.9336 77.5333,-35.6997 76.3545,-28.7997"/>
</g>
<!-- Node3 -->
<g id="node3" class="node"><title>Node3</title>
<g id="a_node3"><a xlink:href="dd/da0/classorg_1_1msrg_1_1raccoon_1_1matrix_1_1bulk_1_1BulkMatrix1D.html" target="_top" xlink:title="org.msrg.raccoon.matrix.bulk.\lBulkMatrix1D">
<polygon fill="none" stroke="black" points="285,-49.5 285,-79.5 431,-79.5 431,-49.5 285,-49.5"/>
<text text-anchor="start" x="293" y="-67.5" font-family="Helvetica,sans-Serif" font-size="10.00">org.msrg.raccoon.matrix.bulk.</text>
<text text-anchor="middle" x="358" y="-56.5" font-family="Helvetica,sans-Serif" font-size="10.00">BulkMatrix1D</text>
</a>
</g>
</g>
<!-- Node2&#45;&gt;Node3 -->
<g id="edge2" class="edge"><title>Node2&#45;&gt;Node3</title>
<path fill="none" stroke="midnightblue" d="M259.439,-64.5C267.906,-64.5 276.464,-64.5 284.808,-64.5"/>
<polygon fill="midnightblue" stroke="midnightblue" points="259.176,-61.0001 249.176,-64.5 259.176,-68.0001 259.176,-61.0001"/>
</g>
</g>
</svg>
