<?xml version="1.0" encoding="UTF-8" standalone="no"?>
<!DOCTYPE svg PUBLIC "-//W3C//DTD SVG 1.1//EN"
 "http://www.w3.org/Graphics/SVG/1.1/DTD/svg11.dtd">
<!-- Generated by graphviz version 2.38.0 (20140413.2041)
 -->
<!-- Title: Graphical Class Hierarchy Pages: 1 -->
<svg width="574pt" height="296pt"
 viewBox="0.00 0.00 574.00 296.00" xmlns="http://www.w3.org/2000/svg" xmlns:xlink="http://www.w3.org/1999/xlink">
<g id="graph0" class="graph" transform="scale(1 1) rotate(0) translate(4 292)">
<title>Graphical Class Hierarchy</title>
<!-- Node0 -->
<g id="node1" class="node"><title>Node0</title>
<g id="a_node1"><a xlink:href="d3/db5/classorg_1_1msrg_1_1raccoon_1_1engine_1_1CodingEngineEvent.html" target="_top" xlink:title="org.msrg.raccoon.engine.\lCodingEngineEvent">
<polygon fill="none" stroke="black" points="0,-180.5 0,-210.5 127,-210.5 127,-180.5 0,-180.5"/>
<text text-anchor="start" x="8" y="-198.5" font-family="Helvetica,sans-Serif" font-size="10.00">org.msrg.raccoon.engine.</text>
<text text-anchor="middle" x="63.5" y="-187.5" font-family="Helvetica,sans-Serif" font-size="10.00">CodingEngineEvent</text>
</a>
</g>
</g>
<!-- Node1 -->
<g id="node2" class="node"><title>Node1</title>
<g id="a_node2"><a xlink:href="da/d4b/classorg_1_1msrg_1_1raccoon_1_1engine_1_1CodingEngineEvent__ExecutionEvent.html" target="_top" xlink:title="org.msrg.raccoon.engine.\lCodingEngineEvent_ExecutionEvent">
<polygon fill="none" stroke="black" points="165,-257.5 165,-287.5 342,-287.5 342,-257.5 165,-257.5"/>
<text text-anchor="start" x="173" y="-275.5" font-family="Helvetica,sans-Serif" font-size="10.00">org.msrg.raccoon.engine.</text>
<text text-anchor="middle" x="253.5" y="-264.5" font-family="Helvetica,sans-Serif" font-size="10.00">CodingEngineEvent_ExecutionEvent</text>
</a>
</g>
</g>
<!-- Node0&#45;&gt;Node1 -->
<g id="edge1" class="edge"><title>Node0&#45;&gt;Node1</title>
<path fill="none" stroke="midnightblue" d="M97.5475,-215.776C116.245,-226.603 140.354,-239.512 163,-248.5 171.224,-251.764 180.045,-254.733 188.828,-257.384"/>
<polygon fill="midnightblue" stroke="midnightblue" points="99.2281,-212.704 88.8335,-210.654 95.6811,-218.739 99.2281,-212.704"/>
</g>
<!-- Node2 -->
<g id="node3" class="node"><title>Node2</title>
<g id="a_node3"><a xlink:href="d1/d5b/classorg_1_1msrg_1_1raccoon_1_1engine_1_1CodingEngineEvent__NewCodingTask.html" target="_top" xlink:title="org.msrg.raccoon.engine.\lCodingEngineEvent_NewCodingTask">
<polygon fill="none" stroke="black" points="163,-208.5 163,-238.5 344,-238.5 344,-208.5 163,-208.5"/>
<text text-anchor="start" x="171" y="-226.5" font-family="Helvetica,sans-Serif" font-size="10.00">org.msrg.raccoon.engine.</text>
<text text-anchor="middle" x="253.5" y="-215.5" font-family="Helvetica,sans-Serif" font-size="10.00">CodingEngineEvent_NewCodingTask</text>
</a>
</g>
</g>
<!-- Node0&#45;&gt;Node2 -->
<g id="edge2" class="edge"><title>Node0&#45;&gt;Node2</title>
<path fill="none" stroke="midnightblue" d="M137.169,-206.323C145.535,-207.569 154.139,-208.85 162.696,-210.125"/>
<polygon fill="midnightblue" stroke="midnightblue" points="137.508,-202.835 127.101,-204.824 136.477,-209.759 137.508,-202.835"/>
</g>
<!-- Node3 -->
<g id="node4" class="node"><title>Node3</title>
<g id="a_node4"><a xlink:href="d8/d0c/classorg_1_1msrg_1_1raccoon_1_1engine_1_1CodingEngineEvent__SequentialCodingTaskEvents.html" target="_top" xlink:title="org.msrg.raccoon.engine.\lCodingEngineEvent_Sequential\lCodingTaskEvents">
<polygon fill="none" stroke="black" points="176.5,-148 176.5,-189 330.5,-189 330.5,-148 176.5,-148"/>
<text text-anchor="start" x="184.5" y="-177" font-family="Helvetica,sans-Serif" font-size="10.00">org.msrg.raccoon.engine.</text>
<text text-anchor="start" x="184.5" y="-166" font-family="Helvetica,sans-Serif" font-size="10.00">CodingEngineEvent_Sequential</text>
<text text-anchor="middle" x="253.5" y="-155" font-family="Helvetica,sans-Serif" font-size="10.00">CodingTaskEvents</text>
</a>
</g>
</g>
<!-- Node0&#45;&gt;Node3 -->
<g id="edge3" class="edge"><title>Node0&#45;&gt;Node3</title>
<path fill="none" stroke="midnightblue" d="M137.264,-185.05C150.11,-183.205 163.515,-181.28 176.448,-179.422"/>
<polygon fill="midnightblue" stroke="midnightblue" points="136.502,-181.623 127.101,-186.509 137.497,-188.552 136.502,-181.623"/>
</g>
<!-- Node6 -->
<g id="node7" class="node"><title>Node6</title>
<g id="a_node7"><a xlink:href="d5/da7/classorg_1_1msrg_1_1raccoon_1_1engine_1_1CodingEngineEvent__ThreadEvent.html" target="_top" xlink:title="org.msrg.raccoon.engine.\lCodingEngineEvent_ThreadEvent">
<polygon fill="none" stroke="black" points="171.5,-73.5 171.5,-103.5 335.5,-103.5 335.5,-73.5 171.5,-73.5"/>
<text text-anchor="start" x="179.5" y="-91.5" font-family="Helvetica,sans-Serif" font-size="10.00">org.msrg.raccoon.engine.</text>
<text text-anchor="middle" x="253.5" y="-80.5" font-family="Helvetica,sans-Serif" font-size="10.00">CodingEngineEvent_ThreadEvent</text>
</a>
</g>
</g>
<!-- Node0&#45;&gt;Node6 -->
<g id="edge6" class="edge"><title>Node0&#45;&gt;Node6</title>
<path fill="none" stroke="midnightblue" d="M99.1852,-175.257C118.023,-164.306 141.746,-150.586 163,-138.5 183.733,-126.711 207.283,-113.564 225.02,-103.711"/>
<polygon fill="midnightblue" stroke="midnightblue" points="97.245,-172.337 90.3621,-180.391 100.766,-178.387 97.245,-172.337"/>
</g>
<!-- Node4 -->
<g id="node5" class="node"><title>Node4</title>
<g id="a_node5"><a xlink:href="d9/da7/classorg_1_1msrg_1_1raccoon_1_1engine_1_1CodingEngineEvent__SequentialCodingTaskFailed.html" target="_top" xlink:title="org.msrg.raccoon.engine.\lCodingEngineEvent_Sequential\lCodingTaskFailed">
<polygon fill="none" stroke="black" points="396,-208 396,-249 550,-249 550,-208 396,-208"/>
<text text-anchor="start" x="404" y="-237" font-family="Helvetica,sans-Serif" font-size="10.00">org.msrg.raccoon.engine.</text>
<text text-anchor="start" x="404" y="-226" font-family="Helvetica,sans-Serif" font-size="10.00">CodingEngineEvent_Sequential</text>
<text text-anchor="middle" x="473" y="-215" font-family="Helvetica,sans-Serif" font-size="10.00">CodingTaskFailed</text>
</a>
</g>
</g>
<!-- Node3&#45;&gt;Node4 -->
<g id="edge4" class="edge"><title>Node3&#45;&gt;Node4</title>
<path fill="none" stroke="midnightblue" d="M338.764,-191.745C358.145,-197.092 378.62,-202.74 397.551,-207.962"/>
<polygon fill="midnightblue" stroke="midnightblue" points="339.618,-188.35 329.047,-189.065 337.756,-195.098 339.618,-188.35"/>
</g>
<!-- Node5 -->
<g id="node6" class="node"><title>Node5</title>
<g id="a_node6"><a xlink:href="d0/d5d/classorg_1_1msrg_1_1raccoon_1_1engine_1_1CodingEngineEvent__SequentialCodingTaskFinished.html" target="_top" xlink:title="org.msrg.raccoon.engine.\lCodingEngineEvent_Sequential\lCodingTaskFinished">
<polygon fill="none" stroke="black" points="396,-148 396,-189 550,-189 550,-148 396,-148"/>
<text text-anchor="start" x="404" y="-177" font-family="Helvetica,sans-Serif" font-size="10.00">org.msrg.raccoon.engine.</text>
<text text-anchor="start" x="404" y="-166" font-family="Helvetica,sans-Serif" font-size="10.00">CodingEngineEvent_Sequential</text>
<text text-anchor="middle" x="473" y="-155" font-family="Helvetica,sans-Serif" font-size="10.00">CodingTaskFinished</text>
</a>
</g>
</g>
<!-- Node3&#45;&gt;Node5 -->
<g id="edge5" class="edge"><title>Node3&#45;&gt;Node5</title>
<path fill="none" stroke="midnightblue" d="M340.625,-168.5C358.912,-168.5 378.093,-168.5 395.972,-168.5"/>
<polygon fill="midnightblue" stroke="midnightblue" points="340.571,-165 330.571,-168.5 340.571,-172 340.571,-165"/>
</g>
<!-- Node7 -->
<g id="node8" class="node"><title>Node7</title>
<g id="a_node8"><a xlink:href="d2/dda/classorg_1_1msrg_1_1raccoon_1_1engine_1_1CodingEngineEvent__BusyThreadEvent.html" target="_top" xlink:title="org.msrg.raccoon.engine.\lCodingEngineEvent_BusyThreadEvent">
<polygon fill="none" stroke="black" points="380,-98.5 380,-128.5 566,-128.5 566,-98.5 380,-98.5"/>
<text text-anchor="start" x="388" y="-116.5" font-family="Helvetica,sans-Serif" font-size="10.00">org.msrg.raccoon.engine.</text>
<text text-anchor="middle" x="473" y="-105.5" font-family="Helvetica,sans-Serif" font-size="10.00">CodingEngineEvent_BusyThreadEvent</text>
</a>
</g>
</g>
<!-- Node6&#45;&gt;Node7 -->
<g id="edge7" class="edge"><title>Node6&#45;&gt;Node7</title>
<path fill="none" stroke="midnightblue" d="M345.993,-99.0164C357.185,-100.303 368.628,-101.618 379.83,-102.906"/>
<polygon fill="midnightblue" stroke="midnightblue" points="346.133,-95.5095 335.798,-97.8446 345.333,-102.464 346.133,-95.5095"/>
</g>
<!-- Node8 -->
<g id="node9" class="node"><title>Node8</title>
<g id="a_node9"><a xlink:href="de/daf/classorg_1_1msrg_1_1raccoon_1_1engine_1_1CodingEngineEvent__FreeThreadEvent.html" target="_top" xlink:title="org.msrg.raccoon.engine.\lCodingEngineEvent_FreeThreadEvent">
<polygon fill="none" stroke="black" points="381.5,-49.5 381.5,-79.5 564.5,-79.5 564.5,-49.5 381.5,-49.5"/>
<text text-anchor="start" x="389.5" y="-67.5" font-family="Helvetica,sans-Serif" font-size="10.00">org.msrg.raccoon.engine.</text>
<text text-anchor="middle" x="473" y="-56.5" font-family="Helvetica,sans-Serif" font-size="10.00">CodingEngineEvent_FreeThreadEvent</text>
</a>
</g>
</g>
<!-- Node6&#45;&gt;Node8 -->
<g id="edge8" class="edge"><title>Node6&#45;&gt;Node8</title>
<path fill="none" stroke="midnightblue" d="M345.984,-78.4052C357.671,-77.1157 369.63,-75.796 381.304,-74.5078"/>
<polygon fill="midnightblue" stroke="midnightblue" points="345.354,-74.9534 335.798,-79.5292 346.122,-81.9112 345.354,-74.9534"/>
</g>
<!-- Node9 -->
<g id="node10" class="node"><title>Node9</title>
<g id="a_node10"><a xlink:href="d4/dd3/classorg_1_1msrg_1_1raccoon_1_1engine_1_1CodingEngineEvent__NewThreadEvent.html" target="_top" xlink:title="org.msrg.raccoon.engine.\lCodingEngineEvent_NewThreadEvent">
<polygon fill="none" stroke="black" points="381,-0.5 381,-30.5 565,-30.5 565,-0.5 381,-0.5"/>
<text text-anchor="start" x="389" y="-18.5" font-family="Helvetica,sans-Serif" font-size="10.00">org.msrg.raccoon.engine.</text>
<text text-anchor="middle" x="473" y="-7.5" font-family="Helvetica,sans-Serif" font-size="10.00">CodingEngineEvent_NewThreadEvent</text>
</a>
</g>
</g>
<!-- Node6&#45;&gt;Node9 -->
<g id="edge9" class="edge"><title>Node6&#45;&gt;Node9</title>
<path fill="none" stroke="midnightblue" d="M299.25,-69.5566C323,-59.8789 352.819,-48.318 380,-39.5 389.735,-36.3418 400.15,-33.3057 410.346,-30.5177"/>
<polygon fill="midnightblue" stroke="midnightblue" points="297.722,-66.4003 289.802,-73.4374 300.382,-72.8754 297.722,-66.4003"/>
</g>
</g>
</svg>
