<?xml version="1.0" encoding="UTF-8" standalone="no"?>
<!DOCTYPE svg PUBLIC "-//W3C//DTD SVG 1.1//EN"
 "http://www.w3.org/Graphics/SVG/1.1/DTD/svg11.dtd">
<!-- Generated by graphviz version 2.38.0 (20140413.2041)
 -->
<!-- Title: Graphical Class Hierarchy Pages: 1 -->
<svg width="1107pt" height="655pt"
 viewBox="0.00 0.00 1107.00 654.50" xmlns="http://www.w3.org/2000/svg" xmlns:xlink="http://www.w3.org/1999/xlink">
<g id="graph0" class="graph" transform="scale(1 1) rotate(0) translate(4 650.5)">
<title>Graphical Class Hierarchy</title>
<!-- Node86 -->
<g id="node1" class="node"><title>Node86</title>
<polygon fill="none" stroke="#bfbfbf" points="208,-153 208,-172 267,-172 267,-153 208,-153"/>
<text text-anchor="middle" x="237.5" y="-160" font-family="Helvetica,sans-Serif" font-size="10.00">TestCase</text>
</g>
<!-- Node87 -->
<g id="node2" class="node"><title>Node87</title>
<g id="a_node2"><a xlink:href="db/d77/classorg_1_1msrg_1_1raccoon_1_1CodedBatchTest.html" target="_top" xlink:title="org.msrg.raccoon.CodedBatchTest">
<polygon fill="none" stroke="black" points="361.5,-235 361.5,-254 530.5,-254 530.5,-235 361.5,-235"/>
<text text-anchor="middle" x="446" y="-242" font-family="Helvetica,sans-Serif" font-size="10.00">org.msrg.raccoon.CodedBatchTest</text>
</a>
</g>
</g>
<!-- Node86&#45;&gt;Node87 -->
<g id="edge1" class="edge"><title>Node86&#45;&gt;Node87</title>
<path fill="none" stroke="midnightblue" d="M260.287,-177.931C281.654,-192.345 315.644,-213.404 348,-225.5 358.287,-229.346 369.493,-232.456 380.516,-234.959"/>
<polygon fill="midnightblue" stroke="midnightblue" points="262.17,-174.978 251.945,-172.205 258.21,-180.75 262.17,-174.978"/>
</g>
<!-- Node88 -->
<g id="node3" class="node"><title>Node88</title>
<g id="a_node3"><a xlink:href="d7/da5/classorg_1_1msrg_1_1raccoon_1_1CodedPieceTest.html" target="_top" xlink:title="org.msrg.raccoon.CodedPieceTest">
<polygon fill="none" stroke="black" points="362,-197 362,-216 530,-216 530,-197 362,-197"/>
<text text-anchor="middle" x="446" y="-204" font-family="Helvetica,sans-Serif" font-size="10.00">org.msrg.raccoon.CodedPieceTest</text>
</a>
</g>
</g>
<!-- Node86&#45;&gt;Node88 -->
<g id="edge2" class="edge"><title>Node86&#45;&gt;Node88</title>
<path fill="none" stroke="midnightblue" d="M277.115,-171.086C298.074,-175.716 324.443,-181.49 348,-186.5 364.314,-189.97 382.191,-193.681 398.105,-196.953"/>
<polygon fill="midnightblue" stroke="midnightblue" points="277.817,-167.657 267.297,-168.914 276.305,-174.492 277.817,-167.657"/>
</g>
<!-- Node3 -->
<g id="node4" class="node"><title>Node3</title>
<g id="a_node4"><a xlink:href="dc/dcf/classorg_1_1msrg_1_1raccoon_1_1engine_1_1CodingEngineTest.html" target="_top" xlink:title="org.msrg.raccoon.engine.\lCodingEngineTest">
<polygon fill="none" stroke="black" points="382.5,-273.5 382.5,-303.5 509.5,-303.5 509.5,-273.5 382.5,-273.5"/>
<text text-anchor="start" x="390.5" y="-291.5" font-family="Helvetica,sans-Serif" font-size="10.00">org.msrg.raccoon.engine.</text>
<text text-anchor="middle" x="446" y="-280.5" font-family="Helvetica,sans-Serif" font-size="10.00">CodingEngineTest</text>
</a>
</g>
</g>
<!-- Node86&#45;&gt;Node3 -->
<g id="edge3" class="edge"><title>Node86&#45;&gt;Node3</title>
<path fill="none" stroke="midnightblue" d="M252.616,-180.058C271.81,-202.748 308.324,-241.895 348,-263.5 358.615,-269.28 370.615,-273.764 382.467,-277.23"/>
<polygon fill="midnightblue" stroke="midnightblue" points="255.213,-177.706 246.138,-172.239 249.823,-182.172 255.213,-177.706"/>
</g>
<!-- Node89 -->
<g id="node5" class="node"><title>Node89</title>
<g id="a_node5"><a xlink:href="d5/d96/classorg_1_1msrg_1_1raccoon_1_1matrix_1_1finitefields_1_1ByteMatrixTest.html" target="_top" xlink:title="org.msrg.raccoon.matrix.finitefields.\lByteMatrixTest">
<polygon fill="none" stroke="black" points="359.5,-147.5 359.5,-177.5 532.5,-177.5 532.5,-147.5 359.5,-147.5"/>
<text text-anchor="start" x="367.5" y="-165.5" font-family="Helvetica,sans-Serif" font-size="10.00">org.msrg.raccoon.matrix.finitefields.</text>
<text text-anchor="middle" x="446" y="-154.5" font-family="Helvetica,sans-Serif" font-size="10.00">ByteMatrixTest</text>
</a>
</g>
</g>
<!-- Node86&#45;&gt;Node89 -->
<g id="edge4" class="edge"><title>Node86&#45;&gt;Node89</title>
<path fill="none" stroke="midnightblue" d="M277.324,-162.5C300.505,-162.5 330.904,-162.5 359.443,-162.5"/>
<polygon fill="midnightblue" stroke="midnightblue" points="277.213,-159 267.213,-162.5 277.213,-166 277.213,-159"/>
</g>
<!-- Node90 -->
<g id="node6" class="node"><title>Node90</title>
<g id="a_node6"><a xlink:href="d3/dbf/classorg_1_1msrg_1_1raccoon_1_1matrix_1_1finitefields_1_1FFByteMatrixTest.html" target="_top" xlink:title="org.msrg.raccoon.matrix.finitefields.\lFFByteMatrixTest">
<polygon fill="none" stroke="black" points="359.5,-98.5 359.5,-128.5 532.5,-128.5 532.5,-98.5 359.5,-98.5"/>
<text text-anchor="start" x="367.5" y="-116.5" font-family="Helvetica,sans-Serif" font-size="10.00">org.msrg.raccoon.matrix.finitefields.</text>
<text text-anchor="middle" x="446" y="-105.5" font-family="Helvetica,sans-Serif" font-size="10.00">FFByteMatrixTest</text>
</a>
</g>
</g>
<!-- Node86&#45;&gt;Node90 -->
<g id="edge5" class="edge"><title>Node86&#45;&gt;Node90</title>
<path fill="none" stroke="midnightblue" d="M277.089,-153.343C306.475,-146.37 347.556,-136.622 381.728,-128.514"/>
<polygon fill="midnightblue" stroke="midnightblue" points="276.135,-149.972 267.213,-155.687 277.751,-156.783 276.135,-149.972"/>
</g>
<!-- Node91 -->
<g id="node7" class="node"><title>Node91</title>
<g id="a_node7"><a xlink:href="db/d26/classorg_1_1msrg_1_1raccoon_1_1ReceivedCodedBatchTest.html" target="_top" xlink:title="org.msrg.raccoon.Received\lCodedBatchTest">
<polygon fill="none" stroke="black" points="377.5,-49.5 377.5,-79.5 514.5,-79.5 514.5,-49.5 377.5,-49.5"/>
<text text-anchor="start" x="385.5" y="-67.5" font-family="Helvetica,sans-Serif" font-size="10.00">org.msrg.raccoon.Received</text>
<text text-anchor="middle" x="446" y="-56.5" font-family="Helvetica,sans-Serif" font-size="10.00">CodedBatchTest</text>
</a>
</g>
</g>
<!-- Node86&#45;&gt;Node91 -->
<g id="edge6" class="edge"><title>Node86&#45;&gt;Node91</title>
<path fill="none" stroke="midnightblue" d="M257.64,-146.461C278.574,-129.693 313.727,-103.741 348,-88.5 357.273,-84.3764 367.373,-80.8841 377.439,-77.95"/>
<polygon fill="midnightblue" stroke="midnightblue" points="255.38,-143.788 249.837,-152.817 259.801,-149.215 255.38,-143.788"/>
</g>
<!-- Node92 -->
<g id="node8" class="node"><title>Node92</title>
<g id="a_node8"><a xlink:href="d7/d47/classorg_1_1msrg_1_1raccoon_1_1SlicedCodedBatchTest.html" target="_top" xlink:title="org.msrg.raccoon.SlicedCoded\lBatchTest">
<polygon fill="none" stroke="black" points="370.5,-0.5 370.5,-30.5 521.5,-30.5 521.5,-0.5 370.5,-0.5"/>
<text text-anchor="start" x="378.5" y="-18.5" font-family="Helvetica,sans-Serif" font-size="10.00">org.msrg.raccoon.SlicedCoded</text>
<text text-anchor="middle" x="446" y="-7.5" font-family="Helvetica,sans-Serif" font-size="10.00">BatchTest</text>
</a>
</g>
</g>
<!-- Node86&#45;&gt;Node92 -->
<g id="edge7" class="edge"><title>Node86&#45;&gt;Node92</title>
<path fill="none" stroke="midnightblue" d="M249.609,-144.165C267.064,-116.982 303.55,-66.3246 348,-39.5 354.907,-35.332 362.505,-31.8863 370.315,-29.038"/>
<polygon fill="midnightblue" stroke="midnightblue" points="246.591,-142.39 244.247,-152.723 252.523,-146.107 246.591,-142.39"/>
</g>
<!-- Node57 -->
<g id="node9" class="node"><title>Node57</title>
<g id="a_node9"><a xlink:href="d9/d22/classorg_1_1msrg_1_1raccoon_1_1engine_1_1task_1_1CodingTask.html" target="_top" xlink:title="org.msrg.raccoon.engine.task.\lCodingTask">
<polygon fill="none" stroke="black" points="163,-493.5 163,-523.5 312,-523.5 312,-493.5 163,-493.5"/>
<text text-anchor="start" x="171" y="-511.5" font-family="Helvetica,sans-Serif" font-size="10.00">org.msrg.raccoon.engine.task.</text>
<text text-anchor="middle" x="237.5" y="-500.5" font-family="Helvetica,sans-Serif" font-size="10.00">CodingTask</text>
</a>
</g>
</g>
<!-- Node58 -->
<g id="node10" class="node"><title>Node58</title>
<g id="a_node10"><a xlink:href="d5/db1/classorg_1_1msrg_1_1raccoon_1_1engine_1_1task_1_1Inverse__CodingTask.html" target="_top" xlink:title="org.msrg.raccoon.engine.task.\lInverse_CodingTask">
<polygon fill="none" stroke="black" points="371.5,-567.5 371.5,-597.5 520.5,-597.5 520.5,-567.5 371.5,-567.5"/>
<text text-anchor="start" x="379.5" y="-585.5" font-family="Helvetica,sans-Serif" font-size="10.00">org.msrg.raccoon.engine.task.</text>
<text text-anchor="middle" x="446" y="-574.5" font-family="Helvetica,sans-Serif" font-size="10.00">Inverse_CodingTask</text>
</a>
</g>
</g>
<!-- Node57&#45;&gt;Node58 -->
<g id="edge8" class="edge"><title>Node57&#45;&gt;Node58</title>
<path fill="none" stroke="midnightblue" d="M277.685,-527.968C298.276,-537.701 324.133,-549.151 348,-557.5 358.342,-561.118 369.468,-564.469 380.366,-567.465"/>
<polygon fill="midnightblue" stroke="midnightblue" points="279.152,-524.79 268.62,-523.635 276.133,-531.106 279.152,-524.79"/>
</g>
<!-- Node59 -->
<g id="node11" class="node"><title>Node59</title>
<g id="a_node11"><a xlink:href="da/d68/classorg_1_1msrg_1_1raccoon_1_1engine_1_1task_1_1Multiply__CodingTask.html" target="_top" xlink:title="org.msrg.raccoon.engine.task.\lMultiply_CodingTask">
<polygon fill="none" stroke="black" points="371.5,-518.5 371.5,-548.5 520.5,-548.5 520.5,-518.5 371.5,-518.5"/>
<text text-anchor="start" x="379.5" y="-536.5" font-family="Helvetica,sans-Serif" font-size="10.00">org.msrg.raccoon.engine.task.</text>
<text text-anchor="middle" x="446" y="-525.5" font-family="Helvetica,sans-Serif" font-size="10.00">Multiply_CodingTask</text>
</a>
</g>
</g>
<!-- Node57&#45;&gt;Node59 -->
<g id="edge9" class="edge"><title>Node57&#45;&gt;Node59</title>
<path fill="none" stroke="midnightblue" d="M322.208,-518.634C338.483,-520.604 355.43,-522.656 371.352,-524.584"/>
<polygon fill="midnightblue" stroke="midnightblue" points="322.525,-515.147 312.177,-517.42 321.684,-522.096 322.525,-515.147"/>
</g>
<!-- Node4 -->
<g id="node12" class="node"><title>Node4</title>
<g id="a_node12"><a xlink:href="d6/d78/classorg_1_1msrg_1_1raccoon_1_1engine_1_1task_1_1sequential_1_1SequentialCodingTask.html" target="_top" xlink:title="org.msrg.raccoon.engine.task.sequential.\lSequentialCodingTask">
<polygon fill="none" stroke="black" points="348,-420.5 348,-450.5 544,-450.5 544,-420.5 348,-420.5"/>
<text text-anchor="start" x="356" y="-438.5" font-family="Helvetica,sans-Serif" font-size="10.00">org.msrg.raccoon.engine.task.sequential.</text>
<text text-anchor="middle" x="446" y="-427.5" font-family="Helvetica,sans-Serif" font-size="10.00">SequentialCodingTask</text>
</a>
</g>
</g>
<!-- Node57&#45;&gt;Node4 -->
<g id="edge10" class="edge"><title>Node57&#45;&gt;Node4</title>
<path fill="none" stroke="midnightblue" d="M277.651,-488.936C298.234,-479.178 324.093,-467.733 348,-459.5 357.432,-456.252 367.52,-453.252 377.494,-450.553"/>
<polygon fill="midnightblue" stroke="midnightblue" points="276.093,-485.801 268.592,-493.283 279.122,-492.112 276.093,-485.801"/>
</g>
<!-- Node60 -->
<g id="node22" class="node"><title>Node60</title>
<g id="a_node22"><a xlink:href="d9/d33/classorg_1_1msrg_1_1raccoon_1_1engine_1_1task_1_1SlicesEqual__CodingTask.html" target="_top" xlink:title="org.msrg.raccoon.engine.task.\lSlicesEqual_CodingTask">
<polygon fill="none" stroke="black" points="371.5,-469.5 371.5,-499.5 520.5,-499.5 520.5,-469.5 371.5,-469.5"/>
<text text-anchor="start" x="379.5" y="-487.5" font-family="Helvetica,sans-Serif" font-size="10.00">org.msrg.raccoon.engine.task.</text>
<text text-anchor="middle" x="446" y="-476.5" font-family="Helvetica,sans-Serif" font-size="10.00">SlicesEqual_CodingTask</text>
</a>
</g>
</g>
<!-- Node57&#45;&gt;Node60 -->
<g id="edge20" class="edge"><title>Node57&#45;&gt;Node60</title>
<path fill="none" stroke="midnightblue" d="M322.208,-498.771C338.483,-496.88 355.43,-494.91 371.352,-493.06"/>
<polygon fill="midnightblue" stroke="midnightblue" points="321.706,-495.306 312.177,-499.937 322.514,-502.259 321.706,-495.306"/>
</g>
<!-- Node5 -->
<g id="node13" class="node"><title>Node5</title>
<g id="a_node13"><a xlink:href="dc/d76/classorg_1_1msrg_1_1raccoon_1_1engine_1_1task_1_1sequential_1_1BulkMatrixEqual__CodingTask.html" target="_top" xlink:title="org.msrg.raccoon.engine.task.sequential.\lBulkMatrixEqual_CodingTask">
<polygon fill="none" stroke="black" points="595.5,-445.5 595.5,-475.5 791.5,-475.5 791.5,-445.5 595.5,-445.5"/>
<text text-anchor="start" x="603.5" y="-463.5" font-family="Helvetica,sans-Serif" font-size="10.00">org.msrg.raccoon.engine.task.sequential.</text>
<text text-anchor="middle" x="693.5" y="-452.5" font-family="Helvetica,sans-Serif" font-size="10.00">BulkMatrixEqual_CodingTask</text>
</a>
</g>
</g>
<!-- Node4&#45;&gt;Node5 -->
<g id="edge11" class="edge"><title>Node4&#45;&gt;Node5</title>
<path fill="none" stroke="midnightblue" d="M553.991,-446.395C567.752,-447.797 581.782,-449.225 595.373,-450.609"/>
<polygon fill="midnightblue" stroke="midnightblue" points="554.331,-442.912 544.028,-445.381 553.622,-449.876 554.331,-442.912"/>
</g>
<!-- Node6 -->
<g id="node14" class="node"><title>Node6</title>
<g id="a_node14"><a xlink:href="d3/d36/classorg_1_1msrg_1_1raccoon_1_1engine_1_1task_1_1sequential_1_1Decoding__SequentialCodingTask.html" target="_top" xlink:title="org.msrg.raccoon.engine.task.sequential.\lDecoding_SequentialCodingTask">
<polygon fill="none" stroke="black" points="595.5,-396.5 595.5,-426.5 791.5,-426.5 791.5,-396.5 595.5,-396.5"/>
<text text-anchor="start" x="603.5" y="-414.5" font-family="Helvetica,sans-Serif" font-size="10.00">org.msrg.raccoon.engine.task.sequential.</text>
<text text-anchor="middle" x="693.5" y="-403.5" font-family="Helvetica,sans-Serif" font-size="10.00">Decoding_SequentialCodingTask</text>
</a>
</g>
</g>
<!-- Node4&#45;&gt;Node6 -->
<g id="edge12" class="edge"><title>Node4&#45;&gt;Node6</title>
<path fill="none" stroke="midnightblue" d="M553.991,-425.041C567.752,-423.695 581.782,-422.324 595.373,-420.995"/>
<polygon fill="midnightblue" stroke="midnightblue" points="553.64,-421.558 544.028,-426.015 554.321,-428.525 553.64,-421.558"/>
</g>
<!-- Node7 -->
<g id="node15" class="node"><title>Node7</title>
<g id="a_node15"><a xlink:href="dd/db2/classorg_1_1msrg_1_1raccoon_1_1engine_1_1task_1_1sequential_1_1Encoding__SequentialCodingTask.html" target="_top" xlink:title="org.msrg.raccoon.engine.task.sequential.\lEncoding_SequentialCodingTask">
<polygon fill="none" stroke="black" points="595.5,-347.5 595.5,-377.5 791.5,-377.5 791.5,-347.5 595.5,-347.5"/>
<text text-anchor="start" x="603.5" y="-365.5" font-family="Helvetica,sans-Serif" font-size="10.00">org.msrg.raccoon.engine.task.sequential.</text>
<text text-anchor="middle" x="693.5" y="-354.5" font-family="Helvetica,sans-Serif" font-size="10.00">Encoding_SequentialCodingTask</text>
</a>
</g>
</g>
<!-- Node4&#45;&gt;Node7 -->
<g id="edge13" class="edge"><title>Node4&#45;&gt;Node7</title>
<path fill="none" stroke="midnightblue" d="M492.88,-416.754C518.266,-406.851 550.55,-395.019 580,-386.5 591.223,-383.254 603.191,-380.238 614.978,-377.516"/>
<polygon fill="midnightblue" stroke="midnightblue" points="491.531,-413.524 483.508,-420.444 494.095,-420.037 491.531,-413.524"/>
</g>
<!-- Node10 -->
<g id="node18" class="node"><title>Node10</title>
<g id="a_node18"><a xlink:href="de/d11/classorg_1_1msrg_1_1raccoon_1_1engine_1_1task_1_1sequential_1_1EncodingDecodingEqual__SequentialCodingTask.html" target="_top" xlink:title="org.msrg.raccoon.engine.task.sequential.\lEncodingDecodingEqual_SequentialCodingTask">
<polygon fill="none" stroke="black" points="580,-298.5 580,-328.5 807,-328.5 807,-298.5 580,-298.5"/>
<text text-anchor="start" x="588" y="-316.5" font-family="Helvetica,sans-Serif" font-size="10.00">org.msrg.raccoon.engine.task.sequential.</text>
<text text-anchor="middle" x="693.5" y="-305.5" font-family="Helvetica,sans-Serif" font-size="10.00">EncodingDecodingEqual_SequentialCodingTask</text>
</a>
</g>
</g>
<!-- Node4&#45;&gt;Node10 -->
<g id="edge16" class="edge"><title>Node4&#45;&gt;Node10</title>
<path fill="none" stroke="midnightblue" d="M474.537,-414.24C510.011,-387.004 568.497,-342.673 580,-337.5 587.65,-334.06 595.818,-331.103 604.128,-328.562"/>
<polygon fill="midnightblue" stroke="midnightblue" points="472.278,-411.561 466.485,-420.431 476.545,-417.11 472.278,-411.561"/>
</g>
<!-- Node11 -->
<g id="node19" class="node"><title>Node11</title>
<g id="a_node19"><a xlink:href="d5/daf/classorg_1_1msrg_1_1raccoon_1_1engine_1_1task_1_1sequential_1_1EncodingReceivedEncodingDecodingEqual__SequentialCodingTask.html" target="_top" xlink:title="org.msrg.raccoon.engine.task.sequential.\lEncodingReceivedEncodingDecodingEqual\l_SequentialCodingTask">
<polygon fill="none" stroke="black" points="591,-605 591,-646 796,-646 796,-605 591,-605"/>
<text text-anchor="start" x="599" y="-634" font-family="Helvetica,sans-Serif" font-size="10.00">org.msrg.raccoon.engine.task.sequential.</text>
<text text-anchor="start" x="599" y="-623" font-family="Helvetica,sans-Serif" font-size="10.00">EncodingReceivedEncodingDecodingEqual</text>
<text text-anchor="middle" x="693.5" y="-612" font-family="Helvetica,sans-Serif" font-size="10.00">_SequentialCodingTask</text>
</a>
</g>
</g>
<!-- Node4&#45;&gt;Node11 -->
<g id="edge17" class="edge"><title>Node4&#45;&gt;Node11</title>
<path fill="none" stroke="midnightblue" d="M540.983,-456.735C542.019,-457.622 543.025,-458.543 544,-459.5 588.304,-503.011 536.273,-550.41 580,-594.5 583.923,-598.456 588.302,-601.919 592.992,-604.951"/>
<polygon fill="midnightblue" stroke="midnightblue" points="542.676,-453.639 532.526,-450.602 538.566,-459.306 542.676,-453.639"/>
</g>
<!-- Node12 -->
<g id="node20" class="node"><title>Node12</title>
<g id="a_node20"><a xlink:href="df/d07/classorg_1_1msrg_1_1raccoon_1_1engine_1_1task_1_1sequential_1_1MultiplyBulkMatrix__SequentialCodingTask.html" target="_top" xlink:title="org.msrg.raccoon.engine.task.sequential.\lMultiplyBulkMatrix_SequentialCodingTask">
<polygon fill="none" stroke="black" points="593.5,-555.5 593.5,-585.5 793.5,-585.5 793.5,-555.5 593.5,-555.5"/>
<text text-anchor="start" x="601.5" y="-573.5" font-family="Helvetica,sans-Serif" font-size="10.00">org.msrg.raccoon.engine.task.sequential.</text>
<text text-anchor="middle" x="693.5" y="-562.5" font-family="Helvetica,sans-Serif" font-size="10.00">MultiplyBulkMatrix_SequentialCodingTask</text>
</a>
</g>
</g>
<!-- Node4&#45;&gt;Node12 -->
<g id="edge18" class="edge"><title>Node4&#45;&gt;Node12</title>
<path fill="none" stroke="midnightblue" d="M539.787,-456.17C541.235,-457.227 542.641,-458.336 544,-459.5 575.465,-486.461 548.215,-518.917 580,-545.5 584.604,-549.351 589.674,-552.642 595.038,-555.453"/>
<polygon fill="midnightblue" stroke="midnightblue" points="541.4,-453.049 531.076,-450.671 537.664,-458.969 541.4,-453.049"/>
</g>
<!-- Node13 -->
<g id="node21" class="node"><title>Node13</title>
<g id="a_node21"><a xlink:href="d4/d5e/classorg_1_1msrg_1_1raccoon_1_1engine_1_1task_1_1sequential_1_1MultiplyInverseMultiplyEqual__SequentialCodingTask.html" target="_top" xlink:title="org.msrg.raccoon.engine.task.sequential.\lMultiplyInverseMultiplyEqual_Sequential\lCodingTask">
<polygon fill="none" stroke="black" points="595.5,-495 595.5,-536 791.5,-536 791.5,-495 595.5,-495"/>
<text text-anchor="start" x="603.5" y="-524" font-family="Helvetica,sans-Serif" font-size="10.00">org.msrg.raccoon.engine.task.sequential.</text>
<text text-anchor="start" x="603.5" y="-513" font-family="Helvetica,sans-Serif" font-size="10.00">MultiplyInverseMultiplyEqual_Sequential</text>
<text text-anchor="middle" x="693.5" y="-502" font-family="Helvetica,sans-Serif" font-size="10.00">CodingTask</text>
</a>
</g>
</g>
<!-- Node4&#45;&gt;Node13 -->
<g id="edge19" class="edge"><title>Node4&#45;&gt;Node13</title>
<path fill="none" stroke="midnightblue" d="M529.763,-453.765C534.644,-455.522 539.425,-457.431 544,-459.5 561.749,-467.528 562.359,-476.239 580,-484.5 588.256,-488.366 597.086,-491.831 606.033,-494.916"/>
<polygon fill="midnightblue" stroke="midnightblue" points="530.874,-450.446 520.28,-450.57 528.639,-457.08 530.874,-450.446"/>
</g>
<!-- Node8 -->
<g id="node16" class="node"><title>Node8</title>
<g id="a_node16"><a xlink:href="d4/daf/classorg_1_1msrg_1_1raccoon_1_1engine_1_1task_1_1sequential_1_1EncodingReceivedCodedBatch__SequentialCodingTask.html" target="_top" xlink:title="org.msrg.raccoon.engine.task.sequential.\lEncodingReceivedCodedBatch_SequentialCodingTask">
<polygon fill="none" stroke="black" points="843,-372.5 843,-402.5 1099,-402.5 1099,-372.5 843,-372.5"/>
<text text-anchor="start" x="851" y="-390.5" font-family="Helvetica,sans-Serif" font-size="10.00">org.msrg.raccoon.engine.task.sequential.</text>
<text text-anchor="middle" x="971" y="-379.5" font-family="Helvetica,sans-Serif" font-size="10.00">EncodingReceivedCodedBatch_SequentialCodingTask</text>
</a>
</g>
</g>
<!-- Node7&#45;&gt;Node8 -->
<g id="edge14" class="edge"><title>Node7&#45;&gt;Node8</title>
<path fill="none" stroke="midnightblue" d="M801.83,-372.24C815.282,-373.46 829.142,-374.718 842.861,-375.963"/>
<polygon fill="midnightblue" stroke="midnightblue" points="801.906,-368.732 791.631,-371.314 801.274,-375.704 801.906,-368.732"/>
</g>
<!-- Node9 -->
<g id="node17" class="node"><title>Node9</title>
<g id="a_node17"><a xlink:href="d0/d6b/classorg_1_1msrg_1_1raccoon_1_1engine_1_1task_1_1sequential_1_1EncodingSourceCodedBatch__SequentialCodingTask.html" target="_top" xlink:title="org.msrg.raccoon.engine.task.sequential.\lEncodingSourceCodedBatch_SequentialCodingTask">
<polygon fill="none" stroke="black" points="848.5,-323.5 848.5,-353.5 1093.5,-353.5 1093.5,-323.5 848.5,-323.5"/>
<text text-anchor="start" x="856.5" y="-341.5" font-family="Helvetica,sans-Serif" font-size="10.00">org.msrg.raccoon.engine.task.sequential.</text>
<text text-anchor="middle" x="971" y="-330.5" font-family="Helvetica,sans-Serif" font-size="10.00">EncodingSourceCodedBatch_SequentialCodingTask</text>
</a>
</g>
</g>
<!-- Node7&#45;&gt;Node9 -->
<g id="edge15" class="edge"><title>Node7&#45;&gt;Node9</title>
<path fill="none" stroke="midnightblue" d="M802.015,-353.134C817.145,-351.816 832.788,-350.453 848.162,-349.114"/>
<polygon fill="midnightblue" stroke="midnightblue" points="801.289,-349.684 791.631,-354.038 801.897,-356.657 801.289,-349.684"/>
</g>
<!-- Node43 -->
<g id="node23" class="node"><title>Node43</title>
<g id="a_node23"><a xlink:href="dd/dff/interfaceorg_1_1msrg_1_1raccoon_1_1engine_1_1ICodingEngine.html" target="_top" xlink:title="org.msrg.raccoon.engine.\lICodingEngine">
<polygon fill="none" stroke="black" points="0,-297.5 0,-327.5 127,-327.5 127,-297.5 0,-297.5"/>
<text text-anchor="start" x="8" y="-315.5" font-family="Helvetica,sans-Serif" font-size="10.00">org.msrg.raccoon.engine.</text>
<text text-anchor="middle" x="63.5" y="-304.5" font-family="Helvetica,sans-Serif" font-size="10.00">ICodingEngine</text>
</a>
</g>
</g>
<!-- Node44 -->
<g id="node24" class="node"><title>Node44</title>
<g id="a_node24"><a xlink:href="db/d98/classorg_1_1msrg_1_1raccoon_1_1engine_1_1CodingEngine.html" target="_top" xlink:title="This abstract class implements ICodingEngine and deals with management of the engine&#39;s worker threads...">
<polygon fill="none" stroke="black" points="174,-297.5 174,-327.5 301,-327.5 301,-297.5 174,-297.5"/>
<text text-anchor="start" x="182" y="-315.5" font-family="Helvetica,sans-Serif" font-size="10.00">org.msrg.raccoon.engine.</text>
<text text-anchor="middle" x="237.5" y="-304.5" font-family="Helvetica,sans-Serif" font-size="10.00">CodingEngine</text>
</a>
</g>
</g>
<!-- Node43&#45;&gt;Node44 -->
<g id="edge21" class="edge"><title>Node43&#45;&gt;Node44</title>
<path fill="none" stroke="midnightblue" d="M137.236,-312.5C149.452,-312.5 162.034,-312.5 173.964,-312.5"/>
<polygon fill="midnightblue" stroke="midnightblue" points="137.083,-309 127.083,-312.5 137.082,-316 137.083,-309"/>
</g>
<!-- Node1 -->
<g id="node25" class="node"><title>Node1</title>
<g id="a_node25"><a xlink:href="d2/d9a/classorg_1_1msrg_1_1raccoon_1_1engine_1_1CodingEngineImpl.html" target="_top" xlink:title="org.msrg.raccoon.engine.\lCodingEngineImpl">
<polygon fill="none" stroke="black" points="382.5,-322.5 382.5,-352.5 509.5,-352.5 509.5,-322.5 382.5,-322.5"/>
<text text-anchor="start" x="390.5" y="-340.5" font-family="Helvetica,sans-Serif" font-size="10.00">org.msrg.raccoon.engine.</text>
<text text-anchor="middle" x="446" y="-329.5" font-family="Helvetica,sans-Serif" font-size="10.00">CodingEngineImpl</text>
</a>
</g>
</g>
<!-- Node44&#45;&gt;Node1 -->
<g id="edge22" class="edge"><title>Node44&#45;&gt;Node1</title>
<path fill="none" stroke="midnightblue" d="M311.162,-321.297C334.39,-324.109 359.887,-327.196 382.339,-329.914"/>
<polygon fill="midnightblue" stroke="midnightblue" points="311.365,-317.796 301.017,-320.069 310.524,-324.745 311.365,-317.796"/>
</g>
<!-- Node2 -->
<g id="node26" class="node"><title>Node2</title>
<g id="a_node26"><a xlink:href="d1/d97/classorg_1_1msrg_1_1raccoon_1_1engine_1_1CodingEngine__ForTest.html" target="_top" xlink:title="org.msrg.raccoon.engine.\lCodingEngine_ForTest">
<polygon fill="none" stroke="black" points="630,-249.5 630,-279.5 757,-279.5 757,-249.5 630,-249.5"/>
<text text-anchor="start" x="638" y="-267.5" font-family="Helvetica,sans-Serif" font-size="10.00">org.msrg.raccoon.engine.</text>
<text text-anchor="middle" x="693.5" y="-256.5" font-family="Helvetica,sans-Serif" font-size="10.00">CodingEngine_ForTest</text>
</a>
</g>
</g>
<!-- Node1&#45;&gt;Node2 -->
<g id="edge23" class="edge"><title>Node1&#45;&gt;Node2</title>
<path fill="none" stroke="midnightblue" d="M519.229,-321.781C527.725,-319.087 536.155,-316.004 544,-312.5 561.557,-304.657 562.282,-295.972 580,-288.5 595.641,-281.904 613.298,-277.042 629.908,-273.49"/>
<polygon fill="midnightblue" stroke="midnightblue" points="518.208,-318.433 509.635,-324.658 520.219,-325.138 518.208,-318.433"/>
</g>
<!-- Node0 -->
<g id="node27" class="node"><title>Node0</title>
<g id="a_node27"><a xlink:href="d6/d58/interfaceorg_1_1msrg_1_1raccoon_1_1engine_1_1ICodingListener.html" target="_top" xlink:title="org.msrg.raccoon.engine.\lICodingListener">
<polygon fill="none" stroke="black" points="174,-346.5 174,-376.5 301,-376.5 301,-346.5 174,-346.5"/>
<text text-anchor="start" x="182" y="-364.5" font-family="Helvetica,sans-Serif" font-size="10.00">org.msrg.raccoon.engine.</text>
<text text-anchor="middle" x="237.5" y="-353.5" font-family="Helvetica,sans-Serif" font-size="10.00">ICodingListener</text>
</a>
</g>
</g>
<!-- Node0&#45;&gt;Node3 -->
<g id="edge25" class="edge"><title>Node0&#45;&gt;Node3</title>
<path fill="none" stroke="midnightblue" d="M298.321,-342.632C303.01,-340.706 307.621,-338.658 312,-336.5 329.248,-327.999 330.405,-320.258 348,-312.5 358.794,-307.741 370.698,-303.816 382.36,-300.619"/>
<polygon fill="midnightblue" stroke="midnightblue" points="296.678,-339.515 288.632,-346.409 299.221,-346.037 296.678,-339.515"/>
</g>
<!-- Node0&#45;&gt;Node4 -->
<g id="edge26" class="edge"><title>Node0&#45;&gt;Node4</title>
<path fill="none" stroke="midnightblue" d="M290.069,-379.98C324.928,-392.472 370.376,-408.758 403.022,-420.457"/>
<polygon fill="midnightblue" stroke="midnightblue" points="291.132,-376.643 280.537,-376.564 288.77,-383.233 291.132,-376.643"/>
</g>
<!-- Node0&#45;&gt;Node1 -->
<g id="edge24" class="edge"><title>Node0&#45;&gt;Node1</title>
<path fill="none" stroke="midnightblue" d="M311.162,-353.055C334.39,-350.355 359.887,-347.392 382.339,-344.783"/>
<polygon fill="midnightblue" stroke="midnightblue" points="310.546,-349.603 301.017,-354.234 311.354,-356.556 310.546,-349.603"/>
</g>
</g>
</svg>
