<?xml version="1.0" encoding="UTF-8" standalone="no"?>
<!DOCTYPE svg PUBLIC "-//W3C//DTD SVG 1.1//EN"
 "http://www.w3.org/Graphics/SVG/1.1/DTD/svg11.dtd">
<!-- Generated by graphviz version 2.38.0 (20140413.2041)
 -->
<!-- Title: Graphical Class Hierarchy Pages: 1 -->
<svg width="441pt" height="88pt"
 viewBox="0.00 0.00 441.00 88.00" xmlns="http://www.w3.org/2000/svg" xmlns:xlink="http://www.w3.org/1999/xlink">
<g id="graph0" class="graph" transform="scale(1 1) rotate(0) translate(4 84)">
<title>Graphical Class Hierarchy</title>
<!-- Node15 -->
<g id="node1" class="node"><title>Node15</title>
<polygon fill="none" stroke="#bfbfbf" points="0,-30 0,-49 47,-49 47,-30 0,-30"/>
<text text-anchor="middle" x="23.5" y="-37" font-family="Helvetica,sans-Serif" font-size="10.00">Thread</text>
</g>
<!-- Node0 -->
<g id="node2" class="node"><title>Node0</title>
<g id="a_node2"><a xlink:href="d0/d4e/classorg_1_1msrg_1_1raccoon_1_1engine_1_1CodingEngine_1_1MyThread.html" target="_top" xlink:title="org.msrg.raccoon.engine.\lCodingEngine.MyThread">
<polygon fill="none" stroke="black" points="98,-49.5 98,-79.5 225,-79.5 225,-49.5 98,-49.5"/>
<text text-anchor="start" x="106" y="-67.5" font-family="Helvetica,sans-Serif" font-size="10.00">org.msrg.raccoon.engine.</text>
<text text-anchor="middle" x="161.5" y="-56.5" font-family="Helvetica,sans-Serif" font-size="10.00">CodingEngine.MyThread</text>
</a>
</g>
</g>
<!-- Node15&#45;&gt;Node0 -->
<g id="edge1" class="edge"><title>Node15&#45;&gt;Node0</title>
<path fill="none" stroke="midnightblue" d="M57.3727,-45.5428C69.5513,-47.7815 83.8021,-50.4011 97.756,-52.9662"/>
<polygon fill="midnightblue" stroke="midnightblue" points="57.7314,-42.0501 47.2633,-43.6844 56.4657,-48.9348 57.7314,-42.0501"/>
</g>
<!-- Node17 -->
<g id="node3" class="node"><title>Node17</title>
<g id="a_node3"><a xlink:href="d1/da4/classorg_1_1msrg_1_1raccoon_1_1engine_1_1thread_1_1CodingThread.html" target="_top" xlink:title="org.msrg.raccoon.engine.thread.\lCodingThread">
<polygon fill="none" stroke="black" points="83,-0.5 83,-30.5 240,-30.5 240,-0.5 83,-0.5"/>
<text text-anchor="start" x="91" y="-18.5" font-family="Helvetica,sans-Serif" font-size="10.00">org.msrg.raccoon.engine.thread.</text>
<text text-anchor="middle" x="161.5" y="-7.5" font-family="Helvetica,sans-Serif" font-size="10.00">CodingThread</text>
</a>
</g>
</g>
<!-- Node15&#45;&gt;Node17 -->
<g id="edge2" class="edge"><title>Node15&#45;&gt;Node17</title>
<path fill="none" stroke="midnightblue" d="M57.3406,-33.7046C65.1632,-32.3241 73.842,-30.7926 82.7488,-29.2208"/>
<polygon fill="midnightblue" stroke="midnightblue" points="56.5029,-30.2983 47.2633,-35.4829 57.7195,-37.1917 56.5029,-30.2983"/>
</g>
<!-- Node18 -->
<g id="node4" class="node"><title>Node18</title>
<g id="a_node4"><a xlink:href="d6/d19/classorg_1_1msrg_1_1raccoon_1_1engine_1_1thread_1_1CodingThreadImpl.html" target="_top" xlink:title="org.msrg.raccoon.engine.thread.\lCodingThreadImpl">
<polygon fill="none" stroke="black" points="276,-0.5 276,-30.5 433,-30.5 433,-0.5 276,-0.5"/>
<text text-anchor="start" x="284" y="-18.5" font-family="Helvetica,sans-Serif" font-size="10.00">org.msrg.raccoon.engine.thread.</text>
<text text-anchor="middle" x="354.5" y="-7.5" font-family="Helvetica,sans-Serif" font-size="10.00">CodingThreadImpl</text>
</a>
</g>
</g>
<!-- Node17&#45;&gt;Node18 -->
<g id="edge3" class="edge"><title>Node17&#45;&gt;Node18</title>
<path fill="none" stroke="midnightblue" d="M250.193,-15.5C258.765,-15.5 267.42,-15.5 275.882,-15.5"/>
<polygon fill="midnightblue" stroke="midnightblue" points="250.187,-12.0001 240.187,-15.5 250.187,-19.0001 250.187,-12.0001"/>
</g>
</g>
</svg>
