<?xml version="1.0" encoding="UTF-8" standalone="no"?>
<!DOCTYPE svg PUBLIC "-//W3C//DTD SVG 1.1//EN"
 "http://www.w3.org/Graphics/SVG/1.1/DTD/svg11.dtd">
<!-- Generated by graphviz version 2.38.0 (20140413.2041)
 -->
<!-- Title: Graphical Class Hierarchy Pages: 1 -->
<svg width="574pt" height="294pt"
 viewBox="0.00 0.00 574.00 294.00" xmlns="http://www.w3.org/2000/svg" xmlns:xlink="http://www.w3.org/1999/xlink">
<g id="graph0" class="graph" transform="scale(1 1) rotate(0) translate(4 290)">
<title>Graphical Class Hierarchy</title>
<!-- Node1 -->
<g id="node1" class="node"><title>Node1</title>
<g id="a_node1"><a xlink:href="d3/db5/classorg_1_1msrg_1_1raccoon_1_1engine_1_1CodingEngineEvent.html" target="_top" xlink:title="org.msrg.raccoon.engine.\lCodingEngineEvent">
<polygon fill="none" stroke="black" points="0,-179.5 0,-209.5 127,-209.5 127,-179.5 0,-179.5"/>
<text text-anchor="start" x="8" y="-197.5" font-family="Helvetica,sans-Serif" font-size="10.00">org.msrg.raccoon.engine.</text>
<text text-anchor="middle" x="63.5" y="-186.5" font-family="Helvetica,sans-Serif" font-size="10.00">CodingEngineEvent</text>
</a>
</g>
</g>
<!-- Node2 -->
<g id="node2" class="node"><title>Node2</title>
<g id="a_node2"><a xlink:href="da/d4b/classorg_1_1msrg_1_1raccoon_1_1engine_1_1CodingEngineEvent__ExecutionEvent.html" target="_top" xlink:title="org.msrg.raccoon.engine.\lCodingEngineEvent_ExecutionEvent">
<polygon fill="none" stroke="black" points="165,-255.5 165,-285.5 342,-285.5 342,-255.5 165,-255.5"/>
<text text-anchor="start" x="173" y="-273.5" font-family="Helvetica,sans-Serif" font-size="10.00">org.msrg.raccoon.engine.</text>
<text text-anchor="middle" x="253.5" y="-262.5" font-family="Helvetica,sans-Serif" font-size="10.00">CodingEngineEvent_ExecutionEvent</text>
</a>
</g>
</g>
<!-- Node1&#45;&gt;Node2 -->
<g id="edge1" class="edge"><title>Node1&#45;&gt;Node2</title>
<path fill="none" stroke="midnightblue" d="M97.9795,-214.578C116.636,-225.146 140.568,-237.7 163,-246.5 171.387,-249.79 180.387,-252.789 189.331,-255.467"/>
<polygon fill="midnightblue" stroke="midnightblue" points="99.6883,-211.524 89.2742,-209.575 96.2002,-217.593 99.6883,-211.524"/>
</g>
<!-- Node3 -->
<g id="node3" class="node"><title>Node3</title>
<g id="a_node3"><a xlink:href="d1/d5b/classorg_1_1msrg_1_1raccoon_1_1engine_1_1CodingEngineEvent__NewCodingTask.html" target="_top" xlink:title="org.msrg.raccoon.engine.\lCodingEngineEvent_NewCodingTask">
<polygon fill="none" stroke="black" points="163,-206.5 163,-236.5 344,-236.5 344,-206.5 163,-206.5"/>
<text text-anchor="start" x="171" y="-224.5" font-family="Helvetica,sans-Serif" font-size="10.00">org.msrg.raccoon.engine.</text>
<text text-anchor="middle" x="253.5" y="-213.5" font-family="Helvetica,sans-Serif" font-size="10.00">CodingEngineEvent_NewCodingTask</text>
</a>
</g>
</g>
<!-- Node1&#45;&gt;Node3 -->
<g id="edge2" class="edge"><title>Node1&#45;&gt;Node3</title>
<path fill="none" stroke="midnightblue" d="M137.169,-204.936C145.535,-206.138 154.139,-207.374 162.696,-208.603"/>
<polygon fill="midnightblue" stroke="midnightblue" points="137.497,-201.448 127.101,-203.491 136.502,-208.377 137.497,-201.448"/>
</g>
<!-- Node4 -->
<g id="node4" class="node"><title>Node4</title>
<g id="a_node4"><a xlink:href="d8/d0c/classorg_1_1msrg_1_1raccoon_1_1engine_1_1CodingEngineEvent__SequentialCodingTaskEvents.html" target="_top" xlink:title="org.msrg.raccoon.engine.\lCodingEngineEvent_Sequential\lCodingTaskEvents">
<polygon fill="none" stroke="black" points="176.5,-147 176.5,-188 330.5,-188 330.5,-147 176.5,-147"/>
<text text-anchor="start" x="184.5" y="-176" font-family="Helvetica,sans-Serif" font-size="10.00">org.msrg.raccoon.engine.</text>
<text text-anchor="start" x="184.5" y="-165" font-family="Helvetica,sans-Serif" font-size="10.00">CodingEngineEvent_Sequential</text>
<text text-anchor="middle" x="253.5" y="-154" font-family="Helvetica,sans-Serif" font-size="10.00">CodingTaskEvents</text>
</a>
</g>
</g>
<!-- Node1&#45;&gt;Node4 -->
<g id="edge3" class="edge"><title>Node1&#45;&gt;Node4</title>
<path fill="none" stroke="midnightblue" d="M137.264,-184.05C150.11,-182.205 163.515,-180.28 176.448,-178.422"/>
<polygon fill="midnightblue" stroke="midnightblue" points="136.502,-180.623 127.101,-185.509 137.497,-187.552 136.502,-180.623"/>
</g>
<!-- Node7 -->
<g id="node7" class="node"><title>Node7</title>
<g id="a_node7"><a xlink:href="d5/da7/classorg_1_1msrg_1_1raccoon_1_1engine_1_1CodingEngineEvent__ThreadEvent.html" target="_top" xlink:title="org.msrg.raccoon.engine.\lCodingEngineEvent_ThreadEvent">
<polygon fill="none" stroke="black" points="171.5,-73.5 171.5,-103.5 335.5,-103.5 335.5,-73.5 171.5,-73.5"/>
<text text-anchor="start" x="179.5" y="-91.5" font-family="Helvetica,sans-Serif" font-size="10.00">org.msrg.raccoon.engine.</text>
<text text-anchor="middle" x="253.5" y="-80.5" font-family="Helvetica,sans-Serif" font-size="10.00">CodingEngineEvent_ThreadEvent</text>
</a>
</g>
</g>
<!-- Node1&#45;&gt;Node7 -->
<g id="edge6" class="edge"><title>Node1&#45;&gt;Node7</title>
<path fill="none" stroke="midnightblue" d="M99.144,-174.184C117.97,-163.212 141.694,-149.495 163,-137.5 183.53,-125.942 206.886,-113.168 224.589,-103.561"/>
<polygon fill="midnightblue" stroke="midnightblue" points="97.1997,-171.267 90.3277,-179.331 100.728,-177.312 97.1997,-171.267"/>
</g>
<!-- Node5 -->
<g id="node5" class="node"><title>Node5</title>
<g id="a_node5"><a xlink:href="d9/da7/classorg_1_1msrg_1_1raccoon_1_1engine_1_1CodingEngineEvent__SequentialCodingTaskFailed.html" target="_top" xlink:title="org.msrg.raccoon.engine.\lCodingEngineEvent_Sequential\lCodingTaskFailed">
<polygon fill="none" stroke="black" points="396,-207 396,-248 550,-248 550,-207 396,-207"/>
<text text-anchor="start" x="404" y="-236" font-family="Helvetica,sans-Serif" font-size="10.00">org.msrg.raccoon.engine.</text>
<text text-anchor="start" x="404" y="-225" font-family="Helvetica,sans-Serif" font-size="10.00">CodingEngineEvent_Sequential</text>
<text text-anchor="middle" x="473" y="-214" font-family="Helvetica,sans-Serif" font-size="10.00">CodingTaskFailed</text>
</a>
</g>
</g>
<!-- Node4&#45;&gt;Node5 -->
<g id="edge4" class="edge"><title>Node4&#45;&gt;Node5</title>
<path fill="none" stroke="midnightblue" d="M338.764,-190.745C358.145,-196.092 378.62,-201.74 397.551,-206.962"/>
<polygon fill="midnightblue" stroke="midnightblue" points="339.618,-187.35 329.047,-188.065 337.756,-194.098 339.618,-187.35"/>
</g>
<!-- Node6 -->
<g id="node6" class="node"><title>Node6</title>
<g id="a_node6"><a xlink:href="d0/d5d/classorg_1_1msrg_1_1raccoon_1_1engine_1_1CodingEngineEvent__SequentialCodingTaskFinished.html" target="_top" xlink:title="org.msrg.raccoon.engine.\lCodingEngineEvent_Sequential\lCodingTaskFinished">
<polygon fill="none" stroke="black" points="396,-147 396,-188 550,-188 550,-147 396,-147"/>
<text text-anchor="start" x="404" y="-176" font-family="Helvetica,sans-Serif" font-size="10.00">org.msrg.raccoon.engine.</text>
<text text-anchor="start" x="404" y="-165" font-family="Helvetica,sans-Serif" font-size="10.00">CodingEngineEvent_Sequential</text>
<text text-anchor="middle" x="473" y="-154" font-family="Helvetica,sans-Serif" font-size="10.00">CodingTaskFinished</text>
</a>
</g>
</g>
<!-- Node4&#45;&gt;Node6 -->
<g id="edge5" class="edge"><title>Node4&#45;&gt;Node6</title>
<path fill="none" stroke="midnightblue" d="M340.625,-167.5C358.912,-167.5 378.093,-167.5 395.972,-167.5"/>
<polygon fill="midnightblue" stroke="midnightblue" points="340.571,-164 330.571,-167.5 340.571,-171 340.571,-164"/>
</g>
<!-- Node8 -->
<g id="node8" class="node"><title>Node8</title>
<g id="a_node8"><a xlink:href="d2/dda/classorg_1_1msrg_1_1raccoon_1_1engine_1_1CodingEngineEvent__BusyThreadEvent.html" target="_top" xlink:title="org.msrg.raccoon.engine.\lCodingEngineEvent_BusyThreadEvent">
<polygon fill="none" stroke="black" points="380,-98.5 380,-128.5 566,-128.5 566,-98.5 380,-98.5"/>
<text text-anchor="start" x="388" y="-116.5" font-family="Helvetica,sans-Serif" font-size="10.00">org.msrg.raccoon.engine.</text>
<text text-anchor="middle" x="473" y="-105.5" font-family="Helvetica,sans-Serif" font-size="10.00">CodingEngineEvent_BusyThreadEvent</text>
</a>
</g>
</g>
<!-- Node7&#45;&gt;Node8 -->
<g id="edge7" class="edge"><title>Node7&#45;&gt;Node8</title>
<path fill="none" stroke="midnightblue" d="M345.993,-99.0164C357.185,-100.303 368.628,-101.618 379.83,-102.906"/>
<polygon fill="midnightblue" stroke="midnightblue" points="346.133,-95.5095 335.798,-97.8446 345.333,-102.464 346.133,-95.5095"/>
</g>
<!-- Node9 -->
<g id="node9" class="node"><title>Node9</title>
<g id="a_node9"><a xlink:href="de/daf/classorg_1_1msrg_1_1raccoon_1_1engine_1_1CodingEngineEvent__FreeThreadEvent.html" target="_top" xlink:title="org.msrg.raccoon.engine.\lCodingEngineEvent_FreeThreadEvent">
<polygon fill="none" stroke="black" points="381.5,-49.5 381.5,-79.5 564.5,-79.5 564.5,-49.5 381.5,-49.5"/>
<text text-anchor="start" x="389.5" y="-67.5" font-family="Helvetica,sans-Serif" font-size="10.00">org.msrg.raccoon.engine.</text>
<text text-anchor="middle" x="473" y="-56.5" font-family="Helvetica,sans-Serif" font-size="10.00">CodingEngineEvent_FreeThreadEvent</text>
</a>
</g>
</g>
<!-- Node7&#45;&gt;Node9 -->
<g id="edge8" class="edge"><title>Node7&#45;&gt;Node9</title>
<path fill="none" stroke="midnightblue" d="M345.984,-78.4052C357.671,-77.1157 369.63,-75.796 381.304,-74.5078"/>
<polygon fill="midnightblue" stroke="midnightblue" points="345.354,-74.9534 335.798,-79.5292 346.122,-81.9112 345.354,-74.9534"/>
</g>
<!-- Node10 -->
<g id="node10" class="node"><title>Node10</title>
<g id="a_node10"><a xlink:href="d4/dd3/classorg_1_1msrg_1_1raccoon_1_1engine_1_1CodingEngineEvent__NewThreadEvent.html" target="_top" xlink:title="org.msrg.raccoon.engine.\lCodingEngineEvent_NewThreadEvent">
<polygon fill="none" stroke="black" points="381,-0.5 381,-30.5 565,-30.5 565,-0.5 381,-0.5"/>
<text text-anchor="start" x="389" y="-18.5" font-family="Helvetica,sans-Serif" font-size="10.00">org.msrg.raccoon.engine.</text>
<text text-anchor="middle" x="473" y="-7.5" font-family="Helvetica,sans-Serif" font-size="10.00">CodingEngineEvent_NewThreadEvent</text>
</a>
</g>
</g>
<!-- Node7&#45;&gt;Node10 -->
<g id="edge9" class="edge"><title>Node7&#45;&gt;Node10</title>
<path fill="none" stroke="midnightblue" d="M300.351,-69.6987C323.948,-60.3464 353.296,-49.2108 380,-40.5 390.543,-37.061 401.869,-33.7096 412.846,-30.6356"/>
<polygon fill="midnightblue" stroke="midnightblue" points="298.938,-66.4944 290.947,-73.4518 301.532,-72.9957 298.938,-66.4944"/>
</g>
</g>
</svg>
