<?xml version="1.0" encoding="UTF-8" standalone="no"?>
<!DOCTYPE svg PUBLIC "-//W3C//DTD SVG 1.1//EN"
 "http://www.w3.org/Graphics/SVG/1.1/DTD/svg11.dtd">
<!-- Generated by graphviz version 2.38.0 (20140413.2041)
 -->
<!-- Title: org.msrg.raccoon.engine.CodingEngineEvent_ThreadEvent Pages: 1 -->
<!--zoomable 1080 -->
<svg id="main" version="1.1" xmlns="http://www.w3.org/2000/svg" xmlns:xlink="http://www.w3.org/1999/xlink" xml:space="preserve" onload="init(evt)">
<style type="text/css"><![CDATA[
.edge:hover path { stroke: red; }
.edge:hover polygon { stroke: red; fill: red; }
]]></style>
<script type="text/javascript"><![CDATA[
var edges = document.getElementsByTagName('g');
if (edges && edges.length) {
  for (var i=0;i<edges.length;i++) {
    if (edges[i].id.substr(0,4)=='edge') {
      edges[i].setAttribute('class','edge');
    }
  }
}
]]></script>
        <defs>
                <circle id="rim" cx="0" cy="0" r="7"/>
                <circle id="rim2" cx="0" cy="0" r="3.5"/>
                <g id="zoomPlus">
                        <use xlink:href="#rim" fill="#404040">
                                <set attributeName="fill" to="#808080" begin="zoomplus.mouseover" end="zoomplus.mouseout"/>
                        </use>
                        <path d="M-4,0h8M0,-4v8" fill="none" stroke="white" stroke-width="1.5" pointer-events="none"/>
                </g>
                <g id="zoomMin">
                        <use xlink:href="#rim" fill="#404040">
                                <set attributeName="fill" to="#808080" begin="zoomminus.mouseover" end="zoomminus.mouseout"/>
                        </use>
                        <path d="M-4,0h8" fill="none" stroke="white" stroke-width="1.5" pointer-events="none"/>
                </g>
                <g id="dirArrow">
                        <path fill="none" stroke="white" stroke-width="1.5" d="M0,-3.0v7 M-2.5,-0.5L0,-3.0L2.5,-0.5"/>
                </g>
               <g id="resetDef">
                       <use xlink:href="#rim2" fill="#404040">
                               <set attributeName="fill" to="#808080" begin="reset.mouseover" end="reset.mouseout"/>
                       </use>
               </g>
        </defs>

<script type="text/javascript">
var viewWidth = 1797;
var viewHeight = 1080;
var sectionId = 'dynsection-1';
</script>
<script xlink:href="../../svgpan.js"/>
<svg id="graph" class="graph">
<g id="viewport">
<title>org.msrg.raccoon.engine.CodingEngineEvent_ThreadEvent</title>
<!-- Node5 -->
<g id="node1" class="node"><title>Node5</title>
<polygon fill="#bfbfbf" stroke="black" points="322,-0.5 322,-79.5 486,-79.5 486,-0.5 322,-0.5"/>
<text text-anchor="start" x="330" y="-67.5" font-family="Helvetica,sans-Serif" font-size="10.00">org.msrg.raccoon.engine.</text>
<text text-anchor="middle" x="404" y="-56.5" font-family="Helvetica,sans-Serif" font-size="10.00">CodingEngineEvent_ThreadEvent</text>
<polyline fill="none" stroke="black" points="322,-49.5 486,-49.5 "/>
<text text-anchor="middle" x="404" y="-37.5" font-family="Helvetica,sans-Serif" font-size="10.00"> </text>
<polyline fill="none" stroke="black" points="322,-30.5 486,-30.5 "/>
<text text-anchor="start" x="330" y="-18.5" font-family="Helvetica,sans-Serif" font-size="10.00">~ CodingEngineEvent_Thread</text>
<text text-anchor="start" x="330" y="-7.5" font-family="Helvetica,sans-Serif" font-size="10.00">Event()</text>
</g>
<!-- Node6 -->
<g id="node2" class="node"><title>Node6</title>
<g id="a_node2"><a xlink:href="../../d3/db5/classorg_1_1msrg_1_1raccoon_1_1engine_1_1CodingEngineEvent.html" target="_top" xlink:title="{org.msrg.raccoon.engine.\lCodingEngineEvent\n||+ toString()\l# CodingEngineEvent()\l}">
<polygon fill="none" stroke="black" points="182.5,-177 182.5,-256 309.5,-256 309.5,-177 182.5,-177"/>
<text text-anchor="start" x="190.5" y="-244" font-family="Helvetica,sans-Serif" font-size="10.00">org.msrg.raccoon.engine.</text>
<text text-anchor="middle" x="246" y="-233" font-family="Helvetica,sans-Serif" font-size="10.00">CodingEngineEvent</text>
<polyline fill="none" stroke="black" points="182.5,-226 309.5,-226 "/>
<text text-anchor="middle" x="246" y="-214" font-family="Helvetica,sans-Serif" font-size="10.00"> </text>
<polyline fill="none" stroke="black" points="182.5,-207 309.5,-207 "/>
<text text-anchor="start" x="190.5" y="-195" font-family="Helvetica,sans-Serif" font-size="10.00">+ toString()</text>
<text text-anchor="start" x="190.5" y="-184" font-family="Helvetica,sans-Serif" font-size="10.00"># CodingEngineEvent()</text>
</a>
</g>
</g>
<!-- Node6&#45;&gt;Node5 -->
<g id="edge1" class="edge"><title>Node6&#45;&gt;Node5</title>
<path fill="none" stroke="midnightblue" d="M288.013,-169.1C313.302,-141.17 345.121,-106.028 369.033,-79.6189"/>
<polygon fill="none" stroke="midnightblue" points="285.183,-167.011 281.065,-176.773 290.372,-171.709 285.183,-167.011"/>
</g>
<!-- Node7 -->
<g id="node3" class="node"><title>Node7</title>
<g id="a_node3"><a xlink:href="../../da/d8b/namespaceorg_1_1msrg_1_1raccoon_1_1engine.html#d1/dea/enumorg_1_1msrg_1_1raccoon_1_1engine_1_1CodingEngineEventType" target="_top" xlink:title="{org.msrg.raccoon.engine.\lCodingEngineEventType\n|+ ENG_ET_FILE_TASK\l+ ENG_ET_THREAD_FREE\l+ ENG_ET_THREAD_NEW\l+ ENG_ET_THREAD_BUSY\l+ ENG_ET_NEW_TASK\l+ END_ET_SEQ_TASK_FINISHED\l+ END_ET_SEQ_TASK_FAILED\l+ ENG_ET_TASK_FAILED\l+ ENG_ET_TASK_FINISHED\l+ ENG_ET_TASK_STARTED\l|}">
<polygon fill="none" stroke="black" points="0,-430.5 0,-597.5 176,-597.5 176,-430.5 0,-430.5"/>
<text text-anchor="start" x="8" y="-585.5" font-family="Helvetica,sans-Serif" font-size="10.00">org.msrg.raccoon.engine.</text>
<text text-anchor="middle" x="88" y="-574.5" font-family="Helvetica,sans-Serif" font-size="10.00">CodingEngineEventType</text>
<polyline fill="none" stroke="black" points="0,-567.5 176,-567.5 "/>
<text text-anchor="start" x="8" y="-555.5" font-family="Helvetica,sans-Serif" font-size="10.00">+ ENG_ET_FILE_TASK</text>
<text text-anchor="start" x="8" y="-544.5" font-family="Helvetica,sans-Serif" font-size="10.00">+ ENG_ET_THREAD_FREE</text>
<text text-anchor="start" x="8" y="-533.5" font-family="Helvetica,sans-Serif" font-size="10.00">+ ENG_ET_THREAD_NEW</text>
<text text-anchor="start" x="8" y="-522.5" font-family="Helvetica,sans-Serif" font-size="10.00">+ ENG_ET_THREAD_BUSY</text>
<text text-anchor="start" x="8" y="-511.5" font-family="Helvetica,sans-Serif" font-size="10.00">+ ENG_ET_NEW_TASK</text>
<text text-anchor="start" x="8" y="-500.5" font-family="Helvetica,sans-Serif" font-size="10.00">+ END_ET_SEQ_TASK_FINISHED</text>
<text text-anchor="start" x="8" y="-489.5" font-family="Helvetica,sans-Serif" font-size="10.00">+ END_ET_SEQ_TASK_FAILED</text>
<text text-anchor="start" x="8" y="-478.5" font-family="Helvetica,sans-Serif" font-size="10.00">+ ENG_ET_TASK_FAILED</text>
<text text-anchor="start" x="8" y="-467.5" font-family="Helvetica,sans-Serif" font-size="10.00">+ ENG_ET_TASK_FINISHED</text>
<text text-anchor="start" x="8" y="-456.5" font-family="Helvetica,sans-Serif" font-size="10.00">+ ENG_ET_TASK_STARTED</text>
<polyline fill="none" stroke="black" points="0,-449.5 176,-449.5 "/>
<text text-anchor="middle" x="88" y="-437.5" font-family="Helvetica,sans-Serif" font-size="10.00"> </text>
</a>
</g>
</g>
<!-- Node7&#45;&gt;Node6 -->
<g id="edge2" class="edge"><title>Node7&#45;&gt;Node6</title>
<path fill="none" stroke="#404040" d="M132.222,-430.294C160.332,-377.722 195.781,-311.423 219.576,-266.92"/>
<polygon fill="none" stroke="#404040" points="219.704,-266.679 219.006,-259.502 225.363,-256.097 226.061,-263.274 219.704,-266.679"/>
<text text-anchor="middle" x="216.5" y="-327" font-family="Helvetica,sans-Serif" font-size="10.00"> +_eventType</text>
</g>
<!-- Node8 -->
<g id="node4" class="node"><title>Node8</title>
<g id="a_node4"><a xlink:href="../../d1/da4/classorg_1_1msrg_1_1raccoon_1_1engine_1_1thread_1_1CodingThread.html" target="_top" xlink:title="{org.msrg.raccoon.engine.thread.\lCodingThread\n|+ MAX_WAIT_TIME\l# _LOCK\l# _continue\l|+ addNewTask()\l+ init()\l+ retire()\l+ run()\l+ toString()\l# CodingThread()\l# CodingThread()\l# runTask()\l# runMe()\l}">
<polygon fill="none" stroke="black" points="427.5,-127.5 427.5,-305.5 584.5,-305.5 584.5,-127.5 427.5,-127.5"/>
<text text-anchor="start" x="435.5" y="-293.5" font-family="Helvetica,sans-Serif" font-size="10.00">org.msrg.raccoon.engine.thread.</text>
<text text-anchor="middle" x="506" y="-282.5" font-family="Helvetica,sans-Serif" font-size="10.00">CodingThread</text>
<polyline fill="none" stroke="black" points="427.5,-275.5 584.5,-275.5 "/>
<text text-anchor="start" x="435.5" y="-263.5" font-family="Helvetica,sans-Serif" font-size="10.00">+ MAX_WAIT_TIME</text>
<text text-anchor="start" x="435.5" y="-252.5" font-family="Helvetica,sans-Serif" font-size="10.00"># _LOCK</text>
<text text-anchor="start" x="435.5" y="-241.5" font-family="Helvetica,sans-Serif" font-size="10.00"># _continue</text>
<polyline fill="none" stroke="black" points="427.5,-234.5 584.5,-234.5 "/>
<text text-anchor="start" x="435.5" y="-222.5" font-family="Helvetica,sans-Serif" font-size="10.00">+ addNewTask()</text>
<text text-anchor="start" x="435.5" y="-211.5" font-family="Helvetica,sans-Serif" font-size="10.00">+ init()</text>
<text text-anchor="start" x="435.5" y="-200.5" font-family="Helvetica,sans-Serif" font-size="10.00">+ retire()</text>
<text text-anchor="start" x="435.5" y="-189.5" font-family="Helvetica,sans-Serif" font-size="10.00">+ run()</text>
<text text-anchor="start" x="435.5" y="-178.5" font-family="Helvetica,sans-Serif" font-size="10.00">+ toString()</text>
<text text-anchor="start" x="435.5" y="-167.5" font-family="Helvetica,sans-Serif" font-size="10.00"># CodingThread()</text>
<text text-anchor="start" x="435.5" y="-156.5" font-family="Helvetica,sans-Serif" font-size="10.00"># CodingThread()</text>
<text text-anchor="start" x="435.5" y="-145.5" font-family="Helvetica,sans-Serif" font-size="10.00"># runTask()</text>
<text text-anchor="start" x="435.5" y="-134.5" font-family="Helvetica,sans-Serif" font-size="10.00"># runMe()</text>
</a>
</g>
</g>
<!-- Node8&#45;&gt;Node5 -->
<g id="edge3" class="edge"><title>Node8&#45;&gt;Node5</title>
<path fill="none" stroke="#404040" d="M454.552,-127.483C447.046,-114.643 439.554,-101.824 432.724,-90.1408"/>
<polygon fill="none" stroke="#404040" points="432.713,-90.1219 426.232,-86.9605 426.657,-79.7619 433.139,-82.9233 432.713,-90.1219"/>
<text text-anchor="middle" x="467.5" y="-101" font-family="Helvetica,sans-Serif" font-size="10.00"> #_cThread</text>
</g>
<!-- Node9 -->
<g id="node5" class="node"><title>Node9</title>
<polygon fill="none" stroke="#bfbfbf" points="856.5,-1014.5 856.5,-1071.5 903.5,-1071.5 903.5,-1014.5 856.5,-1014.5"/>
<text text-anchor="middle" x="880" y="-1059.5" font-family="Helvetica,sans-Serif" font-size="10.00">Thread</text>
<polyline fill="none" stroke="#bfbfbf" points="856.5,-1052.5 903.5,-1052.5 "/>
<text text-anchor="middle" x="880" y="-1040.5" font-family="Helvetica,sans-Serif" font-size="10.00"> </text>
<polyline fill="none" stroke="#bfbfbf" points="856.5,-1033.5 903.5,-1033.5 "/>
<text text-anchor="middle" x="880" y="-1021.5" font-family="Helvetica,sans-Serif" font-size="10.00"> </text>
</g>
<!-- Node9&#45;&gt;Node8 -->
<g id="edge4" class="edge"><title>Node9&#45;&gt;Node8</title>
<path fill="none" stroke="midnightblue" d="M875.832,-1004.25C866.127,-916.955 842.433,-707.448 837,-693 779.824,-540.952 663.055,-391.505 584.638,-301.889"/>
<polygon fill="none" stroke="midnightblue" points="872.362,-1004.72 876.944,-1014.27 879.319,-1003.94 872.362,-1004.72"/>
</g>
<!-- Node12 -->
<g id="node8" class="node"><title>Node12</title>
<g id="a_node8"><a xlink:href="../../d0/d4e/classorg_1_1msrg_1_1raccoon_1_1engine_1_1CodingEngine_1_1MyThread.html" target="_top" xlink:title="{org.msrg.raccoon.engine.\lCodingEngine.MyThread\n||+ MyThread()\l+ run()\l+ toString()\l}">
<polygon fill="none" stroke="black" points="879.5,-805 879.5,-895 1006.5,-895 1006.5,-805 879.5,-805"/>
<text text-anchor="start" x="887.5" y="-883" font-family="Helvetica,sans-Serif" font-size="10.00">org.msrg.raccoon.engine.</text>
<text text-anchor="middle" x="943" y="-872" font-family="Helvetica,sans-Serif" font-size="10.00">CodingEngine.MyThread</text>
<polyline fill="none" stroke="black" points="879.5,-865 1006.5,-865 "/>
<text text-anchor="middle" x="943" y="-853" font-family="Helvetica,sans-Serif" font-size="10.00"> </text>
<polyline fill="none" stroke="black" points="879.5,-846 1006.5,-846 "/>
<text text-anchor="start" x="887.5" y="-834" font-family="Helvetica,sans-Serif" font-size="10.00">+ MyThread()</text>
<text text-anchor="start" x="887.5" y="-823" font-family="Helvetica,sans-Serif" font-size="10.00">+ run()</text>
<text text-anchor="start" x="887.5" y="-812" font-family="Helvetica,sans-Serif" font-size="10.00">+ toString()</text>
</a>
</g>
</g>
<!-- Node9&#45;&gt;Node12 -->
<g id="edge8" class="edge"><title>Node9&#45;&gt;Node12</title>
<path fill="none" stroke="midnightblue" d="M892.358,-1004.53C902.718,-973.124 917.53,-928.22 928.459,-895.083"/>
<polygon fill="none" stroke="midnightblue" points="888.969,-1003.63 889.161,-1014.23 895.617,-1005.83 888.969,-1003.63"/>
</g>
<!-- Node10 -->
<g id="node6" class="node"><title>Node10</title>
<g id="a_node6"><a xlink:href="../../db/d98/classorg_1_1msrg_1_1raccoon_1_1engine_1_1CodingEngine.html" target="_top" xlink:title="This abstract class implements ICodingEngine and deals with management of the engine&#39;s worker threads...">
<polygon fill="none" stroke="black" points="950.5,-353.5 950.5,-674.5 1105.5,-674.5 1105.5,-353.5 950.5,-353.5"/>
<text text-anchor="start" x="958.5" y="-662.5" font-family="Helvetica,sans-Serif" font-size="10.00">org.msrg.raccoon.engine.</text>
<text text-anchor="middle" x="1028" y="-651.5" font-family="Helvetica,sans-Serif" font-size="10.00">CodingEngine</text>
<polyline fill="none" stroke="black" points="950.5,-644.5 1105.5,-644.5 "/>
<text text-anchor="start" x="958.5" y="-632.5" font-family="Helvetica,sans-Serif" font-size="10.00">+ LATE_THREAD_CHECKIN</text>
<text text-anchor="start" x="958.5" y="-621.5" font-family="Helvetica,sans-Serif" font-size="10.00">_TIMEOUT</text>
<text text-anchor="start" x="958.5" y="-610.5" font-family="Helvetica,sans-Serif" font-size="10.00">+ DEBUG</text>
<text text-anchor="start" x="958.5" y="-599.5" font-family="Helvetica,sans-Serif" font-size="10.00"># _lock</text>
<text text-anchor="start" x="958.5" y="-588.5" font-family="Helvetica,sans-Serif" font-size="10.00"># _threadCount</text>
<text text-anchor="start" x="958.5" y="-577.5" font-family="Helvetica,sans-Serif" font-size="10.00"># _threadCheckins</text>
<polyline fill="none" stroke="black" points="950.5,-570.5 1105.5,-570.5 "/>
<text text-anchor="start" x="958.5" y="-558.5" font-family="Helvetica,sans-Serif" font-size="10.00">+ registerCodingListener()</text>
<text text-anchor="start" x="958.5" y="-547.5" font-family="Helvetica,sans-Serif" font-size="10.00">+ deregisterCodingListener()</text>
<text text-anchor="start" x="958.5" y="-536.5" font-family="Helvetica,sans-Serif" font-size="10.00">+ threadIsFree()</text>
<text text-anchor="start" x="958.5" y="-525.5" font-family="Helvetica,sans-Serif" font-size="10.00">+ startComponent()</text>
<text text-anchor="start" x="958.5" y="-514.5" font-family="Helvetica,sans-Serif" font-size="10.00">+ init()</text>
<text text-anchor="start" x="958.5" y="-503.5" font-family="Helvetica,sans-Serif" font-size="10.00">+ codingThreadFailed()</text>
<text text-anchor="start" x="958.5" y="-492.5" font-family="Helvetica,sans-Serif" font-size="10.00">+ codingTaskStarted()</text>
<text text-anchor="start" x="958.5" y="-481.5" font-family="Helvetica,sans-Serif" font-size="10.00">+ codingTaskFinished()</text>
<text text-anchor="start" x="958.5" y="-470.5" font-family="Helvetica,sans-Serif" font-size="10.00">+ codingTaskFailed()</text>
<text text-anchor="start" x="958.5" y="-459.5" font-family="Helvetica,sans-Serif" font-size="10.00">+ getFreeThreadsCount()</text>
<text text-anchor="start" x="958.5" y="-448.5" font-family="Helvetica,sans-Serif" font-size="10.00">and 9 more...</text>
<text text-anchor="start" x="958.5" y="-437.5" font-family="Helvetica,sans-Serif" font-size="10.00"># CodingEngine()</text>
<text text-anchor="start" x="958.5" y="-426.5" font-family="Helvetica,sans-Serif" font-size="10.00"># addCodingTaskEngineEvent()</text>
<text text-anchor="start" x="958.5" y="-415.5" font-family="Helvetica,sans-Serif" font-size="10.00"># threadIsBusy()</text>
<text text-anchor="start" x="958.5" y="-404.5" font-family="Helvetica,sans-Serif" font-size="10.00"># processCodingEvent()</text>
<text text-anchor="start" x="958.5" y="-393.5" font-family="Helvetica,sans-Serif" font-size="10.00"># scheduleTask()</text>
<text text-anchor="start" x="958.5" y="-382.5" font-family="Helvetica,sans-Serif" font-size="10.00"># scheduleTask()</text>
<text text-anchor="start" x="958.5" y="-371.5" font-family="Helvetica,sans-Serif" font-size="10.00"># notifyListener()</text>
<text text-anchor="start" x="958.5" y="-360.5" font-family="Helvetica,sans-Serif" font-size="10.00"># getLateThreads()</text>
</a>
</g>
</g>
<!-- Node10&#45;&gt;Node8 -->
<g id="edge5" class="edge"><title>Node10&#45;&gt;Node8</title>
<path fill="none" stroke="#404040" d="M950.495,-401.893C925.96,-373.171 896.842,-344.579 865,-324 782.723,-270.826 672.92,-243.351 596.504,-229.744"/>
<polygon fill="none" stroke="#404040" points="596.36,-229.72 589.767,-232.641 584.535,-227.678 591.128,-224.757 596.36,-229.72"/>
<text text-anchor="middle" x="897.5" y="-327" font-family="Helvetica,sans-Serif" font-size="10.00"> +_engine</text>
</g>
<!-- Node11 -->
<g id="node7" class="node"><title>Node11</title>
<g id="a_node7"><a xlink:href="../../dd/dff/interfaceorg_1_1msrg_1_1raccoon_1_1engine_1_1ICodingEngine.html" target="_top" xlink:title="{org.msrg.raccoon.engine.\lICodingEngine\n||+ init()\l+ startComponent()\l+ registerCodingListener()\l+ deregisterCodingListener()\l+ encode()\l+ decode()\l+ multiply()\l+ multiply()\l+ inverse()\l+ checkEquality()\l+ checkEquality()\l+ getFreeThreadsCount()\l+ getBusyThreadsCount()\l+ getTotalThreadsCount()\l}">
<polygon fill="none" stroke="black" points="1421,-744.5 1421,-955.5 1561,-955.5 1561,-744.5 1421,-744.5"/>
<text text-anchor="start" x="1429" y="-943.5" font-family="Helvetica,sans-Serif" font-size="10.00">org.msrg.raccoon.engine.</text>
<text text-anchor="middle" x="1491" y="-932.5" font-family="Helvetica,sans-Serif" font-size="10.00">ICodingEngine</text>
<polyline fill="none" stroke="black" points="1421,-925.5 1561,-925.5 "/>
<text text-anchor="middle" x="1491" y="-913.5" font-family="Helvetica,sans-Serif" font-size="10.00"> </text>
<polyline fill="none" stroke="black" points="1421,-906.5 1561,-906.5 "/>
<text text-anchor="start" x="1429" y="-894.5" font-family="Helvetica,sans-Serif" font-size="10.00">+ init()</text>
<text text-anchor="start" x="1429" y="-883.5" font-family="Helvetica,sans-Serif" font-size="10.00">+ startComponent()</text>
<text text-anchor="start" x="1429" y="-872.5" font-family="Helvetica,sans-Serif" font-size="10.00">+ registerCodingListener()</text>
<text text-anchor="start" x="1429" y="-861.5" font-family="Helvetica,sans-Serif" font-size="10.00">+ deregisterCodingListener()</text>
<text text-anchor="start" x="1429" y="-850.5" font-family="Helvetica,sans-Serif" font-size="10.00">+ encode()</text>
<text text-anchor="start" x="1429" y="-839.5" font-family="Helvetica,sans-Serif" font-size="10.00">+ decode()</text>
<text text-anchor="start" x="1429" y="-828.5" font-family="Helvetica,sans-Serif" font-size="10.00">+ multiply()</text>
<text text-anchor="start" x="1429" y="-817.5" font-family="Helvetica,sans-Serif" font-size="10.00">+ multiply()</text>
<text text-anchor="start" x="1429" y="-806.5" font-family="Helvetica,sans-Serif" font-size="10.00">+ inverse()</text>
<text text-anchor="start" x="1429" y="-795.5" font-family="Helvetica,sans-Serif" font-size="10.00">+ checkEquality()</text>
<text text-anchor="start" x="1429" y="-784.5" font-family="Helvetica,sans-Serif" font-size="10.00">+ checkEquality()</text>
<text text-anchor="start" x="1429" y="-773.5" font-family="Helvetica,sans-Serif" font-size="10.00">+ getFreeThreadsCount()</text>
<text text-anchor="start" x="1429" y="-762.5" font-family="Helvetica,sans-Serif" font-size="10.00">+ getBusyThreadsCount()</text>
<text text-anchor="start" x="1429" y="-751.5" font-family="Helvetica,sans-Serif" font-size="10.00">+ getTotalThreadsCount()</text>
</a>
</g>
</g>
<!-- Node11&#45;&gt;Node10 -->
<g id="edge6" class="edge"><title>Node11&#45;&gt;Node10</title>
<path fill="none" stroke="midnightblue" d="M1413.08,-744.977C1412.72,-744.65 1412.36,-744.324 1412,-744 1317.72,-659.331 1187.53,-589.524 1105.57,-550.055"/>
<polygon fill="none" stroke="midnightblue" points="1410.89,-747.729 1420.54,-752.103 1415.73,-742.666 1410.89,-747.729"/>
</g>
<!-- Node12&#45;&gt;Node10 -->
<g id="edge7" class="edge"><title>Node12&#45;&gt;Node10</title>
<path fill="none" stroke="#404040" d="M954.2,-804.992C962.083,-774.015 973.191,-730.369 984.4,-686.322"/>
<polygon fill="none" stroke="#404040" points="984.446,-686.142 982.049,-679.341 987.405,-674.513 989.802,-681.314 984.446,-686.142"/>
<text text-anchor="middle" x="997" y="-707" font-family="Helvetica,sans-Serif" font-size="10.00"> &#45;thread</text>
</g>
<!-- Node13 -->
<g id="node9" class="node"><title>Node13</title>
<polygon fill="none" stroke="#bfbfbf" points="1024.5,-816 1024.5,-884 1205.5,-884 1205.5,-816 1024.5,-816"/>
<text text-anchor="start" x="1032.5" y="-872" font-family="Helvetica,sans-Serif" font-size="10.00">Set&lt; org.msrg.raccoon.engine.thread.</text>
<text text-anchor="middle" x="1115" y="-861" font-family="Helvetica,sans-Serif" font-size="10.00">CodingThread &gt;</text>
<polyline fill="none" stroke="#bfbfbf" points="1024.5,-854 1205.5,-854 "/>
<text text-anchor="middle" x="1115" y="-842" font-family="Helvetica,sans-Serif" font-size="10.00"> </text>
<polyline fill="none" stroke="#bfbfbf" points="1024.5,-835 1205.5,-835 "/>
<text text-anchor="middle" x="1115" y="-823" font-family="Helvetica,sans-Serif" font-size="10.00"> </text>
</g>
<!-- Node13&#45;&gt;Node10 -->
<g id="edge9" class="edge"><title>Node13&#45;&gt;Node10</title>
<path fill="none" stroke="#404040" d="M1106.34,-815.754C1098.26,-784.744 1085.56,-735.978 1072.72,-686.669"/>
<polygon fill="none" stroke="#404040" points="1072.65,-686.421 1067.27,-681.623 1069.63,-674.808 1075.01,-679.606 1072.65,-686.421"/>
<text text-anchor="middle" x="1114.5" y="-712.5" font-family="Helvetica,sans-Serif" font-size="10.00"> #_freeThreads</text>
<text text-anchor="middle" x="1114.5" y="-701.5" font-family="Helvetica,sans-Serif" font-size="10.00">#_busyThreads</text>
</g>
<!-- Node14 -->
<g id="node10" class="node"><title>Node14</title>
<polygon fill="none" stroke="#bfbfbf" points="1099,-1014.5 1099,-1071.5 1131,-1071.5 1131,-1014.5 1099,-1014.5"/>
<text text-anchor="middle" x="1115" y="-1059.5" font-family="Helvetica,sans-Serif" font-size="10.00">Set</text>
<polyline fill="none" stroke="#bfbfbf" points="1099,-1052.5 1131,-1052.5 "/>
<text text-anchor="middle" x="1115" y="-1040.5" font-family="Helvetica,sans-Serif" font-size="10.00"> </text>
<polyline fill="none" stroke="#bfbfbf" points="1099,-1033.5 1131,-1033.5 "/>
<text text-anchor="middle" x="1115" y="-1021.5" font-family="Helvetica,sans-Serif" font-size="10.00"> </text>
</g>
<!-- Node14&#45;&gt;Node13 -->
<g id="edge10" class="edge"><title>Node14&#45;&gt;Node13</title>
<path fill="none" stroke="orange" d="M1115,-1003.94C1115,-968.963 1115,-917.638 1115,-884.269"/>
<polygon fill="orange" stroke="orange" points="1111.5,-1004.23 1115,-1014.23 1118.5,-1004.23 1111.5,-1004.23"/>
<text text-anchor="start" x="1115" y="-988" font-family="Helvetica,sans-Serif" font-size="10.00"> &lt; org::msrg::raccoon</text>
<text text-anchor="middle" x="1187" y="-977" font-family="Helvetica,sans-Serif" font-size="10.00">::engine::thread::CodingThread &gt;</text>
</g>
<!-- Node15 -->
<g id="node11" class="node"><title>Node15</title>
<polygon fill="none" stroke="#bfbfbf" points="463.5,-816 463.5,-884 636.5,-884 636.5,-816 463.5,-816"/>
<text text-anchor="start" x="471.5" y="-872" font-family="Helvetica,sans-Serif" font-size="10.00">List&lt; org.msrg.raccoon.engine.task.</text>
<text text-anchor="middle" x="550" y="-861" font-family="Helvetica,sans-Serif" font-size="10.00">CodingTask &gt;</text>
<polyline fill="none" stroke="#bfbfbf" points="463.5,-854 636.5,-854 "/>
<text text-anchor="middle" x="550" y="-842" font-family="Helvetica,sans-Serif" font-size="10.00"> </text>
<polyline fill="none" stroke="#bfbfbf" points="463.5,-835 636.5,-835 "/>
<text text-anchor="middle" x="550" y="-823" font-family="Helvetica,sans-Serif" font-size="10.00"> </text>
</g>
<!-- Node15&#45;&gt;Node8 -->
<g id="edge20" class="edge"><title>Node15&#45;&gt;Node8</title>
<path fill="none" stroke="#404040" d="M551.227,-815.75C553.709,-735.711 557.412,-526.125 536,-353 534.569,-341.433 532.608,-329.399 530.368,-317.487"/>
<polygon fill="none" stroke="#404040" points="530.354,-317.414 525.274,-312.296 528.044,-305.639 533.124,-310.756 530.354,-317.414"/>
<text text-anchor="middle" x="577.5" y="-511.5" font-family="Helvetica,sans-Serif" font-size="10.00"> #_taskList</text>
</g>
<!-- Node15&#45;&gt;Node10 -->
<g id="edge11" class="edge"><title>Node15&#45;&gt;Node10</title>
<path fill="none" stroke="#404040" d="M576.678,-815.808C594.974,-794.103 620.472,-765.834 646,-744 737.057,-666.117 857.846,-598.614 939.008,-557.462"/>
<polygon fill="none" stroke="#404040" points="939.472,-557.228 943.032,-550.957 950.19,-551.832 946.63,-558.103 939.472,-557.228"/>
<text text-anchor="middle" x="748.5" y="-707" font-family="Helvetica,sans-Serif" font-size="10.00"> #_outstandingTasks</text>
</g>
<!-- Node16 -->
<g id="node12" class="node"><title>Node16</title>
<polygon fill="none" stroke="#bfbfbf" points="609,-1014.5 609,-1071.5 641,-1071.5 641,-1014.5 609,-1014.5"/>
<text text-anchor="middle" x="625" y="-1059.5" font-family="Helvetica,sans-Serif" font-size="10.00">List</text>
<polyline fill="none" stroke="#bfbfbf" points="609,-1052.5 641,-1052.5 "/>
<text text-anchor="middle" x="625" y="-1040.5" font-family="Helvetica,sans-Serif" font-size="10.00"> </text>
<polyline fill="none" stroke="#bfbfbf" points="609,-1033.5 641,-1033.5 "/>
<text text-anchor="middle" x="625" y="-1021.5" font-family="Helvetica,sans-Serif" font-size="10.00"> </text>
</g>
<!-- Node16&#45;&gt;Node15 -->
<g id="edge12" class="edge"><title>Node16&#45;&gt;Node15</title>
<path fill="none" stroke="orange" d="M599.419,-1033.54C582.393,-1026.43 561.323,-1014.42 551,-996 531.741,-961.631 535.655,-915.093 541.608,-884.11"/>
<polygon fill="orange" stroke="orange" points="598.275,-1036.85 608.865,-1037.18 600.788,-1030.32 598.275,-1036.85"/>
<text text-anchor="start" x="551" y="-988" font-family="Helvetica,sans-Serif" font-size="10.00"> &lt; org::msrg::raccoon</text>
<text text-anchor="middle" x="614.5" y="-977" font-family="Helvetica,sans-Serif" font-size="10.00">::engine::task::CodingTask &gt;</text>
</g>
<!-- Node19 -->
<g id="node15" class="node"><title>Node19</title>
<polygon fill="none" stroke="#bfbfbf" points="655,-816 655,-884 807,-884 807,-816 655,-816"/>
<text text-anchor="start" x="663" y="-872" font-family="Helvetica,sans-Serif" font-size="10.00">List&lt; org.msrg.raccoon.engine.</text>
<text text-anchor="middle" x="731" y="-861" font-family="Helvetica,sans-Serif" font-size="10.00">CodingEngineEvent &gt;</text>
<polyline fill="none" stroke="#bfbfbf" points="655,-854 807,-854 "/>
<text text-anchor="middle" x="731" y="-842" font-family="Helvetica,sans-Serif" font-size="10.00"> </text>
<polyline fill="none" stroke="#bfbfbf" points="655,-835 807,-835 "/>
<text text-anchor="middle" x="731" y="-823" font-family="Helvetica,sans-Serif" font-size="10.00"> </text>
</g>
<!-- Node16&#45;&gt;Node19 -->
<g id="edge16" class="edge"><title>Node16&#45;&gt;Node19</title>
<path fill="none" stroke="orange" d="M649.381,-1025.15C659.357,-1017.25 670.332,-1007.13 678,-996 701.795,-961.457 716.305,-914.958 723.988,-884.031"/>
<polygon fill="orange" stroke="orange" points="647.199,-1022.41 641.331,-1031.23 651.419,-1028 647.199,-1022.41"/>
<text text-anchor="start" x="690" y="-988" font-family="Helvetica,sans-Serif" font-size="10.00"> &lt; org::msrg::raccoon</text>
<text text-anchor="middle" x="758" y="-977" font-family="Helvetica,sans-Serif" font-size="10.00">::engine::CodingEngineEvent &gt;</text>
</g>
<!-- Node17 -->
<g id="node13" class="node"><title>Node17</title>
<polygon fill="none" stroke="#bfbfbf" points="1223.5,-816 1223.5,-884 1402.5,-884 1402.5,-816 1223.5,-816"/>
<text text-anchor="start" x="1231.5" y="-872" font-family="Helvetica,sans-Serif" font-size="10.00">Collection&lt; org.msrg.raccoon.engine.</text>
<text text-anchor="middle" x="1313" y="-861" font-family="Helvetica,sans-Serif" font-size="10.00">ICodingListener &gt;</text>
<polyline fill="none" stroke="#bfbfbf" points="1223.5,-854 1402.5,-854 "/>
<text text-anchor="middle" x="1313" y="-842" font-family="Helvetica,sans-Serif" font-size="10.00"> </text>
<polyline fill="none" stroke="#bfbfbf" points="1223.5,-835 1402.5,-835 "/>
<text text-anchor="middle" x="1313" y="-823" font-family="Helvetica,sans-Serif" font-size="10.00"> </text>
</g>
<!-- Node17&#45;&gt;Node10 -->
<g id="edge13" class="edge"><title>Node17&#45;&gt;Node10</title>
<path fill="none" stroke="#404040" d="M1284.63,-815.754C1245.16,-769.501 1171.99,-683.744 1113.84,-615.604"/>
<polygon fill="none" stroke="#404040" points="1113.53,-615.24 1106.6,-613.272 1105.75,-606.112 1112.68,-608.08 1113.53,-615.24"/>
<text text-anchor="middle" x="1228.5" y="-707" font-family="Helvetica,sans-Serif" font-size="10.00"> &#45;_listeners</text>
</g>
<!-- Node18 -->
<g id="node14" class="node"><title>Node18</title>
<polygon fill="none" stroke="#bfbfbf" points="1468,-1014.5 1468,-1071.5 1528,-1071.5 1528,-1014.5 1468,-1014.5"/>
<text text-anchor="middle" x="1498" y="-1059.5" font-family="Helvetica,sans-Serif" font-size="10.00">Collection</text>
<polyline fill="none" stroke="#bfbfbf" points="1468,-1052.5 1528,-1052.5 "/>
<text text-anchor="middle" x="1498" y="-1040.5" font-family="Helvetica,sans-Serif" font-size="10.00"> </text>
<polyline fill="none" stroke="#bfbfbf" points="1468,-1033.5 1528,-1033.5 "/>
<text text-anchor="middle" x="1498" y="-1021.5" font-family="Helvetica,sans-Serif" font-size="10.00"> </text>
</g>
<!-- Node18&#45;&gt;Node17 -->
<g id="edge14" class="edge"><title>Node18&#45;&gt;Node17</title>
<path fill="none" stroke="orange" d="M1462.5,-1006.97C1446.9,-991.455 1428.43,-972.924 1412,-956 1388.96,-932.274 1363.36,-905.099 1343.96,-884.34"/>
<polygon fill="orange" stroke="orange" points="1460.34,-1009.76 1469.9,-1014.32 1465.27,-1004.79 1460.34,-1009.76"/>
<text text-anchor="start" x="1449" y="-988" font-family="Helvetica,sans-Serif" font-size="10.00"> &lt; org::msrg::raccoon</text>
<text text-anchor="middle" x="1508" y="-977" font-family="Helvetica,sans-Serif" font-size="10.00">::engine::ICodingListener &gt;</text>
</g>
<!-- Node20 -->
<g id="node16" class="node"><title>Node20</title>
<polygon fill="none" stroke="#bfbfbf" points="1579.5,-816 1579.5,-884 1788.5,-884 1788.5,-816 1579.5,-816"/>
<text text-anchor="start" x="1587.5" y="-872" font-family="Helvetica,sans-Serif" font-size="10.00">Collection&lt; org.msrg.raccoon.engine.thread.</text>
<text text-anchor="middle" x="1684" y="-861" font-family="Helvetica,sans-Serif" font-size="10.00">CodingThread &gt;</text>
<polyline fill="none" stroke="#bfbfbf" points="1579.5,-854 1788.5,-854 "/>
<text text-anchor="middle" x="1684" y="-842" font-family="Helvetica,sans-Serif" font-size="10.00"> </text>
<polyline fill="none" stroke="#bfbfbf" points="1579.5,-835 1788.5,-835 "/>
<text text-anchor="middle" x="1684" y="-823" font-family="Helvetica,sans-Serif" font-size="10.00"> </text>
</g>
<!-- Node18&#45;&gt;Node20 -->
<g id="edge18" class="edge"><title>Node18&#45;&gt;Node20</title>
<path fill="none" stroke="orange" d="M1536.75,-1021.04C1548.36,-1013.87 1560.73,-1005.29 1571,-996 1608.15,-962.379 1642.24,-915.46 1663.04,-884.199"/>
<polygon fill="orange" stroke="orange" points="1534.84,-1018.1 1528.06,-1026.24 1538.44,-1024.11 1534.84,-1018.1"/>
<text text-anchor="start" x="1592" y="-988" font-family="Helvetica,sans-Serif" font-size="10.00"> &lt; org::msrg::raccoon</text>
<text text-anchor="middle" x="1664" y="-977" font-family="Helvetica,sans-Serif" font-size="10.00">::engine::thread::CodingThread &gt;</text>
</g>
<!-- Node19&#45;&gt;Node10 -->
<g id="edge15" class="edge"><title>Node19&#45;&gt;Node10</title>
<path fill="none" stroke="#404040" d="M753.107,-815.862C775.257,-783.451 811,-733.239 846,-693 875.562,-659.013 910.432,-623.875 941.698,-593.89"/>
<polygon fill="none" stroke="#404040" points="941.732,-593.858 943.312,-586.822 950.414,-585.574 948.834,-592.61 941.732,-593.858"/>
<text text-anchor="middle" x="908.5" y="-718" font-family="Helvetica,sans-Serif" font-size="10.00"> #_lowPriorityEventQueue</text>
<text text-anchor="middle" x="908.5" y="-707" font-family="Helvetica,sans-Serif" font-size="10.00">#_highPriorityEventQueue</text>
<text text-anchor="middle" x="908.5" y="-696" font-family="Helvetica,sans-Serif" font-size="10.00">#_normalPriorityEventQueue</text>
</g>
<!-- Node20&#45;&gt;Node10 -->
<g id="edge17" class="edge"><title>Node20&#45;&gt;Node10</title>
<path fill="none" stroke="#404040" d="M1654.04,-815.939C1632.35,-793.463 1601.45,-764.247 1570,-744 1422.34,-648.931 1228.58,-578.275 1117.22,-542.117"/>
<polygon fill="none" stroke="#404040" points="1117.13,-542.09 1110.19,-544.056 1105.71,-538.408 1112.65,-536.442 1117.13,-542.09"/>
<text text-anchor="middle" x="1552" y="-707" font-family="Helvetica,sans-Serif" font-size="10.00"> #_threads</text>
</g>
<!-- Node21 -->
<g id="node17" class="node"><title>Node21</title>
<g id="a_node17"><a xlink:href="../../d4/df5/namespaceorg_1_1msrg_1_1raccoon_1_1engine_1_1thread.html#d2/de7/enumorg_1_1msrg_1_1raccoon_1_1engine_1_1thread_1_1ThreadType" target="_top" xlink:title="{org.msrg.raccoon.engine.thread.\lThreadType\n|+ CODING_THREAD\l+ FILE_MANANGER_THREAD\l|}">
<polygon fill="none" stroke="black" points="194,-474.5 194,-553.5 352,-553.5 352,-474.5 194,-474.5"/>
<text text-anchor="start" x="202" y="-541.5" font-family="Helvetica,sans-Serif" font-size="10.00">org.msrg.raccoon.engine.thread.</text>
<text text-anchor="middle" x="273" y="-530.5" font-family="Helvetica,sans-Serif" font-size="10.00">ThreadType</text>
<polyline fill="none" stroke="black" points="194,-523.5 352,-523.5 "/>
<text text-anchor="start" x="202" y="-511.5" font-family="Helvetica,sans-Serif" font-size="10.00">+ CODING_THREAD</text>
<text text-anchor="start" x="202" y="-500.5" font-family="Helvetica,sans-Serif" font-size="10.00">+ FILE_MANANGER_THREAD</text>
<polyline fill="none" stroke="black" points="194,-493.5 352,-493.5 "/>
<text text-anchor="middle" x="273" y="-481.5" font-family="Helvetica,sans-Serif" font-size="10.00"> </text>
</a>
</g>
</g>
<!-- Node21&#45;&gt;Node8 -->
<g id="edge19" class="edge"><title>Node21&#45;&gt;Node8</title>
<path fill="none" stroke="#404040" d="M289.967,-474.401C305.772,-440.635 331.319,-391.161 361,-353 377.86,-331.323 398.277,-310.009 418.403,-290.934"/>
<polygon fill="none" stroke="#404040" points="418.536,-290.809 420.19,-283.791 427.305,-282.618 425.651,-289.637 418.536,-290.809"/>
<text text-anchor="middle" x="418" y="-327" font-family="Helvetica,sans-Serif" font-size="10.00"> +_threadType</text>
</g>
<!-- Node22 -->
<g id="node18" class="node"><title>Node22</title>
<g id="a_node18"><a xlink:href="../../d0/dca/classorg_1_1msrg_1_1raccoon_1_1engine_1_1thread_1_1ThreadId.html" target="_top" xlink:title="{org.msrg.raccoon.engine.thread.\lThreadId\n|&#45; _id\l&#45; _lastId\l|+ equals()\l+ hashCode()\l+ toString()\l+ getNewThreadId()\l&#45; ThreadId()\l}">
<polygon fill="none" stroke="black" points="370.5,-452.5 370.5,-575.5 527.5,-575.5 527.5,-452.5 370.5,-452.5"/>
<text text-anchor="start" x="378.5" y="-563.5" font-family="Helvetica,sans-Serif" font-size="10.00">org.msrg.raccoon.engine.thread.</text>
<text text-anchor="middle" x="449" y="-552.5" font-family="Helvetica,sans-Serif" font-size="10.00">ThreadId</text>
<polyline fill="none" stroke="black" points="370.5,-545.5 527.5,-545.5 "/>
<text text-anchor="start" x="378.5" y="-533.5" font-family="Helvetica,sans-Serif" font-size="10.00">&#45; _id</text>
<text text-anchor="start" x="378.5" y="-522.5" font-family="Helvetica,sans-Serif" font-size="10.00">&#45; _lastId</text>
<polyline fill="none" stroke="black" points="370.5,-515.5 527.5,-515.5 "/>
<text text-anchor="start" x="378.5" y="-503.5" font-family="Helvetica,sans-Serif" font-size="10.00">+ equals()</text>
<text text-anchor="start" x="378.5" y="-492.5" font-family="Helvetica,sans-Serif" font-size="10.00">+ hashCode()</text>
<text text-anchor="start" x="378.5" y="-481.5" font-family="Helvetica,sans-Serif" font-size="10.00">+ toString()</text>
<text text-anchor="start" x="378.5" y="-470.5" font-family="Helvetica,sans-Serif" font-size="10.00">+ getNewThreadId()</text>
<text text-anchor="start" x="378.5" y="-459.5" font-family="Helvetica,sans-Serif" font-size="10.00">&#45; ThreadId()</text>
</a>
</g>
</g>
<!-- Node22&#45;&gt;Node8 -->
<g id="edge21" class="edge"><title>Node22&#45;&gt;Node8</title>
<path fill="none" stroke="#404040" d="M460.672,-452.488C468.162,-413.66 478.067,-362.31 486.707,-317.517"/>
<polygon fill="none" stroke="#404040" points="486.718,-317.462 483.927,-310.813 488.991,-305.679 491.782,-312.328 486.718,-317.462"/>
<text text-anchor="middle" x="496" y="-327" font-family="Helvetica,sans-Serif" font-size="10.00"> +_id</text>
</g>
</g>
</svg>
        <g id="navigator" transform="translate(0 0)" fill="#404254">
                <rect fill="#f2f5e9" fill-opacity="0.5" stroke="#606060" stroke-width=".5" x="0" y="0" width="60" height="60"/>
                <use id="zoomplus" xlink:href="#zoomPlus" x="17" y="9" onmousedown="handleZoom(evt,'in')"/>
                <use id="zoomminus" xlink:href="#zoomMin" x="42" y="9" onmousedown="handleZoom(evt,'out')"/>
                <use id="reset" xlink:href="#resetDef" x="30" y="36" onmousedown="handleReset()"/>
                <g id="arrowUp" xlink:href="#dirArrow" transform="translate(30 24)" onmousedown="handlePan(0,-1)">
                  <use xlink:href="#rim" fill="#404040">
                        <set attributeName="fill" to="#808080" begin="arrowUp.mouseover" end="arrowUp.mouseout"/>
                  </use>
                  <path fill="none" stroke="white" stroke-width="1.5" d="M0,-3.0v7 M-2.5,-0.5L0,-3.0L2.5,-0.5"/>
                </g>
                <g id="arrowRight" xlink:href="#dirArrow" transform="rotate(90) translate(36 -43)" onmousedown="handlePan(1,0)">
                  <use xlink:href="#rim" fill="#404040">
                        <set attributeName="fill" to="#808080" begin="arrowRight.mouseover" end="arrowRight.mouseout"/>
                  </use>
                  <path fill="none" stroke="white" stroke-width="1.5" d="M0,-3.0v7 M-2.5,-0.5L0,-3.0L2.5,-0.5"/>
                </g>
                <g id="arrowDown" xlink:href="#dirArrow" transform="rotate(180) translate(-30 -48)" onmousedown="handlePan(0,1)">
                  <use xlink:href="#rim" fill="#404040">
                        <set attributeName="fill" to="#808080" begin="arrowDown.mouseover" end="arrowDown.mouseout"/>
                  </use>
                  <path fill="none" stroke="white" stroke-width="1.5" d="M0,-3.0v7 M-2.5,-0.5L0,-3.0L2.5,-0.5"/>
                </g>
                <g id="arrowLeft" xlink:href="#dirArrow" transform="rotate(270) translate(-36 17)" onmousedown="handlePan(-1,0)">
                  <use xlink:href="#rim" fill="#404040">
                        <set attributeName="fill" to="#808080" begin="arrowLeft.mouseover" end="arrowLeft.mouseout"/>
                  </use>
                  <path fill="none" stroke="white" stroke-width="1.5" d="M0,-3.0v7 M-2.5,-0.5L0,-3.0L2.5,-0.5"/>
                </g>
        </g>
        <svg viewBox="0 0 15 15" width="100%" height="30px" preserveAspectRatio="xMaxYMin meet">
         <g id="arrow_out" transform="scale(0.3 0.3)">
          <a xlink:href="classorg_1_1msrg_1_1raccoon_1_1engine_1_1CodingEngineEvent__ThreadEvent__coll__graph_org.svg" target="_base">
           <rect id="button" ry="5" rx="5" y="6" x="6" height="38" width="38"
                fill="#f2f5e9" fill-opacity="0.5" stroke="#606060" stroke-width="1.0"/>
           <path id="arrow"
             d="M 11.500037,31.436501 C 11.940474,20.09759 22.043105,11.32322 32.158766,21.979434 L 37.068811,17.246167 C 37.068811,17.246167 37.088388,32 37.088388,32 L 22.160133,31.978069 C 22.160133,31.978069 26.997745,27.140456 26.997745,27.140456 C 18.528582,18.264221 13.291696,25.230495 11.500037,31.436501 z"
             style="fill:#404040;"/>
          </a>
         </g>
        </svg>
</svg>
