<?xml version="1.0" encoding="UTF-8" standalone="no"?>
<!DOCTYPE svg PUBLIC "-//W3C//DTD SVG 1.1//EN"
 "http://www.w3.org/Graphics/SVG/1.1/DTD/svg11.dtd">
<!-- Generated by graphviz version 2.38.0 (20140413.2041)
 -->
<!-- Title: org.msrg.raccoon.engine.task.CodingTask.isFinished Pages: 1 -->
<!--zoomable 248 -->
<svg id="main" version="1.1" xmlns="http://www.w3.org/2000/svg" xmlns:xlink="http://www.w3.org/1999/xlink" xml:space="preserve" onload="init(evt)">
<style type="text/css"><![CDATA[
.edge:hover path { stroke: red; }
.edge:hover polygon { stroke: red; fill: red; }
]]></style>
<script type="text/javascript"><![CDATA[
var edges = document.getElementsByTagName('g');
if (edges && edges.length) {
  for (var i=0;i<edges.length;i++) {
    if (edges[i].id.substr(0,4)=='edge') {
      edges[i].setAttribute('class','edge');
    }
  }
}
]]></script>
        <defs>
                <circle id="rim" cx="0" cy="0" r="7"/>
                <circle id="rim2" cx="0" cy="0" r="3.5"/>
                <g id="zoomPlus">
                        <use xlink:href="#rim" fill="#404040">
                                <set attributeName="fill" to="#808080" begin="zoomplus.mouseover" end="zoomplus.mouseout"/>
                        </use>
                        <path d="M-4,0h8M0,-4v8" fill="none" stroke="white" stroke-width="1.5" pointer-events="none"/>
                </g>
                <g id="zoomMin">
                        <use xlink:href="#rim" fill="#404040">
                                <set attributeName="fill" to="#808080" begin="zoomminus.mouseover" end="zoomminus.mouseout"/>
                        </use>
                        <path d="M-4,0h8" fill="none" stroke="white" stroke-width="1.5" pointer-events="none"/>
                </g>
                <g id="dirArrow">
                        <path fill="none" stroke="white" stroke-width="1.5" d="M0,-3.0v7 M-2.5,-0.5L0,-3.0L2.5,-0.5"/>
                </g>
               <g id="resetDef">
                       <use xlink:href="#rim2" fill="#404040">
                               <set attributeName="fill" to="#808080" begin="reset.mouseover" end="reset.mouseout"/>
                       </use>
               </g>
        </defs>

<script type="text/javascript">
var viewWidth = 1087;
var viewHeight = 248;
var sectionId = 'dynsection-0';
</script>
<script xlink:href="../../svgpan.js"/>
<svg id="graph" class="graph">
<g id="viewport">
<title>org.msrg.raccoon.engine.task.CodingTask.isFinished</title>
<!-- Node1 -->
<g id="node1" class="node"><title>Node1</title>
<polygon fill="#bfbfbf" stroke="black" points="0,-107.511 0,-137.511 149,-137.511 149,-107.511 0,-107.511"/>
<text text-anchor="start" x="8" y="-125.511" font-family="Helvetica,sans-Serif" font-size="10.00">org.msrg.raccoon.engine.task.</text>
<text text-anchor="middle" x="74.5" y="-114.511" font-family="Helvetica,sans-Serif" font-size="10.00">CodingTask.isFinished</text>
</g>
<!-- Node2 -->
<g id="node2" class="node"><title>Node2</title>
<g id="a_node2"><a xlink:href="../../d3/d36/classorg_1_1msrg_1_1raccoon_1_1engine_1_1task_1_1sequential_1_1Decoding__SequentialCodingTask_a3497f9c294517ca7934dea0ad28f411d.html#a3497f9c294517ca7934dea0ad28f411d" target="_top" xlink:title="org.msrg.raccoon.engine.task.sequential.\lDecoding_SequentialCodingTask.codingFinished">
<polygon fill="none" stroke="black" points="463,-200.511 463,-230.511 693,-230.511 693,-200.511 463,-200.511"/>
<text text-anchor="start" x="471" y="-218.511" font-family="Helvetica,sans-Serif" font-size="10.00">org.msrg.raccoon.engine.task.sequential.</text>
<text text-anchor="middle" x="578" y="-207.511" font-family="Helvetica,sans-Serif" font-size="10.00">Decoding_SequentialCodingTask.codingFinished</text>
</a>
</g>
</g>
<!-- Node1&#45;&gt;Node2 -->
<g id="edge1" class="edge"><title>Node1&#45;&gt;Node2</title>
<path fill="none" stroke="midnightblue" d="M94.4143,-145.198C114.335,-167.166 147.913,-199.066 185,-212.511 286.412,-249.278 412.515,-241.667 493.859,-230.537"/>
<polygon fill="midnightblue" stroke="midnightblue" points="96.9541,-142.787 87.7119,-137.606 91.7065,-147.419 96.9541,-142.787"/>
</g>
<!-- Node3 -->
<g id="node3" class="node"><title>Node3</title>
<g id="a_node3"><a xlink:href="../../db/d98/classorg_1_1msrg_1_1raccoon_1_1engine_1_1CodingEngine_a2398d0be0c50a5b97c4f18b1d26da62f.html#a2398d0be0c50a5b97c4f18b1d26da62f" target="_top" xlink:title="org.msrg.raccoon.engine.\lCodingEngine.codingTaskFailed">
<polygon fill="none" stroke="black" points="499.5,-136.511 499.5,-166.511 656.5,-166.511 656.5,-136.511 499.5,-136.511"/>
<text text-anchor="start" x="507.5" y="-154.511" font-family="Helvetica,sans-Serif" font-size="10.00">org.msrg.raccoon.engine.</text>
<text text-anchor="middle" x="578" y="-143.511" font-family="Helvetica,sans-Serif" font-size="10.00">CodingEngine.codingTaskFailed</text>
</a>
</g>
</g>
<!-- Node1&#45;&gt;Node3 -->
<g id="edge2" class="edge"><title>Node1&#45;&gt;Node3</title>
<path fill="none" stroke="midnightblue" d="M159.35,-127.36C254.12,-132.84 407.153,-141.69 499.307,-147.019"/>
<polygon fill="midnightblue" stroke="midnightblue" points="159.414,-123.858 149.229,-126.775 159.01,-130.847 159.414,-123.858"/>
</g>
<!-- Node4 -->
<g id="node4" class="node"><title>Node4</title>
<g id="a_node4"><a xlink:href="../../d1/da4/classorg_1_1msrg_1_1raccoon_1_1engine_1_1thread_1_1CodingThread_a31a8bf19549ed7009791f430c356a421.html#a31a8bf19549ed7009791f430c356a421" target="_top" xlink:title="org.msrg.raccoon.engine.thread.\lCodingThread.runMe">
<polygon fill="none" stroke="black" points="729,-38.5115 729,-68.5115 886,-68.5115 886,-38.5115 729,-38.5115"/>
<text text-anchor="start" x="737" y="-56.5115" font-family="Helvetica,sans-Serif" font-size="10.00">org.msrg.raccoon.engine.thread.</text>
<text text-anchor="middle" x="807.5" y="-45.5115" font-family="Helvetica,sans-Serif" font-size="10.00">CodingThread.runMe</text>
</a>
</g>
</g>
<!-- Node1&#45;&gt;Node4 -->
<g id="edge11" class="edge"><title>Node1&#45;&gt;Node4</title>
<path fill="none" stroke="midnightblue" d="M99.0176,-100.439C119.856,-82.383 152.017,-58.0194 185,-46.5115 398.309,27.912 468.407,-4.06948 693,-28.5115 711.655,-30.5416 731.735,-34.3961 749.742,-38.4814"/>
<polygon fill="midnightblue" stroke="midnightblue" points="96.4981,-97.9952 91.3422,-107.251 101.145,-103.231 96.4981,-97.9952"/>
</g>
<!-- Node6 -->
<g id="node6" class="node"><title>Node6</title>
<g id="a_node6"><a xlink:href="../../db/d98/classorg_1_1msrg_1_1raccoon_1_1engine_1_1CodingEngine_a3d4a6d3540939a6669282049714e7a92.html#a3d4a6d3540939a6669282049714e7a92" target="_top" xlink:title="org.msrg.raccoon.engine.\lCodingEngine.codingTaskFinished">
<polygon fill="none" stroke="black" points="494.5,-38.5115 494.5,-68.5115 661.5,-68.5115 661.5,-38.5115 494.5,-38.5115"/>
<text text-anchor="start" x="502.5" y="-56.5115" font-family="Helvetica,sans-Serif" font-size="10.00">org.msrg.raccoon.engine.</text>
<text text-anchor="middle" x="578" y="-45.5115" font-family="Helvetica,sans-Serif" font-size="10.00">CodingEngine.codingTaskFinished</text>
</a>
</g>
</g>
<!-- Node1&#45;&gt;Node6 -->
<g id="edge5" class="edge"><title>Node1&#45;&gt;Node6</title>
<path fill="none" stroke="midnightblue" d="M112.461,-102.801C133.182,-92.7474 159.851,-81.4199 185,-75.5115 289.677,-50.919 414.196,-48.2811 494.356,-49.8786"/>
<polygon fill="midnightblue" stroke="midnightblue" points="110.786,-99.7253 103.385,-107.307 113.898,-105.995 110.786,-99.7253"/>
</g>
<!-- Node7 -->
<g id="node7" class="node"><title>Node7</title>
<g id="a_node7"><a xlink:href="../../db/d98/classorg_1_1msrg_1_1raccoon_1_1engine_1_1CodingEngine_a1396555d04800f11479184ccff358804.html#a1396555d04800f11479184ccff358804" target="_top" xlink:title="org.msrg.raccoon.engine.\lCodingEngine.notifyListener">
<polygon fill="none" stroke="black" points="236.5,-85.5115 236.5,-115.511 375.5,-115.511 375.5,-85.5115 236.5,-85.5115"/>
<text text-anchor="start" x="244.5" y="-103.511" font-family="Helvetica,sans-Serif" font-size="10.00">org.msrg.raccoon.engine.</text>
<text text-anchor="middle" x="306" y="-92.5115" font-family="Helvetica,sans-Serif" font-size="10.00">CodingEngine.notifyListener</text>
</a>
</g>
</g>
<!-- Node1&#45;&gt;Node7 -->
<g id="edge7" class="edge"><title>Node1&#45;&gt;Node7</title>
<path fill="none" stroke="midnightblue" d="M159.022,-114.505C184.355,-112.077 211.887,-109.437 236.143,-107.112"/>
<polygon fill="midnightblue" stroke="midnightblue" points="158.683,-111.021 149.062,-115.46 159.351,-117.989 158.683,-111.021"/>
</g>
<!-- Node9 -->
<g id="node9" class="node"><title>Node9</title>
<g id="a_node9"><a xlink:href="../../d3/d36/classorg_1_1msrg_1_1raccoon_1_1engine_1_1task_1_1sequential_1_1Decoding__SequentialCodingTask_aa875e6c27f9bd356223417ae1689c3b4.html#aa875e6c27f9bd356223417ae1689c3b4" target="_top" xlink:title="org.msrg.raccoon.engine.task.sequential.\lDecoding_SequentialCodingTask.runStagePrivately">
<polygon fill="none" stroke="black" points="185,-173.511 185,-203.511 427,-203.511 427,-173.511 185,-173.511"/>
<text text-anchor="start" x="193" y="-191.511" font-family="Helvetica,sans-Serif" font-size="10.00">org.msrg.raccoon.engine.task.sequential.</text>
<text text-anchor="middle" x="306" y="-180.511" font-family="Helvetica,sans-Serif" font-size="10.00">Decoding_SequentialCodingTask.runStagePrivately</text>
</a>
</g>
</g>
<!-- Node1&#45;&gt;Node9 -->
<g id="edge12" class="edge"><title>Node1&#45;&gt;Node9</title>
<path fill="none" stroke="midnightblue" d="M128.387,-140.759C146.278,-146.701 166.427,-153.144 185,-158.511 203.155,-163.758 223.008,-168.942 241.246,-173.487"/>
<polygon fill="midnightblue" stroke="midnightblue" points="129.298,-137.373 118.704,-137.518 127.077,-144.011 129.298,-137.373"/>
</g>
<!-- Node3&#45;&gt;Node4 -->
<g id="edge3" class="edge"><title>Node3&#45;&gt;Node4</title>
<path fill="none" stroke="midnightblue" d="M666.633,-135.65C675.678,-133.023 684.618,-129.994 693,-126.511 728.916,-111.592 765.977,-85.3266 787.596,-68.703"/>
<polygon fill="midnightblue" stroke="midnightblue" points="665.517,-132.327 656.799,-138.347 667.368,-139.078 665.517,-132.327"/>
</g>
<!-- Node5 -->
<g id="node5" class="node"><title>Node5</title>
<g id="a_node5"><a xlink:href="../../d1/da4/classorg_1_1msrg_1_1raccoon_1_1engine_1_1thread_1_1CodingThread_ae09277e895c3233c7ff465cc8cb00e7c.html#ae09277e895c3233c7ff465cc8cb00e7c" target="_top" xlink:title="org.msrg.raccoon.engine.thread.\lCodingThread.run">
<polygon fill="none" stroke="black" points="922,-38.5115 922,-68.5115 1079,-68.5115 1079,-38.5115 922,-38.5115"/>
<text text-anchor="start" x="930" y="-56.5115" font-family="Helvetica,sans-Serif" font-size="10.00">org.msrg.raccoon.engine.thread.</text>
<text text-anchor="middle" x="1000.5" y="-45.5115" font-family="Helvetica,sans-Serif" font-size="10.00">CodingThread.run</text>
</a>
</g>
</g>
<!-- Node4&#45;&gt;Node5 -->
<g id="edge4" class="edge"><title>Node4&#45;&gt;Node5</title>
<path fill="none" stroke="midnightblue" d="M896.193,-53.5115C904.765,-53.5115 913.42,-53.5115 921.882,-53.5115"/>
<polygon fill="midnightblue" stroke="midnightblue" points="896.187,-50.0116 886.187,-53.5115 896.187,-57.0116 896.187,-50.0116"/>
</g>
<!-- Node6&#45;&gt;Node4 -->
<g id="edge6" class="edge"><title>Node6&#45;&gt;Node4</title>
<path fill="none" stroke="midnightblue" d="M671.866,-53.5115C690.745,-53.5115 710.418,-53.5115 728.71,-53.5115"/>
<polygon fill="midnightblue" stroke="midnightblue" points="671.776,-50.0116 661.776,-53.5115 671.776,-57.0116 671.776,-50.0116"/>
</g>
<!-- Node7&#45;&gt;Node3 -->
<g id="edge8" class="edge"><title>Node7&#45;&gt;Node3</title>
<path fill="none" stroke="midnightblue" d="M385.73,-115.383C421.467,-122.133 463.611,-130.094 499.232,-136.822"/>
<polygon fill="midnightblue" stroke="midnightblue" points="386.307,-111.93 375.831,-113.513 385.008,-118.808 386.307,-111.93"/>
</g>
<!-- Node7&#45;&gt;Node6 -->
<g id="edge9" class="edge"><title>Node7&#45;&gt;Node6</title>
<path fill="none" stroke="midnightblue" d="M385.751,-86.803C419.861,-80.8653 459.805,-73.9121 494.342,-67.9002"/>
<polygon fill="midnightblue" stroke="midnightblue" points="385.083,-83.3666 375.831,-88.5298 386.283,-90.2629 385.083,-83.3666"/>
</g>
<!-- Node8 -->
<g id="node8" class="node"><title>Node8</title>
<g id="a_node8"><a xlink:href="../../d2/d9a/classorg_1_1msrg_1_1raccoon_1_1engine_1_1CodingEngineImpl_a0398a605548bebf4995dd161d4785b45.html#a0398a605548bebf4995dd161d4785b45" target="_top" xlink:title="org.msrg.raccoon.engine.\lCodingEngineImpl.processCodingEvent">
<polygon fill="none" stroke="black" points="483,-87.5115 483,-117.511 673,-117.511 673,-87.5115 483,-87.5115"/>
<text text-anchor="start" x="491" y="-105.511" font-family="Helvetica,sans-Serif" font-size="10.00">org.msrg.raccoon.engine.</text>
<text text-anchor="middle" x="578" y="-94.5115" font-family="Helvetica,sans-Serif" font-size="10.00">CodingEngineImpl.processCodingEvent</text>
</a>
</g>
</g>
<!-- Node7&#45;&gt;Node8 -->
<g id="edge10" class="edge"><title>Node7&#45;&gt;Node8</title>
<path fill="none" stroke="midnightblue" d="M385.932,-101.096C416.268,-101.321 451.198,-101.58 482.828,-101.814"/>
<polygon fill="midnightblue" stroke="midnightblue" points="385.857,-97.5956 375.831,-101.021 385.805,-104.595 385.857,-97.5956"/>
</g>
<!-- Node9&#45;&gt;Node2 -->
<g id="edge13" class="edge"><title>Node9&#45;&gt;Node2</title>
<path fill="none" stroke="midnightblue" d="M437.386,-201.55C445.916,-202.403 454.471,-203.259 462.915,-204.103"/>
<polygon fill="midnightblue" stroke="midnightblue" points="437.69,-198.063 427.392,-200.551 436.994,-205.028 437.69,-198.063"/>
</g>
</g>
</svg>
        <g id="navigator" transform="translate(0 0)" fill="#404254">
                <rect fill="#f2f5e9" fill-opacity="0.5" stroke="#606060" stroke-width=".5" x="0" y="0" width="60" height="60"/>
                <use id="zoomplus" xlink:href="#zoomPlus" x="17" y="9" onmousedown="handleZoom(evt,'in')"/>
                <use id="zoomminus" xlink:href="#zoomMin" x="42" y="9" onmousedown="handleZoom(evt,'out')"/>
                <use id="reset" xlink:href="#resetDef" x="30" y="36" onmousedown="handleReset()"/>
                <g id="arrowUp" xlink:href="#dirArrow" transform="translate(30 24)" onmousedown="handlePan(0,-1)">
                  <use xlink:href="#rim" fill="#404040">
                        <set attributeName="fill" to="#808080" begin="arrowUp.mouseover" end="arrowUp.mouseout"/>
                  </use>
                  <path fill="none" stroke="white" stroke-width="1.5" d="M0,-3.0v7 M-2.5,-0.5L0,-3.0L2.5,-0.5"/>
                </g>
                <g id="arrowRight" xlink:href="#dirArrow" transform="rotate(90) translate(36 -43)" onmousedown="handlePan(1,0)">
                  <use xlink:href="#rim" fill="#404040">
                        <set attributeName="fill" to="#808080" begin="arrowRight.mouseover" end="arrowRight.mouseout"/>
                  </use>
                  <path fill="none" stroke="white" stroke-width="1.5" d="M0,-3.0v7 M-2.5,-0.5L0,-3.0L2.5,-0.5"/>
                </g>
                <g id="arrowDown" xlink:href="#dirArrow" transform="rotate(180) translate(-30 -48)" onmousedown="handlePan(0,1)">
                  <use xlink:href="#rim" fill="#404040">
                        <set attributeName="fill" to="#808080" begin="arrowDown.mouseover" end="arrowDown.mouseout"/>
                  </use>
                  <path fill="none" stroke="white" stroke-width="1.5" d="M0,-3.0v7 M-2.5,-0.5L0,-3.0L2.5,-0.5"/>
                </g>
                <g id="arrowLeft" xlink:href="#dirArrow" transform="rotate(270) translate(-36 17)" onmousedown="handlePan(-1,0)">
                  <use xlink:href="#rim" fill="#404040">
                        <set attributeName="fill" to="#808080" begin="arrowLeft.mouseover" end="arrowLeft.mouseout"/>
                  </use>
                  <path fill="none" stroke="white" stroke-width="1.5" d="M0,-3.0v7 M-2.5,-0.5L0,-3.0L2.5,-0.5"/>
                </g>
        </g>
        <svg viewBox="0 0 15 15" width="100%" height="30px" preserveAspectRatio="xMaxYMin meet">
         <g id="arrow_out" transform="scale(0.3 0.3)">
          <a xlink:href="classorg_1_1msrg_1_1raccoon_1_1engine_1_1task_1_1CodingTask_a0104d5d4c38b3b0d8cb60436798287c1_a0104d5d4c38b3b0d8cb60436798287c1_icgraph_org.svg" target="_base">
           <rect id="button" ry="5" rx="5" y="6" x="6" height="38" width="38"
                fill="#f2f5e9" fill-opacity="0.5" stroke="#606060" stroke-width="1.0"/>
           <path id="arrow"
             d="M 11.500037,31.436501 C 11.940474,20.09759 22.043105,11.32322 32.158766,21.979434 L 37.068811,17.246167 C 37.068811,17.246167 37.088388,32 37.088388,32 L 22.160133,31.978069 C 22.160133,31.978069 26.997745,27.140456 26.997745,27.140456 C 18.528582,18.264221 13.291696,25.230495 11.500037,31.436501 z"
             style="fill:#404040;"/>
          </a>
         </g>
        </svg>
</svg>
