<?xml version="1.0" encoding="UTF-8" standalone="no"?>
<!DOCTYPE svg PUBLIC "-//W3C//DTD SVG 1.1//EN"
 "http://www.w3.org/Graphics/SVG/1.1/DTD/svg11.dtd">
<!-- Generated by graphviz version 2.38.0 (20140413.2041)
 -->
<!-- Title: org.msrg.raccoon.engine.task.CodingTask.started Pages: 1 -->
<svg width="543pt" height="39pt"
 viewBox="0.00 0.00 543.00 39.00" xmlns="http://www.w3.org/2000/svg" xmlns:xlink="http://www.w3.org/1999/xlink">
<g id="graph0" class="graph" transform="scale(1 1) rotate(0) translate(4 35)">
<title>org.msrg.raccoon.engine.task.CodingTask.started</title>
<!-- Node3 -->
<g id="node1" class="node"><title>Node3</title>
<polygon fill="#bfbfbf" stroke="black" points="0,-0.5 0,-30.5 149,-30.5 149,-0.5 0,-0.5"/>
<text text-anchor="start" x="8" y="-18.5" font-family="Helvetica,sans-Serif" font-size="10.00">org.msrg.raccoon.engine.task.</text>
<text text-anchor="middle" x="74.5" y="-7.5" font-family="Helvetica,sans-Serif" font-size="10.00">CodingTask.started</text>
</g>
<!-- Node4 -->
<g id="node2" class="node"><title>Node4</title>
<g id="a_node2"><a xlink:href="../../d1/da4/classorg_1_1msrg_1_1raccoon_1_1engine_1_1thread_1_1CodingThread_a31a8bf19549ed7009791f430c356a421.html#a31a8bf19549ed7009791f430c356a421" target="_top" xlink:title="org.msrg.raccoon.engine.thread.\lCodingThread.runMe">
<polygon fill="none" stroke="black" points="185,-0.5 185,-30.5 342,-30.5 342,-0.5 185,-0.5"/>
<text text-anchor="start" x="193" y="-18.5" font-family="Helvetica,sans-Serif" font-size="10.00">org.msrg.raccoon.engine.thread.</text>
<text text-anchor="middle" x="263.5" y="-7.5" font-family="Helvetica,sans-Serif" font-size="10.00">CodingThread.runMe</text>
</a>
</g>
</g>
<!-- Node3&#45;&gt;Node4 -->
<g id="edge1" class="edge"><title>Node3&#45;&gt;Node4</title>
<path fill="none" stroke="midnightblue" d="M159.143,-15.5C167.723,-15.5 176.416,-15.5 184.927,-15.5"/>
<polygon fill="midnightblue" stroke="midnightblue" points="159.139,-12.0001 149.139,-15.5 159.139,-19.0001 159.139,-12.0001"/>
</g>
<!-- Node5 -->
<g id="node3" class="node"><title>Node5</title>
<g id="a_node3"><a xlink:href="../../d1/da4/classorg_1_1msrg_1_1raccoon_1_1engine_1_1thread_1_1CodingThread_ae09277e895c3233c7ff465cc8cb00e7c.html#ae09277e895c3233c7ff465cc8cb00e7c" target="_top" xlink:title="org.msrg.raccoon.engine.thread.\lCodingThread.run">
<polygon fill="none" stroke="black" points="378,-0.5 378,-30.5 535,-30.5 535,-0.5 378,-0.5"/>
<text text-anchor="start" x="386" y="-18.5" font-family="Helvetica,sans-Serif" font-size="10.00">org.msrg.raccoon.engine.thread.</text>
<text text-anchor="middle" x="456.5" y="-7.5" font-family="Helvetica,sans-Serif" font-size="10.00">CodingThread.run</text>
</a>
</g>
</g>
<!-- Node4&#45;&gt;Node5 -->
<g id="edge2" class="edge"><title>Node4&#45;&gt;Node5</title>
<path fill="none" stroke="midnightblue" d="M352.193,-15.5C360.765,-15.5 369.42,-15.5 377.882,-15.5"/>
<polygon fill="midnightblue" stroke="midnightblue" points="352.187,-12.0001 342.187,-15.5 352.187,-19.0001 352.187,-12.0001"/>
</g>
</g>
</svg>
