<?xml version="1.0" encoding="UTF-8" standalone="no"?>
<!DOCTYPE svg PUBLIC "-//W3C//DTD SVG 1.1//EN"
 "http://www.w3.org/Graphics/SVG/1.1/DTD/svg11.dtd">
<!-- Generated by graphviz version 2.38.0 (20140413.2041)
 -->
<!-- Title: org.msrg.raccoon.engine.task.CodingTask.changeStatus Pages: 1 -->
<svg width="728pt" height="137pt"
 viewBox="0.00 0.00 728.00 137.00" xmlns="http://www.w3.org/2000/svg" xmlns:xlink="http://www.w3.org/1999/xlink">
<g id="graph0" class="graph" transform="scale(1 1) rotate(0) translate(4 133)">
<title>org.msrg.raccoon.engine.task.CodingTask.changeStatus</title>
<!-- Node2 -->
<g id="node1" class="node"><title>Node2</title>
<polygon fill="#bfbfbf" stroke="black" points="0,-49.5 0,-79.5 149,-79.5 149,-49.5 0,-49.5"/>
<text text-anchor="start" x="8" y="-67.5" font-family="Helvetica,sans-Serif" font-size="10.00">org.msrg.raccoon.engine.task.</text>
<text text-anchor="middle" x="74.5" y="-56.5" font-family="Helvetica,sans-Serif" font-size="10.00">CodingTask.changeStatus</text>
</g>
<!-- Node3 -->
<g id="node2" class="node"><title>Node3</title>
<g id="a_node2"><a xlink:href="../../d9/d22/classorg_1_1msrg_1_1raccoon_1_1engine_1_1task_1_1CodingTask_aa30b067dc85770bd21c6d4bf3f1030e3.html#aa30b067dc85770bd21c6d4bf3f1030e3" target="_top" xlink:title="org.msrg.raccoon.engine.task.\lCodingTask.failed">
<polygon fill="none" stroke="black" points="185,-49.5 185,-79.5 334,-79.5 334,-49.5 185,-49.5"/>
<text text-anchor="start" x="193" y="-67.5" font-family="Helvetica,sans-Serif" font-size="10.00">org.msrg.raccoon.engine.task.</text>
<text text-anchor="middle" x="259.5" y="-56.5" font-family="Helvetica,sans-Serif" font-size="10.00">CodingTask.failed</text>
</a>
</g>
</g>
<!-- Node2&#45;&gt;Node3 -->
<g id="edge1" class="edge"><title>Node2&#45;&gt;Node3</title>
<path fill="none" stroke="midnightblue" d="M159.387,-64.5C167.838,-64.5 176.376,-64.5 184.711,-64.5"/>
<polygon fill="midnightblue" stroke="midnightblue" points="159.142,-61.0001 149.142,-64.5 159.142,-68.0001 159.142,-61.0001"/>
</g>
<!-- Node7 -->
<g id="node6" class="node"><title>Node7</title>
<g id="a_node6"><a xlink:href="../../d9/d22/classorg_1_1msrg_1_1raccoon_1_1engine_1_1task_1_1CodingTask_ad70fe3d442e4abc077f97950a73a6de6.html#ad70fe3d442e4abc077f97950a73a6de6" target="_top" xlink:title="org.msrg.raccoon.engine.task.\lCodingTask.finished">
<polygon fill="none" stroke="black" points="185,-0.5 185,-30.5 334,-30.5 334,-0.5 185,-0.5"/>
<text text-anchor="start" x="193" y="-18.5" font-family="Helvetica,sans-Serif" font-size="10.00">org.msrg.raccoon.engine.task.</text>
<text text-anchor="middle" x="259.5" y="-7.5" font-family="Helvetica,sans-Serif" font-size="10.00">CodingTask.finished</text>
</a>
</g>
</g>
<!-- Node2&#45;&gt;Node7 -->
<g id="edge6" class="edge"><title>Node2&#45;&gt;Node7</title>
<path fill="none" stroke="midnightblue" d="M141.785,-46.7515C161.619,-41.4409 183.167,-35.6712 202.287,-30.5516"/>
<polygon fill="midnightblue" stroke="midnightblue" points="140.654,-43.4311 131.899,-49.3986 142.464,-50.1929 140.654,-43.4311"/>
</g>
<!-- Node8 -->
<g id="node7" class="node"><title>Node8</title>
<g id="a_node7"><a xlink:href="../../d9/d22/classorg_1_1msrg_1_1raccoon_1_1engine_1_1task_1_1CodingTask_a824b256e8e9f1627a05d67fb70ed5410.html#a824b256e8e9f1627a05d67fb70ed5410" target="_top" xlink:title="org.msrg.raccoon.engine.task.\lCodingTask.started">
<polygon fill="none" stroke="black" points="185,-98.5 185,-128.5 334,-128.5 334,-98.5 185,-98.5"/>
<text text-anchor="start" x="193" y="-116.5" font-family="Helvetica,sans-Serif" font-size="10.00">org.msrg.raccoon.engine.task.</text>
<text text-anchor="middle" x="259.5" y="-105.5" font-family="Helvetica,sans-Serif" font-size="10.00">CodingTask.started</text>
</a>
</g>
</g>
<!-- Node2&#45;&gt;Node8 -->
<g id="edge8" class="edge"><title>Node2&#45;&gt;Node8</title>
<path fill="none" stroke="midnightblue" d="M141.785,-82.2485C161.619,-87.5591 183.167,-93.3288 202.287,-98.4484"/>
<polygon fill="midnightblue" stroke="midnightblue" points="142.464,-78.8071 131.899,-79.6014 140.654,-85.5689 142.464,-78.8071"/>
</g>
<!-- Node4 -->
<g id="node3" class="node"><title>Node4</title>
<g id="a_node3"><a xlink:href="../../d1/da4/classorg_1_1msrg_1_1raccoon_1_1engine_1_1thread_1_1CodingThread_ae09277e895c3233c7ff465cc8cb00e7c.html#ae09277e895c3233c7ff465cc8cb00e7c" target="_top" xlink:title="org.msrg.raccoon.engine.thread.\lCodingThread.run">
<polygon fill="none" stroke="black" points="563,-71.5 563,-101.5 720,-101.5 720,-71.5 563,-71.5"/>
<text text-anchor="start" x="571" y="-89.5" font-family="Helvetica,sans-Serif" font-size="10.00">org.msrg.raccoon.engine.thread.</text>
<text text-anchor="middle" x="641.5" y="-78.5" font-family="Helvetica,sans-Serif" font-size="10.00">CodingThread.run</text>
</a>
</g>
</g>
<!-- Node3&#45;&gt;Node4 -->
<g id="edge2" class="edge"><title>Node3&#45;&gt;Node4</title>
<path fill="none" stroke="midnightblue" d="M344.456,-69.3606C409.603,-73.1323 499.218,-78.3205 562.741,-81.9982"/>
<polygon fill="midnightblue" stroke="midnightblue" points="344.404,-65.8518 334.218,-68.7679 343.999,-72.8401 344.404,-65.8518"/>
</g>
<!-- Node5 -->
<g id="node4" class="node"><title>Node5</title>
<g id="a_node4"><a xlink:href="../../d1/da4/classorg_1_1msrg_1_1raccoon_1_1engine_1_1thread_1_1CodingThread_a31a8bf19549ed7009791f430c356a421.html#a31a8bf19549ed7009791f430c356a421" target="_top" xlink:title="org.msrg.raccoon.engine.thread.\lCodingThread.runMe">
<polygon fill="none" stroke="black" points="370,-93.5 370,-123.5 527,-123.5 527,-93.5 370,-93.5"/>
<text text-anchor="start" x="378" y="-111.5" font-family="Helvetica,sans-Serif" font-size="10.00">org.msrg.raccoon.engine.thread.</text>
<text text-anchor="middle" x="448.5" y="-100.5" font-family="Helvetica,sans-Serif" font-size="10.00">CodingThread.runMe</text>
</a>
</g>
</g>
<!-- Node3&#45;&gt;Node5 -->
<g id="edge3" class="edge"><title>Node3&#45;&gt;Node5</title>
<path fill="none" stroke="midnightblue" d="M334.352,-81.8769C350.648,-85.7112 367.778,-89.7418 383.639,-93.4738"/>
<polygon fill="midnightblue" stroke="midnightblue" points="334.868,-78.4027 324.332,-79.5192 333.264,-85.2167 334.868,-78.4027"/>
</g>
<!-- Node6 -->
<g id="node5" class="node"><title>Node6</title>
<g id="a_node5"><a xlink:href="../../d6/d19/classorg_1_1msrg_1_1raccoon_1_1engine_1_1thread_1_1CodingThreadImpl_af81a44607be02e9f01c5f4c119ff5ed4.html#af81a44607be02e9f01c5f4c119ff5ed4" target="_top" xlink:title="org.msrg.raccoon.engine.thread.\lCodingThreadImpl.runTask">
<polygon fill="none" stroke="black" points="370,-3.5 370,-33.5 527,-33.5 527,-3.5 370,-3.5"/>
<text text-anchor="start" x="378" y="-21.5" font-family="Helvetica,sans-Serif" font-size="10.00">org.msrg.raccoon.engine.thread.</text>
<text text-anchor="middle" x="448.5" y="-10.5" font-family="Helvetica,sans-Serif" font-size="10.00">CodingThreadImpl.runTask</text>
</a>
</g>
</g>
<!-- Node3&#45;&gt;Node6 -->
<g id="edge5" class="edge"><title>Node3&#45;&gt;Node6</title>
<path fill="none" stroke="midnightblue" d="M331.626,-47.0038C349.69,-42.5602 368.938,-37.8255 386.451,-33.5174"/>
<polygon fill="midnightblue" stroke="midnightblue" points="330.605,-43.6504 321.731,-49.4379 332.277,-50.4478 330.605,-43.6504"/>
</g>
<!-- Node5&#45;&gt;Node4 -->
<g id="edge4" class="edge"><title>Node5&#45;&gt;Node4</title>
<path fill="none" stroke="midnightblue" d="M537.193,-98.3992C545.765,-97.4119 554.42,-96.4149 562.882,-95.4403"/>
<polygon fill="midnightblue" stroke="midnightblue" points="536.721,-94.9304 527.187,-99.5518 537.522,-101.884 536.721,-94.9304"/>
</g>
<!-- Node7&#45;&gt;Node6 -->
<g id="edge7" class="edge"><title>Node7&#45;&gt;Node6</title>
<path fill="none" stroke="midnightblue" d="M344.143,-16.8419C352.723,-16.9795 361.416,-17.119 369.927,-17.2555"/>
<polygon fill="midnightblue" stroke="midnightblue" points="344.194,-13.3423 334.139,-16.6814 344.081,-20.3414 344.194,-13.3423"/>
</g>
<!-- Node8&#45;&gt;Node5 -->
<g id="edge9" class="edge"><title>Node8&#45;&gt;Node5</title>
<path fill="none" stroke="midnightblue" d="M344.143,-111.264C352.723,-111.034 361.416,-110.802 369.927,-110.574"/>
<polygon fill="midnightblue" stroke="midnightblue" points="344.042,-107.765 334.139,-111.531 344.229,-114.762 344.042,-107.765"/>
</g>
</g>
</svg>
