<?xml version="1.0" encoding="UTF-8" standalone="no"?>
<!DOCTYPE svg PUBLIC "-//W3C//DTD SVG 1.1//EN"
 "http://www.w3.org/Graphics/SVG/1.1/DTD/svg11.dtd">
<!-- Generated by graphviz version 2.38.0 (20140413.2041)
 -->
<!-- Title: org.msrg.raccoon.engine.task.CodingTask.failed Pages: 1 -->
<svg width="554pt" height="39pt"
 viewBox="0.00 0.00 554.00 39.00" xmlns="http://www.w3.org/2000/svg" xmlns:xlink="http://www.w3.org/1999/xlink">
<g id="graph0" class="graph" transform="scale(1 1) rotate(0) translate(4 35)">
<title>org.msrg.raccoon.engine.task.CodingTask.failed</title>
<!-- Node1 -->
<g id="node1" class="node"><title>Node1</title>
<polygon fill="#bfbfbf" stroke="black" points="0,-0.5 0,-30.5 149,-30.5 149,-0.5 0,-0.5"/>
<text text-anchor="start" x="8" y="-18.5" font-family="Helvetica,sans-Serif" font-size="10.00">org.msrg.raccoon.engine.task.</text>
<text text-anchor="middle" x="74.5" y="-7.5" font-family="Helvetica,sans-Serif" font-size="10.00">CodingTask.failed</text>
</g>
<!-- Node2 -->
<g id="node2" class="node"><title>Node2</title>
<g id="a_node2"><a xlink:href="../../d9/d22/classorg_1_1msrg_1_1raccoon_1_1engine_1_1task_1_1CodingTask_a044111e531607f65b98aa358f8b9ea87.html#a044111e531607f65b98aa358f8b9ea87" target="_top" xlink:title="org.msrg.raccoon.engine.task.\lCodingTask.changeStatus">
<polygon fill="none" stroke="black" points="185,-0.5 185,-30.5 334,-30.5 334,-0.5 185,-0.5"/>
<text text-anchor="start" x="193" y="-18.5" font-family="Helvetica,sans-Serif" font-size="10.00">org.msrg.raccoon.engine.task.</text>
<text text-anchor="middle" x="259.5" y="-7.5" font-family="Helvetica,sans-Serif" font-size="10.00">CodingTask.changeStatus</text>
</a>
</g>
</g>
<!-- Node1&#45;&gt;Node2 -->
<g id="edge1" class="edge"><title>Node1&#45;&gt;Node2</title>
<path fill="none" stroke="midnightblue" d="M149.142,-15.5C157.474,-15.5 166.011,-15.5 174.463,-15.5"/>
<polygon fill="midnightblue" stroke="midnightblue" points="174.711,-19.0001 184.711,-15.5 174.711,-12.0001 174.711,-19.0001"/>
</g>
<!-- Node3 -->
<g id="node3" class="node"><title>Node3</title>
<g id="a_node3"><a xlink:href="../../df/d3e/classorg_1_1msrg_1_1raccoon_1_1engine_1_1task_1_1result_1_1CodingResult_adc1efbef3678d862aeb3e8d2caea6a47.html#adc1efbef3678d862aeb3e8d2caea6a47" target="_top" xlink:title="org.msrg.raccoon.engine.task.result.\lCodingResult.setStatus">
<polygon fill="none" stroke="black" points="370,-0.5 370,-30.5 546,-30.5 546,-0.5 370,-0.5"/>
<text text-anchor="start" x="378" y="-18.5" font-family="Helvetica,sans-Serif" font-size="10.00">org.msrg.raccoon.engine.task.result.</text>
<text text-anchor="middle" x="458" y="-7.5" font-family="Helvetica,sans-Serif" font-size="10.00">CodingResult.setStatus</text>
</a>
</g>
</g>
<!-- Node2&#45;&gt;Node3 -->
<g id="edge2" class="edge"><title>Node2&#45;&gt;Node3</title>
<path fill="none" stroke="midnightblue" d="M334.228,-15.5C342.604,-15.5 351.233,-15.5 359.851,-15.5"/>
<polygon fill="midnightblue" stroke="midnightblue" points="359.946,-19.0001 369.946,-15.5 359.946,-12.0001 359.946,-19.0001"/>
</g>
</g>
</svg>
