<?xml version="1.0" encoding="UTF-8" standalone="no"?>
<!DOCTYPE svg PUBLIC "-//W3C//DTD SVG 1.1//EN"
 "http://www.w3.org/Graphics/SVG/1.1/DTD/svg11.dtd">
<!-- Generated by graphviz version 2.38.0 (20140413.2041)
 -->
<!-- Title: org.msrg.raccoon.SlicedCodedBatchTest.testReceivedCodedBatch Pages: 1 -->
<svg width="1463pt" height="602pt"
 viewBox="0.00 0.00 1463.00 602.00" xmlns="http://www.w3.org/2000/svg" xmlns:xlink="http://www.w3.org/1999/xlink">
<g id="graph0" class="graph" transform="scale(1 1) rotate(0) translate(4 598)">
<title>org.msrg.raccoon.SlicedCodedBatchTest.testReceivedCodedBatch</title>
<!-- Node0 -->
<g id="node1" class="node"><title>Node0</title>
<polygon fill="#bfbfbf" stroke="black" points="0,-372.5 0,-402.5 176,-402.5 176,-372.5 0,-372.5"/>
<text text-anchor="start" x="8" y="-390.5" font-family="Helvetica,sans-Serif" font-size="10.00">org.msrg.raccoon.SlicedCoded</text>
<text text-anchor="middle" x="88" y="-379.5" font-family="Helvetica,sans-Serif" font-size="10.00">BatchTest.testReceivedCodedBatch</text>
</g>
<!-- Node1 -->
<g id="node2" class="node"><title>Node1</title>
<g id="a_node2"><a xlink:href="../../da/df0/classorg_1_1msrg_1_1raccoon_1_1ReceivedCodedBatch_a7fb696930d2d487574d2ec3ecfbbcae7.html#a7fb696930d2d487574d2ec3ecfbbcae7" target="_top" xlink:title="org.msrg.raccoon.Received\lCodedBatch.addCodedSlice">
<polygon fill="none" stroke="black" points="232.5,-539.5 232.5,-569.5 372.5,-569.5 372.5,-539.5 232.5,-539.5"/>
<text text-anchor="start" x="240.5" y="-557.5" font-family="Helvetica,sans-Serif" font-size="10.00">org.msrg.raccoon.Received</text>
<text text-anchor="middle" x="302.5" y="-546.5" font-family="Helvetica,sans-Serif" font-size="10.00">CodedBatch.addCodedSlice</text>
</a>
</g>
</g>
<!-- Node0&#45;&gt;Node1 -->
<g id="edge1" class="edge"><title>Node0&#45;&gt;Node1</title>
<path fill="none" stroke="midnightblue" d="M101.832,-402.585C122.998,-426.838 167.349,-475.06 212,-507.5 226.228,-517.837 243.029,-527.282 258.211,-534.951"/>
<polygon fill="midnightblue" stroke="midnightblue" points="256.899,-538.206 267.416,-539.488 259.994,-531.927 256.899,-538.206"/>
</g>
<!-- Node3 -->
<g id="node4" class="node"><title>Node3</title>
<g id="a_node4"><a xlink:href="../../d2/da2/classorg_1_1msrg_1_1raccoon_1_1SourceCodedBatch_aa614a213e1484d4643bf8f6b4eb8616a.html#aa614a213e1484d4643bf8f6b4eb8616a" target="_top" xlink:title="org.msrg.raccoon.SourceCoded\lBatch.code">
<polygon fill="none" stroke="black" points="225,-467.5 225,-497.5 380,-497.5 380,-467.5 225,-467.5"/>
<text text-anchor="start" x="233" y="-485.5" font-family="Helvetica,sans-Serif" font-size="10.00">org.msrg.raccoon.SourceCoded</text>
<text text-anchor="middle" x="302.5" y="-474.5" font-family="Helvetica,sans-Serif" font-size="10.00">Batch.code</text>
</a>
</g>
</g>
<!-- Node0&#45;&gt;Node3 -->
<g id="edge3" class="edge"><title>Node0&#45;&gt;Node3</title>
<path fill="none" stroke="midnightblue" d="M122.671,-402.553C159.4,-418.973 218.293,-445.302 258.378,-463.222"/>
<polygon fill="midnightblue" stroke="midnightblue" points="257.077,-466.474 267.635,-467.36 259.934,-460.084 257.077,-466.474"/>
</g>
<!-- Node13 -->
<g id="node14" class="node"><title>Node13</title>
<g id="a_node14"><a xlink:href="../../da/df0/classorg_1_1msrg_1_1raccoon_1_1ReceivedCodedBatch_aa025693c18e525356f5750174ceccd70.html#aa025693c18e525356f5750174ceccd70" target="_top" xlink:title="org.msrg.raccoon.Received\lCodedBatch.decode">
<polygon fill="none" stroke="black" points="234,-372.5 234,-402.5 371,-402.5 371,-372.5 234,-372.5"/>
<text text-anchor="start" x="242" y="-390.5" font-family="Helvetica,sans-Serif" font-size="10.00">org.msrg.raccoon.Received</text>
<text text-anchor="middle" x="302.5" y="-379.5" font-family="Helvetica,sans-Serif" font-size="10.00">CodedBatch.decode</text>
</a>
</g>
</g>
<!-- Node0&#45;&gt;Node13 -->
<g id="edge14" class="edge"><title>Node0&#45;&gt;Node13</title>
<path fill="none" stroke="midnightblue" d="M176.045,-387.5C191.841,-387.5 208.223,-387.5 223.73,-387.5"/>
<polygon fill="midnightblue" stroke="midnightblue" points="223.78,-391 233.78,-387.5 223.78,-384 223.78,-391"/>
</g>
<!-- Node26 -->
<g id="node27" class="node"><title>Node26</title>
<g id="a_node27"><a xlink:href="../../dd/da2/classorg_1_1msrg_1_1raccoon_1_1CodedBatch_aecd891a0b0992dcc4f97bb4c7d39a2ed.html#aecd891a0b0992dcc4f97bb4c7d39a2ed" target="_top" xlink:title="org.msrg.raccoon.CodedBatch.equals">
<polygon fill="none" stroke="black" points="212,-239 212,-258 393,-258 393,-239 212,-239"/>
<text text-anchor="middle" x="302.5" y="-246" font-family="Helvetica,sans-Serif" font-size="10.00">org.msrg.raccoon.CodedBatch.equals</text>
</a>
</g>
</g>
<!-- Node0&#45;&gt;Node26 -->
<g id="edge31" class="edge"><title>Node0&#45;&gt;Node26</title>
<path fill="none" stroke="midnightblue" d="M112.146,-372.36C153.048,-345.605 237.635,-290.275 278.461,-263.57"/>
<polygon fill="midnightblue" stroke="midnightblue" points="280.482,-266.43 286.935,-258.027 276.651,-260.572 280.482,-266.43"/>
</g>
<!-- Node35 -->
<g id="node36" class="node"><title>Node35</title>
<g id="a_node36"><a xlink:href="../../dd/da2/classorg_1_1msrg_1_1raccoon_1_1CodedBatch_ae74adbc0bb2deba0ababd9f2c1cd7fb9.html#ae74adbc0bb2deba0ababd9f2c1cd7fb9" target="_top" xlink:title="org.msrg.raccoon.CodedBatch.get\lRequiredCodedPieceCount">
<polygon fill="none" stroke="black" points="219.5,-189.5 219.5,-219.5 385.5,-219.5 385.5,-189.5 219.5,-189.5"/>
<text text-anchor="start" x="227.5" y="-207.5" font-family="Helvetica,sans-Serif" font-size="10.00">org.msrg.raccoon.CodedBatch.get</text>
<text text-anchor="middle" x="302.5" y="-196.5" font-family="Helvetica,sans-Serif" font-size="10.00">RequiredCodedPieceCount</text>
</a>
</g>
</g>
<!-- Node0&#45;&gt;Node35 -->
<g id="edge41" class="edge"><title>Node0&#45;&gt;Node35</title>
<path fill="none" stroke="midnightblue" d="M96.5259,-372.27C112.948,-340.649 155.128,-267.649 212,-229.5 215.061,-227.447 218.288,-225.561 221.627,-223.829"/>
<polygon fill="midnightblue" stroke="midnightblue" points="223.113,-226.998 230.692,-219.595 220.15,-220.656 223.113,-226.998"/>
</g>
<!-- Node2 -->
<g id="node3" class="node"><title>Node2</title>
<g id="a_node3"><a xlink:href="../../da/df0/classorg_1_1msrg_1_1raccoon_1_1ReceivedCodedBatch_a7316fa460477ba3d98da31f9a7dd1326.html#a7316fa460477ba3d98da31f9a7dd1326" target="_top" xlink:title="org.msrg.raccoon.Received\lCodedBatch.isSolved">
<polygon fill="none" stroke="black" points="457,-563.5 457,-593.5 594,-593.5 594,-563.5 457,-563.5"/>
<text text-anchor="start" x="465" y="-581.5" font-family="Helvetica,sans-Serif" font-size="10.00">org.msrg.raccoon.Received</text>
<text text-anchor="middle" x="525.5" y="-570.5" font-family="Helvetica,sans-Serif" font-size="10.00">CodedBatch.isSolved</text>
</a>
</g>
</g>
<!-- Node1&#45;&gt;Node2 -->
<g id="edge2" class="edge"><title>Node1&#45;&gt;Node2</title>
<path fill="none" stroke="midnightblue" d="M372.517,-561.995C396.01,-564.546 422.43,-567.415 446.572,-570.037"/>
<polygon fill="midnightblue" stroke="midnightblue" points="446.444,-573.544 456.764,-571.144 447.2,-566.585 446.444,-573.544"/>
</g>
<!-- Node4 -->
<g id="node5" class="node"><title>Node4</title>
<g id="a_node5"><a xlink:href="../../dd/dfd/classorg_1_1msrg_1_1raccoon_1_1CodedPiece_a2356802d8204151b602ba47d25c34ff3.html#a2356802d8204151b602ba47d25c34ff3" target="_top" xlink:title="org.msrg.raccoon.CodedPiece.make\lCodedPiece">
<polygon fill="none" stroke="black" points="437.5,-514.5 437.5,-544.5 613.5,-544.5 613.5,-514.5 437.5,-514.5"/>
<text text-anchor="start" x="445.5" y="-532.5" font-family="Helvetica,sans-Serif" font-size="10.00">org.msrg.raccoon.CodedPiece.make</text>
<text text-anchor="middle" x="525.5" y="-521.5" font-family="Helvetica,sans-Serif" font-size="10.00">CodedPiece</text>
</a>
</g>
</g>
<!-- Node3&#45;&gt;Node4 -->
<g id="edge4" class="edge"><title>Node3&#45;&gt;Node4</title>
<path fill="none" stroke="midnightblue" d="M374.033,-497.5C396.261,-502.228 420.983,-507.485 443.858,-512.35"/>
<polygon fill="midnightblue" stroke="midnightblue" points="443.369,-515.824 453.879,-514.481 444.826,-508.977 443.369,-515.824"/>
</g>
<!-- Node5 -->
<g id="node6" class="node"><title>Node5</title>
<g id="a_node6"><a xlink:href="../../dd/dfd/classorg_1_1msrg_1_1raccoon_1_1CodedPiece_a916100d89d5cbded0ba4a2d7c86727b6.html#a916100d89d5cbded0ba4a2d7c86727b6" target="_top" xlink:title="org.msrg.raccoon.CodedPiece.\lCodedPiece">
<polygon fill="none" stroke="black" points="676,-514.5 676,-544.5 828,-544.5 828,-514.5 676,-514.5"/>
<text text-anchor="start" x="684" y="-532.5" font-family="Helvetica,sans-Serif" font-size="10.00">org.msrg.raccoon.CodedPiece.</text>
<text text-anchor="middle" x="752" y="-521.5" font-family="Helvetica,sans-Serif" font-size="10.00">CodedPiece</text>
</a>
</g>
</g>
<!-- Node4&#45;&gt;Node5 -->
<g id="edge5" class="edge"><title>Node4&#45;&gt;Node5</title>
<path fill="none" stroke="midnightblue" d="M613.619,-529.5C630.664,-529.5 648.525,-529.5 665.516,-529.5"/>
<polygon fill="midnightblue" stroke="midnightblue" points="665.969,-533 675.969,-529.5 665.969,-526 665.969,-533"/>
</g>
<!-- Node6 -->
<g id="node7" class="node"><title>Node6</title>
<g id="a_node7"><a xlink:href="../../dd/d36/classorg_1_1msrg_1_1raccoon_1_1matrix_1_1finitefields_1_1ByteMatrix_a5a3c18a9905c1d33c6a992930e2b6a78.html#a5a3c18a9905c1d33c6a992930e2b6a78" target="_top" xlink:title="org.msrg.raccoon.matrix.finitefields.\lByteMatrix.multiply">
<polygon fill="none" stroke="black" points="898.5,-465.5 898.5,-495.5 1071.5,-495.5 1071.5,-465.5 898.5,-465.5"/>
<text text-anchor="start" x="906.5" y="-483.5" font-family="Helvetica,sans-Serif" font-size="10.00">org.msrg.raccoon.matrix.finitefields.</text>
<text text-anchor="middle" x="985" y="-472.5" font-family="Helvetica,sans-Serif" font-size="10.00">ByteMatrix.multiply</text>
</a>
</g>
</g>
<!-- Node5&#45;&gt;Node6 -->
<g id="edge6" class="edge"><title>Node5&#45;&gt;Node6</title>
<path fill="none" stroke="midnightblue" d="M823.877,-514.465C849.044,-509.127 877.55,-503.08 903.464,-497.583"/>
<polygon fill="midnightblue" stroke="midnightblue" points="904.201,-501.005 913.257,-495.506 902.748,-494.157 904.201,-501.005"/>
</g>
<!-- Node10 -->
<g id="node11" class="node"><title>Node10</title>
<g id="a_node11"><a xlink:href="../../df/da4/classorg_1_1msrg_1_1raccoon_1_1matrix_1_1bulk_1_1BulkMatrix_a7f382b71b1e7fb03fa68f22724f75f88.html#a7f382b71b1e7fb03fa68f22724f75f88" target="_top" xlink:title="org.msrg.raccoon.matrix.bulk.\lBulkMatrix.slice">
<polygon fill="none" stroke="black" points="1125.5,-547.5 1125.5,-577.5 1271.5,-577.5 1271.5,-547.5 1125.5,-547.5"/>
<text text-anchor="start" x="1133.5" y="-565.5" font-family="Helvetica,sans-Serif" font-size="10.00">org.msrg.raccoon.matrix.bulk.</text>
<text text-anchor="middle" x="1198.5" y="-554.5" font-family="Helvetica,sans-Serif" font-size="10.00">BulkMatrix.slice</text>
</a>
</g>
</g>
<!-- Node5&#45;&gt;Node10 -->
<g id="edge12" class="edge"><title>Node5&#45;&gt;Node10</title>
<path fill="none" stroke="midnightblue" d="M819.3,-544.536C839.341,-548.488 861.476,-552.267 882,-554.5 960.849,-563.08 1051.4,-564.515 1115.22,-564.141"/>
<polygon fill="midnightblue" stroke="midnightblue" points="1115.25,-567.641 1125.22,-564.067 1115.2,-560.642 1115.25,-567.641"/>
</g>
<!-- Node12 -->
<g id="node13" class="node"><title>Node12</title>
<g id="a_node13"><a xlink:href="../../db/d3f/classorg_1_1msrg_1_1raccoon_1_1matrix_1_1TypedMatrix_ad1e32e3ad9d793648cb9c17cde3302a6.html#ad1e32e3ad9d793648cb9c17cde3302a6" target="_top" xlink:title="org.msrg.raccoon.matrix.\lTypedMatrix.toArray">
<polygon fill="none" stroke="black" points="922.5,-514.5 922.5,-544.5 1047.5,-544.5 1047.5,-514.5 922.5,-514.5"/>
<text text-anchor="start" x="930.5" y="-532.5" font-family="Helvetica,sans-Serif" font-size="10.00">org.msrg.raccoon.matrix.</text>
<text text-anchor="middle" x="985" y="-521.5" font-family="Helvetica,sans-Serif" font-size="10.00">TypedMatrix.toArray</text>
</a>
</g>
</g>
<!-- Node5&#45;&gt;Node12 -->
<g id="edge13" class="edge"><title>Node5&#45;&gt;Node12</title>
<path fill="none" stroke="midnightblue" d="M828.318,-529.5C855.287,-529.5 885.594,-529.5 912.252,-529.5"/>
<polygon fill="midnightblue" stroke="midnightblue" points="912.276,-533 922.276,-529.5 912.276,-526 912.276,-533"/>
</g>
<!-- Node7 -->
<g id="node8" class="node"><title>Node7</title>
<g id="a_node8"><a xlink:href="../../df/da4/classorg_1_1msrg_1_1raccoon_1_1matrix_1_1bulk_1_1BulkMatrix_a804160abadbedfe02caa0c441731a519.html#a804160abadbedfe02caa0c441731a519" target="_top" xlink:title="org.msrg.raccoon.matrix.bulk.\lBulkMatrix.getContent">
<polygon fill="none" stroke="black" points="1125.5,-378.5 1125.5,-408.5 1271.5,-408.5 1271.5,-378.5 1125.5,-378.5"/>
<text text-anchor="start" x="1133.5" y="-396.5" font-family="Helvetica,sans-Serif" font-size="10.00">org.msrg.raccoon.matrix.bulk.</text>
<text text-anchor="middle" x="1198.5" y="-385.5" font-family="Helvetica,sans-Serif" font-size="10.00">BulkMatrix.getContent</text>
</a>
</g>
</g>
<!-- Node6&#45;&gt;Node7 -->
<g id="edge7" class="edge"><title>Node6&#45;&gt;Node7</title>
<path fill="none" stroke="midnightblue" d="M1017.16,-465.487C1044.89,-452.366 1086.73,-433.173 1124,-418.5 1129.54,-416.317 1135.36,-414.143 1141.2,-412.04"/>
<polygon fill="midnightblue" stroke="midnightblue" points="1142.73,-415.211 1150.99,-408.577 1140.4,-408.611 1142.73,-415.211"/>
</g>
<!-- Node8 -->
<g id="node9" class="node"><title>Node8</title>
<g id="a_node9"><a xlink:href="../../df/da4/classorg_1_1msrg_1_1raccoon_1_1matrix_1_1bulk_1_1BulkMatrix_a1ea2bca79aa590fdcfa5f472acc479cc.html#a1ea2bca79aa590fdcfa5f472acc479cc" target="_top" xlink:title="org.msrg.raccoon.matrix.bulk.\lBulkMatrix.createEmptyMatrix">
<polygon fill="none" stroke="black" points="1124,-476.5 1124,-506.5 1273,-506.5 1273,-476.5 1124,-476.5"/>
<text text-anchor="start" x="1132" y="-494.5" font-family="Helvetica,sans-Serif" font-size="10.00">org.msrg.raccoon.matrix.bulk.</text>
<text text-anchor="middle" x="1198.5" y="-483.5" font-family="Helvetica,sans-Serif" font-size="10.00">BulkMatrix.createEmptyMatrix</text>
</a>
</g>
</g>
<!-- Node6&#45;&gt;Node8 -->
<g id="edge8" class="edge"><title>Node6&#45;&gt;Node8</title>
<path fill="none" stroke="midnightblue" d="M1071.72,-484.958C1085.5,-485.675 1099.75,-486.416 1113.49,-487.13"/>
<polygon fill="midnightblue" stroke="midnightblue" points="1113.71,-490.647 1123.87,-487.671 1114.07,-483.656 1113.71,-490.647"/>
</g>
<!-- Node6&#45;&gt;Node10 -->
<g id="edge10" class="edge"><title>Node6&#45;&gt;Node10</title>
<path fill="none" stroke="midnightblue" d="M1056.91,-495.544C1067.46,-498.452 1078.1,-501.773 1088,-505.5 1114.38,-515.435 1142.56,-530.208 1163.73,-542.226"/>
<polygon fill="midnightblue" stroke="midnightblue" points="1162.22,-545.397 1172.63,-547.355 1165.71,-539.331 1162.22,-545.397"/>
</g>
<!-- Node11 -->
<g id="node12" class="node"><title>Node11</title>
<g id="a_node12"><a xlink:href="../../d6/d6d/classorg_1_1msrg_1_1raccoon_1_1matrix_1_1bulk_1_1SliceMatrix_a4c85807433398a037c9d6885569fba0e.html#a4c85807433398a037c9d6885569fba0e" target="_top" xlink:title="org.msrg.raccoon.matrix.bulk.\lSliceMatrix.loadNoCopy">
<polygon fill="none" stroke="black" points="1125.5,-427.5 1125.5,-457.5 1271.5,-457.5 1271.5,-427.5 1125.5,-427.5"/>
<text text-anchor="start" x="1133.5" y="-445.5" font-family="Helvetica,sans-Serif" font-size="10.00">org.msrg.raccoon.matrix.bulk.</text>
<text text-anchor="middle" x="1198.5" y="-434.5" font-family="Helvetica,sans-Serif" font-size="10.00">SliceMatrix.loadNoCopy</text>
</a>
</g>
</g>
<!-- Node6&#45;&gt;Node11 -->
<g id="edge11" class="edge"><title>Node6&#45;&gt;Node11</title>
<path fill="none" stroke="midnightblue" d="M1069.59,-465.481C1084.6,-462.784 1100.23,-459.976 1115.21,-457.285"/>
<polygon fill="midnightblue" stroke="midnightblue" points="1116.23,-460.658 1125.45,-455.445 1114.99,-453.768 1116.23,-460.658"/>
</g>
<!-- Node9 -->
<g id="node10" class="node"><title>Node9</title>
<g id="a_node10"><a xlink:href="../../df/da4/classorg_1_1msrg_1_1raccoon_1_1matrix_1_1bulk_1_1BulkMatrix_ae52685687565b5725a204d70237d300a.html#ae52685687565b5725a204d70237d300a" target="_top" xlink:title="org.msrg.raccoon.matrix.bulk.\lBulkMatrix.BulkMatrix">
<polygon fill="none" stroke="black" points="1309,-262.5 1309,-292.5 1455,-292.5 1455,-262.5 1309,-262.5"/>
<text text-anchor="start" x="1317" y="-280.5" font-family="Helvetica,sans-Serif" font-size="10.00">org.msrg.raccoon.matrix.bulk.</text>
<text text-anchor="middle" x="1382" y="-269.5" font-family="Helvetica,sans-Serif" font-size="10.00">BulkMatrix.BulkMatrix</text>
</a>
</g>
</g>
<!-- Node8&#45;&gt;Node9 -->
<g id="edge9" class="edge"><title>Node8&#45;&gt;Node9</title>
<path fill="none" stroke="midnightblue" d="M1259.3,-476.328C1264.19,-473.817 1268.84,-470.896 1273,-467.5 1327.75,-422.795 1360.01,-342.545 1373.51,-302.151"/>
<polygon fill="midnightblue" stroke="midnightblue" points="1376.87,-303.151 1376.62,-292.559 1370.21,-300.995 1376.87,-303.151"/>
</g>
<!-- Node14 -->
<g id="node15" class="node"><title>Node14</title>
<g id="a_node15"><a xlink:href="../../da/df0/classorg_1_1msrg_1_1raccoon_1_1ReceivedCodedBatch_a0eb883fc8fa5805904afcc3d6297b85a.html#a0eb883fc8fa5805904afcc3d6297b85a" target="_top" xlink:title="org.msrg.raccoon.Received\lCodedBatch.canSolve">
<polygon fill="none" stroke="black" points="457,-279.5 457,-309.5 594,-309.5 594,-279.5 457,-279.5"/>
<text text-anchor="start" x="465" y="-297.5" font-family="Helvetica,sans-Serif" font-size="10.00">org.msrg.raccoon.Received</text>
<text text-anchor="middle" x="525.5" y="-286.5" font-family="Helvetica,sans-Serif" font-size="10.00">CodedBatch.canSolve</text>
</a>
</g>
</g>
<!-- Node13&#45;&gt;Node14 -->
<g id="edge15" class="edge"><title>Node13&#45;&gt;Node14</title>
<path fill="none" stroke="midnightblue" d="M326.673,-372.382C351.212,-356.951 391.511,-333.233 429,-318.5 434.795,-316.223 440.874,-314.107 447.039,-312.154"/>
<polygon fill="midnightblue" stroke="midnightblue" points="448.207,-315.458 456.77,-309.219 446.185,-308.756 448.207,-315.458"/>
</g>
<!-- Node19 -->
<g id="node20" class="node"><title>Node19</title>
<g id="a_node20"><a xlink:href="../../db/d3f/classorg_1_1msrg_1_1raccoon_1_1matrix_1_1TypedMatrix_a62f3b28a72c0c130fa783e1129694d4e.html#a62f3b28a72c0c130fa783e1129694d4e" target="_top" xlink:title="org.msrg.raccoon.matrix.\lTypedMatrix.inverseMatrix">
<polygon fill="none" stroke="black" points="1132.5,-137.5 1132.5,-167.5 1264.5,-167.5 1264.5,-137.5 1132.5,-137.5"/>
<text text-anchor="start" x="1140.5" y="-155.5" font-family="Helvetica,sans-Serif" font-size="10.00">org.msrg.raccoon.matrix.</text>
<text text-anchor="middle" x="1198.5" y="-144.5" font-family="Helvetica,sans-Serif" font-size="10.00">TypedMatrix.inverseMatrix</text>
</a>
</g>
</g>
<!-- Node13&#45;&gt;Node19 -->
<g id="edge30" class="edge"><title>Node13&#45;&gt;Node19</title>
<path fill="none" stroke="midnightblue" d="M371.191,-389.687C550.519,-394.936 1028.25,-405.175 1088,-367.5 1156.21,-324.488 1183.75,-224.589 1193.22,-177.68"/>
<polygon fill="midnightblue" stroke="midnightblue" points="1196.68,-178.213 1195.12,-167.735 1189.81,-176.903 1196.68,-178.213"/>
</g>
<!-- Node22 -->
<g id="node23" class="node"><title>Node22</title>
<g id="a_node23"><a xlink:href="../../dd/da2/classorg_1_1msrg_1_1raccoon_1_1CodedBatch_ab414d020a52f6be774b5752596dd6660.html#ab414d020a52f6be774b5752596dd6660" target="_top" xlink:title="org.msrg.raccoon.CodedBatch.create\lNewBulkMatrix">
<polygon fill="none" stroke="black" points="436,-416.5 436,-446.5 615,-446.5 615,-416.5 436,-416.5"/>
<text text-anchor="start" x="444" y="-434.5" font-family="Helvetica,sans-Serif" font-size="10.00">org.msrg.raccoon.CodedBatch.create</text>
<text text-anchor="middle" x="525.5" y="-423.5" font-family="Helvetica,sans-Serif" font-size="10.00">NewBulkMatrix</text>
</a>
</g>
</g>
<!-- Node13&#45;&gt;Node22 -->
<g id="edge25" class="edge"><title>Node13&#45;&gt;Node22</title>
<path fill="none" stroke="midnightblue" d="M371.008,-400.941C392.46,-405.211 416.472,-409.992 439.018,-414.481"/>
<polygon fill="midnightblue" stroke="midnightblue" points="438.427,-417.932 448.918,-416.452 439.794,-411.067 438.427,-417.932"/>
</g>
<!-- Node23 -->
<g id="node24" class="node"><title>Node23</title>
<g id="a_node24"><a xlink:href="../../da/df0/classorg_1_1msrg_1_1raccoon_1_1ReceivedCodedBatch_a5621d4c76e51a0ac69a179e1001e6371.html#a5621d4c76e51a0ac69a179e1001e6371" target="_top" xlink:title="org.msrg.raccoon.Received\lCodedBatch.decodeUsing">
<polygon fill="none" stroke="black" points="457,-465.5 457,-495.5 594,-495.5 594,-465.5 457,-465.5"/>
<text text-anchor="start" x="465" y="-483.5" font-family="Helvetica,sans-Serif" font-size="10.00">org.msrg.raccoon.Received</text>
<text text-anchor="middle" x="525.5" y="-472.5" font-family="Helvetica,sans-Serif" font-size="10.00">CodedBatch.decodeUsing</text>
</a>
</g>
</g>
<!-- Node13&#45;&gt;Node23 -->
<g id="edge26" class="edge"><title>Node13&#45;&gt;Node23</title>
<path fill="none" stroke="midnightblue" d="M326.673,-402.618C351.212,-418.049 391.511,-441.767 429,-456.5 434.795,-458.777 440.874,-460.893 447.039,-462.846"/>
<polygon fill="midnightblue" stroke="midnightblue" points="446.185,-466.244 456.77,-465.781 448.207,-459.542 446.185,-466.244"/>
</g>
<!-- Node25 -->
<g id="node26" class="node"><title>Node25</title>
<g id="a_node26"><a xlink:href="../../dd/d36/classorg_1_1msrg_1_1raccoon_1_1CodedCoefficients_acf918826c6649b7987d5138775e956ee.html#acf918826c6649b7987d5138775e956ee" target="_top" xlink:title="org.msrg.raccoon.CodedCoefficients.get\lCoefficients">
<polygon fill="none" stroke="black" points="429,-328.5 429,-358.5 622,-358.5 622,-328.5 429,-328.5"/>
<text text-anchor="start" x="437" y="-346.5" font-family="Helvetica,sans-Serif" font-size="10.00">org.msrg.raccoon.CodedCoefficients.get</text>
<text text-anchor="middle" x="525.5" y="-335.5" font-family="Helvetica,sans-Serif" font-size="10.00">Coefficients</text>
</a>
</g>
</g>
<!-- Node13&#45;&gt;Node25 -->
<g id="edge29" class="edge"><title>Node13&#45;&gt;Node25</title>
<path fill="none" stroke="midnightblue" d="M371.008,-374.059C392.46,-369.789 416.472,-365.008 439.018,-360.519"/>
<polygon fill="midnightblue" stroke="midnightblue" points="439.794,-363.933 448.918,-358.548 438.427,-357.068 439.794,-363.933"/>
</g>
<!-- Node15 -->
<g id="node16" class="node"><title>Node15</title>
<g id="a_node16"><a xlink:href="../../da/df0/classorg_1_1msrg_1_1raccoon_1_1ReceivedCodedBatch_abe5a8dd787d94591fcbdc4aa01e639df.html#abe5a8dd787d94591fcbdc4aa01e639df" target="_top" xlink:title="org.msrg.raccoon.Received\lCodedBatch.canSolveHighPriority">
<polygon fill="none" stroke="black" points="669.5,-235.5 669.5,-265.5 834.5,-265.5 834.5,-235.5 669.5,-235.5"/>
<text text-anchor="start" x="677.5" y="-253.5" font-family="Helvetica,sans-Serif" font-size="10.00">org.msrg.raccoon.Received</text>
<text text-anchor="middle" x="752" y="-242.5" font-family="Helvetica,sans-Serif" font-size="10.00">CodedBatch.canSolveHighPriority</text>
</a>
</g>
</g>
<!-- Node14&#45;&gt;Node15 -->
<g id="edge16" class="edge"><title>Node14&#45;&gt;Node15</title>
<path fill="none" stroke="midnightblue" d="M594.162,-281.239C616.304,-276.899 641.209,-272.018 664.543,-267.445"/>
<polygon fill="midnightblue" stroke="midnightblue" points="665.294,-270.864 674.434,-265.506 663.947,-263.995 665.294,-270.864"/>
</g>
<!-- Node18 -->
<g id="node19" class="node"><title>Node18</title>
<g id="a_node19"><a xlink:href="../../da/df0/classorg_1_1msrg_1_1raccoon_1_1ReceivedCodedBatch_a837b249e1478223f84c24acbbaf33451.html#a837b249e1478223f84c24acbbaf33451" target="_top" xlink:title="org.msrg.raccoon.Received\lCodedBatch.getRequiredCodedPieceCount">
<polygon fill="none" stroke="black" points="882,-328.5 882,-358.5 1088,-358.5 1088,-328.5 882,-328.5"/>
<text text-anchor="start" x="890" y="-346.5" font-family="Helvetica,sans-Serif" font-size="10.00">org.msrg.raccoon.Received</text>
<text text-anchor="middle" x="985" y="-335.5" font-family="Helvetica,sans-Serif" font-size="10.00">CodedBatch.getRequiredCodedPieceCount</text>
</a>
</g>
</g>
<!-- Node14&#45;&gt;Node18 -->
<g id="edge24" class="edge"><title>Node14&#45;&gt;Node18</title>
<path fill="none" stroke="midnightblue" d="M594.006,-301.73C667.048,-309.553 784.718,-322.156 871.725,-331.475"/>
<polygon fill="midnightblue" stroke="midnightblue" points="871.595,-334.981 881.911,-332.566 872.34,-328.021 871.595,-334.981"/>
</g>
<!-- Node16 -->
<g id="node17" class="node"><title>Node16</title>
<g id="a_node17"><a xlink:href="../../db/d3f/classorg_1_1msrg_1_1raccoon_1_1matrix_1_1TypedMatrix_ae1d2f2c49745535f8586ada075ba449e.html#ae1d2f2c49745535f8586ada075ba449e" target="_top" xlink:title="org.msrg.raccoon.matrix.\lTypedMatrix.getInverseRowZero">
<polygon fill="none" stroke="black" points="905.5,-230.5 905.5,-260.5 1064.5,-260.5 1064.5,-230.5 905.5,-230.5"/>
<text text-anchor="start" x="913.5" y="-248.5" font-family="Helvetica,sans-Serif" font-size="10.00">org.msrg.raccoon.matrix.</text>
<text text-anchor="middle" x="985" y="-237.5" font-family="Helvetica,sans-Serif" font-size="10.00">TypedMatrix.getInverseRowZero</text>
</a>
</g>
</g>
<!-- Node15&#45;&gt;Node16 -->
<g id="edge17" class="edge"><title>Node15&#45;&gt;Node16</title>
<path fill="none" stroke="midnightblue" d="M834.767,-248.73C854.419,-248.305 875.5,-247.848 895.445,-247.417"/>
<polygon fill="midnightblue" stroke="midnightblue" points="895.523,-250.916 905.445,-247.2 895.371,-243.918 895.523,-250.916"/>
</g>
<!-- Node17 -->
<g id="node18" class="node"><title>Node17</title>
<g id="a_node18"><a xlink:href="../../da/df0/classorg_1_1msrg_1_1raccoon_1_1ReceivedCodedBatch_ae70ccb56d60221b625265c875e93bcc2.html#ae70ccb56d60221b625265c875e93bcc2" target="_top" xlink:title="org.msrg.raccoon.Received\lCodedBatch.getRandomIndex">
<polygon fill="none" stroke="black" points="911,-181.5 911,-211.5 1059,-211.5 1059,-181.5 911,-181.5"/>
<text text-anchor="start" x="919" y="-199.5" font-family="Helvetica,sans-Serif" font-size="10.00">org.msrg.raccoon.Received</text>
<text text-anchor="middle" x="985" y="-188.5" font-family="Helvetica,sans-Serif" font-size="10.00">CodedBatch.getRandomIndex</text>
</a>
</g>
</g>
<!-- Node15&#45;&gt;Node17 -->
<g id="edge18" class="edge"><title>Node15&#45;&gt;Node17</title>
<path fill="none" stroke="midnightblue" d="M817.346,-235.458C846.012,-228.757 879.946,-220.824 909.687,-213.872"/>
<polygon fill="midnightblue" stroke="midnightblue" points="910.658,-217.239 919.598,-211.555 909.064,-210.423 910.658,-217.239"/>
</g>
<!-- Node15&#45;&gt;Node18 -->
<g id="edge19" class="edge"><title>Node15&#45;&gt;Node18</title>
<path fill="none" stroke="midnightblue" d="M777.366,-265.668C802.694,-280.87 843.892,-304.037 882,-318.5 888.739,-321.057 895.828,-323.421 903,-325.59"/>
<polygon fill="midnightblue" stroke="midnightblue" points="902.226,-329.01 912.805,-328.427 904.171,-322.286 902.226,-329.01"/>
</g>
<!-- Node15&#45;&gt;Node19 -->
<g id="edge20" class="edge"><title>Node15&#45;&gt;Node19</title>
<path fill="none" stroke="midnightblue" d="M828.296,-235.471C834.562,-232.692 840.568,-229.4 846,-225.5 869.43,-208.677 856.989,-185.869 882,-171.5 955.316,-129.379 1054.68,-131.08 1122.17,-139.11"/>
<polygon fill="midnightblue" stroke="midnightblue" points="1121.94,-142.61 1132.3,-140.392 1122.82,-135.665 1121.94,-142.61"/>
</g>
<!-- Node20 -->
<g id="node21" class="node"><title>Node20</title>
<g id="a_node21"><a xlink:href="../../dd/d36/classorg_1_1msrg_1_1raccoon_1_1matrix_1_1finitefields_1_1ByteMatrix_a8d9b66312ac41346f1149bc30061c96a.html#a8d9b66312ac41346f1149bc30061c96a" target="_top" xlink:title="org.msrg.raccoon.matrix.finitefields.\lByteMatrix.isInversable">
<polygon fill="none" stroke="black" points="898.5,-93.5 898.5,-123.5 1071.5,-123.5 1071.5,-93.5 898.5,-93.5"/>
<text text-anchor="start" x="906.5" y="-111.5" font-family="Helvetica,sans-Serif" font-size="10.00">org.msrg.raccoon.matrix.finitefields.</text>
<text text-anchor="middle" x="985" y="-100.5" font-family="Helvetica,sans-Serif" font-size="10.00">ByteMatrix.isInversable</text>
</a>
</g>
</g>
<!-- Node15&#45;&gt;Node20 -->
<g id="edge21" class="edge"><title>Node15&#45;&gt;Node20</title>
<path fill="none" stroke="midnightblue" d="M831.429,-235.406C836.67,-232.633 841.603,-229.361 846,-225.5 877.446,-197.89 850.88,-166.476 882,-138.5 886.397,-134.547 891.29,-131.114 896.487,-128.132"/>
<polygon fill="midnightblue" stroke="midnightblue" points="898.178,-131.199 905.486,-123.528 894.989,-124.967 898.178,-131.199"/>
</g>
<!-- Node21 -->
<g id="node22" class="node"><title>Node21</title>
<g id="a_node22"><a xlink:href="../../da/df0/classorg_1_1msrg_1_1raccoon_1_1ReceivedCodedBatch_ab18664e24c529e824bfaf94bb94640d4.html#ab18664e24c529e824bfaf94bb94640d4" target="_top" xlink:title="org.msrg.raccoon.Received\lCodedBatch.removeBadRow">
<polygon fill="none" stroke="black" points="913.5,-279.5 913.5,-309.5 1056.5,-309.5 1056.5,-279.5 913.5,-279.5"/>
<text text-anchor="start" x="921.5" y="-297.5" font-family="Helvetica,sans-Serif" font-size="10.00">org.msrg.raccoon.Received</text>
<text text-anchor="middle" x="985" y="-286.5" font-family="Helvetica,sans-Serif" font-size="10.00">CodedBatch.removeBadRow</text>
</a>
</g>
</g>
<!-- Node15&#45;&gt;Node21 -->
<g id="edge23" class="edge"><title>Node15&#45;&gt;Node21</title>
<path fill="none" stroke="midnightblue" d="M831.851,-265.519C854.849,-269.9 880.01,-274.692 903.131,-279.096"/>
<polygon fill="midnightblue" stroke="midnightblue" points="902.77,-282.59 913.248,-281.023 904.079,-275.714 902.77,-282.59"/>
</g>
<!-- Node20&#45;&gt;Node19 -->
<g id="edge22" class="edge"><title>Node20&#45;&gt;Node19</title>
<path fill="none" stroke="midnightblue" d="M1058.19,-123.519C1078.96,-127.839 1101.65,-132.56 1122.58,-136.913"/>
<polygon fill="midnightblue" stroke="midnightblue" points="1121.87,-140.34 1132.37,-138.951 1123.29,-133.487 1121.87,-140.34"/>
</g>
<!-- Node23&#45;&gt;Node6 -->
<g id="edge27" class="edge"><title>Node23&#45;&gt;Node6</title>
<path fill="none" stroke="midnightblue" d="M594.006,-480.5C671.71,-480.5 799.921,-480.5 887.991,-480.5"/>
<polygon fill="midnightblue" stroke="midnightblue" points="888.258,-484 898.258,-480.5 888.258,-477 888.258,-484"/>
</g>
<!-- Node24 -->
<g id="node25" class="node"><title>Node24</title>
<g id="a_node25"><a xlink:href="../../da/df0/classorg_1_1msrg_1_1raccoon_1_1ReceivedCodedBatch_a9519556a93ab05e15a4ace66ce538a47.html#a9519556a93ab05e15a4ace66ce538a47" target="_top" xlink:title="org.msrg.raccoon.Received\lCodedBatch.setContent">
<polygon fill="none" stroke="black" points="683.5,-421.5 683.5,-451.5 820.5,-451.5 820.5,-421.5 683.5,-421.5"/>
<text text-anchor="start" x="691.5" y="-439.5" font-family="Helvetica,sans-Serif" font-size="10.00">org.msrg.raccoon.Received</text>
<text text-anchor="middle" x="752" y="-428.5" font-family="Helvetica,sans-Serif" font-size="10.00">CodedBatch.setContent</text>
</a>
</g>
</g>
<!-- Node23&#45;&gt;Node24 -->
<g id="edge28" class="edge"><title>Node23&#45;&gt;Node24</title>
<path fill="none" stroke="midnightblue" d="M594.162,-467.239C619.123,-462.347 647.596,-456.766 673.37,-451.715"/>
<polygon fill="midnightblue" stroke="midnightblue" points="674.337,-455.092 683.477,-449.734 672.99,-448.223 674.337,-455.092"/>
</g>
<!-- Node27 -->
<g id="node28" class="node"><title>Node27</title>
<g id="a_node28"><a xlink:href="../../dd/da2/classorg_1_1msrg_1_1raccoon_1_1CodedBatch_a0d83f9996320268e978e73f0ea41a9d0.html#a0d83f9996320268e978e73f0ea41a9d0" target="_top" xlink:title="org.msrg.raccoon.CodedBatch.\lCodedBatch">
<polygon fill="none" stroke="black" points="449.5,-44.5 449.5,-74.5 601.5,-74.5 601.5,-44.5 449.5,-44.5"/>
<text text-anchor="start" x="457.5" y="-62.5" font-family="Helvetica,sans-Serif" font-size="10.00">org.msrg.raccoon.CodedBatch.</text>
<text text-anchor="middle" x="525.5" y="-51.5" font-family="Helvetica,sans-Serif" font-size="10.00">CodedBatch</text>
</a>
</g>
</g>
<!-- Node26&#45;&gt;Node27 -->
<g id="edge32" class="edge"><title>Node26&#45;&gt;Node27</title>
<path fill="none" stroke="midnightblue" d="M376.939,-238.823C382.765,-236.108 388.229,-232.719 393,-228.5 428.697,-196.929 400.266,-165.518 429,-127.5 443.832,-107.876 465.945,-91.6248 485.159,-79.936"/>
<polygon fill="midnightblue" stroke="midnightblue" points="487.175,-82.8106 494.028,-74.7305 483.632,-76.7735 487.175,-82.8106"/>
</g>
<!-- Node29 -->
<g id="node30" class="node"><title>Node29</title>
<g id="a_node30"><a xlink:href="../../dd/da2/classorg_1_1msrg_1_1raccoon_1_1CodedBatch_a0f775cb64db97a1e67680d072ae4c202.html#a0f775cb64db97a1e67680d072ae4c202" target="_top" xlink:title="org.msrg.raccoon.CodedBatch.equals\lExact">
<polygon fill="none" stroke="black" points="435,-137.5 435,-167.5 616,-167.5 616,-137.5 435,-137.5"/>
<text text-anchor="start" x="443" y="-155.5" font-family="Helvetica,sans-Serif" font-size="10.00">org.msrg.raccoon.CodedBatch.equals</text>
<text text-anchor="middle" x="525.5" y="-144.5" font-family="Helvetica,sans-Serif" font-size="10.00">Exact</text>
</a>
</g>
</g>
<!-- Node26&#45;&gt;Node29 -->
<g id="edge34" class="edge"><title>Node26&#45;&gt;Node29</title>
<path fill="none" stroke="midnightblue" d="M358.718,-238.927C370.242,-236.165 382.172,-232.724 393,-228.5 429.917,-214.098 468.807,-190.415 494.632,-173.31"/>
<polygon fill="midnightblue" stroke="midnightblue" points="496.845,-176.04 503.197,-167.56 492.943,-170.228 496.845,-176.04"/>
</g>
<!-- Node28 -->
<g id="node29" class="node"><title>Node28</title>
<g id="a_node29"><a xlink:href="../../df/da4/classorg_1_1msrg_1_1raccoon_1_1matrix_1_1bulk_1_1BulkMatrix_a257d6e8cb7dcebe468d29c4393b20f3d.html#a257d6e8cb7dcebe468d29c4393b20f3d" target="_top" xlink:title="org.msrg.raccoon.matrix.bulk.\lBulkMatrix.getSize">
<polygon fill="none" stroke="black" points="679,-0.5 679,-30.5 825,-30.5 825,-0.5 679,-0.5"/>
<text text-anchor="start" x="687" y="-18.5" font-family="Helvetica,sans-Serif" font-size="10.00">org.msrg.raccoon.matrix.bulk.</text>
<text text-anchor="middle" x="752" y="-7.5" font-family="Helvetica,sans-Serif" font-size="10.00">BulkMatrix.getSize</text>
</a>
</g>
</g>
<!-- Node27&#45;&gt;Node28 -->
<g id="edge33" class="edge"><title>Node27&#45;&gt;Node28</title>
<path fill="none" stroke="midnightblue" d="M601.567,-44.7875C623.122,-40.5629 646.74,-35.9341 668.706,-31.6289"/>
<polygon fill="midnightblue" stroke="midnightblue" points="669.529,-35.0343 678.669,-29.6763 668.182,-28.165 669.529,-35.0343"/>
</g>
<!-- Node30 -->
<g id="node31" class="node"><title>Node30</title>
<g id="a_node31"><a xlink:href="../../df/da4/classorg_1_1msrg_1_1raccoon_1_1matrix_1_1bulk_1_1BulkMatrix_af6c5f0c294627b409dff7fa2b9e7e5c3.html#af6c5f0c294627b409dff7fa2b9e7e5c3" target="_top" xlink:title="org.msrg.raccoon.matrix.bulk.\lBulkMatrix.equals">
<polygon fill="none" stroke="black" points="679,-49.5 679,-79.5 825,-79.5 825,-49.5 679,-49.5"/>
<text text-anchor="start" x="687" y="-67.5" font-family="Helvetica,sans-Serif" font-size="10.00">org.msrg.raccoon.matrix.bulk.</text>
<text text-anchor="middle" x="752" y="-56.5" font-family="Helvetica,sans-Serif" font-size="10.00">BulkMatrix.equals</text>
</a>
</g>
</g>
<!-- Node29&#45;&gt;Node30 -->
<g id="edge35" class="edge"><title>Node29&#45;&gt;Node30</title>
<path fill="none" stroke="midnightblue" d="M554.068,-137.449C580.237,-123.609 620.967,-103.215 658,-89.5 664.683,-87.0249 671.719,-84.681 678.804,-82.4932"/>
<polygon fill="midnightblue" stroke="midnightblue" points="679.888,-85.8224 688.469,-79.6088 677.886,-79.1147 679.888,-85.8224"/>
</g>
<!-- Node32 -->
<g id="node33" class="node"><title>Node32</title>
<g id="a_node33"><a xlink:href="../../dd/da2/classorg_1_1msrg_1_1raccoon_1_1CodedBatch_ac3e6ebf9f6d3334dec7bba22a83f3999.html#ac3e6ebf9f6d3334dec7bba22a83f3999" target="_top" xlink:title="org.msrg.raccoon.CodedBatch.get\lAvailableCodedPieceCount">
<polygon fill="none" stroke="black" points="669,-186.5 669,-216.5 835,-216.5 835,-186.5 669,-186.5"/>
<text text-anchor="start" x="677" y="-204.5" font-family="Helvetica,sans-Serif" font-size="10.00">org.msrg.raccoon.CodedBatch.get</text>
<text text-anchor="middle" x="752" y="-193.5" font-family="Helvetica,sans-Serif" font-size="10.00">AvailableCodedPieceCount</text>
</a>
</g>
</g>
<!-- Node29&#45;&gt;Node32 -->
<g id="edge38" class="edge"><title>Node29&#45;&gt;Node32</title>
<path fill="none" stroke="midnightblue" d="M595.383,-167.535C619.734,-172.849 647.302,-178.867 672.397,-184.344"/>
<polygon fill="midnightblue" stroke="midnightblue" points="671.731,-187.781 682.247,-186.494 673.224,-180.942 671.731,-187.781"/>
</g>
<!-- Node33 -->
<g id="node34" class="node"><title>Node33</title>
<g id="a_node34"><a xlink:href="../../d1/d78/interfaceorg_1_1msrg_1_1raccoon_1_1ICodedBatch_ac619debd08f8bf73a370c90147ebf9f5.html#ac619debd08f8bf73a370c90147ebf9f5" target="_top" xlink:title="org.msrg.raccoon.ICodedBatch.get\lBulkMatrix">
<polygon fill="none" stroke="black" points="667.5,-137.5 667.5,-167.5 836.5,-167.5 836.5,-137.5 667.5,-137.5"/>
<text text-anchor="start" x="675.5" y="-155.5" font-family="Helvetica,sans-Serif" font-size="10.00">org.msrg.raccoon.ICodedBatch.get</text>
<text text-anchor="middle" x="752" y="-144.5" font-family="Helvetica,sans-Serif" font-size="10.00">BulkMatrix</text>
</a>
</g>
</g>
<!-- Node29&#45;&gt;Node33 -->
<g id="edge39" class="edge"><title>Node29&#45;&gt;Node33</title>
<path fill="none" stroke="midnightblue" d="M616.196,-152.5C629.627,-152.5 643.507,-152.5 657.024,-152.5"/>
<polygon fill="midnightblue" stroke="midnightblue" points="657.276,-156 667.276,-152.5 657.276,-149 657.276,-156"/>
</g>
<!-- Node34 -->
<g id="node35" class="node"><title>Node34</title>
<g id="a_node35"><a xlink:href="../../d1/d78/interfaceorg_1_1msrg_1_1raccoon_1_1ICodedBatch_abc6a498c6f7f8b9245cbb54703eb6807.html#abc6a498c6f7f8b9245cbb54703eb6807" target="_top" xlink:title="org.msrg.raccoon.ICodedBatch.getSize">
<polygon fill="none" stroke="black" points="658,-99 658,-118 846,-118 846,-99 658,-99"/>
<text text-anchor="middle" x="752" y="-106" font-family="Helvetica,sans-Serif" font-size="10.00">org.msrg.raccoon.ICodedBatch.getSize</text>
</a>
</g>
</g>
<!-- Node29&#45;&gt;Node34 -->
<g id="edge40" class="edge"><title>Node29&#45;&gt;Node34</title>
<path fill="none" stroke="midnightblue" d="M603.132,-137.481C632.304,-131.763 665.057,-125.344 692.309,-120.003"/>
<polygon fill="midnightblue" stroke="midnightblue" points="693.325,-123.37 702.465,-118.012 691.979,-116.501 693.325,-123.37"/>
</g>
<!-- Node30&#45;&gt;Node9 -->
<g id="edge36" class="edge"><title>Node30&#45;&gt;Node9</title>
<path fill="none" stroke="midnightblue" d="M825.086,-54.017C932.362,-42.3561 1136.05,-35.7791 1273,-127.5 1320.56,-159.355 1354.28,-219.652 1370.35,-253.284"/>
<polygon fill="midnightblue" stroke="midnightblue" points="1367.21,-254.817 1374.59,-262.411 1373.56,-251.867 1367.21,-254.817"/>
</g>
<!-- Node31 -->
<g id="node32" class="node"><title>Node31</title>
<g id="a_node32"><a xlink:href="../../df/da4/classorg_1_1msrg_1_1raccoon_1_1matrix_1_1bulk_1_1BulkMatrix_a98b3c00a4eb4e1864c20182b3ae0e8ec.html#a98b3c00a4eb4e1864c20182b3ae0e8ec" target="_top" xlink:title="org.msrg.raccoon.matrix.bulk.\lBulkMatrix.getSliceCount">
<polygon fill="none" stroke="black" points="912,-5.5 912,-35.5 1058,-35.5 1058,-5.5 912,-5.5"/>
<text text-anchor="start" x="920" y="-23.5" font-family="Helvetica,sans-Serif" font-size="10.00">org.msrg.raccoon.matrix.bulk.</text>
<text text-anchor="middle" x="985" y="-12.5" font-family="Helvetica,sans-Serif" font-size="10.00">BulkMatrix.getSliceCount</text>
</a>
</g>
</g>
<!-- Node30&#45;&gt;Node31 -->
<g id="edge37" class="edge"><title>Node30&#45;&gt;Node31</title>
<path fill="none" stroke="midnightblue" d="M825.14,-50.7591C849.448,-46.129 876.753,-40.9279 901.78,-36.161"/>
<polygon fill="midnightblue" stroke="midnightblue" points="902.445,-39.5974 911.613,-34.288 901.135,-32.721 902.445,-39.5974"/>
</g>
</g>
</svg>
