<?xml version="1.0" encoding="UTF-8" standalone="no"?>
<!DOCTYPE svg PUBLIC "-//W3C//DTD SVG 1.1//EN"
 "http://www.w3.org/Graphics/SVG/1.1/DTD/svg11.dtd">
<!-- Generated by graphviz version 2.38.0 (20140413.2041)
 -->
<!-- Title: org.msrg.raccoon.SlicedCodedBatchTest.testReceivedCodedBatch Pages: 1 -->
<svg width="1463pt" height="595pt"
 viewBox="0.00 0.00 1463.00 595.00" xmlns="http://www.w3.org/2000/svg" xmlns:xlink="http://www.w3.org/1999/xlink">
<g id="graph0" class="graph" transform="scale(1 1) rotate(0) translate(4 591)">
<title>org.msrg.raccoon.SlicedCodedBatchTest.testReceivedCodedBatch</title>
<!-- Node1 -->
<g id="node1" class="node"><title>Node1</title>
<polygon fill="#bfbfbf" stroke="black" points="0,-365.5 0,-395.5 176,-395.5 176,-365.5 0,-365.5"/>
<text text-anchor="start" x="8" y="-383.5" font-family="Helvetica,sans-Serif" font-size="10.00">org.msrg.raccoon.SlicedCoded</text>
<text text-anchor="middle" x="88" y="-372.5" font-family="Helvetica,sans-Serif" font-size="10.00">BatchTest.testReceivedCodedBatch</text>
</g>
<!-- Node2 -->
<g id="node2" class="node"><title>Node2</title>
<g id="a_node2"><a xlink:href="../../da/df0/classorg_1_1msrg_1_1raccoon_1_1ReceivedCodedBatch_a7fb696930d2d487574d2ec3ecfbbcae7.html#a7fb696930d2d487574d2ec3ecfbbcae7" target="_top" xlink:title="org.msrg.raccoon.Received\lCodedBatch.addCodedSlice">
<polygon fill="none" stroke="black" points="232.5,-532.5 232.5,-562.5 372.5,-562.5 372.5,-532.5 232.5,-532.5"/>
<text text-anchor="start" x="240.5" y="-550.5" font-family="Helvetica,sans-Serif" font-size="10.00">org.msrg.raccoon.Received</text>
<text text-anchor="middle" x="302.5" y="-539.5" font-family="Helvetica,sans-Serif" font-size="10.00">CodedBatch.addCodedSlice</text>
</a>
</g>
</g>
<!-- Node1&#45;&gt;Node2 -->
<g id="edge1" class="edge"><title>Node1&#45;&gt;Node2</title>
<path fill="none" stroke="midnightblue" d="M101.832,-395.585C122.998,-419.838 167.349,-468.06 212,-500.5 226.228,-510.837 243.029,-520.282 258.211,-527.951"/>
<polygon fill="midnightblue" stroke="midnightblue" points="256.899,-531.206 267.416,-532.488 259.994,-524.927 256.899,-531.206"/>
</g>
<!-- Node4 -->
<g id="node4" class="node"><title>Node4</title>
<g id="a_node4"><a xlink:href="../../d2/da2/classorg_1_1msrg_1_1raccoon_1_1SourceCodedBatch_aa614a213e1484d4643bf8f6b4eb8616a.html#aa614a213e1484d4643bf8f6b4eb8616a" target="_top" xlink:title="org.msrg.raccoon.SourceCoded\lBatch.code">
<polygon fill="none" stroke="black" points="225,-460.5 225,-490.5 380,-490.5 380,-460.5 225,-460.5"/>
<text text-anchor="start" x="233" y="-478.5" font-family="Helvetica,sans-Serif" font-size="10.00">org.msrg.raccoon.SourceCoded</text>
<text text-anchor="middle" x="302.5" y="-467.5" font-family="Helvetica,sans-Serif" font-size="10.00">Batch.code</text>
</a>
</g>
</g>
<!-- Node1&#45;&gt;Node4 -->
<g id="edge3" class="edge"><title>Node1&#45;&gt;Node4</title>
<path fill="none" stroke="midnightblue" d="M122.671,-395.553C159.4,-411.973 218.293,-438.302 258.378,-456.222"/>
<polygon fill="midnightblue" stroke="midnightblue" points="257.077,-459.474 267.635,-460.36 259.934,-453.084 257.077,-459.474"/>
</g>
<!-- Node14 -->
<g id="node14" class="node"><title>Node14</title>
<g id="a_node14"><a xlink:href="../../da/df0/classorg_1_1msrg_1_1raccoon_1_1ReceivedCodedBatch_aa025693c18e525356f5750174ceccd70.html#aa025693c18e525356f5750174ceccd70" target="_top" xlink:title="org.msrg.raccoon.Received\lCodedBatch.decode">
<polygon fill="none" stroke="black" points="234,-365.5 234,-395.5 371,-395.5 371,-365.5 234,-365.5"/>
<text text-anchor="start" x="242" y="-383.5" font-family="Helvetica,sans-Serif" font-size="10.00">org.msrg.raccoon.Received</text>
<text text-anchor="middle" x="302.5" y="-372.5" font-family="Helvetica,sans-Serif" font-size="10.00">CodedBatch.decode</text>
</a>
</g>
</g>
<!-- Node1&#45;&gt;Node14 -->
<g id="edge14" class="edge"><title>Node1&#45;&gt;Node14</title>
<path fill="none" stroke="midnightblue" d="M176.045,-380.5C191.841,-380.5 208.223,-380.5 223.73,-380.5"/>
<polygon fill="midnightblue" stroke="midnightblue" points="223.78,-384 233.78,-380.5 223.78,-377 223.78,-384"/>
</g>
<!-- Node27 -->
<g id="node27" class="node"><title>Node27</title>
<g id="a_node27"><a xlink:href="../../dd/da2/classorg_1_1msrg_1_1raccoon_1_1CodedBatch_aecd891a0b0992dcc4f97bb4c7d39a2ed.html#aecd891a0b0992dcc4f97bb4c7d39a2ed" target="_top" xlink:title="org.msrg.raccoon.CodedBatch.equals">
<polygon fill="none" stroke="black" points="212,-223 212,-242 393,-242 393,-223 212,-223"/>
<text text-anchor="middle" x="302.5" y="-230" font-family="Helvetica,sans-Serif" font-size="10.00">org.msrg.raccoon.CodedBatch.equals</text>
</a>
</g>
</g>
<!-- Node1&#45;&gt;Node27 -->
<g id="edge31" class="edge"><title>Node1&#45;&gt;Node27</title>
<path fill="none" stroke="midnightblue" d="M110.545,-365.495C151.144,-337.219 238.565,-276.333 279.506,-247.818"/>
<polygon fill="midnightblue" stroke="midnightblue" points="281.525,-250.677 287.731,-242.09 277.524,-244.933 281.525,-250.677"/>
</g>
<!-- Node35 -->
<g id="node35" class="node"><title>Node35</title>
<g id="a_node35"><a xlink:href="../../dd/da2/classorg_1_1msrg_1_1raccoon_1_1CodedBatch_ae74adbc0bb2deba0ababd9f2c1cd7fb9.html#ae74adbc0bb2deba0ababd9f2c1cd7fb9" target="_top" xlink:title="org.msrg.raccoon.CodedBatch.get\lRequiredCodedPieceCount">
<polygon fill="none" stroke="black" points="219.5,-173.5 219.5,-203.5 385.5,-203.5 385.5,-173.5 219.5,-173.5"/>
<text text-anchor="start" x="227.5" y="-191.5" font-family="Helvetica,sans-Serif" font-size="10.00">org.msrg.raccoon.CodedBatch.get</text>
<text text-anchor="middle" x="302.5" y="-180.5" font-family="Helvetica,sans-Serif" font-size="10.00">RequiredCodedPieceCount</text>
</a>
</g>
</g>
<!-- Node1&#45;&gt;Node35 -->
<g id="edge40" class="edge"><title>Node1&#45;&gt;Node35</title>
<path fill="none" stroke="midnightblue" d="M95.8074,-365.404C111.415,-332.539 153.029,-254.207 212,-213.5 214.875,-211.515 217.905,-209.687 221.041,-208.004"/>
<polygon fill="midnightblue" stroke="midnightblue" points="222.633,-211.122 230.127,-203.633 219.598,-204.814 222.633,-211.122"/>
</g>
<!-- Node3 -->
<g id="node3" class="node"><title>Node3</title>
<g id="a_node3"><a xlink:href="../../da/df0/classorg_1_1msrg_1_1raccoon_1_1ReceivedCodedBatch_a7316fa460477ba3d98da31f9a7dd1326.html#a7316fa460477ba3d98da31f9a7dd1326" target="_top" xlink:title="org.msrg.raccoon.Received\lCodedBatch.isSolved">
<polygon fill="none" stroke="black" points="457,-556.5 457,-586.5 594,-586.5 594,-556.5 457,-556.5"/>
<text text-anchor="start" x="465" y="-574.5" font-family="Helvetica,sans-Serif" font-size="10.00">org.msrg.raccoon.Received</text>
<text text-anchor="middle" x="525.5" y="-563.5" font-family="Helvetica,sans-Serif" font-size="10.00">CodedBatch.isSolved</text>
</a>
</g>
</g>
<!-- Node2&#45;&gt;Node3 -->
<g id="edge2" class="edge"><title>Node2&#45;&gt;Node3</title>
<path fill="none" stroke="midnightblue" d="M372.517,-554.995C396.01,-557.546 422.43,-560.415 446.572,-563.037"/>
<polygon fill="midnightblue" stroke="midnightblue" points="446.444,-566.544 456.764,-564.144 447.2,-559.585 446.444,-566.544"/>
</g>
<!-- Node5 -->
<g id="node5" class="node"><title>Node5</title>
<g id="a_node5"><a xlink:href="../../dd/dfd/classorg_1_1msrg_1_1raccoon_1_1CodedPiece_a2356802d8204151b602ba47d25c34ff3.html#a2356802d8204151b602ba47d25c34ff3" target="_top" xlink:title="org.msrg.raccoon.CodedPiece.make\lCodedPiece">
<polygon fill="none" stroke="black" points="437.5,-507.5 437.5,-537.5 613.5,-537.5 613.5,-507.5 437.5,-507.5"/>
<text text-anchor="start" x="445.5" y="-525.5" font-family="Helvetica,sans-Serif" font-size="10.00">org.msrg.raccoon.CodedPiece.make</text>
<text text-anchor="middle" x="525.5" y="-514.5" font-family="Helvetica,sans-Serif" font-size="10.00">CodedPiece</text>
</a>
</g>
</g>
<!-- Node4&#45;&gt;Node5 -->
<g id="edge4" class="edge"><title>Node4&#45;&gt;Node5</title>
<path fill="none" stroke="midnightblue" d="M374.033,-490.5C396.261,-495.228 420.983,-500.485 443.858,-505.35"/>
<polygon fill="midnightblue" stroke="midnightblue" points="443.369,-508.824 453.879,-507.481 444.826,-501.977 443.369,-508.824"/>
</g>
<!-- Node6 -->
<g id="node6" class="node"><title>Node6</title>
<g id="a_node6"><a xlink:href="../../dd/dfd/classorg_1_1msrg_1_1raccoon_1_1CodedPiece_a916100d89d5cbded0ba4a2d7c86727b6.html#a916100d89d5cbded0ba4a2d7c86727b6" target="_top" xlink:title="org.msrg.raccoon.CodedPiece.\lCodedPiece">
<polygon fill="none" stroke="black" points="676,-507.5 676,-537.5 828,-537.5 828,-507.5 676,-507.5"/>
<text text-anchor="start" x="684" y="-525.5" font-family="Helvetica,sans-Serif" font-size="10.00">org.msrg.raccoon.CodedPiece.</text>
<text text-anchor="middle" x="752" y="-514.5" font-family="Helvetica,sans-Serif" font-size="10.00">CodedPiece</text>
</a>
</g>
</g>
<!-- Node5&#45;&gt;Node6 -->
<g id="edge5" class="edge"><title>Node5&#45;&gt;Node6</title>
<path fill="none" stroke="midnightblue" d="M613.619,-522.5C630.664,-522.5 648.525,-522.5 665.516,-522.5"/>
<polygon fill="midnightblue" stroke="midnightblue" points="665.969,-526 675.969,-522.5 665.969,-519 665.969,-526"/>
</g>
<!-- Node7 -->
<g id="node7" class="node"><title>Node7</title>
<g id="a_node7"><a xlink:href="../../dd/d36/classorg_1_1msrg_1_1raccoon_1_1matrix_1_1finitefields_1_1ByteMatrix_a5a3c18a9905c1d33c6a992930e2b6a78.html#a5a3c18a9905c1d33c6a992930e2b6a78" target="_top" xlink:title="org.msrg.raccoon.matrix.finitefields.\lByteMatrix.multiply">
<polygon fill="none" stroke="black" points="898.5,-458.5 898.5,-488.5 1071.5,-488.5 1071.5,-458.5 898.5,-458.5"/>
<text text-anchor="start" x="906.5" y="-476.5" font-family="Helvetica,sans-Serif" font-size="10.00">org.msrg.raccoon.matrix.finitefields.</text>
<text text-anchor="middle" x="985" y="-465.5" font-family="Helvetica,sans-Serif" font-size="10.00">ByteMatrix.multiply</text>
</a>
</g>
</g>
<!-- Node6&#45;&gt;Node7 -->
<g id="edge6" class="edge"><title>Node6&#45;&gt;Node7</title>
<path fill="none" stroke="midnightblue" d="M823.877,-507.465C849.044,-502.127 877.55,-496.08 903.464,-490.583"/>
<polygon fill="midnightblue" stroke="midnightblue" points="904.201,-494.005 913.257,-488.506 902.748,-487.157 904.201,-494.005"/>
</g>
<!-- Node11 -->
<g id="node11" class="node"><title>Node11</title>
<g id="a_node11"><a xlink:href="../../df/da4/classorg_1_1msrg_1_1raccoon_1_1matrix_1_1bulk_1_1BulkMatrix_a7f382b71b1e7fb03fa68f22724f75f88.html#a7f382b71b1e7fb03fa68f22724f75f88" target="_top" xlink:title="org.msrg.raccoon.matrix.bulk.\lBulkMatrix.slice">
<polygon fill="none" stroke="black" points="1125.5,-540.5 1125.5,-570.5 1271.5,-570.5 1271.5,-540.5 1125.5,-540.5"/>
<text text-anchor="start" x="1133.5" y="-558.5" font-family="Helvetica,sans-Serif" font-size="10.00">org.msrg.raccoon.matrix.bulk.</text>
<text text-anchor="middle" x="1198.5" y="-547.5" font-family="Helvetica,sans-Serif" font-size="10.00">BulkMatrix.slice</text>
</a>
</g>
</g>
<!-- Node6&#45;&gt;Node11 -->
<g id="edge12" class="edge"><title>Node6&#45;&gt;Node11</title>
<path fill="none" stroke="midnightblue" d="M819.3,-537.536C839.341,-541.488 861.476,-545.267 882,-547.5 960.849,-556.08 1051.4,-557.515 1115.22,-557.141"/>
<polygon fill="midnightblue" stroke="midnightblue" points="1115.25,-560.641 1125.22,-557.067 1115.2,-553.642 1115.25,-560.641"/>
</g>
<!-- Node13 -->
<g id="node13" class="node"><title>Node13</title>
<g id="a_node13"><a xlink:href="../../db/d3f/classorg_1_1msrg_1_1raccoon_1_1matrix_1_1TypedMatrix_ad1e32e3ad9d793648cb9c17cde3302a6.html#ad1e32e3ad9d793648cb9c17cde3302a6" target="_top" xlink:title="org.msrg.raccoon.matrix.\lTypedMatrix.toArray">
<polygon fill="none" stroke="black" points="922.5,-507.5 922.5,-537.5 1047.5,-537.5 1047.5,-507.5 922.5,-507.5"/>
<text text-anchor="start" x="930.5" y="-525.5" font-family="Helvetica,sans-Serif" font-size="10.00">org.msrg.raccoon.matrix.</text>
<text text-anchor="middle" x="985" y="-514.5" font-family="Helvetica,sans-Serif" font-size="10.00">TypedMatrix.toArray</text>
</a>
</g>
</g>
<!-- Node6&#45;&gt;Node13 -->
<g id="edge13" class="edge"><title>Node6&#45;&gt;Node13</title>
<path fill="none" stroke="midnightblue" d="M828.318,-522.5C855.287,-522.5 885.594,-522.5 912.252,-522.5"/>
<polygon fill="midnightblue" stroke="midnightblue" points="912.276,-526 922.276,-522.5 912.276,-519 912.276,-526"/>
</g>
<!-- Node8 -->
<g id="node8" class="node"><title>Node8</title>
<g id="a_node8"><a xlink:href="../../df/da4/classorg_1_1msrg_1_1raccoon_1_1matrix_1_1bulk_1_1BulkMatrix_a804160abadbedfe02caa0c441731a519.html#a804160abadbedfe02caa0c441731a519" target="_top" xlink:title="org.msrg.raccoon.matrix.bulk.\lBulkMatrix.getContent">
<polygon fill="none" stroke="black" points="1125.5,-371.5 1125.5,-401.5 1271.5,-401.5 1271.5,-371.5 1125.5,-371.5"/>
<text text-anchor="start" x="1133.5" y="-389.5" font-family="Helvetica,sans-Serif" font-size="10.00">org.msrg.raccoon.matrix.bulk.</text>
<text text-anchor="middle" x="1198.5" y="-378.5" font-family="Helvetica,sans-Serif" font-size="10.00">BulkMatrix.getContent</text>
</a>
</g>
</g>
<!-- Node7&#45;&gt;Node8 -->
<g id="edge7" class="edge"><title>Node7&#45;&gt;Node8</title>
<path fill="none" stroke="midnightblue" d="M1052.74,-458.486C1064.86,-454.484 1077.1,-449.543 1088,-443.5 1106.72,-433.118 1105.5,-422.271 1124,-411.5 1127.6,-409.402 1131.41,-407.446 1135.32,-405.628"/>
<polygon fill="midnightblue" stroke="midnightblue" points="1136.77,-408.811 1144.57,-401.636 1134,-402.384 1136.77,-408.811"/>
</g>
<!-- Node9 -->
<g id="node9" class="node"><title>Node9</title>
<g id="a_node9"><a xlink:href="../../df/da4/classorg_1_1msrg_1_1raccoon_1_1matrix_1_1bulk_1_1BulkMatrix_a1ea2bca79aa590fdcfa5f472acc479cc.html#a1ea2bca79aa590fdcfa5f472acc479cc" target="_top" xlink:title="org.msrg.raccoon.matrix.bulk.\lBulkMatrix.createEmptyMatrix">
<polygon fill="none" stroke="black" points="1124,-469.5 1124,-499.5 1273,-499.5 1273,-469.5 1124,-469.5"/>
<text text-anchor="start" x="1132" y="-487.5" font-family="Helvetica,sans-Serif" font-size="10.00">org.msrg.raccoon.matrix.bulk.</text>
<text text-anchor="middle" x="1198.5" y="-476.5" font-family="Helvetica,sans-Serif" font-size="10.00">BulkMatrix.createEmptyMatrix</text>
</a>
</g>
</g>
<!-- Node7&#45;&gt;Node9 -->
<g id="edge8" class="edge"><title>Node7&#45;&gt;Node9</title>
<path fill="none" stroke="midnightblue" d="M1071.72,-477.958C1085.5,-478.675 1099.75,-479.416 1113.49,-480.13"/>
<polygon fill="midnightblue" stroke="midnightblue" points="1113.71,-483.647 1123.87,-480.671 1114.07,-476.656 1113.71,-483.647"/>
</g>
<!-- Node7&#45;&gt;Node11 -->
<g id="edge10" class="edge"><title>Node7&#45;&gt;Node11</title>
<path fill="none" stroke="midnightblue" d="M1056.91,-488.544C1067.46,-491.452 1078.1,-494.773 1088,-498.5 1114.38,-508.435 1142.56,-523.208 1163.73,-535.226"/>
<polygon fill="midnightblue" stroke="midnightblue" points="1162.22,-538.397 1172.63,-540.355 1165.71,-532.331 1162.22,-538.397"/>
</g>
<!-- Node12 -->
<g id="node12" class="node"><title>Node12</title>
<g id="a_node12"><a xlink:href="../../d6/d6d/classorg_1_1msrg_1_1raccoon_1_1matrix_1_1bulk_1_1SliceMatrix_a4c85807433398a037c9d6885569fba0e.html#a4c85807433398a037c9d6885569fba0e" target="_top" xlink:title="org.msrg.raccoon.matrix.bulk.\lSliceMatrix.loadNoCopy">
<polygon fill="none" stroke="black" points="1125.5,-420.5 1125.5,-450.5 1271.5,-450.5 1271.5,-420.5 1125.5,-420.5"/>
<text text-anchor="start" x="1133.5" y="-438.5" font-family="Helvetica,sans-Serif" font-size="10.00">org.msrg.raccoon.matrix.bulk.</text>
<text text-anchor="middle" x="1198.5" y="-427.5" font-family="Helvetica,sans-Serif" font-size="10.00">SliceMatrix.loadNoCopy</text>
</a>
</g>
</g>
<!-- Node7&#45;&gt;Node12 -->
<g id="edge11" class="edge"><title>Node7&#45;&gt;Node12</title>
<path fill="none" stroke="midnightblue" d="M1069.59,-458.481C1084.6,-455.784 1100.23,-452.976 1115.21,-450.285"/>
<polygon fill="midnightblue" stroke="midnightblue" points="1116.23,-453.658 1125.45,-448.445 1114.99,-446.768 1116.23,-453.658"/>
</g>
<!-- Node10 -->
<g id="node10" class="node"><title>Node10</title>
<g id="a_node10"><a xlink:href="../../df/da4/classorg_1_1msrg_1_1raccoon_1_1matrix_1_1bulk_1_1BulkMatrix_ae52685687565b5725a204d70237d300a.html#ae52685687565b5725a204d70237d300a" target="_top" xlink:title="org.msrg.raccoon.matrix.bulk.\lBulkMatrix.BulkMatrix">
<polygon fill="none" stroke="black" points="1309,-280.5 1309,-310.5 1455,-310.5 1455,-280.5 1309,-280.5"/>
<text text-anchor="start" x="1317" y="-298.5" font-family="Helvetica,sans-Serif" font-size="10.00">org.msrg.raccoon.matrix.bulk.</text>
<text text-anchor="middle" x="1382" y="-287.5" font-family="Helvetica,sans-Serif" font-size="10.00">BulkMatrix.BulkMatrix</text>
</a>
</g>
</g>
<!-- Node9&#45;&gt;Node10 -->
<g id="edge9" class="edge"><title>Node9&#45;&gt;Node10</title>
<path fill="none" stroke="midnightblue" d="M1258.33,-469.411C1263.54,-466.876 1268.52,-463.927 1273,-460.5 1322.2,-422.832 1355.81,-355.956 1371.29,-319.997"/>
<polygon fill="midnightblue" stroke="midnightblue" points="1374.54,-321.301 1375.17,-310.725 1368.08,-318.598 1374.54,-321.301"/>
</g>
<!-- Node15 -->
<g id="node15" class="node"><title>Node15</title>
<g id="a_node15"><a xlink:href="../../da/df0/classorg_1_1msrg_1_1raccoon_1_1ReceivedCodedBatch_a0eb883fc8fa5805904afcc3d6297b85a.html#a0eb883fc8fa5805904afcc3d6297b85a" target="_top" xlink:title="org.msrg.raccoon.Received\lCodedBatch.canSolve">
<polygon fill="none" stroke="black" points="457,-258.5 457,-288.5 594,-288.5 594,-258.5 457,-258.5"/>
<text text-anchor="start" x="465" y="-276.5" font-family="Helvetica,sans-Serif" font-size="10.00">org.msrg.raccoon.Received</text>
<text text-anchor="middle" x="525.5" y="-265.5" font-family="Helvetica,sans-Serif" font-size="10.00">CodedBatch.canSolve</text>
</a>
</g>
</g>
<!-- Node14&#45;&gt;Node15 -->
<g id="edge15" class="edge"><title>Node14&#45;&gt;Node15</title>
<path fill="none" stroke="midnightblue" d="M328.972,-365.274C353.99,-350.614 393.468,-328.258 429,-311.5 443.298,-304.756 459.138,-298.129 473.739,-292.346"/>
<polygon fill="midnightblue" stroke="midnightblue" points="475.089,-295.576 483.127,-288.674 472.539,-289.057 475.089,-295.576"/>
</g>
<!-- Node20 -->
<g id="node20" class="node"><title>Node20</title>
<g id="a_node20"><a xlink:href="../../db/d3f/classorg_1_1msrg_1_1raccoon_1_1matrix_1_1TypedMatrix_a62f3b28a72c0c130fa783e1129694d4e.html#a62f3b28a72c0c130fa783e1129694d4e" target="_top" xlink:title="org.msrg.raccoon.matrix.\lTypedMatrix.inverseMatrix">
<polygon fill="none" stroke="black" points="1132.5,-228.5 1132.5,-258.5 1264.5,-258.5 1264.5,-228.5 1132.5,-228.5"/>
<text text-anchor="start" x="1140.5" y="-246.5" font-family="Helvetica,sans-Serif" font-size="10.00">org.msrg.raccoon.matrix.</text>
<text text-anchor="middle" x="1198.5" y="-235.5" font-family="Helvetica,sans-Serif" font-size="10.00">TypedMatrix.inverseMatrix</text>
</a>
</g>
</g>
<!-- Node14&#45;&gt;Node20 -->
<g id="edge30" class="edge"><title>Node14&#45;&gt;Node20</title>
<path fill="none" stroke="midnightblue" d="M371.248,-382.216C474.013,-385.137 675.4,-392.105 846,-405.5 862.049,-406.76 865.926,-408.61 882,-409.5 973.415,-414.563 1007.38,-452.898 1088,-409.5 1095.38,-405.529 1154.53,-312.126 1182.69,-267.208"/>
<polygon fill="midnightblue" stroke="midnightblue" points="1185.71,-268.993 1188.05,-258.66 1179.77,-265.278 1185.71,-268.993"/>
</g>
<!-- Node23 -->
<g id="node23" class="node"><title>Node23</title>
<g id="a_node23"><a xlink:href="../../dd/da2/classorg_1_1msrg_1_1raccoon_1_1CodedBatch_ab414d020a52f6be774b5752596dd6660.html#ab414d020a52f6be774b5752596dd6660" target="_top" xlink:title="org.msrg.raccoon.CodedBatch.create\lNewBulkMatrix">
<polygon fill="none" stroke="black" points="436,-409.5 436,-439.5 615,-439.5 615,-409.5 436,-409.5"/>
<text text-anchor="start" x="444" y="-427.5" font-family="Helvetica,sans-Serif" font-size="10.00">org.msrg.raccoon.CodedBatch.create</text>
<text text-anchor="middle" x="525.5" y="-416.5" font-family="Helvetica,sans-Serif" font-size="10.00">NewBulkMatrix</text>
</a>
</g>
</g>
<!-- Node14&#45;&gt;Node23 -->
<g id="edge25" class="edge"><title>Node14&#45;&gt;Node23</title>
<path fill="none" stroke="midnightblue" d="M371.008,-393.941C392.46,-398.211 416.472,-402.992 439.018,-407.481"/>
<polygon fill="midnightblue" stroke="midnightblue" points="438.427,-410.932 448.918,-409.452 439.794,-404.067 438.427,-410.932"/>
</g>
<!-- Node24 -->
<g id="node24" class="node"><title>Node24</title>
<g id="a_node24"><a xlink:href="../../da/df0/classorg_1_1msrg_1_1raccoon_1_1ReceivedCodedBatch_a5621d4c76e51a0ac69a179e1001e6371.html#a5621d4c76e51a0ac69a179e1001e6371" target="_top" xlink:title="org.msrg.raccoon.Received\lCodedBatch.decodeUsing">
<polygon fill="none" stroke="black" points="457,-458.5 457,-488.5 594,-488.5 594,-458.5 457,-458.5"/>
<text text-anchor="start" x="465" y="-476.5" font-family="Helvetica,sans-Serif" font-size="10.00">org.msrg.raccoon.Received</text>
<text text-anchor="middle" x="525.5" y="-465.5" font-family="Helvetica,sans-Serif" font-size="10.00">CodedBatch.decodeUsing</text>
</a>
</g>
</g>
<!-- Node14&#45;&gt;Node24 -->
<g id="edge26" class="edge"><title>Node14&#45;&gt;Node24</title>
<path fill="none" stroke="midnightblue" d="M326.673,-395.618C351.212,-411.049 391.511,-434.767 429,-449.5 434.795,-451.777 440.874,-453.893 447.039,-455.846"/>
<polygon fill="midnightblue" stroke="midnightblue" points="446.185,-459.244 456.77,-458.781 448.207,-452.542 446.185,-459.244"/>
</g>
<!-- Node26 -->
<g id="node26" class="node"><title>Node26</title>
<g id="a_node26"><a xlink:href="../../dd/d36/classorg_1_1msrg_1_1raccoon_1_1CodedCoefficients_acf918826c6649b7987d5138775e956ee.html#acf918826c6649b7987d5138775e956ee" target="_top" xlink:title="org.msrg.raccoon.CodedCoefficients.get\lCoefficients">
<polygon fill="none" stroke="black" points="429,-321.5 429,-351.5 622,-351.5 622,-321.5 429,-321.5"/>
<text text-anchor="start" x="437" y="-339.5" font-family="Helvetica,sans-Serif" font-size="10.00">org.msrg.raccoon.CodedCoefficients.get</text>
<text text-anchor="middle" x="525.5" y="-328.5" font-family="Helvetica,sans-Serif" font-size="10.00">Coefficients</text>
</a>
</g>
</g>
<!-- Node14&#45;&gt;Node26 -->
<g id="edge29" class="edge"><title>Node14&#45;&gt;Node26</title>
<path fill="none" stroke="midnightblue" d="M371.008,-367.059C392.46,-362.789 416.472,-358.008 439.018,-353.519"/>
<polygon fill="midnightblue" stroke="midnightblue" points="439.794,-356.933 448.918,-351.548 438.427,-350.068 439.794,-356.933"/>
</g>
<!-- Node16 -->
<g id="node16" class="node"><title>Node16</title>
<g id="a_node16"><a xlink:href="../../da/df0/classorg_1_1msrg_1_1raccoon_1_1ReceivedCodedBatch_abe5a8dd787d94591fcbdc4aa01e639df.html#abe5a8dd787d94591fcbdc4aa01e639df" target="_top" xlink:title="org.msrg.raccoon.Received\lCodedBatch.canSolveHighPriority">
<polygon fill="none" stroke="black" points="669.5,-258.5 669.5,-288.5 834.5,-288.5 834.5,-258.5 669.5,-258.5"/>
<text text-anchor="start" x="677.5" y="-276.5" font-family="Helvetica,sans-Serif" font-size="10.00">org.msrg.raccoon.Received</text>
<text text-anchor="middle" x="752" y="-265.5" font-family="Helvetica,sans-Serif" font-size="10.00">CodedBatch.canSolveHighPriority</text>
</a>
</g>
</g>
<!-- Node15&#45;&gt;Node16 -->
<g id="edge16" class="edge"><title>Node15&#45;&gt;Node16</title>
<path fill="none" stroke="midnightblue" d="M594.162,-273.5C614.558,-273.5 637.3,-273.5 658.997,-273.5"/>
<polygon fill="midnightblue" stroke="midnightblue" points="659.214,-277 669.214,-273.5 659.214,-270 659.214,-277"/>
</g>
<!-- Node19 -->
<g id="node19" class="node"><title>Node19</title>
<g id="a_node19"><a xlink:href="../../da/df0/classorg_1_1msrg_1_1raccoon_1_1ReceivedCodedBatch_a837b249e1478223f84c24acbbaf33451.html#a837b249e1478223f84c24acbbaf33451" target="_top" xlink:title="org.msrg.raccoon.Received\lCodedBatch.getRequiredCodedPieceCount">
<polygon fill="none" stroke="black" points="882,-135.5 882,-165.5 1088,-165.5 1088,-135.5 882,-135.5"/>
<text text-anchor="start" x="890" y="-153.5" font-family="Helvetica,sans-Serif" font-size="10.00">org.msrg.raccoon.Received</text>
<text text-anchor="middle" x="985" y="-142.5" font-family="Helvetica,sans-Serif" font-size="10.00">CodedBatch.getRequiredCodedPieceCount</text>
</a>
</g>
</g>
<!-- Node15&#45;&gt;Node19 -->
<g id="edge24" class="edge"><title>Node15&#45;&gt;Node19</title>
<path fill="none" stroke="midnightblue" d="M577.838,-258.499C646.794,-238.511 773.25,-202.424 882,-174.5 890.514,-172.314 899.447,-170.098 908.338,-167.942"/>
<polygon fill="midnightblue" stroke="midnightblue" points="909.43,-171.279 918.334,-165.537 907.793,-164.473 909.43,-171.279"/>
</g>
<!-- Node17 -->
<g id="node17" class="node"><title>Node17</title>
<g id="a_node17"><a xlink:href="../../db/d3f/classorg_1_1msrg_1_1raccoon_1_1matrix_1_1TypedMatrix_ae1d2f2c49745535f8586ada075ba449e.html#ae1d2f2c49745535f8586ada075ba449e" target="_top" xlink:title="org.msrg.raccoon.matrix.\lTypedMatrix.getInverseRowZero">
<polygon fill="none" stroke="black" points="905.5,-321.5 905.5,-351.5 1064.5,-351.5 1064.5,-321.5 905.5,-321.5"/>
<text text-anchor="start" x="913.5" y="-339.5" font-family="Helvetica,sans-Serif" font-size="10.00">org.msrg.raccoon.matrix.</text>
<text text-anchor="middle" x="985" y="-328.5" font-family="Helvetica,sans-Serif" font-size="10.00">TypedMatrix.getInverseRowZero</text>
</a>
</g>
</g>
<!-- Node16&#45;&gt;Node17 -->
<g id="edge17" class="edge"><title>Node16&#45;&gt;Node17</title>
<path fill="none" stroke="midnightblue" d="M802.161,-288.56C826.164,-295.766 855.513,-304.357 882,-311.5 891.374,-314.028 901.261,-316.586 911.043,-319.052"/>
<polygon fill="midnightblue" stroke="midnightblue" points="910.216,-322.453 920.767,-321.483 911.914,-315.662 910.216,-322.453"/>
</g>
<!-- Node18 -->
<g id="node18" class="node"><title>Node18</title>
<g id="a_node18"><a xlink:href="../../da/df0/classorg_1_1msrg_1_1raccoon_1_1ReceivedCodedBatch_ae70ccb56d60221b625265c875e93bcc2.html#ae70ccb56d60221b625265c875e93bcc2" target="_top" xlink:title="org.msrg.raccoon.Received\lCodedBatch.getRandomIndex">
<polygon fill="none" stroke="black" points="911,-272.5 911,-302.5 1059,-302.5 1059,-272.5 911,-272.5"/>
<text text-anchor="start" x="919" y="-290.5" font-family="Helvetica,sans-Serif" font-size="10.00">org.msrg.raccoon.Received</text>
<text text-anchor="middle" x="985" y="-279.5" font-family="Helvetica,sans-Serif" font-size="10.00">CodedBatch.getRandomIndex</text>
</a>
</g>
</g>
<!-- Node16&#45;&gt;Node18 -->
<g id="edge18" class="edge"><title>Node16&#45;&gt;Node18</title>
<path fill="none" stroke="midnightblue" d="M834.767,-278.456C856.167,-279.753 879.261,-281.152 900.739,-282.454"/>
<polygon fill="midnightblue" stroke="midnightblue" points="900.614,-285.953 910.808,-283.064 901.038,-278.965 900.614,-285.953"/>
</g>
<!-- Node16&#45;&gt;Node19 -->
<g id="edge19" class="edge"><title>Node16&#45;&gt;Node19</title>
<path fill="none" stroke="midnightblue" d="M782.651,-258.452C801.747,-248.031 826.546,-233.087 846,-216.5 864.708,-200.549 860.997,-187.28 882,-174.5 884.836,-172.774 887.786,-171.173 890.82,-169.686"/>
<polygon fill="midnightblue" stroke="midnightblue" points="892.411,-172.809 900.14,-165.563 889.579,-166.408 892.411,-172.809"/>
</g>
<!-- Node16&#45;&gt;Node20 -->
<g id="edge20" class="edge"><title>Node16&#45;&gt;Node20</title>
<path fill="none" stroke="midnightblue" d="M834.521,-266.239C850.269,-264.924 866.644,-263.617 882,-262.5 964.081,-256.53 1058.27,-251.034 1122.21,-247.505"/>
<polygon fill="midnightblue" stroke="midnightblue" points="1122.42,-251 1132.21,-246.956 1122.03,-244.01 1122.42,-251"/>
</g>
<!-- Node21 -->
<g id="node21" class="node"><title>Node21</title>
<g id="a_node21"><a xlink:href="../../dd/d36/classorg_1_1msrg_1_1raccoon_1_1matrix_1_1finitefields_1_1ByteMatrix_a8d9b66312ac41346f1149bc30061c96a.html#a8d9b66312ac41346f1149bc30061c96a" target="_top" xlink:title="org.msrg.raccoon.matrix.finitefields.\lByteMatrix.isInversable">
<polygon fill="none" stroke="black" points="898.5,-184.5 898.5,-214.5 1071.5,-214.5 1071.5,-184.5 898.5,-184.5"/>
<text text-anchor="start" x="906.5" y="-202.5" font-family="Helvetica,sans-Serif" font-size="10.00">org.msrg.raccoon.matrix.finitefields.</text>
<text text-anchor="middle" x="985" y="-191.5" font-family="Helvetica,sans-Serif" font-size="10.00">ByteMatrix.isInversable</text>
</a>
</g>
</g>
<!-- Node16&#45;&gt;Node21 -->
<g id="edge21" class="edge"><title>Node16&#45;&gt;Node21</title>
<path fill="none" stroke="midnightblue" d="M795.555,-258.475C820.629,-249.75 853.019,-238.7 882,-229.5 894.688,-225.472 908.322,-221.333 921.362,-217.465"/>
<polygon fill="midnightblue" stroke="midnightblue" points="922.591,-220.752 931.192,-214.566 920.611,-214.037 922.591,-220.752"/>
</g>
<!-- Node22 -->
<g id="node22" class="node"><title>Node22</title>
<g id="a_node22"><a xlink:href="../../da/df0/classorg_1_1msrg_1_1raccoon_1_1ReceivedCodedBatch_ab18664e24c529e824bfaf94bb94640d4.html#ab18664e24c529e824bfaf94bb94640d4" target="_top" xlink:title="org.msrg.raccoon.Received\lCodedBatch.removeBadRow">
<polygon fill="none" stroke="black" points="913.5,-370.5 913.5,-400.5 1056.5,-400.5 1056.5,-370.5 913.5,-370.5"/>
<text text-anchor="start" x="921.5" y="-388.5" font-family="Helvetica,sans-Serif" font-size="10.00">org.msrg.raccoon.Received</text>
<text text-anchor="middle" x="985" y="-377.5" font-family="Helvetica,sans-Serif" font-size="10.00">CodedBatch.removeBadRow</text>
</a>
</g>
</g>
<!-- Node16&#45;&gt;Node22 -->
<g id="edge23" class="edge"><title>Node16&#45;&gt;Node22</title>
<path fill="none" stroke="midnightblue" d="M770.999,-288.703C794.873,-308.117 839.022,-341.469 882,-360.5 888.762,-363.494 895.942,-366.167 903.238,-368.546"/>
<polygon fill="midnightblue" stroke="midnightblue" points="902.643,-372.024 913.23,-371.609 904.695,-365.332 902.643,-372.024"/>
</g>
<!-- Node21&#45;&gt;Node20 -->
<g id="edge22" class="edge"><title>Node21&#45;&gt;Node20</title>
<path fill="none" stroke="midnightblue" d="M1058.19,-214.519C1078.96,-218.839 1101.65,-223.56 1122.58,-227.913"/>
<polygon fill="midnightblue" stroke="midnightblue" points="1121.87,-231.34 1132.37,-229.951 1123.29,-224.487 1121.87,-231.34"/>
</g>
<!-- Node24&#45;&gt;Node7 -->
<g id="edge27" class="edge"><title>Node24&#45;&gt;Node7</title>
<path fill="none" stroke="midnightblue" d="M594.006,-473.5C671.71,-473.5 799.921,-473.5 887.991,-473.5"/>
<polygon fill="midnightblue" stroke="midnightblue" points="888.258,-477 898.258,-473.5 888.258,-470 888.258,-477"/>
</g>
<!-- Node25 -->
<g id="node25" class="node"><title>Node25</title>
<g id="a_node25"><a xlink:href="../../da/df0/classorg_1_1msrg_1_1raccoon_1_1ReceivedCodedBatch_a9519556a93ab05e15a4ace66ce538a47.html#a9519556a93ab05e15a4ace66ce538a47" target="_top" xlink:title="org.msrg.raccoon.Received\lCodedBatch.setContent">
<polygon fill="none" stroke="black" points="683.5,-414.5 683.5,-444.5 820.5,-444.5 820.5,-414.5 683.5,-414.5"/>
<text text-anchor="start" x="691.5" y="-432.5" font-family="Helvetica,sans-Serif" font-size="10.00">org.msrg.raccoon.Received</text>
<text text-anchor="middle" x="752" y="-421.5" font-family="Helvetica,sans-Serif" font-size="10.00">CodedBatch.setContent</text>
</a>
</g>
</g>
<!-- Node24&#45;&gt;Node25 -->
<g id="edge28" class="edge"><title>Node24&#45;&gt;Node25</title>
<path fill="none" stroke="midnightblue" d="M594.162,-460.239C619.123,-455.347 647.596,-449.766 673.37,-444.715"/>
<polygon fill="midnightblue" stroke="midnightblue" points="674.337,-448.092 683.477,-442.734 672.99,-441.223 674.337,-448.092"/>
</g>
<!-- Node28 -->
<g id="node28" class="node"><title>Node28</title>
<g id="a_node28"><a xlink:href="../../dd/da2/classorg_1_1msrg_1_1raccoon_1_1CodedBatch_a0d83f9996320268e978e73f0ea41a9d0.html#a0d83f9996320268e978e73f0ea41a9d0" target="_top" xlink:title="org.msrg.raccoon.CodedBatch.\lCodedBatch">
<polygon fill="none" stroke="black" points="449.5,-36.5 449.5,-66.5 601.5,-66.5 601.5,-36.5 449.5,-36.5"/>
<text text-anchor="start" x="457.5" y="-54.5" font-family="Helvetica,sans-Serif" font-size="10.00">org.msrg.raccoon.CodedBatch.</text>
<text text-anchor="middle" x="525.5" y="-43.5" font-family="Helvetica,sans-Serif" font-size="10.00">CodedBatch</text>
</a>
</g>
</g>
<!-- Node27&#45;&gt;Node28 -->
<g id="edge32" class="edge"><title>Node27&#45;&gt;Node28</title>
<path fill="none" stroke="midnightblue" d="M376.953,-222.839C382.776,-220.12 388.236,-216.726 393,-212.5 428.962,-180.596 398.833,-147.931 429,-110.5 442.226,-94.0893 461.321,-81.0145 478.965,-71.3859"/>
<polygon fill="midnightblue" stroke="midnightblue" points="480.772,-74.3914 488.022,-66.6655 477.536,-68.1841 480.772,-74.3914"/>
</g>
<!-- Node30 -->
<g id="node30" class="node"><title>Node30</title>
<g id="a_node30"><a xlink:href="../../dd/da2/classorg_1_1msrg_1_1raccoon_1_1CodedBatch_a0f775cb64db97a1e67680d072ae4c202.html#a0f775cb64db97a1e67680d072ae4c202" target="_top" xlink:title="org.msrg.raccoon.CodedBatch.equals\lExact">
<polygon fill="none" stroke="black" points="435,-120.5 435,-150.5 616,-150.5 616,-120.5 435,-120.5"/>
<text text-anchor="start" x="443" y="-138.5" font-family="Helvetica,sans-Serif" font-size="10.00">org.msrg.raccoon.CodedBatch.equals</text>
<text text-anchor="middle" x="525.5" y="-127.5" font-family="Helvetica,sans-Serif" font-size="10.00">Exact</text>
</a>
</g>
</g>
<!-- Node27&#45;&gt;Node30 -->
<g id="edge34" class="edge"><title>Node27&#45;&gt;Node30</title>
<path fill="none" stroke="midnightblue" d="M358.737,-222.974C370.259,-220.209 382.184,-216.755 393,-212.5 429.998,-197.945 468.874,-173.944 494.673,-156.603"/>
<polygon fill="midnightblue" stroke="midnightblue" points="496.936,-159.296 503.229,-150.773 492.994,-153.511 496.936,-159.296"/>
</g>
<!-- Node29 -->
<g id="node29" class="node"><title>Node29</title>
<g id="a_node29"><a xlink:href="../../df/da4/classorg_1_1msrg_1_1raccoon_1_1matrix_1_1bulk_1_1BulkMatrix_a257d6e8cb7dcebe468d29c4393b20f3d.html#a257d6e8cb7dcebe468d29c4393b20f3d" target="_top" xlink:title="org.msrg.raccoon.matrix.bulk.\lBulkMatrix.getSize">
<polygon fill="none" stroke="black" points="679,-0.5 679,-30.5 825,-30.5 825,-0.5 679,-0.5"/>
<text text-anchor="start" x="687" y="-18.5" font-family="Helvetica,sans-Serif" font-size="10.00">org.msrg.raccoon.matrix.bulk.</text>
<text text-anchor="middle" x="752" y="-7.5" font-family="Helvetica,sans-Serif" font-size="10.00">BulkMatrix.getSize</text>
</a>
</g>
</g>
<!-- Node28&#45;&gt;Node29 -->
<g id="edge33" class="edge"><title>Node28&#45;&gt;Node29</title>
<path fill="none" stroke="midnightblue" d="M601.567,-39.4625C623.122,-36.006 646.74,-32.2188 668.706,-28.6964"/>
<polygon fill="midnightblue" stroke="midnightblue" points="669.349,-32.138 678.669,-27.0988 668.241,-25.2263 669.349,-32.138"/>
</g>
<!-- Node31 -->
<g id="node31" class="node"><title>Node31</title>
<g id="a_node31"><a xlink:href="../../df/da4/classorg_1_1msrg_1_1raccoon_1_1matrix_1_1bulk_1_1BulkMatrix_af6c5f0c294627b409dff7fa2b9e7e5c3.html#af6c5f0c294627b409dff7fa2b9e7e5c3" target="_top" xlink:title="org.msrg.raccoon.matrix.bulk.\lBulkMatrix.equals">
<polygon fill="none" stroke="black" points="679,-98.5 679,-128.5 825,-128.5 825,-98.5 679,-98.5"/>
<text text-anchor="start" x="687" y="-116.5" font-family="Helvetica,sans-Serif" font-size="10.00">org.msrg.raccoon.matrix.bulk.</text>
<text text-anchor="middle" x="752" y="-105.5" font-family="Helvetica,sans-Serif" font-size="10.00">BulkMatrix.equals</text>
</a>
</g>
</g>
<!-- Node30&#45;&gt;Node31 -->
<g id="edge35" class="edge"><title>Node30&#45;&gt;Node31</title>
<path fill="none" stroke="midnightblue" d="M616.196,-126.71C633.39,-125.025 651.321,-123.268 668.282,-121.606"/>
<polygon fill="midnightblue" stroke="midnightblue" points="669.092,-125.043 678.703,-120.585 668.41,-118.077 669.092,-125.043"/>
</g>
<!-- Node33 -->
<g id="node33" class="node"><title>Node33</title>
<g id="a_node33"><a xlink:href="../../d1/d78/interfaceorg_1_1msrg_1_1raccoon_1_1ICodedBatch_ac619debd08f8bf73a370c90147ebf9f5.html#ac619debd08f8bf73a370c90147ebf9f5" target="_top" xlink:title="org.msrg.raccoon.ICodedBatch.get\lBulkMatrix">
<polygon fill="none" stroke="black" points="667.5,-49.5 667.5,-79.5 836.5,-79.5 836.5,-49.5 667.5,-49.5"/>
<text text-anchor="start" x="675.5" y="-67.5" font-family="Helvetica,sans-Serif" font-size="10.00">org.msrg.raccoon.ICodedBatch.get</text>
<text text-anchor="middle" x="752" y="-56.5" font-family="Helvetica,sans-Serif" font-size="10.00">BulkMatrix</text>
</a>
</g>
</g>
<!-- Node30&#45;&gt;Node33 -->
<g id="edge38" class="edge"><title>Node30&#45;&gt;Node33</title>
<path fill="none" stroke="midnightblue" d="M565.604,-120.472C591.596,-110.745 626.596,-98.1425 658,-88.5 664.904,-86.3801 672.134,-84.2905 679.382,-82.2817"/>
<polygon fill="midnightblue" stroke="midnightblue" points="680.518,-85.6 689.248,-79.5972 678.68,-78.8456 680.518,-85.6"/>
</g>
<!-- Node34 -->
<g id="node34" class="node"><title>Node34</title>
<g id="a_node34"><a xlink:href="../../d1/d78/interfaceorg_1_1msrg_1_1raccoon_1_1ICodedBatch_abc6a498c6f7f8b9245cbb54703eb6807.html#abc6a498c6f7f8b9245cbb54703eb6807" target="_top" xlink:title="org.msrg.raccoon.ICodedBatch.getSize">
<polygon fill="none" stroke="black" points="658,-148 658,-167 846,-167 846,-148 658,-148"/>
<text text-anchor="middle" x="752" y="-155" font-family="Helvetica,sans-Serif" font-size="10.00">org.msrg.raccoon.ICodedBatch.getSize</text>
</a>
</g>
</g>
<!-- Node30&#45;&gt;Node34 -->
<g id="edge39" class="edge"><title>Node30&#45;&gt;Node34</title>
<path fill="none" stroke="midnightblue" d="M616.196,-144.29C626.562,-145.306 637.196,-146.348 647.724,-147.379"/>
<polygon fill="midnightblue" stroke="midnightblue" points="647.479,-150.872 657.773,-148.364 648.162,-143.905 647.479,-150.872"/>
</g>
<!-- Node31&#45;&gt;Node10 -->
<g id="edge36" class="edge"><title>Node31&#45;&gt;Node10</title>
<path fill="none" stroke="midnightblue" d="M825.168,-107.303C893.882,-103.446 999.63,-102.86 1088,-125.5 1197.32,-153.509 1307.39,-235.051 1355.65,-274.13"/>
<polygon fill="midnightblue" stroke="midnightblue" points="1353.44,-276.843 1363.4,-280.467 1357.87,-271.425 1353.44,-276.843"/>
</g>
<!-- Node32 -->
<g id="node32" class="node"><title>Node32</title>
<g id="a_node32"><a xlink:href="../../df/da4/classorg_1_1msrg_1_1raccoon_1_1matrix_1_1bulk_1_1BulkMatrix_a98b3c00a4eb4e1864c20182b3ae0e8ec.html#a98b3c00a4eb4e1864c20182b3ae0e8ec" target="_top" xlink:title="org.msrg.raccoon.matrix.bulk.\lBulkMatrix.getSliceCount">
<polygon fill="none" stroke="black" points="912,-47.5 912,-77.5 1058,-77.5 1058,-47.5 912,-47.5"/>
<text text-anchor="start" x="920" y="-65.5" font-family="Helvetica,sans-Serif" font-size="10.00">org.msrg.raccoon.matrix.bulk.</text>
<text text-anchor="middle" x="985" y="-54.5" font-family="Helvetica,sans-Serif" font-size="10.00">BulkMatrix.getSliceCount</text>
</a>
</g>
</g>
<!-- Node31&#45;&gt;Node32 -->
<g id="edge37" class="edge"><title>Node31&#45;&gt;Node32</title>
<path fill="none" stroke="midnightblue" d="M821.058,-98.4742C847.727,-92.5862 878.48,-85.7965 906.036,-79.7129"/>
<polygon fill="midnightblue" stroke="midnightblue" points="907.019,-83.0801 916.029,-77.5065 905.51,-76.2447 907.019,-83.0801"/>
</g>
</g>
</svg>
