<?xml version="1.0" encoding="UTF-8" standalone="no"?>
<!DOCTYPE svg PUBLIC "-//W3C//DTD SVG 1.1//EN"
 "http://www.w3.org/Graphics/SVG/1.1/DTD/svg11.dtd">
<!-- Generated by graphviz version 2.38.0 (20140413.2041)
 -->
<!-- Title: org.msrg.raccoon.engine.CodingEngine.codingTaskFinished Pages: 1 -->
<svg width="561pt" height="39pt"
 viewBox="0.00 0.00 561.00 39.00" xmlns="http://www.w3.org/2000/svg" xmlns:xlink="http://www.w3.org/1999/xlink">
<g id="graph0" class="graph" transform="scale(1 1) rotate(0) translate(4 35)">
<title>org.msrg.raccoon.engine.CodingEngine.codingTaskFinished</title>
<!-- Node6 -->
<g id="node1" class="node"><title>Node6</title>
<polygon fill="#bfbfbf" stroke="black" points="0,-0.5 0,-30.5 167,-30.5 167,-0.5 0,-0.5"/>
<text text-anchor="start" x="8" y="-18.5" font-family="Helvetica,sans-Serif" font-size="10.00">org.msrg.raccoon.engine.</text>
<text text-anchor="middle" x="83.5" y="-7.5" font-family="Helvetica,sans-Serif" font-size="10.00">CodingEngine.codingTaskFinished</text>
</g>
<!-- Node7 -->
<g id="node2" class="node"><title>Node7</title>
<g id="a_node2"><a xlink:href="../../d1/da4/classorg_1_1msrg_1_1raccoon_1_1engine_1_1thread_1_1CodingThread_a31a8bf19549ed7009791f430c356a421.html#a31a8bf19549ed7009791f430c356a421" target="_top" xlink:title="org.msrg.raccoon.engine.thread.\lCodingThread.runMe">
<polygon fill="none" stroke="black" points="203,-0.5 203,-30.5 360,-30.5 360,-0.5 203,-0.5"/>
<text text-anchor="start" x="211" y="-18.5" font-family="Helvetica,sans-Serif" font-size="10.00">org.msrg.raccoon.engine.thread.</text>
<text text-anchor="middle" x="281.5" y="-7.5" font-family="Helvetica,sans-Serif" font-size="10.00">CodingThread.runMe</text>
</a>
</g>
</g>
<!-- Node6&#45;&gt;Node7 -->
<g id="edge1" class="edge"><title>Node6&#45;&gt;Node7</title>
<path fill="none" stroke="midnightblue" d="M177.086,-15.5C185.667,-15.5 194.303,-15.5 202.731,-15.5"/>
<polygon fill="midnightblue" stroke="midnightblue" points="177.054,-12.0001 167.054,-15.5 177.054,-19.0001 177.054,-12.0001"/>
</g>
<!-- Node8 -->
<g id="node3" class="node"><title>Node8</title>
<g id="a_node3"><a xlink:href="../../d1/da4/classorg_1_1msrg_1_1raccoon_1_1engine_1_1thread_1_1CodingThread_ae09277e895c3233c7ff465cc8cb00e7c.html#ae09277e895c3233c7ff465cc8cb00e7c" target="_top" xlink:title="org.msrg.raccoon.engine.thread.\lCodingThread.run">
<polygon fill="none" stroke="black" points="396,-0.5 396,-30.5 553,-30.5 553,-0.5 396,-0.5"/>
<text text-anchor="start" x="404" y="-18.5" font-family="Helvetica,sans-Serif" font-size="10.00">org.msrg.raccoon.engine.thread.</text>
<text text-anchor="middle" x="474.5" y="-7.5" font-family="Helvetica,sans-Serif" font-size="10.00">CodingThread.run</text>
</a>
</g>
</g>
<!-- Node7&#45;&gt;Node8 -->
<g id="edge2" class="edge"><title>Node7&#45;&gt;Node8</title>
<path fill="none" stroke="midnightblue" d="M370.193,-15.5C378.765,-15.5 387.42,-15.5 395.882,-15.5"/>
<polygon fill="midnightblue" stroke="midnightblue" points="370.187,-12.0001 360.187,-15.5 370.187,-19.0001 370.187,-12.0001"/>
</g>
</g>
</svg>
