<?xml version="1.0" encoding="UTF-8" standalone="no"?>
<!DOCTYPE svg PUBLIC "-//W3C//DTD SVG 1.1//EN"
 "http://www.w3.org/Graphics/SVG/1.1/DTD/svg11.dtd">
<!-- Generated by graphviz version 2.38.0 (20140413.2041)
 -->
<!-- Title: org.msrg.raccoon.engine.CodingEngine.notifyListener Pages: 1 -->
<svg width="336pt" height="186pt"
 viewBox="0.00 0.00 336.00 186.00" xmlns="http://www.w3.org/2000/svg" xmlns:xlink="http://www.w3.org/1999/xlink">
<g id="graph0" class="graph" transform="scale(1 1) rotate(0) translate(4 182)">
<title>org.msrg.raccoon.engine.CodingEngine.notifyListener</title>
<!-- Node0 -->
<g id="node1" class="node"><title>Node0</title>
<polygon fill="#bfbfbf" stroke="black" points="0,-73.5 0,-103.5 139,-103.5 139,-73.5 0,-73.5"/>
<text text-anchor="start" x="8" y="-91.5" font-family="Helvetica,sans-Serif" font-size="10.00">org.msrg.raccoon.engine.</text>
<text text-anchor="middle" x="69.5" y="-80.5" font-family="Helvetica,sans-Serif" font-size="10.00">CodingEngine.notifyListener</text>
</g>
<!-- Node1 -->
<g id="node2" class="node"><title>Node1</title>
<g id="a_node2"><a xlink:href="../../d6/d58/interfaceorg_1_1msrg_1_1raccoon_1_1engine_1_1ICodingListener_a3a983a9848df60f8b6a02573acf3a993.html#a3a983a9848df60f8b6a02573acf3a993" target="_top" xlink:title="org.msrg.raccoon.engine.\lICodingListener.codingFailed">
<polygon fill="none" stroke="black" points="180,-147.5 180,-177.5 323,-177.5 323,-147.5 180,-147.5"/>
<text text-anchor="start" x="188" y="-165.5" font-family="Helvetica,sans-Serif" font-size="10.00">org.msrg.raccoon.engine.</text>
<text text-anchor="middle" x="251.5" y="-154.5" font-family="Helvetica,sans-Serif" font-size="10.00">ICodingListener.codingFailed</text>
</a>
</g>
</g>
<!-- Node0&#45;&gt;Node1 -->
<g id="edge1" class="edge"><title>Node0&#45;&gt;Node1</title>
<path fill="none" stroke="midnightblue" d="M99.2983,-103.609C120.022,-114.152 148.821,-128.134 175,-138.5 179.831,-140.413 184.881,-142.284 189.98,-144.084"/>
<polygon fill="midnightblue" stroke="midnightblue" points="189.205,-147.519 199.8,-147.45 191.475,-140.897 189.205,-147.519"/>
</g>
<!-- Node2 -->
<g id="node3" class="node"><title>Node2</title>
<g id="a_node3"><a xlink:href="../../d6/d58/interfaceorg_1_1msrg_1_1raccoon_1_1engine_1_1ICodingListener_a3404a752dcaceaab52ed6d2effae7aca.html#a3404a752dcaceaab52ed6d2effae7aca" target="_top" xlink:title="org.msrg.raccoon.engine.\lICodingListener.codingFinished">
<polygon fill="none" stroke="black" points="175,-98.5 175,-128.5 328,-128.5 328,-98.5 175,-98.5"/>
<text text-anchor="start" x="183" y="-116.5" font-family="Helvetica,sans-Serif" font-size="10.00">org.msrg.raccoon.engine.</text>
<text text-anchor="middle" x="251.5" y="-105.5" font-family="Helvetica,sans-Serif" font-size="10.00">ICodingListener.codingFinished</text>
</a>
</g>
</g>
<!-- Node0&#45;&gt;Node2 -->
<g id="edge2" class="edge"><title>Node0&#45;&gt;Node2</title>
<path fill="none" stroke="midnightblue" d="M139.064,-98.0227C147.49,-99.1931 156.182,-100.4 164.822,-101.6"/>
<polygon fill="midnightblue" stroke="midnightblue" points="164.533,-105.094 174.92,-103.003 165.496,-98.1602 164.533,-105.094"/>
</g>
<!-- Node3 -->
<g id="node4" class="node"><title>Node3</title>
<g id="a_node4"><a xlink:href="../../d9/d22/classorg_1_1msrg_1_1raccoon_1_1engine_1_1task_1_1CodingTask_ae73495361c978756abf28bfd65138fb3.html#ae73495361c978756abf28bfd65138fb3" target="_top" xlink:title="org.msrg.raccoon.engine.task.\lCodingTask.isFailed">
<polygon fill="none" stroke="black" points="177,-49.5 177,-79.5 326,-79.5 326,-49.5 177,-49.5"/>
<text text-anchor="start" x="185" y="-67.5" font-family="Helvetica,sans-Serif" font-size="10.00">org.msrg.raccoon.engine.task.</text>
<text text-anchor="middle" x="251.5" y="-56.5" font-family="Helvetica,sans-Serif" font-size="10.00">CodingTask.isFailed</text>
</a>
</g>
</g>
<!-- Node0&#45;&gt;Node3 -->
<g id="edge3" class="edge"><title>Node0&#45;&gt;Node3</title>
<path fill="none" stroke="midnightblue" d="M139.064,-79.3582C148.111,-78.1519 157.465,-76.9047 166.731,-75.6693"/>
<polygon fill="midnightblue" stroke="midnightblue" points="167.282,-79.1269 176.731,-74.3358 166.356,-72.1883 167.282,-79.1269"/>
</g>
<!-- Node4 -->
<g id="node5" class="node"><title>Node4</title>
<g id="a_node5"><a xlink:href="../../d9/d22/classorg_1_1msrg_1_1raccoon_1_1engine_1_1task_1_1CodingTask_a0104d5d4c38b3b0d8cb60436798287c1.html#a0104d5d4c38b3b0d8cb60436798287c1" target="_top" xlink:title="org.msrg.raccoon.engine.task.\lCodingTask.isFinished">
<polygon fill="none" stroke="black" points="177,-0.5 177,-30.5 326,-30.5 326,-0.5 177,-0.5"/>
<text text-anchor="start" x="185" y="-18.5" font-family="Helvetica,sans-Serif" font-size="10.00">org.msrg.raccoon.engine.task.</text>
<text text-anchor="middle" x="251.5" y="-7.5" font-family="Helvetica,sans-Serif" font-size="10.00">CodingTask.isFinished</text>
</a>
</g>
</g>
<!-- Node0&#45;&gt;Node4 -->
<g id="edge4" class="edge"><title>Node0&#45;&gt;Node4</title>
<path fill="none" stroke="midnightblue" d="M101.205,-73.3055C121.823,-63.3745 149.737,-50.4494 175,-40.5 180.733,-38.2422 186.762,-36.0118 192.808,-33.868"/>
<polygon fill="midnightblue" stroke="midnightblue" points="193.986,-37.1642 202.285,-30.5789 191.691,-30.5512 193.986,-37.1642"/>
</g>
</g>
</svg>
