<?xml version="1.0" encoding="UTF-8" standalone="no"?>
<!DOCTYPE svg PUBLIC "-//W3C//DTD SVG 1.1//EN"
 "http://www.w3.org/Graphics/SVG/1.1/DTD/svg11.dtd">
<!-- Generated by graphviz version 2.38.0 (20140413.2041)
 -->
<!-- Title: org.msrg.raccoon.engine.CodingEngine.codingTaskFinished Pages: 1 -->
<svg width="539pt" height="186pt"
 viewBox="0.00 0.00 539.00 186.00" xmlns="http://www.w3.org/2000/svg" xmlns:xlink="http://www.w3.org/1999/xlink">
<g id="graph0" class="graph" transform="scale(1 1) rotate(0) translate(4 182)">
<title>org.msrg.raccoon.engine.CodingEngine.codingTaskFinished</title>
<!-- Node0 -->
<g id="node1" class="node"><title>Node0</title>
<polygon fill="#bfbfbf" stroke="black" points="0,-121.5 0,-151.5 167,-151.5 167,-121.5 0,-121.5"/>
<text text-anchor="start" x="8" y="-139.5" font-family="Helvetica,sans-Serif" font-size="10.00">org.msrg.raccoon.engine.</text>
<text text-anchor="middle" x="83.5" y="-128.5" font-family="Helvetica,sans-Serif" font-size="10.00">CodingEngine.codingTaskFinished</text>
</g>
<!-- Node1 -->
<g id="node2" class="node"><title>Node1</title>
<g id="a_node2"><a xlink:href="../../d9/d22/classorg_1_1msrg_1_1raccoon_1_1engine_1_1task_1_1CodingTask_a0104d5d4c38b3b0d8cb60436798287c1.html#a0104d5d4c38b3b0d8cb60436798287c1" target="_top" xlink:title="org.msrg.raccoon.engine.task.\lCodingTask.isFinished">
<polygon fill="none" stroke="black" points="380,-147.5 380,-177.5 529,-177.5 529,-147.5 380,-147.5"/>
<text text-anchor="start" x="388" y="-165.5" font-family="Helvetica,sans-Serif" font-size="10.00">org.msrg.raccoon.engine.task.</text>
<text text-anchor="middle" x="454.5" y="-154.5" font-family="Helvetica,sans-Serif" font-size="10.00">CodingTask.isFinished</text>
</a>
</g>
</g>
<!-- Node0&#45;&gt;Node1 -->
<g id="edge1" class="edge"><title>Node0&#45;&gt;Node1</title>
<path fill="none" stroke="midnightblue" d="M167.311,-142.335C227.571,-146.581 308.878,-152.31 369.429,-156.576"/>
<polygon fill="midnightblue" stroke="midnightblue" points="369.5,-160.09 379.721,-157.301 369.992,-153.107 369.5,-160.09"/>
</g>
<!-- Node2 -->
<g id="node3" class="node"><title>Node2</title>
<g id="a_node3"><a xlink:href="../../db/d98/classorg_1_1msrg_1_1raccoon_1_1engine_1_1CodingEngine_a1396555d04800f11479184ccff358804.html#a1396555d04800f11479184ccff358804" target="_top" xlink:title="org.msrg.raccoon.engine.\lCodingEngine.notifyListener">
<polygon fill="none" stroke="black" points="203,-98.5 203,-128.5 342,-128.5 342,-98.5 203,-98.5"/>
<text text-anchor="start" x="211" y="-116.5" font-family="Helvetica,sans-Serif" font-size="10.00">org.msrg.raccoon.engine.</text>
<text text-anchor="middle" x="272.5" y="-105.5" font-family="Helvetica,sans-Serif" font-size="10.00">CodingEngine.notifyListener</text>
</a>
</g>
</g>
<!-- Node0&#45;&gt;Node2 -->
<g id="edge2" class="edge"><title>Node0&#45;&gt;Node2</title>
<path fill="none" stroke="midnightblue" d="M167.065,-126.345C175.551,-125.301 184.159,-124.242 192.605,-123.204"/>
<polygon fill="midnightblue" stroke="midnightblue" points="193.308,-126.644 202.806,-121.949 192.453,-119.696 193.308,-126.644"/>
</g>
<!-- Node2&#45;&gt;Node1 -->
<g id="edge6" class="edge"><title>Node2&#45;&gt;Node1</title>
<path fill="none" stroke="midnightblue" d="M328.975,-128.601C347.797,-133.725 368.994,-139.496 388.491,-144.803"/>
<polygon fill="midnightblue" stroke="midnightblue" points="387.64,-148.199 398.208,-147.448 389.479,-141.445 387.64,-148.199"/>
</g>
<!-- Node3 -->
<g id="node4" class="node"><title>Node3</title>
<g id="a_node4"><a xlink:href="../../d6/d58/interfaceorg_1_1msrg_1_1raccoon_1_1engine_1_1ICodingListener_a3a983a9848df60f8b6a02573acf3a993.html#a3a983a9848df60f8b6a02573acf3a993" target="_top" xlink:title="org.msrg.raccoon.engine.\lICodingListener.codingFailed">
<polygon fill="none" stroke="black" points="383,-98.5 383,-128.5 526,-128.5 526,-98.5 383,-98.5"/>
<text text-anchor="start" x="391" y="-116.5" font-family="Helvetica,sans-Serif" font-size="10.00">org.msrg.raccoon.engine.</text>
<text text-anchor="middle" x="454.5" y="-105.5" font-family="Helvetica,sans-Serif" font-size="10.00">ICodingListener.codingFailed</text>
</a>
</g>
</g>
<!-- Node2&#45;&gt;Node3 -->
<g id="edge3" class="edge"><title>Node2&#45;&gt;Node3</title>
<path fill="none" stroke="midnightblue" d="M342.064,-113.5C352.049,-113.5 362.407,-113.5 372.608,-113.5"/>
<polygon fill="midnightblue" stroke="midnightblue" points="372.737,-117 382.737,-113.5 372.737,-110 372.737,-117"/>
</g>
<!-- Node4 -->
<g id="node5" class="node"><title>Node4</title>
<g id="a_node5"><a xlink:href="../../d6/d58/interfaceorg_1_1msrg_1_1raccoon_1_1engine_1_1ICodingListener_a3404a752dcaceaab52ed6d2effae7aca.html#a3404a752dcaceaab52ed6d2effae7aca" target="_top" xlink:title="org.msrg.raccoon.engine.\lICodingListener.codingFinished">
<polygon fill="none" stroke="black" points="378,-49.5 378,-79.5 531,-79.5 531,-49.5 378,-49.5"/>
<text text-anchor="start" x="386" y="-67.5" font-family="Helvetica,sans-Serif" font-size="10.00">org.msrg.raccoon.engine.</text>
<text text-anchor="middle" x="454.5" y="-56.5" font-family="Helvetica,sans-Serif" font-size="10.00">ICodingListener.codingFinished</text>
</a>
</g>
</g>
<!-- Node2&#45;&gt;Node4 -->
<g id="edge4" class="edge"><title>Node2&#45;&gt;Node4</title>
<path fill="none" stroke="midnightblue" d="M328.975,-98.3986C347.797,-93.2747 368.994,-87.5044 388.491,-82.1968"/>
<polygon fill="midnightblue" stroke="midnightblue" points="389.479,-85.5554 398.208,-79.5516 387.64,-78.8012 389.479,-85.5554"/>
</g>
<!-- Node5 -->
<g id="node6" class="node"><title>Node5</title>
<g id="a_node6"><a xlink:href="../../d9/d22/classorg_1_1msrg_1_1raccoon_1_1engine_1_1task_1_1CodingTask_ae73495361c978756abf28bfd65138fb3.html#ae73495361c978756abf28bfd65138fb3" target="_top" xlink:title="org.msrg.raccoon.engine.task.\lCodingTask.isFailed">
<polygon fill="none" stroke="black" points="380,-0.5 380,-30.5 529,-30.5 529,-0.5 380,-0.5"/>
<text text-anchor="start" x="388" y="-18.5" font-family="Helvetica,sans-Serif" font-size="10.00">org.msrg.raccoon.engine.task.</text>
<text text-anchor="middle" x="454.5" y="-7.5" font-family="Helvetica,sans-Serif" font-size="10.00">CodingTask.isFailed</text>
</a>
</g>
</g>
<!-- Node2&#45;&gt;Node5 -->
<g id="edge5" class="edge"><title>Node2&#45;&gt;Node5</title>
<path fill="none" stroke="midnightblue" d="M291.279,-98.2936C311.245,-81.8642 345.165,-55.849 378,-39.5 381.74,-37.6379 385.655,-35.8798 389.652,-34.2273"/>
<polygon fill="midnightblue" stroke="midnightblue" points="391.026,-37.4481 399.079,-30.5636 388.491,-30.9234 391.026,-37.4481"/>
</g>
</g>
</svg>
