<?xml version="1.0" encoding="UTF-8" standalone="no"?>
<!DOCTYPE svg PUBLIC "-//W3C//DTD SVG 1.1//EN"
 "http://www.w3.org/Graphics/SVG/1.1/DTD/svg11.dtd">
<!-- Generated by graphviz version 2.38.0 (20140413.2041)
 -->
<!-- Title: org.msrg.raccoon.engine.CodingEngine.addCodingTaskEngineEvent Pages: 1 -->
<svg width="796pt" height="489pt"
 viewBox="0.00 0.00 796.00 489.07" xmlns="http://www.w3.org/2000/svg" xmlns:xlink="http://www.w3.org/1999/xlink">
<g id="graph0" class="graph" transform="scale(1 1) rotate(0) translate(4 485.068)">
<title>org.msrg.raccoon.engine.CodingEngine.addCodingTaskEngineEvent</title>
<!-- Node1 -->
<g id="node1" class="node"><title>Node1</title>
<polygon fill="#bfbfbf" stroke="black" points="0,-229.568 0,-259.568 204,-259.568 204,-229.568 0,-229.568"/>
<text text-anchor="start" x="8" y="-247.568" font-family="Helvetica,sans-Serif" font-size="10.00">org.msrg.raccoon.engine.</text>
<text text-anchor="middle" x="102" y="-236.568" font-family="Helvetica,sans-Serif" font-size="10.00">CodingEngine.addCodingTaskEngineEvent</text>
</g>
<!-- Node2 -->
<g id="node2" class="node"><title>Node2</title>
<g id="a_node2"><a xlink:href="../../d2/d9a/classorg_1_1msrg_1_1raccoon_1_1engine_1_1CodingEngineImpl_a7ab11be64f817946f2d11961b00cd2db.html#a7ab11be64f817946f2d11961b00cd2db" target="_top" xlink:title="org.msrg.raccoon.engine.\lCodingEngineImpl.checkEquality">
<polygon fill="none" stroke="black" points="240.5,-450.568 240.5,-480.568 401.5,-480.568 401.5,-450.568 240.5,-450.568"/>
<text text-anchor="start" x="248.5" y="-468.568" font-family="Helvetica,sans-Serif" font-size="10.00">org.msrg.raccoon.engine.</text>
<text text-anchor="middle" x="321" y="-457.568" font-family="Helvetica,sans-Serif" font-size="10.00">CodingEngineImpl.checkEquality</text>
</a>
</g>
</g>
<!-- Node1&#45;&gt;Node2 -->
<g id="edge1" class="edge"><title>Node1&#45;&gt;Node2</title>
<path fill="none" stroke="midnightblue" d="M113.322,-268.888C132.243,-310.545 176.459,-395.501 240,-441.568 244.696,-444.972 249.877,-447.898 255.278,-450.413"/>
<polygon fill="midnightblue" stroke="midnightblue" points="116.52,-267.465 109.262,-259.747 110.123,-270.307 116.52,-267.465"/>
</g>
<!-- Node3 -->
<g id="node3" class="node"><title>Node3</title>
<g id="a_node3"><a xlink:href="../../db/d98/classorg_1_1msrg_1_1raccoon_1_1engine_1_1CodingEngine_ae55b8ba2b6c3e8bac2cbc23e72ca2202.html#ae55b8ba2b6c3e8bac2cbc23e72ca2202" target="_top" xlink:title="org.msrg.raccoon.engine.\lCodingEngine.codingTaskStarted">
<polygon fill="none" stroke="black" points="240,-401.568 240,-431.568 402,-431.568 402,-401.568 240,-401.568"/>
<text text-anchor="start" x="248" y="-419.568" font-family="Helvetica,sans-Serif" font-size="10.00">org.msrg.raccoon.engine.</text>
<text text-anchor="middle" x="321" y="-408.568" font-family="Helvetica,sans-Serif" font-size="10.00">CodingEngine.codingTaskStarted</text>
</a>
</g>
</g>
<!-- Node1&#45;&gt;Node3 -->
<g id="edge2" class="edge"><title>Node1&#45;&gt;Node3</title>
<path fill="none" stroke="midnightblue" d="M118.584,-268.094C141.419,-300.756 187.049,-359.538 240,-392.568 245.413,-395.944 251.329,-398.869 257.415,-401.398"/>
<polygon fill="midnightblue" stroke="midnightblue" points="121.309,-265.878 112.761,-259.617 115.539,-269.842 121.309,-265.878"/>
</g>
<!-- Node6 -->
<g id="node6" class="node"><title>Node6</title>
<g id="a_node6"><a xlink:href="../../d2/d9a/classorg_1_1msrg_1_1raccoon_1_1engine_1_1CodingEngineImpl_a68d8add21019606803f824ab9a0e16b2.html#a68d8add21019606803f824ab9a0e16b2" target="_top" xlink:title="org.msrg.raccoon.engine.\lCodingEngineImpl.decode">
<polygon fill="none" stroke="black" points="255.5,-352.568 255.5,-382.568 386.5,-382.568 386.5,-352.568 255.5,-352.568"/>
<text text-anchor="start" x="263.5" y="-370.568" font-family="Helvetica,sans-Serif" font-size="10.00">org.msrg.raccoon.engine.</text>
<text text-anchor="middle" x="321" y="-359.568" font-family="Helvetica,sans-Serif" font-size="10.00">CodingEngineImpl.decode</text>
</a>
</g>
</g>
<!-- Node1&#45;&gt;Node6 -->
<g id="edge5" class="edge"><title>Node1&#45;&gt;Node6</title>
<path fill="none" stroke="midnightblue" d="M127.841,-266.494C154.092,-288.67 197.5,-322.585 240,-343.568 246.761,-346.906 254.076,-349.878 261.441,-352.495"/>
<polygon fill="midnightblue" stroke="midnightblue" points="129.818,-263.579 119.944,-259.738 125.267,-268.898 129.818,-263.579"/>
</g>
<!-- Node7 -->
<g id="node7" class="node"><title>Node7</title>
<g id="a_node7"><a xlink:href="../../d2/d9a/classorg_1_1msrg_1_1raccoon_1_1engine_1_1CodingEngineImpl_a6be80b856b9185ab93b5e9921844481e.html#a6be80b856b9185ab93b5e9921844481e" target="_top" xlink:title="org.msrg.raccoon.engine.\lCodingEngineImpl.encode">
<polygon fill="none" stroke="black" points="255.5,-303.568 255.5,-333.568 386.5,-333.568 386.5,-303.568 255.5,-303.568"/>
<text text-anchor="start" x="263.5" y="-321.568" font-family="Helvetica,sans-Serif" font-size="10.00">org.msrg.raccoon.engine.</text>
<text text-anchor="middle" x="321" y="-310.568" font-family="Helvetica,sans-Serif" font-size="10.00">CodingEngineImpl.encode</text>
</a>
</g>
</g>
<!-- Node1&#45;&gt;Node7 -->
<g id="edge6" class="edge"><title>Node1&#45;&gt;Node7</title>
<path fill="none" stroke="midnightblue" d="M151.983,-263.233C178.001,-272.947 210.597,-284.801 240,-294.568 249.082,-297.584 258.799,-300.641 268.219,-303.516"/>
<polygon fill="midnightblue" stroke="midnightblue" points="152.946,-259.856 142.354,-259.623 150.489,-266.411 152.946,-259.856"/>
</g>
<!-- Node8 -->
<g id="node8" class="node"><title>Node8</title>
<g id="a_node8"><a xlink:href="../../d2/d9a/classorg_1_1msrg_1_1raccoon_1_1engine_1_1CodingEngineImpl_a433637d8d256085e4ebd9fe6113bbe2d.html#a433637d8d256085e4ebd9fe6113bbe2d" target="_top" xlink:title="org.msrg.raccoon.engine.\lCodingEngineImpl.inverse">
<polygon fill="none" stroke="black" points="255.5,-254.568 255.5,-284.568 386.5,-284.568 386.5,-254.568 255.5,-254.568"/>
<text text-anchor="start" x="263.5" y="-272.568" font-family="Helvetica,sans-Serif" font-size="10.00">org.msrg.raccoon.engine.</text>
<text text-anchor="middle" x="321" y="-261.568" font-family="Helvetica,sans-Serif" font-size="10.00">CodingEngineImpl.inverse</text>
</a>
</g>
</g>
<!-- Node1&#45;&gt;Node8 -->
<g id="edge7" class="edge"><title>Node1&#45;&gt;Node8</title>
<path fill="none" stroke="midnightblue" d="M214.374,-257.399C228.357,-259.01 242.276,-260.613 255.202,-262.102"/>
<polygon fill="midnightblue" stroke="midnightblue" points="214.529,-253.893 204.194,-256.226 213.728,-260.847 214.529,-253.893"/>
</g>
<!-- Node9 -->
<g id="node9" class="node"><title>Node9</title>
<g id="a_node9"><a xlink:href="../../d2/d9a/classorg_1_1msrg_1_1raccoon_1_1engine_1_1CodingEngineImpl_a7b9c2a2faa4f33ae47fbb6c37202f16a.html#a7b9c2a2faa4f33ae47fbb6c37202f16a" target="_top" xlink:title="org.msrg.raccoon.engine.\lCodingEngineImpl.multiply">
<polygon fill="none" stroke="black" points="254.5,-205.568 254.5,-235.568 387.5,-235.568 387.5,-205.568 254.5,-205.568"/>
<text text-anchor="start" x="262.5" y="-223.568" font-family="Helvetica,sans-Serif" font-size="10.00">org.msrg.raccoon.engine.</text>
<text text-anchor="middle" x="321" y="-212.568" font-family="Helvetica,sans-Serif" font-size="10.00">CodingEngineImpl.multiply</text>
</a>
</g>
</g>
<!-- Node1&#45;&gt;Node9 -->
<g id="edge8" class="edge"><title>Node1&#45;&gt;Node9</title>
<path fill="none" stroke="midnightblue" d="M214.179,-232.271C227.896,-230.754 241.555,-229.243 254.28,-227.836"/>
<polygon fill="midnightblue" stroke="midnightblue" points="213.748,-228.797 204.194,-233.376 214.518,-235.755 213.748,-228.797"/>
</g>
<!-- Node10 -->
<g id="node10" class="node"><title>Node10</title>
<g id="a_node10"><a xlink:href="../../db/d98/classorg_1_1msrg_1_1raccoon_1_1engine_1_1CodingEngine_aaed149ef22c3026072d3ba920a6c711e.html#aaed149ef22c3026072d3ba920a6c711e" target="_top" xlink:title="org.msrg.raccoon.engine.\lCodingEngine.sequentialCoding\lTaskFailed">
<polygon fill="none" stroke="black" points="243.5,-145.068 243.5,-186.068 398.5,-186.068 398.5,-145.068 243.5,-145.068"/>
<text text-anchor="start" x="251.5" y="-174.068" font-family="Helvetica,sans-Serif" font-size="10.00">org.msrg.raccoon.engine.</text>
<text text-anchor="start" x="251.5" y="-163.068" font-family="Helvetica,sans-Serif" font-size="10.00">CodingEngine.sequentialCoding</text>
<text text-anchor="middle" x="321" y="-152.068" font-family="Helvetica,sans-Serif" font-size="10.00">TaskFailed</text>
</a>
</g>
</g>
<!-- Node1&#45;&gt;Node10 -->
<g id="edge9" class="edge"><title>Node1&#45;&gt;Node10</title>
<path fill="none" stroke="midnightblue" d="M153.771,-226.084C186.712,-214.092 229.669,-198.453 263.662,-186.078"/>
<polygon fill="midnightblue" stroke="midnightblue" points="152.526,-222.812 144.327,-229.522 154.921,-229.39 152.526,-222.812"/>
</g>
<!-- Node11 -->
<g id="node11" class="node"><title>Node11</title>
<g id="a_node11"><a xlink:href="../../db/d98/classorg_1_1msrg_1_1raccoon_1_1engine_1_1CodingEngine_acf4a45b8ac89cf62fe1fcaec7b648289.html#acf4a45b8ac89cf62fe1fcaec7b648289" target="_top" xlink:title="org.msrg.raccoon.engine.\lCodingEngine.sequentialCoding\lTaskFinished">
<polygon fill="none" stroke="black" points="243.5,-85.0675 243.5,-126.068 398.5,-126.068 398.5,-85.0675 243.5,-85.0675"/>
<text text-anchor="start" x="251.5" y="-114.068" font-family="Helvetica,sans-Serif" font-size="10.00">org.msrg.raccoon.engine.</text>
<text text-anchor="start" x="251.5" y="-103.068" font-family="Helvetica,sans-Serif" font-size="10.00">CodingEngine.sequentialCoding</text>
<text text-anchor="middle" x="321" y="-92.0675" font-family="Helvetica,sans-Serif" font-size="10.00">TaskFinished</text>
</a>
</g>
</g>
<!-- Node1&#45;&gt;Node11 -->
<g id="edge10" class="edge"><title>Node1&#45;&gt;Node11</title>
<path fill="none" stroke="midnightblue" d="M126.115,-222.383C152.099,-198.393 196.381,-160.277 240,-135.568 245.937,-132.204 252.323,-129.081 258.806,-126.22"/>
<polygon fill="midnightblue" stroke="midnightblue" points="123.58,-219.962 118.659,-229.345 128.357,-225.078 123.58,-219.962"/>
</g>
<!-- Node12 -->
<g id="node12" class="node"><title>Node12</title>
<g id="a_node12"><a xlink:href="../../db/d98/classorg_1_1msrg_1_1raccoon_1_1engine_1_1CodingEngine_ad025fd8376dceccb53251b6ed6dec71b.html#ad025fd8376dceccb53251b6ed6dec71b" target="_top" xlink:title="org.msrg.raccoon.engine.\lCodingEngine.threadIsBusy">
<polygon fill="none" stroke="black" points="252,-35.5675 252,-65.5675 390,-65.5675 390,-35.5675 252,-35.5675"/>
<text text-anchor="start" x="260" y="-53.5675" font-family="Helvetica,sans-Serif" font-size="10.00">org.msrg.raccoon.engine.</text>
<text text-anchor="middle" x="321" y="-42.5675" font-family="Helvetica,sans-Serif" font-size="10.00">CodingEngine.threadIsBusy</text>
</a>
</g>
</g>
<!-- Node1&#45;&gt;Node12 -->
<g id="edge11" class="edge"><title>Node1&#45;&gt;Node12</title>
<path fill="none" stroke="midnightblue" d="M116.228,-220.452C137.536,-183.815 182.909,-114.311 240,-75.5675 245.659,-71.7271 251.937,-68.4542 258.415,-65.6698"/>
<polygon fill="midnightblue" stroke="midnightblue" points="113.016,-219.02 111.101,-229.441 119.096,-222.488 113.016,-219.02"/>
</g>
<!-- Node13 -->
<g id="node13" class="node"><title>Node13</title>
<g id="a_node13"><a xlink:href="../../db/d98/classorg_1_1msrg_1_1raccoon_1_1engine_1_1CodingEngine_a6fc610d2dc0a744f30da38ddd5deb706.html#a6fc610d2dc0a744f30da38ddd5deb706" target="_top" xlink:title="org.msrg.raccoon.engine.\lCodingEngine.threadIsFree">
<polygon fill="none" stroke="black" points="449,-171.568 449,-201.568 584,-201.568 584,-171.568 449,-171.568"/>
<text text-anchor="start" x="457" y="-189.568" font-family="Helvetica,sans-Serif" font-size="10.00">org.msrg.raccoon.engine.</text>
<text text-anchor="middle" x="516.5" y="-178.568" font-family="Helvetica,sans-Serif" font-size="10.00">CodingEngine.threadIsFree</text>
</a>
</g>
</g>
<!-- Node1&#45;&gt;Node13 -->
<g id="edge12" class="edge"><title>Node1&#45;&gt;Node13</title>
<path fill="none" stroke="midnightblue" d="M109.859,-219.553C124.525,-171.585 163.957,-67.6939 240,-25.5675 302.981,9.32291 338.082,7.57656 402,-25.5675 462.72,-57.0533 497.84,-137.609 510.299,-171.346"/>
<polygon fill="midnightblue" stroke="midnightblue" points="106.419,-218.845 106.951,-229.426 113.134,-220.823 106.419,-218.845"/>
</g>
<!-- Node4 -->
<g id="node4" class="node"><title>Node4</title>
<g id="a_node4"><a xlink:href="../../d1/da4/classorg_1_1msrg_1_1raccoon_1_1engine_1_1thread_1_1CodingThread_a31a8bf19549ed7009791f430c356a421.html#a31a8bf19549ed7009791f430c356a421" target="_top" xlink:title="org.msrg.raccoon.engine.thread.\lCodingThread.runMe">
<polygon fill="none" stroke="black" points="438,-310.568 438,-340.568 595,-340.568 595,-310.568 438,-310.568"/>
<text text-anchor="start" x="446" y="-328.568" font-family="Helvetica,sans-Serif" font-size="10.00">org.msrg.raccoon.engine.thread.</text>
<text text-anchor="middle" x="516.5" y="-317.568" font-family="Helvetica,sans-Serif" font-size="10.00">CodingThread.runMe</text>
</a>
</g>
</g>
<!-- Node3&#45;&gt;Node4 -->
<g id="edge3" class="edge"><title>Node3&#45;&gt;Node4</title>
<path fill="none" stroke="midnightblue" d="M388.269,-398.066C392.963,-396.335 397.583,-394.5 402,-392.568 435.542,-377.895 471.493,-355.391 493.739,-340.577"/>
<polygon fill="midnightblue" stroke="midnightblue" points="386.845,-394.856 378.568,-401.469 389.163,-401.461 386.845,-394.856"/>
</g>
<!-- Node5 -->
<g id="node5" class="node"><title>Node5</title>
<g id="a_node5"><a xlink:href="../../d1/da4/classorg_1_1msrg_1_1raccoon_1_1engine_1_1thread_1_1CodingThread_ae09277e895c3233c7ff465cc8cb00e7c.html#ae09277e895c3233c7ff465cc8cb00e7c" target="_top" xlink:title="org.msrg.raccoon.engine.thread.\lCodingThread.run">
<polygon fill="none" stroke="black" points="631,-240.568 631,-270.568 788,-270.568 788,-240.568 631,-240.568"/>
<text text-anchor="start" x="639" y="-258.568" font-family="Helvetica,sans-Serif" font-size="10.00">org.msrg.raccoon.engine.thread.</text>
<text text-anchor="middle" x="709.5" y="-247.568" font-family="Helvetica,sans-Serif" font-size="10.00">CodingThread.run</text>
</a>
</g>
</g>
<!-- Node4&#45;&gt;Node5 -->
<g id="edge4" class="edge"><title>Node4&#45;&gt;Node5</title>
<path fill="none" stroke="midnightblue" d="M568.215,-306.981C599.163,-295.639 638.224,-281.323 667.264,-270.68"/>
<polygon fill="midnightblue" stroke="midnightblue" points="566.659,-303.823 558.474,-310.551 569.068,-310.396 566.659,-303.823"/>
</g>
<!-- Node13&#45;&gt;Node5 -->
<g id="edge13" class="edge"><title>Node13&#45;&gt;Node5</title>
<path fill="none" stroke="midnightblue" d="M569.06,-205.194C599.665,-216.25 637.968,-230.087 666.682,-240.46"/>
<polygon fill="midnightblue" stroke="midnightblue" points="570.01,-201.816 559.416,-201.71 567.632,-208.399 570.01,-201.816"/>
</g>
</g>
</svg>
