<?xml version="1.0" encoding="UTF-8" standalone="no"?>
<!DOCTYPE svg PUBLIC "-//W3C//DTD SVG 1.1//EN"
 "http://www.w3.org/Graphics/SVG/1.1/DTD/svg11.dtd">
<!-- Generated by graphviz version 2.38.0 (20140413.2041)
 -->
<!-- Title: org.msrg.raccoon.engine.CodingEngine.scheduleTask Pages: 1 -->
<svg width="593pt" height="104pt"
 viewBox="0.00 0.00 593.00 104.11" xmlns="http://www.w3.org/2000/svg" xmlns:xlink="http://www.w3.org/1999/xlink">
<g id="graph0" class="graph" transform="scale(1 1) rotate(0) translate(4 100.113)">
<title>org.msrg.raccoon.engine.CodingEngine.scheduleTask</title>
<!-- Node1 -->
<g id="node1" class="node"><title>Node1</title>
<polygon fill="#bfbfbf" stroke="black" points="0,-49.5 0,-79.5 141,-79.5 141,-49.5 0,-49.5"/>
<text text-anchor="start" x="8" y="-67.5" font-family="Helvetica,sans-Serif" font-size="10.00">org.msrg.raccoon.engine.</text>
<text text-anchor="middle" x="70.5" y="-56.5" font-family="Helvetica,sans-Serif" font-size="10.00">CodingEngine.scheduleTask</text>
</g>
<!-- Node2 -->
<g id="node2" class="node"><title>Node2</title>
<g id="a_node2"><a xlink:href="../../d2/d9a/classorg_1_1msrg_1_1raccoon_1_1engine_1_1CodingEngineImpl_a0398a605548bebf4995dd161d4785b45.html#a0398a605548bebf4995dd161d4785b45" target="_top" xlink:title="org.msrg.raccoon.engine.\lCodingEngineImpl.processCodingEvent">
<polygon fill="none" stroke="black" points="395,-49.5 395,-79.5 585,-79.5 585,-49.5 395,-49.5"/>
<text text-anchor="start" x="403" y="-67.5" font-family="Helvetica,sans-Serif" font-size="10.00">org.msrg.raccoon.engine.</text>
<text text-anchor="middle" x="490" y="-56.5" font-family="Helvetica,sans-Serif" font-size="10.00">CodingEngineImpl.processCodingEvent</text>
</a>
</g>
</g>
<!-- Node1&#45;&gt;Node2 -->
<g id="edge1" class="edge"><title>Node1&#45;&gt;Node2</title>
<path fill="none" stroke="midnightblue" d="M134.204,-81.8833C148.182,-85.0494 163.009,-87.8649 177,-89.5 257.342,-98.8892 278.476,-97.1724 359,-89.5 380.278,-87.4726 403.252,-83.6189 423.883,-79.5334"/>
<polygon fill="midnightblue" stroke="midnightblue" points="134.736,-78.4129 124.2,-79.5278 133.131,-85.2266 134.736,-78.4129"/>
</g>
<!-- Node3 -->
<g id="node3" class="node"><title>Node3</title>
<g id="a_node3"><a xlink:href="../../d2/d9a/classorg_1_1msrg_1_1raccoon_1_1engine_1_1CodingEngineImpl_aa27d75eccd5ce6550b9913c5418e5ed8.html#aa27d75eccd5ce6550b9913c5418e5ed8" target="_top" xlink:title="org.msrg.raccoon.engine.\lCodingEngineImpl.threadAdded">
<polygon fill="none" stroke="black" points="191,-49.5 191,-79.5 345,-79.5 345,-49.5 191,-49.5"/>
<text text-anchor="start" x="199" y="-67.5" font-family="Helvetica,sans-Serif" font-size="10.00">org.msrg.raccoon.engine.</text>
<text text-anchor="middle" x="268" y="-56.5" font-family="Helvetica,sans-Serif" font-size="10.00">CodingEngineImpl.threadAdded</text>
</a>
</g>
</g>
<!-- Node1&#45;&gt;Node3 -->
<g id="edge2" class="edge"><title>Node1&#45;&gt;Node3</title>
<path fill="none" stroke="midnightblue" d="M151.582,-64.5C164.602,-64.5 178.054,-64.5 190.973,-64.5"/>
<polygon fill="midnightblue" stroke="midnightblue" points="151.252,-61.0001 141.252,-64.5 151.252,-68.0001 151.252,-61.0001"/>
</g>
<!-- Node4 -->
<g id="node4" class="node"><title>Node4</title>
<g id="a_node4"><a xlink:href="../../d2/d9a/classorg_1_1msrg_1_1raccoon_1_1engine_1_1CodingEngineImpl_a80c65118b8ac647ac6393bd77625088b.html#a80c65118b8ac647ac6393bd77625088b" target="_top" xlink:title="org.msrg.raccoon.engine.\lCodingEngineImpl.threadBecameFree">
<polygon fill="none" stroke="black" points="177,-0.5 177,-30.5 359,-30.5 359,-0.5 177,-0.5"/>
<text text-anchor="start" x="185" y="-18.5" font-family="Helvetica,sans-Serif" font-size="10.00">org.msrg.raccoon.engine.</text>
<text text-anchor="middle" x="268" y="-7.5" font-family="Helvetica,sans-Serif" font-size="10.00">CodingEngineImpl.threadBecameFree</text>
</a>
</g>
</g>
<!-- Node1&#45;&gt;Node4 -->
<g id="edge4" class="edge"><title>Node1&#45;&gt;Node4</title>
<path fill="none" stroke="midnightblue" d="M141.229,-47.0232C162.777,-41.6225 186.308,-35.7245 207.128,-30.5062"/>
<polygon fill="midnightblue" stroke="midnightblue" points="140.334,-43.6391 131.485,-49.4654 142.036,-50.4291 140.334,-43.6391"/>
</g>
<!-- Node3&#45;&gt;Node2 -->
<g id="edge3" class="edge"><title>Node3&#45;&gt;Node2</title>
<path fill="none" stroke="midnightblue" d="M355.286,-64.5C368.229,-64.5 381.631,-64.5 394.73,-64.5"/>
<polygon fill="midnightblue" stroke="midnightblue" points="355.02,-61.0001 345.02,-64.5 355.02,-68.0001 355.02,-61.0001"/>
</g>
<!-- Node4&#45;&gt;Node2 -->
<g id="edge5" class="edge"><title>Node4&#45;&gt;Node2</title>
<path fill="none" stroke="midnightblue" d="M346.485,-32.7581C370.999,-38.218 397.88,-44.205 421.625,-49.4938"/>
<polygon fill="midnightblue" stroke="midnightblue" points="347.024,-29.2924 336.502,-30.5346 345.502,-36.125 347.024,-29.2924"/>
</g>
</g>
</svg>
