<?xml version="1.0" encoding="UTF-8" standalone="no"?>
<!DOCTYPE svg PUBLIC "-//W3C//DTD SVG 1.1//EN"
 "http://www.w3.org/Graphics/SVG/1.1/DTD/svg11.dtd">
<!-- Generated by graphviz version 2.38.0 (20140413.2041)
 -->
<!-- Title: org.msrg.raccoon.engine.CodingEngine.notifyListener Pages: 1 -->
<svg width="759pt" height="137pt"
 viewBox="0.00 0.00 759.00 137.00" xmlns="http://www.w3.org/2000/svg" xmlns:xlink="http://www.w3.org/1999/xlink">
<g id="graph0" class="graph" transform="scale(1 1) rotate(0) translate(4 133)">
<title>org.msrg.raccoon.engine.CodingEngine.notifyListener</title>
<!-- Node1 -->
<g id="node1" class="node"><title>Node1</title>
<polygon fill="#bfbfbf" stroke="black" points="0,-49.5 0,-79.5 139,-79.5 139,-49.5 0,-49.5"/>
<text text-anchor="start" x="8" y="-67.5" font-family="Helvetica,sans-Serif" font-size="10.00">org.msrg.raccoon.engine.</text>
<text text-anchor="middle" x="69.5" y="-56.5" font-family="Helvetica,sans-Serif" font-size="10.00">CodingEngine.notifyListener</text>
</g>
<!-- Node2 -->
<g id="node2" class="node"><title>Node2</title>
<g id="a_node2"><a xlink:href="../../db/d98/classorg_1_1msrg_1_1raccoon_1_1engine_1_1CodingEngine_a2398d0be0c50a5b97c4f18b1d26da62f.html#a2398d0be0c50a5b97c4f18b1d26da62f" target="_top" xlink:title="org.msrg.raccoon.engine.\lCodingEngine.codingTaskFailed">
<polygon fill="none" stroke="black" points="191.5,-98.5 191.5,-128.5 348.5,-128.5 348.5,-98.5 191.5,-98.5"/>
<text text-anchor="start" x="199.5" y="-116.5" font-family="Helvetica,sans-Serif" font-size="10.00">org.msrg.raccoon.engine.</text>
<text text-anchor="middle" x="270" y="-105.5" font-family="Helvetica,sans-Serif" font-size="10.00">CodingEngine.codingTaskFailed</text>
</a>
</g>
</g>
<!-- Node1&#45;&gt;Node2 -->
<g id="edge1" class="edge"><title>Node1&#45;&gt;Node2</title>
<path fill="none" stroke="midnightblue" d="M141.299,-81.9768C163.177,-87.3775 187.07,-93.2755 208.21,-98.4938"/>
<polygon fill="midnightblue" stroke="midnightblue" points="141.953,-78.5333 131.406,-79.5346 140.275,-85.3293 141.953,-78.5333"/>
</g>
<!-- Node5 -->
<g id="node5" class="node"><title>Node5</title>
<g id="a_node5"><a xlink:href="../../db/d98/classorg_1_1msrg_1_1raccoon_1_1engine_1_1CodingEngine_a3d4a6d3540939a6669282049714e7a92.html#a3d4a6d3540939a6669282049714e7a92" target="_top" xlink:title="org.msrg.raccoon.engine.\lCodingEngine.codingTaskFinished">
<polygon fill="none" stroke="black" points="186.5,-49.5 186.5,-79.5 353.5,-79.5 353.5,-49.5 186.5,-49.5"/>
<text text-anchor="start" x="194.5" y="-67.5" font-family="Helvetica,sans-Serif" font-size="10.00">org.msrg.raccoon.engine.</text>
<text text-anchor="middle" x="270" y="-56.5" font-family="Helvetica,sans-Serif" font-size="10.00">CodingEngine.codingTaskFinished</text>
</a>
</g>
</g>
<!-- Node1&#45;&gt;Node5 -->
<g id="edge4" class="edge"><title>Node1&#45;&gt;Node5</title>
<path fill="none" stroke="midnightblue" d="M149.228,-64.5C161.439,-64.5 174.083,-64.5 186.377,-64.5"/>
<polygon fill="midnightblue" stroke="midnightblue" points="149.09,-61.0001 139.09,-64.5 149.09,-68.0001 149.09,-61.0001"/>
</g>
<!-- Node6 -->
<g id="node6" class="node"><title>Node6</title>
<g id="a_node6"><a xlink:href="../../d2/d9a/classorg_1_1msrg_1_1raccoon_1_1engine_1_1CodingEngineImpl_a0398a605548bebf4995dd161d4785b45.html#a0398a605548bebf4995dd161d4785b45" target="_top" xlink:title="org.msrg.raccoon.engine.\lCodingEngineImpl.processCodingEvent">
<polygon fill="none" stroke="black" points="175,-0.5 175,-30.5 365,-30.5 365,-0.5 175,-0.5"/>
<text text-anchor="start" x="183" y="-18.5" font-family="Helvetica,sans-Serif" font-size="10.00">org.msrg.raccoon.engine.</text>
<text text-anchor="middle" x="270" y="-7.5" font-family="Helvetica,sans-Serif" font-size="10.00">CodingEngineImpl.processCodingEvent</text>
</a>
</g>
</g>
<!-- Node1&#45;&gt;Node6 -->
<g id="edge6" class="edge"><title>Node1&#45;&gt;Node6</title>
<path fill="none" stroke="midnightblue" d="M141.299,-47.0232C163.177,-41.6225 187.07,-35.7245 208.21,-30.5062"/>
<polygon fill="midnightblue" stroke="midnightblue" points="140.275,-43.6707 131.406,-49.4654 141.953,-50.4667 140.275,-43.6707"/>
</g>
<!-- Node3 -->
<g id="node3" class="node"><title>Node3</title>
<g id="a_node3"><a xlink:href="../../d1/da4/classorg_1_1msrg_1_1raccoon_1_1engine_1_1thread_1_1CodingThread_a31a8bf19549ed7009791f430c356a421.html#a31a8bf19549ed7009791f430c356a421" target="_top" xlink:title="org.msrg.raccoon.engine.thread.\lCodingThread.runMe">
<polygon fill="none" stroke="black" points="401,-73.5 401,-103.5 558,-103.5 558,-73.5 401,-73.5"/>
<text text-anchor="start" x="409" y="-91.5" font-family="Helvetica,sans-Serif" font-size="10.00">org.msrg.raccoon.engine.thread.</text>
<text text-anchor="middle" x="479.5" y="-80.5" font-family="Helvetica,sans-Serif" font-size="10.00">CodingThread.runMe</text>
</a>
</g>
</g>
<!-- Node2&#45;&gt;Node3 -->
<g id="edge2" class="edge"><title>Node2&#45;&gt;Node3</title>
<path fill="none" stroke="midnightblue" d="M358.643,-102.941C372.608,-101.258 386.971,-99.5276 400.688,-97.8749"/>
<polygon fill="midnightblue" stroke="midnightblue" points="358.07,-99.4842 348.56,-104.155 358.907,-106.434 358.07,-99.4842"/>
</g>
<!-- Node4 -->
<g id="node4" class="node"><title>Node4</title>
<g id="a_node4"><a xlink:href="../../d1/da4/classorg_1_1msrg_1_1raccoon_1_1engine_1_1thread_1_1CodingThread_ae09277e895c3233c7ff465cc8cb00e7c.html#ae09277e895c3233c7ff465cc8cb00e7c" target="_top" xlink:title="org.msrg.raccoon.engine.thread.\lCodingThread.run">
<polygon fill="none" stroke="black" points="594,-73.5 594,-103.5 751,-103.5 751,-73.5 594,-73.5"/>
<text text-anchor="start" x="602" y="-91.5" font-family="Helvetica,sans-Serif" font-size="10.00">org.msrg.raccoon.engine.thread.</text>
<text text-anchor="middle" x="672.5" y="-80.5" font-family="Helvetica,sans-Serif" font-size="10.00">CodingThread.run</text>
</a>
</g>
</g>
<!-- Node3&#45;&gt;Node4 -->
<g id="edge3" class="edge"><title>Node3&#45;&gt;Node4</title>
<path fill="none" stroke="midnightblue" d="M568.193,-88.5C576.765,-88.5 585.42,-88.5 593.882,-88.5"/>
<polygon fill="midnightblue" stroke="midnightblue" points="568.187,-85.0001 558.187,-88.5 568.187,-92.0001 568.187,-85.0001"/>
</g>
<!-- Node5&#45;&gt;Node3 -->
<g id="edge5" class="edge"><title>Node5&#45;&gt;Node3</title>
<path fill="none" stroke="midnightblue" d="M363.55,-75.2046C376.026,-76.6476 388.72,-78.1159 400.9,-79.5246"/>
<polygon fill="midnightblue" stroke="midnightblue" points="363.942,-71.7266 353.606,-74.0544 363.137,-78.6803 363.942,-71.7266"/>
</g>
</g>
</svg>
