<?xml version="1.0" encoding="UTF-8" standalone="no"?>
<!DOCTYPE svg PUBLIC "-//W3C//DTD SVG 1.1//EN"
 "http://www.w3.org/Graphics/SVG/1.1/DTD/svg11.dtd">
<!-- Generated by graphviz version 2.38.0 (20140413.2041)
 -->
<!-- Title: org.msrg.raccoon.matrix.MatrixFactory.multiply Pages: 1 -->
<svg width="587pt" height="235pt"
 viewBox="0.00 0.00 587.00 235.00" xmlns="http://www.w3.org/2000/svg" xmlns:xlink="http://www.w3.org/1999/xlink">
<g id="graph0" class="graph" transform="scale(1 1) rotate(0) translate(4 231)">
<title>org.msrg.raccoon.matrix.MatrixFactory.multiply</title>
<!-- Node2 -->
<g id="node1" class="node"><title>Node2</title>
<polygon fill="#bfbfbf" stroke="black" points="0,-98.5 0,-128.5 125,-128.5 125,-98.5 0,-98.5"/>
<text text-anchor="start" x="8" y="-116.5" font-family="Helvetica,sans-Serif" font-size="10.00">org.msrg.raccoon.matrix.</text>
<text text-anchor="middle" x="62.5" y="-105.5" font-family="Helvetica,sans-Serif" font-size="10.00">MatrixFactory.multiply</text>
</g>
<!-- Node3 -->
<g id="node2" class="node"><title>Node3</title>
<g id="a_node2"><a xlink:href="../../dd/d0e/classorg_1_1msrg_1_1raccoon_1_1matrix_1_1DoubleMatrix_ab7b5fc56aa9107cbc2ec414102293fca.html#ab7b5fc56aa9107cbc2ec414102293fca" target="_top" xlink:title="org.msrg.raccoon.matrix.\lDoubleMatrix.main">
<polygon fill="none" stroke="black" points="203,-196.5 203,-226.5 328,-226.5 328,-196.5 203,-196.5"/>
<text text-anchor="start" x="211" y="-214.5" font-family="Helvetica,sans-Serif" font-size="10.00">org.msrg.raccoon.matrix.</text>
<text text-anchor="middle" x="265.5" y="-203.5" font-family="Helvetica,sans-Serif" font-size="10.00">DoubleMatrix.main</text>
</a>
</g>
</g>
<!-- Node2&#45;&gt;Node3 -->
<g id="edge1" class="edge"><title>Node2&#45;&gt;Node3</title>
<path fill="none" stroke="midnightblue" d="M86.4279,-135.407C105.1,-152.072 132.886,-174.315 161,-187.5 174.026,-193.609 188.723,-198.224 202.863,-201.687"/>
<polygon fill="midnightblue" stroke="midnightblue" points="88.7588,-132.796 79.009,-128.649 84.045,-137.971 88.7588,-132.796"/>
</g>
<!-- Node4 -->
<g id="node3" class="node"><title>Node4</title>
<g id="a_node3"><a xlink:href="../../dd/d0e/classorg_1_1msrg_1_1raccoon_1_1matrix_1_1DoubleMatrix_a6295a296b6239fef50c22aa29ac16338.html#a6295a296b6239fef50c22aa29ac16338" target="_top" xlink:title="org.msrg.raccoon.matrix.\lDoubleMatrix.main0">
<polygon fill="none" stroke="black" points="203,-147.5 203,-177.5 328,-177.5 328,-147.5 203,-147.5"/>
<text text-anchor="start" x="211" y="-165.5" font-family="Helvetica,sans-Serif" font-size="10.00">org.msrg.raccoon.matrix.</text>
<text text-anchor="middle" x="265.5" y="-154.5" font-family="Helvetica,sans-Serif" font-size="10.00">DoubleMatrix.main0</text>
</a>
</g>
</g>
<!-- Node2&#45;&gt;Node4 -->
<g id="edge2" class="edge"><title>Node2&#45;&gt;Node4</title>
<path fill="none" stroke="midnightblue" d="M131.11,-131.052C141.123,-133.588 151.324,-136.138 161,-138.5 174.529,-141.803 189.08,-145.245 202.874,-148.457"/>
<polygon fill="midnightblue" stroke="midnightblue" points="131.742,-127.601 121.187,-128.527 130.015,-134.385 131.742,-127.601"/>
</g>
<!-- Node5 -->
<g id="node4" class="node"><title>Node5</title>
<g id="a_node4"><a xlink:href="../../d5/d96/classorg_1_1msrg_1_1raccoon_1_1matrix_1_1finitefields_1_1ByteMatrixTest_ae32ff4ec2714b4cecdb5f85253619a41.html#ae32ff4ec2714b4cecdb5f85253619a41" target="_top" xlink:title="org.msrg.raccoon.matrix.finitefields.\lByteMatrixTest.runTestM2timesInvIsM">
<polygon fill="none" stroke="black" points="172,-98.5 172,-128.5 359,-128.5 359,-98.5 172,-98.5"/>
<text text-anchor="start" x="180" y="-116.5" font-family="Helvetica,sans-Serif" font-size="10.00">org.msrg.raccoon.matrix.finitefields.</text>
<text text-anchor="middle" x="265.5" y="-105.5" font-family="Helvetica,sans-Serif" font-size="10.00">ByteMatrixTest.runTestM2timesInvIsM</text>
</a>
</g>
</g>
<!-- Node2&#45;&gt;Node5 -->
<g id="edge3" class="edge"><title>Node2&#45;&gt;Node5</title>
<path fill="none" stroke="midnightblue" d="M135.398,-113.5C147.223,-113.5 159.624,-113.5 171.869,-113.5"/>
<polygon fill="midnightblue" stroke="midnightblue" points="135.173,-110 125.173,-113.5 135.173,-117 135.173,-110"/>
</g>
<!-- Node8 -->
<g id="node7" class="node"><title>Node8</title>
<g id="a_node7"><a xlink:href="../../d3/dbf/classorg_1_1msrg_1_1raccoon_1_1matrix_1_1finitefields_1_1FFByteMatrixTest_a8d0d9f8aa3c271bf44839894d8038c7c.html#a8d0d9f8aa3c271bf44839894d8038c7c" target="_top" xlink:title="org.msrg.raccoon.matrix.finitefields.\lFFByteMatrixTest.testM2timesInvIsM">
<polygon fill="none" stroke="black" points="174.5,-49.5 174.5,-79.5 356.5,-79.5 356.5,-49.5 174.5,-49.5"/>
<text text-anchor="start" x="182.5" y="-67.5" font-family="Helvetica,sans-Serif" font-size="10.00">org.msrg.raccoon.matrix.finitefields.</text>
<text text-anchor="middle" x="265.5" y="-56.5" font-family="Helvetica,sans-Serif" font-size="10.00">FFByteMatrixTest.testM2timesInvIsM</text>
</a>
</g>
</g>
<!-- Node2&#45;&gt;Node8 -->
<g id="edge6" class="edge"><title>Node2&#45;&gt;Node8</title>
<path fill="none" stroke="midnightblue" d="M134.102,-96.0825C143.153,-93.8611 152.294,-91.623 161,-89.5 174.29,-86.2593 188.545,-82.8032 202.096,-79.527"/>
<polygon fill="midnightblue" stroke="midnightblue" points="133.218,-92.6955 124.342,-98.4802 134.888,-99.4934 133.218,-92.6955"/>
</g>
<!-- Node9 -->
<g id="node8" class="node"><title>Node9</title>
<g id="a_node8"><a xlink:href="../../d3/dbf/classorg_1_1msrg_1_1raccoon_1_1matrix_1_1finitefields_1_1FFByteMatrixTest_a5ccbea71ba50b68456d1625106b2091e.html#a5ccbea71ba50b68456d1625106b2091e" target="_top" xlink:title="org.msrg.raccoon.matrix.finitefields.\lFFByteMatrixTest.testMtimesMInvIsIdentity">
<polygon fill="none" stroke="black" points="161,-0.5 161,-30.5 370,-30.5 370,-0.5 161,-0.5"/>
<text text-anchor="start" x="169" y="-18.5" font-family="Helvetica,sans-Serif" font-size="10.00">org.msrg.raccoon.matrix.finitefields.</text>
<text text-anchor="middle" x="265.5" y="-7.5" font-family="Helvetica,sans-Serif" font-size="10.00">FFByteMatrixTest.testMtimesMInvIsIdentity</text>
</a>
</g>
</g>
<!-- Node2&#45;&gt;Node9 -->
<g id="edge7" class="edge"><title>Node2&#45;&gt;Node9</title>
<path fill="none" stroke="midnightblue" d="M87.1023,-91.4573C105.814,-75.1221 133.333,-53.5197 161,-40.5 169.196,-36.6432 178.046,-33.3469 187,-30.5378"/>
<polygon fill="midnightblue" stroke="midnightblue" points="84.5399,-89.0526 79.4022,-98.3183 89.1967,-94.2789 84.5399,-89.0526"/>
</g>
<!-- Node6 -->
<g id="node5" class="node"><title>Node6</title>
<g id="a_node5"><a xlink:href="../../d5/d96/classorg_1_1msrg_1_1raccoon_1_1matrix_1_1finitefields_1_1ByteMatrixTest_af84f780201f4ae5e9d625748fa84ca38.html#af84f780201f4ae5e9d625748fa84ca38" target="_top" xlink:title="org.msrg.raccoon.matrix.finitefields.\lByteMatrixTest.testM2timesInvIsM\l_HasNoInvserse">
<polygon fill="none" stroke="black" points="406,-123 406,-164 579,-164 579,-123 406,-123"/>
<text text-anchor="start" x="414" y="-152" font-family="Helvetica,sans-Serif" font-size="10.00">org.msrg.raccoon.matrix.finitefields.</text>
<text text-anchor="start" x="414" y="-141" font-family="Helvetica,sans-Serif" font-size="10.00">ByteMatrixTest.testM2timesInvIsM</text>
<text text-anchor="middle" x="492.5" y="-130" font-family="Helvetica,sans-Serif" font-size="10.00">_HasNoInvserse</text>
</a>
</g>
</g>
<!-- Node5&#45;&gt;Node6 -->
<g id="edge4" class="edge"><title>Node5&#45;&gt;Node6</title>
<path fill="none" stroke="midnightblue" d="M369.464,-127.229C381.603,-128.847 393.891,-130.485 405.758,-132.068"/>
<polygon fill="midnightblue" stroke="midnightblue" points="369.69,-123.728 359.315,-125.875 368.765,-130.666 369.69,-123.728"/>
</g>
<!-- Node7 -->
<g id="node6" class="node"><title>Node7</title>
<g id="a_node6"><a xlink:href="../../d5/d96/classorg_1_1msrg_1_1raccoon_1_1matrix_1_1finitefields_1_1ByteMatrixTest_a810788f9ce020bbab969821becb0ef3f.html#a810788f9ce020bbab969821becb0ef3f" target="_top" xlink:title="org.msrg.raccoon.matrix.finitefields.\lByteMatrixTest.testM2timesInvIsM\l_HasInvserse">
<polygon fill="none" stroke="black" points="406,-63 406,-104 579,-104 579,-63 406,-63"/>
<text text-anchor="start" x="414" y="-92" font-family="Helvetica,sans-Serif" font-size="10.00">org.msrg.raccoon.matrix.finitefields.</text>
<text text-anchor="start" x="414" y="-81" font-family="Helvetica,sans-Serif" font-size="10.00">ByteMatrixTest.testM2timesInvIsM</text>
<text text-anchor="middle" x="492.5" y="-70" font-family="Helvetica,sans-Serif" font-size="10.00">_HasInvserse</text>
</a>
</g>
</g>
<!-- Node5&#45;&gt;Node7 -->
<g id="edge5" class="edge"><title>Node5&#45;&gt;Node7</title>
<path fill="none" stroke="midnightblue" d="M369.464,-99.7714C381.603,-98.1529 393.891,-96.5145 405.758,-94.9323"/>
<polygon fill="midnightblue" stroke="midnightblue" points="368.765,-96.3336 359.315,-101.125 369.69,-103.272 368.765,-96.3336"/>
</g>
</g>
</svg>
