<?xml version="1.0" encoding="UTF-8" standalone="no"?>
<!DOCTYPE svg PUBLIC "-//W3C//DTD SVG 1.1//EN"
 "http://www.w3.org/Graphics/SVG/1.1/DTD/svg11.dtd">
<!-- Generated by graphviz version 2.38.0 (20140413.2041)
 -->
<!-- Title: org.msrg.raccoon.engine.task.result.CodedSlice_CodingResult.getResult Pages: 1 -->
<svg width="626pt" height="110pt"
 viewBox="0.00 0.00 626.00 110.00" xmlns="http://www.w3.org/2000/svg" xmlns:xlink="http://www.w3.org/1999/xlink">
<g id="graph0" class="graph" transform="scale(1 1) rotate(0) translate(4 106)">
<title>org.msrg.raccoon.engine.task.result.CodedSlice_CodingResult.getResult</title>
<!-- Node2 -->
<g id="node1" class="node"><title>Node2</title>
<polygon fill="#bfbfbf" stroke="black" points="0,-36 0,-66 176,-66 176,-36 0,-36"/>
<text text-anchor="start" x="8" y="-54" font-family="Helvetica,sans-Serif" font-size="10.00">org.msrg.raccoon.engine.task.result.</text>
<text text-anchor="middle" x="88" y="-43" font-family="Helvetica,sans-Serif" font-size="10.00">CodedSlice_CodingResult.getResult</text>
</g>
<!-- Node3 -->
<g id="node2" class="node"><title>Node3</title>
<g id="a_node2"><a xlink:href="../../d5/daf/classorg_1_1msrg_1_1raccoon_1_1engine_1_1task_1_1sequential_1_1EncodingReceivedEncodingDecodingEqual__SequentialCodingTask_ad2c155a55fc3d08e007c03be1be0b195.html#ad2c155a55fc3d08e007c03be1be0b195" target="_top" xlink:title="org.msrg.raccoon.engine.task.sequential.\lEncodingReceivedEncodingDecodingEqual\l_SequentialCodingTask.codingFinished">
<polygon fill="none" stroke="black" points="212,-60.5 212,-101.5 417,-101.5 417,-60.5 212,-60.5"/>
<text text-anchor="start" x="220" y="-89.5" font-family="Helvetica,sans-Serif" font-size="10.00">org.msrg.raccoon.engine.task.sequential.</text>
<text text-anchor="start" x="220" y="-78.5" font-family="Helvetica,sans-Serif" font-size="10.00">EncodingReceivedEncodingDecodingEqual</text>
<text text-anchor="middle" x="314.5" y="-67.5" font-family="Helvetica,sans-Serif" font-size="10.00">_SequentialCodingTask.codingFinished</text>
</a>
</g>
</g>
<!-- Node2&#45;&gt;Node3 -->
<g id="edge1" class="edge"><title>Node2&#45;&gt;Node3</title>
<path fill="none" stroke="midnightblue" d="M186.077,-63.9725C194.618,-65.1137 203.277,-66.2709 211.854,-67.417"/>
<polygon fill="midnightblue" stroke="midnightblue" points="186.494,-60.4972 176.119,-62.6417 185.567,-67.4355 186.494,-60.4972"/>
</g>
<!-- Node4 -->
<g id="node3" class="node"><title>Node4</title>
<g id="a_node3"><a xlink:href="../../dc/dcf/classorg_1_1msrg_1_1raccoon_1_1engine_1_1CodingEngineTest_af8b30ec26e68febeddd3f3ff75a13555.html#af8b30ec26e68febeddd3f3ff75a13555" target="_top" xlink:title="org.msrg.raccoon.engine.\lCodingEngineTest.processFinished\lResult">
<polygon fill="none" stroke="black" points="229,-0.5 229,-41.5 400,-41.5 400,-0.5 229,-0.5"/>
<text text-anchor="start" x="237" y="-29.5" font-family="Helvetica,sans-Serif" font-size="10.00">org.msrg.raccoon.engine.</text>
<text text-anchor="start" x="237" y="-18.5" font-family="Helvetica,sans-Serif" font-size="10.00">CodingEngineTest.processFinished</text>
<text text-anchor="middle" x="314.5" y="-7.5" font-family="Helvetica,sans-Serif" font-size="10.00">Result</text>
</a>
</g>
</g>
<!-- Node2&#45;&gt;Node4 -->
<g id="edge2" class="edge"><title>Node2&#45;&gt;Node4</title>
<path fill="none" stroke="midnightblue" d="M186.312,-37.9962C200.406,-36.1128 214.82,-34.1866 228.644,-32.3394"/>
<polygon fill="midnightblue" stroke="midnightblue" points="185.567,-34.5645 176.119,-39.3583 186.494,-41.5028 185.567,-34.5645"/>
</g>
<!-- Node5 -->
<g id="node4" class="node"><title>Node5</title>
<g id="a_node4"><a xlink:href="../../dc/dcf/classorg_1_1msrg_1_1raccoon_1_1engine_1_1CodingEngineTest_a312467d37f3faa057e1deaaeb5f527a4.html#a312467d37f3faa057e1deaaeb5f527a4" target="_top" xlink:title="org.msrg.raccoon.engine.\lCodingEngineTest.codingFinished">
<polygon fill="none" stroke="black" points="453,-6 453,-36 618,-36 618,-6 453,-6"/>
<text text-anchor="start" x="461" y="-24" font-family="Helvetica,sans-Serif" font-size="10.00">org.msrg.raccoon.engine.</text>
<text text-anchor="middle" x="535.5" y="-13" font-family="Helvetica,sans-Serif" font-size="10.00">CodingEngineTest.codingFinished</text>
</a>
</g>
</g>
<!-- Node4&#45;&gt;Node5 -->
<g id="edge3" class="edge"><title>Node4&#45;&gt;Node5</title>
<path fill="none" stroke="midnightblue" d="M410.413,-21C424.579,-21 439.076,-21 452.933,-21"/>
<polygon fill="midnightblue" stroke="midnightblue" points="410.171,-17.5001 400.171,-21 410.171,-24.5001 410.171,-17.5001"/>
</g>
</g>
</svg>
