<?xml version="1.0" encoding="UTF-8" standalone="no"?>
<!DOCTYPE svg PUBLIC "-//W3C//DTD SVG 1.1//EN"
 "http://www.w3.org/Graphics/SVG/1.1/DTD/svg11.dtd">
<!-- Generated by graphviz version 2.38.0 (20140413.2041)
 -->
<!-- Title: org.msrg.raccoon.engine.task.CodingId.getNewCodingId Pages: 1 -->
<svg width="357pt" height="417pt"
 viewBox="0.00 0.00 357.00 416.50" xmlns="http://www.w3.org/2000/svg" xmlns:xlink="http://www.w3.org/1999/xlink">
<g id="graph0" class="graph" transform="scale(1 1) rotate(0) translate(4 412.5)">
<title>org.msrg.raccoon.engine.task.CodingId.getNewCodingId</title>
<!-- Node2 -->
<g id="node1" class="node"><title>Node2</title>
<polygon fill="#bfbfbf" stroke="black" points="0,-195 0,-225 149,-225 149,-195 0,-195"/>
<text text-anchor="start" x="8" y="-213" font-family="Helvetica,sans-Serif" font-size="10.00">org.msrg.raccoon.engine.task.</text>
<text text-anchor="middle" x="74.5" y="-202" font-family="Helvetica,sans-Serif" font-size="10.00">CodingId.getNewCodingId</text>
</g>
<!-- Node3 -->
<g id="node2" class="node"><title>Node3</title>
<g id="a_node2"><a xlink:href="../../d2/d9a/classorg_1_1msrg_1_1raccoon_1_1engine_1_1CodingEngineImpl_a7ab11be64f817946f2d11961b00cd2db.html#a7ab11be64f817946f2d11961b00cd2db" target="_top" xlink:title="org.msrg.raccoon.engine.\lCodingEngineImpl.checkEquality">
<polygon fill="none" stroke="black" points="186.5,-378 186.5,-408 347.5,-408 347.5,-378 186.5,-378"/>
<text text-anchor="start" x="194.5" y="-396" font-family="Helvetica,sans-Serif" font-size="10.00">org.msrg.raccoon.engine.</text>
<text text-anchor="middle" x="267" y="-385" font-family="Helvetica,sans-Serif" font-size="10.00">CodingEngineImpl.checkEquality</text>
</a>
</g>
</g>
<!-- Node2&#45;&gt;Node3 -->
<g id="edge1" class="edge"><title>Node2&#45;&gt;Node3</title>
<path fill="none" stroke="midnightblue" d="M86.0009,-234.759C102.142,-269.849 136.366,-333.698 185,-369 189.748,-372.446 194.989,-375.402 200.455,-377.935"/>
<polygon fill="midnightblue" stroke="midnightblue" points="89.0314,-232.962 81.7529,-225.263 82.6417,-235.82 89.0314,-232.962"/>
</g>
<!-- Node4 -->
<g id="node3" class="node"><title>Node4</title>
<g id="a_node3"><a xlink:href="../../d2/d9a/classorg_1_1msrg_1_1raccoon_1_1engine_1_1CodingEngineImpl_a68d8add21019606803f824ab9a0e16b2.html#a68d8add21019606803f824ab9a0e16b2" target="_top" xlink:title="org.msrg.raccoon.engine.\lCodingEngineImpl.decode">
<polygon fill="none" stroke="black" points="201.5,-329 201.5,-359 332.5,-359 332.5,-329 201.5,-329"/>
<text text-anchor="start" x="209.5" y="-347" font-family="Helvetica,sans-Serif" font-size="10.00">org.msrg.raccoon.engine.</text>
<text text-anchor="middle" x="267" y="-336" font-family="Helvetica,sans-Serif" font-size="10.00">CodingEngineImpl.decode</text>
</a>
</g>
</g>
<!-- Node2&#45;&gt;Node4 -->
<g id="edge2" class="edge"><title>Node2&#45;&gt;Node4</title>
<path fill="none" stroke="midnightblue" d="M92.8431,-233.367C112.535,-258.303 146.91,-297.278 185,-320 190.668,-323.381 196.846,-326.315 203.18,-328.855"/>
<polygon fill="midnightblue" stroke="midnightblue" points="95.3966,-230.947 86.5082,-225.181 89.8609,-235.232 95.3966,-230.947"/>
</g>
<!-- Node5 -->
<g id="node4" class="node"><title>Node5</title>
<g id="a_node4"><a xlink:href="../../d2/d9a/classorg_1_1msrg_1_1raccoon_1_1engine_1_1CodingEngineImpl_a6be80b856b9185ab93b5e9921844481e.html#a6be80b856b9185ab93b5e9921844481e" target="_top" xlink:title="org.msrg.raccoon.engine.\lCodingEngineImpl.encode">
<polygon fill="none" stroke="black" points="201.5,-280 201.5,-310 332.5,-310 332.5,-280 201.5,-280"/>
<text text-anchor="start" x="209.5" y="-298" font-family="Helvetica,sans-Serif" font-size="10.00">org.msrg.raccoon.engine.</text>
<text text-anchor="middle" x="267" y="-287" font-family="Helvetica,sans-Serif" font-size="10.00">CodingEngineImpl.encode</text>
</a>
</g>
</g>
<!-- Node2&#45;&gt;Node5 -->
<g id="edge3" class="edge"><title>Node2&#45;&gt;Node5</title>
<path fill="none" stroke="midnightblue" d="M108.237,-230.215C129.555,-242.801 158.274,-258.69 185,-270 193.539,-273.613 202.78,-276.962 211.862,-279.958"/>
<polygon fill="midnightblue" stroke="midnightblue" points="109.961,-227.168 99.5805,-225.046 106.372,-233.178 109.961,-227.168"/>
</g>
<!-- Node6 -->
<g id="node5" class="node"><title>Node6</title>
<g id="a_node5"><a xlink:href="../../d1/d97/classorg_1_1msrg_1_1raccoon_1_1engine_1_1CodingEngine__ForTest_abdedecf33e51af4a2031d2328a881c8a.html#abdedecf33e51af4a2031d2328a881c8a" target="_top" xlink:title="org.msrg.raccoon.engine.\lCodingEngine_ForTest.encoding\lDecodingEqual">
<polygon fill="none" stroke="black" points="188,-219.5 188,-260.5 346,-260.5 346,-219.5 188,-219.5"/>
<text text-anchor="start" x="196" y="-248.5" font-family="Helvetica,sans-Serif" font-size="10.00">org.msrg.raccoon.engine.</text>
<text text-anchor="start" x="196" y="-237.5" font-family="Helvetica,sans-Serif" font-size="10.00">CodingEngine_ForTest.encoding</text>
<text text-anchor="middle" x="267" y="-226.5" font-family="Helvetica,sans-Serif" font-size="10.00">DecodingEqual</text>
</a>
</g>
</g>
<!-- Node2&#45;&gt;Node6 -->
<g id="edge4" class="edge"><title>Node2&#45;&gt;Node6</title>
<path fill="none" stroke="midnightblue" d="M159.042,-223.156C168.603,-224.662 178.324,-226.193 187.811,-227.687"/>
<polygon fill="midnightblue" stroke="midnightblue" points="159.575,-219.697 149.152,-221.599 158.486,-226.612 159.575,-219.697"/>
</g>
<!-- Node7 -->
<g id="node6" class="node"><title>Node7</title>
<g id="a_node6"><a xlink:href="../../d1/d97/classorg_1_1msrg_1_1raccoon_1_1engine_1_1CodingEngine__ForTest_aacd7e3e20d0cecfa66098d8143cf0503.html#aacd7e3e20d0cecfa66098d8143cf0503" target="_top" xlink:title="org.msrg.raccoon.engine.\lCodingEngine_ForTest.encoding\lReceivedEncodingDecodingEqual">
<polygon fill="none" stroke="black" points="185,-159.5 185,-200.5 349,-200.5 349,-159.5 185,-159.5"/>
<text text-anchor="start" x="193" y="-188.5" font-family="Helvetica,sans-Serif" font-size="10.00">org.msrg.raccoon.engine.</text>
<text text-anchor="start" x="193" y="-177.5" font-family="Helvetica,sans-Serif" font-size="10.00">CodingEngine_ForTest.encoding</text>
<text text-anchor="middle" x="267" y="-166.5" font-family="Helvetica,sans-Serif" font-size="10.00">ReceivedEncodingDecodingEqual</text>
</a>
</g>
</g>
<!-- Node2&#45;&gt;Node7 -->
<g id="edge5" class="edge"><title>Node2&#45;&gt;Node7</title>
<path fill="none" stroke="midnightblue" d="M159.139,-196.829C167.71,-195.479 176.409,-194.109 184.952,-192.763"/>
<polygon fill="midnightblue" stroke="midnightblue" points="158.486,-193.388 149.152,-198.401 159.575,-200.303 158.486,-193.388"/>
</g>
<!-- Node8 -->
<g id="node7" class="node"><title>Node8</title>
<g id="a_node7"><a xlink:href="../../d2/d9a/classorg_1_1msrg_1_1raccoon_1_1engine_1_1CodingEngineImpl_a433637d8d256085e4ebd9fe6113bbe2d.html#a433637d8d256085e4ebd9fe6113bbe2d" target="_top" xlink:title="org.msrg.raccoon.engine.\lCodingEngineImpl.inverse">
<polygon fill="none" stroke="black" points="201.5,-110 201.5,-140 332.5,-140 332.5,-110 201.5,-110"/>
<text text-anchor="start" x="209.5" y="-128" font-family="Helvetica,sans-Serif" font-size="10.00">org.msrg.raccoon.engine.</text>
<text text-anchor="middle" x="267" y="-117" font-family="Helvetica,sans-Serif" font-size="10.00">CodingEngineImpl.inverse</text>
</a>
</g>
</g>
<!-- Node2&#45;&gt;Node8 -->
<g id="edge6" class="edge"><title>Node2&#45;&gt;Node8</title>
<path fill="none" stroke="midnightblue" d="M108.237,-189.785C129.555,-177.199 158.274,-161.31 185,-150 193.539,-146.387 202.78,-143.038 211.862,-140.042"/>
<polygon fill="midnightblue" stroke="midnightblue" points="106.372,-186.822 99.5805,-194.954 109.961,-192.832 106.372,-186.822"/>
</g>
<!-- Node9 -->
<g id="node8" class="node"><title>Node9</title>
<g id="a_node8"><a xlink:href="../../d2/d9a/classorg_1_1msrg_1_1raccoon_1_1engine_1_1CodingEngineImpl_a7b9c2a2faa4f33ae47fbb6c37202f16a.html#a7b9c2a2faa4f33ae47fbb6c37202f16a" target="_top" xlink:title="org.msrg.raccoon.engine.\lCodingEngineImpl.multiply">
<polygon fill="none" stroke="black" points="200.5,-61 200.5,-91 333.5,-91 333.5,-61 200.5,-61"/>
<text text-anchor="start" x="208.5" y="-79" font-family="Helvetica,sans-Serif" font-size="10.00">org.msrg.raccoon.engine.</text>
<text text-anchor="middle" x="267" y="-68" font-family="Helvetica,sans-Serif" font-size="10.00">CodingEngineImpl.multiply</text>
</a>
</g>
</g>
<!-- Node2&#45;&gt;Node9 -->
<g id="edge7" class="edge"><title>Node2&#45;&gt;Node9</title>
<path fill="none" stroke="midnightblue" d="M93.2624,-186.531C113.088,-161.883 147.366,-123.622 185,-101 191.307,-97.2089 198.24,-93.945 205.314,-91.1471"/>
<polygon fill="midnightblue" stroke="midnightblue" points="90.316,-184.615 86.8708,-194.634 95.812,-188.951 90.316,-184.615"/>
</g>
<!-- Node10 -->
<g id="node9" class="node"><title>Node10</title>
<g id="a_node9"><a xlink:href="../../d1/d97/classorg_1_1msrg_1_1raccoon_1_1engine_1_1CodingEngine__ForTest_a57ccf753121a25de0f2391daa70d28ae.html#a57ccf753121a25de0f2391daa70d28ae" target="_top" xlink:title="org.msrg.raccoon.engine.\lCodingEngine_ForTest.multiply\lInverseMultiplyEqual">
<polygon fill="none" stroke="black" points="190.5,-0.5 190.5,-41.5 343.5,-41.5 343.5,-0.5 190.5,-0.5"/>
<text text-anchor="start" x="198.5" y="-29.5" font-family="Helvetica,sans-Serif" font-size="10.00">org.msrg.raccoon.engine.</text>
<text text-anchor="start" x="198.5" y="-18.5" font-family="Helvetica,sans-Serif" font-size="10.00">CodingEngine_ForTest.multiply</text>
<text text-anchor="middle" x="267" y="-7.5" font-family="Helvetica,sans-Serif" font-size="10.00">InverseMultiplyEqual</text>
</a>
</g>
</g>
<!-- Node2&#45;&gt;Node10 -->
<g id="edge8" class="edge"><title>Node2&#45;&gt;Node10</title>
<path fill="none" stroke="midnightblue" d="M86.6734,-185.372C103.425,-151.001 138.155,-88.7439 185,-52 189.976,-48.097 195.499,-44.6403 201.257,-41.5884"/>
<polygon fill="midnightblue" stroke="midnightblue" points="83.3788,-184.15 82.2436,-194.684 89.7001,-187.157 83.3788,-184.15"/>
</g>
</g>
</svg>
