<?xml version="1.0" encoding="UTF-8" standalone="no"?>
<!DOCTYPE svg PUBLIC "-//W3C//DTD SVG 1.1//EN"
 "http://www.w3.org/Graphics/SVG/1.1/DTD/svg11.dtd">
<!-- Generated by graphviz version 2.38.0 (20140413.2041)
 -->
<!-- Title: org.msrg.raccoon.engine.task.CodingId.getNewCodingId Pages: 1 -->
<svg width="357pt" height="414pt"
 viewBox="0.00 0.00 357.00 413.50" xmlns="http://www.w3.org/2000/svg" xmlns:xlink="http://www.w3.org/1999/xlink">
<g id="graph0" class="graph" transform="scale(1 1) rotate(0) translate(4 409.5)">
<title>org.msrg.raccoon.engine.task.CodingId.getNewCodingId</title>
<!-- Node1 -->
<g id="node1" class="node"><title>Node1</title>
<polygon fill="#bfbfbf" stroke="black" points="0,-193 0,-223 149,-223 149,-193 0,-193"/>
<text text-anchor="start" x="8" y="-211" font-family="Helvetica,sans-Serif" font-size="10.00">org.msrg.raccoon.engine.task.</text>
<text text-anchor="middle" x="74.5" y="-200" font-family="Helvetica,sans-Serif" font-size="10.00">CodingId.getNewCodingId</text>
</g>
<!-- Node2 -->
<g id="node2" class="node"><title>Node2</title>
<g id="a_node2"><a xlink:href="../../d2/d9a/classorg_1_1msrg_1_1raccoon_1_1engine_1_1CodingEngineImpl_a7ab11be64f817946f2d11961b00cd2db.html#a7ab11be64f817946f2d11961b00cd2db" target="_top" xlink:title="org.msrg.raccoon.engine.\lCodingEngineImpl.checkEquality">
<polygon fill="none" stroke="black" points="186.5,-375 186.5,-405 347.5,-405 347.5,-375 186.5,-375"/>
<text text-anchor="start" x="194.5" y="-393" font-family="Helvetica,sans-Serif" font-size="10.00">org.msrg.raccoon.engine.</text>
<text text-anchor="middle" x="267" y="-382" font-family="Helvetica,sans-Serif" font-size="10.00">CodingEngineImpl.checkEquality</text>
</a>
</g>
</g>
<!-- Node1&#45;&gt;Node2 -->
<g id="edge1" class="edge"><title>Node1&#45;&gt;Node2</title>
<path fill="none" stroke="midnightblue" d="M86.0428,-232.603C102.236,-267.472 136.521,-330.92 185,-366 189.753,-369.439 194.998,-372.39 200.466,-374.92"/>
<polygon fill="midnightblue" stroke="midnightblue" points="89.0867,-230.839 81.7801,-223.167 82.7074,-233.721 89.0867,-230.839"/>
</g>
<!-- Node3 -->
<g id="node3" class="node"><title>Node3</title>
<g id="a_node3"><a xlink:href="../../d2/d9a/classorg_1_1msrg_1_1raccoon_1_1engine_1_1CodingEngineImpl_a68d8add21019606803f824ab9a0e16b2.html#a68d8add21019606803f824ab9a0e16b2" target="_top" xlink:title="org.msrg.raccoon.engine.\lCodingEngineImpl.decode">
<polygon fill="none" stroke="black" points="201.5,-326 201.5,-356 332.5,-356 332.5,-326 201.5,-326"/>
<text text-anchor="start" x="209.5" y="-344" font-family="Helvetica,sans-Serif" font-size="10.00">org.msrg.raccoon.engine.</text>
<text text-anchor="middle" x="267" y="-333" font-family="Helvetica,sans-Serif" font-size="10.00">CodingEngineImpl.decode</text>
</a>
</g>
</g>
<!-- Node1&#45;&gt;Node3 -->
<g id="edge2" class="edge"><title>Node1&#45;&gt;Node3</title>
<path fill="none" stroke="midnightblue" d="M92.8897,-231.148C112.622,-255.852 147.032,-294.469 185,-317 190.802,-320.443 197.134,-323.424 203.619,-325.997"/>
<polygon fill="midnightblue" stroke="midnightblue" points="95.4613,-228.755 86.5405,-223.039 89.9499,-233.07 95.4613,-228.755"/>
</g>
<!-- Node4 -->
<g id="node4" class="node"><title>Node4</title>
<g id="a_node4"><a xlink:href="../../d2/d9a/classorg_1_1msrg_1_1raccoon_1_1engine_1_1CodingEngineImpl_a6be80b856b9185ab93b5e9921844481e.html#a6be80b856b9185ab93b5e9921844481e" target="_top" xlink:title="org.msrg.raccoon.engine.\lCodingEngineImpl.encode">
<polygon fill="none" stroke="black" points="201.5,-277 201.5,-307 332.5,-307 332.5,-277 201.5,-277"/>
<text text-anchor="start" x="209.5" y="-295" font-family="Helvetica,sans-Serif" font-size="10.00">org.msrg.raccoon.engine.</text>
<text text-anchor="middle" x="267" y="-284" font-family="Helvetica,sans-Serif" font-size="10.00">CodingEngineImpl.encode</text>
</a>
</g>
</g>
<!-- Node1&#45;&gt;Node4 -->
<g id="edge3" class="edge"><title>Node1&#45;&gt;Node4</title>
<path fill="none" stroke="midnightblue" d="M108.193,-228.318C129.494,-240.945 158.21,-256.842 185,-268 192.717,-271.214 201.014,-274.187 209.249,-276.867"/>
<polygon fill="midnightblue" stroke="midnightblue" points="109.921,-225.273 99.5452,-223.13 106.32,-231.276 109.921,-225.273"/>
</g>
<!-- Node5 -->
<g id="node5" class="node"><title>Node5</title>
<g id="a_node5"><a xlink:href="../../d1/d97/classorg_1_1msrg_1_1raccoon_1_1engine_1_1CodingEngine__ForTest_abdedecf33e51af4a2031d2328a881c8a.html#abdedecf33e51af4a2031d2328a881c8a" target="_top" xlink:title="org.msrg.raccoon.engine.\lCodingEngine_ForTest.encoding\lDecodingEqual">
<polygon fill="none" stroke="black" points="188,-217.5 188,-258.5 346,-258.5 346,-217.5 188,-217.5"/>
<text text-anchor="start" x="196" y="-246.5" font-family="Helvetica,sans-Serif" font-size="10.00">org.msrg.raccoon.engine.</text>
<text text-anchor="start" x="196" y="-235.5" font-family="Helvetica,sans-Serif" font-size="10.00">CodingEngine_ForTest.encoding</text>
<text text-anchor="middle" x="267" y="-224.5" font-family="Helvetica,sans-Serif" font-size="10.00">DecodingEqual</text>
</a>
</g>
</g>
<!-- Node1&#45;&gt;Node5 -->
<g id="edge4" class="edge"><title>Node1&#45;&gt;Node5</title>
<path fill="none" stroke="midnightblue" d="M159.042,-221.156C168.603,-222.662 178.324,-224.193 187.811,-225.687"/>
<polygon fill="midnightblue" stroke="midnightblue" points="159.575,-217.697 149.152,-219.599 158.486,-224.612 159.575,-217.697"/>
</g>
<!-- Node6 -->
<g id="node6" class="node"><title>Node6</title>
<g id="a_node6"><a xlink:href="../../d1/d97/classorg_1_1msrg_1_1raccoon_1_1engine_1_1CodingEngine__ForTest_aacd7e3e20d0cecfa66098d8143cf0503.html#aacd7e3e20d0cecfa66098d8143cf0503" target="_top" xlink:title="org.msrg.raccoon.engine.\lCodingEngine_ForTest.encoding\lReceivedEncodingDecodingEqual">
<polygon fill="none" stroke="black" points="185,-157.5 185,-198.5 349,-198.5 349,-157.5 185,-157.5"/>
<text text-anchor="start" x="193" y="-186.5" font-family="Helvetica,sans-Serif" font-size="10.00">org.msrg.raccoon.engine.</text>
<text text-anchor="start" x="193" y="-175.5" font-family="Helvetica,sans-Serif" font-size="10.00">CodingEngine_ForTest.encoding</text>
<text text-anchor="middle" x="267" y="-164.5" font-family="Helvetica,sans-Serif" font-size="10.00">ReceivedEncodingDecodingEqual</text>
</a>
</g>
</g>
<!-- Node1&#45;&gt;Node6 -->
<g id="edge5" class="edge"><title>Node1&#45;&gt;Node6</title>
<path fill="none" stroke="midnightblue" d="M159.139,-194.829C167.71,-193.479 176.409,-192.109 184.952,-190.763"/>
<polygon fill="midnightblue" stroke="midnightblue" points="158.486,-191.388 149.152,-196.401 159.575,-198.303 158.486,-191.388"/>
</g>
<!-- Node7 -->
<g id="node7" class="node"><title>Node7</title>
<g id="a_node7"><a xlink:href="../../d2/d9a/classorg_1_1msrg_1_1raccoon_1_1engine_1_1CodingEngineImpl_a433637d8d256085e4ebd9fe6113bbe2d.html#a433637d8d256085e4ebd9fe6113bbe2d" target="_top" xlink:title="org.msrg.raccoon.engine.\lCodingEngineImpl.inverse">
<polygon fill="none" stroke="black" points="201.5,-109 201.5,-139 332.5,-139 332.5,-109 201.5,-109"/>
<text text-anchor="start" x="209.5" y="-127" font-family="Helvetica,sans-Serif" font-size="10.00">org.msrg.raccoon.engine.</text>
<text text-anchor="middle" x="267" y="-116" font-family="Helvetica,sans-Serif" font-size="10.00">CodingEngineImpl.inverse</text>
</a>
</g>
</g>
<!-- Node1&#45;&gt;Node7 -->
<g id="edge6" class="edge"><title>Node1&#45;&gt;Node7</title>
<path fill="none" stroke="midnightblue" d="M108.193,-187.682C129.494,-175.055 158.21,-159.158 185,-148 192.717,-144.786 201.014,-141.813 209.249,-139.133"/>
<polygon fill="midnightblue" stroke="midnightblue" points="106.32,-184.724 99.5452,-192.87 109.921,-190.727 106.32,-184.724"/>
</g>
<!-- Node8 -->
<g id="node8" class="node"><title>Node8</title>
<g id="a_node8"><a xlink:href="../../d2/d9a/classorg_1_1msrg_1_1raccoon_1_1engine_1_1CodingEngineImpl_a7b9c2a2faa4f33ae47fbb6c37202f16a.html#a7b9c2a2faa4f33ae47fbb6c37202f16a" target="_top" xlink:title="org.msrg.raccoon.engine.\lCodingEngineImpl.multiply">
<polygon fill="none" stroke="black" points="200.5,-60 200.5,-90 333.5,-90 333.5,-60 200.5,-60"/>
<text text-anchor="start" x="208.5" y="-78" font-family="Helvetica,sans-Serif" font-size="10.00">org.msrg.raccoon.engine.</text>
<text text-anchor="middle" x="267" y="-67" font-family="Helvetica,sans-Serif" font-size="10.00">CodingEngineImpl.multiply</text>
</a>
</g>
</g>
<!-- Node1&#45;&gt;Node8 -->
<g id="edge7" class="edge"><title>Node1&#45;&gt;Node8</title>
<path fill="none" stroke="midnightblue" d="M93.3091,-184.754C113.174,-160.337 147.486,-122.433 185,-100 191.442,-96.1479 198.532,-92.8384 205.756,-90.0083"/>
<polygon fill="midnightblue" stroke="midnightblue" points="90.4056,-182.781 86.9034,-192.78 95.8768,-187.147 90.4056,-182.781"/>
</g>
<!-- Node9 -->
<g id="node9" class="node"><title>Node9</title>
<g id="a_node9"><a xlink:href="../../d1/d97/classorg_1_1msrg_1_1raccoon_1_1engine_1_1CodingEngine__ForTest_a57ccf753121a25de0f2391daa70d28ae.html#a57ccf753121a25de0f2391daa70d28ae" target="_top" xlink:title="org.msrg.raccoon.engine.\lCodingEngine_ForTest.multiply\lInverseMultiplyEqual">
<polygon fill="none" stroke="black" points="190.5,-0.5 190.5,-41.5 343.5,-41.5 343.5,-0.5 190.5,-0.5"/>
<text text-anchor="start" x="198.5" y="-29.5" font-family="Helvetica,sans-Serif" font-size="10.00">org.msrg.raccoon.engine.</text>
<text text-anchor="start" x="198.5" y="-18.5" font-family="Helvetica,sans-Serif" font-size="10.00">CodingEngine_ForTest.multiply</text>
<text text-anchor="middle" x="267" y="-7.5" font-family="Helvetica,sans-Serif" font-size="10.00">InverseMultiplyEqual</text>
</a>
</g>
</g>
<!-- Node1&#45;&gt;Node9 -->
<g id="edge8" class="edge"><title>Node1&#45;&gt;Node9</title>
<path fill="none" stroke="midnightblue" d="M86.6593,-183.46C103.394,-149.225 138.104,-87.2645 185,-51 189.508,-47.5141 194.462,-44.402 199.631,-41.6297"/>
<polygon fill="midnightblue" stroke="midnightblue" points="83.3808,-182.203 82.2344,-192.736 89.6988,-185.217 83.3808,-182.203"/>
</g>
</g>
</svg>
