<?xml version="1.0" encoding="UTF-8" standalone="no"?>
<!DOCTYPE svg PUBLIC "-//W3C//DTD SVG 1.1//EN"
 "http://www.w3.org/Graphics/SVG/1.1/DTD/svg11.dtd">
<!-- Generated by graphviz version 2.38.0 (20140413.2041)
 -->
<!-- Title: org.msrg.raccoon.engine.task.CodingId.CodingId Pages: 1 -->
<svg width="542pt" height="414pt"
 viewBox="0.00 0.00 542.00 413.50" xmlns="http://www.w3.org/2000/svg" xmlns:xlink="http://www.w3.org/1999/xlink">
<g id="graph0" class="graph" transform="scale(1 1) rotate(0) translate(4 409.5)">
<title>org.msrg.raccoon.engine.task.CodingId.CodingId</title>
<!-- Node1 -->
<g id="node1" class="node"><title>Node1</title>
<polygon fill="#bfbfbf" stroke="black" points="0,-217 0,-247 149,-247 149,-217 0,-217"/>
<text text-anchor="start" x="8" y="-235" font-family="Helvetica,sans-Serif" font-size="10.00">org.msrg.raccoon.engine.task.</text>
<text text-anchor="middle" x="74.5" y="-224" font-family="Helvetica,sans-Serif" font-size="10.00">CodingId.CodingId</text>
</g>
<!-- Node2 -->
<g id="node2" class="node"><title>Node2</title>
<g id="a_node2"><a xlink:href="../../d5/d15/classorg_1_1msrg_1_1raccoon_1_1engine_1_1task_1_1CodingId_aaf53638957ae9b8576a6bc2d76704e3f.html#aaf53638957ae9b8576a6bc2d76704e3f" target="_top" xlink:title="org.msrg.raccoon.engine.task.\lCodingId.equals">
<polygon fill="none" stroke="black" points="185,-242 185,-272 334,-272 334,-242 185,-242"/>
<text text-anchor="start" x="193" y="-260" font-family="Helvetica,sans-Serif" font-size="10.00">org.msrg.raccoon.engine.task.</text>
<text text-anchor="middle" x="259.5" y="-249" font-family="Helvetica,sans-Serif" font-size="10.00">CodingId.equals</text>
</a>
</g>
</g>
<!-- Node1&#45;&gt;Node2 -->
<g id="edge1" class="edge"><title>Node1&#45;&gt;Node2</title>
<path fill="none" stroke="midnightblue" d="M159.109,-243.422C167.651,-244.589 176.285,-245.768 184.711,-246.919"/>
<polygon fill="midnightblue" stroke="midnightblue" points="159.524,-239.946 149.142,-242.06 158.576,-246.882 159.524,-239.946"/>
</g>
<!-- Node3 -->
<g id="node3" class="node"><title>Node3</title>
<g id="a_node3"><a xlink:href="../../d5/d15/classorg_1_1msrg_1_1raccoon_1_1engine_1_1task_1_1CodingId_a6ba7d662d6e68c8ae2c6d59bdb84aa4d.html#a6ba7d662d6e68c8ae2c6d59bdb84aa4d" target="_top" xlink:title="org.msrg.raccoon.engine.task.\lCodingId.getNewCodingId">
<polygon fill="none" stroke="black" points="185,-193 185,-223 334,-223 334,-193 185,-193"/>
<text text-anchor="start" x="193" y="-211" font-family="Helvetica,sans-Serif" font-size="10.00">org.msrg.raccoon.engine.task.</text>
<text text-anchor="middle" x="259.5" y="-200" font-family="Helvetica,sans-Serif" font-size="10.00">CodingId.getNewCodingId</text>
</a>
</g>
</g>
<!-- Node1&#45;&gt;Node3 -->
<g id="edge2" class="edge"><title>Node1&#45;&gt;Node3</title>
<path fill="none" stroke="midnightblue" d="M159.109,-221.035C167.651,-219.915 176.285,-218.782 184.711,-217.677"/>
<polygon fill="midnightblue" stroke="midnightblue" points="158.602,-217.571 149.142,-222.342 159.512,-224.512 158.602,-217.571"/>
</g>
<!-- Node4 -->
<g id="node4" class="node"><title>Node4</title>
<g id="a_node4"><a xlink:href="../../d2/d9a/classorg_1_1msrg_1_1raccoon_1_1engine_1_1CodingEngineImpl_a7ab11be64f817946f2d11961b00cd2db.html#a7ab11be64f817946f2d11961b00cd2db" target="_top" xlink:title="org.msrg.raccoon.engine.\lCodingEngineImpl.checkEquality">
<polygon fill="none" stroke="black" points="371.5,-375 371.5,-405 532.5,-405 532.5,-375 371.5,-375"/>
<text text-anchor="start" x="379.5" y="-393" font-family="Helvetica,sans-Serif" font-size="10.00">org.msrg.raccoon.engine.</text>
<text text-anchor="middle" x="452" y="-382" font-family="Helvetica,sans-Serif" font-size="10.00">CodingEngineImpl.checkEquality</text>
</a>
</g>
</g>
<!-- Node3&#45;&gt;Node4 -->
<g id="edge3" class="edge"><title>Node3&#45;&gt;Node4</title>
<path fill="none" stroke="midnightblue" d="M330.085,-229.252C331.455,-230.434 332.764,-231.682 334,-233 375.905,-277.655 327.214,-322.188 370,-366 373.382,-369.463 377.237,-372.432 381.389,-374.976"/>
<polygon fill="midnightblue" stroke="midnightblue" points="331.808,-226.179 321.649,-223.174 327.716,-231.859 331.808,-226.179"/>
</g>
<!-- Node5 -->
<g id="node5" class="node"><title>Node5</title>
<g id="a_node5"><a xlink:href="../../d2/d9a/classorg_1_1msrg_1_1raccoon_1_1engine_1_1CodingEngineImpl_a68d8add21019606803f824ab9a0e16b2.html#a68d8add21019606803f824ab9a0e16b2" target="_top" xlink:title="org.msrg.raccoon.engine.\lCodingEngineImpl.decode">
<polygon fill="none" stroke="black" points="386.5,-326 386.5,-356 517.5,-356 517.5,-326 386.5,-326"/>
<text text-anchor="start" x="394.5" y="-344" font-family="Helvetica,sans-Serif" font-size="10.00">org.msrg.raccoon.engine.</text>
<text text-anchor="middle" x="452" y="-333" font-family="Helvetica,sans-Serif" font-size="10.00">CodingEngineImpl.decode</text>
</a>
</g>
</g>
<!-- Node3&#45;&gt;Node5 -->
<g id="edge4" class="edge"><title>Node3&#45;&gt;Node5</title>
<path fill="none" stroke="midnightblue" d="M328.654,-228.599C330.523,-229.973 332.312,-231.438 334,-233 363.806,-260.594 339.651,-290.005 370,-317 374.822,-321.289 380.379,-324.813 386.276,-327.707"/>
<polygon fill="midnightblue" stroke="midnightblue" points="330.33,-225.518 320.006,-223.14 326.594,-231.437 330.33,-225.518"/>
</g>
<!-- Node6 -->
<g id="node6" class="node"><title>Node6</title>
<g id="a_node6"><a xlink:href="../../d2/d9a/classorg_1_1msrg_1_1raccoon_1_1engine_1_1CodingEngineImpl_a6be80b856b9185ab93b5e9921844481e.html#a6be80b856b9185ab93b5e9921844481e" target="_top" xlink:title="org.msrg.raccoon.engine.\lCodingEngineImpl.encode">
<polygon fill="none" stroke="black" points="386.5,-277 386.5,-307 517.5,-307 517.5,-277 386.5,-277"/>
<text text-anchor="start" x="394.5" y="-295" font-family="Helvetica,sans-Serif" font-size="10.00">org.msrg.raccoon.engine.</text>
<text text-anchor="middle" x="452" y="-284" font-family="Helvetica,sans-Serif" font-size="10.00">CodingEngineImpl.encode</text>
</a>
</g>
</g>
<!-- Node3&#45;&gt;Node6 -->
<g id="edge5" class="edge"><title>Node3&#45;&gt;Node6</title>
<path fill="none" stroke="midnightblue" d="M323.323,-227.198C327.017,-228.989 330.606,-230.921 334,-233 353.029,-244.656 350.743,-256.725 370,-268 375.822,-271.409 382.167,-274.368 388.66,-276.928"/>
<polygon fill="midnightblue" stroke="midnightblue" points="324.534,-223.906 313.976,-223.031 321.684,-230.299 324.534,-223.906"/>
</g>
<!-- Node7 -->
<g id="node7" class="node"><title>Node7</title>
<g id="a_node7"><a xlink:href="../../d1/d97/classorg_1_1msrg_1_1raccoon_1_1engine_1_1CodingEngine__ForTest_abdedecf33e51af4a2031d2328a881c8a.html#abdedecf33e51af4a2031d2328a881c8a" target="_top" xlink:title="org.msrg.raccoon.engine.\lCodingEngine_ForTest.encoding\lDecodingEqual">
<polygon fill="none" stroke="black" points="373,-217.5 373,-258.5 531,-258.5 531,-217.5 373,-217.5"/>
<text text-anchor="start" x="381" y="-246.5" font-family="Helvetica,sans-Serif" font-size="10.00">org.msrg.raccoon.engine.</text>
<text text-anchor="start" x="381" y="-235.5" font-family="Helvetica,sans-Serif" font-size="10.00">CodingEngine_ForTest.encoding</text>
<text text-anchor="middle" x="452" y="-224.5" font-family="Helvetica,sans-Serif" font-size="10.00">DecodingEqual</text>
</a>
</g>
</g>
<!-- Node3&#45;&gt;Node7 -->
<g id="edge6" class="edge"><title>Node3&#45;&gt;Node7</title>
<path fill="none" stroke="midnightblue" d="M344.042,-221.156C353.603,-222.662 363.324,-224.193 372.811,-225.687"/>
<polygon fill="midnightblue" stroke="midnightblue" points="344.575,-217.697 334.152,-219.599 343.486,-224.612 344.575,-217.697"/>
</g>
<!-- Node8 -->
<g id="node8" class="node"><title>Node8</title>
<g id="a_node8"><a xlink:href="../../d1/d97/classorg_1_1msrg_1_1raccoon_1_1engine_1_1CodingEngine__ForTest_aacd7e3e20d0cecfa66098d8143cf0503.html#aacd7e3e20d0cecfa66098d8143cf0503" target="_top" xlink:title="org.msrg.raccoon.engine.\lCodingEngine_ForTest.encoding\lReceivedEncodingDecodingEqual">
<polygon fill="none" stroke="black" points="370,-157.5 370,-198.5 534,-198.5 534,-157.5 370,-157.5"/>
<text text-anchor="start" x="378" y="-186.5" font-family="Helvetica,sans-Serif" font-size="10.00">org.msrg.raccoon.engine.</text>
<text text-anchor="start" x="378" y="-175.5" font-family="Helvetica,sans-Serif" font-size="10.00">CodingEngine_ForTest.encoding</text>
<text text-anchor="middle" x="452" y="-164.5" font-family="Helvetica,sans-Serif" font-size="10.00">ReceivedEncodingDecodingEqual</text>
</a>
</g>
</g>
<!-- Node3&#45;&gt;Node8 -->
<g id="edge7" class="edge"><title>Node3&#45;&gt;Node8</title>
<path fill="none" stroke="midnightblue" d="M344.139,-194.829C352.71,-193.479 361.409,-192.109 369.952,-190.763"/>
<polygon fill="midnightblue" stroke="midnightblue" points="343.486,-191.388 334.152,-196.401 344.575,-198.303 343.486,-191.388"/>
</g>
<!-- Node9 -->
<g id="node9" class="node"><title>Node9</title>
<g id="a_node9"><a xlink:href="../../d2/d9a/classorg_1_1msrg_1_1raccoon_1_1engine_1_1CodingEngineImpl_a433637d8d256085e4ebd9fe6113bbe2d.html#a433637d8d256085e4ebd9fe6113bbe2d" target="_top" xlink:title="org.msrg.raccoon.engine.\lCodingEngineImpl.inverse">
<polygon fill="none" stroke="black" points="386.5,-109 386.5,-139 517.5,-139 517.5,-109 386.5,-109"/>
<text text-anchor="start" x="394.5" y="-127" font-family="Helvetica,sans-Serif" font-size="10.00">org.msrg.raccoon.engine.</text>
<text text-anchor="middle" x="452" y="-116" font-family="Helvetica,sans-Serif" font-size="10.00">CodingEngineImpl.inverse</text>
</a>
</g>
</g>
<!-- Node3&#45;&gt;Node9 -->
<g id="edge8" class="edge"><title>Node3&#45;&gt;Node9</title>
<path fill="none" stroke="midnightblue" d="M293.193,-187.682C314.494,-175.055 343.21,-159.158 370,-148 377.717,-144.786 386.014,-141.813 394.249,-139.133"/>
<polygon fill="midnightblue" stroke="midnightblue" points="291.32,-184.724 284.545,-192.87 294.921,-190.727 291.32,-184.724"/>
</g>
<!-- Node10 -->
<g id="node10" class="node"><title>Node10</title>
<g id="a_node10"><a xlink:href="../../d2/d9a/classorg_1_1msrg_1_1raccoon_1_1engine_1_1CodingEngineImpl_a7b9c2a2faa4f33ae47fbb6c37202f16a.html#a7b9c2a2faa4f33ae47fbb6c37202f16a" target="_top" xlink:title="org.msrg.raccoon.engine.\lCodingEngineImpl.multiply">
<polygon fill="none" stroke="black" points="385.5,-60 385.5,-90 518.5,-90 518.5,-60 385.5,-60"/>
<text text-anchor="start" x="393.5" y="-78" font-family="Helvetica,sans-Serif" font-size="10.00">org.msrg.raccoon.engine.</text>
<text text-anchor="middle" x="452" y="-67" font-family="Helvetica,sans-Serif" font-size="10.00">CodingEngineImpl.multiply</text>
</a>
</g>
</g>
<!-- Node3&#45;&gt;Node10 -->
<g id="edge9" class="edge"><title>Node3&#45;&gt;Node10</title>
<path fill="none" stroke="midnightblue" d="M278.309,-184.754C298.174,-160.337 332.486,-122.433 370,-100 376.442,-96.1479 383.532,-92.8384 390.756,-90.0083"/>
<polygon fill="midnightblue" stroke="midnightblue" points="275.406,-182.781 271.903,-192.78 280.877,-187.147 275.406,-182.781"/>
</g>
<!-- Node11 -->
<g id="node11" class="node"><title>Node11</title>
<g id="a_node11"><a xlink:href="../../d1/d97/classorg_1_1msrg_1_1raccoon_1_1engine_1_1CodingEngine__ForTest_a57ccf753121a25de0f2391daa70d28ae.html#a57ccf753121a25de0f2391daa70d28ae" target="_top" xlink:title="org.msrg.raccoon.engine.\lCodingEngine_ForTest.multiply\lInverseMultiplyEqual">
<polygon fill="none" stroke="black" points="375.5,-0.5 375.5,-41.5 528.5,-41.5 528.5,-0.5 375.5,-0.5"/>
<text text-anchor="start" x="383.5" y="-29.5" font-family="Helvetica,sans-Serif" font-size="10.00">org.msrg.raccoon.engine.</text>
<text text-anchor="start" x="383.5" y="-18.5" font-family="Helvetica,sans-Serif" font-size="10.00">CodingEngine_ForTest.multiply</text>
<text text-anchor="middle" x="452" y="-7.5" font-family="Helvetica,sans-Serif" font-size="10.00">InverseMultiplyEqual</text>
</a>
</g>
</g>
<!-- Node3&#45;&gt;Node11 -->
<g id="edge10" class="edge"><title>Node3&#45;&gt;Node11</title>
<path fill="none" stroke="midnightblue" d="M271.659,-183.46C288.394,-149.225 323.104,-87.2645 370,-51 374.508,-47.5141 379.462,-44.402 384.631,-41.6297"/>
<polygon fill="midnightblue" stroke="midnightblue" points="268.381,-182.203 267.234,-192.736 274.699,-185.217 268.381,-182.203"/>
</g>
</g>
</svg>
