<?xml version="1.0" encoding="UTF-8" standalone="no"?>
<!DOCTYPE svg PUBLIC "-//W3C//DTD SVG 1.1//EN"
 "http://www.w3.org/Graphics/SVG/1.1/DTD/svg11.dtd">
<!-- Generated by graphviz version 2.38.0 (20140413.2041)
 -->
<!-- Title: org.msrg.raccoon.engine.task.CodingId.CodingId Pages: 1 -->
<svg width="542pt" height="417pt"
 viewBox="0.00 0.00 542.00 416.50" xmlns="http://www.w3.org/2000/svg" xmlns:xlink="http://www.w3.org/1999/xlink">
<g id="graph0" class="graph" transform="scale(1 1) rotate(0) translate(4 412.5)">
<title>org.msrg.raccoon.engine.task.CodingId.CodingId</title>
<!-- Node1 -->
<g id="node1" class="node"><title>Node1</title>
<polygon fill="#bfbfbf" stroke="black" points="0,-219 0,-249 149,-249 149,-219 0,-219"/>
<text text-anchor="start" x="8" y="-237" font-family="Helvetica,sans-Serif" font-size="10.00">org.msrg.raccoon.engine.task.</text>
<text text-anchor="middle" x="74.5" y="-226" font-family="Helvetica,sans-Serif" font-size="10.00">CodingId.CodingId</text>
</g>
<!-- Node2 -->
<g id="node2" class="node"><title>Node2</title>
<g id="a_node2"><a xlink:href="../../d5/d15/classorg_1_1msrg_1_1raccoon_1_1engine_1_1task_1_1CodingId_aaf53638957ae9b8576a6bc2d76704e3f.html#aaf53638957ae9b8576a6bc2d76704e3f" target="_top" xlink:title="org.msrg.raccoon.engine.task.\lCodingId.equals">
<polygon fill="none" stroke="black" points="185,-244 185,-274 334,-274 334,-244 185,-244"/>
<text text-anchor="start" x="193" y="-262" font-family="Helvetica,sans-Serif" font-size="10.00">org.msrg.raccoon.engine.task.</text>
<text text-anchor="middle" x="259.5" y="-251" font-family="Helvetica,sans-Serif" font-size="10.00">CodingId.equals</text>
</a>
</g>
</g>
<!-- Node1&#45;&gt;Node2 -->
<g id="edge1" class="edge"><title>Node1&#45;&gt;Node2</title>
<path fill="none" stroke="midnightblue" d="M159.109,-245.422C167.651,-246.589 176.285,-247.768 184.711,-248.919"/>
<polygon fill="midnightblue" stroke="midnightblue" points="159.524,-241.946 149.142,-244.06 158.576,-248.882 159.524,-241.946"/>
</g>
<!-- Node3 -->
<g id="node3" class="node"><title>Node3</title>
<g id="a_node3"><a xlink:href="../../d5/d15/classorg_1_1msrg_1_1raccoon_1_1engine_1_1task_1_1CodingId_a6ba7d662d6e68c8ae2c6d59bdb84aa4d.html#a6ba7d662d6e68c8ae2c6d59bdb84aa4d" target="_top" xlink:title="org.msrg.raccoon.engine.task.\lCodingId.getNewCodingId">
<polygon fill="none" stroke="black" points="185,-195 185,-225 334,-225 334,-195 185,-195"/>
<text text-anchor="start" x="193" y="-213" font-family="Helvetica,sans-Serif" font-size="10.00">org.msrg.raccoon.engine.task.</text>
<text text-anchor="middle" x="259.5" y="-202" font-family="Helvetica,sans-Serif" font-size="10.00">CodingId.getNewCodingId</text>
</a>
</g>
</g>
<!-- Node1&#45;&gt;Node3 -->
<g id="edge2" class="edge"><title>Node1&#45;&gt;Node3</title>
<path fill="none" stroke="midnightblue" d="M159.109,-223.035C167.651,-221.915 176.285,-220.782 184.711,-219.677"/>
<polygon fill="midnightblue" stroke="midnightblue" points="158.602,-219.571 149.142,-224.342 159.512,-226.512 158.602,-219.571"/>
</g>
<!-- Node4 -->
<g id="node4" class="node"><title>Node4</title>
<g id="a_node4"><a xlink:href="../../d2/d9a/classorg_1_1msrg_1_1raccoon_1_1engine_1_1CodingEngineImpl_a7ab11be64f817946f2d11961b00cd2db.html#a7ab11be64f817946f2d11961b00cd2db" target="_top" xlink:title="org.msrg.raccoon.engine.\lCodingEngineImpl.checkEquality">
<polygon fill="none" stroke="black" points="371.5,-378 371.5,-408 532.5,-408 532.5,-378 371.5,-378"/>
<text text-anchor="start" x="379.5" y="-396" font-family="Helvetica,sans-Serif" font-size="10.00">org.msrg.raccoon.engine.</text>
<text text-anchor="middle" x="452" y="-385" font-family="Helvetica,sans-Serif" font-size="10.00">CodingEngineImpl.checkEquality</text>
</a>
</g>
</g>
<!-- Node3&#45;&gt;Node4 -->
<g id="edge3" class="edge"><title>Node3&#45;&gt;Node4</title>
<path fill="none" stroke="midnightblue" d="M330.089,-231.249C331.457,-232.432 332.765,-233.681 334,-235 376.156,-280.008 326.956,-324.84 370,-369 373.378,-372.466 377.232,-375.437 381.381,-377.984"/>
<polygon fill="midnightblue" stroke="midnightblue" points="331.814,-228.178 321.656,-225.166 327.719,-233.855 331.814,-228.178"/>
</g>
<!-- Node5 -->
<g id="node5" class="node"><title>Node5</title>
<g id="a_node5"><a xlink:href="../../d2/d9a/classorg_1_1msrg_1_1raccoon_1_1engine_1_1CodingEngineImpl_a68d8add21019606803f824ab9a0e16b2.html#a68d8add21019606803f824ab9a0e16b2" target="_top" xlink:title="org.msrg.raccoon.engine.\lCodingEngineImpl.decode">
<polygon fill="none" stroke="black" points="386.5,-329 386.5,-359 517.5,-359 517.5,-329 386.5,-329"/>
<text text-anchor="start" x="394.5" y="-347" font-family="Helvetica,sans-Serif" font-size="10.00">org.msrg.raccoon.engine.</text>
<text text-anchor="middle" x="452" y="-336" font-family="Helvetica,sans-Serif" font-size="10.00">CodingEngineImpl.decode</text>
</a>
</g>
</g>
<!-- Node3&#45;&gt;Node5 -->
<g id="edge4" class="edge"><title>Node3&#45;&gt;Node5</title>
<path fill="none" stroke="midnightblue" d="M328.662,-230.589C330.53,-231.966 332.316,-233.434 334,-235 364.046,-262.936 339.404,-292.668 370,-320 374.813,-324.299 380.364,-327.83 386.257,-330.729"/>
<polygon fill="midnightblue" stroke="midnightblue" points="330.345,-227.512 320.023,-225.121 326.601,-233.427 330.345,-227.512"/>
</g>
<!-- Node6 -->
<g id="node6" class="node"><title>Node6</title>
<g id="a_node6"><a xlink:href="../../d2/d9a/classorg_1_1msrg_1_1raccoon_1_1engine_1_1CodingEngineImpl_a6be80b856b9185ab93b5e9921844481e.html#a6be80b856b9185ab93b5e9921844481e" target="_top" xlink:title="org.msrg.raccoon.engine.\lCodingEngineImpl.encode">
<polygon fill="none" stroke="black" points="386.5,-280 386.5,-310 517.5,-310 517.5,-280 386.5,-280"/>
<text text-anchor="start" x="394.5" y="-298" font-family="Helvetica,sans-Serif" font-size="10.00">org.msrg.raccoon.engine.</text>
<text text-anchor="middle" x="452" y="-287" font-family="Helvetica,sans-Serif" font-size="10.00">CodingEngineImpl.encode</text>
</a>
</g>
</g>
<!-- Node3&#45;&gt;Node6 -->
<g id="edge5" class="edge"><title>Node3&#45;&gt;Node6</title>
<path fill="none" stroke="midnightblue" d="M323.323,-229.198C327.017,-230.989 330.606,-232.921 334,-235 353.029,-246.656 350.807,-258.616 370,-270 376.456,-273.829 383.554,-277.124 390.782,-279.947"/>
<polygon fill="midnightblue" stroke="midnightblue" points="324.534,-225.906 313.976,-225.031 321.684,-232.299 324.534,-225.906"/>
</g>
<!-- Node7 -->
<g id="node7" class="node"><title>Node7</title>
<g id="a_node7"><a xlink:href="../../d1/d97/classorg_1_1msrg_1_1raccoon_1_1engine_1_1CodingEngine__ForTest_abdedecf33e51af4a2031d2328a881c8a.html#abdedecf33e51af4a2031d2328a881c8a" target="_top" xlink:title="org.msrg.raccoon.engine.\lCodingEngine_ForTest.encoding\lDecodingEqual">
<polygon fill="none" stroke="black" points="373,-219.5 373,-260.5 531,-260.5 531,-219.5 373,-219.5"/>
<text text-anchor="start" x="381" y="-248.5" font-family="Helvetica,sans-Serif" font-size="10.00">org.msrg.raccoon.engine.</text>
<text text-anchor="start" x="381" y="-237.5" font-family="Helvetica,sans-Serif" font-size="10.00">CodingEngine_ForTest.encoding</text>
<text text-anchor="middle" x="452" y="-226.5" font-family="Helvetica,sans-Serif" font-size="10.00">DecodingEqual</text>
</a>
</g>
</g>
<!-- Node3&#45;&gt;Node7 -->
<g id="edge6" class="edge"><title>Node3&#45;&gt;Node7</title>
<path fill="none" stroke="midnightblue" d="M344.042,-223.156C353.603,-224.662 363.324,-226.193 372.811,-227.687"/>
<polygon fill="midnightblue" stroke="midnightblue" points="344.575,-219.697 334.152,-221.599 343.486,-226.612 344.575,-219.697"/>
</g>
<!-- Node8 -->
<g id="node8" class="node"><title>Node8</title>
<g id="a_node8"><a xlink:href="../../d1/d97/classorg_1_1msrg_1_1raccoon_1_1engine_1_1CodingEngine__ForTest_aacd7e3e20d0cecfa66098d8143cf0503.html#aacd7e3e20d0cecfa66098d8143cf0503" target="_top" xlink:title="org.msrg.raccoon.engine.\lCodingEngine_ForTest.encoding\lReceivedEncodingDecodingEqual">
<polygon fill="none" stroke="black" points="370,-159.5 370,-200.5 534,-200.5 534,-159.5 370,-159.5"/>
<text text-anchor="start" x="378" y="-188.5" font-family="Helvetica,sans-Serif" font-size="10.00">org.msrg.raccoon.engine.</text>
<text text-anchor="start" x="378" y="-177.5" font-family="Helvetica,sans-Serif" font-size="10.00">CodingEngine_ForTest.encoding</text>
<text text-anchor="middle" x="452" y="-166.5" font-family="Helvetica,sans-Serif" font-size="10.00">ReceivedEncodingDecodingEqual</text>
</a>
</g>
</g>
<!-- Node3&#45;&gt;Node8 -->
<g id="edge7" class="edge"><title>Node3&#45;&gt;Node8</title>
<path fill="none" stroke="midnightblue" d="M344.139,-196.829C352.71,-195.479 361.409,-194.109 369.952,-192.763"/>
<polygon fill="midnightblue" stroke="midnightblue" points="343.486,-193.388 334.152,-198.401 344.575,-200.303 343.486,-193.388"/>
</g>
<!-- Node9 -->
<g id="node9" class="node"><title>Node9</title>
<g id="a_node9"><a xlink:href="../../d2/d9a/classorg_1_1msrg_1_1raccoon_1_1engine_1_1CodingEngineImpl_a433637d8d256085e4ebd9fe6113bbe2d.html#a433637d8d256085e4ebd9fe6113bbe2d" target="_top" xlink:title="org.msrg.raccoon.engine.\lCodingEngineImpl.inverse">
<polygon fill="none" stroke="black" points="386.5,-110 386.5,-140 517.5,-140 517.5,-110 386.5,-110"/>
<text text-anchor="start" x="394.5" y="-128" font-family="Helvetica,sans-Serif" font-size="10.00">org.msrg.raccoon.engine.</text>
<text text-anchor="middle" x="452" y="-117" font-family="Helvetica,sans-Serif" font-size="10.00">CodingEngineImpl.inverse</text>
</a>
</g>
</g>
<!-- Node3&#45;&gt;Node9 -->
<g id="edge8" class="edge"><title>Node3&#45;&gt;Node9</title>
<path fill="none" stroke="midnightblue" d="M293.237,-189.785C314.555,-177.199 343.274,-161.31 370,-150 378.539,-146.387 387.78,-143.038 396.862,-140.042"/>
<polygon fill="midnightblue" stroke="midnightblue" points="291.372,-186.822 284.58,-194.954 294.961,-192.832 291.372,-186.822"/>
</g>
<!-- Node10 -->
<g id="node10" class="node"><title>Node10</title>
<g id="a_node10"><a xlink:href="../../d2/d9a/classorg_1_1msrg_1_1raccoon_1_1engine_1_1CodingEngineImpl_a7b9c2a2faa4f33ae47fbb6c37202f16a.html#a7b9c2a2faa4f33ae47fbb6c37202f16a" target="_top" xlink:title="org.msrg.raccoon.engine.\lCodingEngineImpl.multiply">
<polygon fill="none" stroke="black" points="385.5,-61 385.5,-91 518.5,-91 518.5,-61 385.5,-61"/>
<text text-anchor="start" x="393.5" y="-79" font-family="Helvetica,sans-Serif" font-size="10.00">org.msrg.raccoon.engine.</text>
<text text-anchor="middle" x="452" y="-68" font-family="Helvetica,sans-Serif" font-size="10.00">CodingEngineImpl.multiply</text>
</a>
</g>
</g>
<!-- Node3&#45;&gt;Node10 -->
<g id="edge9" class="edge"><title>Node3&#45;&gt;Node10</title>
<path fill="none" stroke="midnightblue" d="M278.262,-186.531C298.088,-161.883 332.366,-123.622 370,-101 376.307,-97.2089 383.24,-93.945 390.314,-91.1471"/>
<polygon fill="midnightblue" stroke="midnightblue" points="275.316,-184.615 271.871,-194.634 280.812,-188.951 275.316,-184.615"/>
</g>
<!-- Node11 -->
<g id="node11" class="node"><title>Node11</title>
<g id="a_node11"><a xlink:href="../../d1/d97/classorg_1_1msrg_1_1raccoon_1_1engine_1_1CodingEngine__ForTest_a57ccf753121a25de0f2391daa70d28ae.html#a57ccf753121a25de0f2391daa70d28ae" target="_top" xlink:title="org.msrg.raccoon.engine.\lCodingEngine_ForTest.multiply\lInverseMultiplyEqual">
<polygon fill="none" stroke="black" points="375.5,-0.5 375.5,-41.5 528.5,-41.5 528.5,-0.5 375.5,-0.5"/>
<text text-anchor="start" x="383.5" y="-29.5" font-family="Helvetica,sans-Serif" font-size="10.00">org.msrg.raccoon.engine.</text>
<text text-anchor="start" x="383.5" y="-18.5" font-family="Helvetica,sans-Serif" font-size="10.00">CodingEngine_ForTest.multiply</text>
<text text-anchor="middle" x="452" y="-7.5" font-family="Helvetica,sans-Serif" font-size="10.00">InverseMultiplyEqual</text>
</a>
</g>
</g>
<!-- Node3&#45;&gt;Node11 -->
<g id="edge10" class="edge"><title>Node3&#45;&gt;Node11</title>
<path fill="none" stroke="midnightblue" d="M271.673,-185.372C288.425,-151.001 323.155,-88.7439 370,-52 374.976,-48.097 380.499,-44.6403 386.257,-41.5884"/>
<polygon fill="midnightblue" stroke="midnightblue" points="268.379,-184.15 267.244,-194.684 274.7,-187.157 268.379,-184.15"/>
</g>
</g>
</svg>
