<?xml version="1.0" encoding="UTF-8" standalone="no"?>
<!DOCTYPE svg PUBLIC "-//W3C//DTD SVG 1.1//EN"
 "http://www.w3.org/Graphics/SVG/1.1/DTD/svg11.dtd">
<!-- Generated by graphviz version 2.38.0 (20140413.2041)
 -->
<!-- Title: org.msrg.raccoon.utils.Combinations.main Pages: 1 -->
<svg width="915pt" height="88pt"
 viewBox="0.00 0.00 915.00 88.00" xmlns="http://www.w3.org/2000/svg" xmlns:xlink="http://www.w3.org/1999/xlink">
<g id="graph0" class="graph" transform="scale(1 1) rotate(0) translate(4 84)">
<title>org.msrg.raccoon.utils.Combinations.main</title>
<!-- Node1 -->
<g id="node1" class="node"><title>Node1</title>
<polygon fill="#bfbfbf" stroke="black" points="0,-30 0,-49 200,-49 200,-30 0,-30"/>
<text text-anchor="middle" x="100" y="-37" font-family="Helvetica,sans-Serif" font-size="10.00">org.msrg.raccoon.utils.Combinations.main</text>
</g>
<!-- Node2 -->
<g id="node2" class="node"><title>Node2</title>
<g id="a_node2"><a xlink:href="../../d8/df6/classorg_1_1msrg_1_1raccoon_1_1utils_1_1Combinations_a15e367b7525df46b6af06e86b854c675.html#a15e367b7525df46b6af06e86b854c675" target="_top" xlink:title="org.msrg.raccoon.utils.Combinations.make\lAllCombinations">
<polygon fill="none" stroke="black" points="236,-49.5 236,-79.5 439,-79.5 439,-49.5 236,-49.5"/>
<text text-anchor="start" x="244" y="-67.5" font-family="Helvetica,sans-Serif" font-size="10.00">org.msrg.raccoon.utils.Combinations.make</text>
<text text-anchor="middle" x="337.5" y="-56.5" font-family="Helvetica,sans-Serif" font-size="10.00">AllCombinations</text>
</a>
</g>
</g>
<!-- Node1&#45;&gt;Node2 -->
<g id="edge1" class="edge"><title>Node1&#45;&gt;Node2</title>
<path fill="none" stroke="midnightblue" d="M190.704,-49.0227C202.065,-50.2287 213.795,-51.474 225.438,-52.71"/>
<polygon fill="midnightblue" stroke="midnightblue" points="225.322,-56.2172 235.635,-53.7925 226.061,-49.2563 225.322,-56.2172"/>
</g>
<!-- Node5 -->
<g id="node5" class="node"><title>Node5</title>
<g id="a_node5"><a xlink:href="../../d8/df6/classorg_1_1msrg_1_1raccoon_1_1utils_1_1Combinations_a004adb346595a4d0bdc2dc81bfae4165.html#a004adb346595a4d0bdc2dc81bfae4165" target="_top" xlink:title="org.msrg.raccoon.utils.Combinations.to\lString">
<polygon fill="none" stroke="black" points="243.5,-0.5 243.5,-30.5 431.5,-30.5 431.5,-0.5 243.5,-0.5"/>
<text text-anchor="start" x="251.5" y="-18.5" font-family="Helvetica,sans-Serif" font-size="10.00">org.msrg.raccoon.utils.Combinations.to</text>
<text text-anchor="middle" x="337.5" y="-7.5" font-family="Helvetica,sans-Serif" font-size="10.00">String</text>
</a>
</g>
</g>
<!-- Node1&#45;&gt;Node5 -->
<g id="edge4" class="edge"><title>Node1&#45;&gt;Node5</title>
<path fill="none" stroke="midnightblue" d="M194.414,-29.9801C207.08,-28.6893 220.139,-27.3584 232.97,-26.0508"/>
<polygon fill="midnightblue" stroke="midnightblue" points="233.605,-29.5043 243.199,-25.0084 232.896,-22.5404 233.605,-29.5043"/>
</g>
<!-- Node3 -->
<g id="node3" class="node"><title>Node3</title>
<g id="a_node3"><a xlink:href="../../d8/df6/classorg_1_1msrg_1_1raccoon_1_1utils_1_1Combinations_aac8b28752148f330a4fc77944081a8c5.html#aac8b28752148f330a4fc77944081a8c5" target="_top" xlink:title="org.msrg.raccoon.utils.Combinations.\lCombinations">
<polygon fill="none" stroke="black" points="475,-49.5 475,-79.5 654,-79.5 654,-49.5 475,-49.5"/>
<text text-anchor="start" x="483" y="-67.5" font-family="Helvetica,sans-Serif" font-size="10.00">org.msrg.raccoon.utils.Combinations.</text>
<text text-anchor="middle" x="564.5" y="-56.5" font-family="Helvetica,sans-Serif" font-size="10.00">Combinations</text>
</a>
</g>
</g>
<!-- Node2&#45;&gt;Node3 -->
<g id="edge2" class="edge"><title>Node2&#45;&gt;Node3</title>
<path fill="none" stroke="midnightblue" d="M439.154,-64.5C447.639,-64.5 456.215,-64.5 464.685,-64.5"/>
<polygon fill="midnightblue" stroke="midnightblue" points="464.953,-68.0001 474.953,-64.5 464.952,-61.0001 464.953,-68.0001"/>
</g>
<!-- Node4 -->
<g id="node4" class="node"><title>Node4</title>
<g id="a_node4"><a xlink:href="../../d8/df6/classorg_1_1msrg_1_1raccoon_1_1utils_1_1Combinations_ad6d086f4ace7983227bc3a2edc563adc.html#ad6d086f4ace7983227bc3a2edc563adc" target="_top" xlink:title="org.msrg.raccoon.utils.Combinations.generate\lBVRecursively">
<polygon fill="none" stroke="black" points="690,-49.5 690,-79.5 907,-79.5 907,-49.5 690,-49.5"/>
<text text-anchor="start" x="698" y="-67.5" font-family="Helvetica,sans-Serif" font-size="10.00">org.msrg.raccoon.utils.Combinations.generate</text>
<text text-anchor="middle" x="798.5" y="-56.5" font-family="Helvetica,sans-Serif" font-size="10.00">BVRecursively</text>
</a>
</g>
</g>
<!-- Node3&#45;&gt;Node4 -->
<g id="edge3" class="edge"><title>Node3&#45;&gt;Node4</title>
<path fill="none" stroke="midnightblue" d="M654.202,-64.5C662.569,-64.5 671.137,-64.5 679.717,-64.5"/>
<polygon fill="midnightblue" stroke="midnightblue" points="679.785,-68.0001 689.785,-64.5 679.785,-61.0001 679.785,-68.0001"/>
</g>
</g>
</svg>
