<?xml version="1.0" encoding="UTF-8" standalone="no"?>
<!DOCTYPE svg PUBLIC "-//W3C//DTD SVG 1.1//EN"
 "http://www.w3.org/Graphics/SVG/1.1/DTD/svg11.dtd">
<!-- Generated by graphviz version 2.38.0 (20140413.2041)
 -->
<!-- Title: org.msrg.raccoon.utils.Combinations.toString Pages: 1 -->
<svg width="432pt" height="78pt"
 viewBox="0.00 0.00 432.00 77.50" xmlns="http://www.w3.org/2000/svg" xmlns:xlink="http://www.w3.org/1999/xlink">
<g id="graph0" class="graph" transform="scale(1 1) rotate(0) translate(4 73.5)">
<title>org.msrg.raccoon.utils.Combinations.toString</title>
<!-- Node1 -->
<g id="node1" class="node"><title>Node1</title>
<polygon fill="#bfbfbf" stroke="black" points="0,-22.5 0,-52.5 188,-52.5 188,-22.5 0,-22.5"/>
<text text-anchor="start" x="8" y="-40.5" font-family="Helvetica,sans-Serif" font-size="10.00">org.msrg.raccoon.utils.Combinations.to</text>
<text text-anchor="middle" x="94" y="-29.5" font-family="Helvetica,sans-Serif" font-size="10.00">String</text>
</g>
<!-- Node2 -->
<g id="node2" class="node"><title>Node2</title>
<g id="a_node2"><a xlink:href="../../d8/df6/classorg_1_1msrg_1_1raccoon_1_1utils_1_1Combinations_a1e95eff298d474113321b9c7dde98816.html#a1e95eff298d474113321b9c7dde98816" target="_top" xlink:title="org.msrg.raccoon.utils.Combinations.main">
<polygon fill="none" stroke="black" points="224,-50 224,-69 424,-69 424,-50 224,-50"/>
<text text-anchor="middle" x="324" y="-57" font-family="Helvetica,sans-Serif" font-size="10.00">org.msrg.raccoon.utils.Combinations.main</text>
</a>
</g>
</g>
<!-- Node1&#45;&gt;Node2 -->
<g id="edge1" class="edge"><title>Node1&#45;&gt;Node2</title>
<path fill="none" stroke="midnightblue" d="M198.206,-47.4585C206.888,-48.2962 215.654,-49.1421 224.301,-49.9764"/>
<polygon fill="midnightblue" stroke="midnightblue" points="198.355,-43.9567 188.065,-46.48 197.683,-50.9243 198.355,-43.9567"/>
</g>
<!-- Node3 -->
<g id="node3" class="node"><title>Node3</title>
<g id="a_node3"><a xlink:href="../../d8/df6/classorg_1_1msrg_1_1raccoon_1_1utils_1_1Combinations_a614255bccae446a0d31c10dd025a3a95.html#a614255bccae446a0d31c10dd025a3a95" target="_top" xlink:title="org.msrg.raccoon.utils.Combinations.to\lString">
<polygon fill="none" stroke="black" points="230,-0.5 230,-30.5 418,-30.5 418,-0.5 230,-0.5"/>
<text text-anchor="start" x="238" y="-18.5" font-family="Helvetica,sans-Serif" font-size="10.00">org.msrg.raccoon.utils.Combinations.to</text>
<text text-anchor="middle" x="324" y="-7.5" font-family="Helvetica,sans-Serif" font-size="10.00">String</text>
</a>
</g>
</g>
<!-- Node1&#45;&gt;Node3 -->
<g id="edge2" class="edge"><title>Node1&#45;&gt;Node3</title>
<path fill="none" stroke="midnightblue" d="M198.148,-27.5472C208.716,-26.5274 219.411,-25.4955 229.863,-24.4869"/>
<polygon fill="midnightblue" stroke="midnightblue" points="197.683,-24.0757 188.065,-28.52 198.355,-31.0433 197.683,-24.0757"/>
</g>
</g>
</svg>
