<?xml version="1.0" encoding="UTF-8" standalone="no"?>
<!DOCTYPE svg PUBLIC "-//W3C//DTD SVG 1.1//EN"
 "http://www.w3.org/Graphics/SVG/1.1/DTD/svg11.dtd">
<!-- Generated by graphviz version 2.38.0 (20140413.2041)
 -->
<!-- Title: org.msrg.raccoon.utils.Combinations.main Pages: 1 -->
<!--zoomable 88 -->
<svg id="main" version="1.1" xmlns="http://www.w3.org/2000/svg" xmlns:xlink="http://www.w3.org/1999/xlink" xml:space="preserve" onload="init(evt)">
<style type="text/css"><![CDATA[
.edge:hover path { stroke: red; }
.edge:hover polygon { stroke: red; fill: red; }
]]></style>
<script type="text/javascript"><![CDATA[
var edges = document.getElementsByTagName('g');
if (edges && edges.length) {
  for (var i=0;i<edges.length;i++) {
    if (edges[i].id.substr(0,4)=='edge') {
      edges[i].setAttribute('class','edge');
    }
  }
}
]]></script>
        <defs>
                <circle id="rim" cx="0" cy="0" r="7"/>
                <circle id="rim2" cx="0" cy="0" r="3.5"/>
                <g id="zoomPlus">
                        <use xlink:href="#rim" fill="#404040">
                                <set attributeName="fill" to="#808080" begin="zoomplus.mouseover" end="zoomplus.mouseout"/>
                        </use>
                        <path d="M-4,0h8M0,-4v8" fill="none" stroke="white" stroke-width="1.5" pointer-events="none"/>
                </g>
                <g id="zoomMin">
                        <use xlink:href="#rim" fill="#404040">
                                <set attributeName="fill" to="#808080" begin="zoomminus.mouseover" end="zoomminus.mouseout"/>
                        </use>
                        <path d="M-4,0h8" fill="none" stroke="white" stroke-width="1.5" pointer-events="none"/>
                </g>
                <g id="dirArrow">
                        <path fill="none" stroke="white" stroke-width="1.5" d="M0,-3.0v7 M-2.5,-0.5L0,-3.0L2.5,-0.5"/>
                </g>
               <g id="resetDef">
                       <use xlink:href="#rim2" fill="#404040">
                               <set attributeName="fill" to="#808080" begin="reset.mouseover" end="reset.mouseout"/>
                       </use>
               </g>
        </defs>

<script type="text/javascript">
var viewWidth = 915;
var viewHeight = 88;
var sectionId = 'dynsection-0';
</script>
<script xlink:href="../../svgpan.js"/>
<svg id="graph" class="graph">
<g id="viewport">
<title>org.msrg.raccoon.utils.Combinations.main</title>
<!-- Node0 -->
<g id="node1" class="node"><title>Node0</title>
<polygon fill="#bfbfbf" stroke="black" points="0,-30 0,-49 200,-49 200,-30 0,-30"/>
<text text-anchor="middle" x="100" y="-37" font-family="Helvetica,sans-Serif" font-size="10.00">org.msrg.raccoon.utils.Combinations.main</text>
</g>
<!-- Node1 -->
<g id="node2" class="node"><title>Node1</title>
<g id="a_node2"><a xlink:href="../../d8/df6/classorg_1_1msrg_1_1raccoon_1_1utils_1_1Combinations_a15e367b7525df46b6af06e86b854c675.html#a15e367b7525df46b6af06e86b854c675" target="_top" xlink:title="org.msrg.raccoon.utils.Combinations.make\lAllCombinations">
<polygon fill="none" stroke="black" points="236,-49.5 236,-79.5 439,-79.5 439,-49.5 236,-49.5"/>
<text text-anchor="start" x="244" y="-67.5" font-family="Helvetica,sans-Serif" font-size="10.00">org.msrg.raccoon.utils.Combinations.make</text>
<text text-anchor="middle" x="337.5" y="-56.5" font-family="Helvetica,sans-Serif" font-size="10.00">AllCombinations</text>
</a>
</g>
</g>
<!-- Node0&#45;&gt;Node1 -->
<g id="edge1" class="edge"><title>Node0&#45;&gt;Node1</title>
<path fill="none" stroke="midnightblue" d="M190.704,-49.0227C202.065,-50.2287 213.795,-51.474 225.438,-52.71"/>
<polygon fill="midnightblue" stroke="midnightblue" points="225.322,-56.2172 235.635,-53.7925 226.061,-49.2563 225.322,-56.2172"/>
</g>
<!-- Node4 -->
<g id="node5" class="node"><title>Node4</title>
<g id="a_node5"><a xlink:href="../../d8/df6/classorg_1_1msrg_1_1raccoon_1_1utils_1_1Combinations_a004adb346595a4d0bdc2dc81bfae4165.html#a004adb346595a4d0bdc2dc81bfae4165" target="_top" xlink:title="org.msrg.raccoon.utils.Combinations.to\lString">
<polygon fill="none" stroke="black" points="243.5,-0.5 243.5,-30.5 431.5,-30.5 431.5,-0.5 243.5,-0.5"/>
<text text-anchor="start" x="251.5" y="-18.5" font-family="Helvetica,sans-Serif" font-size="10.00">org.msrg.raccoon.utils.Combinations.to</text>
<text text-anchor="middle" x="337.5" y="-7.5" font-family="Helvetica,sans-Serif" font-size="10.00">String</text>
</a>
</g>
</g>
<!-- Node0&#45;&gt;Node4 -->
<g id="edge4" class="edge"><title>Node0&#45;&gt;Node4</title>
<path fill="none" stroke="midnightblue" d="M194.414,-29.9801C207.08,-28.6893 220.139,-27.3584 232.97,-26.0508"/>
<polygon fill="midnightblue" stroke="midnightblue" points="233.605,-29.5043 243.199,-25.0084 232.896,-22.5404 233.605,-29.5043"/>
</g>
<!-- Node2 -->
<g id="node3" class="node"><title>Node2</title>
<g id="a_node3"><a xlink:href="../../d8/df6/classorg_1_1msrg_1_1raccoon_1_1utils_1_1Combinations_aac8b28752148f330a4fc77944081a8c5.html#aac8b28752148f330a4fc77944081a8c5" target="_top" xlink:title="org.msrg.raccoon.utils.Combinations.\lCombinations">
<polygon fill="none" stroke="black" points="475,-49.5 475,-79.5 654,-79.5 654,-49.5 475,-49.5"/>
<text text-anchor="start" x="483" y="-67.5" font-family="Helvetica,sans-Serif" font-size="10.00">org.msrg.raccoon.utils.Combinations.</text>
<text text-anchor="middle" x="564.5" y="-56.5" font-family="Helvetica,sans-Serif" font-size="10.00">Combinations</text>
</a>
</g>
</g>
<!-- Node1&#45;&gt;Node2 -->
<g id="edge2" class="edge"><title>Node1&#45;&gt;Node2</title>
<path fill="none" stroke="midnightblue" d="M439.154,-64.5C447.639,-64.5 456.215,-64.5 464.685,-64.5"/>
<polygon fill="midnightblue" stroke="midnightblue" points="464.953,-68.0001 474.953,-64.5 464.952,-61.0001 464.953,-68.0001"/>
</g>
<!-- Node3 -->
<g id="node4" class="node"><title>Node3</title>
<g id="a_node4"><a xlink:href="../../d8/df6/classorg_1_1msrg_1_1raccoon_1_1utils_1_1Combinations_ad6d086f4ace7983227bc3a2edc563adc.html#ad6d086f4ace7983227bc3a2edc563adc" target="_top" xlink:title="org.msrg.raccoon.utils.Combinations.generate\lBVRecursively">
<polygon fill="none" stroke="black" points="690,-49.5 690,-79.5 907,-79.5 907,-49.5 690,-49.5"/>
<text text-anchor="start" x="698" y="-67.5" font-family="Helvetica,sans-Serif" font-size="10.00">org.msrg.raccoon.utils.Combinations.generate</text>
<text text-anchor="middle" x="798.5" y="-56.5" font-family="Helvetica,sans-Serif" font-size="10.00">BVRecursively</text>
</a>
</g>
</g>
<!-- Node2&#45;&gt;Node3 -->
<g id="edge3" class="edge"><title>Node2&#45;&gt;Node3</title>
<path fill="none" stroke="midnightblue" d="M654.202,-64.5C662.569,-64.5 671.137,-64.5 679.717,-64.5"/>
<polygon fill="midnightblue" stroke="midnightblue" points="679.785,-68.0001 689.785,-64.5 679.785,-61.0001 679.785,-68.0001"/>
</g>
</g>
</svg>
        <g id="navigator" transform="translate(0 0)" fill="#404254">
                <rect fill="#f2f5e9" fill-opacity="0.5" stroke="#606060" stroke-width=".5" x="0" y="0" width="60" height="60"/>
                <use id="zoomplus" xlink:href="#zoomPlus" x="17" y="9" onmousedown="handleZoom(evt,'in')"/>
                <use id="zoomminus" xlink:href="#zoomMin" x="42" y="9" onmousedown="handleZoom(evt,'out')"/>
                <use id="reset" xlink:href="#resetDef" x="30" y="36" onmousedown="handleReset()"/>
                <g id="arrowUp" xlink:href="#dirArrow" transform="translate(30 24)" onmousedown="handlePan(0,-1)">
                  <use xlink:href="#rim" fill="#404040">
                        <set attributeName="fill" to="#808080" begin="arrowUp.mouseover" end="arrowUp.mouseout"/>
                  </use>
                  <path fill="none" stroke="white" stroke-width="1.5" d="M0,-3.0v7 M-2.5,-0.5L0,-3.0L2.5,-0.5"/>
                </g>
                <g id="arrowRight" xlink:href="#dirArrow" transform="rotate(90) translate(36 -43)" onmousedown="handlePan(1,0)">
                  <use xlink:href="#rim" fill="#404040">
                        <set attributeName="fill" to="#808080" begin="arrowRight.mouseover" end="arrowRight.mouseout"/>
                  </use>
                  <path fill="none" stroke="white" stroke-width="1.5" d="M0,-3.0v7 M-2.5,-0.5L0,-3.0L2.5,-0.5"/>
                </g>
                <g id="arrowDown" xlink:href="#dirArrow" transform="rotate(180) translate(-30 -48)" onmousedown="handlePan(0,1)">
                  <use xlink:href="#rim" fill="#404040">
                        <set attributeName="fill" to="#808080" begin="arrowDown.mouseover" end="arrowDown.mouseout"/>
                  </use>
                  <path fill="none" stroke="white" stroke-width="1.5" d="M0,-3.0v7 M-2.5,-0.5L0,-3.0L2.5,-0.5"/>
                </g>
                <g id="arrowLeft" xlink:href="#dirArrow" transform="rotate(270) translate(-36 17)" onmousedown="handlePan(-1,0)">
                  <use xlink:href="#rim" fill="#404040">
                        <set attributeName="fill" to="#808080" begin="arrowLeft.mouseover" end="arrowLeft.mouseout"/>
                  </use>
                  <path fill="none" stroke="white" stroke-width="1.5" d="M0,-3.0v7 M-2.5,-0.5L0,-3.0L2.5,-0.5"/>
                </g>
        </g>
        <svg viewBox="0 0 15 15" width="100%" height="30px" preserveAspectRatio="xMaxYMin meet">
         <g id="arrow_out" transform="scale(0.3 0.3)">
          <a xlink:href="classorg_1_1msrg_1_1raccoon_1_1utils_1_1Combinations_a1e95eff298d474113321b9c7dde98816_a1e95eff298d474113321b9c7dde98816_cgraph_org.svg" target="_base">
           <rect id="button" ry="5" rx="5" y="6" x="6" height="38" width="38"
                fill="#f2f5e9" fill-opacity="0.5" stroke="#606060" stroke-width="1.0"/>
           <path id="arrow"
             d="M 11.500037,31.436501 C 11.940474,20.09759 22.043105,11.32322 32.158766,21.979434 L 37.068811,17.246167 C 37.068811,17.246167 37.088388,32 37.088388,32 L 22.160133,31.978069 C 22.160133,31.978069 26.997745,27.140456 26.997745,27.140456 C 18.528582,18.264221 13.291696,25.230495 11.500037,31.436501 z"
             style="fill:#404040;"/>
          </a>
         </g>
        </svg>
</svg>
