<?xml version="1.0" encoding="UTF-8" standalone="no"?>
<!DOCTYPE svg PUBLIC "-//W3C//DTD SVG 1.1//EN"
 "http://www.w3.org/Graphics/SVG/1.1/DTD/svg11.dtd">
<!-- Generated by graphviz version 2.38.0 (20140413.2041)
 -->
<!-- Title: org.msrg.raccoon.utils.Combinations.generateBVRecursively Pages: 1 -->
<svg width="915pt" height="39pt"
 viewBox="0.00 0.00 915.00 39.00" xmlns="http://www.w3.org/2000/svg" xmlns:xlink="http://www.w3.org/1999/xlink">
<g id="graph0" class="graph" transform="scale(1 1) rotate(0) translate(4 35)">
<title>org.msrg.raccoon.utils.Combinations.generateBVRecursively</title>
<!-- Node1 -->
<g id="node1" class="node"><title>Node1</title>
<polygon fill="#bfbfbf" stroke="black" points="0,-0.5 0,-30.5 217,-30.5 217,-0.5 0,-0.5"/>
<text text-anchor="start" x="8" y="-18.5" font-family="Helvetica,sans-Serif" font-size="10.00">org.msrg.raccoon.utils.Combinations.generate</text>
<text text-anchor="middle" x="108.5" y="-7.5" font-family="Helvetica,sans-Serif" font-size="10.00">BVRecursively</text>
</g>
<!-- Node2 -->
<g id="node2" class="node"><title>Node2</title>
<g id="a_node2"><a xlink:href="../../d8/df6/classorg_1_1msrg_1_1raccoon_1_1utils_1_1Combinations_aac8b28752148f330a4fc77944081a8c5.html#aac8b28752148f330a4fc77944081a8c5" target="_top" xlink:title="org.msrg.raccoon.utils.Combinations.\lCombinations">
<polygon fill="none" stroke="black" points="253,-0.5 253,-30.5 432,-30.5 432,-0.5 253,-0.5"/>
<text text-anchor="start" x="261" y="-18.5" font-family="Helvetica,sans-Serif" font-size="10.00">org.msrg.raccoon.utils.Combinations.</text>
<text text-anchor="middle" x="342.5" y="-7.5" font-family="Helvetica,sans-Serif" font-size="10.00">Combinations</text>
</a>
</g>
</g>
<!-- Node1&#45;&gt;Node2 -->
<g id="edge1" class="edge"><title>Node1&#45;&gt;Node2</title>
<path fill="none" stroke="midnightblue" d="M227.129,-15.5C235.753,-15.5 244.365,-15.5 252.775,-15.5"/>
<polygon fill="midnightblue" stroke="midnightblue" points="227.011,-12.0001 217.011,-15.5 227.011,-19.0001 227.011,-12.0001"/>
</g>
<!-- Node3 -->
<g id="node3" class="node"><title>Node3</title>
<g id="a_node3"><a xlink:href="../../d8/df6/classorg_1_1msrg_1_1raccoon_1_1utils_1_1Combinations_a15e367b7525df46b6af06e86b854c675.html#a15e367b7525df46b6af06e86b854c675" target="_top" xlink:title="org.msrg.raccoon.utils.Combinations.make\lAllCombinations">
<polygon fill="none" stroke="black" points="468,-0.5 468,-30.5 671,-30.5 671,-0.5 468,-0.5"/>
<text text-anchor="start" x="476" y="-18.5" font-family="Helvetica,sans-Serif" font-size="10.00">org.msrg.raccoon.utils.Combinations.make</text>
<text text-anchor="middle" x="569.5" y="-7.5" font-family="Helvetica,sans-Serif" font-size="10.00">AllCombinations</text>
</a>
</g>
</g>
<!-- Node2&#45;&gt;Node3 -->
<g id="edge2" class="edge"><title>Node2&#45;&gt;Node3</title>
<path fill="none" stroke="midnightblue" d="M442.311,-15.5C450.733,-15.5 459.259,-15.5 467.696,-15.5"/>
<polygon fill="midnightblue" stroke="midnightblue" points="442.103,-12.0001 432.103,-15.5 442.103,-19.0001 442.103,-12.0001"/>
</g>
<!-- Node4 -->
<g id="node4" class="node"><title>Node4</title>
<g id="a_node4"><a xlink:href="../../d8/df6/classorg_1_1msrg_1_1raccoon_1_1utils_1_1Combinations_a1e95eff298d474113321b9c7dde98816.html#a1e95eff298d474113321b9c7dde98816" target="_top" xlink:title="org.msrg.raccoon.utils.Combinations.main">
<polygon fill="none" stroke="black" points="707,-6 707,-25 907,-25 907,-6 707,-6"/>
<text text-anchor="middle" x="807" y="-13" font-family="Helvetica,sans-Serif" font-size="10.00">org.msrg.raccoon.utils.Combinations.main</text>
</a>
</g>
</g>
<!-- Node3&#45;&gt;Node4 -->
<g id="edge3" class="edge"><title>Node3&#45;&gt;Node4</title>
<path fill="none" stroke="midnightblue" d="M681.123,-15.5C689.727,-15.5 698.382,-15.5 706.904,-15.5"/>
<polygon fill="midnightblue" stroke="midnightblue" points="681.056,-12.0001 671.056,-15.5 681.056,-19.0001 681.056,-12.0001"/>
</g>
</g>
</svg>
