<?xml version="1.0" encoding="UTF-8" standalone="no"?>
<!DOCTYPE svg PUBLIC "-//W3C//DTD SVG 1.1//EN"
 "http://www.w3.org/Graphics/SVG/1.1/DTD/svg11.dtd">
<!-- Generated by graphviz version 2.38.0 (20140413.2041)
 -->
<!-- Title: org.msrg.raccoon.matrix.DoubleMatrix.decloneExtended Pages: 1 -->
<svg width="492pt" height="159pt"
 viewBox="0.00 0.00 492.00 158.50" xmlns="http://www.w3.org/2000/svg" xmlns:xlink="http://www.w3.org/1999/xlink">
<g id="graph0" class="graph" transform="scale(1 1) rotate(0) translate(4 154.5)">
<title>org.msrg.raccoon.matrix.DoubleMatrix.decloneExtended</title>
<!-- Node1 -->
<g id="node1" class="node"><title>Node1</title>
<polygon fill="#bfbfbf" stroke="black" points="0,-92 0,-122 152,-122 152,-92 0,-92"/>
<text text-anchor="start" x="8" y="-110" font-family="Helvetica,sans-Serif" font-size="10.00">org.msrg.raccoon.matrix.</text>
<text text-anchor="middle" x="76" y="-99" font-family="Helvetica,sans-Serif" font-size="10.00">DoubleMatrix.decloneExtended</text>
</g>
<!-- Node2 -->
<g id="node2" class="node"><title>Node2</title>
<g id="a_node2"><a xlink:href="../../dd/d0e/classorg_1_1msrg_1_1raccoon_1_1matrix_1_1DoubleMatrix_a1a9721261b944703af971419b0dbc20e.html#a1a9721261b944703af971419b0dbc20e" target="_top" xlink:title="org.msrg.raccoon.matrix.\lDoubleMatrix.clone">
<polygon fill="none" stroke="black" points="188,-68 188,-98 313,-98 313,-68 188,-68"/>
<text text-anchor="start" x="196" y="-86" font-family="Helvetica,sans-Serif" font-size="10.00">org.msrg.raccoon.matrix.</text>
<text text-anchor="middle" x="250.5" y="-75" font-family="Helvetica,sans-Serif" font-size="10.00">DoubleMatrix.clone</text>
</a>
</g>
</g>
<!-- Node1&#45;&gt;Node2 -->
<g id="edge1" class="edge"><title>Node1&#45;&gt;Node2</title>
<path fill="none" stroke="midnightblue" d="M152.159,-96.5431C160.615,-95.3666 169.215,-94.1701 177.628,-92.9996"/>
<polygon fill="midnightblue" stroke="midnightblue" points="178.351,-96.4328 187.774,-91.588 177.387,-89.4995 178.351,-96.4328"/>
</g>
<!-- Node3 -->
<g id="node3" class="node"><title>Node3</title>
<g id="a_node3"><a xlink:href="../../dd/d0e/classorg_1_1msrg_1_1raccoon_1_1matrix_1_1DoubleMatrix_ab990e9a82b0bc64daa035b7a47bf68a6.html#ab990e9a82b0bc64daa035b7a47bf68a6" target="_top" xlink:title="org.msrg.raccoon.matrix.\lDoubleMatrix.DoubleMatrix">
<polygon fill="none" stroke="black" points="349,-120 349,-150 484,-150 484,-120 349,-120"/>
<text text-anchor="start" x="357" y="-138" font-family="Helvetica,sans-Serif" font-size="10.00">org.msrg.raccoon.matrix.</text>
<text text-anchor="middle" x="416.5" y="-127" font-family="Helvetica,sans-Serif" font-size="10.00">DoubleMatrix.DoubleMatrix</text>
</a>
</g>
</g>
<!-- Node1&#45;&gt;Node3 -->
<g id="edge5" class="edge"><title>Node1&#45;&gt;Node3</title>
<path fill="none" stroke="midnightblue" d="M152.124,-113.214C207.591,-117.802 282.835,-124.026 338.696,-128.647"/>
<polygon fill="midnightblue" stroke="midnightblue" points="338.637,-132.154 348.892,-129.49 339.214,-125.178 338.637,-132.154"/>
</g>
<!-- Node2&#45;&gt;Node3 -->
<g id="edge2" class="edge"><title>Node2&#45;&gt;Node3</title>
<path fill="none" stroke="midnightblue" d="M298.936,-98.0406C317.549,-103.942 339.071,-110.766 358.517,-116.932"/>
<polygon fill="midnightblue" stroke="midnightblue" points="357.581,-120.307 368.171,-119.993 359.697,-113.634 357.581,-120.307"/>
</g>
<!-- Node4 -->
<g id="node4" class="node"><title>Node4</title>
<g id="a_node4"><a xlink:href="../../db/d3f/classorg_1_1msrg_1_1raccoon_1_1matrix_1_1TypedMatrix_af7ccc065eb74dab0bd851c7d59f2eb2a.html#af7ccc065eb74dab0bd851c7d59f2eb2a" target="_top" xlink:title="org.msrg.raccoon.matrix.\lTypedMatrix\&lt; Float \&gt;::\lgetColumnSize">
<polygon fill="none" stroke="black" points="354,-60.5 354,-101.5 479,-101.5 479,-60.5 354,-60.5"/>
<text text-anchor="start" x="362" y="-89.5" font-family="Helvetica,sans-Serif" font-size="10.00">org.msrg.raccoon.matrix.</text>
<text text-anchor="start" x="362" y="-78.5" font-family="Helvetica,sans-Serif" font-size="10.00">TypedMatrix&lt; Float &gt;::</text>
<text text-anchor="middle" x="416.5" y="-67.5" font-family="Helvetica,sans-Serif" font-size="10.00">getColumnSize</text>
</a>
</g>
</g>
<!-- Node2&#45;&gt;Node4 -->
<g id="edge3" class="edge"><title>Node2&#45;&gt;Node4</title>
<path fill="none" stroke="midnightblue" d="M313.034,-82.2496C323.055,-82.1274 333.511,-81.9999 343.751,-81.875"/>
<polygon fill="midnightblue" stroke="midnightblue" points="343.937,-85.3731 353.894,-81.7513 343.852,-78.3736 343.937,-85.3731"/>
</g>
<!-- Node5 -->
<g id="node5" class="node"><title>Node5</title>
<g id="a_node5"><a xlink:href="../../db/d3f/classorg_1_1msrg_1_1raccoon_1_1matrix_1_1TypedMatrix_aba5684317273db23da9933dd1acdc94c.html#aba5684317273db23da9933dd1acdc94c" target="_top" xlink:title="org.msrg.raccoon.matrix.\lTypedMatrix\&lt; Float \&gt;::\lgetRowSize">
<polygon fill="none" stroke="black" points="354,-0.5 354,-41.5 479,-41.5 479,-0.5 354,-0.5"/>
<text text-anchor="start" x="362" y="-29.5" font-family="Helvetica,sans-Serif" font-size="10.00">org.msrg.raccoon.matrix.</text>
<text text-anchor="start" x="362" y="-18.5" font-family="Helvetica,sans-Serif" font-size="10.00">TypedMatrix&lt; Float &gt;::</text>
<text text-anchor="middle" x="416.5" y="-7.5" font-family="Helvetica,sans-Serif" font-size="10.00">getRowSize</text>
</a>
</g>
</g>
<!-- Node2&#45;&gt;Node5 -->
<g id="edge4" class="edge"><title>Node2&#45;&gt;Node5</title>
<path fill="none" stroke="midnightblue" d="M291.2,-67.9915C309.286,-61.1542 331.152,-52.8876 351.471,-45.2062"/>
<polygon fill="midnightblue" stroke="midnightblue" points="352.87,-48.4189 360.987,-41.6088 350.395,-41.8712 352.87,-48.4189"/>
</g>
</g>
</svg>
