<?xml version="1.0" encoding="UTF-8" standalone="no"?>
<!DOCTYPE svg PUBLIC "-//W3C//DTD SVG 1.1//EN"
 "http://www.w3.org/Graphics/SVG/1.1/DTD/svg11.dtd">
<!-- Generated by graphviz version 2.38.0 (20140413.2041)
 -->
<!-- Title: org.msrg.raccoon.matrix.DoubleMatrix.decloneExtended Pages: 1 -->
<svg width="492pt" height="160pt"
 viewBox="0.00 0.00 492.00 159.50" xmlns="http://www.w3.org/2000/svg" xmlns:xlink="http://www.w3.org/1999/xlink">
<g id="graph0" class="graph" transform="scale(1 1) rotate(0) translate(4 155.5)">
<title>org.msrg.raccoon.matrix.DoubleMatrix.decloneExtended</title>
<!-- Node0 -->
<g id="node1" class="node"><title>Node0</title>
<polygon fill="#bfbfbf" stroke="black" points="0,-93 0,-123 152,-123 152,-93 0,-93"/>
<text text-anchor="start" x="8" y="-111" font-family="Helvetica,sans-Serif" font-size="10.00">org.msrg.raccoon.matrix.</text>
<text text-anchor="middle" x="76" y="-100" font-family="Helvetica,sans-Serif" font-size="10.00">DoubleMatrix.decloneExtended</text>
</g>
<!-- Node1 -->
<g id="node2" class="node"><title>Node1</title>
<g id="a_node2"><a xlink:href="../../dd/d0e/classorg_1_1msrg_1_1raccoon_1_1matrix_1_1DoubleMatrix_a1a9721261b944703af971419b0dbc20e.html#a1a9721261b944703af971419b0dbc20e" target="_top" xlink:title="org.msrg.raccoon.matrix.\lDoubleMatrix.clone">
<polygon fill="none" stroke="black" points="188,-69 188,-99 313,-99 313,-69 188,-69"/>
<text text-anchor="start" x="196" y="-87" font-family="Helvetica,sans-Serif" font-size="10.00">org.msrg.raccoon.matrix.</text>
<text text-anchor="middle" x="250.5" y="-76" font-family="Helvetica,sans-Serif" font-size="10.00">DoubleMatrix.clone</text>
</a>
</g>
</g>
<!-- Node0&#45;&gt;Node1 -->
<g id="edge1" class="edge"><title>Node0&#45;&gt;Node1</title>
<path fill="none" stroke="midnightblue" d="M152.159,-97.5431C160.615,-96.3666 169.215,-95.1701 177.628,-93.9996"/>
<polygon fill="midnightblue" stroke="midnightblue" points="178.351,-97.4328 187.774,-92.588 177.387,-90.4995 178.351,-97.4328"/>
</g>
<!-- Node2 -->
<g id="node3" class="node"><title>Node2</title>
<g id="a_node3"><a xlink:href="../../dd/d0e/classorg_1_1msrg_1_1raccoon_1_1matrix_1_1DoubleMatrix_ab990e9a82b0bc64daa035b7a47bf68a6.html#ab990e9a82b0bc64daa035b7a47bf68a6" target="_top" xlink:title="org.msrg.raccoon.matrix.\lDoubleMatrix.DoubleMatrix">
<polygon fill="none" stroke="black" points="349,-121 349,-151 484,-151 484,-121 349,-121"/>
<text text-anchor="start" x="357" y="-139" font-family="Helvetica,sans-Serif" font-size="10.00">org.msrg.raccoon.matrix.</text>
<text text-anchor="middle" x="416.5" y="-128" font-family="Helvetica,sans-Serif" font-size="10.00">DoubleMatrix.DoubleMatrix</text>
</a>
</g>
</g>
<!-- Node0&#45;&gt;Node2 -->
<g id="edge5" class="edge"><title>Node0&#45;&gt;Node2</title>
<path fill="none" stroke="midnightblue" d="M152.124,-114.214C207.591,-118.802 282.835,-125.026 338.696,-129.647"/>
<polygon fill="midnightblue" stroke="midnightblue" points="338.637,-133.154 348.892,-130.49 339.214,-126.178 338.637,-133.154"/>
</g>
<!-- Node1&#45;&gt;Node2 -->
<g id="edge2" class="edge"><title>Node1&#45;&gt;Node2</title>
<path fill="none" stroke="midnightblue" d="M298.936,-99.0406C317.549,-104.942 339.071,-111.766 358.517,-117.932"/>
<polygon fill="midnightblue" stroke="midnightblue" points="357.581,-121.307 368.171,-120.993 359.697,-114.634 357.581,-121.307"/>
</g>
<!-- Node3 -->
<g id="node4" class="node"><title>Node3</title>
<g id="a_node4"><a xlink:href="../../db/d3f/classorg_1_1msrg_1_1raccoon_1_1matrix_1_1TypedMatrix_af7ccc065eb74dab0bd851c7d59f2eb2a.html#af7ccc065eb74dab0bd851c7d59f2eb2a" target="_top" xlink:title="org.msrg.raccoon.matrix.\lTypedMatrix\&lt; Float \&gt;::\lgetColumnSize">
<polygon fill="none" stroke="black" points="354,-60.5 354,-101.5 479,-101.5 479,-60.5 354,-60.5"/>
<text text-anchor="start" x="362" y="-89.5" font-family="Helvetica,sans-Serif" font-size="10.00">org.msrg.raccoon.matrix.</text>
<text text-anchor="start" x="362" y="-78.5" font-family="Helvetica,sans-Serif" font-size="10.00">TypedMatrix&lt; Float &gt;::</text>
<text text-anchor="middle" x="416.5" y="-67.5" font-family="Helvetica,sans-Serif" font-size="10.00">getColumnSize</text>
</a>
</g>
</g>
<!-- Node1&#45;&gt;Node3 -->
<g id="edge3" class="edge"><title>Node1&#45;&gt;Node3</title>
<path fill="none" stroke="midnightblue" d="M313.034,-82.8744C323.055,-82.6911 333.511,-82.4998 343.751,-82.3125"/>
<polygon fill="midnightblue" stroke="midnightblue" points="343.96,-85.8094 353.894,-82.1269 343.831,-78.8105 343.96,-85.8094"/>
</g>
<!-- Node4 -->
<g id="node5" class="node"><title>Node4</title>
<g id="a_node5"><a xlink:href="../../db/d3f/classorg_1_1msrg_1_1raccoon_1_1matrix_1_1TypedMatrix_aba5684317273db23da9933dd1acdc94c.html#aba5684317273db23da9933dd1acdc94c" target="_top" xlink:title="org.msrg.raccoon.matrix.\lTypedMatrix\&lt; Float \&gt;::\lgetRowSize">
<polygon fill="none" stroke="black" points="354,-0.5 354,-41.5 479,-41.5 479,-0.5 354,-0.5"/>
<text text-anchor="start" x="362" y="-29.5" font-family="Helvetica,sans-Serif" font-size="10.00">org.msrg.raccoon.matrix.</text>
<text text-anchor="start" x="362" y="-18.5" font-family="Helvetica,sans-Serif" font-size="10.00">TypedMatrix&lt; Float &gt;::</text>
<text text-anchor="middle" x="416.5" y="-7.5" font-family="Helvetica,sans-Serif" font-size="10.00">getRowSize</text>
</a>
</g>
</g>
<!-- Node1&#45;&gt;Node4 -->
<g id="edge4" class="edge"><title>Node1&#45;&gt;Node4</title>
<path fill="none" stroke="midnightblue" d="M290.782,-68.9099C309.272,-61.8072 331.782,-53.1601 352.562,-45.1773"/>
<polygon fill="midnightblue" stroke="midnightblue" points="353.888,-48.4175 361.968,-41.5642 351.378,-41.883 353.888,-48.4175"/>
</g>
</g>
</svg>
