<?xml version="1.0" encoding="UTF-8" standalone="no"?>
<!DOCTYPE svg PUBLIC "-//W3C//DTD SVG 1.1//EN"
 "http://www.w3.org/Graphics/SVG/1.1/DTD/svg11.dtd">
<!-- Generated by graphviz version 2.38.0 (20140413.2041)
 -->
<!-- Title: org.msrg.raccoon.matrix.DoubleMatrix.cloneExtended Pages: 1 -->
<svg width="482pt" height="257pt"
 viewBox="0.00 0.00 482.00 257.00" xmlns="http://www.w3.org/2000/svg" xmlns:xlink="http://www.w3.org/1999/xlink">
<g id="graph0" class="graph" transform="scale(1 1) rotate(0) translate(4 253)">
<title>org.msrg.raccoon.matrix.DoubleMatrix.cloneExtended</title>
<!-- Node1 -->
<g id="node1" class="node"><title>Node1</title>
<polygon fill="#bfbfbf" stroke="black" points="0,-112.5 0,-142.5 142,-142.5 142,-112.5 0,-112.5"/>
<text text-anchor="start" x="8" y="-130.5" font-family="Helvetica,sans-Serif" font-size="10.00">org.msrg.raccoon.matrix.</text>
<text text-anchor="middle" x="71" y="-119.5" font-family="Helvetica,sans-Serif" font-size="10.00">DoubleMatrix.cloneExtended</text>
</g>
<!-- Node2 -->
<g id="node2" class="node"><title>Node2</title>
<g id="a_node2"><a xlink:href="../../dd/d0e/classorg_1_1msrg_1_1raccoon_1_1matrix_1_1DoubleMatrix_a1a9721261b944703af971419b0dbc20e.html#a1a9721261b944703af971419b0dbc20e" target="_top" xlink:title="org.msrg.raccoon.matrix.\lDoubleMatrix.clone">
<polygon fill="none" stroke="black" points="178,-175.5 178,-205.5 303,-205.5 303,-175.5 178,-175.5"/>
<text text-anchor="start" x="186" y="-193.5" font-family="Helvetica,sans-Serif" font-size="10.00">org.msrg.raccoon.matrix.</text>
<text text-anchor="middle" x="240.5" y="-182.5" font-family="Helvetica,sans-Serif" font-size="10.00">DoubleMatrix.clone</text>
</a>
</g>
</g>
<!-- Node1&#45;&gt;Node2 -->
<g id="edge1" class="edge"><title>Node1&#45;&gt;Node2</title>
<path fill="none" stroke="midnightblue" d="M112.12,-142.59C135.446,-151.363 165.036,-162.493 189.825,-171.816"/>
<polygon fill="midnightblue" stroke="midnightblue" points="188.825,-175.179 199.417,-175.424 191.289,-168.628 188.825,-175.179"/>
</g>
<!-- Node3 -->
<g id="node3" class="node"><title>Node3</title>
<g id="a_node3"><a xlink:href="../../dd/d0e/classorg_1_1msrg_1_1raccoon_1_1matrix_1_1DoubleMatrix_ab990e9a82b0bc64daa035b7a47bf68a6.html#ab990e9a82b0bc64daa035b7a47bf68a6" target="_top" xlink:title="org.msrg.raccoon.matrix.\lDoubleMatrix.DoubleMatrix">
<polygon fill="none" stroke="black" points="339,-218.5 339,-248.5 474,-248.5 474,-218.5 339,-218.5"/>
<text text-anchor="start" x="347" y="-236.5" font-family="Helvetica,sans-Serif" font-size="10.00">org.msrg.raccoon.matrix.</text>
<text text-anchor="middle" x="406.5" y="-225.5" font-family="Helvetica,sans-Serif" font-size="10.00">DoubleMatrix.DoubleMatrix</text>
</a>
</g>
</g>
<!-- Node1&#45;&gt;Node3 -->
<g id="edge5" class="edge"><title>Node1&#45;&gt;Node3</title>
<path fill="none" stroke="midnightblue" d="M84.8968,-142.717C103.226,-163.136 138.95,-198.663 178,-214.5 225.634,-233.819 283.392,-238.44 328.792,-238.297"/>
<polygon fill="midnightblue" stroke="midnightblue" points="328.909,-241.796 338.871,-238.187 328.833,-234.796 328.909,-241.796"/>
</g>
<!-- Node4 -->
<g id="node4" class="node"><title>Node4</title>
<g id="a_node4"><a xlink:href="../../db/d3f/classorg_1_1msrg_1_1raccoon_1_1matrix_1_1TypedMatrix_af7ccc065eb74dab0bd851c7d59f2eb2a.html#af7ccc065eb74dab0bd851c7d59f2eb2a" target="_top" xlink:title="org.msrg.raccoon.matrix.\lTypedMatrix\&lt; Float \&gt;::\lgetColumnSize">
<polygon fill="none" stroke="black" points="344,-159 344,-200 469,-200 469,-159 344,-159"/>
<text text-anchor="start" x="352" y="-188" font-family="Helvetica,sans-Serif" font-size="10.00">org.msrg.raccoon.matrix.</text>
<text text-anchor="start" x="352" y="-177" font-family="Helvetica,sans-Serif" font-size="10.00">TypedMatrix&lt; Float &gt;::</text>
<text text-anchor="middle" x="406.5" y="-166" font-family="Helvetica,sans-Serif" font-size="10.00">getColumnSize</text>
</a>
</g>
</g>
<!-- Node1&#45;&gt;Node4 -->
<g id="edge6" class="edge"><title>Node1&#45;&gt;Node4</title>
<path fill="none" stroke="midnightblue" d="M142.319,-138.464C198.657,-147.249 277.369,-159.521 334.012,-168.354"/>
<polygon fill="midnightblue" stroke="midnightblue" points="333.547,-171.823 343.967,-169.906 334.626,-164.907 333.547,-171.823"/>
</g>
<!-- Node5 -->
<g id="node5" class="node"><title>Node5</title>
<g id="a_node5"><a xlink:href="../../db/d3f/classorg_1_1msrg_1_1raccoon_1_1matrix_1_1TypedMatrix_aba5684317273db23da9933dd1acdc94c.html#aba5684317273db23da9933dd1acdc94c" target="_top" xlink:title="org.msrg.raccoon.matrix.\lTypedMatrix\&lt; Float \&gt;::\lgetRowSize">
<polygon fill="none" stroke="black" points="344,-99 344,-140 469,-140 469,-99 344,-99"/>
<text text-anchor="start" x="352" y="-128" font-family="Helvetica,sans-Serif" font-size="10.00">org.msrg.raccoon.matrix.</text>
<text text-anchor="start" x="352" y="-117" font-family="Helvetica,sans-Serif" font-size="10.00">TypedMatrix&lt; Float &gt;::</text>
<text text-anchor="middle" x="406.5" y="-106" font-family="Helvetica,sans-Serif" font-size="10.00">getRowSize</text>
</a>
</g>
</g>
<!-- Node1&#45;&gt;Node5 -->
<g id="edge9" class="edge"><title>Node1&#45;&gt;Node5</title>
<path fill="none" stroke="midnightblue" d="M142.319,-125.813C198.54,-124.465 277.043,-122.581 333.66,-121.223"/>
<polygon fill="midnightblue" stroke="midnightblue" points="334.054,-124.715 343.967,-120.976 333.886,-117.717 334.054,-124.715"/>
</g>
<!-- Node6 -->
<g id="node6" class="node"><title>Node6</title>
<g id="a_node6"><a xlink:href="../../dd/d0e/classorg_1_1msrg_1_1raccoon_1_1matrix_1_1DoubleMatrix_a8cb762b7e50cf7cdab63e7fd0cd8288a.html#a8cb762b7e50cf7cdab63e7fd0cd8288a" target="_top" xlink:title="org.msrg.raccoon.matrix.\lDoubleMatrix.getOne">
<polygon fill="none" stroke="black" points="178,-49.5 178,-79.5 303,-79.5 303,-49.5 178,-49.5"/>
<text text-anchor="start" x="186" y="-67.5" font-family="Helvetica,sans-Serif" font-size="10.00">org.msrg.raccoon.matrix.</text>
<text text-anchor="middle" x="240.5" y="-56.5" font-family="Helvetica,sans-Serif" font-size="10.00">DoubleMatrix.getOne</text>
</a>
</g>
</g>
<!-- Node1&#45;&gt;Node6 -->
<g id="edge7" class="edge"><title>Node1&#45;&gt;Node6</title>
<path fill="none" stroke="midnightblue" d="M112.12,-112.41C135.446,-103.637 165.036,-92.5072 189.825,-83.1837"/>
<polygon fill="midnightblue" stroke="midnightblue" points="191.289,-86.3724 199.417,-79.576 188.825,-79.8205 191.289,-86.3724"/>
</g>
<!-- Node8 -->
<g id="node8" class="node"><title>Node8</title>
<g id="a_node8"><a xlink:href="../../dd/d0e/classorg_1_1msrg_1_1raccoon_1_1matrix_1_1DoubleMatrix_aa2eec86c6c00482755dea168811302bf.html#aa2eec86c6c00482755dea168811302bf" target="_top" xlink:title="org.msrg.raccoon.matrix.\lDoubleMatrix.getZero">
<polygon fill="none" stroke="black" points="178,-0.5 178,-30.5 303,-30.5 303,-0.5 178,-0.5"/>
<text text-anchor="start" x="186" y="-18.5" font-family="Helvetica,sans-Serif" font-size="10.00">org.msrg.raccoon.matrix.</text>
<text text-anchor="middle" x="240.5" y="-7.5" font-family="Helvetica,sans-Serif" font-size="10.00">DoubleMatrix.getZero</text>
</a>
</g>
</g>
<!-- Node1&#45;&gt;Node8 -->
<g id="edge10" class="edge"><title>Node1&#45;&gt;Node8</title>
<path fill="none" stroke="midnightblue" d="M86.96,-112.372C106.475,-93.3091 142.35,-60.5063 178,-39.5 180.678,-37.9217 183.48,-36.4085 186.348,-34.9642"/>
<polygon fill="midnightblue" stroke="midnightblue" points="188.101,-38.0079 195.666,-30.5909 185.127,-31.671 188.101,-38.0079"/>
</g>
<!-- Node2&#45;&gt;Node3 -->
<g id="edge2" class="edge"><title>Node2&#45;&gt;Node3</title>
<path fill="none" stroke="midnightblue" d="M298.859,-205.539C311.593,-208.878 325.201,-212.446 338.289,-215.878"/>
<polygon fill="midnightblue" stroke="midnightblue" points="337.612,-219.318 348.173,-218.469 339.388,-212.547 337.612,-219.318"/>
</g>
<!-- Node2&#45;&gt;Node4 -->
<g id="edge3" class="edge"><title>Node2&#45;&gt;Node4</title>
<path fill="none" stroke="midnightblue" d="M303.034,-186.373C313.055,-185.701 323.511,-184.999 333.751,-184.312"/>
<polygon fill="midnightblue" stroke="midnightblue" points="334.15,-187.794 343.894,-183.632 333.682,-180.809 334.15,-187.794"/>
</g>
<!-- Node2&#45;&gt;Node5 -->
<g id="edge4" class="edge"><title>Node2&#45;&gt;Node5</title>
<path fill="none" stroke="midnightblue" d="M276.28,-175.443C297.281,-166.351 324.55,-154.546 348.621,-144.124"/>
<polygon fill="midnightblue" stroke="midnightblue" points="350.23,-147.242 358.016,-140.057 347.449,-140.818 350.23,-147.242"/>
</g>
<!-- Node7 -->
<g id="node7" class="node"><title>Node7</title>
<g id="a_node7"><a xlink:href="../../dd/d0e/classorg_1_1msrg_1_1raccoon_1_1matrix_1_1DoubleMatrix_aa091a58b633fc48e37bb722bbd8d4c44.html#aa091a58b633fc48e37bb722bbd8d4c44" target="_top" xlink:title="org.msrg.raccoon.matrix.\lDoubleMatrix.GetOne">
<polygon fill="none" stroke="black" points="344,-49.5 344,-79.5 469,-79.5 469,-49.5 344,-49.5"/>
<text text-anchor="start" x="352" y="-67.5" font-family="Helvetica,sans-Serif" font-size="10.00">org.msrg.raccoon.matrix.</text>
<text text-anchor="middle" x="406.5" y="-56.5" font-family="Helvetica,sans-Serif" font-size="10.00">DoubleMatrix.GetOne</text>
</a>
</g>
</g>
<!-- Node6&#45;&gt;Node7 -->
<g id="edge8" class="edge"><title>Node6&#45;&gt;Node7</title>
<path fill="none" stroke="midnightblue" d="M303.034,-64.5C313.055,-64.5 323.511,-64.5 333.751,-64.5"/>
<polygon fill="midnightblue" stroke="midnightblue" points="333.894,-68.0001 343.894,-64.5 333.894,-61.0001 333.894,-68.0001"/>
</g>
<!-- Node9 -->
<g id="node9" class="node"><title>Node9</title>
<g id="a_node9"><a xlink:href="../../dd/d0e/classorg_1_1msrg_1_1raccoon_1_1matrix_1_1DoubleMatrix_add532d2222ea49443a61c6fc8891f2d1.html#add532d2222ea49443a61c6fc8891f2d1" target="_top" xlink:title="org.msrg.raccoon.matrix.\lDoubleMatrix.GetZero">
<polygon fill="none" stroke="black" points="344,-0.5 344,-30.5 469,-30.5 469,-0.5 344,-0.5"/>
<text text-anchor="start" x="352" y="-18.5" font-family="Helvetica,sans-Serif" font-size="10.00">org.msrg.raccoon.matrix.</text>
<text text-anchor="middle" x="406.5" y="-7.5" font-family="Helvetica,sans-Serif" font-size="10.00">DoubleMatrix.GetZero</text>
</a>
</g>
</g>
<!-- Node8&#45;&gt;Node9 -->
<g id="edge11" class="edge"><title>Node8&#45;&gt;Node9</title>
<path fill="none" stroke="midnightblue" d="M303.034,-15.5C313.055,-15.5 323.511,-15.5 333.751,-15.5"/>
<polygon fill="midnightblue" stroke="midnightblue" points="333.894,-19.0001 343.894,-15.5 333.894,-12.0001 333.894,-19.0001"/>
</g>
</g>
</svg>
