<?xml version="1.0" encoding="UTF-8" standalone="no"?>
<!DOCTYPE svg PUBLIC "-//W3C//DTD SVG 1.1//EN"
 "http://www.w3.org/Graphics/SVG/1.1/DTD/svg11.dtd">
<!-- Generated by graphviz version 2.38.0 (20140413.2041)
 -->
<!-- Title: org.msrg.raccoon.matrix.DoubleMatrix.main Pages: 1 -->
<svg width="472pt" height="225pt"
 viewBox="0.00 0.00 472.00 225.00" xmlns="http://www.w3.org/2000/svg" xmlns:xlink="http://www.w3.org/1999/xlink">
<g id="graph0" class="graph" transform="scale(1 1) rotate(0) translate(4 221)">
<title>org.msrg.raccoon.matrix.DoubleMatrix.main</title>
<!-- Node1 -->
<g id="node1" class="node"><title>Node1</title>
<polygon fill="#bfbfbf" stroke="black" points="0,-98.5 0,-128.5 125,-128.5 125,-98.5 0,-98.5"/>
<text text-anchor="start" x="8" y="-116.5" font-family="Helvetica,sans-Serif" font-size="10.00">org.msrg.raccoon.matrix.</text>
<text text-anchor="middle" x="62.5" y="-105.5" font-family="Helvetica,sans-Serif" font-size="10.00">DoubleMatrix.main</text>
</g>
<!-- Node2 -->
<g id="node2" class="node"><title>Node2</title>
<g id="a_node2"><a xlink:href="../../dd/d0e/classorg_1_1msrg_1_1raccoon_1_1matrix_1_1DoubleMatrix_ac28be195fb5cad8a265c9a6b9b899de2.html#ac28be195fb5cad8a265c9a6b9b899de2" target="_top" xlink:title="org.msrg.raccoon.matrix.\lDoubleMatrix.createMatrix">
<polygon fill="none" stroke="black" points="161.5,-186.5 161.5,-216.5 292.5,-216.5 292.5,-186.5 161.5,-186.5"/>
<text text-anchor="start" x="169.5" y="-204.5" font-family="Helvetica,sans-Serif" font-size="10.00">org.msrg.raccoon.matrix.</text>
<text text-anchor="middle" x="227" y="-193.5" font-family="Helvetica,sans-Serif" font-size="10.00">DoubleMatrix.createMatrix</text>
</a>
</g>
</g>
<!-- Node1&#45;&gt;Node2 -->
<g id="edge1" class="edge"><title>Node1&#45;&gt;Node2</title>
<path fill="none" stroke="midnightblue" d="M87.1447,-128.509C106.649,-140.659 135.206,-157.922 161,-171.5 167.882,-175.123 175.284,-178.767 182.54,-182.206"/>
<polygon fill="midnightblue" stroke="midnightblue" points="181.06,-185.378 191.602,-186.434 184.02,-179.034 181.06,-185.378"/>
</g>
<!-- Node3 -->
<g id="node3" class="node"><title>Node3</title>
<g id="a_node3"><a xlink:href="../../dd/d0e/classorg_1_1msrg_1_1raccoon_1_1matrix_1_1DoubleMatrix_ab990e9a82b0bc64daa035b7a47bf68a6.html#ab990e9a82b0bc64daa035b7a47bf68a6" target="_top" xlink:title="org.msrg.raccoon.matrix.\lDoubleMatrix.DoubleMatrix">
<polygon fill="none" stroke="black" points="329,-164.5 329,-194.5 464,-194.5 464,-164.5 329,-164.5"/>
<text text-anchor="start" x="337" y="-182.5" font-family="Helvetica,sans-Serif" font-size="10.00">org.msrg.raccoon.matrix.</text>
<text text-anchor="middle" x="396.5" y="-171.5" font-family="Helvetica,sans-Serif" font-size="10.00">DoubleMatrix.DoubleMatrix</text>
</a>
</g>
</g>
<!-- Node1&#45;&gt;Node3 -->
<g id="edge3" class="edge"><title>Node1&#45;&gt;Node3</title>
<path fill="none" stroke="midnightblue" d="M119.008,-128.53C132.687,-132.013 147.333,-135.558 161,-138.5 213.416,-149.784 272.929,-160.161 318.884,-167.652"/>
<polygon fill="midnightblue" stroke="midnightblue" points="318.342,-171.109 328.773,-169.253 319.461,-164.199 318.342,-171.109"/>
</g>
<!-- Node4 -->
<g id="node4" class="node"><title>Node4</title>
<g id="a_node4"><a xlink:href="../../db/d3f/classorg_1_1msrg_1_1raccoon_1_1matrix_1_1TypedMatrix_a62f3b28a72c0c130fa783e1129694d4e.html#a62f3b28a72c0c130fa783e1129694d4e" target="_top" xlink:title="org.msrg.raccoon.matrix.\lTypedMatrix.inverseMatrix">
<polygon fill="none" stroke="black" points="161,-98.5 161,-128.5 293,-128.5 293,-98.5 161,-98.5"/>
<text text-anchor="start" x="169" y="-116.5" font-family="Helvetica,sans-Serif" font-size="10.00">org.msrg.raccoon.matrix.</text>
<text text-anchor="middle" x="227" y="-105.5" font-family="Helvetica,sans-Serif" font-size="10.00">TypedMatrix.inverseMatrix</text>
</a>
</g>
</g>
<!-- Node1&#45;&gt;Node4 -->
<g id="edge4" class="edge"><title>Node1&#45;&gt;Node4</title>
<path fill="none" stroke="midnightblue" d="M125.398,-113.5C133.624,-113.5 142.13,-113.5 150.553,-113.5"/>
<polygon fill="midnightblue" stroke="midnightblue" points="150.762,-117 160.762,-113.5 150.762,-110 150.762,-117"/>
</g>
<!-- Node5 -->
<g id="node5" class="node"><title>Node5</title>
<g id="a_node5"><a xlink:href="../../db/d3f/classorg_1_1msrg_1_1raccoon_1_1matrix_1_1TypedMatrix_a3bbb9fb8ae836b4d61acd52e001b72c2.html#a3bbb9fb8ae836b4d61acd52e001b72c2" target="_top" xlink:title="org.msrg.raccoon.matrix.\lTypedMatrix.isIdentity">
<polygon fill="none" stroke="black" points="164.5,-49.5 164.5,-79.5 289.5,-79.5 289.5,-49.5 164.5,-49.5"/>
<text text-anchor="start" x="172.5" y="-67.5" font-family="Helvetica,sans-Serif" font-size="10.00">org.msrg.raccoon.matrix.</text>
<text text-anchor="middle" x="227" y="-56.5" font-family="Helvetica,sans-Serif" font-size="10.00">TypedMatrix.isIdentity</text>
</a>
</g>
</g>
<!-- Node1&#45;&gt;Node5 -->
<g id="edge5" class="edge"><title>Node1&#45;&gt;Node5</title>
<path fill="none" stroke="midnightblue" d="M113.581,-98.3986C130.186,-93.3917 148.837,-87.7676 166.104,-82.561"/>
<polygon fill="midnightblue" stroke="midnightblue" points="167.52,-85.7896 176.084,-79.5516 165.499,-79.0877 167.52,-85.7896"/>
</g>
<!-- Node6 -->
<g id="node6" class="node"><title>Node6</title>
<g id="a_node6"><a xlink:href="../../d5/dcc/classorg_1_1msrg_1_1raccoon_1_1matrix_1_1MatrixFactory_ade989a224e218967ed11c1ca683d6cad.html#ade989a224e218967ed11c1ca683d6cad" target="_top" xlink:title="org.msrg.raccoon.matrix.\lMatrixFactory.multiply">
<polygon fill="none" stroke="black" points="164.5,-0.5 164.5,-30.5 289.5,-30.5 289.5,-0.5 164.5,-0.5"/>
<text text-anchor="start" x="172.5" y="-18.5" font-family="Helvetica,sans-Serif" font-size="10.00">org.msrg.raccoon.matrix.</text>
<text text-anchor="middle" x="227" y="-7.5" font-family="Helvetica,sans-Serif" font-size="10.00">MatrixFactory.multiply</text>
</a>
</g>
</g>
<!-- Node1&#45;&gt;Node6 -->
<g id="edge6" class="edge"><title>Node1&#45;&gt;Node6</title>
<path fill="none" stroke="midnightblue" d="M80.046,-98.4855C98.6379,-82.224 130.254,-56.3551 161,-39.5 164.046,-37.8303 167.232,-36.2319 170.487,-34.71"/>
<polygon fill="midnightblue" stroke="midnightblue" points="172.037,-37.852 179.786,-30.6277 169.223,-31.4424 172.037,-37.852"/>
</g>
<!-- Node2&#45;&gt;Node3 -->
<g id="edge2" class="edge"><title>Node2&#45;&gt;Node3</title>
<path fill="none" stroke="midnightblue" d="M292.76,-192.994C301.296,-191.873 310.109,-190.716 318.82,-189.571"/>
<polygon fill="midnightblue" stroke="midnightblue" points="319.516,-193.01 328.975,-188.238 318.605,-186.07 319.516,-193.01"/>
</g>
<!-- Node7 -->
<g id="node7" class="node"><title>Node7</title>
<g id="a_node7"><a xlink:href="../../db/d3f/classorg_1_1msrg_1_1raccoon_1_1matrix_1_1TypedMatrix_acd4cb24423a09596877fe45fab025fb2.html#acd4cb24423a09596877fe45fab025fb2" target="_top" xlink:title="org.msrg.raccoon.matrix.\lTypedMatrix.multiply">
<polygon fill="none" stroke="black" points="334,-0.5 334,-30.5 459,-30.5 459,-0.5 334,-0.5"/>
<text text-anchor="start" x="342" y="-18.5" font-family="Helvetica,sans-Serif" font-size="10.00">org.msrg.raccoon.matrix.</text>
<text text-anchor="middle" x="396.5" y="-7.5" font-family="Helvetica,sans-Serif" font-size="10.00">TypedMatrix.multiply</text>
</a>
</g>
</g>
<!-- Node6&#45;&gt;Node7 -->
<g id="edge7" class="edge"><title>Node6&#45;&gt;Node7</title>
<path fill="none" stroke="midnightblue" d="M289.895,-15.5C300.883,-15.5 312.411,-15.5 323.647,-15.5"/>
<polygon fill="midnightblue" stroke="midnightblue" points="323.86,-19.0001 333.859,-15.5 323.859,-12.0001 323.86,-19.0001"/>
</g>
</g>
</svg>
