<?xml version="1.0" encoding="UTF-8" standalone="no"?>
<!DOCTYPE svg PUBLIC "-//W3C//DTD SVG 1.1//EN"
 "http://www.w3.org/Graphics/SVG/1.1/DTD/svg11.dtd">
<!-- Generated by graphviz version 2.38.0 (20140413.2041)
 -->
<!-- Title: org.msrg.raccoon.matrix.DoubleMatrix.createRandomDoubleMatrix Pages: 1 -->
<svg width="555pt" height="50pt"
 viewBox="0.00 0.00 555.00 50.00" xmlns="http://www.w3.org/2000/svg" xmlns:xlink="http://www.w3.org/1999/xlink">
<g id="graph0" class="graph" transform="scale(1 1) rotate(0) translate(4 46)">
<title>org.msrg.raccoon.matrix.DoubleMatrix.createRandomDoubleMatrix</title>
<!-- Node1 -->
<g id="node1" class="node"><title>Node1</title>
<polygon fill="#bfbfbf" stroke="black" points="0,-0.5 0,-41.5 172,-41.5 172,-0.5 0,-0.5"/>
<text text-anchor="start" x="8" y="-29.5" font-family="Helvetica,sans-Serif" font-size="10.00">org.msrg.raccoon.matrix.</text>
<text text-anchor="start" x="8" y="-18.5" font-family="Helvetica,sans-Serif" font-size="10.00">DoubleMatrix.createRandomDouble</text>
<text text-anchor="middle" x="86" y="-7.5" font-family="Helvetica,sans-Serif" font-size="10.00">Matrix</text>
</g>
<!-- Node2 -->
<g id="node2" class="node"><title>Node2</title>
<g id="a_node2"><a xlink:href="../../dd/d0e/classorg_1_1msrg_1_1raccoon_1_1matrix_1_1DoubleMatrix_abc3264506b753fec896ea8a260a64596.html#abc3264506b753fec896ea8a260a64596" target="_top" xlink:title="org.msrg.raccoon.matrix.\lDoubleMatrix.createRandomMatrix">
<polygon fill="none" stroke="black" points="208,-6 208,-36 376,-36 376,-6 208,-6"/>
<text text-anchor="start" x="216" y="-24" font-family="Helvetica,sans-Serif" font-size="10.00">org.msrg.raccoon.matrix.</text>
<text text-anchor="middle" x="292" y="-13" font-family="Helvetica,sans-Serif" font-size="10.00">DoubleMatrix.createRandomMatrix</text>
</a>
</g>
</g>
<!-- Node1&#45;&gt;Node2 -->
<g id="edge1" class="edge"><title>Node1&#45;&gt;Node2</title>
<path fill="none" stroke="midnightblue" d="M172.037,-21C180.524,-21 189.171,-21 197.736,-21"/>
<polygon fill="midnightblue" stroke="midnightblue" points="197.738,-24.5001 207.738,-21 197.738,-17.5001 197.738,-24.5001"/>
</g>
<!-- Node3 -->
<g id="node3" class="node"><title>Node3</title>
<g id="a_node3"><a xlink:href="../../dd/d0e/classorg_1_1msrg_1_1raccoon_1_1matrix_1_1DoubleMatrix_ab990e9a82b0bc64daa035b7a47bf68a6.html#ab990e9a82b0bc64daa035b7a47bf68a6" target="_top" xlink:title="org.msrg.raccoon.matrix.\lDoubleMatrix.DoubleMatrix">
<polygon fill="none" stroke="black" points="412,-6 412,-36 547,-36 547,-6 412,-6"/>
<text text-anchor="start" x="420" y="-24" font-family="Helvetica,sans-Serif" font-size="10.00">org.msrg.raccoon.matrix.</text>
<text text-anchor="middle" x="479.5" y="-13" font-family="Helvetica,sans-Serif" font-size="10.00">DoubleMatrix.DoubleMatrix</text>
</a>
</g>
</g>
<!-- Node2&#45;&gt;Node3 -->
<g id="edge2" class="edge"><title>Node2&#45;&gt;Node3</title>
<path fill="none" stroke="midnightblue" d="M376.254,-21C384.745,-21 393.343,-21 401.76,-21"/>
<polygon fill="midnightblue" stroke="midnightblue" points="401.917,-24.5001 411.917,-21 401.917,-17.5001 401.917,-24.5001"/>
</g>
</g>
</svg>
