<?xml version="1.0" encoding="UTF-8" standalone="no"?>
<!DOCTYPE svg PUBLIC "-//W3C//DTD SVG 1.1//EN"
 "http://www.w3.org/Graphics/SVG/1.1/DTD/svg11.dtd">
<!-- Generated by graphviz version 2.38.0 (20140413.2041)
 -->
<!-- Title: org.msrg.raccoon.matrix.DoubleMatrix.createRandomIntegerMatrix Pages: 1 -->
<svg width="387pt" height="100pt"
 viewBox="0.00 0.00 387.00 99.50" xmlns="http://www.w3.org/2000/svg" xmlns:xlink="http://www.w3.org/1999/xlink">
<g id="graph0" class="graph" transform="scale(1 1) rotate(0) translate(4 95.5)">
<title>org.msrg.raccoon.matrix.DoubleMatrix.createRandomIntegerMatrix</title>
<!-- Node3 -->
<g id="node1" class="node"><title>Node3</title>
<polygon fill="#bfbfbf" stroke="black" points="0,-22 0,-63 171,-63 171,-22 0,-22"/>
<text text-anchor="start" x="8" y="-51" font-family="Helvetica,sans-Serif" font-size="10.00">org.msrg.raccoon.matrix.</text>
<text text-anchor="start" x="8" y="-40" font-family="Helvetica,sans-Serif" font-size="10.00">DoubleMatrix.createRandomInteger</text>
<text text-anchor="middle" x="85.5" y="-29" font-family="Helvetica,sans-Serif" font-size="10.00">Matrix</text>
</g>
<!-- Node4 -->
<g id="node2" class="node"><title>Node4</title>
<g id="a_node2"><a xlink:href="../../dd/d0e/classorg_1_1msrg_1_1raccoon_1_1matrix_1_1DoubleMatrix_a25dc9a6078b472851371be06a80f64b8.html#a25dc9a6078b472851371be06a80f64b8" target="_top" xlink:title="org.msrg.raccoon.matrix.\lDoubleMatrix.createRandomSquare\lIntegerMatrix">
<polygon fill="none" stroke="black" points="207,-50 207,-91 379,-91 379,-50 207,-50"/>
<text text-anchor="start" x="215" y="-79" font-family="Helvetica,sans-Serif" font-size="10.00">org.msrg.raccoon.matrix.</text>
<text text-anchor="start" x="215" y="-68" font-family="Helvetica,sans-Serif" font-size="10.00">DoubleMatrix.createRandomSquare</text>
<text text-anchor="middle" x="293" y="-57" font-family="Helvetica,sans-Serif" font-size="10.00">IntegerMatrix</text>
</a>
</g>
</g>
<!-- Node3&#45;&gt;Node4 -->
<g id="edge1" class="edge"><title>Node3&#45;&gt;Node4</title>
<path fill="none" stroke="midnightblue" d="M181.222,-55.4061C189.739,-56.5667 198.331,-57.7373 206.76,-58.8858"/>
<polygon fill="midnightblue" stroke="midnightblue" points="181.652,-51.9325 171.271,-54.0503 180.707,-58.8684 181.652,-51.9325"/>
</g>
<!-- Node5 -->
<g id="node3" class="node"><title>Node5</title>
<g id="a_node3"><a xlink:href="../../dd/d0e/classorg_1_1msrg_1_1raccoon_1_1matrix_1_1DoubleMatrix_a6295a296b6239fef50c22aa29ac16338.html#a6295a296b6239fef50c22aa29ac16338" target="_top" xlink:title="org.msrg.raccoon.matrix.\lDoubleMatrix.main0">
<polygon fill="none" stroke="black" points="230.5,-0.5 230.5,-30.5 355.5,-30.5 355.5,-0.5 230.5,-0.5"/>
<text text-anchor="start" x="238.5" y="-18.5" font-family="Helvetica,sans-Serif" font-size="10.00">org.msrg.raccoon.matrix.</text>
<text text-anchor="middle" x="293" y="-7.5" font-family="Helvetica,sans-Serif" font-size="10.00">DoubleMatrix.main0</text>
</a>
</g>
</g>
<!-- Node3&#45;&gt;Node5 -->
<g id="edge2" class="edge"><title>Node3&#45;&gt;Node5</title>
<path fill="none" stroke="midnightblue" d="M181.541,-30.0128C198.117,-27.835 214.962,-25.6218 230.337,-23.6017"/>
<polygon fill="midnightblue" stroke="midnightblue" points="180.73,-26.5893 171.271,-31.3622 181.642,-33.5296 180.73,-26.5893"/>
</g>
</g>
</svg>
