<?xml version="1.0" encoding="UTF-8" standalone="no"?>
<!DOCTYPE svg PUBLIC "-//W3C//DTD SVG 1.1//EN"
 "http://www.w3.org/Graphics/SVG/1.1/DTD/svg11.dtd">
<!-- Generated by graphviz version 2.38.0 (20140413.2041)
 -->
<!-- Title: org.msrg.raccoon.matrix.DoubleMatrix.createRandomMatrix Pages: 1 -->
<svg width="592pt" height="132pt"
 viewBox="0.00 0.00 592.00 131.50" xmlns="http://www.w3.org/2000/svg" xmlns:xlink="http://www.w3.org/1999/xlink">
<g id="graph0" class="graph" transform="scale(1 1) rotate(0) translate(4 127.5)">
<title>org.msrg.raccoon.matrix.DoubleMatrix.createRandomMatrix</title>
<!-- Node1 -->
<g id="node1" class="node"><title>Node1</title>
<polygon fill="#bfbfbf" stroke="black" points="0,-57.5 0,-87.5 168,-87.5 168,-57.5 0,-57.5"/>
<text text-anchor="start" x="8" y="-75.5" font-family="Helvetica,sans-Serif" font-size="10.00">org.msrg.raccoon.matrix.</text>
<text text-anchor="middle" x="84" y="-64.5" font-family="Helvetica,sans-Serif" font-size="10.00">DoubleMatrix.createRandomMatrix</text>
</g>
<!-- Node2 -->
<g id="node2" class="node"><title>Node2</title>
<g id="a_node2"><a xlink:href="../../dd/d0e/classorg_1_1msrg_1_1raccoon_1_1matrix_1_1DoubleMatrix_a54958b90028a94d68e1f4cb59cad7ae9.html#a54958b90028a94d68e1f4cb59cad7ae9" target="_top" xlink:title="org.msrg.raccoon.matrix.\lDoubleMatrix.createRandomDouble\lMatrix">
<polygon fill="none" stroke="black" points="204,-82 204,-123 376,-123 376,-82 204,-82"/>
<text text-anchor="start" x="212" y="-111" font-family="Helvetica,sans-Serif" font-size="10.00">org.msrg.raccoon.matrix.</text>
<text text-anchor="start" x="212" y="-100" font-family="Helvetica,sans-Serif" font-size="10.00">DoubleMatrix.createRandomDouble</text>
<text text-anchor="middle" x="290" y="-89" font-family="Helvetica,sans-Serif" font-size="10.00">Matrix</text>
</a>
</g>
</g>
<!-- Node1&#45;&gt;Node2 -->
<g id="edge1" class="edge"><title>Node1&#45;&gt;Node2</title>
<path fill="none" stroke="midnightblue" d="M178.189,-86.2042C186.683,-87.4534 195.26,-88.7147 203.68,-89.953"/>
<polygon fill="midnightblue" stroke="midnightblue" points="178.672,-82.7377 168.269,-84.7454 177.653,-89.6632 178.672,-82.7377"/>
</g>
<!-- Node3 -->
<g id="node3" class="node"><title>Node3</title>
<g id="a_node3"><a xlink:href="../../dd/d0e/classorg_1_1msrg_1_1raccoon_1_1matrix_1_1DoubleMatrix_a4bdcc6ba7a1483640b9a100a12f6735f.html#a4bdcc6ba7a1483640b9a100a12f6735f" target="_top" xlink:title="org.msrg.raccoon.matrix.\lDoubleMatrix.createRandomInteger\lMatrix">
<polygon fill="none" stroke="black" points="204.5,-22 204.5,-63 375.5,-63 375.5,-22 204.5,-22"/>
<text text-anchor="start" x="212.5" y="-51" font-family="Helvetica,sans-Serif" font-size="10.00">org.msrg.raccoon.matrix.</text>
<text text-anchor="start" x="212.5" y="-40" font-family="Helvetica,sans-Serif" font-size="10.00">DoubleMatrix.createRandomInteger</text>
<text text-anchor="middle" x="290" y="-29" font-family="Helvetica,sans-Serif" font-size="10.00">Matrix</text>
</a>
</g>
</g>
<!-- Node1&#45;&gt;Node3 -->
<g id="edge2" class="edge"><title>Node1&#45;&gt;Node3</title>
<path fill="none" stroke="midnightblue" d="M178.377,-58.7681C187.033,-57.4952 195.772,-56.21 204.343,-54.9495"/>
<polygon fill="midnightblue" stroke="midnightblue" points="177.653,-55.3368 168.269,-60.2546 178.672,-62.2623 177.653,-55.3368"/>
</g>
<!-- Node4 -->
<g id="node4" class="node"><title>Node4</title>
<g id="a_node4"><a xlink:href="../../dd/d0e/classorg_1_1msrg_1_1raccoon_1_1matrix_1_1DoubleMatrix_a25dc9a6078b472851371be06a80f64b8.html#a25dc9a6078b472851371be06a80f64b8" target="_top" xlink:title="org.msrg.raccoon.matrix.\lDoubleMatrix.createRandomSquare\lIntegerMatrix">
<polygon fill="none" stroke="black" points="412,-49 412,-90 584,-90 584,-49 412,-49"/>
<text text-anchor="start" x="420" y="-78" font-family="Helvetica,sans-Serif" font-size="10.00">org.msrg.raccoon.matrix.</text>
<text text-anchor="start" x="420" y="-67" font-family="Helvetica,sans-Serif" font-size="10.00">DoubleMatrix.createRandomSquare</text>
<text text-anchor="middle" x="498" y="-56" font-family="Helvetica,sans-Serif" font-size="10.00">IntegerMatrix</text>
</a>
</g>
</g>
<!-- Node3&#45;&gt;Node4 -->
<g id="edge3" class="edge"><title>Node3&#45;&gt;Node4</title>
<path fill="none" stroke="midnightblue" d="M385.858,-54.9329C394.572,-56.075 403.364,-57.2274 411.983,-58.357"/>
<polygon fill="midnightblue" stroke="midnightblue" points="386.05,-51.4281 375.68,-53.5988 385.14,-58.3688 386.05,-51.4281"/>
</g>
<!-- Node5 -->
<g id="node5" class="node"><title>Node5</title>
<g id="a_node5"><a xlink:href="../../dd/d0e/classorg_1_1msrg_1_1raccoon_1_1matrix_1_1DoubleMatrix_a6295a296b6239fef50c22aa29ac16338.html#a6295a296b6239fef50c22aa29ac16338" target="_top" xlink:title="org.msrg.raccoon.matrix.\lDoubleMatrix.main0">
<polygon fill="none" stroke="black" points="435.5,-0.5 435.5,-30.5 560.5,-30.5 560.5,-0.5 435.5,-0.5"/>
<text text-anchor="start" x="443.5" y="-18.5" font-family="Helvetica,sans-Serif" font-size="10.00">org.msrg.raccoon.matrix.</text>
<text text-anchor="middle" x="498" y="-7.5" font-family="Helvetica,sans-Serif" font-size="10.00">DoubleMatrix.main0</text>
</a>
</g>
</g>
<!-- Node3&#45;&gt;Node5 -->
<g id="edge4" class="edge"><title>Node3&#45;&gt;Node5</title>
<path fill="none" stroke="midnightblue" d="M386.048,-30.0423C402.783,-27.8488 419.8,-25.6184 435.318,-23.5846"/>
<polygon fill="midnightblue" stroke="midnightblue" points="385.14,-26.6312 375.68,-31.4012 386.05,-33.5719 385.14,-26.6312"/>
</g>
</g>
</svg>
