<?xml version="1.0" encoding="UTF-8" standalone="no"?>
<!DOCTYPE svg PUBLIC "-//W3C//DTD SVG 1.1//EN"
 "http://www.w3.org/Graphics/SVG/1.1/DTD/svg11.dtd">
<!-- Generated by graphviz version 2.38.0 (20140413.2041)
 -->
<!-- Title: org.msrg.raccoon.engine.CodingEngineEvent Pages: 1 -->
<svg width="1187pt" height="353pt"
 viewBox="0.00 0.00 1186.50 353.00" xmlns="http://www.w3.org/2000/svg" xmlns:xlink="http://www.w3.org/1999/xlink">
<g id="graph0" class="graph" transform="scale(1 1) rotate(0) translate(4 349)">
<title>org.msrg.raccoon.engine.CodingEngineEvent</title>
<!-- Node1 -->
<g id="node1" class="node"><title>Node1</title>
<polygon fill="#bfbfbf" stroke="black" points="327,-265.5 327,-344.5 454,-344.5 454,-265.5 327,-265.5"/>
<text text-anchor="start" x="335" y="-332.5" font-family="Helvetica,sans-Serif" font-size="10.00">org.msrg.raccoon.engine.</text>
<text text-anchor="middle" x="390.5" y="-321.5" font-family="Helvetica,sans-Serif" font-size="10.00">CodingEngineEvent</text>
<polyline fill="none" stroke="black" points="327,-314.5 454,-314.5 "/>
<text text-anchor="start" x="335" y="-302.5" font-family="Helvetica,sans-Serif" font-size="10.00">+ _eventType</text>
<polyline fill="none" stroke="black" points="327,-295.5 454,-295.5 "/>
<text text-anchor="start" x="335" y="-283.5" font-family="Helvetica,sans-Serif" font-size="10.00">+ toString()</text>
<text text-anchor="start" x="335" y="-272.5" font-family="Helvetica,sans-Serif" font-size="10.00"># CodingEngineEvent()</text>
</g>
<!-- Node2 -->
<g id="node2" class="node"><title>Node2</title>
<g id="a_node2"><a xlink:href="../../da/d4b/classorg_1_1msrg_1_1raccoon_1_1engine_1_1CodingEngineEvent__ExecutionEvent.html" target="_top" xlink:title="{org.msrg.raccoon.engine.\lCodingEngineEvent_ExecutionEvent\n|# _cThread\l# _cTask\l# _status\l|~ CodingEngineEvent_Execution\lEvent()\l}">
<polygon fill="none" stroke="black" points="0,-127.5 0,-228.5 177,-228.5 177,-127.5 0,-127.5"/>
<text text-anchor="start" x="8" y="-216.5" font-family="Helvetica,sans-Serif" font-size="10.00">org.msrg.raccoon.engine.</text>
<text text-anchor="middle" x="88.5" y="-205.5" font-family="Helvetica,sans-Serif" font-size="10.00">CodingEngineEvent_ExecutionEvent</text>
<polyline fill="none" stroke="black" points="0,-198.5 177,-198.5 "/>
<text text-anchor="start" x="8" y="-186.5" font-family="Helvetica,sans-Serif" font-size="10.00"># _cThread</text>
<text text-anchor="start" x="8" y="-175.5" font-family="Helvetica,sans-Serif" font-size="10.00"># _cTask</text>
<text text-anchor="start" x="8" y="-164.5" font-family="Helvetica,sans-Serif" font-size="10.00"># _status</text>
<polyline fill="none" stroke="black" points="0,-157.5 177,-157.5 "/>
<text text-anchor="start" x="8" y="-145.5" font-family="Helvetica,sans-Serif" font-size="10.00">~ CodingEngineEvent_Execution</text>
<text text-anchor="start" x="8" y="-134.5" font-family="Helvetica,sans-Serif" font-size="10.00">Event()</text>
</a>
</g>
</g>
<!-- Node1&#45;&gt;Node2 -->
<g id="edge1" class="edge"><title>Node1&#45;&gt;Node2</title>
<path fill="none" stroke="midnightblue" d="M317.324,-279.729C277.812,-266.001 228.463,-247.844 185.5,-229 182.724,-227.782 179.916,-226.522 177.091,-225.228"/>
<polygon fill="none" stroke="midnightblue" points="316.293,-283.076 326.888,-283.032 318.578,-276.459 316.293,-283.076"/>
</g>
<!-- Node3 -->
<g id="node3" class="node"><title>Node3</title>
<g id="a_node3"><a xlink:href="../../d1/d5b/classorg_1_1msrg_1_1raccoon_1_1engine_1_1CodingEngineEvent__NewCodingTask.html" target="_top" xlink:title="{org.msrg.raccoon.engine.\lCodingEngineEvent_NewCodingTask\n|# _cTask\l|+ CodingEngineEvent_NewCodingTask()\l}">
<polygon fill="none" stroke="black" points="194.5,-144 194.5,-212 390.5,-212 390.5,-144 194.5,-144"/>
<text text-anchor="start" x="202.5" y="-200" font-family="Helvetica,sans-Serif" font-size="10.00">org.msrg.raccoon.engine.</text>
<text text-anchor="middle" x="292.5" y="-189" font-family="Helvetica,sans-Serif" font-size="10.00">CodingEngineEvent_NewCodingTask</text>
<polyline fill="none" stroke="black" points="194.5,-182 390.5,-182 "/>
<text text-anchor="start" x="202.5" y="-170" font-family="Helvetica,sans-Serif" font-size="10.00"># _cTask</text>
<polyline fill="none" stroke="black" points="194.5,-163 390.5,-163 "/>
<text text-anchor="start" x="202.5" y="-151" font-family="Helvetica,sans-Serif" font-size="10.00">+ CodingEngineEvent_NewCodingTask()</text>
</a>
</g>
</g>
<!-- Node1&#45;&gt;Node3 -->
<g id="edge2" class="edge"><title>Node1&#45;&gt;Node3</title>
<path fill="none" stroke="midnightblue" d="M353.88,-257.291C342.107,-242.274 329.313,-225.955 318.468,-212.122"/>
<polygon fill="none" stroke="midnightblue" points="351.373,-259.766 360.297,-265.476 356.882,-255.447 351.373,-259.766"/>
</g>
<!-- Node4 -->
<g id="node4" class="node"><title>Node4</title>
<g id="a_node4"><a xlink:href="../../d8/d0c/classorg_1_1msrg_1_1raccoon_1_1engine_1_1CodingEngineEvent__SequentialCodingTaskEvents.html" target="_top" xlink:title="{org.msrg.raccoon.engine.\lCodingEngineEvent_Sequential\lCodingTaskEvents\n|+ _seqCodingTask\l|# CodingEngineEvent_Sequential\lCodingTaskEvents()\l}">
<polygon fill="none" stroke="black" points="408.5,-133 408.5,-223 570.5,-223 570.5,-133 408.5,-133"/>
<text text-anchor="start" x="416.5" y="-211" font-family="Helvetica,sans-Serif" font-size="10.00">org.msrg.raccoon.engine.</text>
<text text-anchor="start" x="416.5" y="-200" font-family="Helvetica,sans-Serif" font-size="10.00">CodingEngineEvent_Sequential</text>
<text text-anchor="middle" x="489.5" y="-189" font-family="Helvetica,sans-Serif" font-size="10.00">CodingTaskEvents</text>
<polyline fill="none" stroke="black" points="408.5,-182 570.5,-182 "/>
<text text-anchor="start" x="416.5" y="-170" font-family="Helvetica,sans-Serif" font-size="10.00">+ _seqCodingTask</text>
<polyline fill="none" stroke="black" points="408.5,-163 570.5,-163 "/>
<text text-anchor="start" x="416.5" y="-151" font-family="Helvetica,sans-Serif" font-size="10.00"># CodingEngineEvent_Sequential</text>
<text text-anchor="start" x="416.5" y="-140" font-family="Helvetica,sans-Serif" font-size="10.00">CodingTaskEvents()</text>
</a>
</g>
</g>
<!-- Node1&#45;&gt;Node4 -->
<g id="edge3" class="edge"><title>Node1&#45;&gt;Node4</title>
<path fill="none" stroke="midnightblue" d="M427.341,-257.484C436.199,-246.299 445.637,-234.383 454.412,-223.303"/>
<polygon fill="none" stroke="midnightblue" points="424.476,-255.464 421.011,-265.476 429.963,-259.81 424.476,-255.464"/>
</g>
<!-- Node7 -->
<g id="node7" class="node"><title>Node7</title>
<g id="a_node7"><a xlink:href="../../d5/da7/classorg_1_1msrg_1_1raccoon_1_1engine_1_1CodingEngineEvent__ThreadEvent.html" target="_top" xlink:title="{org.msrg.raccoon.engine.\lCodingEngineEvent_ThreadEvent\n|# _cThread\l|~ CodingEngineEvent_Thread\lEvent()\l}">
<polygon fill="none" stroke="black" points="701.5,-138.5 701.5,-217.5 865.5,-217.5 865.5,-138.5 701.5,-138.5"/>
<text text-anchor="start" x="709.5" y="-205.5" font-family="Helvetica,sans-Serif" font-size="10.00">org.msrg.raccoon.engine.</text>
<text text-anchor="middle" x="783.5" y="-194.5" font-family="Helvetica,sans-Serif" font-size="10.00">CodingEngineEvent_ThreadEvent</text>
<polyline fill="none" stroke="black" points="701.5,-187.5 865.5,-187.5 "/>
<text text-anchor="start" x="709.5" y="-175.5" font-family="Helvetica,sans-Serif" font-size="10.00"># _cThread</text>
<polyline fill="none" stroke="black" points="701.5,-168.5 865.5,-168.5 "/>
<text text-anchor="start" x="709.5" y="-156.5" font-family="Helvetica,sans-Serif" font-size="10.00">~ CodingEngineEvent_Thread</text>
<text text-anchor="start" x="709.5" y="-145.5" font-family="Helvetica,sans-Serif" font-size="10.00">Event()</text>
</a>
</g>
</g>
<!-- Node1&#45;&gt;Node7 -->
<g id="edge6" class="edge"><title>Node1&#45;&gt;Node7</title>
<path fill="none" stroke="midnightblue" d="M463.784,-280.691C531.211,-259.245 631.087,-227.477 701.223,-205.169"/>
<polygon fill="none" stroke="midnightblue" points="462.548,-277.411 454.079,-283.778 464.669,-284.082 462.548,-277.411"/>
</g>
<!-- Node5 -->
<g id="node5" class="node"><title>Node5</title>
<g id="a_node5"><a xlink:href="../../d9/da7/classorg_1_1msrg_1_1raccoon_1_1engine_1_1CodingEngineEvent__SequentialCodingTaskFailed.html" target="_top" xlink:title="{org.msrg.raccoon.engine.\lCodingEngineEvent_Sequential\lCodingTaskFailed\n||# CodingEngineEvent_Sequential\lCodingTaskFailed()\l}">
<polygon fill="none" stroke="black" points="228.5,-0.5 228.5,-90.5 390.5,-90.5 390.5,-0.5 228.5,-0.5"/>
<text text-anchor="start" x="236.5" y="-78.5" font-family="Helvetica,sans-Serif" font-size="10.00">org.msrg.raccoon.engine.</text>
<text text-anchor="start" x="236.5" y="-67.5" font-family="Helvetica,sans-Serif" font-size="10.00">CodingEngineEvent_Sequential</text>
<text text-anchor="middle" x="309.5" y="-56.5" font-family="Helvetica,sans-Serif" font-size="10.00">CodingTaskFailed</text>
<polyline fill="none" stroke="black" points="228.5,-49.5 390.5,-49.5 "/>
<text text-anchor="middle" x="309.5" y="-37.5" font-family="Helvetica,sans-Serif" font-size="10.00"> </text>
<polyline fill="none" stroke="black" points="228.5,-30.5 390.5,-30.5 "/>
<text text-anchor="start" x="236.5" y="-18.5" font-family="Helvetica,sans-Serif" font-size="10.00"># CodingEngineEvent_Sequential</text>
<text text-anchor="start" x="236.5" y="-7.5" font-family="Helvetica,sans-Serif" font-size="10.00">CodingTaskFailed()</text>
</a>
</g>
</g>
<!-- Node4&#45;&gt;Node5 -->
<g id="edge4" class="edge"><title>Node4&#45;&gt;Node5</title>
<path fill="none" stroke="midnightblue" d="M420.091,-126.678C403.704,-114.798 386.354,-102.219 370.377,-90.6358"/>
<polygon fill="none" stroke="midnightblue" points="418.41,-129.783 428.56,-132.819 422.518,-124.115 418.41,-129.783"/>
</g>
<!-- Node6 -->
<g id="node6" class="node"><title>Node6</title>
<g id="a_node6"><a xlink:href="../../d0/d5d/classorg_1_1msrg_1_1raccoon_1_1engine_1_1CodingEngineEvent__SequentialCodingTaskFinished.html" target="_top" xlink:title="{org.msrg.raccoon.engine.\lCodingEngineEvent_Sequential\lCodingTaskFinished\n||# CodingEngineEvent_Sequential\lCodingTaskFinished()\l}">
<polygon fill="none" stroke="black" points="408.5,-0.5 408.5,-90.5 570.5,-90.5 570.5,-0.5 408.5,-0.5"/>
<text text-anchor="start" x="416.5" y="-78.5" font-family="Helvetica,sans-Serif" font-size="10.00">org.msrg.raccoon.engine.</text>
<text text-anchor="start" x="416.5" y="-67.5" font-family="Helvetica,sans-Serif" font-size="10.00">CodingEngineEvent_Sequential</text>
<text text-anchor="middle" x="489.5" y="-56.5" font-family="Helvetica,sans-Serif" font-size="10.00">CodingTaskFinished</text>
<polyline fill="none" stroke="black" points="408.5,-49.5 570.5,-49.5 "/>
<text text-anchor="middle" x="489.5" y="-37.5" font-family="Helvetica,sans-Serif" font-size="10.00"> </text>
<polyline fill="none" stroke="black" points="408.5,-30.5 570.5,-30.5 "/>
<text text-anchor="start" x="416.5" y="-18.5" font-family="Helvetica,sans-Serif" font-size="10.00"># CodingEngineEvent_Sequential</text>
<text text-anchor="start" x="416.5" y="-7.5" font-family="Helvetica,sans-Serif" font-size="10.00">CodingTaskFinished()</text>
</a>
</g>
</g>
<!-- Node4&#45;&gt;Node6 -->
<g id="edge5" class="edge"><title>Node4&#45;&gt;Node6</title>
<path fill="none" stroke="midnightblue" d="M489.5,-122.731C489.5,-112.04 489.5,-100.944 489.5,-90.6358"/>
<polygon fill="none" stroke="midnightblue" points="486,-122.819 489.5,-132.819 493,-122.819 486,-122.819"/>
</g>
<!-- Node8 -->
<g id="node8" class="node"><title>Node8</title>
<g id="a_node8"><a xlink:href="../../d2/dda/classorg_1_1msrg_1_1raccoon_1_1engine_1_1CodingEngineEvent__BusyThreadEvent.html" target="_top" xlink:title="{org.msrg.raccoon.engine.\lCodingEngineEvent_BusyThreadEvent\n||~ CodingEngineEvent_BusyThread\lEvent()\l}">
<polygon fill="none" stroke="black" points="588.5,-6 588.5,-85 774.5,-85 774.5,-6 588.5,-6"/>
<text text-anchor="start" x="596.5" y="-73" font-family="Helvetica,sans-Serif" font-size="10.00">org.msrg.raccoon.engine.</text>
<text text-anchor="middle" x="681.5" y="-62" font-family="Helvetica,sans-Serif" font-size="10.00">CodingEngineEvent_BusyThreadEvent</text>
<polyline fill="none" stroke="black" points="588.5,-55 774.5,-55 "/>
<text text-anchor="middle" x="681.5" y="-43" font-family="Helvetica,sans-Serif" font-size="10.00"> </text>
<polyline fill="none" stroke="black" points="588.5,-36 774.5,-36 "/>
<text text-anchor="start" x="596.5" y="-24" font-family="Helvetica,sans-Serif" font-size="10.00">~ CodingEngineEvent_BusyThread</text>
<text text-anchor="start" x="596.5" y="-13" font-family="Helvetica,sans-Serif" font-size="10.00">Event()</text>
</a>
</g>
</g>
<!-- Node7&#45;&gt;Node8 -->
<g id="edge7" class="edge"><title>Node7&#45;&gt;Node8</title>
<path fill="none" stroke="midnightblue" d="M746.919,-130.198C735.437,-115.507 722.892,-99.4572 711.886,-85.3768"/>
<polygon fill="none" stroke="midnightblue" points="744.257,-132.476 753.173,-138.199 749.772,-128.165 744.257,-132.476"/>
</g>
<!-- Node9 -->
<g id="node9" class="node"><title>Node9</title>
<g id="a_node9"><a xlink:href="../../de/daf/classorg_1_1msrg_1_1raccoon_1_1engine_1_1CodingEngineEvent__FreeThreadEvent.html" target="_top" xlink:title="{org.msrg.raccoon.engine.\lCodingEngineEvent_FreeThreadEvent\n||~ CodingEngineEvent_FreeThread\lEvent()\l}">
<polygon fill="none" stroke="black" points="793,-6 793,-85 976,-85 976,-6 793,-6"/>
<text text-anchor="start" x="801" y="-73" font-family="Helvetica,sans-Serif" font-size="10.00">org.msrg.raccoon.engine.</text>
<text text-anchor="middle" x="884.5" y="-62" font-family="Helvetica,sans-Serif" font-size="10.00">CodingEngineEvent_FreeThreadEvent</text>
<polyline fill="none" stroke="black" points="793,-55 976,-55 "/>
<text text-anchor="middle" x="884.5" y="-43" font-family="Helvetica,sans-Serif" font-size="10.00"> </text>
<polyline fill="none" stroke="black" points="793,-36 976,-36 "/>
<text text-anchor="start" x="801" y="-24" font-family="Helvetica,sans-Serif" font-size="10.00">~ CodingEngineEvent_FreeThread</text>
<text text-anchor="start" x="801" y="-13" font-family="Helvetica,sans-Serif" font-size="10.00">Event()</text>
</a>
</g>
</g>
<!-- Node7&#45;&gt;Node9 -->
<g id="edge8" class="edge"><title>Node7&#45;&gt;Node9</title>
<path fill="none" stroke="midnightblue" d="M819.722,-130.198C831.092,-115.507 843.514,-99.4572 854.411,-85.3768"/>
<polygon fill="none" stroke="midnightblue" points="816.883,-128.149 813.53,-138.199 822.418,-132.433 816.883,-128.149"/>
</g>
<!-- Node10 -->
<g id="node10" class="node"><title>Node10</title>
<g id="a_node10"><a xlink:href="../../d4/dd3/classorg_1_1msrg_1_1raccoon_1_1engine_1_1CodingEngineEvent__NewThreadEvent.html" target="_top" xlink:title="{org.msrg.raccoon.engine.\lCodingEngineEvent_NewThreadEvent\n||~ CodingEngineEvent_NewThread\lEvent()\l}">
<polygon fill="none" stroke="black" points="994.5,-6 994.5,-85 1178.5,-85 1178.5,-6 994.5,-6"/>
<text text-anchor="start" x="1002.5" y="-73" font-family="Helvetica,sans-Serif" font-size="10.00">org.msrg.raccoon.engine.</text>
<text text-anchor="middle" x="1086.5" y="-62" font-family="Helvetica,sans-Serif" font-size="10.00">CodingEngineEvent_NewThreadEvent</text>
<polyline fill="none" stroke="black" points="994.5,-55 1178.5,-55 "/>
<text text-anchor="middle" x="1086.5" y="-43" font-family="Helvetica,sans-Serif" font-size="10.00"> </text>
<polyline fill="none" stroke="black" points="994.5,-36 1178.5,-36 "/>
<text text-anchor="start" x="1002.5" y="-24" font-family="Helvetica,sans-Serif" font-size="10.00">~ CodingEngineEvent_NewThread</text>
<text text-anchor="start" x="1002.5" y="-13" font-family="Helvetica,sans-Serif" font-size="10.00">Event()</text>
</a>
</g>
</g>
<!-- Node7&#45;&gt;Node10 -->
<g id="edge9" class="edge"><title>Node7&#45;&gt;Node10</title>
<path fill="none" stroke="midnightblue" d="M875.28,-138.211C909.869,-123.518 949.534,-106.579 985.5,-91 989.984,-89.0579 994.576,-87.0613 999.211,-85.0401"/>
<polygon fill="none" stroke="midnightblue" points="873.503,-135.164 865.666,-142.293 876.238,-141.607 873.503,-135.164"/>
</g>
</g>
</svg>
