<?xml version="1.0" encoding="UTF-8" standalone="no"?>
<!DOCTYPE svg PUBLIC "-//W3C//DTD SVG 1.1//EN"
 "http://www.w3.org/Graphics/SVG/1.1/DTD/svg11.dtd">
<!-- Generated by graphviz version 2.38.0 (20140413.2041)
 -->
<!-- Title: org.msrg.raccoon.engine.thread.CodingThread.CodingThread Pages: 1 -->
<svg width="551pt" height="39pt"
 viewBox="0.00 0.00 551.00 39.00" xmlns="http://www.w3.org/2000/svg" xmlns:xlink="http://www.w3.org/1999/xlink">
<g id="graph0" class="graph" transform="scale(1 1) rotate(0) translate(4 35)">
<title>org.msrg.raccoon.engine.thread.CodingThread.CodingThread</title>
<!-- Node1 -->
<g id="node1" class="node"><title>Node1</title>
<polygon fill="#bfbfbf" stroke="black" points="0,-0.5 0,-30.5 157,-30.5 157,-0.5 0,-0.5"/>
<text text-anchor="start" x="8" y="-18.5" font-family="Helvetica,sans-Serif" font-size="10.00">org.msrg.raccoon.engine.thread.</text>
<text text-anchor="middle" x="78.5" y="-7.5" font-family="Helvetica,sans-Serif" font-size="10.00">CodingThread.CodingThread</text>
</g>
<!-- Node2 -->
<g id="node2" class="node"><title>Node2</title>
<g id="a_node2"><a xlink:href="../../d0/dca/classorg_1_1msrg_1_1raccoon_1_1engine_1_1thread_1_1ThreadId_acb2b304f4e76de80fb484a16aec46f50.html#acb2b304f4e76de80fb484a16aec46f50" target="_top" xlink:title="org.msrg.raccoon.engine.thread.\lThreadId.getNewThreadId">
<polygon fill="none" stroke="black" points="193,-0.5 193,-30.5 350,-30.5 350,-0.5 193,-0.5"/>
<text text-anchor="start" x="201" y="-18.5" font-family="Helvetica,sans-Serif" font-size="10.00">org.msrg.raccoon.engine.thread.</text>
<text text-anchor="middle" x="271.5" y="-7.5" font-family="Helvetica,sans-Serif" font-size="10.00">ThreadId.getNewThreadId</text>
</a>
</g>
</g>
<!-- Node1&#45;&gt;Node2 -->
<g id="edge1" class="edge"><title>Node1&#45;&gt;Node2</title>
<path fill="none" stroke="midnightblue" d="M157.187,-15.5C165.65,-15.5 174.306,-15.5 182.876,-15.5"/>
<polygon fill="midnightblue" stroke="midnightblue" points="182.882,-19.0001 192.882,-15.5 182.882,-12.0001 182.882,-19.0001"/>
</g>
<!-- Node3 -->
<g id="node3" class="node"><title>Node3</title>
<g id="a_node3"><a xlink:href="../../d0/dca/classorg_1_1msrg_1_1raccoon_1_1engine_1_1thread_1_1ThreadId_ac41fc177290acea56d0d591b34d20257.html#ac41fc177290acea56d0d591b34d20257" target="_top" xlink:title="org.msrg.raccoon.engine.thread.\lThreadId.ThreadId">
<polygon fill="none" stroke="black" points="386,-0.5 386,-30.5 543,-30.5 543,-0.5 386,-0.5"/>
<text text-anchor="start" x="394" y="-18.5" font-family="Helvetica,sans-Serif" font-size="10.00">org.msrg.raccoon.engine.thread.</text>
<text text-anchor="middle" x="464.5" y="-7.5" font-family="Helvetica,sans-Serif" font-size="10.00">ThreadId.ThreadId</text>
</a>
</g>
</g>
<!-- Node2&#45;&gt;Node3 -->
<g id="edge2" class="edge"><title>Node2&#45;&gt;Node3</title>
<path fill="none" stroke="midnightblue" d="M350.187,-15.5C358.65,-15.5 367.306,-15.5 375.876,-15.5"/>
<polygon fill="midnightblue" stroke="midnightblue" points="375.882,-19.0001 385.882,-15.5 375.882,-12.0001 375.882,-19.0001"/>
</g>
</g>
</svg>
