<?xml version="1.0" encoding="UTF-8" standalone="no"?>
<!DOCTYPE svg PUBLIC "-//W3C//DTD SVG 1.1//EN"
 "http://www.w3.org/Graphics/SVG/1.1/DTD/svg11.dtd">
<!-- Generated by graphviz version 2.38.0 (20140413.2041)
 -->
<!-- Title: org.msrg.raccoon.engine.thread.CodingThread.runMe Pages: 1 -->
<!--zoomable 436 -->
<svg id="main" version="1.1" xmlns="http://www.w3.org/2000/svg" xmlns:xlink="http://www.w3.org/1999/xlink" xml:space="preserve" onload="init(evt)">
<style type="text/css"><![CDATA[
.edge:hover path { stroke: red; }
.edge:hover polygon { stroke: red; fill: red; }
]]></style>
<script type="text/javascript"><![CDATA[
var edges = document.getElementsByTagName('g');
if (edges && edges.length) {
  for (var i=0;i<edges.length;i++) {
    if (edges[i].id.substr(0,4)=='edge') {
      edges[i].setAttribute('class','edge');
    }
  }
}
]]></script>
        <defs>
                <circle id="rim" cx="0" cy="0" r="7"/>
                <circle id="rim2" cx="0" cy="0" r="3.5"/>
                <g id="zoomPlus">
                        <use xlink:href="#rim" fill="#404040">
                                <set attributeName="fill" to="#808080" begin="zoomplus.mouseover" end="zoomplus.mouseout"/>
                        </use>
                        <path d="M-4,0h8M0,-4v8" fill="none" stroke="white" stroke-width="1.5" pointer-events="none"/>
                </g>
                <g id="zoomMin">
                        <use xlink:href="#rim" fill="#404040">
                                <set attributeName="fill" to="#808080" begin="zoomminus.mouseover" end="zoomminus.mouseout"/>
                        </use>
                        <path d="M-4,0h8" fill="none" stroke="white" stroke-width="1.5" pointer-events="none"/>
                </g>
                <g id="dirArrow">
                        <path fill="none" stroke="white" stroke-width="1.5" d="M0,-3.0v7 M-2.5,-0.5L0,-3.0L2.5,-0.5"/>
                </g>
               <g id="resetDef">
                       <use xlink:href="#rim2" fill="#404040">
                               <set attributeName="fill" to="#808080" begin="reset.mouseover" end="reset.mouseout"/>
                       </use>
               </g>
        </defs>

<script type="text/javascript">
var viewWidth = 820;
var viewHeight = 436;
var sectionId = 'dynsection-0';
</script>
<script xlink:href="../../svgpan.js"/>
<svg id="graph" class="graph">
<g id="viewport">
<title>org.msrg.raccoon.engine.thread.CodingThread.runMe</title>
<!-- Node1 -->
<g id="node1" class="node"><title>Node1</title>
<polygon fill="#bfbfbf" stroke="black" points="0,-196.5 0,-226.5 157,-226.5 157,-196.5 0,-196.5"/>
<text text-anchor="start" x="8" y="-214.5" font-family="Helvetica,sans-Serif" font-size="10.00">org.msrg.raccoon.engine.thread.</text>
<text text-anchor="middle" x="78.5" y="-203.5" font-family="Helvetica,sans-Serif" font-size="10.00">CodingThread.runMe</text>
</g>
<!-- Node2 -->
<g id="node2" class="node"><title>Node2</title>
<g id="a_node2"><a xlink:href="../../db/d98/classorg_1_1msrg_1_1raccoon_1_1engine_1_1CodingEngine_a2398d0be0c50a5b97c4f18b1d26da62f.html#a2398d0be0c50a5b97c4f18b1d26da62f" target="_top" xlink:title="org.msrg.raccoon.engine.\lCodingEngine.codingTaskFailed">
<polygon fill="none" stroke="black" points="198,-284.5 198,-314.5 355,-314.5 355,-284.5 198,-284.5"/>
<text text-anchor="start" x="206" y="-302.5" font-family="Helvetica,sans-Serif" font-size="10.00">org.msrg.raccoon.engine.</text>
<text text-anchor="middle" x="276.5" y="-291.5" font-family="Helvetica,sans-Serif" font-size="10.00">CodingEngine.codingTaskFailed</text>
</a>
</g>
</g>
<!-- Node1&#45;&gt;Node2 -->
<g id="edge1" class="edge"><title>Node1&#45;&gt;Node2</title>
<path fill="none" stroke="midnightblue" d="M106.566,-226.53C129.279,-238.85 162.769,-256.339 193,-269.5 202.118,-273.469 211.947,-277.364 221.533,-280.965"/>
<polygon fill="midnightblue" stroke="midnightblue" points="220.41,-284.281 231.003,-284.459 222.833,-277.713 220.41,-284.281"/>
</g>
<!-- Node3 -->
<g id="node3" class="node"><title>Node3</title>
<g id="a_node3"><a xlink:href="../../d9/d22/classorg_1_1msrg_1_1raccoon_1_1engine_1_1task_1_1CodingTask_a0104d5d4c38b3b0d8cb60436798287c1.html#a0104d5d4c38b3b0d8cb60436798287c1" target="_top" xlink:title="org.msrg.raccoon.engine.task.\lCodingTask.isFinished">
<polygon fill="none" stroke="black" points="649.5,-374.5 649.5,-404.5 798.5,-404.5 798.5,-374.5 649.5,-374.5"/>
<text text-anchor="start" x="657.5" y="-392.5" font-family="Helvetica,sans-Serif" font-size="10.00">org.msrg.raccoon.engine.task.</text>
<text text-anchor="middle" x="724" y="-381.5" font-family="Helvetica,sans-Serif" font-size="10.00">CodingTask.isFinished</text>
</a>
</g>
</g>
<!-- Node1&#45;&gt;Node3 -->
<g id="edge17" class="edge"><title>Node1&#45;&gt;Node3</title>
<path fill="none" stroke="midnightblue" d="M84.7625,-226.642C97.3484,-260.23 132.71,-340.601 193,-373.5 339.584,-453.488 544.544,-428.153 651.551,-406.594"/>
<polygon fill="midnightblue" stroke="midnightblue" points="652.509,-409.97 661.596,-404.523 651.095,-403.114 652.509,-409.97"/>
</g>
<!-- Node7 -->
<g id="node7" class="node"><title>Node7</title>
<g id="a_node7"><a xlink:href="../../d9/d22/classorg_1_1msrg_1_1raccoon_1_1engine_1_1task_1_1CodingTask_ae73495361c978756abf28bfd65138fb3.html#ae73495361c978756abf28bfd65138fb3" target="_top" xlink:title="org.msrg.raccoon.engine.task.\lCodingTask.isFailed">
<polygon fill="none" stroke="black" points="649.5,-227.5 649.5,-257.5 798.5,-257.5 798.5,-227.5 649.5,-227.5"/>
<text text-anchor="start" x="657.5" y="-245.5" font-family="Helvetica,sans-Serif" font-size="10.00">org.msrg.raccoon.engine.task.</text>
<text text-anchor="middle" x="724" y="-234.5" font-family="Helvetica,sans-Serif" font-size="10.00">CodingTask.isFailed</text>
</a>
</g>
</g>
<!-- Node1&#45;&gt;Node7 -->
<g id="edge16" class="edge"><title>Node1&#45;&gt;Node7</title>
<path fill="none" stroke="midnightblue" d="M136.854,-226.533C154.712,-230.564 174.558,-234.387 193,-236.5 349.823,-254.465 534.448,-251.049 639.204,-246.838"/>
<polygon fill="midnightblue" stroke="midnightblue" points="639.553,-250.327 649.399,-246.416 639.263,-243.333 639.553,-250.327"/>
</g>
<!-- Node8 -->
<g id="node8" class="node"><title>Node8</title>
<g id="a_node8"><a xlink:href="../../db/d98/classorg_1_1msrg_1_1raccoon_1_1engine_1_1CodingEngine_a3d4a6d3540939a6669282049714e7a92.html#a3d4a6d3540939a6669282049714e7a92" target="_top" xlink:title="org.msrg.raccoon.engine.\lCodingEngine.codingTaskFinished">
<polygon fill="none" stroke="black" points="193,-333.5 193,-363.5 360,-363.5 360,-333.5 193,-333.5"/>
<text text-anchor="start" x="201" y="-351.5" font-family="Helvetica,sans-Serif" font-size="10.00">org.msrg.raccoon.engine.</text>
<text text-anchor="middle" x="276.5" y="-340.5" font-family="Helvetica,sans-Serif" font-size="10.00">CodingEngine.codingTaskFinished</text>
</a>
</g>
</g>
<!-- Node1&#45;&gt;Node8 -->
<g id="edge8" class="edge"><title>Node1&#45;&gt;Node8</title>
<path fill="none" stroke="midnightblue" d="M90.6256,-226.721C109.153,-250.986 148.699,-298.356 193,-324.5 195.981,-326.259 199.099,-327.896 202.305,-329.42"/>
<polygon fill="midnightblue" stroke="midnightblue" points="200.966,-332.654 211.533,-333.417 203.748,-326.23 200.966,-332.654"/>
</g>
<!-- Node9 -->
<g id="node9" class="node"><title>Node9</title>
<g id="a_node9"><a xlink:href="../../db/d98/classorg_1_1msrg_1_1raccoon_1_1engine_1_1CodingEngine_ae55b8ba2b6c3e8bac2cbc23e72ca2202.html#ae55b8ba2b6c3e8bac2cbc23e72ca2202" target="_top" xlink:title="org.msrg.raccoon.engine.\lCodingEngine.codingTaskStarted">
<polygon fill="none" stroke="black" points="195.5,-196.5 195.5,-226.5 357.5,-226.5 357.5,-196.5 195.5,-196.5"/>
<text text-anchor="start" x="203.5" y="-214.5" font-family="Helvetica,sans-Serif" font-size="10.00">org.msrg.raccoon.engine.</text>
<text text-anchor="middle" x="276.5" y="-203.5" font-family="Helvetica,sans-Serif" font-size="10.00">CodingEngine.codingTaskStarted</text>
</a>
</g>
</g>
<!-- Node1&#45;&gt;Node9 -->
<g id="edge11" class="edge"><title>Node1&#45;&gt;Node9</title>
<path fill="none" stroke="midnightblue" d="M157.246,-211.5C166.429,-211.5 175.86,-211.5 185.198,-211.5"/>
<polygon fill="midnightblue" stroke="midnightblue" points="185.277,-215 195.277,-211.5 185.277,-208 185.277,-215"/>
</g>
<!-- Node11 -->
<g id="node11" class="node"><title>Node11</title>
<g id="a_node11"><a xlink:href="../../d9/d22/classorg_1_1msrg_1_1raccoon_1_1engine_1_1task_1_1CodingTask_aa30b067dc85770bd21c6d4bf3f1030e3.html#aa30b067dc85770bd21c6d4bf3f1030e3" target="_top" xlink:title="org.msrg.raccoon.engine.task.\lCodingTask.failed">
<polygon fill="none" stroke="black" points="202,-98.5 202,-128.5 351,-128.5 351,-98.5 202,-98.5"/>
<text text-anchor="start" x="210" y="-116.5" font-family="Helvetica,sans-Serif" font-size="10.00">org.msrg.raccoon.engine.task.</text>
<text text-anchor="middle" x="276.5" y="-105.5" font-family="Helvetica,sans-Serif" font-size="10.00">CodingTask.failed</text>
</a>
</g>
</g>
<!-- Node1&#45;&gt;Node11 -->
<g id="edge13" class="edge"><title>Node1&#45;&gt;Node11</title>
<path fill="none" stroke="midnightblue" d="M99.4261,-196.238C121.351,-180.044 158.121,-154.619 193,-138.5 198.01,-136.185 203.288,-134.018 208.653,-132.005"/>
<polygon fill="midnightblue" stroke="midnightblue" points="210.119,-135.198 218.366,-128.548 207.771,-128.604 210.119,-135.198"/>
</g>
<!-- Node14 -->
<g id="node14" class="node"><title>Node14</title>
<g id="a_node14"><a xlink:href="../../d9/d22/classorg_1_1msrg_1_1raccoon_1_1engine_1_1task_1_1CodingTask_aa0c76e940af1641e5353867ff4123bd5.html#aa0c76e940af1641e5353867ff4123bd5" target="_top" xlink:title="org.msrg.raccoon.engine.task.\lCodingTask.isSequencial">
<polygon fill="none" stroke="black" points="202,-49.5 202,-79.5 351,-79.5 351,-49.5 202,-49.5"/>
<text text-anchor="start" x="210" y="-67.5" font-family="Helvetica,sans-Serif" font-size="10.00">org.msrg.raccoon.engine.task.</text>
<text text-anchor="middle" x="276.5" y="-56.5" font-family="Helvetica,sans-Serif" font-size="10.00">CodingTask.isSequencial</text>
</a>
</g>
</g>
<!-- Node1&#45;&gt;Node14 -->
<g id="edge18" class="edge"><title>Node1&#45;&gt;Node14</title>
<path fill="none" stroke="midnightblue" d="M89.5034,-196.343C107.276,-170.59 146.859,-118.291 193,-89.5 196.333,-87.4203 199.85,-85.5043 203.478,-83.7402"/>
<polygon fill="midnightblue" stroke="midnightblue" points="204.959,-86.9123 212.684,-79.6615 202.123,-80.5124 204.959,-86.9123"/>
</g>
<!-- Node15 -->
<g id="node15" class="node"><title>Node15</title>
<g id="a_node15"><a xlink:href="../../d1/da4/classorg_1_1msrg_1_1raccoon_1_1engine_1_1thread_1_1CodingThread_a0ac6f7418a4d2c8892442f758a15064c.html#a0ac6f7418a4d2c8892442f758a15064c" target="_top" xlink:title="org.msrg.raccoon.engine.thread.\lCodingThread.runTask">
<polygon fill="none" stroke="black" points="198,-0.5 198,-30.5 355,-30.5 355,-0.5 198,-0.5"/>
<text text-anchor="start" x="206" y="-18.5" font-family="Helvetica,sans-Serif" font-size="10.00">org.msrg.raccoon.engine.thread.</text>
<text text-anchor="middle" x="276.5" y="-7.5" font-family="Helvetica,sans-Serif" font-size="10.00">CodingThread.runTask</text>
</a>
</g>
</g>
<!-- Node1&#45;&gt;Node15 -->
<g id="edge19" class="edge"><title>Node1&#45;&gt;Node15</title>
<path fill="none" stroke="midnightblue" d="M85.3105,-196.388C98.8943,-163.076 135.963,-82.925 193,-40.5 195.501,-38.6396 198.141,-36.9165 200.882,-35.3206"/>
<polygon fill="midnightblue" stroke="midnightblue" points="202.65,-38.3465 209.925,-30.6443 199.435,-32.1286 202.65,-38.3465"/>
</g>
<!-- Node16 -->
<g id="node16" class="node"><title>Node16</title>
<g id="a_node16"><a xlink:href="../../d9/d22/classorg_1_1msrg_1_1raccoon_1_1engine_1_1task_1_1CodingTask_a824b256e8e9f1627a05d67fb70ed5410.html#a824b256e8e9f1627a05d67fb70ed5410" target="_top" xlink:title="org.msrg.raccoon.engine.task.\lCodingTask.started">
<polygon fill="none" stroke="black" points="202,-147.5 202,-177.5 351,-177.5 351,-147.5 202,-147.5"/>
<text text-anchor="start" x="210" y="-165.5" font-family="Helvetica,sans-Serif" font-size="10.00">org.msrg.raccoon.engine.task.</text>
<text text-anchor="middle" x="276.5" y="-154.5" font-family="Helvetica,sans-Serif" font-size="10.00">CodingTask.started</text>
</a>
</g>
</g>
<!-- Node1&#45;&gt;Node16 -->
<g id="edge20" class="edge"><title>Node1&#45;&gt;Node16</title>
<path fill="none" stroke="midnightblue" d="M139.638,-196.465C160.521,-191.245 184.115,-185.346 205.71,-179.947"/>
<polygon fill="midnightblue" stroke="midnightblue" points="206.623,-183.327 215.475,-177.506 204.925,-176.536 206.623,-183.327"/>
</g>
<!-- Node2&#45;&gt;Node3 -->
<g id="edge2" class="edge"><title>Node2&#45;&gt;Node3</title>
<path fill="none" stroke="midnightblue" d="M346.004,-314.531C362.356,-317.958 379.774,-321.478 396,-324.5 486.292,-341.318 510.124,-338.583 600,-357.5 619.582,-361.622 640.726,-366.839 659.869,-371.858"/>
<polygon fill="midnightblue" stroke="midnightblue" points="659.115,-375.279 669.678,-374.459 660.908,-368.513 659.115,-375.279"/>
</g>
<!-- Node4 -->
<g id="node4" class="node"><title>Node4</title>
<g id="a_node4"><a xlink:href="../../db/d98/classorg_1_1msrg_1_1raccoon_1_1engine_1_1CodingEngine_a1396555d04800f11479184ccff358804.html#a1396555d04800f11479184ccff358804" target="_top" xlink:title="org.msrg.raccoon.engine.\lCodingEngine.notifyListener">
<polygon fill="none" stroke="black" points="428.5,-284.5 428.5,-314.5 567.5,-314.5 567.5,-284.5 428.5,-284.5"/>
<text text-anchor="start" x="436.5" y="-302.5" font-family="Helvetica,sans-Serif" font-size="10.00">org.msrg.raccoon.engine.</text>
<text text-anchor="middle" x="498" y="-291.5" font-family="Helvetica,sans-Serif" font-size="10.00">CodingEngine.notifyListener</text>
</a>
</g>
</g>
<!-- Node2&#45;&gt;Node4 -->
<g id="edge3" class="edge"><title>Node2&#45;&gt;Node4</title>
<path fill="none" stroke="midnightblue" d="M355.196,-299.5C375.558,-299.5 397.534,-299.5 417.965,-299.5"/>
<polygon fill="midnightblue" stroke="midnightblue" points="418.173,-303 428.173,-299.5 418.173,-296 418.173,-303"/>
</g>
<!-- Node4&#45;&gt;Node3 -->
<g id="edge7" class="edge"><title>Node4&#45;&gt;Node3</title>
<path fill="none" stroke="midnightblue" d="M566.713,-314.522C578.245,-318.489 589.784,-323.417 600,-329.5 619.442,-341.077 616.446,-354.114 636,-365.5 639.002,-367.248 642.137,-368.873 645.359,-370.384"/>
<polygon fill="midnightblue" stroke="midnightblue" points="644.06,-373.635 654.631,-374.345 646.81,-367.198 644.06,-373.635"/>
</g>
<!-- Node5 -->
<g id="node5" class="node"><title>Node5</title>
<g id="a_node5"><a xlink:href="../../d6/d58/interfaceorg_1_1msrg_1_1raccoon_1_1engine_1_1ICodingListener_a3a983a9848df60f8b6a02573acf3a993.html#a3a983a9848df60f8b6a02573acf3a993" target="_top" xlink:title="org.msrg.raccoon.engine.\lICodingListener.codingFailed">
<polygon fill="none" stroke="black" points="652.5,-276.5 652.5,-306.5 795.5,-306.5 795.5,-276.5 652.5,-276.5"/>
<text text-anchor="start" x="660.5" y="-294.5" font-family="Helvetica,sans-Serif" font-size="10.00">org.msrg.raccoon.engine.</text>
<text text-anchor="middle" x="724" y="-283.5" font-family="Helvetica,sans-Serif" font-size="10.00">ICodingListener.codingFailed</text>
</a>
</g>
</g>
<!-- Node4&#45;&gt;Node5 -->
<g id="edge4" class="edge"><title>Node4&#45;&gt;Node5</title>
<path fill="none" stroke="midnightblue" d="M567.73,-297.045C591.248,-296.205 617.775,-295.258 642.161,-294.387"/>
<polygon fill="midnightblue" stroke="midnightblue" points="642.597,-297.874 652.465,-294.019 642.347,-290.878 642.597,-297.874"/>
</g>
<!-- Node6 -->
<g id="node6" class="node"><title>Node6</title>
<g id="a_node6"><a xlink:href="../../d6/d58/interfaceorg_1_1msrg_1_1raccoon_1_1engine_1_1ICodingListener_a3404a752dcaceaab52ed6d2effae7aca.html#a3404a752dcaceaab52ed6d2effae7aca" target="_top" xlink:title="org.msrg.raccoon.engine.\lICodingListener.codingFinished">
<polygon fill="none" stroke="black" points="647.5,-325.5 647.5,-355.5 800.5,-355.5 800.5,-325.5 647.5,-325.5"/>
<text text-anchor="start" x="655.5" y="-343.5" font-family="Helvetica,sans-Serif" font-size="10.00">org.msrg.raccoon.engine.</text>
<text text-anchor="middle" x="724" y="-332.5" font-family="Helvetica,sans-Serif" font-size="10.00">ICodingListener.codingFinished</text>
</a>
</g>
</g>
<!-- Node4&#45;&gt;Node6 -->
<g id="edge5" class="edge"><title>Node4&#45;&gt;Node6</title>
<path fill="none" stroke="midnightblue" d="M567.73,-312.08C589.687,-316.099 614.266,-320.598 637.277,-324.81"/>
<polygon fill="midnightblue" stroke="midnightblue" points="636.909,-328.3 647.376,-326.658 638.17,-321.415 636.909,-328.3"/>
</g>
<!-- Node4&#45;&gt;Node7 -->
<g id="edge6" class="edge"><title>Node4&#45;&gt;Node7</title>
<path fill="none" stroke="midnightblue" d="M558.146,-284.449C587.62,-276.949 623.431,-267.837 654.136,-260.024"/>
<polygon fill="midnightblue" stroke="midnightblue" points="655.083,-263.394 663.911,-257.536 653.357,-256.61 655.083,-263.394"/>
</g>
<!-- Node8&#45;&gt;Node3 -->
<g id="edge9" class="edge"><title>Node8&#45;&gt;Node3</title>
<path fill="none" stroke="midnightblue" d="M360.251,-356.116C439.763,-363.433 559.298,-374.434 639.169,-381.785"/>
<polygon fill="midnightblue" stroke="midnightblue" points="638.915,-385.276 649.194,-382.707 639.557,-378.306 638.915,-385.276"/>
</g>
<!-- Node8&#45;&gt;Node4 -->
<g id="edge10" class="edge"><title>Node8&#45;&gt;Node4</title>
<path fill="none" stroke="midnightblue" d="M344.849,-333.465C368.552,-328.174 395.373,-322.187 419.822,-316.729"/>
<polygon fill="midnightblue" stroke="midnightblue" points="420.781,-320.101 429.778,-314.506 419.256,-313.269 420.781,-320.101"/>
</g>
<!-- Node10 -->
<g id="node10" class="node"><title>Node10</title>
<g id="a_node10"><a xlink:href="../../db/d98/classorg_1_1msrg_1_1raccoon_1_1engine_1_1CodingEngine_a3f229e36767db9f7cd2ec62919f828e3.html#a3f229e36767db9f7cd2ec62919f828e3" target="_top" xlink:title="org.msrg.raccoon.engine.\lCodingEngine.addCodingTaskEngineEvent">
<polygon fill="none" stroke="black" points="396,-196.5 396,-226.5 600,-226.5 600,-196.5 396,-196.5"/>
<text text-anchor="start" x="404" y="-214.5" font-family="Helvetica,sans-Serif" font-size="10.00">org.msrg.raccoon.engine.</text>
<text text-anchor="middle" x="498" y="-203.5" font-family="Helvetica,sans-Serif" font-size="10.00">CodingEngine.addCodingTaskEngineEvent</text>
</a>
</g>
</g>
<!-- Node9&#45;&gt;Node10 -->
<g id="edge12" class="edge"><title>Node9&#45;&gt;Node10</title>
<path fill="none" stroke="midnightblue" d="M357.676,-211.5C366.76,-211.5 376.136,-211.5 385.528,-211.5"/>
<polygon fill="midnightblue" stroke="midnightblue" points="385.714,-215 395.714,-211.5 385.714,-208 385.714,-215"/>
</g>
<!-- Node12 -->
<g id="node12" class="node"><title>Node12</title>
<g id="a_node12"><a xlink:href="../../d9/d22/classorg_1_1msrg_1_1raccoon_1_1engine_1_1task_1_1CodingTask_a044111e531607f65b98aa358f8b9ea87.html#a044111e531607f65b98aa358f8b9ea87" target="_top" xlink:title="org.msrg.raccoon.engine.task.\lCodingTask.changeStatus">
<polygon fill="none" stroke="black" points="423.5,-123.5 423.5,-153.5 572.5,-153.5 572.5,-123.5 423.5,-123.5"/>
<text text-anchor="start" x="431.5" y="-141.5" font-family="Helvetica,sans-Serif" font-size="10.00">org.msrg.raccoon.engine.task.</text>
<text text-anchor="middle" x="498" y="-130.5" font-family="Helvetica,sans-Serif" font-size="10.00">CodingTask.changeStatus</text>
</a>
</g>
</g>
<!-- Node11&#45;&gt;Node12 -->
<g id="edge14" class="edge"><title>Node11&#45;&gt;Node12</title>
<path fill="none" stroke="midnightblue" d="M351.201,-121.894C371.216,-124.174 393.03,-126.658 413.542,-128.995"/>
<polygon fill="midnightblue" stroke="midnightblue" points="413.162,-132.474 423.494,-130.128 413.954,-125.519 413.162,-132.474"/>
</g>
<!-- Node13 -->
<g id="node13" class="node"><title>Node13</title>
<g id="a_node13"><a xlink:href="../../df/d3e/classorg_1_1msrg_1_1raccoon_1_1engine_1_1task_1_1result_1_1CodingResult_adc1efbef3678d862aeb3e8d2caea6a47.html#adc1efbef3678d862aeb3e8d2caea6a47" target="_top" xlink:title="org.msrg.raccoon.engine.task.result.\lCodingResult.setStatus">
<polygon fill="none" stroke="black" points="636,-123.5 636,-153.5 812,-153.5 812,-123.5 636,-123.5"/>
<text text-anchor="start" x="644" y="-141.5" font-family="Helvetica,sans-Serif" font-size="10.00">org.msrg.raccoon.engine.task.result.</text>
<text text-anchor="middle" x="724" y="-130.5" font-family="Helvetica,sans-Serif" font-size="10.00">CodingResult.setStatus</text>
</a>
</g>
</g>
<!-- Node12&#45;&gt;Node13 -->
<g id="edge15" class="edge"><title>Node12&#45;&gt;Node13</title>
<path fill="none" stroke="midnightblue" d="M572.656,-138.5C589.498,-138.5 607.656,-138.5 625.329,-138.5"/>
<polygon fill="midnightblue" stroke="midnightblue" points="625.665,-142 635.665,-138.5 625.665,-135 625.665,-142"/>
</g>
<!-- Node16&#45;&gt;Node12 -->
<g id="edge21" class="edge"><title>Node16&#45;&gt;Node12</title>
<path fill="none" stroke="midnightblue" d="M351.201,-154.442C371.216,-152.253 393.03,-149.868 413.542,-147.625"/>
<polygon fill="midnightblue" stroke="midnightblue" points="413.933,-151.103 423.494,-146.537 413.172,-144.145 413.933,-151.103"/>
</g>
</g>
</svg>
        <g id="navigator" transform="translate(0 0)" fill="#404254">
                <rect fill="#f2f5e9" fill-opacity="0.5" stroke="#606060" stroke-width=".5" x="0" y="0" width="60" height="60"/>
                <use id="zoomplus" xlink:href="#zoomPlus" x="17" y="9" onmousedown="handleZoom(evt,'in')"/>
                <use id="zoomminus" xlink:href="#zoomMin" x="42" y="9" onmousedown="handleZoom(evt,'out')"/>
                <use id="reset" xlink:href="#resetDef" x="30" y="36" onmousedown="handleReset()"/>
                <g id="arrowUp" xlink:href="#dirArrow" transform="translate(30 24)" onmousedown="handlePan(0,-1)">
                  <use xlink:href="#rim" fill="#404040">
                        <set attributeName="fill" to="#808080" begin="arrowUp.mouseover" end="arrowUp.mouseout"/>
                  </use>
                  <path fill="none" stroke="white" stroke-width="1.5" d="M0,-3.0v7 M-2.5,-0.5L0,-3.0L2.5,-0.5"/>
                </g>
                <g id="arrowRight" xlink:href="#dirArrow" transform="rotate(90) translate(36 -43)" onmousedown="handlePan(1,0)">
                  <use xlink:href="#rim" fill="#404040">
                        <set attributeName="fill" to="#808080" begin="arrowRight.mouseover" end="arrowRight.mouseout"/>
                  </use>
                  <path fill="none" stroke="white" stroke-width="1.5" d="M0,-3.0v7 M-2.5,-0.5L0,-3.0L2.5,-0.5"/>
                </g>
                <g id="arrowDown" xlink:href="#dirArrow" transform="rotate(180) translate(-30 -48)" onmousedown="handlePan(0,1)">
                  <use xlink:href="#rim" fill="#404040">
                        <set attributeName="fill" to="#808080" begin="arrowDown.mouseover" end="arrowDown.mouseout"/>
                  </use>
                  <path fill="none" stroke="white" stroke-width="1.5" d="M0,-3.0v7 M-2.5,-0.5L0,-3.0L2.5,-0.5"/>
                </g>
                <g id="arrowLeft" xlink:href="#dirArrow" transform="rotate(270) translate(-36 17)" onmousedown="handlePan(-1,0)">
                  <use xlink:href="#rim" fill="#404040">
                        <set attributeName="fill" to="#808080" begin="arrowLeft.mouseover" end="arrowLeft.mouseout"/>
                  </use>
                  <path fill="none" stroke="white" stroke-width="1.5" d="M0,-3.0v7 M-2.5,-0.5L0,-3.0L2.5,-0.5"/>
                </g>
        </g>
        <svg viewBox="0 0 15 15" width="100%" height="30px" preserveAspectRatio="xMaxYMin meet">
         <g id="arrow_out" transform="scale(0.3 0.3)">
          <a xlink:href="classorg_1_1msrg_1_1raccoon_1_1engine_1_1thread_1_1CodingThread_a31a8bf19549ed7009791f430c356a421_a31a8bf19549ed7009791f430c356a421_cgraph_org.svg" target="_base">
           <rect id="button" ry="5" rx="5" y="6" x="6" height="38" width="38"
                fill="#f2f5e9" fill-opacity="0.5" stroke="#606060" stroke-width="1.0"/>
           <path id="arrow"
             d="M 11.500037,31.436501 C 11.940474,20.09759 22.043105,11.32322 32.158766,21.979434 L 37.068811,17.246167 C 37.068811,17.246167 37.088388,32 37.088388,32 L 22.160133,31.978069 C 22.160133,31.978069 26.997745,27.140456 26.997745,27.140456 C 18.528582,18.264221 13.291696,25.230495 11.500037,31.436501 z"
             style="fill:#404040;"/>
          </a>
         </g>
        </svg>
</svg>
