<?xml version="1.0" encoding="UTF-8" standalone="no"?>
<!DOCTYPE svg PUBLIC "-//W3C//DTD SVG 1.1//EN"
 "http://www.w3.org/Graphics/SVG/1.1/DTD/svg11.dtd">
<!-- Generated by graphviz version 2.38.0 (20140413.2041)
 -->
<!-- Title: org.msrg.raccoon.engine.task.result.SliceMatrix_CodingResult Pages: 1 -->
<svg width="903pt" height="683pt"
 viewBox="0.00 0.00 903.16 683.00" xmlns="http://www.w3.org/2000/svg" xmlns:xlink="http://www.w3.org/1999/xlink">
<g id="graph0" class="graph" transform="scale(1 1) rotate(0) translate(4 679)">
<title>org.msrg.raccoon.engine.task.result.SliceMatrix_CodingResult</title>
<!-- Node2 -->
<g id="node1" class="node"><title>Node2</title>
<polygon fill="#bfbfbf" stroke="black" points="643.159,-61 643.159,-151 819.159,-151 819.159,-61 643.159,-61"/>
<text text-anchor="start" x="651.159" y="-139" font-family="Helvetica,sans-Serif" font-size="10.00">org.msrg.raccoon.engine.task.result.</text>
<text text-anchor="middle" x="731.159" y="-128" font-family="Helvetica,sans-Serif" font-size="10.00">SliceMatrix_CodingResult</text>
<polyline fill="none" stroke="black" points="643.159,-121 819.159,-121 "/>
<text text-anchor="middle" x="731.159" y="-109" font-family="Helvetica,sans-Serif" font-size="10.00"> </text>
<polyline fill="none" stroke="black" points="643.159,-102 819.159,-102 "/>
<text text-anchor="start" x="651.159" y="-90" font-family="Helvetica,sans-Serif" font-size="10.00">+ SliceMatrix_CodingResult()</text>
<text text-anchor="start" x="651.159" y="-79" font-family="Helvetica,sans-Serif" font-size="10.00">+ getResult()</text>
<text text-anchor="start" x="651.159" y="-68" font-family="Helvetica,sans-Serif" font-size="10.00">+ setResult()</text>
</g>
<!-- Node3 -->
<g id="node2" class="node"><title>Node3</title>
<g id="a_node2"><a xlink:href="../../df/d3e/classorg_1_1msrg_1_1raccoon_1_1engine_1_1task_1_1result_1_1CodingResult.html" target="_top" xlink:title="{org.msrg.raccoon.engine.task.result.\lCodingResult\n||+ equals()\l+ hashCode()\l+ getStatus()\l+ setStatus()\l+ isStarted()\l+ isFailed()\l+ isFinished()\l# CodingResult()\l}">
<polygon fill="none" stroke="black" points="514.159,-303.5 514.159,-448.5 690.159,-448.5 690.159,-303.5 514.159,-303.5"/>
<text text-anchor="start" x="522.159" y="-436.5" font-family="Helvetica,sans-Serif" font-size="10.00">org.msrg.raccoon.engine.task.result.</text>
<text text-anchor="middle" x="602.159" y="-425.5" font-family="Helvetica,sans-Serif" font-size="10.00">CodingResult</text>
<polyline fill="none" stroke="black" points="514.159,-418.5 690.159,-418.5 "/>
<text text-anchor="middle" x="602.159" y="-406.5" font-family="Helvetica,sans-Serif" font-size="10.00"> </text>
<polyline fill="none" stroke="black" points="514.159,-399.5 690.159,-399.5 "/>
<text text-anchor="start" x="522.159" y="-387.5" font-family="Helvetica,sans-Serif" font-size="10.00">+ equals()</text>
<text text-anchor="start" x="522.159" y="-376.5" font-family="Helvetica,sans-Serif" font-size="10.00">+ hashCode()</text>
<text text-anchor="start" x="522.159" y="-365.5" font-family="Helvetica,sans-Serif" font-size="10.00">+ getStatus()</text>
<text text-anchor="start" x="522.159" y="-354.5" font-family="Helvetica,sans-Serif" font-size="10.00">+ setStatus()</text>
<text text-anchor="start" x="522.159" y="-343.5" font-family="Helvetica,sans-Serif" font-size="10.00">+ isStarted()</text>
<text text-anchor="start" x="522.159" y="-332.5" font-family="Helvetica,sans-Serif" font-size="10.00">+ isFailed()</text>
<text text-anchor="start" x="522.159" y="-321.5" font-family="Helvetica,sans-Serif" font-size="10.00">+ isFinished()</text>
<text text-anchor="start" x="522.159" y="-310.5" font-family="Helvetica,sans-Serif" font-size="10.00"># CodingResult()</text>
</a>
</g>
</g>
<!-- Node3&#45;&gt;Node2 -->
<g id="edge1" class="edge"><title>Node3&#45;&gt;Node2</title>
<path fill="none" stroke="midnightblue" d="M641.168,-293.956C663.72,-247.104 691.227,-189.959 709.848,-151.274"/>
<polygon fill="none" stroke="midnightblue" points="637.912,-292.652 636.728,-303.181 644.219,-295.688 637.912,-292.652"/>
</g>
<!-- Node4 -->
<g id="node3" class="node"><title>Node4</title>
<g id="a_node3"><a xlink:href="../../d9/d22/classorg_1_1msrg_1_1raccoon_1_1engine_1_1task_1_1CodingTask.html" target="_top" xlink:title="{org.msrg.raccoon.engine.task.\lCodingTask\n||+ getCodingResults()\l+ getStatus()\l+ isStarted()\l+ isFinished()\l+ isFailed()\l+ failed()\l+ started()\l+ finished()\l+ isSequencial()\l+ equals()\l+ hashCode()\l# CodingTask()\l# getEmptyCodingResults()\l# changeStatus()\l}">
<polygon fill="none" stroke="black" points="335.659,-0.5 335.659,-211.5 484.659,-211.5 484.659,-0.5 335.659,-0.5"/>
<text text-anchor="start" x="343.659" y="-199.5" font-family="Helvetica,sans-Serif" font-size="10.00">org.msrg.raccoon.engine.task.</text>
<text text-anchor="middle" x="410.159" y="-188.5" font-family="Helvetica,sans-Serif" font-size="10.00">CodingTask</text>
<polyline fill="none" stroke="black" points="335.659,-181.5 484.659,-181.5 "/>
<text text-anchor="middle" x="410.159" y="-169.5" font-family="Helvetica,sans-Serif" font-size="10.00"> </text>
<polyline fill="none" stroke="black" points="335.659,-162.5 484.659,-162.5 "/>
<text text-anchor="start" x="343.659" y="-150.5" font-family="Helvetica,sans-Serif" font-size="10.00">+ getCodingResults()</text>
<text text-anchor="start" x="343.659" y="-139.5" font-family="Helvetica,sans-Serif" font-size="10.00">+ getStatus()</text>
<text text-anchor="start" x="343.659" y="-128.5" font-family="Helvetica,sans-Serif" font-size="10.00">+ isStarted()</text>
<text text-anchor="start" x="343.659" y="-117.5" font-family="Helvetica,sans-Serif" font-size="10.00">+ isFinished()</text>
<text text-anchor="start" x="343.659" y="-106.5" font-family="Helvetica,sans-Serif" font-size="10.00">+ isFailed()</text>
<text text-anchor="start" x="343.659" y="-95.5" font-family="Helvetica,sans-Serif" font-size="10.00">+ failed()</text>
<text text-anchor="start" x="343.659" y="-84.5" font-family="Helvetica,sans-Serif" font-size="10.00">+ started()</text>
<text text-anchor="start" x="343.659" y="-73.5" font-family="Helvetica,sans-Serif" font-size="10.00">+ finished()</text>
<text text-anchor="start" x="343.659" y="-62.5" font-family="Helvetica,sans-Serif" font-size="10.00">+ isSequencial()</text>
<text text-anchor="start" x="343.659" y="-51.5" font-family="Helvetica,sans-Serif" font-size="10.00">+ equals()</text>
<text text-anchor="start" x="343.659" y="-40.5" font-family="Helvetica,sans-Serif" font-size="10.00">+ hashCode()</text>
<text text-anchor="start" x="343.659" y="-29.5" font-family="Helvetica,sans-Serif" font-size="10.00"># CodingTask()</text>
<text text-anchor="start" x="343.659" y="-18.5" font-family="Helvetica,sans-Serif" font-size="10.00"># getEmptyCodingResults()</text>
<text text-anchor="start" x="343.659" y="-7.5" font-family="Helvetica,sans-Serif" font-size="10.00"># changeStatus()</text>
</a>
</g>
</g>
<!-- Node3&#45;&gt;Node4 -->
<g id="edge5" class="edge"><title>Node3&#45;&gt;Node4</title>
<path fill="none" stroke="#404040" d="M550.706,-303.181C532.572,-277.869 511.713,-248.754 491.711,-220.833"/>
<polygon fill="none" stroke="#404040" points="491.666,-220.771 484.92,-218.223 484.677,-211.016 491.423,-213.564 491.666,-220.771"/>
<text text-anchor="middle" x="525.659" y="-233" font-family="Helvetica,sans-Serif" font-size="10.00"> +_result</text>
</g>
<!-- Node4&#45;&gt;Node3 -->
<g id="edge2" class="edge"><title>Node4&#45;&gt;Node3</title>
<path fill="none" stroke="#404040" d="M484.828,-150.568C514.174,-171.182 545.676,-198.271 566.159,-230 578.028,-248.387 585.984,-270.404 591.317,-291.663"/>
<polygon fill="none" stroke="#404040" points="591.32,-291.674 596.566,-296.621 594.018,-303.367 588.771,-298.42 591.32,-291.674"/>
<text text-anchor="middle" x="594.159" y="-233" font-family="Helvetica,sans-Serif" font-size="10.00"> +_cTask</text>
</g>
<!-- Node5 -->
<g id="node4" class="node"><title>Node5</title>
<g id="a_node4"><a xlink:href="../../d6/d58/interfaceorg_1_1msrg_1_1raccoon_1_1engine_1_1ICodingListener.html" target="_top" xlink:title="{org.msrg.raccoon.engine.\lICodingListener\n||+ codingStarted()\l+ codingPreliminaryStageCompleted()\l+ codingFailed()\l+ codingFinished()\l}">
<polygon fill="none" stroke="black" points="256.159,-325.5 256.159,-426.5 438.159,-426.5 438.159,-325.5 256.159,-325.5"/>
<text text-anchor="start" x="264.159" y="-414.5" font-family="Helvetica,sans-Serif" font-size="10.00">org.msrg.raccoon.engine.</text>
<text text-anchor="middle" x="347.159" y="-403.5" font-family="Helvetica,sans-Serif" font-size="10.00">ICodingListener</text>
<polyline fill="none" stroke="black" points="256.159,-396.5 438.159,-396.5 "/>
<text text-anchor="middle" x="347.159" y="-384.5" font-family="Helvetica,sans-Serif" font-size="10.00"> </text>
<polyline fill="none" stroke="black" points="256.159,-377.5 438.159,-377.5 "/>
<text text-anchor="start" x="264.159" y="-365.5" font-family="Helvetica,sans-Serif" font-size="10.00">+ codingStarted()</text>
<text text-anchor="start" x="264.159" y="-354.5" font-family="Helvetica,sans-Serif" font-size="10.00">+ codingPreliminaryStageCompleted()</text>
<text text-anchor="start" x="264.159" y="-343.5" font-family="Helvetica,sans-Serif" font-size="10.00">+ codingFailed()</text>
<text text-anchor="start" x="264.159" y="-332.5" font-family="Helvetica,sans-Serif" font-size="10.00">+ codingFinished()</text>
</a>
</g>
</g>
<!-- Node5&#45;&gt;Node4 -->
<g id="edge3" class="edge"><title>Node5&#45;&gt;Node4</title>
<path fill="none" stroke="#404040" d="M358.861,-325.219C365.59,-296.591 374.348,-259.339 382.716,-223.739"/>
<polygon fill="none" stroke="#404040" points="382.79,-223.426 380.269,-216.669 385.536,-211.744 388.057,-218.5 382.79,-223.426"/>
<text text-anchor="middle" x="404.159" y="-233" font-family="Helvetica,sans-Serif" font-size="10.00"> +_listener</text>
</g>
<!-- Node6 -->
<g id="node5" class="node"><title>Node6</title>
<g id="a_node5"><a xlink:href="../../d5/d15/classorg_1_1msrg_1_1raccoon_1_1engine_1_1task_1_1CodingId.html" target="_top" xlink:title="{org.msrg.raccoon.engine.task.\lCodingId\n|&#45; _id\l&#45; _lastId\l|+ equals()\l+ hashCode()\l+ toString()\l+ getNewCodingId()\l&#45; CodingId()\l}">
<polygon fill="none" stroke="black" points="392.659,-546 392.659,-669 541.659,-669 541.659,-546 392.659,-546"/>
<text text-anchor="start" x="400.659" y="-657" font-family="Helvetica,sans-Serif" font-size="10.00">org.msrg.raccoon.engine.task.</text>
<text text-anchor="middle" x="467.159" y="-646" font-family="Helvetica,sans-Serif" font-size="10.00">CodingId</text>
<polyline fill="none" stroke="black" points="392.659,-639 541.659,-639 "/>
<text text-anchor="start" x="400.659" y="-627" font-family="Helvetica,sans-Serif" font-size="10.00">&#45; _id</text>
<text text-anchor="start" x="400.659" y="-616" font-family="Helvetica,sans-Serif" font-size="10.00">&#45; _lastId</text>
<polyline fill="none" stroke="black" points="392.659,-609 541.659,-609 "/>
<text text-anchor="start" x="400.659" y="-597" font-family="Helvetica,sans-Serif" font-size="10.00">+ equals()</text>
<text text-anchor="start" x="400.659" y="-586" font-family="Helvetica,sans-Serif" font-size="10.00">+ hashCode()</text>
<text text-anchor="start" x="400.659" y="-575" font-family="Helvetica,sans-Serif" font-size="10.00">+ toString()</text>
<text text-anchor="start" x="400.659" y="-564" font-family="Helvetica,sans-Serif" font-size="10.00">+ getNewCodingId()</text>
<text text-anchor="start" x="400.659" y="-553" font-family="Helvetica,sans-Serif" font-size="10.00">&#45; CodingId()</text>
</a>
</g>
</g>
<!-- Node6&#45;&gt;Node3 -->
<g id="edge9" class="edge"><title>Node6&#45;&gt;Node3</title>
<path fill="none" stroke="#404040" d="M502.805,-545.901C518.459,-519.289 537.079,-487.635 553.945,-458.963"/>
<polygon fill="none" stroke="#404040" points="553.987,-458.892 553.581,-451.693 560.071,-448.549 560.476,-455.749 553.987,-458.892"/>
<text text-anchor="middle" x="534.159" y="-514" font-family="Helvetica,sans-Serif" font-size="10.00"> +_id</text>
</g>
<!-- Node6&#45;&gt;Node4 -->
<g id="edge4" class="edge"><title>Node6&#45;&gt;Node4</title>
<path fill="none" stroke="#404040" d="M466.988,-545.893C466.026,-476.28 462.053,-358.812 447.159,-259 445.43,-247.416 443.234,-235.421 440.776,-223.483"/>
<polygon fill="none" stroke="#404040" points="440.741,-223.317 435.578,-218.283 438.24,-211.581 443.403,-216.615 440.741,-223.317"/>
<text text-anchor="middle" x="477.159" y="-373.5" font-family="Helvetica,sans-Serif" font-size="10.00"> +_id</text>
</g>
<!-- Node7 -->
<g id="node6" class="node"><title>Node7</title>
<g id="a_node6"><a xlink:href="../../df/de9/namespaceorg_1_1msrg_1_1raccoon_1_1engine_1_1task.html#dd/d1c/enumorg_1_1msrg_1_1raccoon_1_1engine_1_1task_1_1CodingTaskStatus" target="_top" xlink:title="{org.msrg.raccoon.engine.task.\lCodingTaskStatus\n|+ CREATED\l+ STARTED\l+ FINISHED\l+ FAILED\l|}">
<polygon fill="none" stroke="black" points="90.6585,-557 90.6585,-658 239.659,-658 239.659,-557 90.6585,-557"/>
<text text-anchor="start" x="98.6585" y="-646" font-family="Helvetica,sans-Serif" font-size="10.00">org.msrg.raccoon.engine.task.</text>
<text text-anchor="middle" x="165.159" y="-635" font-family="Helvetica,sans-Serif" font-size="10.00">CodingTaskStatus</text>
<polyline fill="none" stroke="black" points="90.6585,-628 239.659,-628 "/>
<text text-anchor="start" x="98.6585" y="-616" font-family="Helvetica,sans-Serif" font-size="10.00">+ CREATED</text>
<text text-anchor="start" x="98.6585" y="-605" font-family="Helvetica,sans-Serif" font-size="10.00">+ STARTED</text>
<text text-anchor="start" x="98.6585" y="-594" font-family="Helvetica,sans-Serif" font-size="10.00">+ FINISHED</text>
<text text-anchor="start" x="98.6585" y="-583" font-family="Helvetica,sans-Serif" font-size="10.00">+ FAILED</text>
<polyline fill="none" stroke="black" points="90.6585,-576 239.659,-576 "/>
<text text-anchor="middle" x="165.159" y="-564" font-family="Helvetica,sans-Serif" font-size="10.00"> </text>
</a>
</g>
</g>
<!-- Node7&#45;&gt;Node3 -->
<g id="edge10" class="edge"><title>Node7&#45;&gt;Node3</title>
<path fill="none" stroke="#404040" d="M239.808,-583.463C331.581,-554.793 477.966,-507.798 500.159,-493 514.842,-483.209 528.718,-470.785 541.23,-457.73"/>
<polygon fill="none" stroke="#404040" points="541.515,-457.422 542.656,-450.301 549.667,-448.615 548.526,-455.736 541.515,-457.422"/>
<text text-anchor="middle" x="473.659" y="-514" font-family="Helvetica,sans-Serif" font-size="10.00"> #_status</text>
</g>
<!-- Node7&#45;&gt;Node4 -->
<g id="edge6" class="edge"><title>Node7&#45;&gt;Node4</title>
<path fill="none" stroke="#404040" d="M90.5917,-558.152C69.6501,-540.415 49.5115,-518.372 38.1585,-493 -4.31845,-398.07 -19.8281,-345.334 38.1585,-259 101.567,-164.593 235.052,-128.785 323.662,-115.227"/>
<polygon fill="none" stroke="#404040" points="323.71,-115.22 329.073,-110.399 335.585,-113.495 330.223,-118.316 323.71,-115.22"/>
<text text-anchor="middle" x="58.6585" y="-373.5" font-family="Helvetica,sans-Serif" font-size="10.00"> #_status</text>
</g>
<!-- Node8 -->
<g id="node7" class="node"><title>Node8</title>
<g id="a_node7"><a xlink:href="../../d5/da9/enumorg_1_1msrg_1_1raccoon_1_1engine_1_1task_1_1CodingTaskType.html" target="_top" xlink:title="{org.msrg.raccoon.engine.task.\lCodingTaskType\n|+ FILE_TASK\l+ SLICES_EQUAL\l+ MULTIPLY\l+ INVERSE\l+ SEQUENCIAL\l+ _isSequencial\l|+ CodingTaskType()\l}">
<polygon fill="none" stroke="black" points="88.6585,-314.5 88.6585,-437.5 237.659,-437.5 237.659,-314.5 88.6585,-314.5"/>
<text text-anchor="start" x="96.6585" y="-425.5" font-family="Helvetica,sans-Serif" font-size="10.00">org.msrg.raccoon.engine.task.</text>
<text text-anchor="middle" x="163.159" y="-414.5" font-family="Helvetica,sans-Serif" font-size="10.00">CodingTaskType</text>
<polyline fill="none" stroke="black" points="88.6585,-407.5 237.659,-407.5 "/>
<text text-anchor="start" x="96.6585" y="-395.5" font-family="Helvetica,sans-Serif" font-size="10.00">+ FILE_TASK</text>
<text text-anchor="start" x="96.6585" y="-384.5" font-family="Helvetica,sans-Serif" font-size="10.00">+ SLICES_EQUAL</text>
<text text-anchor="start" x="96.6585" y="-373.5" font-family="Helvetica,sans-Serif" font-size="10.00">+ MULTIPLY</text>
<text text-anchor="start" x="96.6585" y="-362.5" font-family="Helvetica,sans-Serif" font-size="10.00">+ INVERSE</text>
<text text-anchor="start" x="96.6585" y="-351.5" font-family="Helvetica,sans-Serif" font-size="10.00">+ SEQUENCIAL</text>
<text text-anchor="start" x="96.6585" y="-340.5" font-family="Helvetica,sans-Serif" font-size="10.00">+ _isSequencial</text>
<polyline fill="none" stroke="black" points="88.6585,-333.5 237.659,-333.5 "/>
<text text-anchor="start" x="96.6585" y="-321.5" font-family="Helvetica,sans-Serif" font-size="10.00">+ CodingTaskType()</text>
</a>
</g>
</g>
<!-- Node8&#45;&gt;Node4 -->
<g id="edge7" class="edge"><title>Node8&#45;&gt;Node4</title>
<path fill="none" stroke="#404040" d="M203.765,-314.285C216.906,-295.948 232.014,-276.145 247.159,-259 271.439,-231.512 300.085,-203.542 326.535,-179.215"/>
<polygon fill="none" stroke="#404040" points="326.55,-179.202 328.283,-172.202 335.412,-171.11 333.678,-178.11 326.55,-179.202"/>
<text text-anchor="middle" x="299.659" y="-233" font-family="Helvetica,sans-Serif" font-size="10.00"> +_taskType</text>
</g>
<!-- Node9 -->
<g id="node8" class="node"><title>Node9</title>
<g id="a_node8"><a xlink:href="../../d1/dce/namespaceorg_1_1msrg_1_1raccoon_1_1engine_1_1task_1_1result.html#de/d82/enumorg_1_1msrg_1_1raccoon_1_1engine_1_1task_1_1result_1_1CodingResultsType" target="_top" xlink:title="{org.msrg.raccoon.engine.task.result.\lCodingResultsType\n|+ BOOLEAN\l+ NC_MATRIX\l+ BULK_MATRIX\l+ CODED_SLICE_MATRIX\l+ SLICE_MATRIX\l+ CODED_SLICE\l+ FILE_RESULT\l|}">
<polygon fill="none" stroke="black" points="559.159,-540.5 559.159,-674.5 735.159,-674.5 735.159,-540.5 559.159,-540.5"/>
<text text-anchor="start" x="567.159" y="-662.5" font-family="Helvetica,sans-Serif" font-size="10.00">org.msrg.raccoon.engine.task.result.</text>
<text text-anchor="middle" x="647.159" y="-651.5" font-family="Helvetica,sans-Serif" font-size="10.00">CodingResultsType</text>
<polyline fill="none" stroke="black" points="559.159,-644.5 735.159,-644.5 "/>
<text text-anchor="start" x="567.159" y="-632.5" font-family="Helvetica,sans-Serif" font-size="10.00">+ BOOLEAN</text>
<text text-anchor="start" x="567.159" y="-621.5" font-family="Helvetica,sans-Serif" font-size="10.00">+ NC_MATRIX</text>
<text text-anchor="start" x="567.159" y="-610.5" font-family="Helvetica,sans-Serif" font-size="10.00">+ BULK_MATRIX</text>
<text text-anchor="start" x="567.159" y="-599.5" font-family="Helvetica,sans-Serif" font-size="10.00">+ CODED_SLICE_MATRIX</text>
<text text-anchor="start" x="567.159" y="-588.5" font-family="Helvetica,sans-Serif" font-size="10.00">+ SLICE_MATRIX</text>
<text text-anchor="start" x="567.159" y="-577.5" font-family="Helvetica,sans-Serif" font-size="10.00">+ CODED_SLICE</text>
<text text-anchor="start" x="567.159" y="-566.5" font-family="Helvetica,sans-Serif" font-size="10.00">+ FILE_RESULT</text>
<polyline fill="none" stroke="black" points="559.159,-559.5 735.159,-559.5 "/>
<text text-anchor="middle" x="647.159" y="-547.5" font-family="Helvetica,sans-Serif" font-size="10.00"> </text>
</a>
</g>
</g>
<!-- Node9&#45;&gt;Node3 -->
<g id="edge8" class="edge"><title>Node9&#45;&gt;Node3</title>
<path fill="none" stroke="#404040" d="M634.203,-540.427C629.317,-515.508 623.694,-486.83 618.535,-460.523"/>
<polygon fill="none" stroke="#404040" points="618.512,-460.4 613.432,-455.282 616.202,-448.624 621.282,-453.742 618.512,-460.4"/>
<text text-anchor="middle" x="663.159" y="-514" font-family="Helvetica,sans-Serif" font-size="10.00"> +_resultsType</text>
</g>
<!-- Node10 -->
<g id="node9" class="node"><title>Node10</title>
<g id="a_node9"><a xlink:href="../../d6/d6d/classorg_1_1msrg_1_1raccoon_1_1matrix_1_1bulk_1_1SliceMatrix.html" target="_top" xlink:title="{org.msrg.raccoon.matrix.bulk.\lSliceMatrix\n|+ _cols\l+ _MAX_COLS_PRINT\l# _b\l&#45; serialVersionUID\l|+ SliceMatrix()\l+ SliceMatrix()\l+ SliceMatrix()\l+ loadNoCopy()\l+ loadWithCopy()\l+ getContent()\l+ hasContent()\l+ clone()\l+ equals()\l+ getByte()\land 6 more...\l+ createRandomSliceMatrix()\l+ getEmptySliceMatrix()\l}">
<polygon fill="none" stroke="black" points="714.159,-259.5 714.159,-492.5 860.159,-492.5 860.159,-259.5 714.159,-259.5"/>
<text text-anchor="start" x="722.159" y="-480.5" font-family="Helvetica,sans-Serif" font-size="10.00">org.msrg.raccoon.matrix.bulk.</text>
<text text-anchor="middle" x="787.159" y="-469.5" font-family="Helvetica,sans-Serif" font-size="10.00">SliceMatrix</text>
<polyline fill="none" stroke="black" points="714.159,-462.5 860.159,-462.5 "/>
<text text-anchor="start" x="722.159" y="-450.5" font-family="Helvetica,sans-Serif" font-size="10.00">+ _cols</text>
<text text-anchor="start" x="722.159" y="-439.5" font-family="Helvetica,sans-Serif" font-size="10.00">+ _MAX_COLS_PRINT</text>
<text text-anchor="start" x="722.159" y="-428.5" font-family="Helvetica,sans-Serif" font-size="10.00"># _b</text>
<text text-anchor="start" x="722.159" y="-417.5" font-family="Helvetica,sans-Serif" font-size="10.00">&#45; serialVersionUID</text>
<polyline fill="none" stroke="black" points="714.159,-410.5 860.159,-410.5 "/>
<text text-anchor="start" x="722.159" y="-398.5" font-family="Helvetica,sans-Serif" font-size="10.00">+ SliceMatrix()</text>
<text text-anchor="start" x="722.159" y="-387.5" font-family="Helvetica,sans-Serif" font-size="10.00">+ SliceMatrix()</text>
<text text-anchor="start" x="722.159" y="-376.5" font-family="Helvetica,sans-Serif" font-size="10.00">+ SliceMatrix()</text>
<text text-anchor="start" x="722.159" y="-365.5" font-family="Helvetica,sans-Serif" font-size="10.00">+ loadNoCopy()</text>
<text text-anchor="start" x="722.159" y="-354.5" font-family="Helvetica,sans-Serif" font-size="10.00">+ loadWithCopy()</text>
<text text-anchor="start" x="722.159" y="-343.5" font-family="Helvetica,sans-Serif" font-size="10.00">+ getContent()</text>
<text text-anchor="start" x="722.159" y="-332.5" font-family="Helvetica,sans-Serif" font-size="10.00">+ hasContent()</text>
<text text-anchor="start" x="722.159" y="-321.5" font-family="Helvetica,sans-Serif" font-size="10.00">+ clone()</text>
<text text-anchor="start" x="722.159" y="-310.5" font-family="Helvetica,sans-Serif" font-size="10.00">+ equals()</text>
<text text-anchor="start" x="722.159" y="-299.5" font-family="Helvetica,sans-Serif" font-size="10.00">+ getByte()</text>
<text text-anchor="start" x="722.159" y="-288.5" font-family="Helvetica,sans-Serif" font-size="10.00">and 6 more...</text>
<text text-anchor="start" x="722.159" y="-277.5" font-family="Helvetica,sans-Serif" font-size="10.00">+ createRandomSliceMatrix()</text>
<text text-anchor="start" x="722.159" y="-266.5" font-family="Helvetica,sans-Serif" font-size="10.00">+ getEmptySliceMatrix()</text>
</a>
</g>
</g>
<!-- Node10&#45;&gt;Node2 -->
<g id="edge11" class="edge"><title>Node10&#45;&gt;Node2</title>
<path fill="none" stroke="#404040" d="M763.003,-259.399C756.041,-226.08 748.755,-191.213 742.913,-163.252"/>
<polygon fill="none" stroke="#404040" points="742.874,-163.066 737.731,-158.011 740.419,-151.319 745.562,-156.374 742.874,-163.066"/>
<text text-anchor="middle" x="787.159" y="-233" font-family="Helvetica,sans-Serif" font-size="10.00"> #_smResult</text>
</g>
<!-- Node11 -->
<g id="node10" class="node"><title>Node11</title>
<polygon fill="none" stroke="#bfbfbf" points="753.659,-579 753.659,-636 820.659,-636 820.659,-579 753.659,-579"/>
<text text-anchor="middle" x="787.159" y="-624" font-family="Helvetica,sans-Serif" font-size="10.00">Serializable</text>
<polyline fill="none" stroke="#bfbfbf" points="753.659,-617 820.659,-617 "/>
<text text-anchor="middle" x="787.159" y="-605" font-family="Helvetica,sans-Serif" font-size="10.00"> </text>
<polyline fill="none" stroke="#bfbfbf" points="753.659,-598 820.659,-598 "/>
<text text-anchor="middle" x="787.159" y="-586" font-family="Helvetica,sans-Serif" font-size="10.00"> </text>
</g>
<!-- Node11&#45;&gt;Node10 -->
<g id="edge12" class="edge"><title>Node11&#45;&gt;Node10</title>
<path fill="none" stroke="midnightblue" d="M787.159,-568.72C787.159,-547.654 787.159,-520.166 787.159,-492.612"/>
<polygon fill="none" stroke="midnightblue" points="783.659,-568.817 787.159,-578.817 790.659,-568.817 783.659,-568.817"/>
</g>
<!-- Node12 -->
<g id="node11" class="node"><title>Node12</title>
<polygon fill="none" stroke="#bfbfbf" points="838.659,-579 838.659,-636 891.659,-636 891.659,-579 838.659,-579"/>
<text text-anchor="middle" x="865.159" y="-624" font-family="Helvetica,sans-Serif" font-size="10.00">Random</text>
<polyline fill="none" stroke="#bfbfbf" points="838.659,-617 891.659,-617 "/>
<text text-anchor="middle" x="865.159" y="-605" font-family="Helvetica,sans-Serif" font-size="10.00"> </text>
<polyline fill="none" stroke="#bfbfbf" points="838.659,-598 891.659,-598 "/>
<text text-anchor="middle" x="865.159" y="-586" font-family="Helvetica,sans-Serif" font-size="10.00"> </text>
</g>
<!-- Node12&#45;&gt;Node10 -->
<g id="edge13" class="edge"><title>Node12&#45;&gt;Node10</title>
<path fill="none" stroke="#404040" d="M855.75,-578.817C849.215,-559.589 839.991,-532.45 830.421,-504.291"/>
<polygon fill="none" stroke="#404040" points="830.313,-503.974 824.595,-499.58 826.452,-492.612 832.17,-497.006 830.313,-503.974"/>
<text text-anchor="middle" x="865.659" y="-514" font-family="Helvetica,sans-Serif" font-size="10.00"> #_RANDOM</text>
</g>
</g>
</svg>
