<?xml version="1.0" encoding="UTF-8" standalone="no"?>
<!DOCTYPE svg PUBLIC "-//W3C//DTD SVG 1.1//EN"
 "http://www.w3.org/Graphics/SVG/1.1/DTD/svg11.dtd">
<!-- Generated by graphviz version 2.38.0 (20140413.2041)
 -->
<!-- Title: org.msrg.raccoon.engine.task.sequential.MultiplyBulkMatrix_SequentialCodingTask.runStagePrivately Pages: 1 -->
<!--zoomable 333 -->
<svg id="main" version="1.1" xmlns="http://www.w3.org/2000/svg" xmlns:xlink="http://www.w3.org/1999/xlink" xml:space="preserve" onload="init(evt)">
<style type="text/css"><![CDATA[
.edge:hover path { stroke: red; }
.edge:hover polygon { stroke: red; fill: red; }
]]></style>
<script type="text/javascript"><![CDATA[
var edges = document.getElementsByTagName('g');
if (edges && edges.length) {
  for (var i=0;i<edges.length;i++) {
    if (edges[i].id.substr(0,4)=='edge') {
      edges[i].setAttribute('class','edge');
    }
  }
}
]]></script>
        <defs>
                <circle id="rim" cx="0" cy="0" r="7"/>
                <circle id="rim2" cx="0" cy="0" r="3.5"/>
                <g id="zoomPlus">
                        <use xlink:href="#rim" fill="#404040">
                                <set attributeName="fill" to="#808080" begin="zoomplus.mouseover" end="zoomplus.mouseout"/>
                        </use>
                        <path d="M-4,0h8M0,-4v8" fill="none" stroke="white" stroke-width="1.5" pointer-events="none"/>
                </g>
                <g id="zoomMin">
                        <use xlink:href="#rim" fill="#404040">
                                <set attributeName="fill" to="#808080" begin="zoomminus.mouseover" end="zoomminus.mouseout"/>
                        </use>
                        <path d="M-4,0h8" fill="none" stroke="white" stroke-width="1.5" pointer-events="none"/>
                </g>
                <g id="dirArrow">
                        <path fill="none" stroke="white" stroke-width="1.5" d="M0,-3.0v7 M-2.5,-0.5L0,-3.0L2.5,-0.5"/>
                </g>
               <g id="resetDef">
                       <use xlink:href="#rim2" fill="#404040">
                               <set attributeName="fill" to="#808080" begin="reset.mouseover" end="reset.mouseout"/>
                       </use>
               </g>
        </defs>

<script type="text/javascript">
var viewWidth = 669;
var viewHeight = 333;
var sectionId = 'dynsection-0';
</script>
<script xlink:href="../../svgpan.js"/>
<svg id="graph" class="graph">
<g id="viewport">
<title>org.msrg.raccoon.engine.task.sequential.MultiplyBulkMatrix_SequentialCodingTask.runStagePrivately</title>
<!-- Node1 -->
<g id="node1" class="node"><title>Node1</title>
<polygon fill="#bfbfbf" stroke="black" points="0,-142 0,-183 217,-183 217,-142 0,-142"/>
<text text-anchor="start" x="8" y="-171" font-family="Helvetica,sans-Serif" font-size="10.00">org.msrg.raccoon.engine.task.sequential.</text>
<text text-anchor="start" x="8" y="-160" font-family="Helvetica,sans-Serif" font-size="10.00">MultiplyBulkMatrix_SequentialCodingTask.run</text>
<text text-anchor="middle" x="108.5" y="-149" font-family="Helvetica,sans-Serif" font-size="10.00">StagePrivately</text>
</g>
<!-- Node2 -->
<g id="node2" class="node"><title>Node2</title>
<g id="a_node2"><a xlink:href="../../df/da4/classorg_1_1msrg_1_1raccoon_1_1matrix_1_1bulk_1_1BulkMatrix_a698529542d2b989e3b446e061879a580.html#a698529542d2b989e3b446e061879a580" target="_top" xlink:title="org.msrg.raccoon.matrix.bulk.\lBulkMatrix.add">
<polygon fill="none" stroke="black" points="278,-294.5 278,-324.5 424,-324.5 424,-294.5 278,-294.5"/>
<text text-anchor="start" x="286" y="-312.5" font-family="Helvetica,sans-Serif" font-size="10.00">org.msrg.raccoon.matrix.bulk.</text>
<text text-anchor="middle" x="351" y="-301.5" font-family="Helvetica,sans-Serif" font-size="10.00">BulkMatrix.add</text>
</a>
</g>
</g>
<!-- Node1&#45;&gt;Node2 -->
<g id="edge1" class="edge"><title>Node1&#45;&gt;Node2</title>
<path fill="none" stroke="midnightblue" d="M127.741,-183.281C153.086,-210.837 201.659,-259.058 253,-285.5 257.868,-288.007 263.01,-290.261 268.284,-292.285"/>
<polygon fill="midnightblue" stroke="midnightblue" points="267.296,-295.648 277.891,-295.688 269.633,-289.05 267.296,-295.648"/>
</g>
<!-- Node3 -->
<g id="node3" class="node"><title>Node3</title>
<g id="a_node3"><a xlink:href="../../df/da4/classorg_1_1msrg_1_1raccoon_1_1matrix_1_1bulk_1_1BulkMatrix_a1ea2bca79aa590fdcfa5f472acc479cc.html#a1ea2bca79aa590fdcfa5f472acc479cc" target="_top" xlink:title="org.msrg.raccoon.matrix.bulk.\lBulkMatrix.createEmptyMatrix">
<polygon fill="none" stroke="black" points="276.5,-245.5 276.5,-275.5 425.5,-275.5 425.5,-245.5 276.5,-245.5"/>
<text text-anchor="start" x="284.5" y="-263.5" font-family="Helvetica,sans-Serif" font-size="10.00">org.msrg.raccoon.matrix.bulk.</text>
<text text-anchor="middle" x="351" y="-252.5" font-family="Helvetica,sans-Serif" font-size="10.00">BulkMatrix.createEmptyMatrix</text>
</a>
</g>
</g>
<!-- Node1&#45;&gt;Node3 -->
<g id="edge2" class="edge"><title>Node1&#45;&gt;Node3</title>
<path fill="none" stroke="midnightblue" d="M143.835,-183.109C172.271,-199.458 214.164,-221.912 253,-236.5 258.808,-238.682 264.887,-240.723 271.047,-242.619"/>
<polygon fill="midnightblue" stroke="midnightblue" points="270.186,-246.014 280.767,-245.48 272.162,-239.299 270.186,-246.014"/>
</g>
<!-- Node5 -->
<g id="node5" class="node"><title>Node5</title>
<g id="a_node5"><a xlink:href="../../d0/d50/classorg_1_1msrg_1_1raccoon_1_1engine_1_1task_1_1result_1_1SliceMatrix__CodingResult_a3927c013fc0f3416dfb055b484327201.html#a3927c013fc0f3416dfb055b484327201" target="_top" xlink:title="org.msrg.raccoon.engine.task.result.\lSliceMatrix_CodingResult.getResult">
<polygon fill="none" stroke="black" points="263,-196.5 263,-226.5 439,-226.5 439,-196.5 263,-196.5"/>
<text text-anchor="start" x="271" y="-214.5" font-family="Helvetica,sans-Serif" font-size="10.00">org.msrg.raccoon.engine.task.result.</text>
<text text-anchor="middle" x="351" y="-203.5" font-family="Helvetica,sans-Serif" font-size="10.00">SliceMatrix_CodingResult.getResult</text>
</a>
</g>
</g>
<!-- Node1&#45;&gt;Node5 -->
<g id="edge4" class="edge"><title>Node1&#45;&gt;Node5</title>
<path fill="none" stroke="midnightblue" d="M210.448,-183.067C229.104,-186.868 248.395,-190.799 266.463,-194.48"/>
<polygon fill="midnightblue" stroke="midnightblue" points="265.866,-197.93 276.364,-196.497 267.264,-191.071 265.866,-197.93"/>
</g>
<!-- Node7 -->
<g id="node7" class="node"><title>Node7</title>
<g id="a_node7"><a xlink:href="../../db/d3f/classorg_1_1msrg_1_1raccoon_1_1matrix_1_1TypedMatrix_aba5684317273db23da9933dd1acdc94c.html#aba5684317273db23da9933dd1acdc94c" target="_top" xlink:title="org.msrg.raccoon.matrix.\lTypedMatrix.getRowSize">
<polygon fill="none" stroke="black" points="287.5,-147.5 287.5,-177.5 414.5,-177.5 414.5,-147.5 287.5,-147.5"/>
<text text-anchor="start" x="295.5" y="-165.5" font-family="Helvetica,sans-Serif" font-size="10.00">org.msrg.raccoon.matrix.</text>
<text text-anchor="middle" x="351" y="-154.5" font-family="Helvetica,sans-Serif" font-size="10.00">TypedMatrix.getRowSize</text>
</a>
</g>
</g>
<!-- Node1&#45;&gt;Node7 -->
<g id="edge6" class="edge"><title>Node1&#45;&gt;Node7</title>
<path fill="none" stroke="midnightblue" d="M217.088,-162.5C237.443,-162.5 258.287,-162.5 277.253,-162.5"/>
<polygon fill="midnightblue" stroke="midnightblue" points="277.283,-166 287.282,-162.5 277.282,-159 277.283,-166"/>
</g>
<!-- Node8 -->
<g id="node8" class="node"><title>Node8</title>
<g id="a_node8"><a xlink:href="../../dd/dff/interfaceorg_1_1msrg_1_1raccoon_1_1engine_1_1ICodingEngine_a0b4cebd680a0fa0a6d0fb420fec4bd52.html#a0b4cebd680a0fa0a6d0fb420fec4bd52" target="_top" xlink:title="org.msrg.raccoon.engine.\lICodingEngine.multiply">
<polygon fill="none" stroke="black" points="287.5,-98.5 287.5,-128.5 414.5,-128.5 414.5,-98.5 287.5,-98.5"/>
<text text-anchor="start" x="295.5" y="-116.5" font-family="Helvetica,sans-Serif" font-size="10.00">org.msrg.raccoon.engine.</text>
<text text-anchor="middle" x="351" y="-105.5" font-family="Helvetica,sans-Serif" font-size="10.00">ICodingEngine.multiply</text>
</a>
</g>
</g>
<!-- Node1&#45;&gt;Node8 -->
<g id="edge7" class="edge"><title>Node1&#45;&gt;Node8</title>
<path fill="none" stroke="midnightblue" d="M210.448,-141.933C232.975,-137.343 256.431,-132.564 277.539,-128.263"/>
<polygon fill="midnightblue" stroke="midnightblue" points="278.279,-131.685 287.379,-126.259 276.881,-124.826 278.279,-131.685"/>
</g>
<!-- Node9 -->
<g id="node9" class="node"><title>Node9</title>
<g id="a_node9"><a xlink:href="../../d6/d78/classorg_1_1msrg_1_1raccoon_1_1engine_1_1task_1_1sequential_1_1SequentialCodingTask_a9fee0e39302d3e057700653cea01cfe4.html#a9fee0e39302d3e057700653cea01cfe4" target="_top" xlink:title="org.msrg.raccoon.engine.task.sequential.\lSequentialCodingTask.setCurrentStage">
<polygon fill="none" stroke="black" points="253,-49.5 253,-79.5 449,-79.5 449,-49.5 253,-49.5"/>
<text text-anchor="start" x="261" y="-67.5" font-family="Helvetica,sans-Serif" font-size="10.00">org.msrg.raccoon.engine.task.sequential.</text>
<text text-anchor="middle" x="351" y="-56.5" font-family="Helvetica,sans-Serif" font-size="10.00">SequentialCodingTask.setCurrentStage</text>
</a>
</g>
</g>
<!-- Node1&#45;&gt;Node9 -->
<g id="edge8" class="edge"><title>Node1&#45;&gt;Node9</title>
<path fill="none" stroke="midnightblue" d="M144.489,-141.969C172.955,-125.942 214.566,-104.029 253,-89.5 259.71,-86.9634 266.776,-84.5952 273.91,-82.4069"/>
<polygon fill="midnightblue" stroke="midnightblue" points="275.049,-85.7201 283.651,-79.5355 273.07,-79.0057 275.049,-85.7201"/>
</g>
<!-- Node10 -->
<g id="node10" class="node"><title>Node10</title>
<g id="a_node10"><a xlink:href="../../db/d3f/classorg_1_1msrg_1_1raccoon_1_1matrix_1_1TypedMatrix_ad1e32e3ad9d793648cb9c17cde3302a6.html#ad1e32e3ad9d793648cb9c17cde3302a6" target="_top" xlink:title="org.msrg.raccoon.matrix.\lTypedMatrix.toArray">
<polygon fill="none" stroke="black" points="288.5,-0.5 288.5,-30.5 413.5,-30.5 413.5,-0.5 288.5,-0.5"/>
<text text-anchor="start" x="296.5" y="-18.5" font-family="Helvetica,sans-Serif" font-size="10.00">org.msrg.raccoon.matrix.</text>
<text text-anchor="middle" x="351" y="-7.5" font-family="Helvetica,sans-Serif" font-size="10.00">TypedMatrix.toArray</text>
</a>
</g>
</g>
<!-- Node1&#45;&gt;Node10 -->
<g id="edge9" class="edge"><title>Node1&#45;&gt;Node10</title>
<path fill="none" stroke="midnightblue" d="M127.815,-141.966C153.242,-114.724 201.91,-66.9955 253,-40.5 261.049,-36.3255 269.844,-32.8144 278.746,-29.8696"/>
<polygon fill="midnightblue" stroke="midnightblue" points="279.89,-33.1796 288.418,-26.8919 277.83,-26.4895 279.89,-33.1796"/>
</g>
<!-- Node4 -->
<g id="node4" class="node"><title>Node4</title>
<g id="a_node4"><a xlink:href="../../df/da4/classorg_1_1msrg_1_1raccoon_1_1matrix_1_1bulk_1_1BulkMatrix_ae52685687565b5725a204d70237d300a.html#ae52685687565b5725a204d70237d300a" target="_top" xlink:title="org.msrg.raccoon.matrix.bulk.\lBulkMatrix.BulkMatrix">
<polygon fill="none" stroke="black" points="500,-245.5 500,-275.5 646,-275.5 646,-245.5 500,-245.5"/>
<text text-anchor="start" x="508" y="-263.5" font-family="Helvetica,sans-Serif" font-size="10.00">org.msrg.raccoon.matrix.bulk.</text>
<text text-anchor="middle" x="573" y="-252.5" font-family="Helvetica,sans-Serif" font-size="10.00">BulkMatrix.BulkMatrix</text>
</a>
</g>
</g>
<!-- Node3&#45;&gt;Node4 -->
<g id="edge3" class="edge"><title>Node3&#45;&gt;Node4</title>
<path fill="none" stroke="midnightblue" d="M425.563,-260.5C446.066,-260.5 468.473,-260.5 489.457,-260.5"/>
<polygon fill="midnightblue" stroke="midnightblue" points="489.629,-264 499.629,-260.5 489.629,-257 489.629,-264"/>
</g>
<!-- Node6 -->
<g id="node6" class="node"><title>Node6</title>
<g id="a_node6"><a xlink:href="../../df/d3e/classorg_1_1msrg_1_1raccoon_1_1engine_1_1task_1_1result_1_1CodingResult_a3d4ac3e6ad6ad1a0bbbbc8f345092652.html#a3d4ac3e6ad6ad1a0bbbbc8f345092652" target="_top" xlink:title="org.msrg.raccoon.engine.task.result.\lCodingResult.isFinished">
<polygon fill="none" stroke="black" points="485,-196.5 485,-226.5 661,-226.5 661,-196.5 485,-196.5"/>
<text text-anchor="start" x="493" y="-214.5" font-family="Helvetica,sans-Serif" font-size="10.00">org.msrg.raccoon.engine.task.result.</text>
<text text-anchor="middle" x="573" y="-203.5" font-family="Helvetica,sans-Serif" font-size="10.00">CodingResult.isFinished</text>
</a>
</g>
</g>
<!-- Node5&#45;&gt;Node6 -->
<g id="edge5" class="edge"><title>Node5&#45;&gt;Node6</title>
<path fill="none" stroke="midnightblue" d="M439.266,-211.5C450.864,-211.5 462.815,-211.5 474.572,-211.5"/>
<polygon fill="midnightblue" stroke="midnightblue" points="474.84,-215 484.84,-211.5 474.84,-208 474.84,-215"/>
</g>
</g>
</svg>
        <g id="navigator" transform="translate(0 0)" fill="#404254">
                <rect fill="#f2f5e9" fill-opacity="0.5" stroke="#606060" stroke-width=".5" x="0" y="0" width="60" height="60"/>
                <use id="zoomplus" xlink:href="#zoomPlus" x="17" y="9" onmousedown="handleZoom(evt,'in')"/>
                <use id="zoomminus" xlink:href="#zoomMin" x="42" y="9" onmousedown="handleZoom(evt,'out')"/>
                <use id="reset" xlink:href="#resetDef" x="30" y="36" onmousedown="handleReset()"/>
                <g id="arrowUp" xlink:href="#dirArrow" transform="translate(30 24)" onmousedown="handlePan(0,-1)">
                  <use xlink:href="#rim" fill="#404040">
                        <set attributeName="fill" to="#808080" begin="arrowUp.mouseover" end="arrowUp.mouseout"/>
                  </use>
                  <path fill="none" stroke="white" stroke-width="1.5" d="M0,-3.0v7 M-2.5,-0.5L0,-3.0L2.5,-0.5"/>
                </g>
                <g id="arrowRight" xlink:href="#dirArrow" transform="rotate(90) translate(36 -43)" onmousedown="handlePan(1,0)">
                  <use xlink:href="#rim" fill="#404040">
                        <set attributeName="fill" to="#808080" begin="arrowRight.mouseover" end="arrowRight.mouseout"/>
                  </use>
                  <path fill="none" stroke="white" stroke-width="1.5" d="M0,-3.0v7 M-2.5,-0.5L0,-3.0L2.5,-0.5"/>
                </g>
                <g id="arrowDown" xlink:href="#dirArrow" transform="rotate(180) translate(-30 -48)" onmousedown="handlePan(0,1)">
                  <use xlink:href="#rim" fill="#404040">
                        <set attributeName="fill" to="#808080" begin="arrowDown.mouseover" end="arrowDown.mouseout"/>
                  </use>
                  <path fill="none" stroke="white" stroke-width="1.5" d="M0,-3.0v7 M-2.5,-0.5L0,-3.0L2.5,-0.5"/>
                </g>
                <g id="arrowLeft" xlink:href="#dirArrow" transform="rotate(270) translate(-36 17)" onmousedown="handlePan(-1,0)">
                  <use xlink:href="#rim" fill="#404040">
                        <set attributeName="fill" to="#808080" begin="arrowLeft.mouseover" end="arrowLeft.mouseout"/>
                  </use>
                  <path fill="none" stroke="white" stroke-width="1.5" d="M0,-3.0v7 M-2.5,-0.5L0,-3.0L2.5,-0.5"/>
                </g>
        </g>
        <svg viewBox="0 0 15 15" width="100%" height="30px" preserveAspectRatio="xMaxYMin meet">
         <g id="arrow_out" transform="scale(0.3 0.3)">
          <a xlink:href="classorg_1_1msrg_1_1raccoon_1_1engine_1_1task_1_1sequential_1_1MultiplyBulkMatrix__SequentialCodingTask_a7e9cd0301479f76cdaa37d35547c760a_a7e9cd0301479f76cdaa37d35547c760a_cgraph_org.svg" target="_base">
           <rect id="button" ry="5" rx="5" y="6" x="6" height="38" width="38"
                fill="#f2f5e9" fill-opacity="0.5" stroke="#606060" stroke-width="1.0"/>
           <path id="arrow"
             d="M 11.500037,31.436501 C 11.940474,20.09759 22.043105,11.32322 32.158766,21.979434 L 37.068811,17.246167 C 37.068811,17.246167 37.088388,32 37.088388,32 L 22.160133,31.978069 C 22.160133,31.978069 26.997745,27.140456 26.997745,27.140456 C 18.528582,18.264221 13.291696,25.230495 11.500037,31.436501 z"
             style="fill:#404040;"/>
          </a>
         </g>
        </svg>
</svg>
