<?xml version="1.0" encoding="UTF-8" standalone="no"?>
<!DOCTYPE svg PUBLIC "-//W3C//DTD SVG 1.1//EN"
 "http://www.w3.org/Graphics/SVG/1.1/DTD/svg11.dtd">
<!-- Generated by graphviz version 2.38.0 (20140413.2041)
 -->
<!-- Title: org.msrg.raccoon.CodedBatch Pages: 1 -->
<svg width="611pt" height="986pt"
 viewBox="0.00 0.00 611.00 986.00" xmlns="http://www.w3.org/2000/svg" xmlns:xlink="http://www.w3.org/1999/xlink">
<g id="graph0" class="graph" transform="scale(1 1) rotate(0) translate(4 982)">
<title>org.msrg.raccoon.CodedBatch</title>
<!-- Node4 -->
<g id="node1" class="node"><title>Node4</title>
<polygon fill="#bfbfbf" stroke="black" points="249,-0.5 249,-222.5 413,-222.5 413,-0.5 249,-0.5"/>
<text text-anchor="middle" x="331" y="-210.5" font-family="Helvetica,sans-Serif" font-size="10.00">org.msrg.raccoon.CodedBatch</text>
<polyline fill="none" stroke="black" points="249,-203.5 413,-203.5 "/>
<text text-anchor="start" x="257" y="-191.5" font-family="Helvetica,sans-Serif" font-size="10.00"># _size</text>
<text text-anchor="start" x="257" y="-180.5" font-family="Helvetica,sans-Serif" font-size="10.00"># _lock</text>
<text text-anchor="start" x="257" y="-169.5" font-family="Helvetica,sans-Serif" font-size="10.00"># I_CONTENT_SIZE</text>
<text text-anchor="start" x="257" y="-158.5" font-family="Helvetica,sans-Serif" font-size="10.00"># I_CONTENT</text>
<text text-anchor="start" x="257" y="-147.5" font-family="Helvetica,sans-Serif" font-size="10.00"># _MAX_WRITE_SIZE</text>
<polyline fill="none" stroke="black" points="249,-140.5 413,-140.5 "/>
<text text-anchor="start" x="257" y="-128.5" font-family="Helvetica,sans-Serif" font-size="10.00">+ CodedBatch()</text>
<text text-anchor="start" x="257" y="-117.5" font-family="Helvetica,sans-Serif" font-size="10.00">+ getRequiredCodedPieceCount()</text>
<text text-anchor="start" x="257" y="-106.5" font-family="Helvetica,sans-Serif" font-size="10.00">+ equals()</text>
<text text-anchor="start" x="257" y="-95.5" font-family="Helvetica,sans-Serif" font-size="10.00">+ equalsExact()</text>
<text text-anchor="start" x="257" y="-84.5" font-family="Helvetica,sans-Serif" font-size="10.00">+ getAvailableCodedPieceCount()</text>
<text text-anchor="start" x="257" y="-73.5" font-family="Helvetica,sans-Serif" font-size="10.00">+ getSize()</text>
<text text-anchor="start" x="257" y="-62.5" font-family="Helvetica,sans-Serif" font-size="10.00">+ isSolved()</text>
<text text-anchor="start" x="257" y="-51.5" font-family="Helvetica,sans-Serif" font-size="10.00">+ getNewCodedCoefficients()</text>
<text text-anchor="start" x="257" y="-40.5" font-family="Helvetica,sans-Serif" font-size="10.00">+ getBulkMatrix()</text>
<text text-anchor="start" x="257" y="-29.5" font-family="Helvetica,sans-Serif" font-size="10.00">+ getSizeInByteBuffer()</text>
<text text-anchor="start" x="257" y="-18.5" font-family="Helvetica,sans-Serif" font-size="10.00">and 8 more...</text>
<text text-anchor="start" x="257" y="-7.5" font-family="Helvetica,sans-Serif" font-size="10.00"># CodedBatch()</text>
</g>
<!-- Node5 -->
<g id="node2" class="node"><title>Node5</title>
<g id="a_node2"><a xlink:href="../../d1/d78/interfaceorg_1_1msrg_1_1raccoon_1_1ICodedBatch.html" target="_top" xlink:title="{org.msrg.raccoon.ICodedBatch\n||+ toString()\l+ equals()\l+ equalsExact()\l+ getBulkMatrix()\l+ getRows()\l+ getCols()\l+ getSize()\l+ getSizeInByteBuffer()\l+ addCodedSlice()\l+ getCodedBatchType()\land 7 more...\l}">
<polygon fill="none" stroke="black" points="0,-347.5 0,-514.5 152,-514.5 152,-347.5 0,-347.5"/>
<text text-anchor="middle" x="76" y="-502.5" font-family="Helvetica,sans-Serif" font-size="10.00">org.msrg.raccoon.ICodedBatch</text>
<polyline fill="none" stroke="black" points="0,-495.5 152,-495.5 "/>
<text text-anchor="middle" x="76" y="-483.5" font-family="Helvetica,sans-Serif" font-size="10.00"> </text>
<polyline fill="none" stroke="black" points="0,-476.5 152,-476.5 "/>
<text text-anchor="start" x="8" y="-464.5" font-family="Helvetica,sans-Serif" font-size="10.00">+ toString()</text>
<text text-anchor="start" x="8" y="-453.5" font-family="Helvetica,sans-Serif" font-size="10.00">+ equals()</text>
<text text-anchor="start" x="8" y="-442.5" font-family="Helvetica,sans-Serif" font-size="10.00">+ equalsExact()</text>
<text text-anchor="start" x="8" y="-431.5" font-family="Helvetica,sans-Serif" font-size="10.00">+ getBulkMatrix()</text>
<text text-anchor="start" x="8" y="-420.5" font-family="Helvetica,sans-Serif" font-size="10.00">+ getRows()</text>
<text text-anchor="start" x="8" y="-409.5" font-family="Helvetica,sans-Serif" font-size="10.00">+ getCols()</text>
<text text-anchor="start" x="8" y="-398.5" font-family="Helvetica,sans-Serif" font-size="10.00">+ getSize()</text>
<text text-anchor="start" x="8" y="-387.5" font-family="Helvetica,sans-Serif" font-size="10.00">+ getSizeInByteBuffer()</text>
<text text-anchor="start" x="8" y="-376.5" font-family="Helvetica,sans-Serif" font-size="10.00">+ addCodedSlice()</text>
<text text-anchor="start" x="8" y="-365.5" font-family="Helvetica,sans-Serif" font-size="10.00">+ getCodedBatchType()</text>
<text text-anchor="start" x="8" y="-354.5" font-family="Helvetica,sans-Serif" font-size="10.00">and 7 more...</text>
</a>
</g>
</g>
<!-- Node5&#45;&gt;Node4 -->
<g id="edge1" class="edge"><title>Node5&#45;&gt;Node4</title>
<path fill="none" stroke="midnightblue" d="M117.819,-338.559C130.266,-315.243 144.925,-290.887 161,-270 186.398,-237 219.046,-204.939 248.932,-178.452"/>
<polygon fill="none" stroke="midnightblue" points="114.709,-336.954 113.158,-347.435 120.906,-340.209 114.709,-336.954"/>
</g>
<!-- Node6 -->
<g id="node3" class="node"><title>Node6</title>
<g id="a_node3"><a xlink:href="../../da/d9f/enumorg_1_1msrg_1_1raccoon_1_1CodedBatchType.html" target="_top" xlink:title="{org.msrg.raccoon.CodedBatchType\n|+ SRC_CODED_BATCH\l+ RCV_CODED_BATCH\l&#45; _str\l|+ CodedBatchType()\l+ toString()\l}">
<polygon fill="none" stroke="black" points="170.5,-386 170.5,-476 341.5,-476 341.5,-386 170.5,-386"/>
<text text-anchor="middle" x="256" y="-464" font-family="Helvetica,sans-Serif" font-size="10.00">org.msrg.raccoon.CodedBatchType</text>
<polyline fill="none" stroke="black" points="170.5,-457 341.5,-457 "/>
<text text-anchor="start" x="178.5" y="-445" font-family="Helvetica,sans-Serif" font-size="10.00">+ SRC_CODED_BATCH</text>
<text text-anchor="start" x="178.5" y="-434" font-family="Helvetica,sans-Serif" font-size="10.00">+ RCV_CODED_BATCH</text>
<text text-anchor="start" x="178.5" y="-423" font-family="Helvetica,sans-Serif" font-size="10.00">&#45; _str</text>
<polyline fill="none" stroke="black" points="170.5,-416 341.5,-416 "/>
<text text-anchor="start" x="178.5" y="-404" font-family="Helvetica,sans-Serif" font-size="10.00">+ CodedBatchType()</text>
<text text-anchor="start" x="178.5" y="-393" font-family="Helvetica,sans-Serif" font-size="10.00">+ toString()</text>
</a>
</g>
</g>
<!-- Node6&#45;&gt;Node4 -->
<g id="edge2" class="edge"><title>Node6&#45;&gt;Node4</title>
<path fill="none" stroke="#404040" d="M264.969,-385.954C272.925,-347.568 285.099,-290.455 297,-241 297.514,-238.863 298.037,-236.708 298.568,-234.538"/>
<polygon fill="none" stroke="#404040" points="298.585,-234.468 296.143,-227.683 301.467,-222.819 303.909,-229.604 298.585,-234.468"/>
<text text-anchor="middle" x="341" y="-244" font-family="Helvetica,sans-Serif" font-size="10.00"> #_codedBatchType</text>
</g>
<!-- Node7 -->
<g id="node4" class="node"><title>Node7</title>
<g id="a_node4"><a xlink:href="../../df/da4/classorg_1_1msrg_1_1raccoon_1_1matrix_1_1bulk_1_1BulkMatrix.html" target="_top" xlink:title="{org.msrg.raccoon.matrix.bulk.\lBulkMatrix\n|+ _size\l+ _cols\l+ _rows\l+ _SLICE_LENGTH\l+ _MAX_ROWS_PRINT\l+ _MAX_SLICES_PRINT\l&#45; serialVersionUID\l|+ BulkMatrix()\l+ BulkMatrix()\l+ BulkMatrix()\l+ createEmptyMatrix()\l+ createOneEmtpySlice()\l+ getSliceCount()\l+ slice()\l+ equals()\l+ getByte()\l+ getSize()\l+ add()\l+ toString()\l+ getSizeInByteBuffer()\l+ getContent()\l+ getSlices()\l+ createBulkMatixRandomData()\l+ createBulkMatixIncrementalData()\l# toString()\l}">
<polygon fill="none" stroke="black" points="360,-270.5 360,-591.5 534,-591.5 534,-270.5 360,-270.5"/>
<text text-anchor="start" x="368" y="-579.5" font-family="Helvetica,sans-Serif" font-size="10.00">org.msrg.raccoon.matrix.bulk.</text>
<text text-anchor="middle" x="447" y="-568.5" font-family="Helvetica,sans-Serif" font-size="10.00">BulkMatrix</text>
<polyline fill="none" stroke="black" points="360,-561.5 534,-561.5 "/>
<text text-anchor="start" x="368" y="-549.5" font-family="Helvetica,sans-Serif" font-size="10.00">+ _size</text>
<text text-anchor="start" x="368" y="-538.5" font-family="Helvetica,sans-Serif" font-size="10.00">+ _cols</text>
<text text-anchor="start" x="368" y="-527.5" font-family="Helvetica,sans-Serif" font-size="10.00">+ _rows</text>
<text text-anchor="start" x="368" y="-516.5" font-family="Helvetica,sans-Serif" font-size="10.00">+ _SLICE_LENGTH</text>
<text text-anchor="start" x="368" y="-505.5" font-family="Helvetica,sans-Serif" font-size="10.00">+ _MAX_ROWS_PRINT</text>
<text text-anchor="start" x="368" y="-494.5" font-family="Helvetica,sans-Serif" font-size="10.00">+ _MAX_SLICES_PRINT</text>
<text text-anchor="start" x="368" y="-483.5" font-family="Helvetica,sans-Serif" font-size="10.00">&#45; serialVersionUID</text>
<polyline fill="none" stroke="black" points="360,-476.5 534,-476.5 "/>
<text text-anchor="start" x="368" y="-464.5" font-family="Helvetica,sans-Serif" font-size="10.00">+ BulkMatrix()</text>
<text text-anchor="start" x="368" y="-453.5" font-family="Helvetica,sans-Serif" font-size="10.00">+ BulkMatrix()</text>
<text text-anchor="start" x="368" y="-442.5" font-family="Helvetica,sans-Serif" font-size="10.00">+ BulkMatrix()</text>
<text text-anchor="start" x="368" y="-431.5" font-family="Helvetica,sans-Serif" font-size="10.00">+ createEmptyMatrix()</text>
<text text-anchor="start" x="368" y="-420.5" font-family="Helvetica,sans-Serif" font-size="10.00">+ createOneEmtpySlice()</text>
<text text-anchor="start" x="368" y="-409.5" font-family="Helvetica,sans-Serif" font-size="10.00">+ getSliceCount()</text>
<text text-anchor="start" x="368" y="-398.5" font-family="Helvetica,sans-Serif" font-size="10.00">+ slice()</text>
<text text-anchor="start" x="368" y="-387.5" font-family="Helvetica,sans-Serif" font-size="10.00">+ equals()</text>
<text text-anchor="start" x="368" y="-376.5" font-family="Helvetica,sans-Serif" font-size="10.00">+ getByte()</text>
<text text-anchor="start" x="368" y="-365.5" font-family="Helvetica,sans-Serif" font-size="10.00">+ getSize()</text>
<text text-anchor="start" x="368" y="-354.5" font-family="Helvetica,sans-Serif" font-size="10.00">+ add()</text>
<text text-anchor="start" x="368" y="-343.5" font-family="Helvetica,sans-Serif" font-size="10.00">+ toString()</text>
<text text-anchor="start" x="368" y="-332.5" font-family="Helvetica,sans-Serif" font-size="10.00">+ getSizeInByteBuffer()</text>
<text text-anchor="start" x="368" y="-321.5" font-family="Helvetica,sans-Serif" font-size="10.00">+ getContent()</text>
<text text-anchor="start" x="368" y="-310.5" font-family="Helvetica,sans-Serif" font-size="10.00">+ getSlices()</text>
<text text-anchor="start" x="368" y="-299.5" font-family="Helvetica,sans-Serif" font-size="10.00">+ createBulkMatixRandomData()</text>
<text text-anchor="start" x="368" y="-288.5" font-family="Helvetica,sans-Serif" font-size="10.00">+ createBulkMatixIncrementalData()</text>
<text text-anchor="start" x="368" y="-277.5" font-family="Helvetica,sans-Serif" font-size="10.00"># toString()</text>
</a>
</g>
</g>
<!-- Node7&#45;&gt;Node4 -->
<g id="edge3" class="edge"><title>Node7&#45;&gt;Node4</title>
<path fill="none" stroke="#404040" d="M395.65,-270.363C392.13,-260.397 388.564,-250.543 385,-241 384.124,-238.653 383.23,-236.286 382.322,-233.905"/>
<polygon fill="none" stroke="#404040" points="382.305,-233.861 376.409,-229.709 377.975,-222.67 383.87,-226.822 382.305,-233.861"/>
<text text-anchor="middle" x="403" y="-244" font-family="Helvetica,sans-Serif" font-size="10.00"> #_bm</text>
</g>
<!-- Node8 -->
<g id="node5" class="node"><title>Node8</title>
<polygon fill="none" stroke="#bfbfbf" points="284.5,-920.5 284.5,-977.5 351.5,-977.5 351.5,-920.5 284.5,-920.5"/>
<text text-anchor="middle" x="318" y="-965.5" font-family="Helvetica,sans-Serif" font-size="10.00">Serializable</text>
<polyline fill="none" stroke="#bfbfbf" points="284.5,-958.5 351.5,-958.5 "/>
<text text-anchor="middle" x="318" y="-946.5" font-family="Helvetica,sans-Serif" font-size="10.00"> </text>
<polyline fill="none" stroke="#bfbfbf" points="284.5,-939.5 351.5,-939.5 "/>
<text text-anchor="middle" x="318" y="-927.5" font-family="Helvetica,sans-Serif" font-size="10.00"> </text>
</g>
<!-- Node8&#45;&gt;Node7 -->
<g id="edge4" class="edge"><title>Node8&#45;&gt;Node7</title>
<path fill="none" stroke="midnightblue" d="M308.688,-910.417C295.756,-850.812 277.494,-731.849 311,-639 320.214,-613.468 334.254,-614.11 350,-592 353.298,-587.369 356.598,-582.624 359.884,-577.802"/>
<polygon fill="none" stroke="midnightblue" points="305.344,-911.501 310.947,-920.493 312.174,-909.969 305.344,-911.501"/>
</g>
<!-- Node9 -->
<g id="node6" class="node"><title>Node9</title>
<g id="a_node6"><a xlink:href="../../d6/d6d/classorg_1_1msrg_1_1raccoon_1_1matrix_1_1bulk_1_1SliceMatrix.html" target="_top" xlink:title="{org.msrg.raccoon.matrix.bulk.\lSliceMatrix\n|+ _cols\l+ _MAX_COLS_PRINT\l# _b\l&#45; serialVersionUID\l|+ SliceMatrix()\l+ SliceMatrix()\l+ SliceMatrix()\l+ loadNoCopy()\l+ loadWithCopy()\l+ getContent()\l+ hasContent()\l+ clone()\l+ equals()\l+ getByte()\land 6 more...\l+ createRandomSliceMatrix()\l+ getEmptySliceMatrix()\l}">
<polygon fill="none" stroke="black" points="320,-639.5 320,-872.5 466,-872.5 466,-639.5 320,-639.5"/>
<text text-anchor="start" x="328" y="-860.5" font-family="Helvetica,sans-Serif" font-size="10.00">org.msrg.raccoon.matrix.bulk.</text>
<text text-anchor="middle" x="393" y="-849.5" font-family="Helvetica,sans-Serif" font-size="10.00">SliceMatrix</text>
<polyline fill="none" stroke="black" points="320,-842.5 466,-842.5 "/>
<text text-anchor="start" x="328" y="-830.5" font-family="Helvetica,sans-Serif" font-size="10.00">+ _cols</text>
<text text-anchor="start" x="328" y="-819.5" font-family="Helvetica,sans-Serif" font-size="10.00">+ _MAX_COLS_PRINT</text>
<text text-anchor="start" x="328" y="-808.5" font-family="Helvetica,sans-Serif" font-size="10.00"># _b</text>
<text text-anchor="start" x="328" y="-797.5" font-family="Helvetica,sans-Serif" font-size="10.00">&#45; serialVersionUID</text>
<polyline fill="none" stroke="black" points="320,-790.5 466,-790.5 "/>
<text text-anchor="start" x="328" y="-778.5" font-family="Helvetica,sans-Serif" font-size="10.00">+ SliceMatrix()</text>
<text text-anchor="start" x="328" y="-767.5" font-family="Helvetica,sans-Serif" font-size="10.00">+ SliceMatrix()</text>
<text text-anchor="start" x="328" y="-756.5" font-family="Helvetica,sans-Serif" font-size="10.00">+ SliceMatrix()</text>
<text text-anchor="start" x="328" y="-745.5" font-family="Helvetica,sans-Serif" font-size="10.00">+ loadNoCopy()</text>
<text text-anchor="start" x="328" y="-734.5" font-family="Helvetica,sans-Serif" font-size="10.00">+ loadWithCopy()</text>
<text text-anchor="start" x="328" y="-723.5" font-family="Helvetica,sans-Serif" font-size="10.00">+ getContent()</text>
<text text-anchor="start" x="328" y="-712.5" font-family="Helvetica,sans-Serif" font-size="10.00">+ hasContent()</text>
<text text-anchor="start" x="328" y="-701.5" font-family="Helvetica,sans-Serif" font-size="10.00">+ clone()</text>
<text text-anchor="start" x="328" y="-690.5" font-family="Helvetica,sans-Serif" font-size="10.00">+ equals()</text>
<text text-anchor="start" x="328" y="-679.5" font-family="Helvetica,sans-Serif" font-size="10.00">+ getByte()</text>
<text text-anchor="start" x="328" y="-668.5" font-family="Helvetica,sans-Serif" font-size="10.00">and 6 more...</text>
<text text-anchor="start" x="328" y="-657.5" font-family="Helvetica,sans-Serif" font-size="10.00">+ createRandomSliceMatrix()</text>
<text text-anchor="start" x="328" y="-646.5" font-family="Helvetica,sans-Serif" font-size="10.00">+ getEmptySliceMatrix()</text>
</a>
</g>
</g>
<!-- Node8&#45;&gt;Node9 -->
<g id="edge6" class="edge"><title>Node8&#45;&gt;Node9</title>
<path fill="none" stroke="midnightblue" d="M332.614,-910.783C337.05,-899.486 342.177,-886.428 347.532,-872.791"/>
<polygon fill="none" stroke="midnightblue" points="329.303,-909.64 328.906,-920.227 335.819,-912.198 329.303,-909.64"/>
</g>
<!-- Node9&#45;&gt;Node7 -->
<g id="edge5" class="edge"><title>Node9&#45;&gt;Node7</title>
<path fill="none" stroke="#404040" d="M412.343,-639.302C414.283,-627.694 416.281,-615.742 418.292,-603.714"/>
<polygon fill="none" stroke="#404040" points="418.327,-603.507 415.371,-596.929 420.306,-591.671 423.262,-598.249 418.327,-603.507"/>
<text text-anchor="middle" x="437" y="-613" font-family="Helvetica,sans-Serif" font-size="10.00"> #_slices</text>
</g>
<!-- Node10 -->
<g id="node7" class="node"><title>Node10</title>
<polygon fill="none" stroke="#bfbfbf" points="475.5,-920.5 475.5,-977.5 528.5,-977.5 528.5,-920.5 475.5,-920.5"/>
<text text-anchor="middle" x="502" y="-965.5" font-family="Helvetica,sans-Serif" font-size="10.00">Random</text>
<polyline fill="none" stroke="#bfbfbf" points="475.5,-958.5 528.5,-958.5 "/>
<text text-anchor="middle" x="502" y="-946.5" font-family="Helvetica,sans-Serif" font-size="10.00"> </text>
<polyline fill="none" stroke="#bfbfbf" points="475.5,-939.5 528.5,-939.5 "/>
<text text-anchor="middle" x="502" y="-927.5" font-family="Helvetica,sans-Serif" font-size="10.00"> </text>
</g>
<!-- Node10&#45;&gt;Node4 -->
<g id="edge9" class="edge"><title>Node10&#45;&gt;Node4</title>
<path fill="none" stroke="#404040" d="M528.614,-922.477C540.691,-909.045 553.669,-891.536 560,-873 587.329,-792.987 558.689,-299.488 543,-270 516.882,-220.908 467.931,-182.982 423.643,-156.66"/>
<polygon fill="none" stroke="#404040" points="423.48,-156.566 416.284,-157.022 413.095,-150.554 420.292,-150.098 423.48,-156.566"/>
<text text-anchor="middle" x="586.5" y="-613" font-family="Helvetica,sans-Serif" font-size="10.00"> #_rand</text>
</g>
<!-- Node10&#45;&gt;Node7 -->
<g id="edge8" class="edge"><title>Node10&#45;&gt;Node7</title>
<path fill="none" stroke="#404040" d="M500.018,-920.258C496.052,-866.106 486.522,-742.561 475,-639 473.714,-627.444 472.311,-615.535 470.841,-603.544"/>
<polygon fill="none" stroke="#404040" points="470.829,-603.444 466.12,-597.983 469.35,-591.535 474.059,-596.997 470.829,-603.444"/>
<text text-anchor="middle" x="526.5" y="-753.5" font-family="Helvetica,sans-Serif" font-size="10.00"> #_RANDOM</text>
</g>
<!-- Node10&#45;&gt;Node9 -->
<g id="edge7" class="edge"><title>Node10&#45;&gt;Node9</title>
<path fill="none" stroke="#404040" d="M475.364,-937.357C459.631,-929.754 440.584,-918.025 429,-902 424.863,-896.277 421.198,-890.131 417.953,-883.717"/>
<polygon fill="none" stroke="#404040" points="417.897,-883.596 411.754,-879.82 412.877,-872.697 419.02,-876.473 417.897,-883.596"/>
<text text-anchor="middle" x="458.5" y="-894" font-family="Helvetica,sans-Serif" font-size="10.00"> #_RANDOM</text>
</g>
</g>
</svg>
