<?xml version="1.0" encoding="UTF-8" standalone="no"?>
<!DOCTYPE svg PUBLIC "-//W3C//DTD SVG 1.1//EN"
 "http://www.w3.org/Graphics/SVG/1.1/DTD/svg11.dtd">
<!-- Generated by graphviz version 2.38.0 (20140413.2041)
 -->
<!-- Title: org.msrg.raccoon.engine.task.CodingTaskFailed Pages: 1 -->
<svg width="204pt" height="331pt"
 viewBox="0.00 0.00 204.00 331.00" xmlns="http://www.w3.org/2000/svg" xmlns:xlink="http://www.w3.org/1999/xlink">
<g id="graph0" class="graph" transform="scale(1 1) rotate(0) translate(4 327)">
<title>org.msrg.raccoon.engine.task.CodingTaskFailed</title>
<!-- Node1 -->
<g id="node1" class="node"><title>Node1</title>
<polygon fill="#bfbfbf" stroke="black" points="23.5,-138.5 23.5,-228.5 172.5,-228.5 172.5,-138.5 23.5,-138.5"/>
<text text-anchor="start" x="31.5" y="-216.5" font-family="Helvetica,sans-Serif" font-size="10.00">org.msrg.raccoon.engine.task.</text>
<text text-anchor="middle" x="98" y="-205.5" font-family="Helvetica,sans-Serif" font-size="10.00">CodingTaskFailed</text>
<polyline fill="none" stroke="black" points="23.5,-198.5 172.5,-198.5 "/>
<text text-anchor="start" x="31.5" y="-186.5" font-family="Helvetica,sans-Serif" font-size="10.00">+ _cTask</text>
<text text-anchor="start" x="31.5" y="-175.5" font-family="Helvetica,sans-Serif" font-size="10.00">&#45; serialVersionUID</text>
<polyline fill="none" stroke="black" points="23.5,-168.5 172.5,-168.5 "/>
<text text-anchor="start" x="31.5" y="-156.5" font-family="Helvetica,sans-Serif" font-size="10.00">+ CodingTaskFailed()</text>
<text text-anchor="start" x="31.5" y="-145.5" font-family="Helvetica,sans-Serif" font-size="10.00">+ toString()</text>
</g>
<!-- Node3 -->
<g id="node3" class="node"><title>Node3</title>
<g id="a_node3"><a xlink:href="../../df/d00/classorg_1_1msrg_1_1raccoon_1_1engine_1_1task_1_1sequential_1_1SequentialCodingTaskFailed.html" target="_top" xlink:title="{org.msrg.raccoon.engine.task.sequential.\lSequentialCodingTaskFailed\n|+ _seqCodingTask\l&#45; serialVersionUID\l|+ SequentialCodingTaskFailed()\l+ SequentialCodingTaskFailed()\l+ toString()\l}">
<polygon fill="none" stroke="black" points="-1.42109e-14,-0.5 -1.42109e-14,-101.5 196,-101.5 196,-0.5 -1.42109e-14,-0.5"/>
<text text-anchor="start" x="8" y="-89.5" font-family="Helvetica,sans-Serif" font-size="10.00">org.msrg.raccoon.engine.task.sequential.</text>
<text text-anchor="middle" x="98" y="-78.5" font-family="Helvetica,sans-Serif" font-size="10.00">SequentialCodingTaskFailed</text>
<polyline fill="none" stroke="black" points="-1.42109e-14,-71.5 196,-71.5 "/>
<text text-anchor="start" x="8" y="-59.5" font-family="Helvetica,sans-Serif" font-size="10.00">+ _seqCodingTask</text>
<text text-anchor="start" x="8" y="-48.5" font-family="Helvetica,sans-Serif" font-size="10.00">&#45; serialVersionUID</text>
<polyline fill="none" stroke="black" points="-1.42109e-14,-41.5 196,-41.5 "/>
<text text-anchor="start" x="8" y="-29.5" font-family="Helvetica,sans-Serif" font-size="10.00">+ SequentialCodingTaskFailed()</text>
<text text-anchor="start" x="8" y="-18.5" font-family="Helvetica,sans-Serif" font-size="10.00">+ SequentialCodingTaskFailed()</text>
<text text-anchor="start" x="8" y="-7.5" font-family="Helvetica,sans-Serif" font-size="10.00">+ toString()</text>
</a>
</g>
</g>
<!-- Node1&#45;&gt;Node3 -->
<g id="edge2" class="edge"><title>Node1&#45;&gt;Node3</title>
<path fill="none" stroke="midnightblue" d="M98,-128.131C98,-119.311 98,-110.219 98,-101.523"/>
<polygon fill="none" stroke="midnightblue" points="94.5001,-128.319 98,-138.319 101.5,-128.319 94.5001,-128.319"/>
</g>
<!-- Node2 -->
<g id="node2" class="node"><title>Node2</title>
<polygon fill="none" stroke="#bfbfbf" points="58.5,-265.5 58.5,-322.5 137.5,-322.5 137.5,-265.5 58.5,-265.5"/>
<text text-anchor="middle" x="98" y="-310.5" font-family="Helvetica,sans-Serif" font-size="10.00">UnknownError</text>
<polyline fill="none" stroke="#bfbfbf" points="58.5,-303.5 137.5,-303.5 "/>
<text text-anchor="middle" x="98" y="-291.5" font-family="Helvetica,sans-Serif" font-size="10.00"> </text>
<polyline fill="none" stroke="#bfbfbf" points="58.5,-284.5 137.5,-284.5 "/>
<text text-anchor="middle" x="98" y="-272.5" font-family="Helvetica,sans-Serif" font-size="10.00"> </text>
</g>
<!-- Node2&#45;&gt;Node1 -->
<g id="edge1" class="edge"><title>Node2&#45;&gt;Node1</title>
<path fill="none" stroke="midnightblue" d="M98,-255.214C98,-246.609 98,-237.394 98,-228.554"/>
<polygon fill="none" stroke="midnightblue" points="94.5001,-255.34 98,-265.34 101.5,-255.34 94.5001,-255.34"/>
</g>
</g>
</svg>
