<?xml version="1.0" encoding="UTF-8" standalone="no"?>
<!DOCTYPE svg PUBLIC "-//W3C//DTD SVG 1.1//EN"
 "http://www.w3.org/Graphics/SVG/1.1/DTD/svg11.dtd">
<!-- Generated by graphviz version 2.38.0 (20140413.2041)
 -->
<!-- Title: org.msrg.raccoon.matrix.bulk.SliceMatrix.equals Pages: 1 -->
<svg width="370pt" height="78pt"
 viewBox="0.00 0.00 370.00 77.50" xmlns="http://www.w3.org/2000/svg" xmlns:xlink="http://www.w3.org/1999/xlink">
<g id="graph0" class="graph" transform="scale(1 1) rotate(0) translate(4 73.5)">
<title>org.msrg.raccoon.matrix.bulk.SliceMatrix.equals</title>
<!-- Node1 -->
<g id="node1" class="node"><title>Node1</title>
<polygon fill="#bfbfbf" stroke="black" points="0,-22.5 0,-52.5 146,-52.5 146,-22.5 0,-22.5"/>
<text text-anchor="start" x="8" y="-40.5" font-family="Helvetica,sans-Serif" font-size="10.00">org.msrg.raccoon.matrix.bulk.</text>
<text text-anchor="middle" x="73" y="-29.5" font-family="Helvetica,sans-Serif" font-size="10.00">SliceMatrix.equals</text>
</g>
<!-- Node2 -->
<g id="node2" class="node"><title>Node2</title>
<g id="a_node2"><a xlink:href="../../dd/dfd/classorg_1_1msrg_1_1raccoon_1_1CodedPiece_acaf7264810bbdf99b73278b11ac1da72.html#acaf7264810bbdf99b73278b11ac1da72" target="_top" xlink:title="org.msrg.raccoon.CodedPiece.equals">
<polygon fill="none" stroke="black" points="182,-50 182,-69 362,-69 362,-50 182,-50"/>
<text text-anchor="middle" x="272" y="-57" font-family="Helvetica,sans-Serif" font-size="10.00">org.msrg.raccoon.CodedPiece.equals</text>
</a>
</g>
</g>
<!-- Node1&#45;&gt;Node2 -->
<g id="edge1" class="edge"><title>Node1&#45;&gt;Node2</title>
<path fill="none" stroke="midnightblue" d="M156.286,-46.6893C166.02,-47.7763 175.971,-48.8877 185.745,-49.9792"/>
<polygon fill="midnightblue" stroke="midnightblue" points="156.564,-43.1986 146.237,-45.5671 155.787,-50.1554 156.564,-43.1986"/>
</g>
<!-- Node3 -->
<g id="node3" class="node"><title>Node3</title>
<g id="a_node3"><a xlink:href="../../d6/d19/classorg_1_1msrg_1_1raccoon_1_1engine_1_1thread_1_1CodingThreadImpl_af81a44607be02e9f01c5f4c119ff5ed4.html#af81a44607be02e9f01c5f4c119ff5ed4" target="_top" xlink:title="org.msrg.raccoon.engine.thread.\lCodingThreadImpl.runTask">
<polygon fill="none" stroke="black" points="193.5,-0.5 193.5,-30.5 350.5,-30.5 350.5,-0.5 193.5,-0.5"/>
<text text-anchor="start" x="201.5" y="-18.5" font-family="Helvetica,sans-Serif" font-size="10.00">org.msrg.raccoon.engine.thread.</text>
<text text-anchor="middle" x="272" y="-7.5" font-family="Helvetica,sans-Serif" font-size="10.00">CodingThreadImpl.runTask</text>
</a>
</g>
</g>
<!-- Node1&#45;&gt;Node3 -->
<g id="edge2" class="edge"><title>Node1&#45;&gt;Node3</title>
<path fill="none" stroke="midnightblue" d="M156.441,-28.2934C168.704,-26.9239 181.309,-25.5162 193.467,-24.1585"/>
<polygon fill="midnightblue" stroke="midnightblue" points="155.787,-24.8446 146.237,-29.4329 156.564,-31.8014 155.787,-24.8446"/>
</g>
</g>
</svg>
