<?xml version="1.0" encoding="UTF-8" standalone="no"?>
<!DOCTYPE svg PUBLIC "-//W3C//DTD SVG 1.1//EN"
 "http://www.w3.org/Graphics/SVG/1.1/DTD/svg11.dtd">
<!-- Generated by graphviz version 2.38.0 (20140413.2041)
 -->
<!-- Title: org.msrg.raccoon.matrix.bulk.SliceMatrix.loadNoCopy Pages: 1 -->
<svg width="1327pt" height="496pt"
 viewBox="0.00 0.00 1327.00 496.00" xmlns="http://www.w3.org/2000/svg" xmlns:xlink="http://www.w3.org/1999/xlink">
<g id="graph0" class="graph" transform="scale(1 1) rotate(0) translate(4 492)">
<title>org.msrg.raccoon.matrix.bulk.SliceMatrix.loadNoCopy</title>
<!-- Node1 -->
<g id="node1" class="node"><title>Node1</title>
<polygon fill="#bfbfbf" stroke="black" points="0,-95.5 0,-125.5 146,-125.5 146,-95.5 0,-95.5"/>
<text text-anchor="start" x="8" y="-113.5" font-family="Helvetica,sans-Serif" font-size="10.00">org.msrg.raccoon.matrix.bulk.</text>
<text text-anchor="middle" x="73" y="-102.5" font-family="Helvetica,sans-Serif" font-size="10.00">SliceMatrix.loadNoCopy</text>
</g>
<!-- Node2 -->
<g id="node2" class="node"><title>Node2</title>
<g id="a_node2"><a xlink:href="../../df/da4/classorg_1_1msrg_1_1raccoon_1_1matrix_1_1bulk_1_1BulkMatrix_a8a2fe48f174a616aa6ab6535ffd6a3d3.html#a8a2fe48f174a616aa6ab6535ffd6a3d3" target="_top" xlink:title="org.msrg.raccoon.matrix.bulk.\lBulkMatrix.createBulkMatixIncrementalData">
<polygon fill="none" stroke="black" points="182,-120.5 182,-150.5 391,-150.5 391,-120.5 182,-120.5"/>
<text text-anchor="start" x="190" y="-138.5" font-family="Helvetica,sans-Serif" font-size="10.00">org.msrg.raccoon.matrix.bulk.</text>
<text text-anchor="middle" x="286.5" y="-127.5" font-family="Helvetica,sans-Serif" font-size="10.00">BulkMatrix.createBulkMatixIncrementalData</text>
</a>
</g>
</g>
<!-- Node1&#45;&gt;Node2 -->
<g id="edge1" class="edge"><title>Node1&#45;&gt;Node2</title>
<path fill="none" stroke="midnightblue" d="M156.29,-120.227C164.662,-121.217 173.241,-122.231 181.802,-123.243"/>
<polygon fill="midnightblue" stroke="midnightblue" points="156.537,-116.732 146.195,-119.034 155.715,-123.683 156.537,-116.732"/>
</g>
<!-- Node7 -->
<g id="node7" class="node"><title>Node7</title>
<g id="a_node7"><a xlink:href="../../dd/d36/classorg_1_1msrg_1_1raccoon_1_1matrix_1_1finitefields_1_1ByteMatrix_a5a3c18a9905c1d33c6a992930e2b6a78.html#a5a3c18a9905c1d33c6a992930e2b6a78" target="_top" xlink:title="org.msrg.raccoon.matrix.finitefields.\lByteMatrix.multiply">
<polygon fill="none" stroke="black" points="200,-284.5 200,-314.5 373,-314.5 373,-284.5 200,-284.5"/>
<text text-anchor="start" x="208" y="-302.5" font-family="Helvetica,sans-Serif" font-size="10.00">org.msrg.raccoon.matrix.finitefields.</text>
<text text-anchor="middle" x="286.5" y="-291.5" font-family="Helvetica,sans-Serif" font-size="10.00">ByteMatrix.multiply</text>
</a>
</g>
</g>
<!-- Node1&#45;&gt;Node7 -->
<g id="edge6" class="edge"><title>Node1&#45;&gt;Node7</title>
<path fill="none" stroke="midnightblue" d="M98.492,-132.386C141.863,-171.144 231.113,-250.899 268.469,-284.281"/>
<polygon fill="midnightblue" stroke="midnightblue" points="100.739,-129.701 90.9504,-125.647 96.0748,-134.92 100.739,-129.701"/>
</g>
<!-- Node22 -->
<g id="node22" class="node"><title>Node22</title>
<g id="a_node22"><a xlink:href="../../d6/d37/classorg_1_1msrg_1_1raccoon_1_1matrix_1_1finitefields_1_1ByteMatrix1D_afdc7ff8a8726716ba954854799d35af1.html#afdc7ff8a8726716ba954854799d35af1" target="_top" xlink:title="org.msrg.raccoon.matrix.finitefields.\lByteMatrix1D.multiply1D">
<polygon fill="none" stroke="black" points="200,-71.5 200,-101.5 373,-101.5 373,-71.5 200,-71.5"/>
<text text-anchor="start" x="208" y="-89.5" font-family="Helvetica,sans-Serif" font-size="10.00">org.msrg.raccoon.matrix.finitefields.</text>
<text text-anchor="middle" x="286.5" y="-78.5" font-family="Helvetica,sans-Serif" font-size="10.00">ByteMatrix1D.multiply1D</text>
</a>
</g>
</g>
<!-- Node1&#45;&gt;Node22 -->
<g id="edge26" class="edge"><title>Node1&#45;&gt;Node22</title>
<path fill="none" stroke="midnightblue" d="M156.428,-101.146C170.646,-99.533 185.457,-97.8524 199.761,-96.2293"/>
<polygon fill="midnightblue" stroke="midnightblue" points="155.736,-97.7024 146.195,-102.308 156.526,-104.658 155.736,-97.7024"/>
</g>
<!-- Node24 -->
<g id="node24" class="node"><title>Node24</title>
<g id="a_node24"><a xlink:href="../../d6/d6d/classorg_1_1msrg_1_1raccoon_1_1matrix_1_1bulk_1_1SliceMatrix_ab1d6ce259687bd2ef5f8d5f759b0ce56.html#ab1d6ce259687bd2ef5f8d5f759b0ce56" target="_top" xlink:title="org.msrg.raccoon.matrix.bulk.\lSliceMatrix.SliceMatrix">
<polygon fill="none" stroke="black" points="213.5,-22.5 213.5,-52.5 359.5,-52.5 359.5,-22.5 213.5,-22.5"/>
<text text-anchor="start" x="221.5" y="-40.5" font-family="Helvetica,sans-Serif" font-size="10.00">org.msrg.raccoon.matrix.bulk.</text>
<text text-anchor="middle" x="286.5" y="-29.5" font-family="Helvetica,sans-Serif" font-size="10.00">SliceMatrix.SliceMatrix</text>
</a>
</g>
</g>
<!-- Node1&#45;&gt;Node24 -->
<g id="edge28" class="edge"><title>Node1&#45;&gt;Node24</title>
<path fill="none" stroke="midnightblue" d="M112.379,-90.8413C132.684,-81.0201 158.265,-69.5475 182,-61.5 192.045,-58.0943 202.798,-55.0078 213.436,-52.2688"/>
<polygon fill="midnightblue" stroke="midnightblue" points="110.595,-87.818 103.157,-95.3631 113.677,-94.1031 110.595,-87.818"/>
</g>
<!-- Node3 -->
<g id="node3" class="node"><title>Node3</title>
<g id="a_node3"><a xlink:href="../../d7/da5/classorg_1_1msrg_1_1raccoon_1_1CodedPieceTest_a264feb2dd21ccabd0fa19fe54a7c52db.html#a264feb2dd21ccabd0fa19fe54a7c52db" target="_top" xlink:title="org.msrg.raccoon.CodedPiece\lTest.setUp">
<polygon fill="none" stroke="black" points="935.5,-216.5 935.5,-246.5 1084.5,-246.5 1084.5,-216.5 935.5,-216.5"/>
<text text-anchor="start" x="943.5" y="-234.5" font-family="Helvetica,sans-Serif" font-size="10.00">org.msrg.raccoon.CodedPiece</text>
<text text-anchor="middle" x="1010" y="-223.5" font-family="Helvetica,sans-Serif" font-size="10.00">Test.setUp</text>
</a>
</g>
</g>
<!-- Node2&#45;&gt;Node3 -->
<g id="edge2" class="edge"><title>Node2&#45;&gt;Node3</title>
<path fill="none" stroke="midnightblue" d="M401.329,-140.541C520.706,-147.261 713.347,-162.164 877,-193.5 906.512,-199.151 938.949,-208.444 964.284,-216.426"/>
<polygon fill="midnightblue" stroke="midnightblue" points="401.258,-137.032 391.08,-139.974 400.871,-144.021 401.258,-137.032"/>
</g>
<!-- Node4 -->
<g id="node4" class="node"><title>Node4</title>
<g id="a_node4"><a xlink:href="../../db/d26/classorg_1_1msrg_1_1raccoon_1_1ReceivedCodedBatchTest_af48d802e6f619d8e81119e7829f963bf.html#af48d802e6f619d8e81119e7829f963bf" target="_top" xlink:title="org.msrg.raccoon.Received\lCodedBatchTest.setUp">
<polygon fill="none" stroke="black" points="475.5,-98.5 475.5,-128.5 612.5,-128.5 612.5,-98.5 475.5,-98.5"/>
<text text-anchor="start" x="483.5" y="-116.5" font-family="Helvetica,sans-Serif" font-size="10.00">org.msrg.raccoon.Received</text>
<text text-anchor="middle" x="544" y="-105.5" font-family="Helvetica,sans-Serif" font-size="10.00">CodedBatchTest.setUp</text>
</a>
</g>
</g>
<!-- Node2&#45;&gt;Node4 -->
<g id="edge3" class="edge"><title>Node2&#45;&gt;Node4</title>
<path fill="none" stroke="midnightblue" d="M401.081,-125.72C426.386,-123.541 452.441,-121.298 475.21,-119.337"/>
<polygon fill="midnightblue" stroke="midnightblue" points="400.716,-122.238 391.053,-126.583 401.317,-129.213 400.716,-122.238"/>
</g>
<!-- Node5 -->
<g id="node5" class="node"><title>Node5</title>
<g id="a_node5"><a xlink:href="../../dc/dcf/classorg_1_1msrg_1_1raccoon_1_1engine_1_1CodingEngineTest_a1a3ce31a699af797e95ece5666d7e394.html#a1a3ce31a699af797e95ece5666d7e394" target="_top" xlink:title="org.msrg.raccoon.engine.\lCodingEngineTest.setUp">
<polygon fill="none" stroke="black" points="480.5,-49.5 480.5,-79.5 607.5,-79.5 607.5,-49.5 480.5,-49.5"/>
<text text-anchor="start" x="488.5" y="-67.5" font-family="Helvetica,sans-Serif" font-size="10.00">org.msrg.raccoon.engine.</text>
<text text-anchor="middle" x="544" y="-56.5" font-family="Helvetica,sans-Serif" font-size="10.00">CodingEngineTest.setUp</text>
</a>
</g>
</g>
<!-- Node2&#45;&gt;Node5 -->
<g id="edge4" class="edge"><title>Node2&#45;&gt;Node5</title>
<path fill="none" stroke="midnightblue" d="M371.844,-117.478C378.406,-115.365 384.861,-113.043 391,-110.5 408.323,-103.323 409.561,-95.3904 427,-88.5 443.831,-81.8497 462.798,-76.9356 480.444,-73.3498"/>
<polygon fill="midnightblue" stroke="midnightblue" points="370.723,-114.161 362.178,-120.425 372.764,-120.856 370.723,-114.161"/>
</g>
<!-- Node6 -->
<g id="node6" class="node"><title>Node6</title>
<g id="a_node6"><a xlink:href="../../d5/d96/classorg_1_1msrg_1_1raccoon_1_1matrix_1_1finitefields_1_1ByteMatrixTest_ac60808b559cdc155d008f0d650fe5c34.html#ac60808b559cdc155d008f0d650fe5c34" target="_top" xlink:title="org.msrg.raccoon.matrix.finitefields.\lByteMatrixTest.testMtimesBMtimesInvMIsBM">
<polygon fill="none" stroke="black" points="434.5,-186.5 434.5,-216.5 653.5,-216.5 653.5,-186.5 434.5,-186.5"/>
<text text-anchor="start" x="442.5" y="-204.5" font-family="Helvetica,sans-Serif" font-size="10.00">org.msrg.raccoon.matrix.finitefields.</text>
<text text-anchor="middle" x="544" y="-193.5" font-family="Helvetica,sans-Serif" font-size="10.00">ByteMatrixTest.testMtimesBMtimesInvMIsBM</text>
</a>
</g>
</g>
<!-- Node2&#45;&gt;Node6 -->
<g id="edge5" class="edge"><title>Node2&#45;&gt;Node6</title>
<path fill="none" stroke="midnightblue" d="M355.52,-153.071C395.72,-163.455 446.102,-176.47 484.512,-186.392"/>
<polygon fill="midnightblue" stroke="midnightblue" points="356.354,-149.671 345.797,-150.559 354.603,-156.449 356.354,-149.671"/>
</g>
<!-- Node7&#45;&gt;Node6 -->
<g id="edge25" class="edge"><title>Node7&#45;&gt;Node6</title>
<path fill="none" stroke="midnightblue" d="M320.02,-278.829C347.541,-262.188 388.534,-239.361 427,-225.5 436.384,-222.119 446.375,-219.157 456.408,-216.578"/>
<polygon fill="midnightblue" stroke="midnightblue" points="317.927,-276.006 311.227,-284.213 321.583,-281.976 317.927,-276.006"/>
</g>
<!-- Node8 -->
<g id="node8" class="node"><title>Node8</title>
<g id="a_node8"><a xlink:href="../../dd/dfd/classorg_1_1msrg_1_1raccoon_1_1CodedPiece_a916100d89d5cbded0ba4a2d7c86727b6.html#a916100d89d5cbded0ba4a2d7c86727b6" target="_top" xlink:title="org.msrg.raccoon.CodedPiece.\lCodedPiece">
<polygon fill="none" stroke="black" points="468,-394.5 468,-424.5 620,-424.5 620,-394.5 468,-394.5"/>
<text text-anchor="start" x="476" y="-412.5" font-family="Helvetica,sans-Serif" font-size="10.00">org.msrg.raccoon.CodedPiece.</text>
<text text-anchor="middle" x="544" y="-401.5" font-family="Helvetica,sans-Serif" font-size="10.00">CodedPiece</text>
</a>
</g>
</g>
<!-- Node7&#45;&gt;Node8 -->
<g id="edge7" class="edge"><title>Node7&#45;&gt;Node8</title>
<path fill="none" stroke="midnightblue" d="M315.864,-320.73C343.039,-340.086 385.882,-368.089 427,-384.5 439.915,-389.655 454.084,-393.829 467.948,-397.182"/>
<polygon fill="midnightblue" stroke="midnightblue" points="317.77,-317.79 307.613,-314.776 313.673,-323.466 317.77,-317.79"/>
</g>
<!-- Node15 -->
<g id="node15" class="node"><title>Node15</title>
<g id="a_node15"><a xlink:href="../../d4/daf/classorg_1_1msrg_1_1raccoon_1_1engine_1_1task_1_1sequential_1_1EncodingReceivedCodedBatch__SequentialCodingTask_a42110602418c15d727175229b4b8f9cb.html#a42110602418c15d727175229b4b8f9cb" target="_top" xlink:title="org.msrg.raccoon.engine.task.sequential.\lEncodingReceivedCodedBatch_SequentialCoding\lTask.runStagePrivately">
<polygon fill="none" stroke="black" points="427,-334 427,-375 661,-375 661,-334 427,-334"/>
<text text-anchor="start" x="435" y="-363" font-family="Helvetica,sans-Serif" font-size="10.00">org.msrg.raccoon.engine.task.sequential.</text>
<text text-anchor="start" x="435" y="-352" font-family="Helvetica,sans-Serif" font-size="10.00">EncodingReceivedCodedBatch_SequentialCoding</text>
<text text-anchor="middle" x="544" y="-341" font-family="Helvetica,sans-Serif" font-size="10.00">Task.runStagePrivately</text>
</a>
</g>
</g>
<!-- Node7&#45;&gt;Node15 -->
<g id="edge15" class="edge"><title>Node7&#45;&gt;Node15</title>
<path fill="none" stroke="midnightblue" d="M367.261,-316.67C392.656,-322.136 421.011,-328.24 447.407,-333.922"/>
<polygon fill="midnightblue" stroke="midnightblue" points="367.829,-313.212 357.316,-314.529 366.356,-320.055 367.829,-313.212"/>
</g>
<!-- Node16 -->
<g id="node16" class="node"><title>Node16</title>
<g id="a_node16"><a xlink:href="../../dd/d36/classorg_1_1msrg_1_1raccoon_1_1matrix_1_1finitefields_1_1ByteMatrix_a25491e8ba3b3c3e18ec2392b7393bac3.html#a25491e8ba3b3c3e18ec2392b7393bac3" target="_top" xlink:title="org.msrg.raccoon.matrix.finitefields.\lByteMatrix.multiply">
<polygon fill="none" stroke="black" points="457.5,-284.5 457.5,-314.5 630.5,-314.5 630.5,-284.5 457.5,-284.5"/>
<text text-anchor="start" x="465.5" y="-302.5" font-family="Helvetica,sans-Serif" font-size="10.00">org.msrg.raccoon.matrix.finitefields.</text>
<text text-anchor="middle" x="544" y="-291.5" font-family="Helvetica,sans-Serif" font-size="10.00">ByteMatrix.multiply</text>
</a>
</g>
</g>
<!-- Node7&#45;&gt;Node16 -->
<g id="edge16" class="edge"><title>Node7&#45;&gt;Node16</title>
<path fill="none" stroke="midnightblue" d="M383.577,-299.5C407.84,-299.5 433.731,-299.5 457.438,-299.5"/>
<polygon fill="midnightblue" stroke="midnightblue" points="383.289,-296 373.289,-299.5 383.289,-303 383.289,-296"/>
</g>
<!-- Node17 -->
<g id="node17" class="node"><title>Node17</title>
<g id="a_node17"><a xlink:href="../../da/df0/classorg_1_1msrg_1_1raccoon_1_1ReceivedCodedBatch_a5621d4c76e51a0ac69a179e1001e6371.html#a5621d4c76e51a0ac69a179e1001e6371" target="_top" xlink:title="org.msrg.raccoon.Received\lCodedBatch.decodeUsing">
<polygon fill="none" stroke="black" points="475.5,-443.5 475.5,-473.5 612.5,-473.5 612.5,-443.5 475.5,-443.5"/>
<text text-anchor="start" x="483.5" y="-461.5" font-family="Helvetica,sans-Serif" font-size="10.00">org.msrg.raccoon.Received</text>
<text text-anchor="middle" x="544" y="-450.5" font-family="Helvetica,sans-Serif" font-size="10.00">CodedBatch.decodeUsing</text>
</a>
</g>
</g>
<!-- Node7&#45;&gt;Node17 -->
<g id="edge17" class="edge"><title>Node7&#45;&gt;Node17</title>
<path fill="none" stroke="midnightblue" d="M304.697,-322.948C328.556,-353.661 374.715,-406.846 427,-434.5 441.816,-442.336 458.955,-447.616 475.437,-451.172"/>
<polygon fill="midnightblue" stroke="midnightblue" points="307.42,-320.748 298.572,-314.921 301.855,-324.994 307.42,-320.748"/>
</g>
<!-- Node19 -->
<g id="node19" class="node"><title>Node19</title>
<g id="a_node19"><a xlink:href="../../d5/d96/classorg_1_1msrg_1_1raccoon_1_1matrix_1_1finitefields_1_1ByteMatrixTest_ae32ff4ec2714b4cecdb5f85253619a41.html#ae32ff4ec2714b4cecdb5f85253619a41" target="_top" xlink:title="org.msrg.raccoon.matrix.finitefields.\lByteMatrixTest.runTestM2timesInvIsM">
<polygon fill="none" stroke="black" points="450.5,-235.5 450.5,-265.5 637.5,-265.5 637.5,-235.5 450.5,-235.5"/>
<text text-anchor="start" x="458.5" y="-253.5" font-family="Helvetica,sans-Serif" font-size="10.00">org.msrg.raccoon.matrix.finitefields.</text>
<text text-anchor="middle" x="544" y="-242.5" font-family="Helvetica,sans-Serif" font-size="10.00">ByteMatrixTest.runTestM2timesInvIsM</text>
</a>
</g>
</g>
<!-- Node7&#45;&gt;Node19 -->
<g id="edge22" class="edge"><title>Node7&#45;&gt;Node19</title>
<path fill="none" stroke="midnightblue" d="M375.973,-282.533C404.847,-276.995 436.686,-270.889 464.753,-265.506"/>
<polygon fill="midnightblue" stroke="midnightblue" points="375.057,-279.144 365.895,-284.465 376.375,-286.019 375.057,-279.144"/>
</g>
<!-- Node9 -->
<g id="node9" class="node"><title>Node9</title>
<g id="a_node9"><a xlink:href="../../dd/dfd/classorg_1_1msrg_1_1raccoon_1_1CodedPiece_acaf7264810bbdf99b73278b11ac1da72.html#acaf7264810bbdf99b73278b11ac1da72" target="_top" xlink:title="org.msrg.raccoon.CodedPiece.equals">
<polygon fill="none" stroke="black" points="697,-400 697,-419 877,-419 877,-400 697,-400"/>
<text text-anchor="middle" x="787" y="-407" font-family="Helvetica,sans-Serif" font-size="10.00">org.msrg.raccoon.CodedPiece.equals</text>
</a>
</g>
</g>
<!-- Node8&#45;&gt;Node9 -->
<g id="edge8" class="edge"><title>Node8&#45;&gt;Node9</title>
<path fill="none" stroke="midnightblue" d="M630.381,-409.5C651.965,-409.5 675.196,-409.5 696.956,-409.5"/>
<polygon fill="midnightblue" stroke="midnightblue" points="630.263,-406 620.263,-409.5 630.263,-413 630.263,-406"/>
</g>
<!-- Node10 -->
<g id="node10" class="node"><title>Node10</title>
<g id="a_node10"><a xlink:href="../../dd/dfd/classorg_1_1msrg_1_1raccoon_1_1CodedPiece_a2356802d8204151b602ba47d25c34ff3.html#a2356802d8204151b602ba47d25c34ff3" target="_top" xlink:title="org.msrg.raccoon.CodedPiece.make\lCodedPiece">
<polygon fill="none" stroke="black" points="699,-345.5 699,-375.5 875,-375.5 875,-345.5 699,-345.5"/>
<text text-anchor="start" x="707" y="-363.5" font-family="Helvetica,sans-Serif" font-size="10.00">org.msrg.raccoon.CodedPiece.make</text>
<text text-anchor="middle" x="787" y="-352.5" font-family="Helvetica,sans-Serif" font-size="10.00">CodedPiece</text>
</a>
</g>
</g>
<!-- Node8&#45;&gt;Node10 -->
<g id="edge9" class="edge"><title>Node8&#45;&gt;Node10</title>
<path fill="none" stroke="midnightblue" d="M628.809,-392.46C655.949,-386.942 685.835,-380.866 712.194,-375.506"/>
<polygon fill="midnightblue" stroke="midnightblue" points="628.048,-389.043 618.946,-394.465 629.443,-395.903 628.048,-389.043"/>
</g>
<!-- Node10&#45;&gt;Node3 -->
<g id="edge13" class="edge"><title>Node10&#45;&gt;Node3</title>
<path fill="none" stroke="midnightblue" d="M826.872,-340.724C842.574,-332.541 860.783,-322.804 877,-313.5 915.845,-291.214 959.815,-263.351 985.931,-246.515"/>
<polygon fill="midnightblue" stroke="midnightblue" points="825.218,-337.639 817.95,-345.348 828.439,-343.854 825.218,-337.639"/>
</g>
<!-- Node11 -->
<g id="node11" class="node"><title>Node11</title>
<g id="a_node11"><a xlink:href="../../d2/da2/classorg_1_1msrg_1_1raccoon_1_1SourceCodedBatch_aa614a213e1484d4643bf8f6b4eb8616a.html#aa614a213e1484d4643bf8f6b4eb8616a" target="_top" xlink:title="org.msrg.raccoon.SourceCoded\lBatch.code">
<polygon fill="none" stroke="black" points="932.5,-339.5 932.5,-369.5 1087.5,-369.5 1087.5,-339.5 932.5,-339.5"/>
<text text-anchor="start" x="940.5" y="-357.5" font-family="Helvetica,sans-Serif" font-size="10.00">org.msrg.raccoon.SourceCoded</text>
<text text-anchor="middle" x="1010" y="-346.5" font-family="Helvetica,sans-Serif" font-size="10.00">Batch.code</text>
</a>
</g>
</g>
<!-- Node10&#45;&gt;Node11 -->
<g id="edge10" class="edge"><title>Node10&#45;&gt;Node11</title>
<path fill="none" stroke="midnightblue" d="M885.33,-357.858C901.109,-357.429 917.251,-356.991 932.444,-356.578"/>
<polygon fill="midnightblue" stroke="midnightblue" points="884.929,-354.367 875.028,-358.137 885.119,-361.364 884.929,-354.367"/>
</g>
<!-- Node14 -->
<g id="node14" class="node"><title>Node14</title>
<g id="a_node14"><a xlink:href="../../db/d26/classorg_1_1msrg_1_1raccoon_1_1ReceivedCodedBatchTest_af7c8b12bc8b1dc5d9c5e353b838d830d.html#af7c8b12bc8b1dc5d9c5e353b838d830d" target="_top" xlink:title="org.msrg.raccoon.Received\lCodedBatchTest.ttestEncodingDecoding\lReceivedCodedBatch">
<polygon fill="none" stroke="black" points="913,-389 913,-430 1107,-430 1107,-389 913,-389"/>
<text text-anchor="start" x="921" y="-418" font-family="Helvetica,sans-Serif" font-size="10.00">org.msrg.raccoon.Received</text>
<text text-anchor="start" x="921" y="-407" font-family="Helvetica,sans-Serif" font-size="10.00">CodedBatchTest.ttestEncodingDecoding</text>
<text text-anchor="middle" x="1010" y="-396" font-family="Helvetica,sans-Serif" font-size="10.00">ReceivedCodedBatch</text>
</a>
</g>
</g>
<!-- Node10&#45;&gt;Node14 -->
<g id="edge14" class="edge"><title>Node10&#45;&gt;Node14</title>
<path fill="none" stroke="midnightblue" d="M865.853,-377.762C882.225,-381.392 899.648,-385.255 916.497,-388.99"/>
<polygon fill="midnightblue" stroke="midnightblue" points="866.33,-374.282 855.809,-375.535 864.814,-381.116 866.33,-374.282"/>
</g>
<!-- Node12 -->
<g id="node12" class="node"><title>Node12</title>
<g id="a_node12"><a xlink:href="../../db/d77/classorg_1_1msrg_1_1raccoon_1_1CodedBatchTest_a04baac235b53bea4fab4b550de9271a5.html#a04baac235b53bea4fab4b550de9271a5" target="_top" xlink:title="org.msrg.raccoon.CodedBatch\lTest.testReceivedCodedBatch">
<polygon fill="none" stroke="black" points="1155.5,-385.5 1155.5,-415.5 1306.5,-415.5 1306.5,-385.5 1155.5,-385.5"/>
<text text-anchor="start" x="1163.5" y="-403.5" font-family="Helvetica,sans-Serif" font-size="10.00">org.msrg.raccoon.CodedBatch</text>
<text text-anchor="middle" x="1231" y="-392.5" font-family="Helvetica,sans-Serif" font-size="10.00">Test.testReceivedCodedBatch</text>
</a>
</g>
</g>
<!-- Node11&#45;&gt;Node12 -->
<g id="edge11" class="edge"><title>Node11&#45;&gt;Node12</title>
<path fill="none" stroke="midnightblue" d="M1092.54,-371.627C1114.2,-376.176 1137.42,-381.055 1158.5,-385.483"/>
<polygon fill="midnightblue" stroke="midnightblue" points="1093.21,-368.193 1082.71,-369.562 1091.78,-375.043 1093.21,-368.193"/>
</g>
<!-- Node13 -->
<g id="node13" class="node"><title>Node13</title>
<g id="a_node13"><a xlink:href="../../d7/d47/classorg_1_1msrg_1_1raccoon_1_1SlicedCodedBatchTest_aa7d0bdfa77013b46a1f2e416dbb71b8c.html#aa7d0bdfa77013b46a1f2e416dbb71b8c" target="_top" xlink:title="org.msrg.raccoon.SlicedCoded\lBatchTest.testReceivedCodedBatch">
<polygon fill="none" stroke="black" points="1143,-457.5 1143,-487.5 1319,-487.5 1319,-457.5 1143,-457.5"/>
<text text-anchor="start" x="1151" y="-475.5" font-family="Helvetica,sans-Serif" font-size="10.00">org.msrg.raccoon.SlicedCoded</text>
<text text-anchor="middle" x="1231" y="-464.5" font-family="Helvetica,sans-Serif" font-size="10.00">BatchTest.testReceivedCodedBatch</text>
</a>
</g>
</g>
<!-- Node11&#45;&gt;Node13 -->
<g id="edge12" class="edge"><title>Node11&#45;&gt;Node13</title>
<path fill="none" stroke="midnightblue" d="M1097.16,-373.819C1100.57,-375.553 1103.86,-377.442 1107,-379.5 1128.7,-393.744 1123.16,-408.755 1143,-425.5 1158.35,-438.455 1177.84,-449.386 1194.48,-457.437"/>
<polygon fill="midnightblue" stroke="midnightblue" points="1098.46,-370.566 1087.91,-369.584 1095.54,-376.93 1098.46,-370.566"/>
</g>
<!-- Node18 -->
<g id="node18" class="node"><title>Node18</title>
<g id="a_node18"><a xlink:href="../../da/df0/classorg_1_1msrg_1_1raccoon_1_1ReceivedCodedBatch_aa025693c18e525356f5750174ceccd70.html#aa025693c18e525356f5750174ceccd70" target="_top" xlink:title="org.msrg.raccoon.Received\lCodedBatch.decode">
<polygon fill="none" stroke="black" points="718.5,-443.5 718.5,-473.5 855.5,-473.5 855.5,-443.5 718.5,-443.5"/>
<text text-anchor="start" x="726.5" y="-461.5" font-family="Helvetica,sans-Serif" font-size="10.00">org.msrg.raccoon.Received</text>
<text text-anchor="middle" x="787" y="-450.5" font-family="Helvetica,sans-Serif" font-size="10.00">CodedBatch.decode</text>
</a>
</g>
</g>
<!-- Node17&#45;&gt;Node18 -->
<g id="edge18" class="edge"><title>Node17&#45;&gt;Node18</title>
<path fill="none" stroke="midnightblue" d="M623.016,-458.5C653.738,-458.5 688.685,-458.5 718.318,-458.5"/>
<polygon fill="midnightblue" stroke="midnightblue" points="622.773,-455 612.773,-458.5 622.773,-462 622.773,-455"/>
</g>
<!-- Node18&#45;&gt;Node12 -->
<g id="edge19" class="edge"><title>Node18&#45;&gt;Node12</title>
<path fill="none" stroke="midnightblue" d="M865.966,-459.213C930.955,-458.532 1025.7,-454.568 1107,-439.5 1135.74,-434.172 1167.15,-424.142 1191.03,-415.587"/>
<polygon fill="midnightblue" stroke="midnightblue" points="865.769,-455.714 855.797,-459.295 865.825,-462.714 865.769,-455.714"/>
</g>
<!-- Node18&#45;&gt;Node13 -->
<g id="edge20" class="edge"><title>Node18&#45;&gt;Node13</title>
<path fill="none" stroke="midnightblue" d="M865.811,-468.573C881.413,-470.21 897.708,-471.646 913,-472.5 990.616,-476.833 1079.09,-476.384 1142.81,-475.112"/>
<polygon fill="midnightblue" stroke="midnightblue" points="865.996,-465.073 855.677,-467.473 865.241,-472.032 865.996,-465.073"/>
</g>
<!-- Node18&#45;&gt;Node14 -->
<g id="edge21" class="edge"><title>Node18&#45;&gt;Node14</title>
<path fill="none" stroke="midnightblue" d="M865.558,-441.304C881.943,-437.671 899.391,-433.802 916.272,-430.06"/>
<polygon fill="midnightblue" stroke="midnightblue" points="864.513,-437.95 855.508,-443.532 866.029,-444.784 864.513,-437.95"/>
</g>
<!-- Node20 -->
<g id="node20" class="node"><title>Node20</title>
<g id="a_node20"><a xlink:href="../../d5/d96/classorg_1_1msrg_1_1raccoon_1_1matrix_1_1finitefields_1_1ByteMatrixTest_af84f780201f4ae5e9d625748fa84ca38.html#af84f780201f4ae5e9d625748fa84ca38" target="_top" xlink:title="org.msrg.raccoon.matrix.finitefields.\lByteMatrixTest.testM2timesInvIsM\l_HasNoInvserse">
<polygon fill="none" stroke="black" points="700.5,-263 700.5,-304 873.5,-304 873.5,-263 700.5,-263"/>
<text text-anchor="start" x="708.5" y="-292" font-family="Helvetica,sans-Serif" font-size="10.00">org.msrg.raccoon.matrix.finitefields.</text>
<text text-anchor="start" x="708.5" y="-281" font-family="Helvetica,sans-Serif" font-size="10.00">ByteMatrixTest.testM2timesInvIsM</text>
<text text-anchor="middle" x="787" y="-270" font-family="Helvetica,sans-Serif" font-size="10.00">_HasNoInvserse</text>
</a>
</g>
</g>
<!-- Node19&#45;&gt;Node20 -->
<g id="edge23" class="edge"><title>Node19&#45;&gt;Node20</title>
<path fill="none" stroke="midnightblue" d="M648.028,-264.608C665.463,-266.995 683.396,-269.45 700.325,-271.769"/>
<polygon fill="midnightblue" stroke="midnightblue" points="648.215,-261.101 637.832,-263.211 647.265,-268.036 648.215,-261.101"/>
</g>
<!-- Node21 -->
<g id="node21" class="node"><title>Node21</title>
<g id="a_node21"><a xlink:href="../../d5/d96/classorg_1_1msrg_1_1raccoon_1_1matrix_1_1finitefields_1_1ByteMatrixTest_a810788f9ce020bbab969821becb0ef3f.html#a810788f9ce020bbab969821becb0ef3f" target="_top" xlink:title="org.msrg.raccoon.matrix.finitefields.\lByteMatrixTest.testM2timesInvIsM\l_HasInvserse">
<polygon fill="none" stroke="black" points="700.5,-203 700.5,-244 873.5,-244 873.5,-203 700.5,-203"/>
<text text-anchor="start" x="708.5" y="-232" font-family="Helvetica,sans-Serif" font-size="10.00">org.msrg.raccoon.matrix.finitefields.</text>
<text text-anchor="start" x="708.5" y="-221" font-family="Helvetica,sans-Serif" font-size="10.00">ByteMatrixTest.testM2timesInvIsM</text>
<text text-anchor="middle" x="787" y="-210" font-family="Helvetica,sans-Serif" font-size="10.00">_HasInvserse</text>
</a>
</g>
</g>
<!-- Node19&#45;&gt;Node21 -->
<g id="edge24" class="edge"><title>Node19&#45;&gt;Node21</title>
<path fill="none" stroke="midnightblue" d="M648.028,-238.957C665.463,-237.004 683.396,-234.995 700.325,-233.098"/>
<polygon fill="midnightblue" stroke="midnightblue" points="647.38,-235.508 637.832,-240.1 648.16,-242.465 647.38,-235.508"/>
</g>
<!-- Node23 -->
<g id="node23" class="node"><title>Node23</title>
<g id="a_node23"><a xlink:href="../../d6/d19/classorg_1_1msrg_1_1raccoon_1_1engine_1_1thread_1_1CodingThreadImpl_af81a44607be02e9f01c5f4c119ff5ed4.html#af81a44607be02e9f01c5f4c119ff5ed4" target="_top" xlink:title="org.msrg.raccoon.engine.thread.\lCodingThreadImpl.runTask">
<polygon fill="none" stroke="black" points="465.5,-0.5 465.5,-30.5 622.5,-30.5 622.5,-0.5 465.5,-0.5"/>
<text text-anchor="start" x="473.5" y="-18.5" font-family="Helvetica,sans-Serif" font-size="10.00">org.msrg.raccoon.engine.thread.</text>
<text text-anchor="middle" x="544" y="-7.5" font-family="Helvetica,sans-Serif" font-size="10.00">CodingThreadImpl.runTask</text>
</a>
</g>
</g>
<!-- Node22&#45;&gt;Node23 -->
<g id="edge27" class="edge"><title>Node22&#45;&gt;Node23</title>
<path fill="none" stroke="midnightblue" d="M371.844,-68.4779C378.406,-66.3652 384.861,-64.0433 391,-61.5 408.323,-54.3229 409.561,-46.3904 427,-39.5 439.145,-34.7012 452.403,-30.8065 465.473,-27.6625"/>
<polygon fill="midnightblue" stroke="midnightblue" points="370.723,-65.1607 362.178,-71.4248 372.764,-71.8564 370.723,-65.1607"/>
</g>
</g>
</svg>
