<?xml version="1.0" encoding="UTF-8" standalone="no"?>
<!DOCTYPE svg PUBLIC "-//W3C//DTD SVG 1.1//EN"
 "http://www.w3.org/Graphics/SVG/1.1/DTD/svg11.dtd">
<!-- Generated by graphviz version 2.38.0 (20140413.2041)
 -->
<!-- Title: org.msrg.raccoon.matrix.bulk.SliceMatrix.clone Pages: 1 -->
<svg width="531pt" height="137pt"
 viewBox="0.00 0.00 531.00 137.00" xmlns="http://www.w3.org/2000/svg" xmlns:xlink="http://www.w3.org/1999/xlink">
<g id="graph0" class="graph" transform="scale(1 1) rotate(0) translate(4 133)">
<title>org.msrg.raccoon.matrix.bulk.SliceMatrix.clone</title>
<!-- Node0 -->
<g id="node1" class="node"><title>Node0</title>
<polygon fill="#bfbfbf" stroke="black" points="0,-49.5 0,-79.5 146,-79.5 146,-49.5 0,-49.5"/>
<text text-anchor="start" x="8" y="-67.5" font-family="Helvetica,sans-Serif" font-size="10.00">org.msrg.raccoon.matrix.bulk.</text>
<text text-anchor="middle" x="73" y="-56.5" font-family="Helvetica,sans-Serif" font-size="10.00">SliceMatrix.clone</text>
</g>
<!-- Node1 -->
<g id="node2" class="node"><title>Node1</title>
<g id="a_node2"><a xlink:href="../../d6/d6d/classorg_1_1msrg_1_1raccoon_1_1matrix_1_1bulk_1_1SliceMatrix_a81b3cdb2a71a0caa38efaeaf1ad3b367.html#a81b3cdb2a71a0caa38efaeaf1ad3b367" target="_top" xlink:title="org.msrg.raccoon.matrix.bulk.\lSliceMatrix.getEmptySliceMatrix">
<polygon fill="none" stroke="black" points="182,-98.5 182,-128.5 341,-128.5 341,-98.5 182,-98.5"/>
<text text-anchor="start" x="190" y="-116.5" font-family="Helvetica,sans-Serif" font-size="10.00">org.msrg.raccoon.matrix.bulk.</text>
<text text-anchor="middle" x="261.5" y="-105.5" font-family="Helvetica,sans-Serif" font-size="10.00">SliceMatrix.getEmptySliceMatrix</text>
</a>
</g>
</g>
<!-- Node0&#45;&gt;Node1 -->
<g id="edge1" class="edge"><title>Node0&#45;&gt;Node1</title>
<path fill="none" stroke="midnightblue" d="M131.224,-79.5346C150.915,-84.7083 173.14,-90.5475 193.537,-95.9066"/>
<polygon fill="midnightblue" stroke="midnightblue" points="192.823,-99.3378 203.385,-98.4938 194.602,-92.5675 192.823,-99.3378"/>
</g>
<!-- Node3 -->
<g id="node4" class="node"><title>Node3</title>
<g id="a_node4"><a xlink:href="../../d6/d6d/classorg_1_1msrg_1_1raccoon_1_1matrix_1_1bulk_1_1SliceMatrix_a713a9939dc698f3e15630411dabb9db1.html#a713a9939dc698f3e15630411dabb9db1" target="_top" xlink:title="org.msrg.raccoon.matrix.bulk.\lSliceMatrix.hasContent">
<polygon fill="none" stroke="black" points="188.5,-49.5 188.5,-79.5 334.5,-79.5 334.5,-49.5 188.5,-49.5"/>
<text text-anchor="start" x="196.5" y="-67.5" font-family="Helvetica,sans-Serif" font-size="10.00">org.msrg.raccoon.matrix.bulk.</text>
<text text-anchor="middle" x="261.5" y="-56.5" font-family="Helvetica,sans-Serif" font-size="10.00">SliceMatrix.hasContent</text>
</a>
</g>
</g>
<!-- Node0&#45;&gt;Node3 -->
<g id="edge3" class="edge"><title>Node0&#45;&gt;Node3</title>
<path fill="none" stroke="midnightblue" d="M146.106,-64.5C156.592,-64.5 167.455,-64.5 178.126,-64.5"/>
<polygon fill="midnightblue" stroke="midnightblue" points="178.279,-68.0001 188.279,-64.5 178.278,-61.0001 178.279,-68.0001"/>
</g>
<!-- Node4 -->
<g id="node5" class="node"><title>Node4</title>
<g id="a_node5"><a xlink:href="../../d6/d6d/classorg_1_1msrg_1_1raccoon_1_1matrix_1_1bulk_1_1SliceMatrix_a741897e83bcadc2c1ad09c119a01582b.html#a741897e83bcadc2c1ad09c119a01582b" target="_top" xlink:title="org.msrg.raccoon.matrix.bulk.\lSliceMatrix.loadWithCopy">
<polygon fill="none" stroke="black" points="188.5,-0.5 188.5,-30.5 334.5,-30.5 334.5,-0.5 188.5,-0.5"/>
<text text-anchor="start" x="196.5" y="-18.5" font-family="Helvetica,sans-Serif" font-size="10.00">org.msrg.raccoon.matrix.bulk.</text>
<text text-anchor="middle" x="261.5" y="-7.5" font-family="Helvetica,sans-Serif" font-size="10.00">SliceMatrix.loadWithCopy</text>
</a>
</g>
</g>
<!-- Node0&#45;&gt;Node4 -->
<g id="edge4" class="edge"><title>Node0&#45;&gt;Node4</title>
<path fill="none" stroke="midnightblue" d="M131.224,-49.4654C150.915,-44.2917 173.14,-38.4525 193.537,-33.0934"/>
<polygon fill="midnightblue" stroke="midnightblue" points="194.602,-36.4325 203.385,-30.5062 192.823,-29.6622 194.602,-36.4325"/>
</g>
<!-- Node2 -->
<g id="node3" class="node"><title>Node2</title>
<g id="a_node3"><a xlink:href="../../d6/d6d/classorg_1_1msrg_1_1raccoon_1_1matrix_1_1bulk_1_1SliceMatrix_aeb3fa63b05dee9bbf6e2f5779ab0c134.html#aeb3fa63b05dee9bbf6e2f5779ab0c134" target="_top" xlink:title="org.msrg.raccoon.matrix.bulk.\lSliceMatrix.SliceMatrix">
<polygon fill="none" stroke="black" points="377,-98.5 377,-128.5 523,-128.5 523,-98.5 377,-98.5"/>
<text text-anchor="start" x="385" y="-116.5" font-family="Helvetica,sans-Serif" font-size="10.00">org.msrg.raccoon.matrix.bulk.</text>
<text text-anchor="middle" x="450" y="-105.5" font-family="Helvetica,sans-Serif" font-size="10.00">SliceMatrix.SliceMatrix</text>
</a>
</g>
</g>
<!-- Node1&#45;&gt;Node2 -->
<g id="edge2" class="edge"><title>Node1&#45;&gt;Node2</title>
<path fill="none" stroke="midnightblue" d="M341.052,-113.5C349.474,-113.5 358.06,-113.5 366.526,-113.5"/>
<polygon fill="midnightblue" stroke="midnightblue" points="366.774,-117 376.774,-113.5 366.774,-110 366.774,-117"/>
</g>
</g>
</svg>
