<?xml version="1.0" encoding="UTF-8" standalone="no"?>
<!DOCTYPE svg PUBLIC "-//W3C//DTD SVG 1.1//EN"
 "http://www.w3.org/Graphics/SVG/1.1/DTD/svg11.dtd">
<!-- Generated by graphviz version 2.38.0 (20140413.2041)
 -->
<!-- Title: org.msrg.raccoon.engine.CodingEngine_ForTest Pages: 1 -->
<svg width="1291pt" height="1170pt"
 viewBox="0.00 0.00 1291.00 1170.00" xmlns="http://www.w3.org/2000/svg" xmlns:xlink="http://www.w3.org/1999/xlink">
<g id="graph0" class="graph" transform="scale(1 1) rotate(0) translate(4 1166)">
<title>org.msrg.raccoon.engine.CodingEngine_ForTest</title>
<!-- Node5 -->
<g id="node1" class="node"><title>Node5</title>
<polygon fill="#bfbfbf" stroke="black" points="651,-0.5 651,-112.5 807,-112.5 807,-0.5 651,-0.5"/>
<text text-anchor="start" x="659" y="-100.5" font-family="Helvetica,sans-Serif" font-size="10.00">org.msrg.raccoon.engine.</text>
<text text-anchor="middle" x="729" y="-89.5" font-family="Helvetica,sans-Serif" font-size="10.00">CodingEngine_ForTest</text>
<polyline fill="none" stroke="black" points="651,-82.5 807,-82.5 "/>
<text text-anchor="middle" x="729" y="-70.5" font-family="Helvetica,sans-Serif" font-size="10.00"> </text>
<polyline fill="none" stroke="black" points="651,-63.5 807,-63.5 "/>
<text text-anchor="start" x="659" y="-51.5" font-family="Helvetica,sans-Serif" font-size="10.00">~ CodingEngine_ForTest()</text>
<text text-anchor="start" x="659" y="-40.5" font-family="Helvetica,sans-Serif" font-size="10.00">~ multiplyInverseMultiplyEqual()</text>
<text text-anchor="start" x="659" y="-29.5" font-family="Helvetica,sans-Serif" font-size="10.00">~ encodingReceivedEncoding</text>
<text text-anchor="start" x="659" y="-18.5" font-family="Helvetica,sans-Serif" font-size="10.00">DecodingEqual()</text>
<text text-anchor="start" x="659" y="-7.5" font-family="Helvetica,sans-Serif" font-size="10.00">~ encodingDecodingEqual()</text>
</g>
<!-- Node6 -->
<g id="node2" class="node"><title>Node6</title>
<g id="a_node2"><a xlink:href="../../d2/d9a/classorg_1_1msrg_1_1raccoon_1_1engine_1_1CodingEngineImpl.html" target="_top" xlink:title="{org.msrg.raccoon.engine.\lCodingEngineImpl\n||+ CodingEngineImpl()\l+ codingTaskStarted()\l+ codingThreadFailed()\l+ checkEquality()\l+ checkEquality()\l+ inverse()\l+ multiply()\l+ multiply()\l+ codingStarted()\l+ codingFailed()\l+ codingFinished()\l+ decode()\l+ encode()\l+ codingPreliminaryStageCompleted()\l# threadAdded()\l# threadBecameFree()\l# threadBecameBusy()\l# processCodingEvent()\l}">
<polygon fill="none" stroke="black" points="638,-150.5 638,-405.5 820,-405.5 820,-150.5 638,-150.5"/>
<text text-anchor="start" x="646" y="-393.5" font-family="Helvetica,sans-Serif" font-size="10.00">org.msrg.raccoon.engine.</text>
<text text-anchor="middle" x="729" y="-382.5" font-family="Helvetica,sans-Serif" font-size="10.00">CodingEngineImpl</text>
<polyline fill="none" stroke="black" points="638,-375.5 820,-375.5 "/>
<text text-anchor="middle" x="729" y="-363.5" font-family="Helvetica,sans-Serif" font-size="10.00"> </text>
<polyline fill="none" stroke="black" points="638,-356.5 820,-356.5 "/>
<text text-anchor="start" x="646" y="-344.5" font-family="Helvetica,sans-Serif" font-size="10.00">+ CodingEngineImpl()</text>
<text text-anchor="start" x="646" y="-333.5" font-family="Helvetica,sans-Serif" font-size="10.00">+ codingTaskStarted()</text>
<text text-anchor="start" x="646" y="-322.5" font-family="Helvetica,sans-Serif" font-size="10.00">+ codingThreadFailed()</text>
<text text-anchor="start" x="646" y="-311.5" font-family="Helvetica,sans-Serif" font-size="10.00">+ checkEquality()</text>
<text text-anchor="start" x="646" y="-300.5" font-family="Helvetica,sans-Serif" font-size="10.00">+ checkEquality()</text>
<text text-anchor="start" x="646" y="-289.5" font-family="Helvetica,sans-Serif" font-size="10.00">+ inverse()</text>
<text text-anchor="start" x="646" y="-278.5" font-family="Helvetica,sans-Serif" font-size="10.00">+ multiply()</text>
<text text-anchor="start" x="646" y="-267.5" font-family="Helvetica,sans-Serif" font-size="10.00">+ multiply()</text>
<text text-anchor="start" x="646" y="-256.5" font-family="Helvetica,sans-Serif" font-size="10.00">+ codingStarted()</text>
<text text-anchor="start" x="646" y="-245.5" font-family="Helvetica,sans-Serif" font-size="10.00">+ codingFailed()</text>
<text text-anchor="start" x="646" y="-234.5" font-family="Helvetica,sans-Serif" font-size="10.00">+ codingFinished()</text>
<text text-anchor="start" x="646" y="-223.5" font-family="Helvetica,sans-Serif" font-size="10.00">+ decode()</text>
<text text-anchor="start" x="646" y="-212.5" font-family="Helvetica,sans-Serif" font-size="10.00">+ encode()</text>
<text text-anchor="start" x="646" y="-201.5" font-family="Helvetica,sans-Serif" font-size="10.00">+ codingPreliminaryStageCompleted()</text>
<text text-anchor="start" x="646" y="-190.5" font-family="Helvetica,sans-Serif" font-size="10.00"># threadAdded()</text>
<text text-anchor="start" x="646" y="-179.5" font-family="Helvetica,sans-Serif" font-size="10.00"># threadBecameFree()</text>
<text text-anchor="start" x="646" y="-168.5" font-family="Helvetica,sans-Serif" font-size="10.00"># threadBecameBusy()</text>
<text text-anchor="start" x="646" y="-157.5" font-family="Helvetica,sans-Serif" font-size="10.00"># processCodingEvent()</text>
</a>
</g>
</g>
<!-- Node6&#45;&gt;Node5 -->
<g id="edge1" class="edge"><title>Node6&#45;&gt;Node5</title>
<path fill="none" stroke="midnightblue" d="M729,-140.204C729,-130.633 729,-121.355 729,-112.687"/>
<polygon fill="none" stroke="midnightblue" points="725.5,-140.27 729,-150.27 732.5,-140.27 725.5,-140.27"/>
</g>
<!-- Node7 -->
<g id="node3" class="node"><title>Node7</title>
<g id="a_node3"><a xlink:href="../../db/d98/classorg_1_1msrg_1_1raccoon_1_1engine_1_1CodingEngine.html" target="_top" xlink:title="This abstract class implements ICodingEngine and deals with management of the engine&#39;s worker threads...">
<polygon fill="none" stroke="black" points="511.5,-443.5 511.5,-764.5 666.5,-764.5 666.5,-443.5 511.5,-443.5"/>
<text text-anchor="start" x="519.5" y="-752.5" font-family="Helvetica,sans-Serif" font-size="10.00">org.msrg.raccoon.engine.</text>
<text text-anchor="middle" x="589" y="-741.5" font-family="Helvetica,sans-Serif" font-size="10.00">CodingEngine</text>
<polyline fill="none" stroke="black" points="511.5,-734.5 666.5,-734.5 "/>
<text text-anchor="start" x="519.5" y="-722.5" font-family="Helvetica,sans-Serif" font-size="10.00">+ LATE_THREAD_CHECKIN</text>
<text text-anchor="start" x="519.5" y="-711.5" font-family="Helvetica,sans-Serif" font-size="10.00">_TIMEOUT</text>
<text text-anchor="start" x="519.5" y="-700.5" font-family="Helvetica,sans-Serif" font-size="10.00">+ DEBUG</text>
<text text-anchor="start" x="519.5" y="-689.5" font-family="Helvetica,sans-Serif" font-size="10.00"># _lock</text>
<text text-anchor="start" x="519.5" y="-678.5" font-family="Helvetica,sans-Serif" font-size="10.00"># _threadCount</text>
<text text-anchor="start" x="519.5" y="-667.5" font-family="Helvetica,sans-Serif" font-size="10.00"># _threadCheckins</text>
<polyline fill="none" stroke="black" points="511.5,-660.5 666.5,-660.5 "/>
<text text-anchor="start" x="519.5" y="-648.5" font-family="Helvetica,sans-Serif" font-size="10.00">+ registerCodingListener()</text>
<text text-anchor="start" x="519.5" y="-637.5" font-family="Helvetica,sans-Serif" font-size="10.00">+ deregisterCodingListener()</text>
<text text-anchor="start" x="519.5" y="-626.5" font-family="Helvetica,sans-Serif" font-size="10.00">+ threadIsFree()</text>
<text text-anchor="start" x="519.5" y="-615.5" font-family="Helvetica,sans-Serif" font-size="10.00">+ startComponent()</text>
<text text-anchor="start" x="519.5" y="-604.5" font-family="Helvetica,sans-Serif" font-size="10.00">+ init()</text>
<text text-anchor="start" x="519.5" y="-593.5" font-family="Helvetica,sans-Serif" font-size="10.00">+ codingThreadFailed()</text>
<text text-anchor="start" x="519.5" y="-582.5" font-family="Helvetica,sans-Serif" font-size="10.00">+ codingTaskStarted()</text>
<text text-anchor="start" x="519.5" y="-571.5" font-family="Helvetica,sans-Serif" font-size="10.00">+ codingTaskFinished()</text>
<text text-anchor="start" x="519.5" y="-560.5" font-family="Helvetica,sans-Serif" font-size="10.00">+ codingTaskFailed()</text>
<text text-anchor="start" x="519.5" y="-549.5" font-family="Helvetica,sans-Serif" font-size="10.00">+ getFreeThreadsCount()</text>
<text text-anchor="start" x="519.5" y="-538.5" font-family="Helvetica,sans-Serif" font-size="10.00">and 9 more...</text>
<text text-anchor="start" x="519.5" y="-527.5" font-family="Helvetica,sans-Serif" font-size="10.00"># CodingEngine()</text>
<text text-anchor="start" x="519.5" y="-516.5" font-family="Helvetica,sans-Serif" font-size="10.00"># addCodingTaskEngineEvent()</text>
<text text-anchor="start" x="519.5" y="-505.5" font-family="Helvetica,sans-Serif" font-size="10.00"># threadIsBusy()</text>
<text text-anchor="start" x="519.5" y="-494.5" font-family="Helvetica,sans-Serif" font-size="10.00"># processCodingEvent()</text>
<text text-anchor="start" x="519.5" y="-483.5" font-family="Helvetica,sans-Serif" font-size="10.00"># scheduleTask()</text>
<text text-anchor="start" x="519.5" y="-472.5" font-family="Helvetica,sans-Serif" font-size="10.00"># scheduleTask()</text>
<text text-anchor="start" x="519.5" y="-461.5" font-family="Helvetica,sans-Serif" font-size="10.00"># notifyListener()</text>
<text text-anchor="start" x="519.5" y="-450.5" font-family="Helvetica,sans-Serif" font-size="10.00"># getLateThreads()</text>
</a>
</g>
</g>
<!-- Node7&#45;&gt;Node6 -->
<g id="edge2" class="edge"><title>Node7&#45;&gt;Node6</title>
<path fill="none" stroke="midnightblue" d="M662.064,-433.91C666.15,-424.453 670.222,-415.028 674.225,-405.765"/>
<polygon fill="none" stroke="midnightblue" points="658.728,-432.805 657.975,-443.373 665.154,-435.582 658.728,-432.805"/>
</g>
<!-- Node8 -->
<g id="node4" class="node"><title>Node8</title>
<g id="a_node4"><a xlink:href="../../dd/dff/interfaceorg_1_1msrg_1_1raccoon_1_1engine_1_1ICodingEngine.html" target="_top" xlink:title="{org.msrg.raccoon.engine.\lICodingEngine\n||+ init()\l+ startComponent()\l+ registerCodingListener()\l+ deregisterCodingListener()\l+ encode()\l+ decode()\l+ multiply()\l+ multiply()\l+ inverse()\l+ checkEquality()\l+ checkEquality()\l+ getFreeThreadsCount()\l+ getBusyThreadsCount()\l+ getTotalThreadsCount()\l}">
<polygon fill="none" stroke="black" points="0,-834.5 0,-1045.5 140,-1045.5 140,-834.5 0,-834.5"/>
<text text-anchor="start" x="8" y="-1033.5" font-family="Helvetica,sans-Serif" font-size="10.00">org.msrg.raccoon.engine.</text>
<text text-anchor="middle" x="70" y="-1022.5" font-family="Helvetica,sans-Serif" font-size="10.00">ICodingEngine</text>
<polyline fill="none" stroke="black" points="0,-1015.5 140,-1015.5 "/>
<text text-anchor="middle" x="70" y="-1003.5" font-family="Helvetica,sans-Serif" font-size="10.00"> </text>
<polyline fill="none" stroke="black" points="0,-996.5 140,-996.5 "/>
<text text-anchor="start" x="8" y="-984.5" font-family="Helvetica,sans-Serif" font-size="10.00">+ init()</text>
<text text-anchor="start" x="8" y="-973.5" font-family="Helvetica,sans-Serif" font-size="10.00">+ startComponent()</text>
<text text-anchor="start" x="8" y="-962.5" font-family="Helvetica,sans-Serif" font-size="10.00">+ registerCodingListener()</text>
<text text-anchor="start" x="8" y="-951.5" font-family="Helvetica,sans-Serif" font-size="10.00">+ deregisterCodingListener()</text>
<text text-anchor="start" x="8" y="-940.5" font-family="Helvetica,sans-Serif" font-size="10.00">+ encode()</text>
<text text-anchor="start" x="8" y="-929.5" font-family="Helvetica,sans-Serif" font-size="10.00">+ decode()</text>
<text text-anchor="start" x="8" y="-918.5" font-family="Helvetica,sans-Serif" font-size="10.00">+ multiply()</text>
<text text-anchor="start" x="8" y="-907.5" font-family="Helvetica,sans-Serif" font-size="10.00">+ multiply()</text>
<text text-anchor="start" x="8" y="-896.5" font-family="Helvetica,sans-Serif" font-size="10.00">+ inverse()</text>
<text text-anchor="start" x="8" y="-885.5" font-family="Helvetica,sans-Serif" font-size="10.00">+ checkEquality()</text>
<text text-anchor="start" x="8" y="-874.5" font-family="Helvetica,sans-Serif" font-size="10.00">+ checkEquality()</text>
<text text-anchor="start" x="8" y="-863.5" font-family="Helvetica,sans-Serif" font-size="10.00">+ getFreeThreadsCount()</text>
<text text-anchor="start" x="8" y="-852.5" font-family="Helvetica,sans-Serif" font-size="10.00">+ getBusyThreadsCount()</text>
<text text-anchor="start" x="8" y="-841.5" font-family="Helvetica,sans-Serif" font-size="10.00">+ getTotalThreadsCount()</text>
</a>
</g>
</g>
<!-- Node8&#45;&gt;Node7 -->
<g id="edge3" class="edge"><title>Node8&#45;&gt;Node7</title>
<path fill="none" stroke="midnightblue" d="M147.576,-835.22C148.049,-834.81 148.524,-834.403 149,-834 260.703,-739.373 418.081,-669.438 511.214,-633.13"/>
<polygon fill="none" stroke="midnightblue" points="145.038,-832.797 140.011,-842.124 149.757,-837.968 145.038,-832.797"/>
</g>
<!-- Node9 -->
<g id="node5" class="node"><title>Node9</title>
<g id="a_node5"><a xlink:href="../../d0/d4e/classorg_1_1msrg_1_1raccoon_1_1engine_1_1CodingEngine_1_1MyThread.html" target="_top" xlink:title="{org.msrg.raccoon.engine.\lCodingEngine.MyThread\n||+ MyThread()\l+ run()\l+ toString()\l}">
<polygon fill="none" stroke="black" points="158.5,-895 158.5,-985 285.5,-985 285.5,-895 158.5,-895"/>
<text text-anchor="start" x="166.5" y="-973" font-family="Helvetica,sans-Serif" font-size="10.00">org.msrg.raccoon.engine.</text>
<text text-anchor="middle" x="222" y="-962" font-family="Helvetica,sans-Serif" font-size="10.00">CodingEngine.MyThread</text>
<polyline fill="none" stroke="black" points="158.5,-955 285.5,-955 "/>
<text text-anchor="middle" x="222" y="-943" font-family="Helvetica,sans-Serif" font-size="10.00"> </text>
<polyline fill="none" stroke="black" points="158.5,-936 285.5,-936 "/>
<text text-anchor="start" x="166.5" y="-924" font-family="Helvetica,sans-Serif" font-size="10.00">+ MyThread()</text>
<text text-anchor="start" x="166.5" y="-913" font-family="Helvetica,sans-Serif" font-size="10.00">+ run()</text>
<text text-anchor="start" x="166.5" y="-902" font-family="Helvetica,sans-Serif" font-size="10.00">+ toString()</text>
</a>
</g>
</g>
<!-- Node9&#45;&gt;Node7 -->
<g id="edge4" class="edge"><title>Node9&#45;&gt;Node7</title>
<path fill="none" stroke="#404040" d="M247.929,-894.845C260.548,-875.163 276.716,-852.335 294,-834 356.454,-767.746 439.16,-705.27 501.105,-662.364"/>
<polygon fill="none" stroke="#404040" points="501.365,-662.186 504.04,-655.489 511.25,-655.383 508.575,-662.08 501.365,-662.186"/>
<text text-anchor="middle" x="363" y="-797" font-family="Helvetica,sans-Serif" font-size="10.00"> &#45;thread</text>
</g>
<!-- Node10 -->
<g id="node6" class="node"><title>Node10</title>
<polygon fill="none" stroke="#bfbfbf" points="198.5,-1104.5 198.5,-1161.5 245.5,-1161.5 245.5,-1104.5 198.5,-1104.5"/>
<text text-anchor="middle" x="222" y="-1149.5" font-family="Helvetica,sans-Serif" font-size="10.00">Thread</text>
<polyline fill="none" stroke="#bfbfbf" points="198.5,-1142.5 245.5,-1142.5 "/>
<text text-anchor="middle" x="222" y="-1130.5" font-family="Helvetica,sans-Serif" font-size="10.00"> </text>
<polyline fill="none" stroke="#bfbfbf" points="198.5,-1123.5 245.5,-1123.5 "/>
<text text-anchor="middle" x="222" y="-1111.5" font-family="Helvetica,sans-Serif" font-size="10.00"> </text>
</g>
<!-- Node10&#45;&gt;Node9 -->
<g id="edge5" class="edge"><title>Node10&#45;&gt;Node9</title>
<path fill="none" stroke="midnightblue" d="M222,-1094.13C222,-1062.74 222,-1018.08 222,-985.083"/>
<polygon fill="none" stroke="midnightblue" points="218.5,-1094.23 222,-1104.23 225.5,-1094.23 218.5,-1094.23"/>
</g>
<!-- Node11 -->
<g id="node7" class="node"><title>Node11</title>
<polygon fill="none" stroke="#bfbfbf" points="303.5,-906 303.5,-974 484.5,-974 484.5,-906 303.5,-906"/>
<text text-anchor="start" x="311.5" y="-962" font-family="Helvetica,sans-Serif" font-size="10.00">Set&lt; org.msrg.raccoon.engine.thread.</text>
<text text-anchor="middle" x="394" y="-951" font-family="Helvetica,sans-Serif" font-size="10.00">CodingThread &gt;</text>
<polyline fill="none" stroke="#bfbfbf" points="303.5,-944 484.5,-944 "/>
<text text-anchor="middle" x="394" y="-932" font-family="Helvetica,sans-Serif" font-size="10.00"> </text>
<polyline fill="none" stroke="#bfbfbf" points="303.5,-925 484.5,-925 "/>
<text text-anchor="middle" x="394" y="-913" font-family="Helvetica,sans-Serif" font-size="10.00"> </text>
</g>
<!-- Node11&#45;&gt;Node7 -->
<g id="edge6" class="edge"><title>Node11&#45;&gt;Node7</title>
<path fill="none" stroke="#404040" d="M413.41,-905.754C434.994,-868.785 471.311,-806.58 505.334,-748.305"/>
<polygon fill="none" stroke="#404040" points="505.384,-748.22 504.954,-741.021 511.434,-737.857 511.863,-745.055 505.384,-748.22"/>
<text text-anchor="middle" x="513.5" y="-802.5" font-family="Helvetica,sans-Serif" font-size="10.00"> #_freeThreads</text>
<text text-anchor="middle" x="513.5" y="-791.5" font-family="Helvetica,sans-Serif" font-size="10.00">#_busyThreads</text>
</g>
<!-- Node12 -->
<g id="node8" class="node"><title>Node12</title>
<polygon fill="none" stroke="#bfbfbf" points="378,-1104.5 378,-1161.5 410,-1161.5 410,-1104.5 378,-1104.5"/>
<text text-anchor="middle" x="394" y="-1149.5" font-family="Helvetica,sans-Serif" font-size="10.00">Set</text>
<polyline fill="none" stroke="#bfbfbf" points="378,-1142.5 410,-1142.5 "/>
<text text-anchor="middle" x="394" y="-1130.5" font-family="Helvetica,sans-Serif" font-size="10.00"> </text>
<polyline fill="none" stroke="#bfbfbf" points="378,-1123.5 410,-1123.5 "/>
<text text-anchor="middle" x="394" y="-1111.5" font-family="Helvetica,sans-Serif" font-size="10.00"> </text>
</g>
<!-- Node12&#45;&gt;Node11 -->
<g id="edge7" class="edge"><title>Node12&#45;&gt;Node11</title>
<path fill="none" stroke="orange" d="M394,-1093.94C394,-1058.96 394,-1007.64 394,-974.269"/>
<polygon fill="orange" stroke="orange" points="390.5,-1094.23 394,-1104.23 397.5,-1094.23 390.5,-1094.23"/>
<text text-anchor="start" x="394" y="-1078" font-family="Helvetica,sans-Serif" font-size="10.00"> &lt; org::msrg::raccoon</text>
<text text-anchor="middle" x="466" y="-1067" font-family="Helvetica,sans-Serif" font-size="10.00">::engine::thread::CodingThread &gt;</text>
</g>
<!-- Node13 -->
<g id="node9" class="node"><title>Node13</title>
<polygon fill="none" stroke="#bfbfbf" points="502.5,-906 502.5,-974 675.5,-974 675.5,-906 502.5,-906"/>
<text text-anchor="start" x="510.5" y="-962" font-family="Helvetica,sans-Serif" font-size="10.00">List&lt; org.msrg.raccoon.engine.task.</text>
<text text-anchor="middle" x="589" y="-951" font-family="Helvetica,sans-Serif" font-size="10.00">CodingTask &gt;</text>
<polyline fill="none" stroke="#bfbfbf" points="502.5,-944 675.5,-944 "/>
<text text-anchor="middle" x="589" y="-932" font-family="Helvetica,sans-Serif" font-size="10.00"> </text>
<polyline fill="none" stroke="#bfbfbf" points="502.5,-925 675.5,-925 "/>
<text text-anchor="middle" x="589" y="-913" font-family="Helvetica,sans-Serif" font-size="10.00"> </text>
</g>
<!-- Node13&#45;&gt;Node7 -->
<g id="edge8" class="edge"><title>Node13&#45;&gt;Node7</title>
<path fill="none" stroke="#404040" d="M589,-905.754C589,-874.81 589,-826.184 589,-776.981"/>
<polygon fill="none" stroke="#404040" points="589,-776.808 585,-770.808 589,-764.808 593,-770.808 589,-776.808"/>
<text text-anchor="middle" x="634.5" y="-797" font-family="Helvetica,sans-Serif" font-size="10.00"> #_outstandingTasks</text>
</g>
<!-- Node14 -->
<g id="node10" class="node"><title>Node14</title>
<polygon fill="none" stroke="#bfbfbf" points="663,-1104.5 663,-1161.5 695,-1161.5 695,-1104.5 663,-1104.5"/>
<text text-anchor="middle" x="679" y="-1149.5" font-family="Helvetica,sans-Serif" font-size="10.00">List</text>
<polyline fill="none" stroke="#bfbfbf" points="663,-1142.5 695,-1142.5 "/>
<text text-anchor="middle" x="679" y="-1130.5" font-family="Helvetica,sans-Serif" font-size="10.00"> </text>
<polyline fill="none" stroke="#bfbfbf" points="663,-1123.5 695,-1123.5 "/>
<text text-anchor="middle" x="679" y="-1111.5" font-family="Helvetica,sans-Serif" font-size="10.00"> </text>
</g>
<!-- Node14&#45;&gt;Node13 -->
<g id="edge9" class="edge"><title>Node14&#45;&gt;Node13</title>
<path fill="none" stroke="orange" d="M653.549,-1120.55C639.349,-1112.83 622.631,-1101.26 613,-1086 591.616,-1052.12 587.434,-1005.26 587.398,-974.084"/>
<polygon fill="orange" stroke="orange" points="652.359,-1123.87 662.859,-1125.28 655.528,-1117.63 652.359,-1123.87"/>
<text text-anchor="start" x="613" y="-1078" font-family="Helvetica,sans-Serif" font-size="10.00"> &lt; org::msrg::raccoon</text>
<text text-anchor="middle" x="676.5" y="-1067" font-family="Helvetica,sans-Serif" font-size="10.00">::engine::task::CodingTask &gt;</text>
</g>
<!-- Node17 -->
<g id="node13" class="node"><title>Node17</title>
<polygon fill="none" stroke="#bfbfbf" points="694,-906 694,-974 846,-974 846,-906 694,-906"/>
<text text-anchor="start" x="702" y="-962" font-family="Helvetica,sans-Serif" font-size="10.00">List&lt; org.msrg.raccoon.engine.</text>
<text text-anchor="middle" x="770" y="-951" font-family="Helvetica,sans-Serif" font-size="10.00">CodingEngineEvent &gt;</text>
<polyline fill="none" stroke="#bfbfbf" points="694,-944 846,-944 "/>
<text text-anchor="middle" x="770" y="-932" font-family="Helvetica,sans-Serif" font-size="10.00"> </text>
<polyline fill="none" stroke="#bfbfbf" points="694,-925 846,-925 "/>
<text text-anchor="middle" x="770" y="-913" font-family="Helvetica,sans-Serif" font-size="10.00"> </text>
</g>
<!-- Node14&#45;&gt;Node17 -->
<g id="edge13" class="edge"><title>Node14&#45;&gt;Node17</title>
<path fill="none" stroke="orange" d="M703.937,-1118.99C716.635,-1111.11 731.208,-1099.89 740,-1086 761.518,-1052.01 767.939,-1005.39 769.679,-974.281"/>
<polygon fill="orange" stroke="orange" points="702.004,-1116.07 695.132,-1124.13 705.532,-1122.11 702.004,-1116.07"/>
<text text-anchor="start" x="752" y="-1078" font-family="Helvetica,sans-Serif" font-size="10.00"> &lt; org::msrg::raccoon</text>
<text text-anchor="middle" x="820" y="-1067" font-family="Helvetica,sans-Serif" font-size="10.00">::engine::CodingEngineEvent &gt;</text>
</g>
<!-- Node15 -->
<g id="node11" class="node"><title>Node15</title>
<polygon fill="none" stroke="#bfbfbf" points="864.5,-906 864.5,-974 1043.5,-974 1043.5,-906 864.5,-906"/>
<text text-anchor="start" x="872.5" y="-962" font-family="Helvetica,sans-Serif" font-size="10.00">Collection&lt; org.msrg.raccoon.engine.</text>
<text text-anchor="middle" x="954" y="-951" font-family="Helvetica,sans-Serif" font-size="10.00">ICodingListener &gt;</text>
<polyline fill="none" stroke="#bfbfbf" points="864.5,-944 1043.5,-944 "/>
<text text-anchor="middle" x="954" y="-932" font-family="Helvetica,sans-Serif" font-size="10.00"> </text>
<polyline fill="none" stroke="#bfbfbf" points="864.5,-925 1043.5,-925 "/>
<text text-anchor="middle" x="954" y="-913" font-family="Helvetica,sans-Serif" font-size="10.00"> </text>
</g>
<!-- Node15&#45;&gt;Node7 -->
<g id="edge10" class="edge"><title>Node15&#45;&gt;Node7</title>
<path fill="none" stroke="#404040" d="M937.971,-905.729C918.307,-868.915 881.285,-811.086 831,-783 773.645,-750.965 737.432,-798.308 676.86,-764.343"/>
<polygon fill="none" stroke="#404040" points="676.691,-764.238 669.483,-764.457 666.509,-757.887 673.717,-757.669 676.691,-764.238"/>
<text text-anchor="middle" x="898.5" y="-797" font-family="Helvetica,sans-Serif" font-size="10.00"> &#45;_listeners</text>
</g>
<!-- Node16 -->
<g id="node12" class="node"><title>Node16</title>
<polygon fill="none" stroke="#bfbfbf" points="1030,-1104.5 1030,-1161.5 1090,-1161.5 1090,-1104.5 1030,-1104.5"/>
<text text-anchor="middle" x="1060" y="-1149.5" font-family="Helvetica,sans-Serif" font-size="10.00">Collection</text>
<polyline fill="none" stroke="#bfbfbf" points="1030,-1142.5 1090,-1142.5 "/>
<text text-anchor="middle" x="1060" y="-1130.5" font-family="Helvetica,sans-Serif" font-size="10.00"> </text>
<polyline fill="none" stroke="#bfbfbf" points="1030,-1123.5 1090,-1123.5 "/>
<text text-anchor="middle" x="1060" y="-1111.5" font-family="Helvetica,sans-Serif" font-size="10.00"> </text>
</g>
<!-- Node16&#45;&gt;Node15 -->
<g id="edge11" class="edge"><title>Node16&#45;&gt;Node15</title>
<path fill="none" stroke="orange" d="M1022.56,-1103.01C1017.21,-1097.75 1012.13,-1092.01 1008,-1086 984.286,-1051.45 969.421,-1005.16 961.426,-974.275"/>
<polygon fill="orange" stroke="orange" points="1020.25,-1105.64 1029.96,-1109.87 1025,-1100.51 1020.25,-1105.64"/>
<text text-anchor="start" x="1008" y="-1078" font-family="Helvetica,sans-Serif" font-size="10.00"> &lt; org::msrg::raccoon</text>
<text text-anchor="middle" x="1067" y="-1067" font-family="Helvetica,sans-Serif" font-size="10.00">::engine::ICodingListener &gt;</text>
</g>
<!-- Node18 -->
<g id="node14" class="node"><title>Node18</title>
<polygon fill="none" stroke="#bfbfbf" points="1061.5,-906 1061.5,-974 1270.5,-974 1270.5,-906 1061.5,-906"/>
<text text-anchor="start" x="1069.5" y="-962" font-family="Helvetica,sans-Serif" font-size="10.00">Collection&lt; org.msrg.raccoon.engine.thread.</text>
<text text-anchor="middle" x="1166" y="-951" font-family="Helvetica,sans-Serif" font-size="10.00">CodingThread &gt;</text>
<polyline fill="none" stroke="#bfbfbf" points="1061.5,-944 1270.5,-944 "/>
<text text-anchor="middle" x="1166" y="-932" font-family="Helvetica,sans-Serif" font-size="10.00"> </text>
<polyline fill="none" stroke="#bfbfbf" points="1061.5,-925 1270.5,-925 "/>
<text text-anchor="middle" x="1166" y="-913" font-family="Helvetica,sans-Serif" font-size="10.00"> </text>
</g>
<!-- Node16&#45;&gt;Node18 -->
<g id="edge15" class="edge"><title>Node16&#45;&gt;Node18</title>
<path fill="none" stroke="orange" d="M1098.7,-1111.6C1108.82,-1104.66 1118.88,-1096.07 1126,-1086 1149.68,-1052.53 1159.36,-1005.58 1163.3,-974.266"/>
<polygon fill="orange" stroke="orange" points="1096.76,-1108.68 1090.24,-1117.04 1100.55,-1114.57 1096.76,-1108.68"/>
<text text-anchor="start" x="1139" y="-1078" font-family="Helvetica,sans-Serif" font-size="10.00"> &lt; org::msrg::raccoon</text>
<text text-anchor="middle" x="1211" y="-1067" font-family="Helvetica,sans-Serif" font-size="10.00">::engine::thread::CodingThread &gt;</text>
</g>
<!-- Node17&#45;&gt;Node7 -->
<g id="edge12" class="edge"><title>Node17&#45;&gt;Node7</title>
<path fill="none" stroke="#404040" d="M751.983,-905.754C733.166,-871.031 702.285,-814.045 672.434,-758.962"/>
<polygon fill="none" stroke="#404040" points="672.397,-758.892 666.021,-755.523 666.679,-748.342 673.055,-751.711 672.397,-758.892"/>
<text text-anchor="middle" x="764.5" y="-808" font-family="Helvetica,sans-Serif" font-size="10.00"> #_lowPriorityEventQueue</text>
<text text-anchor="middle" x="764.5" y="-797" font-family="Helvetica,sans-Serif" font-size="10.00">#_highPriorityEventQueue</text>
<text text-anchor="middle" x="764.5" y="-786" font-family="Helvetica,sans-Serif" font-size="10.00">#_normalPriorityEventQueue</text>
</g>
<!-- Node18&#45;&gt;Node7 -->
<g id="edge14" class="edge"><title>Node18&#45;&gt;Node7</title>
<path fill="none" stroke="#404040" d="M1136.11,-905.816C1114.47,-883.285 1083.57,-854.052 1052,-834 1001.35,-801.831 985.429,-796.649 927,-783 875.736,-771.025 740.211,-792.479 677.564,-764.248"/>
<polygon fill="none" stroke="#404040" points="677.297,-764.104 670.116,-764.757 666.751,-758.379 673.932,-757.726 677.297,-764.104"/>
<text text-anchor="middle" x="1044" y="-797" font-family="Helvetica,sans-Serif" font-size="10.00"> #_threads</text>
</g>
<!-- Node19 -->
<g id="node15" class="node"><title>Node19</title>
<g id="a_node15"><a xlink:href="../../d6/d58/interfaceorg_1_1msrg_1_1raccoon_1_1engine_1_1ICodingListener.html" target="_top" xlink:title="{org.msrg.raccoon.engine.\lICodingListener\n||+ codingStarted()\l+ codingPreliminaryStageCompleted()\l+ codingFailed()\l+ codingFinished()\l}">
<polygon fill="none" stroke="black" points="685,-553.5 685,-654.5 867,-654.5 867,-553.5 685,-553.5"/>
<text text-anchor="start" x="693" y="-642.5" font-family="Helvetica,sans-Serif" font-size="10.00">org.msrg.raccoon.engine.</text>
<text text-anchor="middle" x="776" y="-631.5" font-family="Helvetica,sans-Serif" font-size="10.00">ICodingListener</text>
<polyline fill="none" stroke="black" points="685,-624.5 867,-624.5 "/>
<text text-anchor="middle" x="776" y="-612.5" font-family="Helvetica,sans-Serif" font-size="10.00"> </text>
<polyline fill="none" stroke="black" points="685,-605.5 867,-605.5 "/>
<text text-anchor="start" x="693" y="-593.5" font-family="Helvetica,sans-Serif" font-size="10.00">+ codingStarted()</text>
<text text-anchor="start" x="693" y="-582.5" font-family="Helvetica,sans-Serif" font-size="10.00">+ codingPreliminaryStageCompleted()</text>
<text text-anchor="start" x="693" y="-571.5" font-family="Helvetica,sans-Serif" font-size="10.00">+ codingFailed()</text>
<text text-anchor="start" x="693" y="-560.5" font-family="Helvetica,sans-Serif" font-size="10.00">+ codingFinished()</text>
</a>
</g>
</g>
<!-- Node19&#45;&gt;Node6 -->
<g id="edge16" class="edge"><title>Node19&#45;&gt;Node6</title>
<path fill="none" stroke="midnightblue" d="M767.356,-543.414C761.754,-504.797 754.243,-453.018 747.353,-405.519"/>
<polygon fill="none" stroke="midnightblue" points="763.911,-544.045 768.811,-553.439 770.839,-543.04 763.911,-544.045"/>
</g>
</g>
</svg>
