<?xml version="1.0" encoding="UTF-8" standalone="no"?>
<!DOCTYPE svg PUBLIC "-//W3C//DTD SVG 1.1//EN"
 "http://www.w3.org/Graphics/SVG/1.1/DTD/svg11.dtd">
<!-- Generated by graphviz version 2.38.0 (20140413.2041)
 -->
<!-- Title: org.msrg.raccoon.engine.thread.ThreadId.ThreadId Pages: 1 -->
<svg width="551pt" height="88pt"
 viewBox="0.00 0.00 551.00 88.00" xmlns="http://www.w3.org/2000/svg" xmlns:xlink="http://www.w3.org/1999/xlink">
<g id="graph0" class="graph" transform="scale(1 1) rotate(0) translate(4 84)">
<title>org.msrg.raccoon.engine.thread.ThreadId.ThreadId</title>
<!-- Node1 -->
<g id="node1" class="node"><title>Node1</title>
<polygon fill="#bfbfbf" stroke="black" points="0,-24.5 0,-54.5 157,-54.5 157,-24.5 0,-24.5"/>
<text text-anchor="start" x="8" y="-42.5" font-family="Helvetica,sans-Serif" font-size="10.00">org.msrg.raccoon.engine.thread.</text>
<text text-anchor="middle" x="78.5" y="-31.5" font-family="Helvetica,sans-Serif" font-size="10.00">ThreadId.ThreadId</text>
</g>
<!-- Node2 -->
<g id="node2" class="node"><title>Node2</title>
<g id="a_node2"><a xlink:href="../../d0/dca/classorg_1_1msrg_1_1raccoon_1_1engine_1_1thread_1_1ThreadId_a61d732716be8c5a862def5fb176cc54f.html#a61d732716be8c5a862def5fb176cc54f" target="_top" xlink:title="org.msrg.raccoon.engine.thread.\lThreadId.equals">
<polygon fill="none" stroke="black" points="193,-49.5 193,-79.5 350,-79.5 350,-49.5 193,-49.5"/>
<text text-anchor="start" x="201" y="-67.5" font-family="Helvetica,sans-Serif" font-size="10.00">org.msrg.raccoon.engine.thread.</text>
<text text-anchor="middle" x="271.5" y="-56.5" font-family="Helvetica,sans-Serif" font-size="10.00">ThreadId.equals</text>
</a>
</g>
</g>
<!-- Node1&#45;&gt;Node2 -->
<g id="edge1" class="edge"><title>Node1&#45;&gt;Node2</title>
<path fill="none" stroke="midnightblue" d="M167.193,-50.9782C175.765,-52.1001 184.42,-53.233 192.882,-54.3406"/>
<polygon fill="midnightblue" stroke="midnightblue" points="167.557,-47.496 157.187,-49.6685 166.648,-54.4368 167.557,-47.496"/>
</g>
<!-- Node3 -->
<g id="node3" class="node"><title>Node3</title>
<g id="a_node3"><a xlink:href="../../d0/dca/classorg_1_1msrg_1_1raccoon_1_1engine_1_1thread_1_1ThreadId_acb2b304f4e76de80fb484a16aec46f50.html#acb2b304f4e76de80fb484a16aec46f50" target="_top" xlink:title="org.msrg.raccoon.engine.thread.\lThreadId.getNewThreadId">
<polygon fill="none" stroke="black" points="193,-0.5 193,-30.5 350,-30.5 350,-0.5 193,-0.5"/>
<text text-anchor="start" x="201" y="-18.5" font-family="Helvetica,sans-Serif" font-size="10.00">org.msrg.raccoon.engine.thread.</text>
<text text-anchor="middle" x="271.5" y="-7.5" font-family="Helvetica,sans-Serif" font-size="10.00">ThreadId.getNewThreadId</text>
</a>
</g>
</g>
<!-- Node1&#45;&gt;Node3 -->
<g id="edge2" class="edge"><title>Node1&#45;&gt;Node3</title>
<path fill="none" stroke="midnightblue" d="M167.193,-28.4809C175.765,-27.4039 184.42,-26.3163 192.882,-25.2531"/>
<polygon fill="midnightblue" stroke="midnightblue" points="166.673,-25.0188 157.187,-29.7383 167.545,-31.9641 166.673,-25.0188"/>
</g>
<!-- Node4 -->
<g id="node4" class="node"><title>Node4</title>
<g id="a_node4"><a xlink:href="../../d1/da4/classorg_1_1msrg_1_1raccoon_1_1engine_1_1thread_1_1CodingThread_a6e2a50f07521bb17a8f3315fd9308e41.html#a6e2a50f07521bb17a8f3315fd9308e41" target="_top" xlink:title="org.msrg.raccoon.engine.thread.\lCodingThread.CodingThread">
<polygon fill="none" stroke="black" points="386,-0.5 386,-30.5 543,-30.5 543,-0.5 386,-0.5"/>
<text text-anchor="start" x="394" y="-18.5" font-family="Helvetica,sans-Serif" font-size="10.00">org.msrg.raccoon.engine.thread.</text>
<text text-anchor="middle" x="464.5" y="-7.5" font-family="Helvetica,sans-Serif" font-size="10.00">CodingThread.CodingThread</text>
</a>
</g>
</g>
<!-- Node3&#45;&gt;Node4 -->
<g id="edge3" class="edge"><title>Node3&#45;&gt;Node4</title>
<path fill="none" stroke="midnightblue" d="M360.193,-15.5C368.765,-15.5 377.42,-15.5 385.882,-15.5"/>
<polygon fill="midnightblue" stroke="midnightblue" points="360.187,-12.0001 350.187,-15.5 360.187,-19.0001 360.187,-12.0001"/>
</g>
</g>
</svg>
