<?xml version="1.0" encoding="UTF-8" standalone="no"?>
<!DOCTYPE svg PUBLIC "-//W3C//DTD SVG 1.1//EN"
 "http://www.w3.org/Graphics/SVG/1.1/DTD/svg11.dtd">
<!-- Generated by graphviz version 2.38.0 (20140413.2041)
 -->
<!-- Title: org.msrg.raccoon.engine.CodingEngineEvent_BusyThreadEvent Pages: 1 -->
<svg width="194pt" height="320pt"
 viewBox="0.00 0.00 194.00 320.00" xmlns="http://www.w3.org/2000/svg" xmlns:xlink="http://www.w3.org/1999/xlink">
<g id="graph0" class="graph" transform="scale(1 1) rotate(0) translate(4 316)">
<title>org.msrg.raccoon.engine.CodingEngineEvent_BusyThreadEvent</title>
<!-- Node1 -->
<g id="node1" class="node"><title>Node1</title>
<polygon fill="#bfbfbf" stroke="black" points="-1.42109e-14,-0.5 -1.42109e-14,-79.5 186,-79.5 186,-0.5 -1.42109e-14,-0.5"/>
<text text-anchor="start" x="8" y="-67.5" font-family="Helvetica,sans-Serif" font-size="10.00">org.msrg.raccoon.engine.</text>
<text text-anchor="middle" x="93" y="-56.5" font-family="Helvetica,sans-Serif" font-size="10.00">CodingEngineEvent_BusyThreadEvent</text>
<polyline fill="none" stroke="black" points="-1.42109e-14,-49.5 186,-49.5 "/>
<text text-anchor="middle" x="93" y="-37.5" font-family="Helvetica,sans-Serif" font-size="10.00"> </text>
<polyline fill="none" stroke="black" points="-1.42109e-14,-30.5 186,-30.5 "/>
<text text-anchor="start" x="8" y="-18.5" font-family="Helvetica,sans-Serif" font-size="10.00">~ CodingEngineEvent_BusyThread</text>
<text text-anchor="start" x="8" y="-7.5" font-family="Helvetica,sans-Serif" font-size="10.00">Event()</text>
</g>
<!-- Node2 -->
<g id="node2" class="node"><title>Node2</title>
<g id="a_node2"><a xlink:href="../../d5/da7/classorg_1_1msrg_1_1raccoon_1_1engine_1_1CodingEngineEvent__ThreadEvent.html" target="_top" xlink:title="{org.msrg.raccoon.engine.\lCodingEngineEvent_ThreadEvent\n|# _cThread\l|~ CodingEngineEvent_Thread\lEvent()\l}">
<polygon fill="none" stroke="black" points="11,-116.5 11,-195.5 175,-195.5 175,-116.5 11,-116.5"/>
<text text-anchor="start" x="19" y="-183.5" font-family="Helvetica,sans-Serif" font-size="10.00">org.msrg.raccoon.engine.</text>
<text text-anchor="middle" x="93" y="-172.5" font-family="Helvetica,sans-Serif" font-size="10.00">CodingEngineEvent_ThreadEvent</text>
<polyline fill="none" stroke="black" points="11,-165.5 175,-165.5 "/>
<text text-anchor="start" x="19" y="-153.5" font-family="Helvetica,sans-Serif" font-size="10.00"># _cThread</text>
<polyline fill="none" stroke="black" points="11,-146.5 175,-146.5 "/>
<text text-anchor="start" x="19" y="-134.5" font-family="Helvetica,sans-Serif" font-size="10.00">~ CodingEngineEvent_Thread</text>
<text text-anchor="start" x="19" y="-123.5" font-family="Helvetica,sans-Serif" font-size="10.00">Event()</text>
</a>
</g>
</g>
<!-- Node2&#45;&gt;Node1 -->
<g id="edge1" class="edge"><title>Node2&#45;&gt;Node1</title>
<path fill="none" stroke="midnightblue" d="M93,-106.146C93,-97.256 93,-88.0961 93,-79.5555"/>
<polygon fill="none" stroke="midnightblue" points="89.5001,-106.405 93,-116.405 96.5001,-106.405 89.5001,-106.405"/>
</g>
<!-- Node3 -->
<g id="node3" class="node"><title>Node3</title>
<g id="a_node3"><a xlink:href="../../d3/db5/classorg_1_1msrg_1_1raccoon_1_1engine_1_1CodingEngineEvent.html" target="_top" xlink:title="{org.msrg.raccoon.engine.\lCodingEngineEvent\n|+ _eventType\l|+ toString()\l# CodingEngineEvent()\l}">
<polygon fill="none" stroke="black" points="29.5,-232.5 29.5,-311.5 156.5,-311.5 156.5,-232.5 29.5,-232.5"/>
<text text-anchor="start" x="37.5" y="-299.5" font-family="Helvetica,sans-Serif" font-size="10.00">org.msrg.raccoon.engine.</text>
<text text-anchor="middle" x="93" y="-288.5" font-family="Helvetica,sans-Serif" font-size="10.00">CodingEngineEvent</text>
<polyline fill="none" stroke="black" points="29.5,-281.5 156.5,-281.5 "/>
<text text-anchor="start" x="37.5" y="-269.5" font-family="Helvetica,sans-Serif" font-size="10.00">+ _eventType</text>
<polyline fill="none" stroke="black" points="29.5,-262.5 156.5,-262.5 "/>
<text text-anchor="start" x="37.5" y="-250.5" font-family="Helvetica,sans-Serif" font-size="10.00">+ toString()</text>
<text text-anchor="start" x="37.5" y="-239.5" font-family="Helvetica,sans-Serif" font-size="10.00"># CodingEngineEvent()</text>
</a>
</g>
</g>
<!-- Node3&#45;&gt;Node2 -->
<g id="edge2" class="edge"><title>Node3&#45;&gt;Node2</title>
<path fill="none" stroke="midnightblue" d="M93,-222.146C93,-213.256 93,-204.096 93,-195.555"/>
<polygon fill="none" stroke="midnightblue" points="89.5001,-222.405 93,-232.405 96.5001,-222.405 89.5001,-222.405"/>
</g>
</g>
</svg>
