<?xml version="1.0" encoding="UTF-8" standalone="no"?>
<!DOCTYPE svg PUBLIC "-//W3C//DTD SVG 1.1//EN"
 "http://www.w3.org/Graphics/SVG/1.1/DTD/svg11.dtd">
<!-- Generated by graphviz version 2.38.0 (20140413.2041)
 -->
<!-- Title: org.msrg.raccoon.matrix.finitefields.FFByteMatrixTest.testMtimesMInvIsIdentity Pages: 1 -->
<svg width="1118pt" height="210pt"
 viewBox="0.00 0.00 1118.00 210.00" xmlns="http://www.w3.org/2000/svg" xmlns:xlink="http://www.w3.org/1999/xlink">
<g id="graph0" class="graph" transform="scale(1 1) rotate(0) translate(4 206)">
<title>org.msrg.raccoon.matrix.finitefields.FFByteMatrixTest.testMtimesMInvIsIdentity</title>
<!-- Node0 -->
<g id="node1" class="node"><title>Node0</title>
<polygon fill="#bfbfbf" stroke="black" points="0,-73.5 0,-103.5 209,-103.5 209,-73.5 0,-73.5"/>
<text text-anchor="start" x="8" y="-91.5" font-family="Helvetica,sans-Serif" font-size="10.00">org.msrg.raccoon.matrix.finitefields.</text>
<text text-anchor="middle" x="104.5" y="-80.5" font-family="Helvetica,sans-Serif" font-size="10.00">FFByteMatrixTest.testMtimesMInvIsIdentity</text>
</g>
<!-- Node1 -->
<g id="node2" class="node"><title>Node1</title>
<g id="a_node2"><a xlink:href="../../de/d17/classorg_1_1msrg_1_1raccoon_1_1matrix_1_1finitefields_1_1FFByteMatrix_aa021f3b8c4acdaf1ea73248dc1356e55.html#aa021f3b8c4acdaf1ea73248dc1356e55" target="_top" xlink:title="org.msrg.raccoon.matrix.finitefields.\lFFByteMatrix.createRandomSquareByteMatrix">
<polygon fill="none" stroke="black" points="245,-147.5 245,-177.5 466,-177.5 466,-147.5 245,-147.5"/>
<text text-anchor="start" x="253" y="-165.5" font-family="Helvetica,sans-Serif" font-size="10.00">org.msrg.raccoon.matrix.finitefields.</text>
<text text-anchor="middle" x="355.5" y="-154.5" font-family="Helvetica,sans-Serif" font-size="10.00">FFByteMatrix.createRandomSquareByteMatrix</text>
</a>
</g>
</g>
<!-- Node0&#45;&gt;Node1 -->
<g id="edge1" class="edge"><title>Node0&#45;&gt;Node1</title>
<path fill="none" stroke="midnightblue" d="M143.259,-103.523C171.084,-114.226 210.013,-128.441 245,-138.5 252.999,-140.8 261.381,-143.001 269.795,-145.072"/>
<polygon fill="midnightblue" stroke="midnightblue" points="269.126,-148.511 279.666,-147.442 270.76,-141.704 269.126,-148.511"/>
</g>
<!-- Node6 -->
<g id="node7" class="node"><title>Node6</title>
<g id="a_node7"><a xlink:href="../../db/d3f/classorg_1_1msrg_1_1raccoon_1_1matrix_1_1TypedMatrix_a62f3b28a72c0c130fa783e1129694d4e.html#a62f3b28a72c0c130fa783e1129694d4e" target="_top" xlink:title="org.msrg.raccoon.matrix.\lTypedMatrix.inverseMatrix">
<polygon fill="none" stroke="black" points="289.5,-98.5 289.5,-128.5 421.5,-128.5 421.5,-98.5 289.5,-98.5"/>
<text text-anchor="start" x="297.5" y="-116.5" font-family="Helvetica,sans-Serif" font-size="10.00">org.msrg.raccoon.matrix.</text>
<text text-anchor="middle" x="355.5" y="-105.5" font-family="Helvetica,sans-Serif" font-size="10.00">TypedMatrix.inverseMatrix</text>
</a>
</g>
</g>
<!-- Node0&#45;&gt;Node6 -->
<g id="edge6" class="edge"><title>Node0&#45;&gt;Node6</title>
<path fill="none" stroke="midnightblue" d="M209.295,-98.9212C232.681,-101.269 257.069,-103.718 279.033,-105.923"/>
<polygon fill="midnightblue" stroke="midnightblue" points="278.974,-109.435 289.273,-106.951 279.673,-102.47 278.974,-109.435"/>
</g>
<!-- Node7 -->
<g id="node8" class="node"><title>Node7</title>
<g id="a_node8"><a xlink:href="../../db/d3f/classorg_1_1msrg_1_1raccoon_1_1matrix_1_1TypedMatrix_a3bbb9fb8ae836b4d61acd52e001b72c2.html#a3bbb9fb8ae836b4d61acd52e001b72c2" target="_top" xlink:title="org.msrg.raccoon.matrix.\lTypedMatrix.isIdentity">
<polygon fill="none" stroke="black" points="293,-49.5 293,-79.5 418,-79.5 418,-49.5 293,-49.5"/>
<text text-anchor="start" x="301" y="-67.5" font-family="Helvetica,sans-Serif" font-size="10.00">org.msrg.raccoon.matrix.</text>
<text text-anchor="middle" x="355.5" y="-56.5" font-family="Helvetica,sans-Serif" font-size="10.00">TypedMatrix.isIdentity</text>
</a>
</g>
</g>
<!-- Node0&#45;&gt;Node7 -->
<g id="edge7" class="edge"><title>Node0&#45;&gt;Node7</title>
<path fill="none" stroke="midnightblue" d="M209.295,-78.4956C234.055,-76.1092 259.938,-73.6144 282.879,-71.4032"/>
<polygon fill="midnightblue" stroke="midnightblue" points="283.24,-74.8848 292.858,-70.4414 282.568,-67.9171 283.24,-74.8848"/>
</g>
<!-- Node8 -->
<g id="node9" class="node"><title>Node8</title>
<g id="a_node9"><a xlink:href="../../dd/d25/enumorg_1_1msrg_1_1raccoon_1_1matrix_1_1MatrixFactory_ade989a224e218967ed11c1ca683d6cad.html#ade989a224e218967ed11c1ca683d6cad" target="_top" xlink:title="org.msrg.raccoon.matrix.\lMatrixFactory.multiply">
<polygon fill="none" stroke="black" points="293,-0.5 293,-30.5 418,-30.5 418,-0.5 293,-0.5"/>
<text text-anchor="start" x="301" y="-18.5" font-family="Helvetica,sans-Serif" font-size="10.00">org.msrg.raccoon.matrix.</text>
<text text-anchor="middle" x="355.5" y="-7.5" font-family="Helvetica,sans-Serif" font-size="10.00">MatrixFactory.multiply</text>
</a>
</g>
</g>
<!-- Node0&#45;&gt;Node8 -->
<g id="edge8" class="edge"><title>Node0&#45;&gt;Node8</title>
<path fill="none" stroke="midnightblue" d="M144.177,-73.4841C171.951,-63.054 210.431,-49.3201 245,-39.5 257.113,-36.059 270.098,-32.8243 282.74,-29.9114"/>
<polygon fill="midnightblue" stroke="midnightblue" points="283.798,-33.2609 292.783,-27.6465 282.257,-26.4325 283.798,-33.2609"/>
</g>
<!-- Node2 -->
<g id="node3" class="node"><title>Node2</title>
<g id="a_node3"><a xlink:href="../../de/d17/classorg_1_1msrg_1_1raccoon_1_1matrix_1_1finitefields_1_1FFByteMatrix_a87f23a4e4b90bad777f271edb73f0aa4.html#a87f23a4e4b90bad777f271edb73f0aa4" target="_top" xlink:title="org.msrg.raccoon.matrix.finitefields.\lFFByteMatrix.createRandomByteMatrix">
<polygon fill="none" stroke="black" points="502,-147.5 502,-177.5 692,-177.5 692,-147.5 502,-147.5"/>
<text text-anchor="start" x="510" y="-165.5" font-family="Helvetica,sans-Serif" font-size="10.00">org.msrg.raccoon.matrix.finitefields.</text>
<text text-anchor="middle" x="597" y="-154.5" font-family="Helvetica,sans-Serif" font-size="10.00">FFByteMatrix.createRandomByteMatrix</text>
</a>
</g>
</g>
<!-- Node1&#45;&gt;Node2 -->
<g id="edge2" class="edge"><title>Node1&#45;&gt;Node2</title>
<path fill="none" stroke="midnightblue" d="M466.087,-162.5C474.581,-162.5 483.143,-162.5 491.602,-162.5"/>
<polygon fill="midnightblue" stroke="midnightblue" points="491.857,-166 501.857,-162.5 491.857,-159 491.857,-166"/>
</g>
<!-- Node3 -->
<g id="node4" class="node"><title>Node3</title>
<g id="a_node4"><a xlink:href="../../de/d17/classorg_1_1msrg_1_1raccoon_1_1matrix_1_1finitefields_1_1FFByteMatrix_a74fec4736961bf7a7fc542e6db4ba471.html#a74fec4736961bf7a7fc542e6db4ba471" target="_top" xlink:title="org.msrg.raccoon.matrix.finitefields.\lFFByteMatrix.FFByteMatrix">
<polygon fill="none" stroke="black" points="728,-171.5 728,-201.5 901,-201.5 901,-171.5 728,-171.5"/>
<text text-anchor="start" x="736" y="-189.5" font-family="Helvetica,sans-Serif" font-size="10.00">org.msrg.raccoon.matrix.finitefields.</text>
<text text-anchor="middle" x="814.5" y="-178.5" font-family="Helvetica,sans-Serif" font-size="10.00">FFByteMatrix.FFByteMatrix</text>
</a>
</g>
</g>
<!-- Node2&#45;&gt;Node3 -->
<g id="edge3" class="edge"><title>Node2&#45;&gt;Node3</title>
<path fill="none" stroke="midnightblue" d="M692.208,-172.992C700.755,-173.944 709.418,-174.909 717.977,-175.862"/>
<polygon fill="midnightblue" stroke="midnightblue" points="717.637,-179.345 727.963,-176.974 718.412,-172.388 717.637,-179.345"/>
</g>
<!-- Node5 -->
<g id="node6" class="node"><title>Node5</title>
<g id="a_node6"><a xlink:href="../../de/d17/classorg_1_1msrg_1_1raccoon_1_1matrix_1_1finitefields_1_1FFByteMatrix_a0168a50b2630c4e56b191a23671e77eb.html#a0168a50b2630c4e56b191a23671e77eb" target="_top" xlink:title="org.msrg.raccoon.matrix.finitefields.\lFFByteMatrix.random">
<polygon fill="none" stroke="black" points="728,-122.5 728,-152.5 901,-152.5 901,-122.5 728,-122.5"/>
<text text-anchor="start" x="736" y="-140.5" font-family="Helvetica,sans-Serif" font-size="10.00">org.msrg.raccoon.matrix.finitefields.</text>
<text text-anchor="middle" x="814.5" y="-129.5" font-family="Helvetica,sans-Serif" font-size="10.00">FFByteMatrix.random</text>
</a>
</g>
</g>
<!-- Node2&#45;&gt;Node5 -->
<g id="edge5" class="edge"><title>Node2&#45;&gt;Node5</title>
<path fill="none" stroke="midnightblue" d="M692.208,-151.571C700.755,-150.579 709.418,-149.574 717.977,-148.582"/>
<polygon fill="midnightblue" stroke="midnightblue" points="718.433,-152.052 727.963,-147.423 717.626,-145.099 718.433,-152.052"/>
</g>
<!-- Node4 -->
<g id="node5" class="node"><title>Node4</title>
<g id="a_node5"><a xlink:href="../../de/d17/classorg_1_1msrg_1_1raccoon_1_1matrix_1_1finitefields_1_1FFByteMatrix_acc3fe051b40979d0a2da7a61cc4489d1.html#acc3fe051b40979d0a2da7a61cc4489d1" target="_top" xlink:title="org.msrg.raccoon.matrix.finitefields.\lFFByteMatrix.makeZero2d">
<polygon fill="none" stroke="black" points="937,-171.5 937,-201.5 1110,-201.5 1110,-171.5 937,-171.5"/>
<text text-anchor="start" x="945" y="-189.5" font-family="Helvetica,sans-Serif" font-size="10.00">org.msrg.raccoon.matrix.finitefields.</text>
<text text-anchor="middle" x="1023.5" y="-178.5" font-family="Helvetica,sans-Serif" font-size="10.00">FFByteMatrix.makeZero2d</text>
</a>
</g>
</g>
<!-- Node3&#45;&gt;Node4 -->
<g id="edge4" class="edge"><title>Node3&#45;&gt;Node4</title>
<path fill="none" stroke="midnightblue" d="M901.189,-186.5C909.663,-186.5 918.301,-186.5 926.867,-186.5"/>
<polygon fill="midnightblue" stroke="midnightblue" points="926.875,-190 936.875,-186.5 926.875,-183 926.875,-190"/>
</g>
<!-- Node9 -->
<g id="node10" class="node"><title>Node9</title>
<g id="a_node10"><a xlink:href="../../db/d3f/classorg_1_1msrg_1_1raccoon_1_1matrix_1_1TypedMatrix_acd4cb24423a09596877fe45fab025fb2.html#acd4cb24423a09596877fe45fab025fb2" target="_top" xlink:title="org.msrg.raccoon.matrix.\lTypedMatrix.multiply">
<polygon fill="none" stroke="black" points="534.5,-0.5 534.5,-30.5 659.5,-30.5 659.5,-0.5 534.5,-0.5"/>
<text text-anchor="start" x="542.5" y="-18.5" font-family="Helvetica,sans-Serif" font-size="10.00">org.msrg.raccoon.matrix.</text>
<text text-anchor="middle" x="597" y="-7.5" font-family="Helvetica,sans-Serif" font-size="10.00">TypedMatrix.multiply</text>
</a>
</g>
</g>
<!-- Node8&#45;&gt;Node9 -->
<g id="edge9" class="edge"><title>Node8&#45;&gt;Node9</title>
<path fill="none" stroke="midnightblue" d="M418.177,-15.5C450.458,-15.5 490.166,-15.5 523.865,-15.5"/>
<polygon fill="midnightblue" stroke="midnightblue" points="524.116,-19.0001 534.116,-15.5 524.116,-12.0001 524.116,-19.0001"/>
</g>
</g>
</svg>
