<?xml version="1.0" encoding="UTF-8" standalone="no"?>
<!DOCTYPE svg PUBLIC "-//W3C//DTD SVG 1.1//EN"
 "http://www.w3.org/Graphics/SVG/1.1/DTD/svg11.dtd">
<!-- Generated by graphviz version 2.38.0 (20140413.2041)
 -->
<!-- Title: org.msrg.raccoon.engine.CodingEngineEvent_SequentialCodingTaskFinished Pages: 1 -->
<svg width="170pt" height="342pt"
 viewBox="0.00 0.00 170.00 342.00" xmlns="http://www.w3.org/2000/svg" xmlns:xlink="http://www.w3.org/1999/xlink">
<g id="graph0" class="graph" transform="scale(1 1) rotate(0) translate(4 338)">
<title>org.msrg.raccoon.engine.CodingEngineEvent_SequentialCodingTaskFinished</title>
<!-- Node1 -->
<g id="node1" class="node"><title>Node1</title>
<polygon fill="#bfbfbf" stroke="black" points="0,-0.5 0,-90.5 162,-90.5 162,-0.5 0,-0.5"/>
<text text-anchor="start" x="8" y="-78.5" font-family="Helvetica,sans-Serif" font-size="10.00">org.msrg.raccoon.engine.</text>
<text text-anchor="start" x="8" y="-67.5" font-family="Helvetica,sans-Serif" font-size="10.00">CodingEngineEvent_Sequential</text>
<text text-anchor="middle" x="81" y="-56.5" font-family="Helvetica,sans-Serif" font-size="10.00">CodingTaskFinished</text>
<polyline fill="none" stroke="black" points="0,-49.5 162,-49.5 "/>
<text text-anchor="middle" x="81" y="-37.5" font-family="Helvetica,sans-Serif" font-size="10.00"> </text>
<polyline fill="none" stroke="black" points="0,-30.5 162,-30.5 "/>
<text text-anchor="start" x="8" y="-18.5" font-family="Helvetica,sans-Serif" font-size="10.00"># CodingEngineEvent_Sequential</text>
<text text-anchor="start" x="8" y="-7.5" font-family="Helvetica,sans-Serif" font-size="10.00">CodingTaskFinished()</text>
</g>
<!-- Node2 -->
<g id="node2" class="node"><title>Node2</title>
<g id="a_node2"><a xlink:href="../../d8/d0c/classorg_1_1msrg_1_1raccoon_1_1engine_1_1CodingEngineEvent__SequentialCodingTaskEvents.html" target="_top" xlink:title="{org.msrg.raccoon.engine.\lCodingEngineEvent_Sequential\lCodingTaskEvents\n|+ _seqCodingTask\l|# CodingEngineEvent_Sequential\lCodingTaskEvents()\l}">
<polygon fill="none" stroke="black" points="0,-127.5 0,-217.5 162,-217.5 162,-127.5 0,-127.5"/>
<text text-anchor="start" x="8" y="-205.5" font-family="Helvetica,sans-Serif" font-size="10.00">org.msrg.raccoon.engine.</text>
<text text-anchor="start" x="8" y="-194.5" font-family="Helvetica,sans-Serif" font-size="10.00">CodingEngineEvent_Sequential</text>
<text text-anchor="middle" x="81" y="-183.5" font-family="Helvetica,sans-Serif" font-size="10.00">CodingTaskEvents</text>
<polyline fill="none" stroke="black" points="0,-176.5 162,-176.5 "/>
<text text-anchor="start" x="8" y="-164.5" font-family="Helvetica,sans-Serif" font-size="10.00">+ _seqCodingTask</text>
<polyline fill="none" stroke="black" points="0,-157.5 162,-157.5 "/>
<text text-anchor="start" x="8" y="-145.5" font-family="Helvetica,sans-Serif" font-size="10.00"># CodingEngineEvent_Sequential</text>
<text text-anchor="start" x="8" y="-134.5" font-family="Helvetica,sans-Serif" font-size="10.00">CodingTaskEvents()</text>
</a>
</g>
</g>
<!-- Node2&#45;&gt;Node1 -->
<g id="edge1" class="edge"><title>Node2&#45;&gt;Node1</title>
<path fill="none" stroke="midnightblue" d="M81,-117.157C81,-108.282 81,-99.1831 81,-90.5937"/>
<polygon fill="none" stroke="midnightblue" points="77.5001,-117.43 81,-127.43 84.5001,-117.43 77.5001,-117.43"/>
</g>
<!-- Node3 -->
<g id="node3" class="node"><title>Node3</title>
<g id="a_node3"><a xlink:href="../../d3/db5/classorg_1_1msrg_1_1raccoon_1_1engine_1_1CodingEngineEvent.html" target="_top" xlink:title="{org.msrg.raccoon.engine.\lCodingEngineEvent\n|+ _eventType\l|+ toString()\l# CodingEngineEvent()\l}">
<polygon fill="none" stroke="black" points="17.5,-254.5 17.5,-333.5 144.5,-333.5 144.5,-254.5 17.5,-254.5"/>
<text text-anchor="start" x="25.5" y="-321.5" font-family="Helvetica,sans-Serif" font-size="10.00">org.msrg.raccoon.engine.</text>
<text text-anchor="middle" x="81" y="-310.5" font-family="Helvetica,sans-Serif" font-size="10.00">CodingEngineEvent</text>
<polyline fill="none" stroke="black" points="17.5,-303.5 144.5,-303.5 "/>
<text text-anchor="start" x="25.5" y="-291.5" font-family="Helvetica,sans-Serif" font-size="10.00">+ _eventType</text>
<polyline fill="none" stroke="black" points="17.5,-284.5 144.5,-284.5 "/>
<text text-anchor="start" x="25.5" y="-272.5" font-family="Helvetica,sans-Serif" font-size="10.00">+ toString()</text>
<text text-anchor="start" x="25.5" y="-261.5" font-family="Helvetica,sans-Serif" font-size="10.00"># CodingEngineEvent()</text>
</a>
</g>
</g>
<!-- Node3&#45;&gt;Node2 -->
<g id="edge2" class="edge"><title>Node3&#45;&gt;Node2</title>
<path fill="none" stroke="midnightblue" d="M81,-244.187C81,-235.491 81,-226.476 81,-217.911"/>
<polygon fill="none" stroke="midnightblue" points="77.5001,-244.202 81,-254.202 84.5001,-244.202 77.5001,-244.202"/>
</g>
</g>
</svg>
