<?xml version="1.0" encoding="UTF-8" standalone="no"?>
<!DOCTYPE svg PUBLIC "-//W3C//DTD SVG 1.1//EN"
 "http://www.w3.org/Graphics/SVG/1.1/DTD/svg11.dtd">
<!-- Generated by graphviz version 2.38.0 (20140413.2041)
 -->
<!-- Title: org.msrg.raccoon.engine.task.sequential.Decoding_SequentialCodingTask.runStagePrivately Pages: 1 -->
<!--zoomable 703 -->
<svg id="main" version="1.1" xmlns="http://www.w3.org/2000/svg" xmlns:xlink="http://www.w3.org/1999/xlink" xml:space="preserve" onload="init(evt)">
<style type="text/css"><![CDATA[
.edge:hover path { stroke: red; }
.edge:hover polygon { stroke: red; fill: red; }
]]></style>
<script type="text/javascript"><![CDATA[
var edges = document.getElementsByTagName('g');
if (edges && edges.length) {
  for (var i=0;i<edges.length;i++) {
    if (edges[i].id.substr(0,4)=='edge') {
      edges[i].setAttribute('class','edge');
    }
  }
}
]]></script>
        <defs>
                <circle id="rim" cx="0" cy="0" r="7"/>
                <circle id="rim2" cx="0" cy="0" r="3.5"/>
                <g id="zoomPlus">
                        <use xlink:href="#rim" fill="#404040">
                                <set attributeName="fill" to="#808080" begin="zoomplus.mouseover" end="zoomplus.mouseout"/>
                        </use>
                        <path d="M-4,0h8M0,-4v8" fill="none" stroke="white" stroke-width="1.5" pointer-events="none"/>
                </g>
                <g id="zoomMin">
                        <use xlink:href="#rim" fill="#404040">
                                <set attributeName="fill" to="#808080" begin="zoomminus.mouseover" end="zoomminus.mouseout"/>
                        </use>
                        <path d="M-4,0h8" fill="none" stroke="white" stroke-width="1.5" pointer-events="none"/>
                </g>
                <g id="dirArrow">
                        <path fill="none" stroke="white" stroke-width="1.5" d="M0,-3.0v7 M-2.5,-0.5L0,-3.0L2.5,-0.5"/>
                </g>
               <g id="resetDef">
                       <use xlink:href="#rim2" fill="#404040">
                               <set attributeName="fill" to="#808080" begin="reset.mouseover" end="reset.mouseout"/>
                       </use>
               </g>
        </defs>

<script type="text/javascript">
var viewWidth = 1104;
var viewHeight = 703;
var sectionId = 'dynsection-0';
</script>
<script xlink:href="../../svgpan.js"/>
<svg id="graph" class="graph">
<g id="viewport">
<title>org.msrg.raccoon.engine.task.sequential.Decoding_SequentialCodingTask.runStagePrivately</title>
<!-- Node0 -->
<g id="node1" class="node"><title>Node0</title>
<polygon fill="#bfbfbf" stroke="black" points="0,-289.5 0,-319.5 242,-319.5 242,-289.5 0,-289.5"/>
<text text-anchor="start" x="8" y="-307.5" font-family="Helvetica,sans-Serif" font-size="10.00">org.msrg.raccoon.engine.task.sequential.</text>
<text text-anchor="middle" x="121" y="-296.5" font-family="Helvetica,sans-Serif" font-size="10.00">Decoding_SequentialCodingTask.runStagePrivately</text>
</g>
<!-- Node1 -->
<g id="node2" class="node"><title>Node1</title>
<g id="a_node2"><a xlink:href="../../da/df0/classorg_1_1msrg_1_1raccoon_1_1ReceivedCodedBatch_a0eb883fc8fa5805904afcc3d6297b85a.html#a0eb883fc8fa5805904afcc3d6297b85a" target="_top" xlink:title="org.msrg.raccoon.Received\lCodedBatch.canSolve">
<polygon fill="none" stroke="black" points="307.5,-602.5 307.5,-632.5 444.5,-632.5 444.5,-602.5 307.5,-602.5"/>
<text text-anchor="start" x="315.5" y="-620.5" font-family="Helvetica,sans-Serif" font-size="10.00">org.msrg.raccoon.Received</text>
<text text-anchor="middle" x="376" y="-609.5" font-family="Helvetica,sans-Serif" font-size="10.00">CodedBatch.canSolve</text>
</a>
</g>
</g>
<!-- Node0&#45;&gt;Node1 -->
<g id="edge1" class="edge"><title>Node0&#45;&gt;Node1</title>
<path fill="none" stroke="midnightblue" d="M125.647,-319.835C137.944,-368.071 182.562,-517.923 278,-592.5 283.935,-597.138 290.639,-600.922 297.68,-604.008"/>
<polygon fill="midnightblue" stroke="midnightblue" points="296.864,-607.446 307.452,-607.8 299.395,-600.92 296.864,-607.446"/>
</g>
<!-- Node9 -->
<g id="node10" class="node"><title>Node9</title>
<g id="a_node10"><a xlink:href="../../d6/d58/interfaceorg_1_1msrg_1_1raccoon_1_1engine_1_1ICodingListener_a071ae36537b2ea23ba1f9983d9ca2258.html#a071ae36537b2ea23ba1f9983d9ca2258" target="_top" xlink:title="org.msrg.raccoon.engine.\lICodingListener.codingPreliminary\lStageCompleted">
<polygon fill="none" stroke="black" points="293.5,-542 293.5,-583 458.5,-583 458.5,-542 293.5,-542"/>
<text text-anchor="start" x="301.5" y="-571" font-family="Helvetica,sans-Serif" font-size="10.00">org.msrg.raccoon.engine.</text>
<text text-anchor="start" x="301.5" y="-560" font-family="Helvetica,sans-Serif" font-size="10.00">ICodingListener.codingPreliminary</text>
<text text-anchor="middle" x="376" y="-549" font-family="Helvetica,sans-Serif" font-size="10.00">StageCompleted</text>
</a>
</g>
</g>
<!-- Node0&#45;&gt;Node9 -->
<g id="edge11" class="edge"><title>Node0&#45;&gt;Node9</title>
<path fill="none" stroke="midnightblue" d="M128.051,-319.59C145.159,-360.328 197.899,-473.439 278,-532.5 280.11,-534.056 282.303,-535.533 284.561,-536.934"/>
<polygon fill="midnightblue" stroke="midnightblue" points="283.126,-540.141 293.561,-541.971 286.545,-534.033 283.126,-540.141"/>
</g>
<!-- Node10 -->
<g id="node11" class="node"><title>Node10</title>
<g id="a_node11"><a xlink:href="../../dd/da2/classorg_1_1msrg_1_1raccoon_1_1CodedBatch_ab414d020a52f6be774b5752596dd6660.html#ab414d020a52f6be774b5752596dd6660" target="_top" xlink:title="org.msrg.raccoon.CodedBatch.create\lNewBulkMatrix">
<polygon fill="none" stroke="black" points="286.5,-492.5 286.5,-522.5 465.5,-522.5 465.5,-492.5 286.5,-492.5"/>
<text text-anchor="start" x="294.5" y="-510.5" font-family="Helvetica,sans-Serif" font-size="10.00">org.msrg.raccoon.CodedBatch.create</text>
<text text-anchor="middle" x="376" y="-499.5" font-family="Helvetica,sans-Serif" font-size="10.00">NewBulkMatrix</text>
</a>
</g>
</g>
<!-- Node0&#45;&gt;Node10 -->
<g id="edge12" class="edge"><title>Node0&#45;&gt;Node10</title>
<path fill="none" stroke="midnightblue" d="M130.716,-319.757C151.446,-354.596 207.287,-440.316 278,-483.5 280.813,-485.218 283.743,-486.813 286.757,-488.294"/>
<polygon fill="midnightblue" stroke="midnightblue" points="285.457,-491.546 296.017,-492.404 288.296,-485.148 285.457,-491.546"/>
</g>
<!-- Node11 -->
<g id="node12" class="node"><title>Node11</title>
<g id="a_node12"><a xlink:href="../../d6/d78/classorg_1_1msrg_1_1raccoon_1_1engine_1_1task_1_1sequential_1_1SequentialCodingTask_aa6775297516c20f0f7a5d691376b4937.html#aa6775297516c20f0f7a5d691376b4937" target="_top" xlink:title="org.msrg.raccoon.engine.task.sequential.\lSequentialCodingTask.failed">
<polygon fill="none" stroke="black" points="278,-443.5 278,-473.5 474,-473.5 474,-443.5 278,-443.5"/>
<text text-anchor="start" x="286" y="-461.5" font-family="Helvetica,sans-Serif" font-size="10.00">org.msrg.raccoon.engine.task.sequential.</text>
<text text-anchor="middle" x="376" y="-450.5" font-family="Helvetica,sans-Serif" font-size="10.00">SequentialCodingTask.failed</text>
</a>
</g>
</g>
<!-- Node0&#45;&gt;Node11 -->
<g id="edge13" class="edge"><title>Node0&#45;&gt;Node11</title>
<path fill="none" stroke="midnightblue" d="M135.899,-319.753C161.397,-346.8 218.516,-403.165 278,-433.5 282.626,-435.859 287.492,-438.008 292.48,-439.964"/>
<polygon fill="midnightblue" stroke="midnightblue" points="291.597,-443.366 302.191,-443.491 293.986,-436.787 291.597,-443.366"/>
</g>
<!-- Node12 -->
<g id="node13" class="node"><title>Node12</title>
<g id="a_node13"><a xlink:href="../../da/df0/classorg_1_1msrg_1_1raccoon_1_1ReceivedCodedBatch_a1a870aab58f761d5e09a61bbbad770a2.html#a1a870aab58f761d5e09a61bbbad770a2" target="_top" xlink:title="org.msrg.raccoon.Received\lCodedBatch.getInverseCoefficients\lForSolvingCodedSlices">
<polygon fill="none" stroke="black" points="290,-383 290,-424 462,-424 462,-383 290,-383"/>
<text text-anchor="start" x="298" y="-412" font-family="Helvetica,sans-Serif" font-size="10.00">org.msrg.raccoon.Received</text>
<text text-anchor="start" x="298" y="-401" font-family="Helvetica,sans-Serif" font-size="10.00">CodedBatch.getInverseCoefficients</text>
<text text-anchor="middle" x="376" y="-390" font-family="Helvetica,sans-Serif" font-size="10.00">ForSolvingCodedSlices</text>
</a>
</g>
</g>
<!-- Node0&#45;&gt;Node12 -->
<g id="edge14" class="edge"><title>Node0&#45;&gt;Node12</title>
<path fill="none" stroke="midnightblue" d="M153.225,-319.602C184.404,-334.373 233.902,-356.992 278,-373.5 283.552,-375.578 289.32,-377.629 295.15,-379.622"/>
<polygon fill="midnightblue" stroke="midnightblue" points="294.402,-383.062 304.995,-382.918 296.624,-376.424 294.402,-383.062"/>
</g>
<!-- Node13 -->
<g id="node14" class="node"><title>Node13</title>
<g id="a_node14"><a xlink:href="../../d6/db6/classorg_1_1msrg_1_1raccoon_1_1engine_1_1task_1_1result_1_1BulkMatrix__CodingResult_ad453ea60e42b1efc3dbeac57f77f09c2.html#ad453ea60e42b1efc3dbeac57f77f09c2" target="_top" xlink:title="org.msrg.raccoon.engine.task.result.\lBulkMatrix_CodingResult.getResult">
<polygon fill="none" stroke="black" points="288,-333.5 288,-363.5 464,-363.5 464,-333.5 288,-333.5"/>
<text text-anchor="start" x="296" y="-351.5" font-family="Helvetica,sans-Serif" font-size="10.00">org.msrg.raccoon.engine.task.result.</text>
<text text-anchor="middle" x="376" y="-340.5" font-family="Helvetica,sans-Serif" font-size="10.00">BulkMatrix_CodingResult.getResult</text>
</a>
</g>
</g>
<!-- Node0&#45;&gt;Node13 -->
<g id="edge15" class="edge"><title>Node0&#45;&gt;Node13</title>
<path fill="none" stroke="midnightblue" d="M208.361,-319.519C230.931,-323.444 255.402,-327.7 278.464,-331.711"/>
<polygon fill="midnightblue" stroke="midnightblue" points="278.147,-335.209 288.599,-333.474 279.347,-328.312 278.147,-335.209"/>
</g>
<!-- Node14 -->
<g id="node15" class="node"><title>Node14</title>
<g id="a_node15"><a xlink:href="../../df/d3e/classorg_1_1msrg_1_1raccoon_1_1engine_1_1task_1_1result_1_1CodingResult_a3d4ac3e6ad6ad1a0bbbbc8f345092652.html#a3d4ac3e6ad6ad1a0bbbbc8f345092652" target="_top" xlink:title="org.msrg.raccoon.engine.task.result.\lCodingResult.isFinished">
<polygon fill="none" stroke="black" points="510,-311.5 510,-341.5 686,-341.5 686,-311.5 510,-311.5"/>
<text text-anchor="start" x="518" y="-329.5" font-family="Helvetica,sans-Serif" font-size="10.00">org.msrg.raccoon.engine.task.result.</text>
<text text-anchor="middle" x="598" y="-318.5" font-family="Helvetica,sans-Serif" font-size="10.00">CodingResult.isFinished</text>
</a>
</g>
</g>
<!-- Node0&#45;&gt;Node14 -->
<g id="edge19" class="edge"><title>Node0&#45;&gt;Node14</title>
<path fill="none" stroke="midnightblue" d="M242.169,-310.066C321.837,-313.756 425.028,-318.535 499.572,-321.988"/>
<polygon fill="midnightblue" stroke="midnightblue" points="499.744,-325.499 509.895,-322.466 500.068,-318.507 499.744,-325.499"/>
</g>
<!-- Node15 -->
<g id="node16" class="node"><title>Node15</title>
<g id="a_node16"><a xlink:href="../../df/d3e/classorg_1_1msrg_1_1raccoon_1_1engine_1_1task_1_1result_1_1CodingResult_af346f009892c564aa7b2a6751914b154.html#af346f009892c564aa7b2a6751914b154" target="_top" xlink:title="org.msrg.raccoon.engine.task.result.\lCodingResult.isFailed">
<polygon fill="none" stroke="black" points="288,-245.5 288,-275.5 464,-275.5 464,-245.5 288,-245.5"/>
<text text-anchor="start" x="296" y="-263.5" font-family="Helvetica,sans-Serif" font-size="10.00">org.msrg.raccoon.engine.task.result.</text>
<text text-anchor="middle" x="376" y="-252.5" font-family="Helvetica,sans-Serif" font-size="10.00">CodingResult.isFailed</text>
</a>
</g>
</g>
<!-- Node0&#45;&gt;Node15 -->
<g id="edge17" class="edge"><title>Node0&#45;&gt;Node15</title>
<path fill="none" stroke="midnightblue" d="M208.361,-289.481C230.931,-285.556 255.402,-281.3 278.464,-277.289"/>
<polygon fill="midnightblue" stroke="midnightblue" points="279.347,-280.688 288.599,-275.526 278.147,-273.791 279.347,-280.688"/>
</g>
<!-- Node16 -->
<g id="node17" class="node"><title>Node16</title>
<g id="a_node17"><a xlink:href="../../d9/d22/classorg_1_1msrg_1_1raccoon_1_1engine_1_1task_1_1CodingTask_a0104d5d4c38b3b0d8cb60436798287c1.html#a0104d5d4c38b3b0d8cb60436798287c1" target="_top" xlink:title="org.msrg.raccoon.engine.task.\lCodingTask.isFinished">
<polygon fill="none" stroke="black" points="301.5,-196.5 301.5,-226.5 450.5,-226.5 450.5,-196.5 301.5,-196.5"/>
<text text-anchor="start" x="309.5" y="-214.5" font-family="Helvetica,sans-Serif" font-size="10.00">org.msrg.raccoon.engine.task.</text>
<text text-anchor="middle" x="376" y="-203.5" font-family="Helvetica,sans-Serif" font-size="10.00">CodingTask.isFinished</text>
</a>
</g>
</g>
<!-- Node0&#45;&gt;Node16 -->
<g id="edge18" class="edge"><title>Node0&#45;&gt;Node16</title>
<path fill="none" stroke="midnightblue" d="M152.504,-289.478C183.541,-274.606 233.305,-251.892 278,-236.5 285.341,-233.972 293.073,-231.565 300.834,-229.314"/>
<polygon fill="midnightblue" stroke="midnightblue" points="301.978,-232.628 310.655,-226.549 300.081,-225.89 301.978,-232.628"/>
</g>
<!-- Node17 -->
<g id="node18" class="node"><title>Node17</title>
<g id="a_node18"><a xlink:href="../../da/df0/classorg_1_1msrg_1_1raccoon_1_1ReceivedCodedBatch_a7316fa460477ba3d98da31f9a7dd1326.html#a7316fa460477ba3d98da31f9a7dd1326" target="_top" xlink:title="org.msrg.raccoon.Received\lCodedBatch.isSolved">
<polygon fill="none" stroke="black" points="307.5,-147.5 307.5,-177.5 444.5,-177.5 444.5,-147.5 307.5,-147.5"/>
<text text-anchor="start" x="315.5" y="-165.5" font-family="Helvetica,sans-Serif" font-size="10.00">org.msrg.raccoon.Received</text>
<text text-anchor="middle" x="376" y="-154.5" font-family="Helvetica,sans-Serif" font-size="10.00">CodedBatch.isSolved</text>
</a>
</g>
</g>
<!-- Node0&#45;&gt;Node17 -->
<g id="edge20" class="edge"><title>Node0&#45;&gt;Node17</title>
<path fill="none" stroke="midnightblue" d="M137.882,-289.157C164.609,-264.176 221.242,-214.769 278,-187.5 284.161,-184.54 290.717,-181.9 297.401,-179.55"/>
<polygon fill="midnightblue" stroke="midnightblue" points="298.846,-182.76 307.255,-176.314 296.662,-176.109 298.846,-182.76"/>
</g>
<!-- Node18 -->
<g id="node19" class="node"><title>Node18</title>
<g id="a_node19"><a xlink:href="../../dd/dff/interfaceorg_1_1msrg_1_1raccoon_1_1engine_1_1ICodingEngine_a0b4cebd680a0fa0a6d0fb420fec4bd52.html#a0b4cebd680a0fa0a6d0fb420fec4bd52" target="_top" xlink:title="org.msrg.raccoon.engine.\lICodingEngine.multiply">
<polygon fill="none" stroke="black" points="312.5,-98.5 312.5,-128.5 439.5,-128.5 439.5,-98.5 312.5,-98.5"/>
<text text-anchor="start" x="320.5" y="-116.5" font-family="Helvetica,sans-Serif" font-size="10.00">org.msrg.raccoon.engine.</text>
<text text-anchor="middle" x="376" y="-105.5" font-family="Helvetica,sans-Serif" font-size="10.00">ICodingEngine.multiply</text>
</a>
</g>
</g>
<!-- Node0&#45;&gt;Node18 -->
<g id="edge21" class="edge"><title>Node0&#45;&gt;Node18</title>
<path fill="none" stroke="midnightblue" d="M131.684,-289.437C153.574,-256.656 210.27,-178.581 278,-138.5 285.612,-133.996 294.028,-130.294 302.628,-127.255"/>
<polygon fill="midnightblue" stroke="midnightblue" points="303.947,-130.506 312.383,-124.096 301.791,-123.847 303.947,-130.506"/>
</g>
<!-- Node19 -->
<g id="node20" class="node"><title>Node19</title>
<g id="a_node20"><a xlink:href="../../da/df0/classorg_1_1msrg_1_1raccoon_1_1ReceivedCodedBatch_a9519556a93ab05e15a4ace66ce538a47.html#a9519556a93ab05e15a4ace66ce538a47" target="_top" xlink:title="org.msrg.raccoon.Received\lCodedBatch.setContent">
<polygon fill="none" stroke="black" points="307.5,-49.5 307.5,-79.5 444.5,-79.5 444.5,-49.5 307.5,-49.5"/>
<text text-anchor="start" x="315.5" y="-67.5" font-family="Helvetica,sans-Serif" font-size="10.00">org.msrg.raccoon.Received</text>
<text text-anchor="middle" x="376" y="-56.5" font-family="Helvetica,sans-Serif" font-size="10.00">CodedBatch.setContent</text>
</a>
</g>
</g>
<!-- Node0&#45;&gt;Node19 -->
<g id="edge22" class="edge"><title>Node0&#45;&gt;Node19</title>
<path fill="none" stroke="midnightblue" d="M128.541,-289.217C146.31,-249.6 199.468,-142.959 278,-89.5 284.078,-85.3623 290.795,-81.9095 297.773,-79.0281"/>
<polygon fill="midnightblue" stroke="midnightblue" points="299.262,-82.2085 307.415,-75.4425 296.822,-75.6474 299.262,-82.2085"/>
</g>
<!-- Node20 -->
<g id="node21" class="node"><title>Node20</title>
<g id="a_node21"><a xlink:href="../../d6/d78/classorg_1_1msrg_1_1raccoon_1_1engine_1_1task_1_1sequential_1_1SequentialCodingTask_a9fee0e39302d3e057700653cea01cfe4.html#a9fee0e39302d3e057700653cea01cfe4" target="_top" xlink:title="org.msrg.raccoon.engine.task.sequential.\lSequentialCodingTask.setCurrentStage">
<polygon fill="none" stroke="black" points="278,-0.5 278,-30.5 474,-30.5 474,-0.5 278,-0.5"/>
<text text-anchor="start" x="286" y="-18.5" font-family="Helvetica,sans-Serif" font-size="10.00">org.msrg.raccoon.engine.task.sequential.</text>
<text text-anchor="middle" x="376" y="-7.5" font-family="Helvetica,sans-Serif" font-size="10.00">SequentialCodingTask.setCurrentStage</text>
</a>
</g>
</g>
<!-- Node0&#45;&gt;Node20 -->
<g id="edge23" class="edge"><title>Node0&#45;&gt;Node20</title>
<path fill="none" stroke="midnightblue" d="M126.344,-289.476C140.232,-244.219 188.001,-108.163 278,-40.5 280.491,-38.6271 283.109,-36.8938 285.823,-35.29"/>
<polygon fill="midnightblue" stroke="midnightblue" points="287.551,-38.3361 294.785,-30.595 284.302,-32.1356 287.551,-38.3361"/>
</g>
<!-- Node2 -->
<g id="node3" class="node"><title>Node2</title>
<g id="a_node3"><a xlink:href="../../da/df0/classorg_1_1msrg_1_1raccoon_1_1ReceivedCodedBatch_abe5a8dd787d94591fcbdc4aa01e639df.html#abe5a8dd787d94591fcbdc4aa01e639df" target="_top" xlink:title="org.msrg.raccoon.Received\lCodedBatch.canSolveHighPriority">
<polygon fill="none" stroke="black" points="515.5,-566.5 515.5,-596.5 680.5,-596.5 680.5,-566.5 515.5,-566.5"/>
<text text-anchor="start" x="523.5" y="-584.5" font-family="Helvetica,sans-Serif" font-size="10.00">org.msrg.raccoon.Received</text>
<text text-anchor="middle" x="598" y="-573.5" font-family="Helvetica,sans-Serif" font-size="10.00">CodedBatch.canSolveHighPriority</text>
</a>
</g>
</g>
<!-- Node1&#45;&gt;Node2 -->
<g id="edge2" class="edge"><title>Node1&#45;&gt;Node2</title>
<path fill="none" stroke="midnightblue" d="M444.502,-606.454C463.715,-603.31 484.972,-599.832 505.362,-596.495"/>
<polygon fill="midnightblue" stroke="midnightblue" points="505.986,-599.94 515.29,-594.871 504.856,-593.032 505.986,-599.94"/>
</g>
<!-- Node5 -->
<g id="node6" class="node"><title>Node5</title>
<g id="a_node6"><a xlink:href="../../da/df0/classorg_1_1msrg_1_1raccoon_1_1ReceivedCodedBatch_a837b249e1478223f84c24acbbaf33451.html#a837b249e1478223f84c24acbbaf33451" target="_top" xlink:title="org.msrg.raccoon.Received\lCodedBatch.getRequiredCodedPieceCount">
<polygon fill="none" stroke="black" points="722,-664.5 722,-694.5 928,-694.5 928,-664.5 722,-664.5"/>
<text text-anchor="start" x="730" y="-682.5" font-family="Helvetica,sans-Serif" font-size="10.00">org.msrg.raccoon.Received</text>
<text text-anchor="middle" x="825" y="-671.5" font-family="Helvetica,sans-Serif" font-size="10.00">CodedBatch.getRequiredCodedPieceCount</text>
</a>
</g>
</g>
<!-- Node1&#45;&gt;Node5 -->
<g id="edge10" class="edge"><title>Node1&#45;&gt;Node5</title>
<path fill="none" stroke="midnightblue" d="M444.89,-626.916C515.649,-636.731 627.72,-652.276 711.692,-663.923"/>
<polygon fill="midnightblue" stroke="midnightblue" points="711.402,-667.416 721.789,-665.323 712.364,-660.482 711.402,-667.416"/>
</g>
<!-- Node3 -->
<g id="node4" class="node"><title>Node3</title>
<g id="a_node4"><a xlink:href="../../db/d3f/classorg_1_1msrg_1_1raccoon_1_1matrix_1_1TypedMatrix_ae1d2f2c49745535f8586ada075ba449e.html#ae1d2f2c49745535f8586ada075ba449e" target="_top" xlink:title="org.msrg.raccoon.matrix.\lTypedMatrix.getInverseRowZero">
<polygon fill="none" stroke="black" points="745.5,-615.5 745.5,-645.5 904.5,-645.5 904.5,-615.5 745.5,-615.5"/>
<text text-anchor="start" x="753.5" y="-633.5" font-family="Helvetica,sans-Serif" font-size="10.00">org.msrg.raccoon.matrix.</text>
<text text-anchor="middle" x="825" y="-622.5" font-family="Helvetica,sans-Serif" font-size="10.00">TypedMatrix.getInverseRowZero</text>
</a>
</g>
</g>
<!-- Node2&#45;&gt;Node3 -->
<g id="edge3" class="edge"><title>Node2&#45;&gt;Node3</title>
<path fill="none" stroke="midnightblue" d="M668.037,-596.535C692.441,-601.849 720.071,-607.867 745.222,-613.344"/>
<polygon fill="midnightblue" stroke="midnightblue" points="744.578,-616.786 755.094,-615.494 746.068,-609.946 744.578,-616.786"/>
</g>
<!-- Node4 -->
<g id="node5" class="node"><title>Node4</title>
<g id="a_node5"><a xlink:href="../../da/df0/classorg_1_1msrg_1_1raccoon_1_1ReceivedCodedBatch_ae70ccb56d60221b625265c875e93bcc2.html#ae70ccb56d60221b625265c875e93bcc2" target="_top" xlink:title="org.msrg.raccoon.Received\lCodedBatch.getRandomIndex">
<polygon fill="none" stroke="black" points="751,-566.5 751,-596.5 899,-596.5 899,-566.5 751,-566.5"/>
<text text-anchor="start" x="759" y="-584.5" font-family="Helvetica,sans-Serif" font-size="10.00">org.msrg.raccoon.Received</text>
<text text-anchor="middle" x="825" y="-573.5" font-family="Helvetica,sans-Serif" font-size="10.00">CodedBatch.getRandomIndex</text>
</a>
</g>
</g>
<!-- Node2&#45;&gt;Node4 -->
<g id="edge4" class="edge"><title>Node2&#45;&gt;Node4</title>
<path fill="none" stroke="midnightblue" d="M680.548,-581.5C700.147,-581.5 721.104,-581.5 740.778,-581.5"/>
<polygon fill="midnightblue" stroke="midnightblue" points="740.935,-585 750.935,-581.5 740.935,-578 740.935,-585"/>
</g>
<!-- Node2&#45;&gt;Node5 -->
<g id="edge5" class="edge"><title>Node2&#45;&gt;Node5</title>
<path fill="none" stroke="midnightblue" d="M619.709,-596.728C643.339,-613.425 683.681,-639.912 722,-655.5 727.344,-657.674 732.928,-659.677 738.613,-661.519"/>
<polygon fill="midnightblue" stroke="midnightblue" points="737.662,-664.888 748.248,-664.468 739.71,-658.195 737.662,-664.888"/>
</g>
<!-- Node6 -->
<g id="node7" class="node"><title>Node6</title>
<g id="a_node7"><a xlink:href="../../db/d3f/classorg_1_1msrg_1_1raccoon_1_1matrix_1_1TypedMatrix_a62f3b28a72c0c130fa783e1129694d4e.html#a62f3b28a72c0c130fa783e1129694d4e" target="_top" xlink:title="org.msrg.raccoon.matrix.\lTypedMatrix.inverseMatrix">
<polygon fill="none" stroke="black" points="964,-500.5 964,-530.5 1096,-530.5 1096,-500.5 964,-500.5"/>
<text text-anchor="start" x="972" y="-518.5" font-family="Helvetica,sans-Serif" font-size="10.00">org.msrg.raccoon.matrix.</text>
<text text-anchor="middle" x="1030" y="-507.5" font-family="Helvetica,sans-Serif" font-size="10.00">TypedMatrix.inverseMatrix</text>
</a>
</g>
</g>
<!-- Node2&#45;&gt;Node6 -->
<g id="edge6" class="edge"><title>Node2&#45;&gt;Node6</title>
<path fill="none" stroke="midnightblue" d="M672.373,-566.476C688.68,-563.335 705.902,-560.169 722,-557.5 800.801,-544.433 891.471,-532.394 953.731,-524.587"/>
<polygon fill="midnightblue" stroke="midnightblue" points="954.368,-528.035 963.858,-523.323 953.501,-521.089 954.368,-528.035"/>
</g>
<!-- Node7 -->
<g id="node8" class="node"><title>Node7</title>
<g id="a_node8"><a xlink:href="../../dd/d36/classorg_1_1msrg_1_1raccoon_1_1matrix_1_1finitefields_1_1ByteMatrix_a8d9b66312ac41346f1149bc30061c96a.html#a8d9b66312ac41346f1149bc30061c96a" target="_top" xlink:title="org.msrg.raccoon.matrix.finitefields.\lByteMatrix.isInversable">
<polygon fill="none" stroke="black" points="738.5,-478.5 738.5,-508.5 911.5,-508.5 911.5,-478.5 738.5,-478.5"/>
<text text-anchor="start" x="746.5" y="-496.5" font-family="Helvetica,sans-Serif" font-size="10.00">org.msrg.raccoon.matrix.finitefields.</text>
<text text-anchor="middle" x="825" y="-485.5" font-family="Helvetica,sans-Serif" font-size="10.00">ByteMatrix.isInversable</text>
</a>
</g>
</g>
<!-- Node2&#45;&gt;Node7 -->
<g id="edge7" class="edge"><title>Node2&#45;&gt;Node7</title>
<path fill="none" stroke="midnightblue" d="M627.775,-566.376C652.359,-553.835 688.898,-536.086 722,-523.5 733.255,-519.221 745.397,-515.174 757.244,-511.52"/>
<polygon fill="midnightblue" stroke="midnightblue" points="758.537,-514.786 767.099,-508.546 756.515,-508.084 758.537,-514.786"/>
</g>
<!-- Node8 -->
<g id="node9" class="node"><title>Node8</title>
<g id="a_node9"><a xlink:href="../../da/df0/classorg_1_1msrg_1_1raccoon_1_1ReceivedCodedBatch_ab18664e24c529e824bfaf94bb94640d4.html#ab18664e24c529e824bfaf94bb94640d4" target="_top" xlink:title="org.msrg.raccoon.Received\lCodedBatch.removeBadRow">
<polygon fill="none" stroke="black" points="753.5,-429.5 753.5,-459.5 896.5,-459.5 896.5,-429.5 753.5,-429.5"/>
<text text-anchor="start" x="761.5" y="-447.5" font-family="Helvetica,sans-Serif" font-size="10.00">org.msrg.raccoon.Received</text>
<text text-anchor="middle" x="825" y="-436.5" font-family="Helvetica,sans-Serif" font-size="10.00">CodedBatch.removeBadRow</text>
</a>
</g>
</g>
<!-- Node2&#45;&gt;Node8 -->
<g id="edge9" class="edge"><title>Node2&#45;&gt;Node8</title>
<path fill="none" stroke="midnightblue" d="M611.254,-566.231C631.609,-541.924 674.845,-494.621 722,-469.5 728.845,-465.853 736.232,-462.728 743.791,-460.052"/>
<polygon fill="midnightblue" stroke="midnightblue" points="745.015,-463.334 753.431,-456.897 742.838,-456.682 745.015,-463.334"/>
</g>
<!-- Node7&#45;&gt;Node6 -->
<g id="edge8" class="edge"><title>Node7&#45;&gt;Node6</title>
<path fill="none" stroke="midnightblue" d="M911.502,-502.766C925.49,-504.282 939.894,-505.843 953.615,-507.33"/>
<polygon fill="midnightblue" stroke="midnightblue" points="953.637,-510.853 963.956,-508.451 954.391,-503.894 953.637,-510.853"/>
</g>
<!-- Node13&#45;&gt;Node14 -->
<g id="edge16" class="edge"><title>Node13&#45;&gt;Node14</title>
<path fill="none" stroke="midnightblue" d="M464.266,-339.773C475.864,-338.614 487.815,-337.419 499.572,-336.243"/>
<polygon fill="midnightblue" stroke="midnightblue" points="500.238,-339.694 509.84,-335.216 499.541,-332.729 500.238,-339.694"/>
</g>
</g>
</svg>
        <g id="navigator" transform="translate(0 0)" fill="#404254">
                <rect fill="#f2f5e9" fill-opacity="0.5" stroke="#606060" stroke-width=".5" x="0" y="0" width="60" height="60"/>
                <use id="zoomplus" xlink:href="#zoomPlus" x="17" y="9" onmousedown="handleZoom(evt,'in')"/>
                <use id="zoomminus" xlink:href="#zoomMin" x="42" y="9" onmousedown="handleZoom(evt,'out')"/>
                <use id="reset" xlink:href="#resetDef" x="30" y="36" onmousedown="handleReset()"/>
                <g id="arrowUp" xlink:href="#dirArrow" transform="translate(30 24)" onmousedown="handlePan(0,-1)">
                  <use xlink:href="#rim" fill="#404040">
                        <set attributeName="fill" to="#808080" begin="arrowUp.mouseover" end="arrowUp.mouseout"/>
                  </use>
                  <path fill="none" stroke="white" stroke-width="1.5" d="M0,-3.0v7 M-2.5,-0.5L0,-3.0L2.5,-0.5"/>
                </g>
                <g id="arrowRight" xlink:href="#dirArrow" transform="rotate(90) translate(36 -43)" onmousedown="handlePan(1,0)">
                  <use xlink:href="#rim" fill="#404040">
                        <set attributeName="fill" to="#808080" begin="arrowRight.mouseover" end="arrowRight.mouseout"/>
                  </use>
                  <path fill="none" stroke="white" stroke-width="1.5" d="M0,-3.0v7 M-2.5,-0.5L0,-3.0L2.5,-0.5"/>
                </g>
                <g id="arrowDown" xlink:href="#dirArrow" transform="rotate(180) translate(-30 -48)" onmousedown="handlePan(0,1)">
                  <use xlink:href="#rim" fill="#404040">
                        <set attributeName="fill" to="#808080" begin="arrowDown.mouseover" end="arrowDown.mouseout"/>
                  </use>
                  <path fill="none" stroke="white" stroke-width="1.5" d="M0,-3.0v7 M-2.5,-0.5L0,-3.0L2.5,-0.5"/>
                </g>
                <g id="arrowLeft" xlink:href="#dirArrow" transform="rotate(270) translate(-36 17)" onmousedown="handlePan(-1,0)">
                  <use xlink:href="#rim" fill="#404040">
                        <set attributeName="fill" to="#808080" begin="arrowLeft.mouseover" end="arrowLeft.mouseout"/>
                  </use>
                  <path fill="none" stroke="white" stroke-width="1.5" d="M0,-3.0v7 M-2.5,-0.5L0,-3.0L2.5,-0.5"/>
                </g>
        </g>
        <svg viewBox="0 0 15 15" width="100%" height="30px" preserveAspectRatio="xMaxYMin meet">
         <g id="arrow_out" transform="scale(0.3 0.3)">
          <a xlink:href="classorg_1_1msrg_1_1raccoon_1_1engine_1_1task_1_1sequential_1_1Decoding__SequentialCodingTask_aa875e6c27f9bd356223417ae1689c3b4_aa875e6c27f9bd356223417ae1689c3b4_cgraph_org.svg" target="_base">
           <rect id="button" ry="5" rx="5" y="6" x="6" height="38" width="38"
                fill="#f2f5e9" fill-opacity="0.5" stroke="#606060" stroke-width="1.0"/>
           <path id="arrow"
             d="M 11.500037,31.436501 C 11.940474,20.09759 22.043105,11.32322 32.158766,21.979434 L 37.068811,17.246167 C 37.068811,17.246167 37.088388,32 37.088388,32 L 22.160133,31.978069 C 22.160133,31.978069 26.997745,27.140456 26.997745,27.140456 C 18.528582,18.264221 13.291696,25.230495 11.500037,31.436501 z"
             style="fill:#404040;"/>
          </a>
         </g>
        </svg>
</svg>
