<?xml version="1.0" encoding="UTF-8" standalone="no"?>
<!DOCTYPE svg PUBLIC "-//W3C//DTD SVG 1.1//EN"
 "http://www.w3.org/Graphics/SVG/1.1/DTD/svg11.dtd">
<!-- Generated by graphviz version 2.38.0 (20140413.2041)
 -->
<!-- Title: org.msrg.raccoon.matrix.bulk.BulkMatrix1D.BulkMatrix1D Pages: 1 -->
<svg width="596pt" height="88pt"
 viewBox="0.00 0.00 596.00 88.00" xmlns="http://www.w3.org/2000/svg" xmlns:xlink="http://www.w3.org/1999/xlink">
<g id="graph0" class="graph" transform="scale(1 1) rotate(0) translate(4 84)">
<title>org.msrg.raccoon.matrix.bulk.BulkMatrix1D.BulkMatrix1D</title>
<!-- Node1 -->
<g id="node1" class="node"><title>Node1</title>
<polygon fill="#bfbfbf" stroke="black" points="0,-24.5 0,-54.5 146,-54.5 146,-24.5 0,-24.5"/>
<text text-anchor="start" x="8" y="-42.5" font-family="Helvetica,sans-Serif" font-size="10.00">org.msrg.raccoon.matrix.bulk.</text>
<text text-anchor="middle" x="73" y="-31.5" font-family="Helvetica,sans-Serif" font-size="10.00">BulkMatrix1D.BulkMatrix1D</text>
</g>
<!-- Node2 -->
<g id="node2" class="node"><title>Node2</title>
<g id="a_node2"><a xlink:href="../../dd/da0/classorg_1_1msrg_1_1raccoon_1_1matrix_1_1bulk_1_1BulkMatrix1D_a34a7e8583f851f75514494a440298c22.html#a34a7e8583f851f75514494a440298c22" target="_top" xlink:title="org.msrg.raccoon.matrix.bulk.\lBulkMatrix1D.createBulkMatixIncrementalData">
<polygon fill="none" stroke="black" points="182,-49.5 182,-79.5 403,-79.5 403,-49.5 182,-49.5"/>
<text text-anchor="start" x="190" y="-67.5" font-family="Helvetica,sans-Serif" font-size="10.00">org.msrg.raccoon.matrix.bulk.</text>
<text text-anchor="middle" x="292.5" y="-56.5" font-family="Helvetica,sans-Serif" font-size="10.00">BulkMatrix1D.createBulkMatixIncrementalData</text>
</a>
</g>
</g>
<!-- Node1&#45;&gt;Node2 -->
<g id="edge1" class="edge"><title>Node1&#45;&gt;Node2</title>
<path fill="none" stroke="midnightblue" d="M156.235,-48.9524C164.63,-49.9172 173.248,-50.9079 181.874,-51.8994"/>
<polygon fill="midnightblue" stroke="midnightblue" points="156.457,-45.4548 146.122,-47.7899 155.657,-52.409 156.457,-45.4548"/>
</g>
<!-- Node3 -->
<g id="node3" class="node"><title>Node3</title>
<g id="a_node3"><a xlink:href="../../dd/da0/classorg_1_1msrg_1_1raccoon_1_1matrix_1_1bulk_1_1BulkMatrix1D_ac7f14a79687f87b8fd5ea4d3c729488b.html#ac7f14a79687f87b8fd5ea4d3c729488b" target="_top" xlink:title="org.msrg.raccoon.matrix.bulk.\lBulkMatrix1D.createBulkMatrix1D">
<polygon fill="none" stroke="black" points="210,-0.5 210,-30.5 375,-30.5 375,-0.5 210,-0.5"/>
<text text-anchor="start" x="218" y="-18.5" font-family="Helvetica,sans-Serif" font-size="10.00">org.msrg.raccoon.matrix.bulk.</text>
<text text-anchor="middle" x="292.5" y="-7.5" font-family="Helvetica,sans-Serif" font-size="10.00">BulkMatrix1D.createBulkMatrix1D</text>
</a>
</g>
</g>
<!-- Node1&#45;&gt;Node3 -->
<g id="edge2" class="edge"><title>Node1&#45;&gt;Node3</title>
<path fill="none" stroke="midnightblue" d="M156.307,-30.4179C173.821,-28.4853 192.309,-26.4452 209.801,-24.5151"/>
<polygon fill="midnightblue" stroke="midnightblue" points="155.678,-26.9659 146.122,-31.5417 156.446,-33.9237 155.678,-26.9659"/>
</g>
<!-- Node4 -->
<g id="node4" class="node"><title>Node4</title>
<g id="a_node4"><a xlink:href="../../db/d77/classorg_1_1msrg_1_1raccoon_1_1CodedBatchTest_af315e153681ea73bcbce6675ccb3f823.html#af315e153681ea73bcbce6675ccb3f823" target="_top" xlink:title="org.msrg.raccoon.CodedBatch\lTest.setUp">
<polygon fill="none" stroke="black" points="439,-0.5 439,-30.5 588,-30.5 588,-0.5 439,-0.5"/>
<text text-anchor="start" x="447" y="-18.5" font-family="Helvetica,sans-Serif" font-size="10.00">org.msrg.raccoon.CodedBatch</text>
<text text-anchor="middle" x="513.5" y="-7.5" font-family="Helvetica,sans-Serif" font-size="10.00">Test.setUp</text>
</a>
</g>
</g>
<!-- Node3&#45;&gt;Node4 -->
<g id="edge3" class="edge"><title>Node3&#45;&gt;Node4</title>
<path fill="none" stroke="midnightblue" d="M385.446,-15.5C403.256,-15.5 421.702,-15.5 438.834,-15.5"/>
<polygon fill="midnightblue" stroke="midnightblue" points="385.048,-12.0001 375.048,-15.5 385.047,-19.0001 385.048,-12.0001"/>
</g>
</g>
</svg>
