<?xml version="1.0" encoding="UTF-8" standalone="no"?>
<!DOCTYPE svg PUBLIC "-//W3C//DTD SVG 1.1//EN"
 "http://www.w3.org/Graphics/SVG/1.1/DTD/svg11.dtd">
<!-- Generated by graphviz version 2.38.0 (20140413.2041)
 -->
<!-- Title: org.msrg.raccoon.matrix.bulk.BulkMatrix1D.createBulkMatixIncrementalData Pages: 1 -->
<svg width="411pt" height="88pt"
 viewBox="0.00 0.00 411.00 88.00" xmlns="http://www.w3.org/2000/svg" xmlns:xlink="http://www.w3.org/1999/xlink">
<g id="graph0" class="graph" transform="scale(1 1) rotate(0) translate(4 84)">
<title>org.msrg.raccoon.matrix.bulk.BulkMatrix1D.createBulkMatixIncrementalData</title>
<!-- Node1 -->
<g id="node1" class="node"><title>Node1</title>
<polygon fill="#bfbfbf" stroke="black" points="0,-24.5 0,-54.5 221,-54.5 221,-24.5 0,-24.5"/>
<text text-anchor="start" x="8" y="-42.5" font-family="Helvetica,sans-Serif" font-size="10.00">org.msrg.raccoon.matrix.bulk.</text>
<text text-anchor="middle" x="110.5" y="-31.5" font-family="Helvetica,sans-Serif" font-size="10.00">BulkMatrix1D.createBulkMatixIncrementalData</text>
</g>
<!-- Node2 -->
<g id="node2" class="node"><title>Node2</title>
<g id="a_node2"><a xlink:href="../../dd/da0/classorg_1_1msrg_1_1raccoon_1_1matrix_1_1bulk_1_1BulkMatrix1D_a4fdcac5a747052c97d492dc98aa9514c.html#a4fdcac5a747052c97d492dc98aa9514c" target="_top" xlink:title="org.msrg.raccoon.matrix.bulk.\lBulkMatrix1D.BulkMatrix1D">
<polygon fill="none" stroke="black" points="257,-49.5 257,-79.5 403,-79.5 403,-49.5 257,-49.5"/>
<text text-anchor="start" x="265" y="-67.5" font-family="Helvetica,sans-Serif" font-size="10.00">org.msrg.raccoon.matrix.bulk.</text>
<text text-anchor="middle" x="330" y="-56.5" font-family="Helvetica,sans-Serif" font-size="10.00">BulkMatrix1D.BulkMatrix1D</text>
</a>
</g>
</g>
<!-- Node1&#45;&gt;Node2 -->
<g id="edge1" class="edge"><title>Node1&#45;&gt;Node2</title>
<path fill="none" stroke="midnightblue" d="M221.206,-52.1099C229.837,-53.102 238.461,-54.0932 246.859,-55.0585"/>
<polygon fill="midnightblue" stroke="midnightblue" points="246.642,-58.5565 256.976,-56.2214 247.441,-51.6023 246.642,-58.5565"/>
</g>
<!-- Node3 -->
<g id="node3" class="node"><title>Node3</title>
<g id="a_node3"><a xlink:href="../../df/da4/classorg_1_1msrg_1_1raccoon_1_1matrix_1_1bulk_1_1BulkMatrix_a804160abadbedfe02caa0c441731a519.html#a804160abadbedfe02caa0c441731a519" target="_top" xlink:title="org.msrg.raccoon.matrix.bulk.\lBulkMatrix.getContent">
<polygon fill="none" stroke="black" points="257,-0.5 257,-30.5 403,-30.5 403,-0.5 257,-0.5"/>
<text text-anchor="start" x="265" y="-18.5" font-family="Helvetica,sans-Serif" font-size="10.00">org.msrg.raccoon.matrix.bulk.</text>
<text text-anchor="middle" x="330" y="-7.5" font-family="Helvetica,sans-Serif" font-size="10.00">BulkMatrix.getContent</text>
</a>
</g>
</g>
<!-- Node1&#45;&gt;Node3 -->
<g id="edge2" class="edge"><title>Node1&#45;&gt;Node3</title>
<path fill="none" stroke="midnightblue" d="M221.206,-27.3945C229.837,-26.4421 238.461,-25.4905 246.859,-24.5638"/>
<polygon fill="midnightblue" stroke="midnightblue" points="247.42,-28.0232 256.976,-23.4474 246.653,-21.0654 247.42,-28.0232"/>
</g>
</g>
</svg>
