<?xml version="1.0" encoding="UTF-8" standalone="no"?>
<!DOCTYPE svg PUBLIC "-//W3C//DTD SVG 1.1//EN"
 "http://www.w3.org/Graphics/SVG/1.1/DTD/svg11.dtd">
<!-- Generated by graphviz version 2.38.0 (20140413.2041)
 -->
<!-- Title: org.msrg.raccoon.engine.CodingEngineTest.testEngine Pages: 1 -->
<svg width="594pt" height="539pt"
 viewBox="0.00 0.00 594.00 539.00" xmlns="http://www.w3.org/2000/svg" xmlns:xlink="http://www.w3.org/1999/xlink">
<g id="graph0" class="graph" transform="scale(1 1) rotate(0) translate(4 535)">
<title>org.msrg.raccoon.engine.CodingEngineTest.testEngine</title>
<!-- Node1 -->
<g id="node1" class="node"><title>Node1</title>
<polygon fill="#bfbfbf" stroke="black" points="0,-248.5 0,-278.5 146,-278.5 146,-248.5 0,-248.5"/>
<text text-anchor="start" x="8" y="-266.5" font-family="Helvetica,sans-Serif" font-size="10.00">org.msrg.raccoon.engine.</text>
<text text-anchor="middle" x="73" y="-255.5" font-family="Helvetica,sans-Serif" font-size="10.00">CodingEngineTest.testEngine</text>
</g>
<!-- Node2 -->
<g id="node2" class="node"><title>Node2</title>
<g id="a_node2"><a xlink:href="../../dc/dcf/classorg_1_1msrg_1_1raccoon_1_1engine_1_1CodingEngineTest_affa8970e9692e10ca22b6efc663b011a.html#affa8970e9692e10ca22b6efc663b011a" target="_top" xlink:title="org.msrg.raccoon.engine.\lCodingEngineTest.generateCodingTasks">
<polygon fill="none" stroke="black" points="187,-500.5 187,-530.5 382,-530.5 382,-500.5 187,-500.5"/>
<text text-anchor="start" x="195" y="-518.5" font-family="Helvetica,sans-Serif" font-size="10.00">org.msrg.raccoon.engine.</text>
<text text-anchor="middle" x="284.5" y="-507.5" font-family="Helvetica,sans-Serif" font-size="10.00">CodingEngineTest.generateCodingTasks</text>
</a>
</g>
</g>
<!-- Node1&#45;&gt;Node2 -->
<g id="edge1" class="edge"><title>Node1&#45;&gt;Node2</title>
<path fill="none" stroke="midnightblue" d="M76.5528,-278.794C84.2752,-320.045 111.348,-434.331 182,-491.5 183.584,-492.781 185.224,-493.997 186.913,-495.149"/>
<polygon fill="midnightblue" stroke="midnightblue" points="185.346,-498.289 195.728,-500.401 188.929,-492.276 185.346,-498.289"/>
</g>
<!-- Node4 -->
<g id="node4" class="node"><title>Node4</title>
<g id="a_node4"><a xlink:href="../../dc/dcf/classorg_1_1msrg_1_1raccoon_1_1engine_1_1CodingEngineTest_a3eaf0063135bfe2a02018ac5a32c5c81.html#a3eaf0063135bfe2a02018ac5a32c5c81" target="_top" xlink:title="org.msrg.raccoon.engine.\lCodingEngineTest.generateEncoding\lDecodingEqualTasks">
<polygon fill="none" stroke="black" points="195.5,-441 195.5,-482 373.5,-482 373.5,-441 195.5,-441"/>
<text text-anchor="start" x="203.5" y="-470" font-family="Helvetica,sans-Serif" font-size="10.00">org.msrg.raccoon.engine.</text>
<text text-anchor="start" x="203.5" y="-459" font-family="Helvetica,sans-Serif" font-size="10.00">CodingEngineTest.generateEncoding</text>
<text text-anchor="middle" x="284.5" y="-448" font-family="Helvetica,sans-Serif" font-size="10.00">DecodingEqualTasks</text>
</a>
</g>
</g>
<!-- Node1&#45;&gt;Node4 -->
<g id="edge3" class="edge"><title>Node1&#45;&gt;Node4</title>
<path fill="none" stroke="midnightblue" d="M79.468,-278.621C92.1567,-311.55 126.796,-390.104 182,-431.5 184.058,-433.043 186.195,-434.508 188.395,-435.897"/>
<polygon fill="midnightblue" stroke="midnightblue" points="186.745,-438.985 197.167,-440.892 190.209,-432.902 186.745,-438.985"/>
</g>
<!-- Node5 -->
<g id="node5" class="node"><title>Node5</title>
<g id="a_node5"><a xlink:href="../../dc/dcf/classorg_1_1msrg_1_1raccoon_1_1engine_1_1CodingEngineTest_adc74f8bceeed349a5b8aa14e1d12b1b3.html#adc74f8bceeed349a5b8aa14e1d12b1b3" target="_top" xlink:title="org.msrg.raccoon.engine.\lCodingEngineTest.generateEncoding\lReceivedEncodingDecodingEqualTasks">
<polygon fill="none" stroke="black" points="189,-381 189,-422 380,-422 380,-381 189,-381"/>
<text text-anchor="start" x="197" y="-410" font-family="Helvetica,sans-Serif" font-size="10.00">org.msrg.raccoon.engine.</text>
<text text-anchor="start" x="197" y="-399" font-family="Helvetica,sans-Serif" font-size="10.00">CodingEngineTest.generateEncoding</text>
<text text-anchor="middle" x="284.5" y="-388" font-family="Helvetica,sans-Serif" font-size="10.00">ReceivedEncodingDecodingEqualTasks</text>
</a>
</g>
</g>
<!-- Node1&#45;&gt;Node5 -->
<g id="edge4" class="edge"><title>Node1&#45;&gt;Node5</title>
<path fill="none" stroke="midnightblue" d="M84.8119,-278.594C102.476,-302.153 139.811,-347.545 182,-372.5 184.477,-373.965 187.032,-375.36 189.646,-376.687"/>
<polygon fill="midnightblue" stroke="midnightblue" points="188.194,-379.871 198.735,-380.943 191.163,-373.532 188.194,-379.871"/>
</g>
<!-- Node6 -->
<g id="node6" class="node"><title>Node6</title>
<g id="a_node6"><a xlink:href="../../dc/dcf/classorg_1_1msrg_1_1raccoon_1_1engine_1_1CodingEngineTest_aced376b301e715f4d1672bce505967f2.html#aced376b301e715f4d1672bce505967f2" target="_top" xlink:title="org.msrg.raccoon.engine.\lCodingEngineTest.generateEncodingTasks">
<polygon fill="none" stroke="black" points="182,-332.5 182,-362.5 387,-362.5 387,-332.5 182,-332.5"/>
<text text-anchor="start" x="190" y="-350.5" font-family="Helvetica,sans-Serif" font-size="10.00">org.msrg.raccoon.engine.</text>
<text text-anchor="middle" x="284.5" y="-339.5" font-family="Helvetica,sans-Serif" font-size="10.00">CodingEngineTest.generateEncodingTasks</text>
</a>
</g>
</g>
<!-- Node1&#45;&gt;Node6 -->
<g id="edge5" class="edge"><title>Node1&#45;&gt;Node6</title>
<path fill="none" stroke="midnightblue" d="M96.6912,-278.54C117.947,-292.027 150.999,-311.489 182,-323.5 187.571,-325.658 193.391,-327.659 199.305,-329.507"/>
<polygon fill="midnightblue" stroke="midnightblue" points="198.735,-332.988 209.317,-332.473 200.723,-326.276 198.735,-332.988"/>
</g>
<!-- Node7 -->
<g id="node7" class="node"><title>Node7</title>
<g id="a_node7"><a xlink:href="../../dc/dcf/classorg_1_1msrg_1_1raccoon_1_1engine_1_1CodingEngineTest_a866fee70b60a8eb0ced6d3e0e11a65f6.html#a866fee70b60a8eb0ced6d3e0e11a65f6" target="_top" xlink:title="org.msrg.raccoon.engine.\lCodingEngineTest.generateEquality\lCodingTasks">
<polygon fill="none" stroke="black" points="198,-273 198,-314 371,-314 371,-273 198,-273"/>
<text text-anchor="start" x="206" y="-302" font-family="Helvetica,sans-Serif" font-size="10.00">org.msrg.raccoon.engine.</text>
<text text-anchor="start" x="206" y="-291" font-family="Helvetica,sans-Serif" font-size="10.00">CodingEngineTest.generateEquality</text>
<text text-anchor="middle" x="284.5" y="-280" font-family="Helvetica,sans-Serif" font-size="10.00">CodingTasks</text>
</a>
</g>
</g>
<!-- Node1&#45;&gt;Node7 -->
<g id="edge6" class="edge"><title>Node1&#45;&gt;Node7</title>
<path fill="none" stroke="midnightblue" d="M146.098,-273.824C159.527,-275.747 173.752,-277.784 187.761,-279.79"/>
<polygon fill="midnightblue" stroke="midnightblue" points="187.513,-283.29 197.908,-281.243 188.505,-276.361 187.513,-283.29"/>
</g>
<!-- Node9 -->
<g id="node9" class="node"><title>Node9</title>
<g id="a_node9"><a xlink:href="../../dc/dcf/classorg_1_1msrg_1_1raccoon_1_1engine_1_1CodingEngineTest_a3ed2340795641f5ebb5ba30852ccd455.html#a3ed2340795641f5ebb5ba30852ccd455" target="_top" xlink:title="org.msrg.raccoon.engine.\lCodingEngineTest.generateFull\lMultiplyTasks">
<polygon fill="none" stroke="black" points="208,-213 208,-254 361,-254 361,-213 208,-213"/>
<text text-anchor="start" x="216" y="-242" font-family="Helvetica,sans-Serif" font-size="10.00">org.msrg.raccoon.engine.</text>
<text text-anchor="start" x="216" y="-231" font-family="Helvetica,sans-Serif" font-size="10.00">CodingEngineTest.generateFull</text>
<text text-anchor="middle" x="284.5" y="-220" font-family="Helvetica,sans-Serif" font-size="10.00">MultiplyTasks</text>
</a>
</g>
</g>
<!-- Node1&#45;&gt;Node9 -->
<g id="edge8" class="edge"><title>Node1&#45;&gt;Node9</title>
<path fill="none" stroke="midnightblue" d="M146.098,-253.176C162.72,-250.795 180.562,-248.241 197.702,-245.786"/>
<polygon fill="midnightblue" stroke="midnightblue" points="198.296,-249.237 207.699,-244.355 197.304,-242.307 198.296,-249.237"/>
</g>
<!-- Node10 -->
<g id="node10" class="node"><title>Node10</title>
<g id="a_node10"><a xlink:href="../../dc/dcf/classorg_1_1msrg_1_1raccoon_1_1engine_1_1CodingEngineTest_a50f56cfd58a53a8ba5bd6446f913abb9.html#a50f56cfd58a53a8ba5bd6446f913abb9" target="_top" xlink:title="org.msrg.raccoon.engine.\lCodingEngineTest.generatePage\lInPageOutEqualsCodingTasks">
<polygon fill="none" stroke="black" points="204.5,-153 204.5,-194 364.5,-194 364.5,-153 204.5,-153"/>
<text text-anchor="start" x="212.5" y="-182" font-family="Helvetica,sans-Serif" font-size="10.00">org.msrg.raccoon.engine.</text>
<text text-anchor="start" x="212.5" y="-171" font-family="Helvetica,sans-Serif" font-size="10.00">CodingEngineTest.generatePage</text>
<text text-anchor="middle" x="284.5" y="-160" font-family="Helvetica,sans-Serif" font-size="10.00">InPageOutEqualsCodingTasks</text>
</a>
</g>
</g>
<!-- Node1&#45;&gt;Node10 -->
<g id="edge9" class="edge"><title>Node1&#45;&gt;Node10</title>
<path fill="none" stroke="midnightblue" d="M97.6844,-248.343C119.072,-235.148 151.738,-216.196 182,-203.5 187.03,-201.39 192.259,-199.365 197.572,-197.435"/>
<polygon fill="midnightblue" stroke="midnightblue" points="198.92,-200.672 207.203,-194.065 196.608,-194.064 198.92,-200.672"/>
</g>
<!-- Node11 -->
<g id="node11" class="node"><title>Node11</title>
<g id="a_node11"><a xlink:href="../../dc/dcf/classorg_1_1msrg_1_1raccoon_1_1engine_1_1CodingEngineTest_a160323ac463a6453fbd592cd3d9f9c96.html#a160323ac463a6453fbd592cd3d9f9c96" target="_top" xlink:title="org.msrg.raccoon.engine.\lCodingEngineTest.generateSequenctial\lCodingTasks">
<polygon fill="none" stroke="black" points="190.5,-93 190.5,-134 378.5,-134 378.5,-93 190.5,-93"/>
<text text-anchor="start" x="198.5" y="-122" font-family="Helvetica,sans-Serif" font-size="10.00">org.msrg.raccoon.engine.</text>
<text text-anchor="start" x="198.5" y="-111" font-family="Helvetica,sans-Serif" font-size="10.00">CodingEngineTest.generateSequenctial</text>
<text text-anchor="middle" x="284.5" y="-100" font-family="Helvetica,sans-Serif" font-size="10.00">CodingTasks</text>
</a>
</g>
</g>
<!-- Node1&#45;&gt;Node11 -->
<g id="edge10" class="edge"><title>Node1&#45;&gt;Node11</title>
<path fill="none" stroke="midnightblue" d="M83.6464,-248.14C100.475,-222.602 137.668,-171.46 182,-143.5 184.798,-141.736 187.704,-140.071 190.689,-138.501"/>
<polygon fill="midnightblue" stroke="midnightblue" points="192.375,-141.573 199.854,-134.069 189.327,-135.272 192.375,-141.573"/>
</g>
<!-- Node12 -->
<g id="node12" class="node"><title>Node12</title>
<g id="a_node12"><a xlink:href="../../dc/dcf/classorg_1_1msrg_1_1raccoon_1_1engine_1_1CodingEngineTest_ab64824d6643667b0fee3b05da53b7f5c.html#ab64824d6643667b0fee3b05da53b7f5c" target="_top" xlink:title="org.msrg.raccoon.engine.\lCodingEngineTest.getStatistics">
<polygon fill="none" stroke="black" points="427,-49.5 427,-79.5 582,-79.5 582,-49.5 427,-49.5"/>
<text text-anchor="start" x="435" y="-67.5" font-family="Helvetica,sans-Serif" font-size="10.00">org.msrg.raccoon.engine.</text>
<text text-anchor="middle" x="504.5" y="-56.5" font-family="Helvetica,sans-Serif" font-size="10.00">CodingEngineTest.getStatistics</text>
</a>
</g>
</g>
<!-- Node1&#45;&gt;Node12 -->
<g id="edge11" class="edge"><title>Node1&#45;&gt;Node12</title>
<path fill="none" stroke="midnightblue" d="M77.8344,-248.478C87.8903,-212.557 118.726,-121.834 182,-83.5 252.421,-40.836 348.206,-40.9681 416.873,-48.7783"/>
<polygon fill="midnightblue" stroke="midnightblue" points="416.452,-52.2528 426.801,-49.9821 417.295,-45.3037 416.452,-52.2528"/>
</g>
<!-- Node13 -->
<g id="node13" class="node"><title>Node13</title>
<g id="a_node13"><a xlink:href="../../dc/dcf/classorg_1_1msrg_1_1raccoon_1_1engine_1_1CodingEngineTest_a63ba5951f23e81dae69d93ef6367f991.html#a63ba5951f23e81dae69d93ef6367f991" target="_top" xlink:title="org.msrg.raccoon.engine.\lCodingEngineTest.waitToFinishTasks">
<polygon fill="none" stroke="black" points="193.5,-5.5 193.5,-35.5 375.5,-35.5 375.5,-5.5 193.5,-5.5"/>
<text text-anchor="start" x="201.5" y="-23.5" font-family="Helvetica,sans-Serif" font-size="10.00">org.msrg.raccoon.engine.</text>
<text text-anchor="middle" x="284.5" y="-12.5" font-family="Helvetica,sans-Serif" font-size="10.00">CodingEngineTest.waitToFinishTasks</text>
</a>
</g>
</g>
<!-- Node1&#45;&gt;Node13 -->
<g id="edge12" class="edge"><title>Node1&#45;&gt;Node13</title>
<path fill="none" stroke="midnightblue" d="M77.3069,-248.27C86.5769,-209.266 116.53,-105.027 182,-50.5 186.865,-46.4485 192.258,-42.9441 197.95,-39.913"/>
<polygon fill="midnightblue" stroke="midnightblue" points="199.6,-43.0039 207.108,-35.5288 196.577,-36.6902 199.6,-43.0039"/>
</g>
<!-- Node3 -->
<g id="node3" class="node"><title>Node3</title>
<g id="a_node3"><a xlink:href="../../dd/dff/interfaceorg_1_1msrg_1_1raccoon_1_1engine_1_1ICodingEngine_a0b4cebd680a0fa0a6d0fb420fec4bd52.html#a0b4cebd680a0fa0a6d0fb420fec4bd52" target="_top" xlink:title="org.msrg.raccoon.engine.\lICodingEngine.multiply">
<polygon fill="none" stroke="black" points="441,-500.5 441,-530.5 568,-530.5 568,-500.5 441,-500.5"/>
<text text-anchor="start" x="449" y="-518.5" font-family="Helvetica,sans-Serif" font-size="10.00">org.msrg.raccoon.engine.</text>
<text text-anchor="middle" x="504.5" y="-507.5" font-family="Helvetica,sans-Serif" font-size="10.00">ICodingEngine.multiply</text>
</a>
</g>
</g>
<!-- Node2&#45;&gt;Node3 -->
<g id="edge2" class="edge"><title>Node2&#45;&gt;Node3</title>
<path fill="none" stroke="midnightblue" d="M382.07,-515.5C398.419,-515.5 415.146,-515.5 430.754,-515.5"/>
<polygon fill="midnightblue" stroke="midnightblue" points="430.834,-519 440.834,-515.5 430.834,-512 430.834,-519"/>
</g>
<!-- Node8 -->
<g id="node8" class="node"><title>Node8</title>
<g id="a_node8"><a xlink:href="../../dd/dff/interfaceorg_1_1msrg_1_1raccoon_1_1engine_1_1ICodingEngine_addf00ef4ea73a36f94342e34fdebf456.html#addf00ef4ea73a36f94342e34fdebf456" target="_top" xlink:title="org.msrg.raccoon.engine.\lICodingEngine.checkEquality">
<polygon fill="none" stroke="black" points="432,-278.5 432,-308.5 577,-308.5 577,-278.5 432,-278.5"/>
<text text-anchor="start" x="440" y="-296.5" font-family="Helvetica,sans-Serif" font-size="10.00">org.msrg.raccoon.engine.</text>
<text text-anchor="middle" x="504.5" y="-285.5" font-family="Helvetica,sans-Serif" font-size="10.00">ICodingEngine.checkEquality</text>
</a>
</g>
</g>
<!-- Node7&#45;&gt;Node8 -->
<g id="edge7" class="edge"><title>Node7&#45;&gt;Node8</title>
<path fill="none" stroke="midnightblue" d="M371.034,-293.5C387.728,-293.5 405.193,-293.5 421.761,-293.5"/>
<polygon fill="midnightblue" stroke="midnightblue" points="421.945,-297 431.945,-293.5 421.945,-290 421.945,-297"/>
</g>
<!-- Node13&#45;&gt;Node12 -->
<g id="edge14" class="edge"><title>Node13&#45;&gt;Node12</title>
<path fill="none" stroke="midnightblue" d="M359.914,-35.5192C379.012,-39.374 399.692,-43.5478 419.249,-47.4951"/>
<polygon fill="midnightblue" stroke="midnightblue" points="418.557,-50.9261 429.052,-49.4738 419.942,-44.0644 418.557,-50.9261"/>
</g>
<!-- Node14 -->
<g id="node14" class="node"><title>Node14</title>
<g id="a_node14"><a xlink:href="../../dc/dcf/classorg_1_1msrg_1_1raccoon_1_1engine_1_1CodingEngineTest_a05df923197255c3c42ecafbceddb7b73.html#a05df923197255c3c42ecafbceddb7b73" target="_top" xlink:title="org.msrg.raccoon.engine.\lCodingEngineTest.checkTestEnd">
<polygon fill="none" stroke="black" points="423,-0.5 423,-30.5 586,-30.5 586,-0.5 423,-0.5"/>
<text text-anchor="start" x="431" y="-18.5" font-family="Helvetica,sans-Serif" font-size="10.00">org.msrg.raccoon.engine.</text>
<text text-anchor="middle" x="504.5" y="-7.5" font-family="Helvetica,sans-Serif" font-size="10.00">CodingEngineTest.checkTestEnd</text>
</a>
</g>
</g>
<!-- Node13&#45;&gt;Node14 -->
<g id="edge13" class="edge"><title>Node13&#45;&gt;Node14</title>
<path fill="none" stroke="midnightblue" d="M375.743,-18.4302C387.914,-18.1511 400.406,-17.8645 412.589,-17.5851"/>
<polygon fill="midnightblue" stroke="midnightblue" points="412.819,-21.0809 422.736,-17.3524 412.658,-14.0827 412.819,-21.0809"/>
</g>
</g>
</svg>
