<?xml version="1.0" encoding="UTF-8" standalone="no"?>
<!DOCTYPE svg PUBLIC "-//W3C//DTD SVG 1.1//EN"
 "http://www.w3.org/Graphics/SVG/1.1/DTD/svg11.dtd">
<!-- Generated by graphviz version 2.38.0 (20140413.2041)
 -->
<!-- Title: org.msrg.raccoon.engine.CodingEngineTest.setUp Pages: 1 -->
<!--zoomable 467 -->
<svg id="main" version="1.1" xmlns="http://www.w3.org/2000/svg" xmlns:xlink="http://www.w3.org/1999/xlink" xml:space="preserve" onload="init(evt)">
<style type="text/css"><![CDATA[
.edge:hover path { stroke: red; }
.edge:hover polygon { stroke: red; fill: red; }
]]></style>
<script type="text/javascript"><![CDATA[
var edges = document.getElementsByTagName('g');
if (edges && edges.length) {
  for (var i=0;i<edges.length;i++) {
    if (edges[i].id.substr(0,4)=='edge') {
      edges[i].setAttribute('class','edge');
    }
  }
}
]]></script>
        <defs>
                <circle id="rim" cx="0" cy="0" r="7"/>
                <circle id="rim2" cx="0" cy="0" r="3.5"/>
                <g id="zoomPlus">
                        <use xlink:href="#rim" fill="#404040">
                                <set attributeName="fill" to="#808080" begin="zoomplus.mouseover" end="zoomplus.mouseout"/>
                        </use>
                        <path d="M-4,0h8M0,-4v8" fill="none" stroke="white" stroke-width="1.5" pointer-events="none"/>
                </g>
                <g id="zoomMin">
                        <use xlink:href="#rim" fill="#404040">
                                <set attributeName="fill" to="#808080" begin="zoomminus.mouseover" end="zoomminus.mouseout"/>
                        </use>
                        <path d="M-4,0h8" fill="none" stroke="white" stroke-width="1.5" pointer-events="none"/>
                </g>
                <g id="dirArrow">
                        <path fill="none" stroke="white" stroke-width="1.5" d="M0,-3.0v7 M-2.5,-0.5L0,-3.0L2.5,-0.5"/>
                </g>
               <g id="resetDef">
                       <use xlink:href="#rim2" fill="#404040">
                               <set attributeName="fill" to="#808080" begin="reset.mouseover" end="reset.mouseout"/>
                       </use>
               </g>
        </defs>

<script type="text/javascript">
var viewWidth = 589;
var viewHeight = 467;
var sectionId = 'dynsection-0';
</script>
<script xlink:href="../../svgpan.js"/>
<svg id="graph" class="graph">
<g id="viewport">
<title>org.msrg.raccoon.engine.CodingEngineTest.setUp</title>
<!-- Node0 -->
<g id="node1" class="node"><title>Node0</title>
<polygon fill="#bfbfbf" stroke="black" points="0,-134.5 0,-164.5 127,-164.5 127,-134.5 0,-134.5"/>
<text text-anchor="start" x="8" y="-152.5" font-family="Helvetica,sans-Serif" font-size="10.00">org.msrg.raccoon.engine.</text>
<text text-anchor="middle" x="63.5" y="-141.5" font-family="Helvetica,sans-Serif" font-size="10.00">CodingEngineTest.setUp</text>
</g>
<!-- Node1 -->
<g id="node2" class="node"><title>Node1</title>
<g id="a_node2"><a xlink:href="../../df/da4/classorg_1_1msrg_1_1raccoon_1_1matrix_1_1bulk_1_1BulkMatrix_a8a2fe48f174a616aa6ab6535ffd6a3d3.html#a8a2fe48f174a616aa6ab6535ffd6a3d3" target="_top" xlink:title="org.msrg.raccoon.matrix.bulk.\lBulkMatrix.createBulkMatixIncrementalData">
<polygon fill="none" stroke="black" points="163,-330.5 163,-360.5 372,-360.5 372,-330.5 163,-330.5"/>
<text text-anchor="start" x="171" y="-348.5" font-family="Helvetica,sans-Serif" font-size="10.00">org.msrg.raccoon.matrix.bulk.</text>
<text text-anchor="middle" x="267.5" y="-337.5" font-family="Helvetica,sans-Serif" font-size="10.00">BulkMatrix.createBulkMatixIncrementalData</text>
</a>
</g>
</g>
<!-- Node0&#45;&gt;Node1 -->
<g id="edge1" class="edge"><title>Node0&#45;&gt;Node1</title>
<path fill="none" stroke="midnightblue" d="M79.3565,-164.759C98.4996,-184.346 132.901,-219.287 163,-248.5 189.796,-274.507 221.159,-303.735 242.279,-323.246"/>
<polygon fill="midnightblue" stroke="midnightblue" points="240.117,-326.013 249.841,-330.22 244.863,-320.868 240.117,-326.013"/>
</g>
<!-- Node6 -->
<g id="node7" class="node"><title>Node6</title>
<g id="a_node7"><a xlink:href="../../dd/d36/classorg_1_1msrg_1_1raccoon_1_1matrix_1_1finitefields_1_1ByteMatrix_ac958e4d2d814edc27719b059d8fd08c2.html#ac958e4d2d814edc27719b059d8fd08c2" target="_top" xlink:title="org.msrg.raccoon.matrix.finitefields.\lByteMatrix.createRandomByteMatrix">
<polygon fill="none" stroke="black" points="178.5,-208.5 178.5,-238.5 356.5,-238.5 356.5,-208.5 178.5,-208.5"/>
<text text-anchor="start" x="186.5" y="-226.5" font-family="Helvetica,sans-Serif" font-size="10.00">org.msrg.raccoon.matrix.finitefields.</text>
<text text-anchor="middle" x="267.5" y="-215.5" font-family="Helvetica,sans-Serif" font-size="10.00">ByteMatrix.createRandomByteMatrix</text>
</a>
</g>
</g>
<!-- Node0&#45;&gt;Node6 -->
<g id="edge6" class="edge"><title>Node0&#45;&gt;Node6</title>
<path fill="none" stroke="midnightblue" d="M90.9538,-164.7C110.385,-175.354 137.696,-189.283 163,-198.5 170.144,-201.102 177.665,-203.514 185.256,-205.729"/>
<polygon fill="midnightblue" stroke="midnightblue" points="184.313,-209.099 194.887,-208.428 186.203,-202.359 184.313,-209.099"/>
</g>
<!-- Node9 -->
<g id="node10" class="node"><title>Node9</title>
<g id="a_node10"><a xlink:href="../../d6/d6d/classorg_1_1msrg_1_1raccoon_1_1matrix_1_1bulk_1_1SliceMatrix_a7318d69d3be32600d6e441c82f505a7f.html#a7318d69d3be32600d6e441c82f505a7f" target="_top" xlink:title="org.msrg.raccoon.matrix.bulk.\lSliceMatrix.createRandomSliceMatrix">
<polygon fill="none" stroke="black" points="177,-159.5 177,-189.5 358,-189.5 358,-159.5 177,-159.5"/>
<text text-anchor="start" x="185" y="-177.5" font-family="Helvetica,sans-Serif" font-size="10.00">org.msrg.raccoon.matrix.bulk.</text>
<text text-anchor="middle" x="267.5" y="-166.5" font-family="Helvetica,sans-Serif" font-size="10.00">SliceMatrix.createRandomSliceMatrix</text>
</a>
</g>
</g>
<!-- Node0&#45;&gt;Node9 -->
<g id="edge9" class="edge"><title>Node0&#45;&gt;Node9</title>
<path fill="none" stroke="midnightblue" d="M127.031,-157.239C139.588,-158.793 153.078,-160.463 166.544,-162.129"/>
<polygon fill="midnightblue" stroke="midnightblue" points="166.466,-165.646 176.82,-163.401 167.326,-158.699 166.466,-165.646"/>
</g>
<!-- Node11 -->
<g id="node12" class="node"><title>Node11</title>
<g id="a_node12"><a xlink:href="../../dd/dff/interfaceorg_1_1msrg_1_1raccoon_1_1engine_1_1ICodingEngine_a3556ec220c369696bba586fe8f2bc7fc.html#a3556ec220c369696bba586fe8f2bc7fc" target="_top" xlink:title="org.msrg.raccoon.engine.\lICodingEngine.init">
<polygon fill="none" stroke="black" points="204,-110.5 204,-140.5 331,-140.5 331,-110.5 204,-110.5"/>
<text text-anchor="start" x="212" y="-128.5" font-family="Helvetica,sans-Serif" font-size="10.00">org.msrg.raccoon.engine.</text>
<text text-anchor="middle" x="267.5" y="-117.5" font-family="Helvetica,sans-Serif" font-size="10.00">ICodingEngine.init</text>
</a>
</g>
</g>
<!-- Node0&#45;&gt;Node11 -->
<g id="edge11" class="edge"><title>Node0&#45;&gt;Node11</title>
<path fill="none" stroke="midnightblue" d="M127.031,-142.071C148.137,-139.563 171.878,-136.742 193.707,-134.149"/>
<polygon fill="midnightblue" stroke="midnightblue" points="194.4,-137.591 203.917,-132.936 193.574,-130.64 194.4,-137.591"/>
</g>
<!-- Node12 -->
<g id="node13" class="node"><title>Node12</title>
<g id="a_node13"><a xlink:href="../../dd/dff/interfaceorg_1_1msrg_1_1raccoon_1_1engine_1_1ICodingEngine_afc55b7f540c8c90fd99de0f2d54c57cb.html#afc55b7f540c8c90fd99de0f2d54c57cb" target="_top" xlink:title="org.msrg.raccoon.engine.\lICodingEngine.registerCoding\lListener">
<polygon fill="none" stroke="black" points="194.5,-50 194.5,-91 340.5,-91 340.5,-50 194.5,-50"/>
<text text-anchor="start" x="202.5" y="-79" font-family="Helvetica,sans-Serif" font-size="10.00">org.msrg.raccoon.engine.</text>
<text text-anchor="start" x="202.5" y="-68" font-family="Helvetica,sans-Serif" font-size="10.00">ICodingEngine.registerCoding</text>
<text text-anchor="middle" x="267.5" y="-57" font-family="Helvetica,sans-Serif" font-size="10.00">Listener</text>
</a>
</g>
</g>
<!-- Node0&#45;&gt;Node12 -->
<g id="edge12" class="edge"><title>Node0&#45;&gt;Node12</title>
<path fill="none" stroke="midnightblue" d="M91.4995,-134.42C110.965,-123.96 138.088,-110.216 163,-100.5 169.89,-97.8127 177.12,-95.24 184.421,-92.8106"/>
<polygon fill="midnightblue" stroke="midnightblue" points="185.955,-95.9933 194.396,-89.5893 183.804,-89.3321 185.955,-95.9933"/>
</g>
<!-- Node13 -->
<g id="node14" class="node"><title>Node13</title>
<g id="a_node14"><a xlink:href="../../dd/dff/interfaceorg_1_1msrg_1_1raccoon_1_1engine_1_1ICodingEngine_aec139adde5c4769f1b5de32e321ac936.html#aec139adde5c4769f1b5de32e321ac936" target="_top" xlink:title="org.msrg.raccoon.engine.\lICodingEngine.startComponent">
<polygon fill="none" stroke="black" points="191,-0.5 191,-30.5 344,-30.5 344,-0.5 191,-0.5"/>
<text text-anchor="start" x="199" y="-18.5" font-family="Helvetica,sans-Serif" font-size="10.00">org.msrg.raccoon.engine.</text>
<text text-anchor="middle" x="267.5" y="-7.5" font-family="Helvetica,sans-Serif" font-size="10.00">ICodingEngine.startComponent</text>
</a>
</g>
</g>
<!-- Node0&#45;&gt;Node13 -->
<g id="edge13" class="edge"><title>Node0&#45;&gt;Node13</title>
<path fill="none" stroke="midnightblue" d="M73.9196,-134.176C89.4251,-110.302 122.663,-64.4868 163,-40.5 168.765,-37.0721 174.974,-34.1136 181.387,-31.5605"/>
<polygon fill="midnightblue" stroke="midnightblue" points="182.696,-34.8085 190.899,-28.1023 180.305,-28.2297 182.696,-34.8085"/>
</g>
<!-- Node2 -->
<g id="node3" class="node"><title>Node2</title>
<g id="a_node3"><a xlink:href="../../df/da4/classorg_1_1msrg_1_1raccoon_1_1matrix_1_1bulk_1_1BulkMatrix_ae52685687565b5725a204d70237d300a.html#ae52685687565b5725a204d70237d300a" target="_top" xlink:title="org.msrg.raccoon.matrix.bulk.\lBulkMatrix.BulkMatrix">
<polygon fill="none" stroke="black" points="421.5,-428.5 421.5,-458.5 567.5,-458.5 567.5,-428.5 421.5,-428.5"/>
<text text-anchor="start" x="429.5" y="-446.5" font-family="Helvetica,sans-Serif" font-size="10.00">org.msrg.raccoon.matrix.bulk.</text>
<text text-anchor="middle" x="494.5" y="-435.5" font-family="Helvetica,sans-Serif" font-size="10.00">BulkMatrix.BulkMatrix</text>
</a>
</g>
</g>
<!-- Node1&#45;&gt;Node2 -->
<g id="edge2" class="edge"><title>Node1&#45;&gt;Node2</title>
<path fill="none" stroke="midnightblue" d="M292.929,-360.533C320.192,-376.81 366.003,-402.692 408,-419.5 413.099,-421.541 418.435,-423.478 423.843,-425.302"/>
<polygon fill="midnightblue" stroke="midnightblue" points="423.027,-428.716 433.619,-428.459 425.178,-422.055 423.027,-428.716"/>
</g>
<!-- Node3 -->
<g id="node4" class="node"><title>Node3</title>
<g id="a_node4"><a xlink:href="../../df/da4/classorg_1_1msrg_1_1raccoon_1_1matrix_1_1bulk_1_1BulkMatrix_a98b3c00a4eb4e1864c20182b3ae0e8ec.html#a98b3c00a4eb4e1864c20182b3ae0e8ec" target="_top" xlink:title="org.msrg.raccoon.matrix.bulk.\lBulkMatrix.getSliceCount">
<polygon fill="none" stroke="black" points="421.5,-379.5 421.5,-409.5 567.5,-409.5 567.5,-379.5 421.5,-379.5"/>
<text text-anchor="start" x="429.5" y="-397.5" font-family="Helvetica,sans-Serif" font-size="10.00">org.msrg.raccoon.matrix.bulk.</text>
<text text-anchor="middle" x="494.5" y="-386.5" font-family="Helvetica,sans-Serif" font-size="10.00">BulkMatrix.getSliceCount</text>
</a>
</g>
</g>
<!-- Node1&#45;&gt;Node3 -->
<g id="edge3" class="edge"><title>Node1&#45;&gt;Node3</title>
<path fill="none" stroke="midnightblue" d="M337.537,-360.535C361.941,-365.849 389.571,-371.867 414.722,-377.344"/>
<polygon fill="midnightblue" stroke="midnightblue" points="414.078,-380.786 424.594,-379.494 415.568,-373.946 414.078,-380.786"/>
</g>
<!-- Node4 -->
<g id="node5" class="node"><title>Node4</title>
<g id="a_node5"><a xlink:href="../../df/da4/classorg_1_1msrg_1_1raccoon_1_1matrix_1_1bulk_1_1BulkMatrix_a7f382b71b1e7fb03fa68f22724f75f88.html#a7f382b71b1e7fb03fa68f22724f75f88" target="_top" xlink:title="org.msrg.raccoon.matrix.bulk.\lBulkMatrix.slice">
<polygon fill="none" stroke="black" points="421.5,-330.5 421.5,-360.5 567.5,-360.5 567.5,-330.5 421.5,-330.5"/>
<text text-anchor="start" x="429.5" y="-348.5" font-family="Helvetica,sans-Serif" font-size="10.00">org.msrg.raccoon.matrix.bulk.</text>
<text text-anchor="middle" x="494.5" y="-337.5" font-family="Helvetica,sans-Serif" font-size="10.00">BulkMatrix.slice</text>
</a>
</g>
</g>
<!-- Node1&#45;&gt;Node4 -->
<g id="edge4" class="edge"><title>Node1&#45;&gt;Node4</title>
<path fill="none" stroke="midnightblue" d="M372.109,-345.5C385.214,-345.5 398.481,-345.5 411.193,-345.5"/>
<polygon fill="midnightblue" stroke="midnightblue" points="411.254,-349 421.254,-345.5 411.254,-342 411.254,-349"/>
</g>
<!-- Node5 -->
<g id="node6" class="node"><title>Node5</title>
<g id="a_node6"><a xlink:href="../../d6/d6d/classorg_1_1msrg_1_1raccoon_1_1matrix_1_1bulk_1_1SliceMatrix_a4c85807433398a037c9d6885569fba0e.html#a4c85807433398a037c9d6885569fba0e" target="_top" xlink:title="org.msrg.raccoon.matrix.bulk.\lSliceMatrix.loadNoCopy">
<polygon fill="none" stroke="black" points="421.5,-281.5 421.5,-311.5 567.5,-311.5 567.5,-281.5 421.5,-281.5"/>
<text text-anchor="start" x="429.5" y="-299.5" font-family="Helvetica,sans-Serif" font-size="10.00">org.msrg.raccoon.matrix.bulk.</text>
<text text-anchor="middle" x="494.5" y="-288.5" font-family="Helvetica,sans-Serif" font-size="10.00">SliceMatrix.loadNoCopy</text>
</a>
</g>
</g>
<!-- Node1&#45;&gt;Node5 -->
<g id="edge5" class="edge"><title>Node1&#45;&gt;Node5</title>
<path fill="none" stroke="midnightblue" d="M337.537,-330.465C361.941,-325.151 389.571,-319.133 414.722,-313.656"/>
<polygon fill="midnightblue" stroke="midnightblue" points="415.568,-317.054 424.594,-311.506 414.078,-310.214 415.568,-317.054"/>
</g>
<!-- Node7 -->
<g id="node8" class="node"><title>Node7</title>
<g id="a_node8"><a xlink:href="../../de/d17/classorg_1_1msrg_1_1raccoon_1_1matrix_1_1finitefields_1_1FFByteMatrix_a0168a50b2630c4e56b191a23671e77eb.html#a0168a50b2630c4e56b191a23671e77eb" target="_top" xlink:title="org.msrg.raccoon.matrix.finitefields.\lFFByteMatrix.random">
<polygon fill="none" stroke="black" points="408,-232.5 408,-262.5 581,-262.5 581,-232.5 408,-232.5"/>
<text text-anchor="start" x="416" y="-250.5" font-family="Helvetica,sans-Serif" font-size="10.00">org.msrg.raccoon.matrix.finitefields.</text>
<text text-anchor="middle" x="494.5" y="-239.5" font-family="Helvetica,sans-Serif" font-size="10.00">FFByteMatrix.random</text>
</a>
</g>
</g>
<!-- Node6&#45;&gt;Node7 -->
<g id="edge7" class="edge"><title>Node6&#45;&gt;Node7</title>
<path fill="none" stroke="midnightblue" d="M356.78,-232.917C370.123,-234.34 383.943,-235.814 397.44,-237.254"/>
<polygon fill="midnightblue" stroke="midnightblue" points="397.37,-240.766 407.685,-238.346 398.113,-233.805 397.37,-240.766"/>
</g>
<!-- Node8 -->
<g id="node9" class="node"><title>Node8</title>
<g id="a_node9"><a xlink:href="../../dd/d36/classorg_1_1msrg_1_1raccoon_1_1matrix_1_1finitefields_1_1ByteMatrix_a515c451c10e6b9529825b809f477c655.html#a515c451c10e6b9529825b809f477c655" target="_top" xlink:title="org.msrg.raccoon.matrix.finitefields.\lByteMatrix.ByteMatrix">
<polygon fill="none" stroke="black" points="408,-183.5 408,-213.5 581,-213.5 581,-183.5 408,-183.5"/>
<text text-anchor="start" x="416" y="-201.5" font-family="Helvetica,sans-Serif" font-size="10.00">org.msrg.raccoon.matrix.finitefields.</text>
<text text-anchor="middle" x="494.5" y="-190.5" font-family="Helvetica,sans-Serif" font-size="10.00">ByteMatrix.ByteMatrix</text>
</a>
</g>
</g>
<!-- Node6&#45;&gt;Node8 -->
<g id="edge8" class="edge"><title>Node6&#45;&gt;Node8</title>
<path fill="none" stroke="midnightblue" d="M356.78,-213.691C370.123,-212.209 383.943,-210.673 397.44,-209.173"/>
<polygon fill="midnightblue" stroke="midnightblue" points="398.133,-212.618 407.685,-208.035 397.36,-205.661 398.133,-212.618"/>
</g>
<!-- Node10 -->
<g id="node11" class="node"><title>Node10</title>
<g id="a_node11"><a xlink:href="../../d6/d6d/classorg_1_1msrg_1_1raccoon_1_1matrix_1_1bulk_1_1SliceMatrix_aeb3fa63b05dee9bbf6e2f5779ab0c134.html#aeb3fa63b05dee9bbf6e2f5779ab0c134" target="_top" xlink:title="org.msrg.raccoon.matrix.bulk.\lSliceMatrix.SliceMatrix">
<polygon fill="none" stroke="black" points="421.5,-134.5 421.5,-164.5 567.5,-164.5 567.5,-134.5 421.5,-134.5"/>
<text text-anchor="start" x="429.5" y="-152.5" font-family="Helvetica,sans-Serif" font-size="10.00">org.msrg.raccoon.matrix.bulk.</text>
<text text-anchor="middle" x="494.5" y="-141.5" font-family="Helvetica,sans-Serif" font-size="10.00">SliceMatrix.SliceMatrix</text>
</a>
</g>
</g>
<!-- Node9&#45;&gt;Node10 -->
<g id="edge10" class="edge"><title>Node9&#45;&gt;Node10</title>
<path fill="none" stroke="midnightblue" d="M358.072,-164.548C375.59,-162.601 393.883,-160.569 411.152,-158.65"/>
<polygon fill="midnightblue" stroke="midnightblue" points="411.635,-162.118 421.188,-157.535 410.862,-155.161 411.635,-162.118"/>
</g>
</g>
</svg>
        <g id="navigator" transform="translate(0 0)" fill="#404254">
                <rect fill="#f2f5e9" fill-opacity="0.5" stroke="#606060" stroke-width=".5" x="0" y="0" width="60" height="60"/>
                <use id="zoomplus" xlink:href="#zoomPlus" x="17" y="9" onmousedown="handleZoom(evt,'in')"/>
                <use id="zoomminus" xlink:href="#zoomMin" x="42" y="9" onmousedown="handleZoom(evt,'out')"/>
                <use id="reset" xlink:href="#resetDef" x="30" y="36" onmousedown="handleReset()"/>
                <g id="arrowUp" xlink:href="#dirArrow" transform="translate(30 24)" onmousedown="handlePan(0,-1)">
                  <use xlink:href="#rim" fill="#404040">
                        <set attributeName="fill" to="#808080" begin="arrowUp.mouseover" end="arrowUp.mouseout"/>
                  </use>
                  <path fill="none" stroke="white" stroke-width="1.5" d="M0,-3.0v7 M-2.5,-0.5L0,-3.0L2.5,-0.5"/>
                </g>
                <g id="arrowRight" xlink:href="#dirArrow" transform="rotate(90) translate(36 -43)" onmousedown="handlePan(1,0)">
                  <use xlink:href="#rim" fill="#404040">
                        <set attributeName="fill" to="#808080" begin="arrowRight.mouseover" end="arrowRight.mouseout"/>
                  </use>
                  <path fill="none" stroke="white" stroke-width="1.5" d="M0,-3.0v7 M-2.5,-0.5L0,-3.0L2.5,-0.5"/>
                </g>
                <g id="arrowDown" xlink:href="#dirArrow" transform="rotate(180) translate(-30 -48)" onmousedown="handlePan(0,1)">
                  <use xlink:href="#rim" fill="#404040">
                        <set attributeName="fill" to="#808080" begin="arrowDown.mouseover" end="arrowDown.mouseout"/>
                  </use>
                  <path fill="none" stroke="white" stroke-width="1.5" d="M0,-3.0v7 M-2.5,-0.5L0,-3.0L2.5,-0.5"/>
                </g>
                <g id="arrowLeft" xlink:href="#dirArrow" transform="rotate(270) translate(-36 17)" onmousedown="handlePan(-1,0)">
                  <use xlink:href="#rim" fill="#404040">
                        <set attributeName="fill" to="#808080" begin="arrowLeft.mouseover" end="arrowLeft.mouseout"/>
                  </use>
                  <path fill="none" stroke="white" stroke-width="1.5" d="M0,-3.0v7 M-2.5,-0.5L0,-3.0L2.5,-0.5"/>
                </g>
        </g>
        <svg viewBox="0 0 15 15" width="100%" height="30px" preserveAspectRatio="xMaxYMin meet">
         <g id="arrow_out" transform="scale(0.3 0.3)">
          <a xlink:href="classorg_1_1msrg_1_1raccoon_1_1engine_1_1CodingEngineTest_a1a3ce31a699af797e95ece5666d7e394_a1a3ce31a699af797e95ece5666d7e394_cgraph_org.svg" target="_base">
           <rect id="button" ry="5" rx="5" y="6" x="6" height="38" width="38"
                fill="#f2f5e9" fill-opacity="0.5" stroke="#606060" stroke-width="1.0"/>
           <path id="arrow"
             d="M 11.500037,31.436501 C 11.940474,20.09759 22.043105,11.32322 32.158766,21.979434 L 37.068811,17.246167 C 37.068811,17.246167 37.088388,32 37.088388,32 L 22.160133,31.978069 C 22.160133,31.978069 26.997745,27.140456 26.997745,27.140456 C 18.528582,18.264221 13.291696,25.230495 11.500037,31.436501 z"
             style="fill:#404040;"/>
          </a>
         </g>
        </svg>
</svg>
