<?xml version="1.0" encoding="UTF-8" standalone="no"?>
<!DOCTYPE svg PUBLIC "-//W3C//DTD SVG 1.1//EN"
 "http://www.w3.org/Graphics/SVG/1.1/DTD/svg11.dtd">
<!-- Generated by graphviz version 2.38.0 (20140413.2041)
 -->
<!-- Title: org.msrg.raccoon.engine.CodingEngineTest.print Pages: 1 -->
<svg width="336pt" height="137pt"
 viewBox="0.00 0.00 336.00 137.00" xmlns="http://www.w3.org/2000/svg" xmlns:xlink="http://www.w3.org/1999/xlink">
<g id="graph0" class="graph" transform="scale(1 1) rotate(0) translate(4 133)">
<title>org.msrg.raccoon.engine.CodingEngineTest.print</title>
<!-- Node1 -->
<g id="node1" class="node"><title>Node1</title>
<polygon fill="#bfbfbf" stroke="black" points="0,-49.5 0,-79.5 127,-79.5 127,-49.5 0,-49.5"/>
<text text-anchor="start" x="8" y="-67.5" font-family="Helvetica,sans-Serif" font-size="10.00">org.msrg.raccoon.engine.</text>
<text text-anchor="middle" x="63.5" y="-56.5" font-family="Helvetica,sans-Serif" font-size="10.00">CodingEngineTest.print</text>
</g>
<!-- Node2 -->
<g id="node2" class="node"><title>Node2</title>
<g id="a_node2"><a xlink:href="../../dc/dcf/classorg_1_1msrg_1_1raccoon_1_1engine_1_1CodingEngineTest_af19b6b7e9701fe8b427c49f07d091900.html#af19b6b7e9701fe8b427c49f07d091900" target="_top" xlink:title="org.msrg.raccoon.engine.\lCodingEngineTest.codingFailed">
<polygon fill="none" stroke="black" points="168,-98.5 168,-128.5 323,-128.5 323,-98.5 168,-98.5"/>
<text text-anchor="start" x="176" y="-116.5" font-family="Helvetica,sans-Serif" font-size="10.00">org.msrg.raccoon.engine.</text>
<text text-anchor="middle" x="245.5" y="-105.5" font-family="Helvetica,sans-Serif" font-size="10.00">CodingEngineTest.codingFailed</text>
</a>
</g>
</g>
<!-- Node1&#45;&gt;Node2 -->
<g id="edge1" class="edge"><title>Node1&#45;&gt;Node2</title>
<path fill="none" stroke="midnightblue" d="M129.698,-82.2485C149.207,-87.5591 170.402,-93.3288 189.208,-98.4484"/>
<polygon fill="midnightblue" stroke="midnightblue" points="130.543,-78.851 119.975,-79.6014 128.704,-85.6053 130.543,-78.851"/>
</g>
<!-- Node3 -->
<g id="node3" class="node"><title>Node3</title>
<g id="a_node3"><a xlink:href="../../dc/dcf/classorg_1_1msrg_1_1raccoon_1_1engine_1_1CodingEngineTest_a312467d37f3faa057e1deaaeb5f527a4.html#a312467d37f3faa057e1deaaeb5f527a4" target="_top" xlink:title="org.msrg.raccoon.engine.\lCodingEngineTest.codingFinished">
<polygon fill="none" stroke="black" points="163,-49.5 163,-79.5 328,-79.5 328,-49.5 163,-49.5"/>
<text text-anchor="start" x="171" y="-67.5" font-family="Helvetica,sans-Serif" font-size="10.00">org.msrg.raccoon.engine.</text>
<text text-anchor="middle" x="245.5" y="-56.5" font-family="Helvetica,sans-Serif" font-size="10.00">CodingEngineTest.codingFinished</text>
</a>
</g>
</g>
<!-- Node1&#45;&gt;Node3 -->
<g id="edge2" class="edge"><title>Node1&#45;&gt;Node3</title>
<path fill="none" stroke="midnightblue" d="M137.288,-64.5C145.657,-64.5 154.232,-64.5 162.71,-64.5"/>
<polygon fill="midnightblue" stroke="midnightblue" points="137.203,-61.0001 127.203,-64.5 137.203,-68.0001 137.203,-61.0001"/>
</g>
<!-- Node4 -->
<g id="node4" class="node"><title>Node4</title>
<g id="a_node4"><a xlink:href="../../dc/dcf/classorg_1_1msrg_1_1raccoon_1_1engine_1_1CodingEngineTest_acaf91c6ee3f739822460aaac7172df57.html#acaf91c6ee3f739822460aaac7172df57" target="_top" xlink:title="org.msrg.raccoon.engine.\lCodingEngineTest.codingStarted">
<polygon fill="none" stroke="black" points="165.5,-0.5 165.5,-30.5 325.5,-30.5 325.5,-0.5 165.5,-0.5"/>
<text text-anchor="start" x="173.5" y="-18.5" font-family="Helvetica,sans-Serif" font-size="10.00">org.msrg.raccoon.engine.</text>
<text text-anchor="middle" x="245.5" y="-7.5" font-family="Helvetica,sans-Serif" font-size="10.00">CodingEngineTest.codingStarted</text>
</a>
</g>
</g>
<!-- Node1&#45;&gt;Node4 -->
<g id="edge3" class="edge"><title>Node1&#45;&gt;Node4</title>
<path fill="none" stroke="midnightblue" d="M129.698,-46.7515C149.207,-41.4409 170.402,-35.6712 189.208,-30.5516"/>
<polygon fill="midnightblue" stroke="midnightblue" points="128.704,-43.3947 119.975,-49.3986 130.543,-50.149 128.704,-43.3947"/>
</g>
</g>
</svg>
