<?xml version="1.0" encoding="UTF-8" standalone="no"?>
<!DOCTYPE svg PUBLIC "-//W3C//DTD SVG 1.1//EN"
 "http://www.w3.org/Graphics/SVG/1.1/DTD/svg11.dtd">
<!-- Generated by graphviz version 2.38.0 (20140413.2041)
 -->
<!-- Title: org.msrg.raccoon.engine.CodingEngineTest.setUp Pages: 1 -->
<!--zoomable 465 -->
<svg id="main" version="1.1" xmlns="http://www.w3.org/2000/svg" xmlns:xlink="http://www.w3.org/1999/xlink" xml:space="preserve" onload="init(evt)">
<style type="text/css"><![CDATA[
.edge:hover path { stroke: red; }
.edge:hover polygon { stroke: red; fill: red; }
]]></style>
<script type="text/javascript"><![CDATA[
var edges = document.getElementsByTagName('g');
if (edges && edges.length) {
  for (var i=0;i<edges.length;i++) {
    if (edges[i].id.substr(0,4)=='edge') {
      edges[i].setAttribute('class','edge');
    }
  }
}
]]></script>
        <defs>
                <circle id="rim" cx="0" cy="0" r="7"/>
                <circle id="rim2" cx="0" cy="0" r="3.5"/>
                <g id="zoomPlus">
                        <use xlink:href="#rim" fill="#404040">
                                <set attributeName="fill" to="#808080" begin="zoomplus.mouseover" end="zoomplus.mouseout"/>
                        </use>
                        <path d="M-4,0h8M0,-4v8" fill="none" stroke="white" stroke-width="1.5" pointer-events="none"/>
                </g>
                <g id="zoomMin">
                        <use xlink:href="#rim" fill="#404040">
                                <set attributeName="fill" to="#808080" begin="zoomminus.mouseover" end="zoomminus.mouseout"/>
                        </use>
                        <path d="M-4,0h8" fill="none" stroke="white" stroke-width="1.5" pointer-events="none"/>
                </g>
                <g id="dirArrow">
                        <path fill="none" stroke="white" stroke-width="1.5" d="M0,-3.0v7 M-2.5,-0.5L0,-3.0L2.5,-0.5"/>
                </g>
               <g id="resetDef">
                       <use xlink:href="#rim2" fill="#404040">
                               <set attributeName="fill" to="#808080" begin="reset.mouseover" end="reset.mouseout"/>
                       </use>
               </g>
        </defs>

<script type="text/javascript">
var viewWidth = 589;
var viewHeight = 465;
var sectionId = 'dynsection-0';
</script>
<script xlink:href="../../svgpan.js"/>
<svg id="graph" class="graph">
<g id="viewport">
<title>org.msrg.raccoon.engine.CodingEngineTest.setUp</title>
<!-- Node1 -->
<g id="node1" class="node"><title>Node1</title>
<polygon fill="#bfbfbf" stroke="black" points="0,-132.5 0,-162.5 127,-162.5 127,-132.5 0,-132.5"/>
<text text-anchor="start" x="8" y="-150.5" font-family="Helvetica,sans-Serif" font-size="10.00">org.msrg.raccoon.engine.</text>
<text text-anchor="middle" x="63.5" y="-139.5" font-family="Helvetica,sans-Serif" font-size="10.00">CodingEngineTest.setUp</text>
</g>
<!-- Node2 -->
<g id="node2" class="node"><title>Node2</title>
<g id="a_node2"><a xlink:href="../../df/da4/classorg_1_1msrg_1_1raccoon_1_1matrix_1_1bulk_1_1BulkMatrix_a8a2fe48f174a616aa6ab6535ffd6a3d3.html#a8a2fe48f174a616aa6ab6535ffd6a3d3" target="_top" xlink:title="org.msrg.raccoon.matrix.bulk.\lBulkMatrix.createBulkMatixIncrementalData">
<polygon fill="none" stroke="black" points="163,-328.5 163,-358.5 372,-358.5 372,-328.5 163,-328.5"/>
<text text-anchor="start" x="171" y="-346.5" font-family="Helvetica,sans-Serif" font-size="10.00">org.msrg.raccoon.matrix.bulk.</text>
<text text-anchor="middle" x="267.5" y="-335.5" font-family="Helvetica,sans-Serif" font-size="10.00">BulkMatrix.createBulkMatixIncrementalData</text>
</a>
</g>
</g>
<!-- Node1&#45;&gt;Node2 -->
<g id="edge1" class="edge"><title>Node1&#45;&gt;Node2</title>
<path fill="none" stroke="midnightblue" d="M79.3565,-162.759C98.4996,-182.346 132.901,-217.287 163,-246.5 189.796,-272.507 221.159,-301.735 242.279,-321.246"/>
<polygon fill="midnightblue" stroke="midnightblue" points="240.117,-324.013 249.841,-328.22 244.863,-318.868 240.117,-324.013"/>
</g>
<!-- Node7 -->
<g id="node7" class="node"><title>Node7</title>
<g id="a_node7"><a xlink:href="../../dd/d36/classorg_1_1msrg_1_1raccoon_1_1matrix_1_1finitefields_1_1ByteMatrix_ac958e4d2d814edc27719b059d8fd08c2.html#ac958e4d2d814edc27719b059d8fd08c2" target="_top" xlink:title="org.msrg.raccoon.matrix.finitefields.\lByteMatrix.createRandomByteMatrix">
<polygon fill="none" stroke="black" points="178.5,-206.5 178.5,-236.5 356.5,-236.5 356.5,-206.5 178.5,-206.5"/>
<text text-anchor="start" x="186.5" y="-224.5" font-family="Helvetica,sans-Serif" font-size="10.00">org.msrg.raccoon.matrix.finitefields.</text>
<text text-anchor="middle" x="267.5" y="-213.5" font-family="Helvetica,sans-Serif" font-size="10.00">ByteMatrix.createRandomByteMatrix</text>
</a>
</g>
</g>
<!-- Node1&#45;&gt;Node7 -->
<g id="edge6" class="edge"><title>Node1&#45;&gt;Node7</title>
<path fill="none" stroke="midnightblue" d="M90.0677,-162.647C109.513,-173.625 137.227,-188.128 163,-197.5 169.173,-199.745 175.631,-201.829 182.176,-203.755"/>
<polygon fill="midnightblue" stroke="midnightblue" points="181.229,-207.125 191.803,-206.463 183.124,-200.386 181.229,-207.125"/>
</g>
<!-- Node10 -->
<g id="node10" class="node"><title>Node10</title>
<g id="a_node10"><a xlink:href="../../d6/d6d/classorg_1_1msrg_1_1raccoon_1_1matrix_1_1bulk_1_1SliceMatrix_a7318d69d3be32600d6e441c82f505a7f.html#a7318d69d3be32600d6e441c82f505a7f" target="_top" xlink:title="org.msrg.raccoon.matrix.bulk.\lSliceMatrix.createRandomSliceMatrix">
<polygon fill="none" stroke="black" points="177,-157.5 177,-187.5 358,-187.5 358,-157.5 177,-157.5"/>
<text text-anchor="start" x="185" y="-175.5" font-family="Helvetica,sans-Serif" font-size="10.00">org.msrg.raccoon.matrix.bulk.</text>
<text text-anchor="middle" x="267.5" y="-164.5" font-family="Helvetica,sans-Serif" font-size="10.00">SliceMatrix.createRandomSliceMatrix</text>
</a>
</g>
</g>
<!-- Node1&#45;&gt;Node10 -->
<g id="edge9" class="edge"><title>Node1&#45;&gt;Node10</title>
<path fill="none" stroke="midnightblue" d="M127.031,-155.239C139.588,-156.793 153.078,-158.463 166.544,-160.129"/>
<polygon fill="midnightblue" stroke="midnightblue" points="166.466,-163.646 176.82,-161.401 167.326,-156.699 166.466,-163.646"/>
</g>
<!-- Node12 -->
<g id="node12" class="node"><title>Node12</title>
<g id="a_node12"><a xlink:href="../../dd/dff/interfaceorg_1_1msrg_1_1raccoon_1_1engine_1_1ICodingEngine_a3556ec220c369696bba586fe8f2bc7fc.html#a3556ec220c369696bba586fe8f2bc7fc" target="_top" xlink:title="org.msrg.raccoon.engine.\lICodingEngine.init">
<polygon fill="none" stroke="black" points="204,-108.5 204,-138.5 331,-138.5 331,-108.5 204,-108.5"/>
<text text-anchor="start" x="212" y="-126.5" font-family="Helvetica,sans-Serif" font-size="10.00">org.msrg.raccoon.engine.</text>
<text text-anchor="middle" x="267.5" y="-115.5" font-family="Helvetica,sans-Serif" font-size="10.00">ICodingEngine.init</text>
</a>
</g>
</g>
<!-- Node1&#45;&gt;Node12 -->
<g id="edge11" class="edge"><title>Node1&#45;&gt;Node12</title>
<path fill="none" stroke="midnightblue" d="M127.031,-140.071C148.137,-137.563 171.878,-134.742 193.707,-132.149"/>
<polygon fill="midnightblue" stroke="midnightblue" points="194.4,-135.591 203.917,-130.936 193.574,-128.64 194.4,-135.591"/>
</g>
<!-- Node13 -->
<g id="node13" class="node"><title>Node13</title>
<g id="a_node13"><a xlink:href="../../dd/dff/interfaceorg_1_1msrg_1_1raccoon_1_1engine_1_1ICodingEngine_afc55b7f540c8c90fd99de0f2d54c57cb.html#afc55b7f540c8c90fd99de0f2d54c57cb" target="_top" xlink:title="org.msrg.raccoon.engine.\lICodingEngine.registerCoding\lListener">
<polygon fill="none" stroke="black" points="194.5,-49 194.5,-90 340.5,-90 340.5,-49 194.5,-49"/>
<text text-anchor="start" x="202.5" y="-78" font-family="Helvetica,sans-Serif" font-size="10.00">org.msrg.raccoon.engine.</text>
<text text-anchor="start" x="202.5" y="-67" font-family="Helvetica,sans-Serif" font-size="10.00">ICodingEngine.registerCoding</text>
<text text-anchor="middle" x="267.5" y="-56" font-family="Helvetica,sans-Serif" font-size="10.00">Listener</text>
</a>
</g>
</g>
<!-- Node1&#45;&gt;Node13 -->
<g id="edge12" class="edge"><title>Node1&#45;&gt;Node13</title>
<path fill="none" stroke="midnightblue" d="M91.4729,-132.351C110.926,-121.859 138.045,-108.105 163,-98.5 169.885,-95.8503 177.111,-93.3274 184.409,-90.9554"/>
<polygon fill="midnightblue" stroke="midnightblue" points="185.893,-94.1576 194.381,-87.8165 183.791,-87.4806 185.893,-94.1576"/>
</g>
<!-- Node14 -->
<g id="node14" class="node"><title>Node14</title>
<g id="a_node14"><a xlink:href="../../dd/dff/interfaceorg_1_1msrg_1_1raccoon_1_1engine_1_1ICodingEngine_aec139adde5c4769f1b5de32e321ac936.html#aec139adde5c4769f1b5de32e321ac936" target="_top" xlink:title="org.msrg.raccoon.engine.\lICodingEngine.startComponent">
<polygon fill="none" stroke="black" points="191,-0.5 191,-30.5 344,-30.5 344,-0.5 191,-0.5"/>
<text text-anchor="start" x="199" y="-18.5" font-family="Helvetica,sans-Serif" font-size="10.00">org.msrg.raccoon.engine.</text>
<text text-anchor="middle" x="267.5" y="-7.5" font-family="Helvetica,sans-Serif" font-size="10.00">ICodingEngine.startComponent</text>
</a>
</g>
</g>
<!-- Node1&#45;&gt;Node14 -->
<g id="edge13" class="edge"><title>Node1&#45;&gt;Node14</title>
<path fill="none" stroke="midnightblue" d="M73.9292,-132.274C89.4478,-108.562 122.703,-63.0897 163,-39.5 168.775,-36.1191 174.993,-33.2144 181.411,-30.7189"/>
<polygon fill="midnightblue" stroke="midnightblue" points="182.671,-33.9855 190.929,-27.3477 180.334,-27.3872 182.671,-33.9855"/>
</g>
<!-- Node3 -->
<g id="node3" class="node"><title>Node3</title>
<g id="a_node3"><a xlink:href="../../df/da4/classorg_1_1msrg_1_1raccoon_1_1matrix_1_1bulk_1_1BulkMatrix_ae52685687565b5725a204d70237d300a.html#ae52685687565b5725a204d70237d300a" target="_top" xlink:title="org.msrg.raccoon.matrix.bulk.\lBulkMatrix.BulkMatrix">
<polygon fill="none" stroke="black" points="421.5,-426.5 421.5,-456.5 567.5,-456.5 567.5,-426.5 421.5,-426.5"/>
<text text-anchor="start" x="429.5" y="-444.5" font-family="Helvetica,sans-Serif" font-size="10.00">org.msrg.raccoon.matrix.bulk.</text>
<text text-anchor="middle" x="494.5" y="-433.5" font-family="Helvetica,sans-Serif" font-size="10.00">BulkMatrix.BulkMatrix</text>
</a>
</g>
</g>
<!-- Node2&#45;&gt;Node3 -->
<g id="edge2" class="edge"><title>Node2&#45;&gt;Node3</title>
<path fill="none" stroke="midnightblue" d="M292.929,-358.533C320.192,-374.81 366.003,-400.692 408,-417.5 413.099,-419.541 418.435,-421.478 423.843,-423.302"/>
<polygon fill="midnightblue" stroke="midnightblue" points="423.027,-426.716 433.619,-426.459 425.178,-420.055 423.027,-426.716"/>
</g>
<!-- Node4 -->
<g id="node4" class="node"><title>Node4</title>
<g id="a_node4"><a xlink:href="../../df/da4/classorg_1_1msrg_1_1raccoon_1_1matrix_1_1bulk_1_1BulkMatrix_a98b3c00a4eb4e1864c20182b3ae0e8ec.html#a98b3c00a4eb4e1864c20182b3ae0e8ec" target="_top" xlink:title="org.msrg.raccoon.matrix.bulk.\lBulkMatrix.getSliceCount">
<polygon fill="none" stroke="black" points="421.5,-377.5 421.5,-407.5 567.5,-407.5 567.5,-377.5 421.5,-377.5"/>
<text text-anchor="start" x="429.5" y="-395.5" font-family="Helvetica,sans-Serif" font-size="10.00">org.msrg.raccoon.matrix.bulk.</text>
<text text-anchor="middle" x="494.5" y="-384.5" font-family="Helvetica,sans-Serif" font-size="10.00">BulkMatrix.getSliceCount</text>
</a>
</g>
</g>
<!-- Node2&#45;&gt;Node4 -->
<g id="edge3" class="edge"><title>Node2&#45;&gt;Node4</title>
<path fill="none" stroke="midnightblue" d="M337.537,-358.535C361.941,-363.849 389.571,-369.867 414.722,-375.344"/>
<polygon fill="midnightblue" stroke="midnightblue" points="414.078,-378.786 424.594,-377.494 415.568,-371.946 414.078,-378.786"/>
</g>
<!-- Node5 -->
<g id="node5" class="node"><title>Node5</title>
<g id="a_node5"><a xlink:href="../../df/da4/classorg_1_1msrg_1_1raccoon_1_1matrix_1_1bulk_1_1BulkMatrix_a7f382b71b1e7fb03fa68f22724f75f88.html#a7f382b71b1e7fb03fa68f22724f75f88" target="_top" xlink:title="org.msrg.raccoon.matrix.bulk.\lBulkMatrix.slice">
<polygon fill="none" stroke="black" points="421.5,-328.5 421.5,-358.5 567.5,-358.5 567.5,-328.5 421.5,-328.5"/>
<text text-anchor="start" x="429.5" y="-346.5" font-family="Helvetica,sans-Serif" font-size="10.00">org.msrg.raccoon.matrix.bulk.</text>
<text text-anchor="middle" x="494.5" y="-335.5" font-family="Helvetica,sans-Serif" font-size="10.00">BulkMatrix.slice</text>
</a>
</g>
</g>
<!-- Node2&#45;&gt;Node5 -->
<g id="edge4" class="edge"><title>Node2&#45;&gt;Node5</title>
<path fill="none" stroke="midnightblue" d="M372.109,-343.5C385.214,-343.5 398.481,-343.5 411.193,-343.5"/>
<polygon fill="midnightblue" stroke="midnightblue" points="411.254,-347 421.254,-343.5 411.254,-340 411.254,-347"/>
</g>
<!-- Node6 -->
<g id="node6" class="node"><title>Node6</title>
<g id="a_node6"><a xlink:href="../../d6/d6d/classorg_1_1msrg_1_1raccoon_1_1matrix_1_1bulk_1_1SliceMatrix_a4c85807433398a037c9d6885569fba0e.html#a4c85807433398a037c9d6885569fba0e" target="_top" xlink:title="org.msrg.raccoon.matrix.bulk.\lSliceMatrix.loadNoCopy">
<polygon fill="none" stroke="black" points="421.5,-279.5 421.5,-309.5 567.5,-309.5 567.5,-279.5 421.5,-279.5"/>
<text text-anchor="start" x="429.5" y="-297.5" font-family="Helvetica,sans-Serif" font-size="10.00">org.msrg.raccoon.matrix.bulk.</text>
<text text-anchor="middle" x="494.5" y="-286.5" font-family="Helvetica,sans-Serif" font-size="10.00">SliceMatrix.loadNoCopy</text>
</a>
</g>
</g>
<!-- Node2&#45;&gt;Node6 -->
<g id="edge5" class="edge"><title>Node2&#45;&gt;Node6</title>
<path fill="none" stroke="midnightblue" d="M337.537,-328.465C361.941,-323.151 389.571,-317.133 414.722,-311.656"/>
<polygon fill="midnightblue" stroke="midnightblue" points="415.568,-315.054 424.594,-309.506 414.078,-308.214 415.568,-315.054"/>
</g>
<!-- Node8 -->
<g id="node8" class="node"><title>Node8</title>
<g id="a_node8"><a xlink:href="../../de/d17/classorg_1_1msrg_1_1raccoon_1_1matrix_1_1finitefields_1_1FFByteMatrix_a0168a50b2630c4e56b191a23671e77eb.html#a0168a50b2630c4e56b191a23671e77eb" target="_top" xlink:title="org.msrg.raccoon.matrix.finitefields.\lFFByteMatrix.random">
<polygon fill="none" stroke="black" points="408,-230.5 408,-260.5 581,-260.5 581,-230.5 408,-230.5"/>
<text text-anchor="start" x="416" y="-248.5" font-family="Helvetica,sans-Serif" font-size="10.00">org.msrg.raccoon.matrix.finitefields.</text>
<text text-anchor="middle" x="494.5" y="-237.5" font-family="Helvetica,sans-Serif" font-size="10.00">FFByteMatrix.random</text>
</a>
</g>
</g>
<!-- Node7&#45;&gt;Node8 -->
<g id="edge7" class="edge"><title>Node7&#45;&gt;Node8</title>
<path fill="none" stroke="midnightblue" d="M356.78,-230.917C370.123,-232.34 383.943,-233.814 397.44,-235.254"/>
<polygon fill="midnightblue" stroke="midnightblue" points="397.37,-238.766 407.685,-236.346 398.113,-231.805 397.37,-238.766"/>
</g>
<!-- Node9 -->
<g id="node9" class="node"><title>Node9</title>
<g id="a_node9"><a xlink:href="../../dd/d36/classorg_1_1msrg_1_1raccoon_1_1matrix_1_1finitefields_1_1ByteMatrix_a515c451c10e6b9529825b809f477c655.html#a515c451c10e6b9529825b809f477c655" target="_top" xlink:title="org.msrg.raccoon.matrix.finitefields.\lByteMatrix.ByteMatrix">
<polygon fill="none" stroke="black" points="408,-181.5 408,-211.5 581,-211.5 581,-181.5 408,-181.5"/>
<text text-anchor="start" x="416" y="-199.5" font-family="Helvetica,sans-Serif" font-size="10.00">org.msrg.raccoon.matrix.finitefields.</text>
<text text-anchor="middle" x="494.5" y="-188.5" font-family="Helvetica,sans-Serif" font-size="10.00">ByteMatrix.ByteMatrix</text>
</a>
</g>
</g>
<!-- Node7&#45;&gt;Node9 -->
<g id="edge8" class="edge"><title>Node7&#45;&gt;Node9</title>
<path fill="none" stroke="midnightblue" d="M356.78,-211.691C370.123,-210.209 383.943,-208.673 397.44,-207.173"/>
<polygon fill="midnightblue" stroke="midnightblue" points="398.133,-210.618 407.685,-206.035 397.36,-203.661 398.133,-210.618"/>
</g>
<!-- Node11 -->
<g id="node11" class="node"><title>Node11</title>
<g id="a_node11"><a xlink:href="../../d6/d6d/classorg_1_1msrg_1_1raccoon_1_1matrix_1_1bulk_1_1SliceMatrix_aeb3fa63b05dee9bbf6e2f5779ab0c134.html#aeb3fa63b05dee9bbf6e2f5779ab0c134" target="_top" xlink:title="org.msrg.raccoon.matrix.bulk.\lSliceMatrix.SliceMatrix">
<polygon fill="none" stroke="black" points="421.5,-132.5 421.5,-162.5 567.5,-162.5 567.5,-132.5 421.5,-132.5"/>
<text text-anchor="start" x="429.5" y="-150.5" font-family="Helvetica,sans-Serif" font-size="10.00">org.msrg.raccoon.matrix.bulk.</text>
<text text-anchor="middle" x="494.5" y="-139.5" font-family="Helvetica,sans-Serif" font-size="10.00">SliceMatrix.SliceMatrix</text>
</a>
</g>
</g>
<!-- Node10&#45;&gt;Node11 -->
<g id="edge10" class="edge"><title>Node10&#45;&gt;Node11</title>
<path fill="none" stroke="midnightblue" d="M358.072,-162.548C375.59,-160.601 393.883,-158.569 411.152,-156.65"/>
<polygon fill="midnightblue" stroke="midnightblue" points="411.635,-160.118 421.188,-155.535 410.862,-153.161 411.635,-160.118"/>
</g>
</g>
</svg>
        <g id="navigator" transform="translate(0 0)" fill="#404254">
                <rect fill="#f2f5e9" fill-opacity="0.5" stroke="#606060" stroke-width=".5" x="0" y="0" width="60" height="60"/>
                <use id="zoomplus" xlink:href="#zoomPlus" x="17" y="9" onmousedown="handleZoom(evt,'in')"/>
                <use id="zoomminus" xlink:href="#zoomMin" x="42" y="9" onmousedown="handleZoom(evt,'out')"/>
                <use id="reset" xlink:href="#resetDef" x="30" y="36" onmousedown="handleReset()"/>
                <g id="arrowUp" xlink:href="#dirArrow" transform="translate(30 24)" onmousedown="handlePan(0,-1)">
                  <use xlink:href="#rim" fill="#404040">
                        <set attributeName="fill" to="#808080" begin="arrowUp.mouseover" end="arrowUp.mouseout"/>
                  </use>
                  <path fill="none" stroke="white" stroke-width="1.5" d="M0,-3.0v7 M-2.5,-0.5L0,-3.0L2.5,-0.5"/>
                </g>
                <g id="arrowRight" xlink:href="#dirArrow" transform="rotate(90) translate(36 -43)" onmousedown="handlePan(1,0)">
                  <use xlink:href="#rim" fill="#404040">
                        <set attributeName="fill" to="#808080" begin="arrowRight.mouseover" end="arrowRight.mouseout"/>
                  </use>
                  <path fill="none" stroke="white" stroke-width="1.5" d="M0,-3.0v7 M-2.5,-0.5L0,-3.0L2.5,-0.5"/>
                </g>
                <g id="arrowDown" xlink:href="#dirArrow" transform="rotate(180) translate(-30 -48)" onmousedown="handlePan(0,1)">
                  <use xlink:href="#rim" fill="#404040">
                        <set attributeName="fill" to="#808080" begin="arrowDown.mouseover" end="arrowDown.mouseout"/>
                  </use>
                  <path fill="none" stroke="white" stroke-width="1.5" d="M0,-3.0v7 M-2.5,-0.5L0,-3.0L2.5,-0.5"/>
                </g>
                <g id="arrowLeft" xlink:href="#dirArrow" transform="rotate(270) translate(-36 17)" onmousedown="handlePan(-1,0)">
                  <use xlink:href="#rim" fill="#404040">
                        <set attributeName="fill" to="#808080" begin="arrowLeft.mouseover" end="arrowLeft.mouseout"/>
                  </use>
                  <path fill="none" stroke="white" stroke-width="1.5" d="M0,-3.0v7 M-2.5,-0.5L0,-3.0L2.5,-0.5"/>
                </g>
        </g>
        <svg viewBox="0 0 15 15" width="100%" height="30px" preserveAspectRatio="xMaxYMin meet">
         <g id="arrow_out" transform="scale(0.3 0.3)">
          <a xlink:href="classorg_1_1msrg_1_1raccoon_1_1engine_1_1CodingEngineTest_a1a3ce31a699af797e95ece5666d7e394_a1a3ce31a699af797e95ece5666d7e394_cgraph_org.svg" target="_base">
           <rect id="button" ry="5" rx="5" y="6" x="6" height="38" width="38"
                fill="#f2f5e9" fill-opacity="0.5" stroke="#606060" stroke-width="1.0"/>
           <path id="arrow"
             d="M 11.500037,31.436501 C 11.940474,20.09759 22.043105,11.32322 32.158766,21.979434 L 37.068811,17.246167 C 37.068811,17.246167 37.088388,32 37.088388,32 L 22.160133,31.978069 C 22.160133,31.978069 26.997745,27.140456 26.997745,27.140456 C 18.528582,18.264221 13.291696,25.230495 11.500037,31.436501 z"
             style="fill:#404040;"/>
          </a>
         </g>
        </svg>
</svg>
