<?xml version="1.0" encoding="UTF-8" standalone="no"?>
<!DOCTYPE svg PUBLIC "-//W3C//DTD SVG 1.1//EN"
 "http://www.w3.org/Graphics/SVG/1.1/DTD/svg11.dtd">
<!-- Generated by graphviz version 2.38.0 (20140413.2041)
 -->
<!-- Title: org.msrg.raccoon.engine.task.sequential.SequentialCodingTask.reachedFinalStage Pages: 1 -->
<svg width="742pt" height="428pt"
 viewBox="0.00 0.00 742.00 428.00" xmlns="http://www.w3.org/2000/svg" xmlns:xlink="http://www.w3.org/1999/xlink">
<g id="graph0" class="graph" transform="scale(1 1) rotate(0) translate(4 424)">
<title>org.msrg.raccoon.engine.task.sequential.SequentialCodingTask.reachedFinalStage</title>
<!-- Node2 -->
<g id="node1" class="node"><title>Node2</title>
<polygon fill="#bfbfbf" stroke="black" points="0,-195 0,-225 199,-225 199,-195 0,-195"/>
<text text-anchor="start" x="8" y="-213" font-family="Helvetica,sans-Serif" font-size="10.00">org.msrg.raccoon.engine.task.sequential.</text>
<text text-anchor="middle" x="99.5" y="-202" font-family="Helvetica,sans-Serif" font-size="10.00">SequentialCodingTask.reachedFinalStage</text>
</g>
<!-- Node3 -->
<g id="node2" class="node"><title>Node3</title>
<g id="a_node2"><a xlink:href="../../d4/d5e/classorg_1_1msrg_1_1raccoon_1_1engine_1_1task_1_1sequential_1_1MultiplyInverseMultiplyEqual__SequentialCodingTask_a486ab503957784e8d6aa52a9ddde130d.html#a486ab503957784e8d6aa52a9ddde130d" target="_top" xlink:title="org.msrg.raccoon.engine.task.sequential.\lMultiplyInverseMultiplyEqual_Sequential\lCodingTask.codingFinished">
<polygon fill="none" stroke="black" points="266,-378.5 266,-419.5 462,-419.5 462,-378.5 266,-378.5"/>
<text text-anchor="start" x="274" y="-407.5" font-family="Helvetica,sans-Serif" font-size="10.00">org.msrg.raccoon.engine.task.sequential.</text>
<text text-anchor="start" x="274" y="-396.5" font-family="Helvetica,sans-Serif" font-size="10.00">MultiplyInverseMultiplyEqual_Sequential</text>
<text text-anchor="middle" x="364" y="-385.5" font-family="Helvetica,sans-Serif" font-size="10.00">CodingTask.codingFinished</text>
</a>
</g>
</g>
<!-- Node2&#45;&gt;Node3 -->
<g id="edge1" class="edge"><title>Node2&#45;&gt;Node3</title>
<path fill="none" stroke="midnightblue" d="M113.735,-233.703C134.694,-268.945 178.957,-334.682 235,-369 244.538,-374.84 255.114,-379.544 265.981,-383.332"/>
<polygon fill="midnightblue" stroke="midnightblue" points="116.74,-231.909 108.682,-225.03 110.691,-235.432 116.74,-231.909"/>
</g>
<!-- Node4 -->
<g id="node3" class="node"><title>Node4</title>
<g id="a_node3"><a xlink:href="../../dc/d76/classorg_1_1msrg_1_1raccoon_1_1engine_1_1task_1_1sequential_1_1BulkMatrixEqual__CodingTask_a2b079bf5a4d740b867ed98740abb0b49.html#a2b079bf5a4d740b867ed98740abb0b49" target="_top" xlink:title="org.msrg.raccoon.engine.task.sequential.\lBulkMatrixEqual_CodingTask.codingFinished">
<polygon fill="none" stroke="black" points="257,-329 257,-359 471,-359 471,-329 257,-329"/>
<text text-anchor="start" x="265" y="-347" font-family="Helvetica,sans-Serif" font-size="10.00">org.msrg.raccoon.engine.task.sequential.</text>
<text text-anchor="middle" x="364" y="-336" font-family="Helvetica,sans-Serif" font-size="10.00">BulkMatrixEqual_CodingTask.codingFinished</text>
</a>
</g>
</g>
<!-- Node2&#45;&gt;Node4 -->
<g id="edge2" class="edge"><title>Node2&#45;&gt;Node4</title>
<path fill="none" stroke="midnightblue" d="M121.115,-232.637C145.664,-258.097 189.145,-298.667 235,-320 242.38,-323.433 250.215,-326.376 258.233,-328.897"/>
<polygon fill="midnightblue" stroke="midnightblue" points="123.542,-230.109 114.122,-225.258 118.461,-234.924 123.542,-230.109"/>
</g>
<!-- Node5 -->
<g id="node4" class="node"><title>Node5</title>
<g id="a_node4"><a xlink:href="../../d3/d36/classorg_1_1msrg_1_1raccoon_1_1engine_1_1task_1_1sequential_1_1Decoding__SequentialCodingTask_a3497f9c294517ca7934dea0ad28f411d.html#a3497f9c294517ca7934dea0ad28f411d" target="_top" xlink:title="org.msrg.raccoon.engine.task.sequential.\lDecoding_SequentialCodingTask.codingFinished">
<polygon fill="none" stroke="black" points="249,-280 249,-310 479,-310 479,-280 249,-280"/>
<text text-anchor="start" x="257" y="-298" font-family="Helvetica,sans-Serif" font-size="10.00">org.msrg.raccoon.engine.task.sequential.</text>
<text text-anchor="middle" x="364" y="-287" font-family="Helvetica,sans-Serif" font-size="10.00">Decoding_SequentialCodingTask.codingFinished</text>
</a>
</g>
</g>
<!-- Node2&#45;&gt;Node5 -->
<g id="edge3" class="edge"><title>Node2&#45;&gt;Node5</title>
<path fill="none" stroke="midnightblue" d="M138.414,-229.698C164.876,-242.747 201.345,-259.359 235,-270 246.982,-273.789 259.784,-277.109 272.489,-279.987"/>
<polygon fill="midnightblue" stroke="midnightblue" points="139.652,-226.404 129.142,-225.069 136.526,-232.667 139.652,-226.404"/>
</g>
<!-- Node6 -->
<g id="node5" class="node"><title>Node6</title>
<g id="a_node5"><a xlink:href="../../de/d11/classorg_1_1msrg_1_1raccoon_1_1engine_1_1task_1_1sequential_1_1EncodingDecodingEqual__SequentialCodingTask_a13129faffdbf845a23ffdd2def1c2f1a.html#a13129faffdbf845a23ffdd2def1c2f1a" target="_top" xlink:title="org.msrg.raccoon.engine.task.sequential.\lEncodingDecodingEqual_SequentialCodingTask.coding\lFinished">
<polygon fill="none" stroke="black" points="235,-219.5 235,-260.5 493,-260.5 493,-219.5 235,-219.5"/>
<text text-anchor="start" x="243" y="-248.5" font-family="Helvetica,sans-Serif" font-size="10.00">org.msrg.raccoon.engine.task.sequential.</text>
<text text-anchor="start" x="243" y="-237.5" font-family="Helvetica,sans-Serif" font-size="10.00">EncodingDecodingEqual_SequentialCodingTask.coding</text>
<text text-anchor="middle" x="364" y="-226.5" font-family="Helvetica,sans-Serif" font-size="10.00">Finished</text>
</a>
</g>
</g>
<!-- Node2&#45;&gt;Node6 -->
<g id="edge4" class="edge"><title>Node2&#45;&gt;Node6</title>
<path fill="none" stroke="midnightblue" d="M209.53,-222.461C217.92,-223.419 226.436,-224.393 234.934,-225.364"/>
<polygon fill="midnightblue" stroke="midnightblue" points="209.699,-218.957 199.366,-221.299 208.904,-225.912 209.699,-218.957"/>
</g>
<!-- Node7 -->
<g id="node6" class="node"><title>Node7</title>
<g id="a_node6"><a xlink:href="../../df/d07/classorg_1_1msrg_1_1raccoon_1_1engine_1_1task_1_1sequential_1_1MultiplyBulkMatrix__SequentialCodingTask_a811e36a15733ee58c71e7b8f12f0cec8.html#a811e36a15733ee58c71e7b8f12f0cec8" target="_top" xlink:title="org.msrg.raccoon.engine.task.sequential.\lMultiplyBulkMatrix_SequentialCodingTask.coding\lFinished">
<polygon fill="none" stroke="black" points="248,-159.5 248,-200.5 480,-200.5 480,-159.5 248,-159.5"/>
<text text-anchor="start" x="256" y="-188.5" font-family="Helvetica,sans-Serif" font-size="10.00">org.msrg.raccoon.engine.task.sequential.</text>
<text text-anchor="start" x="256" y="-177.5" font-family="Helvetica,sans-Serif" font-size="10.00">MultiplyBulkMatrix_SequentialCodingTask.coding</text>
<text text-anchor="middle" x="364" y="-166.5" font-family="Helvetica,sans-Serif" font-size="10.00">Finished</text>
</a>
</g>
</g>
<!-- Node2&#45;&gt;Node7 -->
<g id="edge5" class="edge"><title>Node2&#45;&gt;Node7</title>
<path fill="none" stroke="midnightblue" d="M209.471,-197.546C222.159,-196.096 235.133,-194.613 247.9,-193.154"/>
<polygon fill="midnightblue" stroke="midnightblue" points="208.904,-194.088 199.366,-198.701 209.699,-201.043 208.904,-194.088"/>
</g>
<!-- Node8 -->
<g id="node7" class="node"><title>Node8</title>
<g id="a_node7"><a xlink:href="../../dd/db2/classorg_1_1msrg_1_1raccoon_1_1engine_1_1task_1_1sequential_1_1Encoding__SequentialCodingTask_a93b6d3396f71634bf3f2b9e6a9ea23f3.html#a93b6d3396f71634bf3f2b9e6a9ea23f3" target="_top" xlink:title="org.msrg.raccoon.engine.task.sequential.\lEncoding_SequentialCodingTask.codingFinished">
<polygon fill="none" stroke="black" points="249.5,-110 249.5,-140 478.5,-140 478.5,-110 249.5,-110"/>
<text text-anchor="start" x="257.5" y="-128" font-family="Helvetica,sans-Serif" font-size="10.00">org.msrg.raccoon.engine.task.sequential.</text>
<text text-anchor="middle" x="364" y="-117" font-family="Helvetica,sans-Serif" font-size="10.00">Encoding_SequentialCodingTask.codingFinished</text>
</a>
</g>
</g>
<!-- Node2&#45;&gt;Node8 -->
<g id="edge6" class="edge"><title>Node2&#45;&gt;Node8</title>
<path fill="none" stroke="midnightblue" d="M138.414,-190.302C164.876,-177.253 201.345,-160.641 235,-150 246.982,-146.211 259.784,-142.891 272.489,-140.013"/>
<polygon fill="midnightblue" stroke="midnightblue" points="136.526,-187.333 129.142,-194.931 139.652,-193.596 136.526,-187.333"/>
</g>
<!-- Node9 -->
<g id="node8" class="node"><title>Node9</title>
<g id="a_node8"><a xlink:href="../../d6/d78/classorg_1_1msrg_1_1raccoon_1_1engine_1_1task_1_1sequential_1_1SequentialCodingTask_a0f1697228b30f8a446c0e9c2516010f8.html#a0f1697228b30f8a446c0e9c2516010f8" target="_top" xlink:title="org.msrg.raccoon.engine.task.sequential.\lSequentialCodingTask.runInitialSequencialTasks">
<polygon fill="none" stroke="black" points="249,-61 249,-91 479,-91 479,-61 249,-61"/>
<text text-anchor="start" x="257" y="-79" font-family="Helvetica,sans-Serif" font-size="10.00">org.msrg.raccoon.engine.task.sequential.</text>
<text text-anchor="middle" x="364" y="-68" font-family="Helvetica,sans-Serif" font-size="10.00">SequentialCodingTask.runInitialSequencialTasks</text>
</a>
</g>
</g>
<!-- Node2&#45;&gt;Node9 -->
<g id="edge7" class="edge"><title>Node2&#45;&gt;Node9</title>
<path fill="none" stroke="midnightblue" d="M121.186,-187.636C145.801,-162.469 189.344,-122.325 235,-101 243.308,-97.1193 252.192,-93.8407 261.26,-91.0709"/>
<polygon fill="midnightblue" stroke="midnightblue" points="118.582,-185.294 114.173,-194.928 123.628,-190.146 118.582,-185.294"/>
</g>
<!-- Node11 -->
<g id="node10" class="node"><title>Node11</title>
<g id="a_node10"><a xlink:href="../../d5/daf/classorg_1_1msrg_1_1raccoon_1_1engine_1_1task_1_1sequential_1_1EncodingReceivedEncodingDecodingEqual__SequentialCodingTask_acf664608beaee091834399cde52cbf8f.html#acf664608beaee091834399cde52cbf8f" target="_top" xlink:title="org.msrg.raccoon.engine.task.sequential.\lEncodingReceivedEncodingDecodingEqual\l_SequentialCodingTask.runStagePrivately">
<polygon fill="none" stroke="black" points="261.5,-0.5 261.5,-41.5 466.5,-41.5 466.5,-0.5 261.5,-0.5"/>
<text text-anchor="start" x="269.5" y="-29.5" font-family="Helvetica,sans-Serif" font-size="10.00">org.msrg.raccoon.engine.task.sequential.</text>
<text text-anchor="start" x="269.5" y="-18.5" font-family="Helvetica,sans-Serif" font-size="10.00">EncodingReceivedEncodingDecodingEqual</text>
<text text-anchor="middle" x="364" y="-7.5" font-family="Helvetica,sans-Serif" font-size="10.00">_SequentialCodingTask.runStagePrivately</text>
</a>
</g>
</g>
<!-- Node2&#45;&gt;Node11 -->
<g id="edge9" class="edge"><title>Node2&#45;&gt;Node11</title>
<path fill="none" stroke="midnightblue" d="M113.735,-186.297C134.694,-151.055 178.957,-85.3181 235,-51 243.175,-45.9939 252.113,-41.8229 261.344,-38.3478"/>
<polygon fill="midnightblue" stroke="midnightblue" points="110.691,-184.568 108.682,-194.97 116.74,-188.091 110.691,-184.568"/>
</g>
<!-- Node10 -->
<g id="node9" class="node"><title>Node10</title>
<g id="a_node9"><a xlink:href="../../d6/d19/classorg_1_1msrg_1_1raccoon_1_1engine_1_1thread_1_1CodingThreadImpl_af81a44607be02e9f01c5f4c119ff5ed4.html#af81a44607be02e9f01c5f4c119ff5ed4" target="_top" xlink:title="org.msrg.raccoon.engine.thread.\lCodingThreadImpl.runTask">
<polygon fill="none" stroke="black" points="553,-61 553,-91 710,-91 710,-61 553,-61"/>
<text text-anchor="start" x="561" y="-79" font-family="Helvetica,sans-Serif" font-size="10.00">org.msrg.raccoon.engine.thread.</text>
<text text-anchor="middle" x="631.5" y="-68" font-family="Helvetica,sans-Serif" font-size="10.00">CodingThreadImpl.runTask</text>
</a>
</g>
</g>
<!-- Node9&#45;&gt;Node10 -->
<g id="edge8" class="edge"><title>Node9&#45;&gt;Node10</title>
<path fill="none" stroke="midnightblue" d="M489.381,-76C511.008,-76 532.933,-76 552.848,-76"/>
<polygon fill="midnightblue" stroke="midnightblue" points="489.137,-72.5001 479.137,-76 489.137,-79.5001 489.137,-72.5001"/>
</g>
<!-- Node12 -->
<g id="node11" class="node"><title>Node12</title>
<g id="a_node11"><a xlink:href="../../d5/daf/classorg_1_1msrg_1_1raccoon_1_1engine_1_1task_1_1sequential_1_1EncodingReceivedEncodingDecodingEqual__SequentialCodingTask_ad2c155a55fc3d08e007c03be1be0b195.html#ad2c155a55fc3d08e007c03be1be0b195" target="_top" xlink:title="org.msrg.raccoon.engine.task.sequential.\lEncodingReceivedEncodingDecodingEqual\l_SequentialCodingTask.codingFinished">
<polygon fill="none" stroke="black" points="529,-0.5 529,-41.5 734,-41.5 734,-0.5 529,-0.5"/>
<text text-anchor="start" x="537" y="-29.5" font-family="Helvetica,sans-Serif" font-size="10.00">org.msrg.raccoon.engine.task.sequential.</text>
<text text-anchor="start" x="537" y="-18.5" font-family="Helvetica,sans-Serif" font-size="10.00">EncodingReceivedEncodingDecodingEqual</text>
<text text-anchor="middle" x="631.5" y="-7.5" font-family="Helvetica,sans-Serif" font-size="10.00">_SequentialCodingTask.codingFinished</text>
</a>
</g>
</g>
<!-- Node11&#45;&gt;Node12 -->
<g id="edge10" class="edge"><title>Node11&#45;&gt;Node12</title>
<path fill="none" stroke="midnightblue" d="M476.6,-21C493.849,-21 511.586,-21 528.606,-21"/>
<polygon fill="midnightblue" stroke="midnightblue" points="476.511,-17.5001 466.511,-21 476.511,-24.5001 476.511,-17.5001"/>
</g>
</g>
</svg>
