<?xml version="1.0" encoding="UTF-8" standalone="no"?>
<!DOCTYPE svg PUBLIC "-//W3C//DTD SVG 1.1//EN"
 "http://www.w3.org/Graphics/SVG/1.1/DTD/svg11.dtd">
<!-- Generated by graphviz version 2.38.0 (20140413.2041)
 -->
<!-- Title: org.msrg.raccoon.engine.task.sequential.SequentialCodingTask.failed Pages: 1 -->
<svg width="818pt" height="647pt"
 viewBox="0.00 0.00 818.00 646.50" xmlns="http://www.w3.org/2000/svg" xmlns:xlink="http://www.w3.org/1999/xlink">
<g id="graph0" class="graph" transform="scale(1 1) rotate(0) translate(4 642.5)">
<title>org.msrg.raccoon.engine.task.sequential.SequentialCodingTask.failed</title>
<!-- Node1 -->
<g id="node1" class="node"><title>Node1</title>
<polygon fill="#bfbfbf" stroke="black" points="0,-318 0,-348 196,-348 196,-318 0,-318"/>
<text text-anchor="start" x="8" y="-336" font-family="Helvetica,sans-Serif" font-size="10.00">org.msrg.raccoon.engine.task.sequential.</text>
<text text-anchor="middle" x="98" y="-325" font-family="Helvetica,sans-Serif" font-size="10.00">SequentialCodingTask.failed</text>
</g>
<!-- Node2 -->
<g id="node2" class="node"><title>Node2</title>
<g id="a_node2"><a xlink:href="../../dc/d76/classorg_1_1msrg_1_1raccoon_1_1engine_1_1task_1_1sequential_1_1BulkMatrixEqual__CodingTask_ac87cafb90d582736ff38f416a068f56c.html#ac87cafb90d582736ff38f416a068f56c" target="_top" xlink:title="org.msrg.raccoon.engine.task.sequential.\lBulkMatrixEqual_CodingTask.codingFailed">
<polygon fill="none" stroke="black" points="272.5,-608 272.5,-638 475.5,-638 475.5,-608 272.5,-608"/>
<text text-anchor="start" x="280.5" y="-626" font-family="Helvetica,sans-Serif" font-size="10.00">org.msrg.raccoon.engine.task.sequential.</text>
<text text-anchor="middle" x="374" y="-615" font-family="Helvetica,sans-Serif" font-size="10.00">BulkMatrixEqual_CodingTask.codingFailed</text>
</a>
</g>
</g>
<!-- Node1&#45;&gt;Node2 -->
<g id="edge1" class="edge"><title>Node1&#45;&gt;Node2</title>
<path fill="none" stroke="midnightblue" d="M103.682,-358.127C115.107,-411.865 149.733,-538.02 232,-599 243.869,-607.798 257.838,-613.803 272.289,-617.838"/>
<polygon fill="midnightblue" stroke="midnightblue" points="107.065,-357.198 101.643,-348.096 100.205,-358.593 107.065,-357.198"/>
</g>
<!-- Node3 -->
<g id="node3" class="node"><title>Node3</title>
<g id="a_node3"><a xlink:href="../../d3/d36/classorg_1_1msrg_1_1raccoon_1_1engine_1_1task_1_1sequential_1_1Decoding__SequentialCodingTask_a4039a80e374b0af5a77dab7b381fc658.html#a4039a80e374b0af5a77dab7b381fc658" target="_top" xlink:title="org.msrg.raccoon.engine.task.sequential.\lDecoding_SequentialCodingTask.codingFailed">
<polygon fill="none" stroke="black" points="264.5,-559 264.5,-589 483.5,-589 483.5,-559 264.5,-559"/>
<text text-anchor="start" x="272.5" y="-577" font-family="Helvetica,sans-Serif" font-size="10.00">org.msrg.raccoon.engine.task.sequential.</text>
<text text-anchor="middle" x="374" y="-566" font-family="Helvetica,sans-Serif" font-size="10.00">Decoding_SequentialCodingTask.codingFailed</text>
</a>
</g>
</g>
<!-- Node1&#45;&gt;Node3 -->
<g id="edge2" class="edge"><title>Node1&#45;&gt;Node3</title>
<path fill="none" stroke="midnightblue" d="M106.596,-357.964C122.036,-404.127 161.715,-502.453 232,-550 241.769,-556.609 252.768,-561.591 264.203,-565.324"/>
<polygon fill="midnightblue" stroke="midnightblue" points="109.836,-356.609 103.426,-348.174 103.177,-358.766 109.836,-356.609"/>
</g>
<!-- Node4 -->
<g id="node4" class="node"><title>Node4</title>
<g id="a_node4"><a xlink:href="../../df/d07/classorg_1_1msrg_1_1raccoon_1_1engine_1_1task_1_1sequential_1_1MultiplyBulkMatrix__SequentialCodingTask_a4380367210015c89fa9668a15399ee94.html#a4380367210015c89fa9668a15399ee94" target="_top" xlink:title="org.msrg.raccoon.engine.task.sequential.\lMultiplyBulkMatrix_SequentialCodingTask.codingFailed">
<polygon fill="none" stroke="black" points="245,-510 245,-540 503,-540 503,-510 245,-510"/>
<text text-anchor="start" x="253" y="-528" font-family="Helvetica,sans-Serif" font-size="10.00">org.msrg.raccoon.engine.task.sequential.</text>
<text text-anchor="middle" x="374" y="-517" font-family="Helvetica,sans-Serif" font-size="10.00">MultiplyBulkMatrix_SequentialCodingTask.codingFailed</text>
</a>
</g>
</g>
<!-- Node1&#45;&gt;Node4 -->
<g id="edge3" class="edge"><title>Node1&#45;&gt;Node4</title>
<path fill="none" stroke="midnightblue" d="M110.799,-357.361C130.357,-394.901 173.242,-466.186 232,-501 237.768,-504.417 243.888,-507.381 250.221,-509.948"/>
<polygon fill="midnightblue" stroke="midnightblue" points="113.771,-355.484 106.12,-348.156 107.531,-358.656 113.771,-355.484"/>
</g>
<!-- Node5 -->
<g id="node5" class="node"><title>Node5</title>
<g id="a_node5"><a xlink:href="../../de/d11/classorg_1_1msrg_1_1raccoon_1_1engine_1_1task_1_1sequential_1_1EncodingDecodingEqual__SequentialCodingTask_aa84072fc8be55edb4deb72c6d4a8a61e.html#aa84072fc8be55edb4deb72c6d4a8a61e" target="_top" xlink:title="org.msrg.raccoon.engine.task.sequential.\lEncodingDecodingEqual_SequentialCodingTask.codingFailed">
<polygon fill="none" stroke="black" points="232,-461 232,-491 516,-491 516,-461 232,-461"/>
<text text-anchor="start" x="240" y="-479" font-family="Helvetica,sans-Serif" font-size="10.00">org.msrg.raccoon.engine.task.sequential.</text>
<text text-anchor="middle" x="374" y="-468" font-family="Helvetica,sans-Serif" font-size="10.00">EncodingDecodingEqual_SequentialCodingTask.codingFailed</text>
</a>
</g>
</g>
<!-- Node1&#45;&gt;Node5 -->
<g id="edge4" class="edge"><title>Node1&#45;&gt;Node5</title>
<path fill="none" stroke="midnightblue" d="M117.795,-356.085C141.421,-383.413 184.658,-428.096 232,-451 240.057,-454.898 248.636,-458.194 257.431,-460.98"/>
<polygon fill="midnightblue" stroke="midnightblue" points="120.247,-353.566 111.109,-348.204 114.91,-358.094 120.247,-353.566"/>
</g>
<!-- Node6 -->
<g id="node6" class="node"><title>Node6</title>
<g id="a_node6"><a xlink:href="../../d5/daf/classorg_1_1msrg_1_1raccoon_1_1engine_1_1task_1_1sequential_1_1EncodingReceivedEncodingDecodingEqual__SequentialCodingTask_a822940368eedbf0ea2d65f18e6a319c3.html#a822940368eedbf0ea2d65f18e6a319c3" target="_top" xlink:title="org.msrg.raccoon.engine.task.sequential.\lEncodingReceivedEncodingDecodingEqual\l_SequentialCodingTask.codingFailed">
<polygon fill="none" stroke="black" points="271.5,-400.5 271.5,-441.5 476.5,-441.5 476.5,-400.5 271.5,-400.5"/>
<text text-anchor="start" x="279.5" y="-429.5" font-family="Helvetica,sans-Serif" font-size="10.00">org.msrg.raccoon.engine.task.sequential.</text>
<text text-anchor="start" x="279.5" y="-418.5" font-family="Helvetica,sans-Serif" font-size="10.00">EncodingReceivedEncodingDecodingEqual</text>
<text text-anchor="middle" x="374" y="-407.5" font-family="Helvetica,sans-Serif" font-size="10.00">_SequentialCodingTask.codingFailed</text>
</a>
</g>
</g>
<!-- Node1&#45;&gt;Node6 -->
<g id="edge5" class="edge"><title>Node1&#45;&gt;Node6</title>
<path fill="none" stroke="midnightblue" d="M137.874,-352.436C163.975,-364.861 199.422,-380.549 232,-391 244.63,-395.052 258.074,-398.712 271.454,-401.969"/>
<polygon fill="midnightblue" stroke="midnightblue" points="139.232,-349.205 128.703,-348.021 136.195,-355.512 139.232,-349.205"/>
</g>
<!-- Node7 -->
<g id="node7" class="node"><title>Node7</title>
<g id="a_node7"><a xlink:href="../../d4/d5e/classorg_1_1msrg_1_1raccoon_1_1engine_1_1task_1_1sequential_1_1MultiplyInverseMultiplyEqual__SequentialCodingTask_a14739cd5deb5118abcc7ce14a7820777.html#a14739cd5deb5118abcc7ce14a7820777" target="_top" xlink:title="org.msrg.raccoon.engine.task.sequential.\lMultiplyInverseMultiplyEqual_Sequential\lCodingTask.codingFailed">
<polygon fill="none" stroke="black" points="276,-340.5 276,-381.5 472,-381.5 472,-340.5 276,-340.5"/>
<text text-anchor="start" x="284" y="-369.5" font-family="Helvetica,sans-Serif" font-size="10.00">org.msrg.raccoon.engine.task.sequential.</text>
<text text-anchor="start" x="284" y="-358.5" font-family="Helvetica,sans-Serif" font-size="10.00">MultiplyInverseMultiplyEqual_Sequential</text>
<text text-anchor="middle" x="374" y="-347.5" font-family="Helvetica,sans-Serif" font-size="10.00">CodingTask.codingFailed</text>
</a>
</g>
</g>
<!-- Node1&#45;&gt;Node7 -->
<g id="edge6" class="edge"><title>Node1&#45;&gt;Node7</title>
<path fill="none" stroke="midnightblue" d="M206.461,-343.981C229.374,-346.323 253.444,-348.783 275.94,-351.081"/>
<polygon fill="midnightblue" stroke="midnightblue" points="206.678,-340.485 196.374,-342.951 205.966,-347.449 206.678,-340.485"/>
</g>
<!-- Node8 -->
<g id="node8" class="node"><title>Node8</title>
<g id="a_node8"><a xlink:href="../../dd/db2/classorg_1_1msrg_1_1raccoon_1_1engine_1_1task_1_1sequential_1_1Encoding__SequentialCodingTask_a579535d3e0276430eb81c56dd4bcfde4.html#a579535d3e0276430eb81c56dd4bcfde4" target="_top" xlink:title="org.msrg.raccoon.engine.task.sequential.\lEncoding_SequentialCodingTask.codingFailed">
<polygon fill="none" stroke="black" points="265,-291 265,-321 483,-321 483,-291 265,-291"/>
<text text-anchor="start" x="273" y="-309" font-family="Helvetica,sans-Serif" font-size="10.00">org.msrg.raccoon.engine.task.sequential.</text>
<text text-anchor="middle" x="374" y="-298" font-family="Helvetica,sans-Serif" font-size="10.00">Encoding_SequentialCodingTask.codingFailed</text>
</a>
</g>
</g>
<!-- Node1&#45;&gt;Node8 -->
<g id="edge7" class="edge"><title>Node1&#45;&gt;Node8</title>
<path fill="none" stroke="midnightblue" d="M206.329,-322.424C225.524,-320.532 245.536,-318.56 264.757,-316.666"/>
<polygon fill="midnightblue" stroke="midnightblue" points="205.982,-318.941 196.374,-323.405 206.669,-325.907 205.982,-318.941"/>
</g>
<!-- Node9 -->
<g id="node9" class="node"><title>Node9</title>
<g id="a_node9"><a xlink:href="../../d4/daf/classorg_1_1msrg_1_1raccoon_1_1engine_1_1task_1_1sequential_1_1EncodingReceivedCodedBatch__SequentialCodingTask_a42110602418c15d727175229b4b8f9cb.html#a42110602418c15d727175229b4b8f9cb" target="_top" xlink:title="org.msrg.raccoon.engine.task.sequential.\lEncodingReceivedCodedBatch_SequentialCoding\lTask.runStagePrivately">
<polygon fill="none" stroke="black" points="257,-230.5 257,-271.5 491,-271.5 491,-230.5 257,-230.5"/>
<text text-anchor="start" x="265" y="-259.5" font-family="Helvetica,sans-Serif" font-size="10.00">org.msrg.raccoon.engine.task.sequential.</text>
<text text-anchor="start" x="265" y="-248.5" font-family="Helvetica,sans-Serif" font-size="10.00">EncodingReceivedCodedBatch_SequentialCoding</text>
<text text-anchor="middle" x="374" y="-237.5" font-family="Helvetica,sans-Serif" font-size="10.00">Task.runStagePrivately</text>
</a>
</g>
</g>
<!-- Node1&#45;&gt;Node9 -->
<g id="edge8" class="edge"><title>Node1&#45;&gt;Node9</title>
<path fill="none" stroke="midnightblue" d="M143.483,-314.023C169.052,-303.602 201.964,-291.005 232,-282 244.484,-278.257 257.714,-274.756 270.872,-271.552"/>
<polygon fill="midnightblue" stroke="midnightblue" points="141.98,-310.856 134.064,-317.898 144.644,-317.33 141.98,-310.856"/>
</g>
<!-- Node10 -->
<g id="node10" class="node"><title>Node10</title>
<g id="a_node10"><a xlink:href="../../d0/d6b/classorg_1_1msrg_1_1raccoon_1_1engine_1_1task_1_1sequential_1_1EncodingSourceCodedBatch__SequentialCodingTask_adfa33e105ef32cced4a8b532961cde23.html#adfa33e105ef32cced4a8b532961cde23" target="_top" xlink:title="org.msrg.raccoon.engine.task.sequential.\lEncodingSourceCodedBatch_SequentialCoding\lTask.runStagePrivately">
<polygon fill="none" stroke="black" points="262,-170.5 262,-211.5 486,-211.5 486,-170.5 262,-170.5"/>
<text text-anchor="start" x="270" y="-199.5" font-family="Helvetica,sans-Serif" font-size="10.00">org.msrg.raccoon.engine.task.sequential.</text>
<text text-anchor="start" x="270" y="-188.5" font-family="Helvetica,sans-Serif" font-size="10.00">EncodingSourceCodedBatch_SequentialCoding</text>
<text text-anchor="middle" x="374" y="-177.5" font-family="Helvetica,sans-Serif" font-size="10.00">Task.runStagePrivately</text>
</a>
</g>
</g>
<!-- Node1&#45;&gt;Node10 -->
<g id="edge9" class="edge"><title>Node1&#45;&gt;Node10</title>
<path fill="none" stroke="midnightblue" d="M118.95,-310.55C143.111,-284.826 186.288,-243.351 232,-221 241.443,-216.383 251.583,-212.473 261.937,-209.163"/>
<polygon fill="midnightblue" stroke="midnightblue" points="116.293,-308.268 112.08,-317.989 121.436,-313.017 116.293,-308.268"/>
</g>
<!-- Node11 -->
<g id="node11" class="node"><title>Node11</title>
<g id="a_node11"><a xlink:href="../../d4/d5e/classorg_1_1msrg_1_1raccoon_1_1engine_1_1task_1_1sequential_1_1MultiplyInverseMultiplyEqual__SequentialCodingTask_a8870d11208f9be305c378f932d7abaa0.html#a8870d11208f9be305c378f932d7abaa0" target="_top" xlink:title="org.msrg.raccoon.engine.task.sequential.\lMultiplyInverseMultiplyEqual_Sequential\lCodingTask.runStagePrivately">
<polygon fill="none" stroke="black" points="276,-110.5 276,-151.5 472,-151.5 472,-110.5 276,-110.5"/>
<text text-anchor="start" x="284" y="-139.5" font-family="Helvetica,sans-Serif" font-size="10.00">org.msrg.raccoon.engine.task.sequential.</text>
<text text-anchor="start" x="284" y="-128.5" font-family="Helvetica,sans-Serif" font-size="10.00">MultiplyInverseMultiplyEqual_Sequential</text>
<text text-anchor="middle" x="374" y="-117.5" font-family="Helvetica,sans-Serif" font-size="10.00">CodingTask.runStagePrivately</text>
</a>
</g>
</g>
<!-- Node1&#45;&gt;Node11 -->
<g id="edge10" class="edge"><title>Node1&#45;&gt;Node11</title>
<path fill="none" stroke="midnightblue" d="M110.672,-308.64C130.19,-270.686 173.178,-197.969 232,-161 245.244,-152.677 260.425,-146.629 275.808,-142.243"/>
<polygon fill="midnightblue" stroke="midnightblue" points="107.366,-307.424 106.008,-317.931 113.622,-310.565 107.366,-307.424"/>
</g>
<!-- Node13 -->
<g id="node13" class="node"><title>Node13</title>
<g id="a_node13"><a xlink:href="../../d3/d36/classorg_1_1msrg_1_1raccoon_1_1engine_1_1task_1_1sequential_1_1Decoding__SequentialCodingTask_aa875e6c27f9bd356223417ae1689c3b4.html#aa875e6c27f9bd356223417ae1689c3b4" target="_top" xlink:title="org.msrg.raccoon.engine.task.sequential.\lDecoding_SequentialCodingTask.runStagePrivately">
<polygon fill="none" stroke="black" points="253,-61 253,-91 495,-91 495,-61 253,-61"/>
<text text-anchor="start" x="261" y="-79" font-family="Helvetica,sans-Serif" font-size="10.00">org.msrg.raccoon.engine.task.sequential.</text>
<text text-anchor="middle" x="374" y="-68" font-family="Helvetica,sans-Serif" font-size="10.00">Decoding_SequentialCodingTask.runStagePrivately</text>
</a>
</g>
</g>
<!-- Node1&#45;&gt;Node13 -->
<g id="edge12" class="edge"><title>Node1&#45;&gt;Node13</title>
<path fill="none" stroke="midnightblue" d="M105.606,-308.069C119.836,-259.599 158.23,-152.875 232,-101 238.406,-96.4954 245.37,-92.7208 252.658,-89.5648"/>
<polygon fill="midnightblue" stroke="midnightblue" points="102.221,-307.178 102.859,-317.753 108.955,-309.088 102.221,-307.178"/>
</g>
<!-- Node15 -->
<g id="node15" class="node"><title>Node15</title>
<g id="a_node15"><a xlink:href="../../de/d11/classorg_1_1msrg_1_1raccoon_1_1engine_1_1task_1_1sequential_1_1EncodingDecodingEqual__SequentialCodingTask_ac93037a0e0b21d08ef67e2b1042b866e.html#ac93037a0e0b21d08ef67e2b1042b866e" target="_top" xlink:title="org.msrg.raccoon.engine.task.sequential.\lEncodingDecodingEqual_SequentialCodingTask.run\lStagePrivately">
<polygon fill="none" stroke="black" points="252.5,-0.5 252.5,-41.5 495.5,-41.5 495.5,-0.5 252.5,-0.5"/>
<text text-anchor="start" x="260.5" y="-29.5" font-family="Helvetica,sans-Serif" font-size="10.00">org.msrg.raccoon.engine.task.sequential.</text>
<text text-anchor="start" x="260.5" y="-18.5" font-family="Helvetica,sans-Serif" font-size="10.00">EncodingDecodingEqual_SequentialCodingTask.run</text>
<text text-anchor="middle" x="374" y="-7.5" font-family="Helvetica,sans-Serif" font-size="10.00">StagePrivately</text>
</a>
</g>
</g>
<!-- Node1&#45;&gt;Node15 -->
<g id="edge14" class="edge"><title>Node1&#45;&gt;Node15</title>
<path fill="none" stroke="midnightblue" d="M103.175,-307.81C113.799,-252.107 147.267,-118.112 232,-51 238.278,-46.0275 245.19,-41.8294 252.478,-38.2898"/>
<polygon fill="midnightblue" stroke="midnightblue" points="99.6927,-307.398 101.347,-317.863 106.58,-308.651 99.6927,-307.398"/>
</g>
<!-- Node12 -->
<g id="node12" class="node"><title>Node12</title>
<g id="a_node12"><a xlink:href="../../d4/d5e/classorg_1_1msrg_1_1raccoon_1_1engine_1_1task_1_1sequential_1_1MultiplyInverseMultiplyEqual__SequentialCodingTask_a486ab503957784e8d6aa52a9ddde130d.html#a486ab503957784e8d6aa52a9ddde130d" target="_top" xlink:title="org.msrg.raccoon.engine.task.sequential.\lMultiplyInverseMultiplyEqual_Sequential\lCodingTask.codingFinished">
<polygon fill="none" stroke="black" points="583,-110.5 583,-151.5 779,-151.5 779,-110.5 583,-110.5"/>
<text text-anchor="start" x="591" y="-139.5" font-family="Helvetica,sans-Serif" font-size="10.00">org.msrg.raccoon.engine.task.sequential.</text>
<text text-anchor="start" x="591" y="-128.5" font-family="Helvetica,sans-Serif" font-size="10.00">MultiplyInverseMultiplyEqual_Sequential</text>
<text text-anchor="middle" x="681" y="-117.5" font-family="Helvetica,sans-Serif" font-size="10.00">CodingTask.codingFinished</text>
</a>
</g>
</g>
<!-- Node11&#45;&gt;Node12 -->
<g id="edge11" class="edge"><title>Node11&#45;&gt;Node12</title>
<path fill="none" stroke="midnightblue" d="M482.384,-131C515.079,-131 550.815,-131 582.798,-131"/>
<polygon fill="midnightblue" stroke="midnightblue" points="482.343,-127.5 472.342,-131 482.342,-134.5 482.343,-127.5"/>
</g>
<!-- Node14 -->
<g id="node14" class="node"><title>Node14</title>
<g id="a_node14"><a xlink:href="../../d3/d36/classorg_1_1msrg_1_1raccoon_1_1engine_1_1task_1_1sequential_1_1Decoding__SequentialCodingTask_a3497f9c294517ca7934dea0ad28f411d.html#a3497f9c294517ca7934dea0ad28f411d" target="_top" xlink:title="org.msrg.raccoon.engine.task.sequential.\lDecoding_SequentialCodingTask.codingFinished">
<polygon fill="none" stroke="black" points="566,-61 566,-91 796,-91 796,-61 566,-61"/>
<text text-anchor="start" x="574" y="-79" font-family="Helvetica,sans-Serif" font-size="10.00">org.msrg.raccoon.engine.task.sequential.</text>
<text text-anchor="middle" x="681" y="-68" font-family="Helvetica,sans-Serif" font-size="10.00">Decoding_SequentialCodingTask.codingFinished</text>
</a>
</g>
</g>
<!-- Node13&#45;&gt;Node14 -->
<g id="edge13" class="edge"><title>Node13&#45;&gt;Node14</title>
<path fill="none" stroke="midnightblue" d="M505.285,-76C525.471,-76 546.187,-76 565.979,-76"/>
<polygon fill="midnightblue" stroke="midnightblue" points="505.106,-72.5001 495.106,-76 505.106,-79.5001 505.106,-72.5001"/>
</g>
<!-- Node16 -->
<g id="node16" class="node"><title>Node16</title>
<g id="a_node16"><a xlink:href="../../de/d11/classorg_1_1msrg_1_1raccoon_1_1engine_1_1task_1_1sequential_1_1EncodingDecodingEqual__SequentialCodingTask_a13129faffdbf845a23ffdd2def1c2f1a.html#a13129faffdbf845a23ffdd2def1c2f1a" target="_top" xlink:title="org.msrg.raccoon.engine.task.sequential.\lEncodingDecodingEqual_SequentialCodingTask.coding\lFinished">
<polygon fill="none" stroke="black" points="552,-0.5 552,-41.5 810,-41.5 810,-0.5 552,-0.5"/>
<text text-anchor="start" x="560" y="-29.5" font-family="Helvetica,sans-Serif" font-size="10.00">org.msrg.raccoon.engine.task.sequential.</text>
<text text-anchor="start" x="560" y="-18.5" font-family="Helvetica,sans-Serif" font-size="10.00">EncodingDecodingEqual_SequentialCodingTask.coding</text>
<text text-anchor="middle" x="681" y="-7.5" font-family="Helvetica,sans-Serif" font-size="10.00">Finished</text>
</a>
</g>
</g>
<!-- Node15&#45;&gt;Node16 -->
<g id="edge15" class="edge"><title>Node15&#45;&gt;Node16</title>
<path fill="none" stroke="midnightblue" d="M505.564,-21C520.888,-21 536.514,-21 551.806,-21"/>
<polygon fill="midnightblue" stroke="midnightblue" points="505.544,-17.5001 495.544,-21 505.544,-24.5001 505.544,-17.5001"/>
</g>
</g>
</svg>
