<?xml version="1.0" encoding="UTF-8" standalone="no"?>
<!DOCTYPE svg PUBLIC "-//W3C//DTD SVG 1.1//EN"
 "http://www.w3.org/Graphics/SVG/1.1/DTD/svg11.dtd">
<!-- Generated by graphviz version 2.38.0 (20140413.2041)
 -->
<!-- Title: org.msrg.raccoon.engine.task.sequential.SequentialCodingTask.runInitialSequencialTasks Pages: 1 -->
<svg width="705pt" height="284pt"
 viewBox="0.00 0.00 705.00 284.00" xmlns="http://www.w3.org/2000/svg" xmlns:xlink="http://www.w3.org/1999/xlink">
<g id="graph0" class="graph" transform="scale(1 1) rotate(0) translate(4 280)">
<title>org.msrg.raccoon.engine.task.sequential.SequentialCodingTask.runInitialSequencialTasks</title>
<!-- Node0 -->
<g id="node1" class="node"><title>Node0</title>
<polygon fill="#bfbfbf" stroke="black" points="0,-122.5 0,-152.5 230,-152.5 230,-122.5 0,-122.5"/>
<text text-anchor="start" x="8" y="-140.5" font-family="Helvetica,sans-Serif" font-size="10.00">org.msrg.raccoon.engine.task.sequential.</text>
<text text-anchor="middle" x="115" y="-129.5" font-family="Helvetica,sans-Serif" font-size="10.00">SequentialCodingTask.runInitialSequencialTasks</text>
</g>
<!-- Node1 -->
<g id="node2" class="node"><title>Node1</title>
<g id="a_node2"><a xlink:href="../../d6/d78/classorg_1_1msrg_1_1raccoon_1_1engine_1_1task_1_1sequential_1_1SequentialCodingTask_a55a9867d03e0044839edd97a56de20af.html#a55a9867d03e0044839edd97a56de20af" target="_top" xlink:title="org.msrg.raccoon.engine.task.sequential.\lSequentialCodingTask.codingFailed">
<polygon fill="none" stroke="black" points="267.5,-245.5 267.5,-275.5 463.5,-275.5 463.5,-245.5 267.5,-245.5"/>
<text text-anchor="start" x="275.5" y="-263.5" font-family="Helvetica,sans-Serif" font-size="10.00">org.msrg.raccoon.engine.task.sequential.</text>
<text text-anchor="middle" x="365.5" y="-252.5" font-family="Helvetica,sans-Serif" font-size="10.00">SequentialCodingTask.codingFailed</text>
</a>
</g>
</g>
<!-- Node0&#45;&gt;Node1 -->
<g id="edge1" class="edge"><title>Node0&#45;&gt;Node1</title>
<path fill="none" stroke="midnightblue" d="M134.199,-152.56C161.274,-174.227 214.517,-214.051 266,-236.5 270.768,-238.579 275.748,-240.498 280.828,-242.266"/>
<polygon fill="midnightblue" stroke="midnightblue" points="280.097,-245.709 290.689,-245.483 282.268,-239.054 280.097,-245.709"/>
</g>
<!-- Node2 -->
<g id="node3" class="node"><title>Node2</title>
<g id="a_node3"><a xlink:href="../../d6/d78/classorg_1_1msrg_1_1raccoon_1_1engine_1_1task_1_1sequential_1_1SequentialCodingTask_af201120dcdecadf7a6c5341fa349fa73.html#af201120dcdecadf7a6c5341fa349fa73" target="_top" xlink:title="org.msrg.raccoon.engine.task.sequential.\lSequentialCodingTask.codingFinished">
<polygon fill="none" stroke="black" points="267.5,-196.5 267.5,-226.5 463.5,-226.5 463.5,-196.5 267.5,-196.5"/>
<text text-anchor="start" x="275.5" y="-214.5" font-family="Helvetica,sans-Serif" font-size="10.00">org.msrg.raccoon.engine.task.sequential.</text>
<text text-anchor="middle" x="365.5" y="-203.5" font-family="Helvetica,sans-Serif" font-size="10.00">SequentialCodingTask.codingFinished</text>
</a>
</g>
</g>
<!-- Node0&#45;&gt;Node2 -->
<g id="edge2" class="edge"><title>Node0&#45;&gt;Node2</title>
<path fill="none" stroke="midnightblue" d="M158.058,-152.557C187.967,-163.009 229.202,-176.904 266,-187.5 273.636,-189.699 281.641,-191.868 289.649,-193.951"/>
<polygon fill="midnightblue" stroke="midnightblue" points="288.838,-197.356 299.393,-196.444 290.573,-190.574 288.838,-197.356"/>
</g>
<!-- Node3 -->
<g id="node4" class="node"><title>Node3</title>
<g id="a_node4"><a xlink:href="../../d6/d78/classorg_1_1msrg_1_1raccoon_1_1engine_1_1task_1_1sequential_1_1SequentialCodingTask_ab9f1bc177fa57e9b84592b84127ef62b.html#ab9f1bc177fa57e9b84592b84127ef62b" target="_top" xlink:title="org.msrg.raccoon.engine.task.sequential.\lSequentialCodingTask.codingStarted">
<polygon fill="none" stroke="black" points="267.5,-147.5 267.5,-177.5 463.5,-177.5 463.5,-147.5 267.5,-147.5"/>
<text text-anchor="start" x="275.5" y="-165.5" font-family="Helvetica,sans-Serif" font-size="10.00">org.msrg.raccoon.engine.task.sequential.</text>
<text text-anchor="middle" x="365.5" y="-154.5" font-family="Helvetica,sans-Serif" font-size="10.00">SequentialCodingTask.codingStarted</text>
</a>
</g>
</g>
<!-- Node0&#45;&gt;Node3 -->
<g id="edge3" class="edge"><title>Node0&#45;&gt;Node3</title>
<path fill="none" stroke="midnightblue" d="M230.068,-148.976C239.153,-149.89 248.311,-150.811 257.346,-151.72"/>
<polygon fill="midnightblue" stroke="midnightblue" points="257.184,-155.221 267.484,-152.74 257.884,-148.256 257.184,-155.221"/>
</g>
<!-- Node4 -->
<g id="node5" class="node"><title>Node4</title>
<g id="a_node5"><a xlink:href="../../d6/d78/classorg_1_1msrg_1_1raccoon_1_1engine_1_1task_1_1sequential_1_1SequentialCodingTask_a144e5086b6be72e0c13869c563c7189c.html#a144e5086b6be72e0c13869c563c7189c" target="_top" xlink:title="org.msrg.raccoon.engine.task.sequential.\lSequentialCodingTask.finished">
<polygon fill="none" stroke="black" points="267.5,-98.5 267.5,-128.5 463.5,-128.5 463.5,-98.5 267.5,-98.5"/>
<text text-anchor="start" x="275.5" y="-116.5" font-family="Helvetica,sans-Serif" font-size="10.00">org.msrg.raccoon.engine.task.sequential.</text>
<text text-anchor="middle" x="365.5" y="-105.5" font-family="Helvetica,sans-Serif" font-size="10.00">SequentialCodingTask.finished</text>
</a>
</g>
</g>
<!-- Node0&#45;&gt;Node4 -->
<g id="edge4" class="edge"><title>Node0&#45;&gt;Node4</title>
<path fill="none" stroke="midnightblue" d="M230.068,-126.483C239.153,-125.606 248.311,-124.722 257.346,-123.849"/>
<polygon fill="midnightblue" stroke="midnightblue" points="257.867,-127.315 267.484,-122.87 257.194,-120.347 257.867,-127.315"/>
</g>
<!-- Node5 -->
<g id="node6" class="node"><title>Node5</title>
<g id="a_node6"><a xlink:href="../../d6/d78/classorg_1_1msrg_1_1raccoon_1_1engine_1_1task_1_1sequential_1_1SequentialCodingTask_a20507db4cd28c24453172612ae32afe5.html#a20507db4cd28c24453172612ae32afe5" target="_top" xlink:title="org.msrg.raccoon.engine.task.sequential.\lSequentialCodingTask.reachedFinalStage">
<polygon fill="none" stroke="black" points="266,-49.5 266,-79.5 465,-79.5 465,-49.5 266,-49.5"/>
<text text-anchor="start" x="274" y="-67.5" font-family="Helvetica,sans-Serif" font-size="10.00">org.msrg.raccoon.engine.task.sequential.</text>
<text text-anchor="middle" x="365.5" y="-56.5" font-family="Helvetica,sans-Serif" font-size="10.00">SequentialCodingTask.reachedFinalStage</text>
</a>
</g>
</g>
<!-- Node0&#45;&gt;Node5 -->
<g id="edge5" class="edge"><title>Node0&#45;&gt;Node5</title>
<path fill="none" stroke="midnightblue" d="M160.743,-122.392C190.448,-112.557 230.385,-99.7078 266,-89.5 274.719,-87.0012 283.907,-84.4978 293.026,-82.0925"/>
<polygon fill="midnightblue" stroke="midnightblue" points="294.075,-85.4362 302.868,-79.5259 292.308,-78.6627 294.075,-85.4362"/>
</g>
<!-- Node7 -->
<g id="node8" class="node"><title>Node7</title>
<g id="a_node8"><a xlink:href="../../d6/d78/classorg_1_1msrg_1_1raccoon_1_1engine_1_1task_1_1sequential_1_1SequentialCodingTask_ad77c45b81cc45af6ec6f65eb2984ae62.html#ad77c45b81cc45af6ec6f65eb2984ae62" target="_top" xlink:title="org.msrg.raccoon.engine.task.sequential.\lSequentialCodingTask.runStagePrivately">
<polygon fill="none" stroke="black" points="267.5,-0.5 267.5,-30.5 463.5,-30.5 463.5,-0.5 267.5,-0.5"/>
<text text-anchor="start" x="275.5" y="-18.5" font-family="Helvetica,sans-Serif" font-size="10.00">org.msrg.raccoon.engine.task.sequential.</text>
<text text-anchor="middle" x="365.5" y="-7.5" font-family="Helvetica,sans-Serif" font-size="10.00">SequentialCodingTask.runStagePrivately</text>
</a>
</g>
</g>
<!-- Node0&#45;&gt;Node7 -->
<g id="edge7" class="edge"><title>Node0&#45;&gt;Node7</title>
<path fill="none" stroke="midnightblue" d="M134.738,-122.476C162.055,-101.275 215.117,-62.6934 266,-40.5 271.731,-38.0004 277.762,-35.7138 283.902,-33.6291"/>
<polygon fill="midnightblue" stroke="midnightblue" points="285.156,-36.9026 293.611,-30.5177 283.019,-30.2366 285.156,-36.9026"/>
</g>
<!-- Node6 -->
<g id="node7" class="node"><title>Node6</title>
<g id="a_node7"><a xlink:href="../../d6/d78/classorg_1_1msrg_1_1raccoon_1_1engine_1_1task_1_1sequential_1_1SequentialCodingTask_aac71a63fa055d799d050d072c04e5eec.html#aac71a63fa055d799d050d072c04e5eec" target="_top" xlink:title="org.msrg.raccoon.engine.task.sequential.\lSequentialCodingTask.getFinalStage">
<polygon fill="none" stroke="black" points="501,-49.5 501,-79.5 697,-79.5 697,-49.5 501,-49.5"/>
<text text-anchor="start" x="509" y="-67.5" font-family="Helvetica,sans-Serif" font-size="10.00">org.msrg.raccoon.engine.task.sequential.</text>
<text text-anchor="middle" x="599" y="-56.5" font-family="Helvetica,sans-Serif" font-size="10.00">SequentialCodingTask.getFinalStage</text>
</a>
</g>
</g>
<!-- Node5&#45;&gt;Node6 -->
<g id="edge6" class="edge"><title>Node5&#45;&gt;Node6</title>
<path fill="none" stroke="midnightblue" d="M465.013,-64.5C473.504,-64.5 482.122,-64.5 490.678,-64.5"/>
<polygon fill="midnightblue" stroke="midnightblue" points="490.683,-68.0001 500.683,-64.5 490.683,-61.0001 490.683,-68.0001"/>
</g>
</g>
</svg>
