<?xml version="1.0" encoding="UTF-8" standalone="no"?>
<!DOCTYPE svg PUBLIC "-//W3C//DTD SVG 1.1//EN"
 "http://www.w3.org/Graphics/SVG/1.1/DTD/svg11.dtd">
<!-- Generated by graphviz version 2.38.0 (20140413.2041)
 -->
<!-- Title: org.msrg.raccoon.engine.task.sequential.SequentialCodingTask.getFinalStage Pages: 1 -->
<svg width="991pt" height="424pt"
 viewBox="0.00 0.00 991.00 424.00" xmlns="http://www.w3.org/2000/svg" xmlns:xlink="http://www.w3.org/1999/xlink">
<g id="graph0" class="graph" transform="scale(1 1) rotate(0) translate(4 420)">
<title>org.msrg.raccoon.engine.task.sequential.SequentialCodingTask.getFinalStage</title>
<!-- Node1 -->
<g id="node1" class="node"><title>Node1</title>
<polygon fill="#bfbfbf" stroke="black" points="0,-168 0,-198 196,-198 196,-168 0,-168"/>
<text text-anchor="start" x="8" y="-186" font-family="Helvetica,sans-Serif" font-size="10.00">org.msrg.raccoon.engine.task.sequential.</text>
<text text-anchor="middle" x="98" y="-175" font-family="Helvetica,sans-Serif" font-size="10.00">SequentialCodingTask.getFinalStage</text>
</g>
<!-- Node2 -->
<g id="node2" class="node"><title>Node2</title>
<g id="a_node2"><a xlink:href="../../d6/d78/classorg_1_1msrg_1_1raccoon_1_1engine_1_1task_1_1sequential_1_1SequentialCodingTask_a20507db4cd28c24453172612ae32afe5.html#a20507db4cd28c24453172612ae32afe5" target="_top" xlink:title="org.msrg.raccoon.engine.task.sequential.\lSequentialCodingTask.reachedFinalStage">
<polygon fill="none" stroke="black" points="240.5,-193 240.5,-223 439.5,-223 439.5,-193 240.5,-193"/>
<text text-anchor="start" x="248.5" y="-211" font-family="Helvetica,sans-Serif" font-size="10.00">org.msrg.raccoon.engine.task.sequential.</text>
<text text-anchor="middle" x="340" y="-200" font-family="Helvetica,sans-Serif" font-size="10.00">SequentialCodingTask.reachedFinalStage</text>
</a>
</g>
</g>
<!-- Node1&#45;&gt;Node2 -->
<g id="edge1" class="edge"><title>Node1&#45;&gt;Node2</title>
<path fill="none" stroke="midnightblue" d="M206.223,-194.169C217.606,-195.355 229.143,-196.557 240.42,-197.731"/>
<polygon fill="midnightblue" stroke="midnightblue" points="206.58,-190.687 196.271,-193.132 205.855,-197.65 206.58,-190.687"/>
</g>
<!-- Node13 -->
<g id="node13" class="node"><title>Node13</title>
<g id="a_node13"><a xlink:href="../../d6/d78/classorg_1_1msrg_1_1raccoon_1_1engine_1_1task_1_1sequential_1_1SequentialCodingTask_a39122bca57990a0dd990577664bb999c.html#a39122bca57990a0dd990577664bb999c" target="_top" xlink:title="org.msrg.raccoon.engine.task.sequential.\lSequentialCodingTask.SequentialCodingTask">
<polygon fill="none" stroke="black" points="232,-144 232,-174 448,-174 448,-144 232,-144"/>
<text text-anchor="start" x="240" y="-162" font-family="Helvetica,sans-Serif" font-size="10.00">org.msrg.raccoon.engine.task.sequential.</text>
<text text-anchor="middle" x="340" y="-151" font-family="Helvetica,sans-Serif" font-size="10.00">SequentialCodingTask.SequentialCodingTask</text>
</a>
</g>
</g>
<!-- Node1&#45;&gt;Node13 -->
<g id="edge12" class="edge"><title>Node1&#45;&gt;Node13</title>
<path fill="none" stroke="midnightblue" d="M206.476,-172.252C214.885,-171.411 223.377,-170.562 231.784,-169.722"/>
<polygon fill="midnightblue" stroke="midnightblue" points="205.873,-168.795 196.271,-173.273 206.57,-175.76 205.873,-168.795"/>
</g>
<!-- Node3 -->
<g id="node3" class="node"><title>Node3</title>
<g id="a_node3"><a xlink:href="../../d4/d5e/classorg_1_1msrg_1_1raccoon_1_1engine_1_1task_1_1sequential_1_1MultiplyInverseMultiplyEqual__SequentialCodingTask_a486ab503957784e8d6aa52a9ddde130d.html#a486ab503957784e8d6aa52a9ddde130d" target="_top" xlink:title="org.msrg.raccoon.engine.task.sequential.\lMultiplyInverseMultiplyEqual_Sequential\lCodingTask.codingFinished">
<polygon fill="none" stroke="black" points="515,-374.5 515,-415.5 711,-415.5 711,-374.5 515,-374.5"/>
<text text-anchor="start" x="523" y="-403.5" font-family="Helvetica,sans-Serif" font-size="10.00">org.msrg.raccoon.engine.task.sequential.</text>
<text text-anchor="start" x="523" y="-392.5" font-family="Helvetica,sans-Serif" font-size="10.00">MultiplyInverseMultiplyEqual_Sequential</text>
<text text-anchor="middle" x="613" y="-381.5" font-family="Helvetica,sans-Serif" font-size="10.00">CodingTask.codingFinished</text>
</a>
</g>
</g>
<!-- Node2&#45;&gt;Node3 -->
<g id="edge2" class="edge"><title>Node2&#45;&gt;Node3</title>
<path fill="none" stroke="midnightblue" d="M355.805,-232.129C378.725,-267.33 426.24,-332.235 484,-366 493.54,-371.577 504.06,-376.082 514.846,-379.72"/>
<polygon fill="midnightblue" stroke="midnightblue" points="358.592,-229.991 350.259,-223.447 352.692,-233.759 358.592,-229.991"/>
</g>
<!-- Node4 -->
<g id="node4" class="node"><title>Node4</title>
<g id="a_node4"><a xlink:href="../../dc/d76/classorg_1_1msrg_1_1raccoon_1_1engine_1_1task_1_1sequential_1_1BulkMatrixEqual__CodingTask_a2b079bf5a4d740b867ed98740abb0b49.html#a2b079bf5a4d740b867ed98740abb0b49" target="_top" xlink:title="org.msrg.raccoon.engine.task.sequential.\lBulkMatrixEqual_CodingTask.codingFinished">
<polygon fill="none" stroke="black" points="506,-326 506,-356 720,-356 720,-326 506,-326"/>
<text text-anchor="start" x="514" y="-344" font-family="Helvetica,sans-Serif" font-size="10.00">org.msrg.raccoon.engine.task.sequential.</text>
<text text-anchor="middle" x="613" y="-333" font-family="Helvetica,sans-Serif" font-size="10.00">BulkMatrixEqual_CodingTask.codingFinished</text>
</a>
</g>
</g>
<!-- Node2&#45;&gt;Node4 -->
<g id="edge3" class="edge"><title>Node2&#45;&gt;Node4</title>
<path fill="none" stroke="midnightblue" d="M362.909,-230.063C389.259,-255.23 435.971,-295.648 484,-317 491.747,-320.444 499.972,-323.394 508.367,-325.921"/>
<polygon fill="midnightblue" stroke="midnightblue" points="365.335,-227.539 355.72,-223.089 360.461,-232.564 365.335,-227.539"/>
</g>
<!-- Node5 -->
<g id="node5" class="node"><title>Node5</title>
<g id="a_node5"><a xlink:href="../../d3/d36/classorg_1_1msrg_1_1raccoon_1_1engine_1_1task_1_1sequential_1_1Decoding__SequentialCodingTask_a3497f9c294517ca7934dea0ad28f411d.html#a3497f9c294517ca7934dea0ad28f411d" target="_top" xlink:title="org.msrg.raccoon.engine.task.sequential.\lDecoding_SequentialCodingTask.codingFinished">
<polygon fill="none" stroke="black" points="498,-277 498,-307 728,-307 728,-277 498,-277"/>
<text text-anchor="start" x="506" y="-295" font-family="Helvetica,sans-Serif" font-size="10.00">org.msrg.raccoon.engine.task.sequential.</text>
<text text-anchor="middle" x="613" y="-284" font-family="Helvetica,sans-Serif" font-size="10.00">Decoding_SequentialCodingTask.codingFinished</text>
</a>
</g>
</g>
<!-- Node2&#45;&gt;Node5 -->
<g id="edge4" class="edge"><title>Node2&#45;&gt;Node5</title>
<path fill="none" stroke="midnightblue" d="M380.686,-227.334C408.931,-240.424 448.087,-257.232 484,-268 495.153,-271.344 506.999,-274.314 518.808,-276.925"/>
<polygon fill="midnightblue" stroke="midnightblue" points="382.087,-224.126 371.547,-223.052 379.117,-230.464 382.087,-224.126"/>
</g>
<!-- Node6 -->
<g id="node6" class="node"><title>Node6</title>
<g id="a_node6"><a xlink:href="../../df/d07/classorg_1_1msrg_1_1raccoon_1_1engine_1_1task_1_1sequential_1_1MultiplyBulkMatrix__SequentialCodingTask_a811e36a15733ee58c71e7b8f12f0cec8.html#a811e36a15733ee58c71e7b8f12f0cec8" target="_top" xlink:title="org.msrg.raccoon.engine.task.sequential.\lMultiplyBulkMatrix_SequentialCodingTask.coding\lFinished">
<polygon fill="none" stroke="black" points="497,-217.5 497,-258.5 729,-258.5 729,-217.5 497,-217.5"/>
<text text-anchor="start" x="505" y="-246.5" font-family="Helvetica,sans-Serif" font-size="10.00">org.msrg.raccoon.engine.task.sequential.</text>
<text text-anchor="start" x="505" y="-235.5" font-family="Helvetica,sans-Serif" font-size="10.00">MultiplyBulkMatrix_SequentialCodingTask.coding</text>
<text text-anchor="middle" x="613" y="-224.5" font-family="Helvetica,sans-Serif" font-size="10.00">Finished</text>
</a>
</g>
</g>
<!-- Node2&#45;&gt;Node6 -->
<g id="edge5" class="edge"><title>Node2&#45;&gt;Node6</title>
<path fill="none" stroke="midnightblue" d="M449.727,-220.036C465.252,-221.755 481.265,-223.528 496.907,-225.259"/>
<polygon fill="midnightblue" stroke="midnightblue" points="449.928,-216.537 439.604,-218.916 449.158,-223.495 449.928,-216.537"/>
</g>
<!-- Node7 -->
<g id="node7" class="node"><title>Node7</title>
<g id="a_node7"><a xlink:href="../../de/d11/classorg_1_1msrg_1_1raccoon_1_1engine_1_1task_1_1sequential_1_1EncodingDecodingEqual__SequentialCodingTask_a13129faffdbf845a23ffdd2def1c2f1a.html#a13129faffdbf845a23ffdd2def1c2f1a" target="_top" xlink:title="org.msrg.raccoon.engine.task.sequential.\lEncodingDecodingEqual_SequentialCodingTask.coding\lFinished">
<polygon fill="none" stroke="black" points="484,-157.5 484,-198.5 742,-198.5 742,-157.5 484,-157.5"/>
<text text-anchor="start" x="492" y="-186.5" font-family="Helvetica,sans-Serif" font-size="10.00">org.msrg.raccoon.engine.task.sequential.</text>
<text text-anchor="start" x="492" y="-175.5" font-family="Helvetica,sans-Serif" font-size="10.00">EncodingDecodingEqual_SequentialCodingTask.coding</text>
<text text-anchor="middle" x="613" y="-164.5" font-family="Helvetica,sans-Serif" font-size="10.00">Finished</text>
</a>
</g>
</g>
<!-- Node2&#45;&gt;Node7 -->
<g id="edge6" class="edge"><title>Node2&#45;&gt;Node7</title>
<path fill="none" stroke="midnightblue" d="M449.802,-195.955C460.995,-194.716 472.441,-193.449 483.818,-192.19"/>
<polygon fill="midnightblue" stroke="midnightblue" points="449.158,-192.505 439.604,-197.084 449.928,-199.463 449.158,-192.505"/>
</g>
<!-- Node8 -->
<g id="node8" class="node"><title>Node8</title>
<g id="a_node8"><a xlink:href="../../dd/db2/classorg_1_1msrg_1_1raccoon_1_1engine_1_1task_1_1sequential_1_1Encoding__SequentialCodingTask_a93b6d3396f71634bf3f2b9e6a9ea23f3.html#a93b6d3396f71634bf3f2b9e6a9ea23f3" target="_top" xlink:title="org.msrg.raccoon.engine.task.sequential.\lEncoding_SequentialCodingTask.codingFinished">
<polygon fill="none" stroke="black" points="498.5,-109 498.5,-139 727.5,-139 727.5,-109 498.5,-109"/>
<text text-anchor="start" x="506.5" y="-127" font-family="Helvetica,sans-Serif" font-size="10.00">org.msrg.raccoon.engine.task.sequential.</text>
<text text-anchor="middle" x="613" y="-116" font-family="Helvetica,sans-Serif" font-size="10.00">Encoding_SequentialCodingTask.codingFinished</text>
</a>
</g>
</g>
<!-- Node2&#45;&gt;Node8 -->
<g id="edge7" class="edge"><title>Node2&#45;&gt;Node8</title>
<path fill="none" stroke="midnightblue" d="M437.679,-189.078C441.223,-187.518 444.677,-185.828 448,-184 467.825,-173.092 463.986,-158.557 484,-148 490.499,-144.572 497.412,-141.627 504.527,-139.099"/>
<polygon fill="midnightblue" stroke="midnightblue" points="436.092,-185.944 428.115,-192.916 438.699,-192.44 436.092,-185.944"/>
</g>
<!-- Node9 -->
<g id="node9" class="node"><title>Node9</title>
<g id="a_node9"><a xlink:href="../../d6/d78/classorg_1_1msrg_1_1raccoon_1_1engine_1_1task_1_1sequential_1_1SequentialCodingTask_a0f1697228b30f8a446c0e9c2516010f8.html#a0f1697228b30f8a446c0e9c2516010f8" target="_top" xlink:title="org.msrg.raccoon.engine.task.sequential.\lSequentialCodingTask.runInitialSequencialTasks">
<polygon fill="none" stroke="black" points="498,-60 498,-90 728,-90 728,-60 498,-60"/>
<text text-anchor="start" x="506" y="-78" font-family="Helvetica,sans-Serif" font-size="10.00">org.msrg.raccoon.engine.task.sequential.</text>
<text text-anchor="middle" x="613" y="-67" font-family="Helvetica,sans-Serif" font-size="10.00">SequentialCodingTask.runInitialSequencialTasks</text>
</a>
</g>
</g>
<!-- Node2&#45;&gt;Node9 -->
<g id="edge8" class="edge"><title>Node2&#45;&gt;Node9</title>
<path fill="none" stroke="midnightblue" d="M443.233,-187.642C444.871,-186.491 446.462,-185.277 448,-184 479.241,-158.043 452.402,-125.521 484,-100 488.756,-96.1588 493.932,-92.8498 499.388,-90.0034"/>
<polygon fill="midnightblue" stroke="midnightblue" points="441.364,-184.682 434.683,-192.905 445.034,-190.644 441.364,-184.682"/>
</g>
<!-- Node11 -->
<g id="node11" class="node"><title>Node11</title>
<g id="a_node11"><a xlink:href="../../d5/daf/classorg_1_1msrg_1_1raccoon_1_1engine_1_1task_1_1sequential_1_1EncodingReceivedEncodingDecodingEqual__SequentialCodingTask_acf664608beaee091834399cde52cbf8f.html#acf664608beaee091834399cde52cbf8f" target="_top" xlink:title="org.msrg.raccoon.engine.task.sequential.\lEncodingReceivedEncodingDecodingEqual\l_SequentialCodingTask.runStagePrivately">
<polygon fill="none" stroke="black" points="510.5,-0.5 510.5,-41.5 715.5,-41.5 715.5,-0.5 510.5,-0.5"/>
<text text-anchor="start" x="518.5" y="-29.5" font-family="Helvetica,sans-Serif" font-size="10.00">org.msrg.raccoon.engine.task.sequential.</text>
<text text-anchor="start" x="518.5" y="-18.5" font-family="Helvetica,sans-Serif" font-size="10.00">EncodingReceivedEncodingDecodingEqual</text>
<text text-anchor="middle" x="613" y="-7.5" font-family="Helvetica,sans-Serif" font-size="10.00">_SequentialCodingTask.runStagePrivately</text>
</a>
</g>
</g>
<!-- Node2&#45;&gt;Node11 -->
<g id="edge10" class="edge"><title>Node2&#45;&gt;Node11</title>
<path fill="none" stroke="midnightblue" d="M444.541,-187.079C445.728,-186.096 446.883,-185.07 448,-184 492.238,-141.654 439.966,-93.5569 484,-51 491.632,-43.6244 500.714,-37.9383 510.468,-33.5715"/>
<polygon fill="midnightblue" stroke="midnightblue" points="442.369,-184.329 436.254,-192.981 446.43,-190.031 442.369,-184.329"/>
</g>
<!-- Node10 -->
<g id="node10" class="node"><title>Node10</title>
<g id="a_node10"><a xlink:href="../../d6/d19/classorg_1_1msrg_1_1raccoon_1_1engine_1_1thread_1_1CodingThreadImpl_af81a44607be02e9f01c5f4c119ff5ed4.html#af81a44607be02e9f01c5f4c119ff5ed4" target="_top" xlink:title="org.msrg.raccoon.engine.thread.\lCodingThreadImpl.runTask">
<polygon fill="none" stroke="black" points="802,-60 802,-90 959,-90 959,-60 802,-60"/>
<text text-anchor="start" x="810" y="-78" font-family="Helvetica,sans-Serif" font-size="10.00">org.msrg.raccoon.engine.thread.</text>
<text text-anchor="middle" x="880.5" y="-67" font-family="Helvetica,sans-Serif" font-size="10.00">CodingThreadImpl.runTask</text>
</a>
</g>
</g>
<!-- Node9&#45;&gt;Node10 -->
<g id="edge9" class="edge"><title>Node9&#45;&gt;Node10</title>
<path fill="none" stroke="midnightblue" d="M738.381,-75C760.008,-75 781.933,-75 801.848,-75"/>
<polygon fill="midnightblue" stroke="midnightblue" points="738.137,-71.5001 728.137,-75 738.137,-78.5001 738.137,-71.5001"/>
</g>
<!-- Node12 -->
<g id="node12" class="node"><title>Node12</title>
<g id="a_node12"><a xlink:href="../../d5/daf/classorg_1_1msrg_1_1raccoon_1_1engine_1_1task_1_1sequential_1_1EncodingReceivedEncodingDecodingEqual__SequentialCodingTask_ad2c155a55fc3d08e007c03be1be0b195.html#ad2c155a55fc3d08e007c03be1be0b195" target="_top" xlink:title="org.msrg.raccoon.engine.task.sequential.\lEncodingReceivedEncodingDecodingEqual\l_SequentialCodingTask.codingFinished">
<polygon fill="none" stroke="black" points="778,-0.5 778,-41.5 983,-41.5 983,-0.5 778,-0.5"/>
<text text-anchor="start" x="786" y="-29.5" font-family="Helvetica,sans-Serif" font-size="10.00">org.msrg.raccoon.engine.task.sequential.</text>
<text text-anchor="start" x="786" y="-18.5" font-family="Helvetica,sans-Serif" font-size="10.00">EncodingReceivedEncodingDecodingEqual</text>
<text text-anchor="middle" x="880.5" y="-7.5" font-family="Helvetica,sans-Serif" font-size="10.00">_SequentialCodingTask.codingFinished</text>
</a>
</g>
</g>
<!-- Node11&#45;&gt;Node12 -->
<g id="edge11" class="edge"><title>Node11&#45;&gt;Node12</title>
<path fill="none" stroke="midnightblue" d="M725.6,-21C742.849,-21 760.586,-21 777.606,-21"/>
<polygon fill="midnightblue" stroke="midnightblue" points="725.511,-17.5001 715.511,-21 725.511,-24.5001 725.511,-17.5001"/>
</g>
</g>
</svg>
