<?xml version="1.0" encoding="UTF-8" standalone="no"?>
<!DOCTYPE svg PUBLIC "-//W3C//DTD SVG 1.1//EN"
 "http://www.w3.org/Graphics/SVG/1.1/DTD/svg11.dtd">
<!-- Generated by graphviz version 2.38.0 (20140413.2041)
 -->
<!-- Title: org.msrg.raccoon.engine.task.sequential.SequentialCodingTask.finished Pages: 1 -->
<!--zoomable 428 -->
<svg id="main" version="1.1" xmlns="http://www.w3.org/2000/svg" xmlns:xlink="http://www.w3.org/1999/xlink" xml:space="preserve" onload="init(evt)">
<style type="text/css"><![CDATA[
.edge:hover path { stroke: red; }
.edge:hover polygon { stroke: red; fill: red; }
]]></style>
<script type="text/javascript"><![CDATA[
var edges = document.getElementsByTagName('g');
if (edges && edges.length) {
  for (var i=0;i<edges.length;i++) {
    if (edges[i].id.substr(0,4)=='edge') {
      edges[i].setAttribute('class','edge');
    }
  }
}
]]></script>
        <defs>
                <circle id="rim" cx="0" cy="0" r="7"/>
                <circle id="rim2" cx="0" cy="0" r="3.5"/>
                <g id="zoomPlus">
                        <use xlink:href="#rim" fill="#404040">
                                <set attributeName="fill" to="#808080" begin="zoomplus.mouseover" end="zoomplus.mouseout"/>
                        </use>
                        <path d="M-4,0h8M0,-4v8" fill="none" stroke="white" stroke-width="1.5" pointer-events="none"/>
                </g>
                <g id="zoomMin">
                        <use xlink:href="#rim" fill="#404040">
                                <set attributeName="fill" to="#808080" begin="zoomminus.mouseover" end="zoomminus.mouseout"/>
                        </use>
                        <path d="M-4,0h8" fill="none" stroke="white" stroke-width="1.5" pointer-events="none"/>
                </g>
                <g id="dirArrow">
                        <path fill="none" stroke="white" stroke-width="1.5" d="M0,-3.0v7 M-2.5,-0.5L0,-3.0L2.5,-0.5"/>
                </g>
               <g id="resetDef">
                       <use xlink:href="#rim2" fill="#404040">
                               <set attributeName="fill" to="#808080" begin="reset.mouseover" end="reset.mouseout"/>
                       </use>
               </g>
        </defs>

<script type="text/javascript">
var viewWidth = 739;
var viewHeight = 428;
var sectionId = 'dynsection-0';
</script>
<script xlink:href="../../svgpan.js"/>
<svg id="graph" class="graph">
<g id="viewport">
<title>org.msrg.raccoon.engine.task.sequential.SequentialCodingTask.finished</title>
<!-- Node1 -->
<g id="node1" class="node"><title>Node1</title>
<polygon fill="#bfbfbf" stroke="black" points="0,-195 0,-225 196,-225 196,-195 0,-195"/>
<text text-anchor="start" x="8" y="-213" font-family="Helvetica,sans-Serif" font-size="10.00">org.msrg.raccoon.engine.task.sequential.</text>
<text text-anchor="middle" x="98" y="-202" font-family="Helvetica,sans-Serif" font-size="10.00">SequentialCodingTask.finished</text>
</g>
<!-- Node2 -->
<g id="node2" class="node"><title>Node2</title>
<g id="a_node2"><a xlink:href="../../d4/d5e/classorg_1_1msrg_1_1raccoon_1_1engine_1_1task_1_1sequential_1_1MultiplyInverseMultiplyEqual__SequentialCodingTask_a486ab503957784e8d6aa52a9ddde130d.html#a486ab503957784e8d6aa52a9ddde130d" target="_top" xlink:title="org.msrg.raccoon.engine.task.sequential.\lMultiplyInverseMultiplyEqual_Sequential\lCodingTask.codingFinished">
<polygon fill="none" stroke="black" points="263,-378.5 263,-419.5 459,-419.5 459,-378.5 263,-378.5"/>
<text text-anchor="start" x="271" y="-407.5" font-family="Helvetica,sans-Serif" font-size="10.00">org.msrg.raccoon.engine.task.sequential.</text>
<text text-anchor="start" x="271" y="-396.5" font-family="Helvetica,sans-Serif" font-size="10.00">MultiplyInverseMultiplyEqual_Sequential</text>
<text text-anchor="middle" x="361" y="-385.5" font-family="Helvetica,sans-Serif" font-size="10.00">CodingTask.codingFinished</text>
</a>
</g>
</g>
<!-- Node1&#45;&gt;Node2 -->
<g id="edge1" class="edge"><title>Node1&#45;&gt;Node2</title>
<path fill="none" stroke="midnightblue" d="M112.283,-234.156C133.027,-269.507 176.548,-334.833 232,-369 241.522,-374.867 252.088,-379.587 262.95,-383.384"/>
<polygon fill="midnightblue" stroke="midnightblue" points="115.059,-231.961 107.045,-225.03 108.988,-235.446 115.059,-231.961"/>
</g>
<!-- Node3 -->
<g id="node3" class="node"><title>Node3</title>
<g id="a_node3"><a xlink:href="../../dc/d76/classorg_1_1msrg_1_1raccoon_1_1engine_1_1task_1_1sequential_1_1BulkMatrixEqual__CodingTask_a2b079bf5a4d740b867ed98740abb0b49.html#a2b079bf5a4d740b867ed98740abb0b49" target="_top" xlink:title="org.msrg.raccoon.engine.task.sequential.\lBulkMatrixEqual_CodingTask.codingFinished">
<polygon fill="none" stroke="black" points="254,-329 254,-359 468,-359 468,-329 254,-329"/>
<text text-anchor="start" x="262" y="-347" font-family="Helvetica,sans-Serif" font-size="10.00">org.msrg.raccoon.engine.task.sequential.</text>
<text text-anchor="middle" x="361" y="-336" font-family="Helvetica,sans-Serif" font-size="10.00">BulkMatrixEqual_CodingTask.codingFinished</text>
</a>
</g>
</g>
<!-- Node1&#45;&gt;Node3 -->
<g id="edge2" class="edge"><title>Node1&#45;&gt;Node3</title>
<path fill="none" stroke="midnightblue" d="M119.332,-232.643C143.559,-258.109 186.509,-298.684 232,-320 239.37,-323.454 247.199,-326.41 255.212,-328.942"/>
<polygon fill="midnightblue" stroke="midnightblue" points="121.819,-230.177 112.433,-225.263 116.705,-234.958 121.819,-230.177"/>
</g>
<!-- Node4 -->
<g id="node4" class="node"><title>Node4</title>
<g id="a_node4"><a xlink:href="../../d3/d36/classorg_1_1msrg_1_1raccoon_1_1engine_1_1task_1_1sequential_1_1Decoding__SequentialCodingTask_a3497f9c294517ca7934dea0ad28f411d.html#a3497f9c294517ca7934dea0ad28f411d" target="_top" xlink:title="org.msrg.raccoon.engine.task.sequential.\lDecoding_SequentialCodingTask.codingFinished">
<polygon fill="none" stroke="black" points="246,-280 246,-310 476,-310 476,-280 246,-280"/>
<text text-anchor="start" x="254" y="-298" font-family="Helvetica,sans-Serif" font-size="10.00">org.msrg.raccoon.engine.task.sequential.</text>
<text text-anchor="middle" x="361" y="-287" font-family="Helvetica,sans-Serif" font-size="10.00">Decoding_SequentialCodingTask.codingFinished</text>
</a>
</g>
</g>
<!-- Node1&#45;&gt;Node4 -->
<g id="edge3" class="edge"><title>Node1&#45;&gt;Node4</title>
<path fill="none" stroke="midnightblue" d="M136.466,-229.716C162.621,-242.774 198.68,-259.388 232,-270 243.866,-273.779 256.541,-277.089 269.131,-279.955"/>
<polygon fill="midnightblue" stroke="midnightblue" points="137.805,-226.472 127.301,-225.085 134.647,-232.719 137.805,-226.472"/>
</g>
<!-- Node5 -->
<g id="node5" class="node"><title>Node5</title>
<g id="a_node5"><a xlink:href="../../de/d11/classorg_1_1msrg_1_1raccoon_1_1engine_1_1task_1_1sequential_1_1EncodingDecodingEqual__SequentialCodingTask_a13129faffdbf845a23ffdd2def1c2f1a.html#a13129faffdbf845a23ffdd2def1c2f1a" target="_top" xlink:title="org.msrg.raccoon.engine.task.sequential.\lEncodingDecodingEqual_SequentialCodingTask.coding\lFinished">
<polygon fill="none" stroke="black" points="232,-219.5 232,-260.5 490,-260.5 490,-219.5 232,-219.5"/>
<text text-anchor="start" x="240" y="-248.5" font-family="Helvetica,sans-Serif" font-size="10.00">org.msrg.raccoon.engine.task.sequential.</text>
<text text-anchor="start" x="240" y="-237.5" font-family="Helvetica,sans-Serif" font-size="10.00">EncodingDecodingEqual_SequentialCodingTask.coding</text>
<text text-anchor="middle" x="361" y="-226.5" font-family="Helvetica,sans-Serif" font-size="10.00">Finished</text>
</a>
</g>
</g>
<!-- Node1&#45;&gt;Node5 -->
<g id="edge4" class="edge"><title>Node1&#45;&gt;Node5</title>
<path fill="none" stroke="midnightblue" d="M206.326,-222.336C214.7,-223.299 223.205,-224.276 231.698,-225.253"/>
<polygon fill="midnightblue" stroke="midnightblue" points="206.521,-218.836 196.187,-221.171 205.722,-225.79 206.521,-218.836"/>
</g>
<!-- Node6 -->
<g id="node6" class="node"><title>Node6</title>
<g id="a_node6"><a xlink:href="../../df/d07/classorg_1_1msrg_1_1raccoon_1_1engine_1_1task_1_1sequential_1_1MultiplyBulkMatrix__SequentialCodingTask_a811e36a15733ee58c71e7b8f12f0cec8.html#a811e36a15733ee58c71e7b8f12f0cec8" target="_top" xlink:title="org.msrg.raccoon.engine.task.sequential.\lMultiplyBulkMatrix_SequentialCodingTask.coding\lFinished">
<polygon fill="none" stroke="black" points="245,-159.5 245,-200.5 477,-200.5 477,-159.5 245,-159.5"/>
<text text-anchor="start" x="253" y="-188.5" font-family="Helvetica,sans-Serif" font-size="10.00">org.msrg.raccoon.engine.task.sequential.</text>
<text text-anchor="start" x="253" y="-177.5" font-family="Helvetica,sans-Serif" font-size="10.00">MultiplyBulkMatrix_SequentialCodingTask.coding</text>
<text text-anchor="middle" x="361" y="-166.5" font-family="Helvetica,sans-Serif" font-size="10.00">Finished</text>
</a>
</g>
</g>
<!-- Node1&#45;&gt;Node6 -->
<g id="edge5" class="edge"><title>Node1&#45;&gt;Node6</title>
<path fill="none" stroke="midnightblue" d="M206.267,-197.67C218.93,-196.215 231.893,-194.725 244.661,-193.257"/>
<polygon fill="midnightblue" stroke="midnightblue" points="205.722,-194.21 196.187,-198.829 206.521,-201.164 205.722,-194.21"/>
</g>
<!-- Node7 -->
<g id="node7" class="node"><title>Node7</title>
<g id="a_node7"><a xlink:href="../../dd/db2/classorg_1_1msrg_1_1raccoon_1_1engine_1_1task_1_1sequential_1_1Encoding__SequentialCodingTask_a93b6d3396f71634bf3f2b9e6a9ea23f3.html#a93b6d3396f71634bf3f2b9e6a9ea23f3" target="_top" xlink:title="org.msrg.raccoon.engine.task.sequential.\lEncoding_SequentialCodingTask.codingFinished">
<polygon fill="none" stroke="black" points="246.5,-110 246.5,-140 475.5,-140 475.5,-110 246.5,-110"/>
<text text-anchor="start" x="254.5" y="-128" font-family="Helvetica,sans-Serif" font-size="10.00">org.msrg.raccoon.engine.task.sequential.</text>
<text text-anchor="middle" x="361" y="-117" font-family="Helvetica,sans-Serif" font-size="10.00">Encoding_SequentialCodingTask.codingFinished</text>
</a>
</g>
</g>
<!-- Node1&#45;&gt;Node7 -->
<g id="edge6" class="edge"><title>Node1&#45;&gt;Node7</title>
<path fill="none" stroke="midnightblue" d="M136.466,-190.284C162.621,-177.226 198.68,-160.612 232,-150 243.866,-146.221 256.541,-142.911 269.131,-140.045"/>
<polygon fill="midnightblue" stroke="midnightblue" points="134.647,-187.281 127.301,-194.915 137.805,-193.528 134.647,-187.281"/>
</g>
<!-- Node8 -->
<g id="node8" class="node"><title>Node8</title>
<g id="a_node8"><a xlink:href="../../d6/d78/classorg_1_1msrg_1_1raccoon_1_1engine_1_1task_1_1sequential_1_1SequentialCodingTask_a0f1697228b30f8a446c0e9c2516010f8.html#a0f1697228b30f8a446c0e9c2516010f8" target="_top" xlink:title="org.msrg.raccoon.engine.task.sequential.\lSequentialCodingTask.runInitialSequencialTasks">
<polygon fill="none" stroke="black" points="246,-61 246,-91 476,-91 476,-61 246,-61"/>
<text text-anchor="start" x="254" y="-79" font-family="Helvetica,sans-Serif" font-size="10.00">org.msrg.raccoon.engine.task.sequential.</text>
<text text-anchor="middle" x="361" y="-68" font-family="Helvetica,sans-Serif" font-size="10.00">SequentialCodingTask.runInitialSequencialTasks</text>
</a>
</g>
</g>
<!-- Node1&#45;&gt;Node8 -->
<g id="edge7" class="edge"><title>Node1&#45;&gt;Node8</title>
<path fill="none" stroke="midnightblue" d="M119.404,-187.629C143.697,-162.456 186.709,-122.306 232,-101 240.298,-97.0965 249.174,-93.8023 258.237,-91.0225"/>
<polygon fill="midnightblue" stroke="midnightblue" points="116.827,-185.26 112.484,-194.923 121.906,-190.077 116.827,-185.26"/>
</g>
<!-- Node10 -->
<g id="node10" class="node"><title>Node10</title>
<g id="a_node10"><a xlink:href="../../d5/daf/classorg_1_1msrg_1_1raccoon_1_1engine_1_1task_1_1sequential_1_1EncodingReceivedEncodingDecodingEqual__SequentialCodingTask_acf664608beaee091834399cde52cbf8f.html#acf664608beaee091834399cde52cbf8f" target="_top" xlink:title="org.msrg.raccoon.engine.task.sequential.\lEncodingReceivedEncodingDecodingEqual\l_SequentialCodingTask.runStagePrivately">
<polygon fill="none" stroke="black" points="258.5,-0.5 258.5,-41.5 463.5,-41.5 463.5,-0.5 258.5,-0.5"/>
<text text-anchor="start" x="266.5" y="-29.5" font-family="Helvetica,sans-Serif" font-size="10.00">org.msrg.raccoon.engine.task.sequential.</text>
<text text-anchor="start" x="266.5" y="-18.5" font-family="Helvetica,sans-Serif" font-size="10.00">EncodingReceivedEncodingDecodingEqual</text>
<text text-anchor="middle" x="361" y="-7.5" font-family="Helvetica,sans-Serif" font-size="10.00">_SequentialCodingTask.runStagePrivately</text>
</a>
</g>
</g>
<!-- Node1&#45;&gt;Node10 -->
<g id="edge9" class="edge"><title>Node1&#45;&gt;Node10</title>
<path fill="none" stroke="midnightblue" d="M112.283,-185.844C133.027,-150.493 176.548,-85.167 232,-51 240.161,-45.9713 249.09,-41.7852 258.315,-38.3005"/>
<polygon fill="midnightblue" stroke="midnightblue" points="108.988,-184.554 107.045,-194.97 115.059,-188.039 108.988,-184.554"/>
</g>
<!-- Node9 -->
<g id="node9" class="node"><title>Node9</title>
<g id="a_node9"><a xlink:href="../../d6/d19/classorg_1_1msrg_1_1raccoon_1_1engine_1_1thread_1_1CodingThreadImpl_af81a44607be02e9f01c5f4c119ff5ed4.html#af81a44607be02e9f01c5f4c119ff5ed4" target="_top" xlink:title="org.msrg.raccoon.engine.thread.\lCodingThreadImpl.runTask">
<polygon fill="none" stroke="black" points="550,-61 550,-91 707,-91 707,-61 550,-61"/>
<text text-anchor="start" x="558" y="-79" font-family="Helvetica,sans-Serif" font-size="10.00">org.msrg.raccoon.engine.thread.</text>
<text text-anchor="middle" x="628.5" y="-68" font-family="Helvetica,sans-Serif" font-size="10.00">CodingThreadImpl.runTask</text>
</a>
</g>
</g>
<!-- Node8&#45;&gt;Node9 -->
<g id="edge8" class="edge"><title>Node8&#45;&gt;Node9</title>
<path fill="none" stroke="midnightblue" d="M486.381,-76C508.008,-76 529.933,-76 549.848,-76"/>
<polygon fill="midnightblue" stroke="midnightblue" points="486.137,-72.5001 476.137,-76 486.137,-79.5001 486.137,-72.5001"/>
</g>
<!-- Node11 -->
<g id="node11" class="node"><title>Node11</title>
<g id="a_node11"><a xlink:href="../../d5/daf/classorg_1_1msrg_1_1raccoon_1_1engine_1_1task_1_1sequential_1_1EncodingReceivedEncodingDecodingEqual__SequentialCodingTask_ad2c155a55fc3d08e007c03be1be0b195.html#ad2c155a55fc3d08e007c03be1be0b195" target="_top" xlink:title="org.msrg.raccoon.engine.task.sequential.\lEncodingReceivedEncodingDecodingEqual\l_SequentialCodingTask.codingFinished">
<polygon fill="none" stroke="black" points="526,-0.5 526,-41.5 731,-41.5 731,-0.5 526,-0.5"/>
<text text-anchor="start" x="534" y="-29.5" font-family="Helvetica,sans-Serif" font-size="10.00">org.msrg.raccoon.engine.task.sequential.</text>
<text text-anchor="start" x="534" y="-18.5" font-family="Helvetica,sans-Serif" font-size="10.00">EncodingReceivedEncodingDecodingEqual</text>
<text text-anchor="middle" x="628.5" y="-7.5" font-family="Helvetica,sans-Serif" font-size="10.00">_SequentialCodingTask.codingFinished</text>
</a>
</g>
</g>
<!-- Node10&#45;&gt;Node11 -->
<g id="edge10" class="edge"><title>Node10&#45;&gt;Node11</title>
<path fill="none" stroke="midnightblue" d="M473.6,-21C490.849,-21 508.586,-21 525.606,-21"/>
<polygon fill="midnightblue" stroke="midnightblue" points="473.511,-17.5001 463.511,-21 473.511,-24.5001 473.511,-17.5001"/>
</g>
</g>
</svg>
        <g id="navigator" transform="translate(0 0)" fill="#404254">
                <rect fill="#f2f5e9" fill-opacity="0.5" stroke="#606060" stroke-width=".5" x="0" y="0" width="60" height="60"/>
                <use id="zoomplus" xlink:href="#zoomPlus" x="17" y="9" onmousedown="handleZoom(evt,'in')"/>
                <use id="zoomminus" xlink:href="#zoomMin" x="42" y="9" onmousedown="handleZoom(evt,'out')"/>
                <use id="reset" xlink:href="#resetDef" x="30" y="36" onmousedown="handleReset()"/>
                <g id="arrowUp" xlink:href="#dirArrow" transform="translate(30 24)" onmousedown="handlePan(0,-1)">
                  <use xlink:href="#rim" fill="#404040">
                        <set attributeName="fill" to="#808080" begin="arrowUp.mouseover" end="arrowUp.mouseout"/>
                  </use>
                  <path fill="none" stroke="white" stroke-width="1.5" d="M0,-3.0v7 M-2.5,-0.5L0,-3.0L2.5,-0.5"/>
                </g>
                <g id="arrowRight" xlink:href="#dirArrow" transform="rotate(90) translate(36 -43)" onmousedown="handlePan(1,0)">
                  <use xlink:href="#rim" fill="#404040">
                        <set attributeName="fill" to="#808080" begin="arrowRight.mouseover" end="arrowRight.mouseout"/>
                  </use>
                  <path fill="none" stroke="white" stroke-width="1.5" d="M0,-3.0v7 M-2.5,-0.5L0,-3.0L2.5,-0.5"/>
                </g>
                <g id="arrowDown" xlink:href="#dirArrow" transform="rotate(180) translate(-30 -48)" onmousedown="handlePan(0,1)">
                  <use xlink:href="#rim" fill="#404040">
                        <set attributeName="fill" to="#808080" begin="arrowDown.mouseover" end="arrowDown.mouseout"/>
                  </use>
                  <path fill="none" stroke="white" stroke-width="1.5" d="M0,-3.0v7 M-2.5,-0.5L0,-3.0L2.5,-0.5"/>
                </g>
                <g id="arrowLeft" xlink:href="#dirArrow" transform="rotate(270) translate(-36 17)" onmousedown="handlePan(-1,0)">
                  <use xlink:href="#rim" fill="#404040">
                        <set attributeName="fill" to="#808080" begin="arrowLeft.mouseover" end="arrowLeft.mouseout"/>
                  </use>
                  <path fill="none" stroke="white" stroke-width="1.5" d="M0,-3.0v7 M-2.5,-0.5L0,-3.0L2.5,-0.5"/>
                </g>
        </g>
        <svg viewBox="0 0 15 15" width="100%" height="30px" preserveAspectRatio="xMaxYMin meet">
         <g id="arrow_out" transform="scale(0.3 0.3)">
          <a xlink:href="classorg_1_1msrg_1_1raccoon_1_1engine_1_1task_1_1sequential_1_1SequentialCodingTask_a144e5086b6be72e0c13869c563c7189c_a144e5086b6be72e0c13869c563c7189c_icgraph_org.svg" target="_base">
           <rect id="button" ry="5" rx="5" y="6" x="6" height="38" width="38"
                fill="#f2f5e9" fill-opacity="0.5" stroke="#606060" stroke-width="1.0"/>
           <path id="arrow"
             d="M 11.500037,31.436501 C 11.940474,20.09759 22.043105,11.32322 32.158766,21.979434 L 37.068811,17.246167 C 37.068811,17.246167 37.088388,32 37.088388,32 L 22.160133,31.978069 C 22.160133,31.978069 26.997745,27.140456 26.997745,27.140456 C 18.528582,18.264221 13.291696,25.230495 11.500037,31.436501 z"
             style="fill:#404040;"/>
          </a>
         </g>
        </svg>
</svg>
