<?xml version="1.0" encoding="UTF-8" standalone="no"?>
<!DOCTYPE svg PUBLIC "-//W3C//DTD SVG 1.1//EN"
 "http://www.w3.org/Graphics/SVG/1.1/DTD/svg11.dtd">
<!-- Generated by graphviz version 2.38.0 (20140413.2041)
 -->
<!-- Title: org.msrg.raccoon.engine.task.sequential.SequentialCodingTask.getFinalStage Pages: 1 -->
<svg width="991pt" height="428pt"
 viewBox="0.00 0.00 991.00 428.00" xmlns="http://www.w3.org/2000/svg" xmlns:xlink="http://www.w3.org/1999/xlink">
<g id="graph0" class="graph" transform="scale(1 1) rotate(0) translate(4 424)">
<title>org.msrg.raccoon.engine.task.sequential.SequentialCodingTask.getFinalStage</title>
<!-- Node1 -->
<g id="node1" class="node"><title>Node1</title>
<polygon fill="#bfbfbf" stroke="black" points="0,-195 0,-225 196,-225 196,-195 0,-195"/>
<text text-anchor="start" x="8" y="-213" font-family="Helvetica,sans-Serif" font-size="10.00">org.msrg.raccoon.engine.task.sequential.</text>
<text text-anchor="middle" x="98" y="-202" font-family="Helvetica,sans-Serif" font-size="10.00">SequentialCodingTask.getFinalStage</text>
</g>
<!-- Node2 -->
<g id="node2" class="node"><title>Node2</title>
<g id="a_node2"><a xlink:href="../../d6/d78/classorg_1_1msrg_1_1raccoon_1_1engine_1_1task_1_1sequential_1_1SequentialCodingTask_a2517166606861973038b8b4155d533ca.html#a2517166606861973038b8b4155d533ca" target="_top" xlink:title="org.msrg.raccoon.engine.task.sequential.\lSequentialCodingTask.getStageTimes">
<polygon fill="none" stroke="black" points="242,-244 242,-274 438,-274 438,-244 242,-244"/>
<text text-anchor="start" x="250" y="-262" font-family="Helvetica,sans-Serif" font-size="10.00">org.msrg.raccoon.engine.task.sequential.</text>
<text text-anchor="middle" x="340" y="-251" font-family="Helvetica,sans-Serif" font-size="10.00">SequentialCodingTask.getStageTimes</text>
</a>
</g>
</g>
<!-- Node1&#45;&gt;Node2 -->
<g id="edge1" class="edge"><title>Node1&#45;&gt;Node2</title>
<path fill="none" stroke="midnightblue" d="M182.461,-227.04C209.489,-232.558 239.251,-238.634 265.5,-243.994"/>
<polygon fill="midnightblue" stroke="midnightblue" points="183.137,-223.606 172.639,-225.035 181.737,-230.464 183.137,-223.606"/>
</g>
<!-- Node3 -->
<g id="node3" class="node"><title>Node3</title>
<g id="a_node3"><a xlink:href="../../d6/d78/classorg_1_1msrg_1_1raccoon_1_1engine_1_1task_1_1sequential_1_1SequentialCodingTask_a20507db4cd28c24453172612ae32afe5.html#a20507db4cd28c24453172612ae32afe5" target="_top" xlink:title="org.msrg.raccoon.engine.task.sequential.\lSequentialCodingTask.reachedFinalStage">
<polygon fill="none" stroke="black" points="240.5,-195 240.5,-225 439.5,-225 439.5,-195 240.5,-195"/>
<text text-anchor="start" x="248.5" y="-213" font-family="Helvetica,sans-Serif" font-size="10.00">org.msrg.raccoon.engine.task.sequential.</text>
<text text-anchor="middle" x="340" y="-202" font-family="Helvetica,sans-Serif" font-size="10.00">SequentialCodingTask.reachedFinalStage</text>
</a>
</g>
</g>
<!-- Node1&#45;&gt;Node3 -->
<g id="edge2" class="edge"><title>Node1&#45;&gt;Node3</title>
<path fill="none" stroke="midnightblue" d="M206.568,-210C217.839,-210 229.257,-210 240.42,-210"/>
<polygon fill="midnightblue" stroke="midnightblue" points="206.271,-206.5 196.271,-210 206.271,-213.5 206.271,-206.5"/>
</g>
<!-- Node14 -->
<g id="node14" class="node"><title>Node14</title>
<g id="a_node14"><a xlink:href="../../d6/d78/classorg_1_1msrg_1_1raccoon_1_1engine_1_1task_1_1sequential_1_1SequentialCodingTask_a39122bca57990a0dd990577664bb999c.html#a39122bca57990a0dd990577664bb999c" target="_top" xlink:title="org.msrg.raccoon.engine.task.sequential.\lSequentialCodingTask.SequentialCodingTask">
<polygon fill="none" stroke="black" points="232,-146 232,-176 448,-176 448,-146 232,-146"/>
<text text-anchor="start" x="240" y="-164" font-family="Helvetica,sans-Serif" font-size="10.00">org.msrg.raccoon.engine.task.sequential.</text>
<text text-anchor="middle" x="340" y="-153" font-family="Helvetica,sans-Serif" font-size="10.00">SequentialCodingTask.SequentialCodingTask</text>
</a>
</g>
</g>
<!-- Node1&#45;&gt;Node14 -->
<g id="edge13" class="edge"><title>Node1&#45;&gt;Node14</title>
<path fill="none" stroke="midnightblue" d="M182.461,-192.96C209.489,-187.442 239.251,-181.366 265.5,-176.006"/>
<polygon fill="midnightblue" stroke="midnightblue" points="181.737,-189.536 172.639,-194.965 183.137,-196.394 181.737,-189.536"/>
</g>
<!-- Node4 -->
<g id="node4" class="node"><title>Node4</title>
<g id="a_node4"><a xlink:href="../../d4/d5e/classorg_1_1msrg_1_1raccoon_1_1engine_1_1task_1_1sequential_1_1MultiplyInverseMultiplyEqual__SequentialCodingTask_a486ab503957784e8d6aa52a9ddde130d.html#a486ab503957784e8d6aa52a9ddde130d" target="_top" xlink:title="org.msrg.raccoon.engine.task.sequential.\lMultiplyInverseMultiplyEqual_Sequential\lCodingTask.codingFinished">
<polygon fill="none" stroke="black" points="515,-378.5 515,-419.5 711,-419.5 711,-378.5 515,-378.5"/>
<text text-anchor="start" x="523" y="-407.5" font-family="Helvetica,sans-Serif" font-size="10.00">org.msrg.raccoon.engine.task.sequential.</text>
<text text-anchor="start" x="523" y="-396.5" font-family="Helvetica,sans-Serif" font-size="10.00">MultiplyInverseMultiplyEqual_Sequential</text>
<text text-anchor="middle" x="613" y="-385.5" font-family="Helvetica,sans-Serif" font-size="10.00">CodingTask.codingFinished</text>
</a>
</g>
</g>
<!-- Node3&#45;&gt;Node4 -->
<g id="edge3" class="edge"><title>Node3&#45;&gt;Node4</title>
<path fill="none" stroke="midnightblue" d="M443.336,-230.901C444.952,-232.192 446.509,-233.557 448,-235 492.317,-277.882 439.697,-326.103 484,-369 492.773,-377.494 503.469,-383.748 514.902,-388.328"/>
<polygon fill="midnightblue" stroke="midnightblue" points="445.036,-227.821 434.814,-225.036 441.068,-233.588 445.036,-227.821"/>
</g>
<!-- Node5 -->
<g id="node5" class="node"><title>Node5</title>
<g id="a_node5"><a xlink:href="../../dc/d76/classorg_1_1msrg_1_1raccoon_1_1engine_1_1task_1_1sequential_1_1BulkMatrixEqual__CodingTask_a2b079bf5a4d740b867ed98740abb0b49.html#a2b079bf5a4d740b867ed98740abb0b49" target="_top" xlink:title="org.msrg.raccoon.engine.task.sequential.\lBulkMatrixEqual_CodingTask.codingFinished">
<polygon fill="none" stroke="black" points="506,-329 506,-359 720,-359 720,-329 506,-329"/>
<text text-anchor="start" x="514" y="-347" font-family="Helvetica,sans-Serif" font-size="10.00">org.msrg.raccoon.engine.task.sequential.</text>
<text text-anchor="middle" x="613" y="-336" font-family="Helvetica,sans-Serif" font-size="10.00">BulkMatrixEqual_CodingTask.codingFinished</text>
</a>
</g>
</g>
<!-- Node3&#45;&gt;Node5 -->
<g id="edge4" class="edge"><title>Node3&#45;&gt;Node5</title>
<path fill="none" stroke="midnightblue" d="M441.702,-230.243C443.884,-231.723 445.989,-233.307 448,-235 479.383,-261.425 452.041,-294.274 484,-320 490.605,-325.316 498.021,-329.59 505.869,-333.013"/>
<polygon fill="midnightblue" stroke="midnightblue" points="443.317,-227.131 432.933,-225.028 439.739,-233.148 443.317,-227.131"/>
</g>
<!-- Node6 -->
<g id="node6" class="node"><title>Node6</title>
<g id="a_node6"><a xlink:href="../../d3/d36/classorg_1_1msrg_1_1raccoon_1_1engine_1_1task_1_1sequential_1_1Decoding__SequentialCodingTask_a3497f9c294517ca7934dea0ad28f411d.html#a3497f9c294517ca7934dea0ad28f411d" target="_top" xlink:title="org.msrg.raccoon.engine.task.sequential.\lDecoding_SequentialCodingTask.codingFinished">
<polygon fill="none" stroke="black" points="498,-280 498,-310 728,-310 728,-280 498,-280"/>
<text text-anchor="start" x="506" y="-298" font-family="Helvetica,sans-Serif" font-size="10.00">org.msrg.raccoon.engine.task.sequential.</text>
<text text-anchor="middle" x="613" y="-287" font-family="Helvetica,sans-Serif" font-size="10.00">Decoding_SequentialCodingTask.codingFinished</text>
</a>
</g>
</g>
<!-- Node3&#45;&gt;Node6 -->
<g id="edge5" class="edge"><title>Node3&#45;&gt;Node6</title>
<path fill="none" stroke="midnightblue" d="M434.79,-228.689C439.346,-230.593 443.776,-232.69 448,-235 467.579,-245.707 464.228,-259.654 484,-270 491.423,-273.884 499.374,-277.168 507.545,-279.943"/>
<polygon fill="midnightblue" stroke="midnightblue" points="435.879,-225.358 425.289,-225.045 433.373,-231.894 435.879,-225.358"/>
</g>
<!-- Node7 -->
<g id="node7" class="node"><title>Node7</title>
<g id="a_node7"><a xlink:href="../../de/d11/classorg_1_1msrg_1_1raccoon_1_1engine_1_1task_1_1sequential_1_1EncodingDecodingEqual__SequentialCodingTask_a13129faffdbf845a23ffdd2def1c2f1a.html#a13129faffdbf845a23ffdd2def1c2f1a" target="_top" xlink:title="org.msrg.raccoon.engine.task.sequential.\lEncodingDecodingEqual_SequentialCodingTask.coding\lFinished">
<polygon fill="none" stroke="black" points="484,-219.5 484,-260.5 742,-260.5 742,-219.5 484,-219.5"/>
<text text-anchor="start" x="492" y="-248.5" font-family="Helvetica,sans-Serif" font-size="10.00">org.msrg.raccoon.engine.task.sequential.</text>
<text text-anchor="start" x="492" y="-237.5" font-family="Helvetica,sans-Serif" font-size="10.00">EncodingDecodingEqual_SequentialCodingTask.coding</text>
<text text-anchor="middle" x="613" y="-226.5" font-family="Helvetica,sans-Serif" font-size="10.00">Finished</text>
</a>
</g>
</g>
<!-- Node3&#45;&gt;Node7 -->
<g id="edge6" class="edge"><title>Node3&#45;&gt;Node7</title>
<path fill="none" stroke="midnightblue" d="M449.802,-222.045C460.995,-223.284 472.441,-224.551 483.818,-225.81"/>
<polygon fill="midnightblue" stroke="midnightblue" points="449.928,-218.537 439.604,-220.916 449.158,-225.495 449.928,-218.537"/>
</g>
<!-- Node8 -->
<g id="node8" class="node"><title>Node8</title>
<g id="a_node8"><a xlink:href="../../df/d07/classorg_1_1msrg_1_1raccoon_1_1engine_1_1task_1_1sequential_1_1MultiplyBulkMatrix__SequentialCodingTask_a811e36a15733ee58c71e7b8f12f0cec8.html#a811e36a15733ee58c71e7b8f12f0cec8" target="_top" xlink:title="org.msrg.raccoon.engine.task.sequential.\lMultiplyBulkMatrix_SequentialCodingTask.coding\lFinished">
<polygon fill="none" stroke="black" points="497,-159.5 497,-200.5 729,-200.5 729,-159.5 497,-159.5"/>
<text text-anchor="start" x="505" y="-188.5" font-family="Helvetica,sans-Serif" font-size="10.00">org.msrg.raccoon.engine.task.sequential.</text>
<text text-anchor="start" x="505" y="-177.5" font-family="Helvetica,sans-Serif" font-size="10.00">MultiplyBulkMatrix_SequentialCodingTask.coding</text>
<text text-anchor="middle" x="613" y="-166.5" font-family="Helvetica,sans-Serif" font-size="10.00">Finished</text>
</a>
</g>
</g>
<!-- Node3&#45;&gt;Node8 -->
<g id="edge7" class="edge"><title>Node3&#45;&gt;Node8</title>
<path fill="none" stroke="midnightblue" d="M449.727,-197.964C465.252,-196.245 481.265,-194.472 496.907,-192.741"/>
<polygon fill="midnightblue" stroke="midnightblue" points="449.158,-194.505 439.604,-199.084 449.928,-201.463 449.158,-194.505"/>
</g>
<!-- Node9 -->
<g id="node9" class="node"><title>Node9</title>
<g id="a_node9"><a xlink:href="../../dd/db2/classorg_1_1msrg_1_1raccoon_1_1engine_1_1task_1_1sequential_1_1Encoding__SequentialCodingTask_a93b6d3396f71634bf3f2b9e6a9ea23f3.html#a93b6d3396f71634bf3f2b9e6a9ea23f3" target="_top" xlink:title="org.msrg.raccoon.engine.task.sequential.\lEncoding_SequentialCodingTask.codingFinished">
<polygon fill="none" stroke="black" points="498.5,-110 498.5,-140 727.5,-140 727.5,-110 498.5,-110"/>
<text text-anchor="start" x="506.5" y="-128" font-family="Helvetica,sans-Serif" font-size="10.00">org.msrg.raccoon.engine.task.sequential.</text>
<text text-anchor="middle" x="613" y="-117" font-family="Helvetica,sans-Serif" font-size="10.00">Encoding_SequentialCodingTask.codingFinished</text>
</a>
</g>
</g>
<!-- Node3&#45;&gt;Node9 -->
<g id="edge8" class="edge"><title>Node3&#45;&gt;Node9</title>
<path fill="none" stroke="midnightblue" d="M437.679,-191.078C441.223,-189.518 444.677,-187.828 448,-186 467.825,-175.092 464.026,-160.632 484,-150 491.295,-146.117 499.112,-142.833 507.154,-140.056"/>
<polygon fill="midnightblue" stroke="midnightblue" points="436.092,-187.944 428.115,-194.916 438.699,-194.44 436.092,-187.944"/>
</g>
<!-- Node10 -->
<g id="node10" class="node"><title>Node10</title>
<g id="a_node10"><a xlink:href="../../d6/d78/classorg_1_1msrg_1_1raccoon_1_1engine_1_1task_1_1sequential_1_1SequentialCodingTask_a0f1697228b30f8a446c0e9c2516010f8.html#a0f1697228b30f8a446c0e9c2516010f8" target="_top" xlink:title="org.msrg.raccoon.engine.task.sequential.\lSequentialCodingTask.runInitialSequencialTasks">
<polygon fill="none" stroke="black" points="498,-61 498,-91 728,-91 728,-61 498,-61"/>
<text text-anchor="start" x="506" y="-79" font-family="Helvetica,sans-Serif" font-size="10.00">org.msrg.raccoon.engine.task.sequential.</text>
<text text-anchor="middle" x="613" y="-68" font-family="Helvetica,sans-Serif" font-size="10.00">SequentialCodingTask.runInitialSequencialTasks</text>
</a>
</g>
</g>
<!-- Node3&#45;&gt;Node10 -->
<g id="edge9" class="edge"><title>Node3&#45;&gt;Node10</title>
<path fill="none" stroke="midnightblue" d="M443.24,-189.651C444.876,-188.497 446.465,-187.281 448,-186 479.5,-159.714 452.138,-126.846 484,-101 488.66,-97.22 493.726,-93.9547 499.066,-91.1381"/>
<polygon fill="midnightblue" stroke="midnightblue" points="441.369,-186.693 434.701,-194.926 445.048,-192.649 441.369,-186.693"/>
</g>
<!-- Node12 -->
<g id="node12" class="node"><title>Node12</title>
<g id="a_node12"><a xlink:href="../../d5/daf/classorg_1_1msrg_1_1raccoon_1_1engine_1_1task_1_1sequential_1_1EncodingReceivedEncodingDecodingEqual__SequentialCodingTask_acf664608beaee091834399cde52cbf8f.html#acf664608beaee091834399cde52cbf8f" target="_top" xlink:title="org.msrg.raccoon.engine.task.sequential.\lEncodingReceivedEncodingDecodingEqual\l_SequentialCodingTask.runStagePrivately">
<polygon fill="none" stroke="black" points="510.5,-0.5 510.5,-41.5 715.5,-41.5 715.5,-0.5 510.5,-0.5"/>
<text text-anchor="start" x="518.5" y="-29.5" font-family="Helvetica,sans-Serif" font-size="10.00">org.msrg.raccoon.engine.task.sequential.</text>
<text text-anchor="start" x="518.5" y="-18.5" font-family="Helvetica,sans-Serif" font-size="10.00">EncodingReceivedEncodingDecodingEqual</text>
<text text-anchor="middle" x="613" y="-7.5" font-family="Helvetica,sans-Serif" font-size="10.00">_SequentialCodingTask.runStagePrivately</text>
</a>
</g>
</g>
<!-- Node3&#45;&gt;Node12 -->
<g id="edge11" class="edge"><title>Node3&#45;&gt;Node12</title>
<path fill="none" stroke="midnightblue" d="M444.546,-189.085C445.732,-188.1 446.885,-187.072 448,-186 492.777,-142.977 439.429,-94.2369 484,-51 491.618,-43.6101 500.692,-37.915 510.441,-33.5429"/>
<polygon fill="midnightblue" stroke="midnightblue" points="442.373,-186.337 436.27,-194.997 446.441,-192.033 442.373,-186.337"/>
</g>
<!-- Node11 -->
<g id="node11" class="node"><title>Node11</title>
<g id="a_node11"><a xlink:href="../../d6/d19/classorg_1_1msrg_1_1raccoon_1_1engine_1_1thread_1_1CodingThreadImpl_af81a44607be02e9f01c5f4c119ff5ed4.html#af81a44607be02e9f01c5f4c119ff5ed4" target="_top" xlink:title="org.msrg.raccoon.engine.thread.\lCodingThreadImpl.runTask">
<polygon fill="none" stroke="black" points="802,-61 802,-91 959,-91 959,-61 802,-61"/>
<text text-anchor="start" x="810" y="-79" font-family="Helvetica,sans-Serif" font-size="10.00">org.msrg.raccoon.engine.thread.</text>
<text text-anchor="middle" x="880.5" y="-68" font-family="Helvetica,sans-Serif" font-size="10.00">CodingThreadImpl.runTask</text>
</a>
</g>
</g>
<!-- Node10&#45;&gt;Node11 -->
<g id="edge10" class="edge"><title>Node10&#45;&gt;Node11</title>
<path fill="none" stroke="midnightblue" d="M738.381,-76C760.008,-76 781.933,-76 801.848,-76"/>
<polygon fill="midnightblue" stroke="midnightblue" points="738.137,-72.5001 728.137,-76 738.137,-79.5001 738.137,-72.5001"/>
</g>
<!-- Node13 -->
<g id="node13" class="node"><title>Node13</title>
<g id="a_node13"><a xlink:href="../../d5/daf/classorg_1_1msrg_1_1raccoon_1_1engine_1_1task_1_1sequential_1_1EncodingReceivedEncodingDecodingEqual__SequentialCodingTask_ad2c155a55fc3d08e007c03be1be0b195.html#ad2c155a55fc3d08e007c03be1be0b195" target="_top" xlink:title="org.msrg.raccoon.engine.task.sequential.\lEncodingReceivedEncodingDecodingEqual\l_SequentialCodingTask.codingFinished">
<polygon fill="none" stroke="black" points="778,-0.5 778,-41.5 983,-41.5 983,-0.5 778,-0.5"/>
<text text-anchor="start" x="786" y="-29.5" font-family="Helvetica,sans-Serif" font-size="10.00">org.msrg.raccoon.engine.task.sequential.</text>
<text text-anchor="start" x="786" y="-18.5" font-family="Helvetica,sans-Serif" font-size="10.00">EncodingReceivedEncodingDecodingEqual</text>
<text text-anchor="middle" x="880.5" y="-7.5" font-family="Helvetica,sans-Serif" font-size="10.00">_SequentialCodingTask.codingFinished</text>
</a>
</g>
</g>
<!-- Node12&#45;&gt;Node13 -->
<g id="edge12" class="edge"><title>Node12&#45;&gt;Node13</title>
<path fill="none" stroke="midnightblue" d="M725.6,-21C742.849,-21 760.586,-21 777.606,-21"/>
<polygon fill="midnightblue" stroke="midnightblue" points="725.511,-17.5001 715.511,-21 725.511,-24.5001 725.511,-17.5001"/>
</g>
</g>
</svg>
