<?xml version="1.0" encoding="UTF-8" standalone="no"?>
<!DOCTYPE svg PUBLIC "-//W3C//DTD SVG 1.1//EN"
 "http://www.w3.org/Graphics/SVG/1.1/DTD/svg11.dtd">
<!-- Generated by graphviz version 2.38.0 (20140413.2041)
 -->
<!-- Title: org.msrg.raccoon.engine.task.sequential.SequentialCodingTask.reachedFinalStage Pages: 1 -->
<!--zoomable 424 -->
<svg id="main" version="1.1" xmlns="http://www.w3.org/2000/svg" xmlns:xlink="http://www.w3.org/1999/xlink" xml:space="preserve" onload="init(evt)">
<style type="text/css"><![CDATA[
.edge:hover path { stroke: red; }
.edge:hover polygon { stroke: red; fill: red; }
]]></style>
<script type="text/javascript"><![CDATA[
var edges = document.getElementsByTagName('g');
if (edges && edges.length) {
  for (var i=0;i<edges.length;i++) {
    if (edges[i].id.substr(0,4)=='edge') {
      edges[i].setAttribute('class','edge');
    }
  }
}
]]></script>
        <defs>
                <circle id="rim" cx="0" cy="0" r="7"/>
                <circle id="rim2" cx="0" cy="0" r="3.5"/>
                <g id="zoomPlus">
                        <use xlink:href="#rim" fill="#404040">
                                <set attributeName="fill" to="#808080" begin="zoomplus.mouseover" end="zoomplus.mouseout"/>
                        </use>
                        <path d="M-4,0h8M0,-4v8" fill="none" stroke="white" stroke-width="1.5" pointer-events="none"/>
                </g>
                <g id="zoomMin">
                        <use xlink:href="#rim" fill="#404040">
                                <set attributeName="fill" to="#808080" begin="zoomminus.mouseover" end="zoomminus.mouseout"/>
                        </use>
                        <path d="M-4,0h8" fill="none" stroke="white" stroke-width="1.5" pointer-events="none"/>
                </g>
                <g id="dirArrow">
                        <path fill="none" stroke="white" stroke-width="1.5" d="M0,-3.0v7 M-2.5,-0.5L0,-3.0L2.5,-0.5"/>
                </g>
               <g id="resetDef">
                       <use xlink:href="#rim2" fill="#404040">
                               <set attributeName="fill" to="#808080" begin="reset.mouseover" end="reset.mouseout"/>
                       </use>
               </g>
        </defs>

<script type="text/javascript">
var viewWidth = 742;
var viewHeight = 424;
var sectionId = 'dynsection-1';
</script>
<script xlink:href="../../svgpan.js"/>
<svg id="graph" class="graph">
<g id="viewport">
<title>org.msrg.raccoon.engine.task.sequential.SequentialCodingTask.reachedFinalStage</title>
<!-- Node1 -->
<g id="node1" class="node"><title>Node1</title>
<polygon fill="#bfbfbf" stroke="black" points="0,-193 0,-223 199,-223 199,-193 0,-193"/>
<text text-anchor="start" x="8" y="-211" font-family="Helvetica,sans-Serif" font-size="10.00">org.msrg.raccoon.engine.task.sequential.</text>
<text text-anchor="middle" x="99.5" y="-200" font-family="Helvetica,sans-Serif" font-size="10.00">SequentialCodingTask.reachedFinalStage</text>
</g>
<!-- Node2 -->
<g id="node2" class="node"><title>Node2</title>
<g id="a_node2"><a xlink:href="../../d4/d5e/classorg_1_1msrg_1_1raccoon_1_1engine_1_1task_1_1sequential_1_1MultiplyInverseMultiplyEqual__SequentialCodingTask_a486ab503957784e8d6aa52a9ddde130d.html#a486ab503957784e8d6aa52a9ddde130d" target="_top" xlink:title="org.msrg.raccoon.engine.task.sequential.\lMultiplyInverseMultiplyEqual_Sequential\lCodingTask.codingFinished">
<polygon fill="none" stroke="black" points="266,-374.5 266,-415.5 462,-415.5 462,-374.5 266,-374.5"/>
<text text-anchor="start" x="274" y="-403.5" font-family="Helvetica,sans-Serif" font-size="10.00">org.msrg.raccoon.engine.task.sequential.</text>
<text text-anchor="start" x="274" y="-392.5" font-family="Helvetica,sans-Serif" font-size="10.00">MultiplyInverseMultiplyEqual_Sequential</text>
<text text-anchor="middle" x="364" y="-381.5" font-family="Helvetica,sans-Serif" font-size="10.00">CodingTask.codingFinished</text>
</a>
</g>
</g>
<!-- Node1&#45;&gt;Node2 -->
<g id="edge1" class="edge"><title>Node1&#45;&gt;Node2</title>
<path fill="none" stroke="midnightblue" d="M114.061,-232.139C135.157,-267.353 179.265,-332.273 235,-366 244.455,-371.721 254.921,-376.316 265.677,-380.005"/>
<polygon fill="midnightblue" stroke="midnightblue" points="117.044,-230.308 108.964,-223.454 111.007,-233.85 117.044,-230.308"/>
</g>
<!-- Node3 -->
<g id="node3" class="node"><title>Node3</title>
<g id="a_node3"><a xlink:href="../../dc/d76/classorg_1_1msrg_1_1raccoon_1_1engine_1_1task_1_1sequential_1_1BulkMatrixEqual__CodingTask_a2b079bf5a4d740b867ed98740abb0b49.html#a2b079bf5a4d740b867ed98740abb0b49" target="_top" xlink:title="org.msrg.raccoon.engine.task.sequential.\lBulkMatrixEqual_CodingTask.codingFinished">
<polygon fill="none" stroke="black" points="257,-326 257,-356 471,-356 471,-326 257,-326"/>
<text text-anchor="start" x="265" y="-344" font-family="Helvetica,sans-Serif" font-size="10.00">org.msrg.raccoon.engine.task.sequential.</text>
<text text-anchor="middle" x="364" y="-333" font-family="Helvetica,sans-Serif" font-size="10.00">BulkMatrixEqual_CodingTask.codingFinished</text>
</a>
</g>
</g>
<!-- Node1&#45;&gt;Node3 -->
<g id="edge2" class="edge"><title>Node1&#45;&gt;Node3</title>
<path fill="none" stroke="midnightblue" d="M121.157,-230.426C145.746,-255.65 189.264,-295.847 235,-317 242.49,-320.464 250.446,-323.428 258.584,-325.965"/>
<polygon fill="midnightblue" stroke="midnightblue" points="123.599,-227.914 114.153,-223.116 118.544,-232.758 123.599,-227.914"/>
</g>
<!-- Node4 -->
<g id="node4" class="node"><title>Node4</title>
<g id="a_node4"><a xlink:href="../../d3/d36/classorg_1_1msrg_1_1raccoon_1_1engine_1_1task_1_1sequential_1_1Decoding__SequentialCodingTask_a3497f9c294517ca7934dea0ad28f411d.html#a3497f9c294517ca7934dea0ad28f411d" target="_top" xlink:title="org.msrg.raccoon.engine.task.sequential.\lDecoding_SequentialCodingTask.codingFinished">
<polygon fill="none" stroke="black" points="249,-277 249,-307 479,-307 479,-277 249,-277"/>
<text text-anchor="start" x="257" y="-295" font-family="Helvetica,sans-Serif" font-size="10.00">org.msrg.raccoon.engine.task.sequential.</text>
<text text-anchor="middle" x="364" y="-284" font-family="Helvetica,sans-Serif" font-size="10.00">Decoding_SequentialCodingTask.codingFinished</text>
</a>
</g>
</g>
<!-- Node1&#45;&gt;Node4 -->
<g id="edge3" class="edge"><title>Node1&#45;&gt;Node4</title>
<path fill="none" stroke="midnightblue" d="M138.133,-227.652C164.604,-240.756 201.197,-257.452 235,-268 245.792,-271.368 257.25,-274.335 268.704,-276.931"/>
<polygon fill="midnightblue" stroke="midnightblue" points="139.371,-224.357 128.863,-223.005 136.234,-230.615 139.371,-224.357"/>
</g>
<!-- Node5 -->
<g id="node5" class="node"><title>Node5</title>
<g id="a_node5"><a xlink:href="../../df/d07/classorg_1_1msrg_1_1raccoon_1_1engine_1_1task_1_1sequential_1_1MultiplyBulkMatrix__SequentialCodingTask_a811e36a15733ee58c71e7b8f12f0cec8.html#a811e36a15733ee58c71e7b8f12f0cec8" target="_top" xlink:title="org.msrg.raccoon.engine.task.sequential.\lMultiplyBulkMatrix_SequentialCodingTask.coding\lFinished">
<polygon fill="none" stroke="black" points="248,-217.5 248,-258.5 480,-258.5 480,-217.5 248,-217.5"/>
<text text-anchor="start" x="256" y="-246.5" font-family="Helvetica,sans-Serif" font-size="10.00">org.msrg.raccoon.engine.task.sequential.</text>
<text text-anchor="start" x="256" y="-235.5" font-family="Helvetica,sans-Serif" font-size="10.00">MultiplyBulkMatrix_SequentialCodingTask.coding</text>
<text text-anchor="middle" x="364" y="-224.5" font-family="Helvetica,sans-Serif" font-size="10.00">Finished</text>
</a>
</g>
</g>
<!-- Node1&#45;&gt;Node5 -->
<g id="edge4" class="edge"><title>Node1&#45;&gt;Node5</title>
<path fill="none" stroke="midnightblue" d="M209.471,-220.454C222.159,-221.904 235.133,-223.387 247.9,-224.846"/>
<polygon fill="midnightblue" stroke="midnightblue" points="209.699,-216.957 199.366,-219.299 208.904,-223.912 209.699,-216.957"/>
</g>
<!-- Node6 -->
<g id="node6" class="node"><title>Node6</title>
<g id="a_node6"><a xlink:href="../../de/d11/classorg_1_1msrg_1_1raccoon_1_1engine_1_1task_1_1sequential_1_1EncodingDecodingEqual__SequentialCodingTask_a13129faffdbf845a23ffdd2def1c2f1a.html#a13129faffdbf845a23ffdd2def1c2f1a" target="_top" xlink:title="org.msrg.raccoon.engine.task.sequential.\lEncodingDecodingEqual_SequentialCodingTask.coding\lFinished">
<polygon fill="none" stroke="black" points="235,-157.5 235,-198.5 493,-198.5 493,-157.5 235,-157.5"/>
<text text-anchor="start" x="243" y="-186.5" font-family="Helvetica,sans-Serif" font-size="10.00">org.msrg.raccoon.engine.task.sequential.</text>
<text text-anchor="start" x="243" y="-175.5" font-family="Helvetica,sans-Serif" font-size="10.00">EncodingDecodingEqual_SequentialCodingTask.coding</text>
<text text-anchor="middle" x="364" y="-164.5" font-family="Helvetica,sans-Serif" font-size="10.00">Finished</text>
</a>
</g>
</g>
<!-- Node1&#45;&gt;Node6 -->
<g id="edge5" class="edge"><title>Node1&#45;&gt;Node6</title>
<path fill="none" stroke="midnightblue" d="M209.53,-195.539C217.92,-194.581 226.436,-193.607 234.934,-192.636"/>
<polygon fill="midnightblue" stroke="midnightblue" points="208.904,-192.088 199.366,-196.701 209.699,-199.043 208.904,-192.088"/>
</g>
<!-- Node7 -->
<g id="node7" class="node"><title>Node7</title>
<g id="a_node7"><a xlink:href="../../dd/db2/classorg_1_1msrg_1_1raccoon_1_1engine_1_1task_1_1sequential_1_1Encoding__SequentialCodingTask_a93b6d3396f71634bf3f2b9e6a9ea23f3.html#a93b6d3396f71634bf3f2b9e6a9ea23f3" target="_top" xlink:title="org.msrg.raccoon.engine.task.sequential.\lEncoding_SequentialCodingTask.codingFinished">
<polygon fill="none" stroke="black" points="249.5,-109 249.5,-139 478.5,-139 478.5,-109 249.5,-109"/>
<text text-anchor="start" x="257.5" y="-127" font-family="Helvetica,sans-Serif" font-size="10.00">org.msrg.raccoon.engine.task.sequential.</text>
<text text-anchor="middle" x="364" y="-116" font-family="Helvetica,sans-Serif" font-size="10.00">Encoding_SequentialCodingTask.codingFinished</text>
</a>
</g>
</g>
<!-- Node1&#45;&gt;Node7 -->
<g id="edge6" class="edge"><title>Node1&#45;&gt;Node7</title>
<path fill="none" stroke="midnightblue" d="M138.133,-188.348C164.604,-175.244 201.197,-158.548 235,-148 245.792,-144.632 257.25,-141.665 268.704,-139.069"/>
<polygon fill="midnightblue" stroke="midnightblue" points="136.234,-185.385 128.863,-192.995 139.371,-191.643 136.234,-185.385"/>
</g>
<!-- Node8 -->
<g id="node8" class="node"><title>Node8</title>
<g id="a_node8"><a xlink:href="../../d6/d78/classorg_1_1msrg_1_1raccoon_1_1engine_1_1task_1_1sequential_1_1SequentialCodingTask_a0f1697228b30f8a446c0e9c2516010f8.html#a0f1697228b30f8a446c0e9c2516010f8" target="_top" xlink:title="org.msrg.raccoon.engine.task.sequential.\lSequentialCodingTask.runInitialSequencialTasks">
<polygon fill="none" stroke="black" points="249,-60 249,-90 479,-90 479,-60 249,-60"/>
<text text-anchor="start" x="257" y="-78" font-family="Helvetica,sans-Serif" font-size="10.00">org.msrg.raccoon.engine.task.sequential.</text>
<text text-anchor="middle" x="364" y="-67" font-family="Helvetica,sans-Serif" font-size="10.00">SequentialCodingTask.runInitialSequencialTasks</text>
</a>
</g>
</g>
<!-- Node1&#45;&gt;Node8 -->
<g id="edge7" class="edge"><title>Node1&#45;&gt;Node8</title>
<path fill="none" stroke="midnightblue" d="M121.63,-185.441C146.354,-160.486 189.708,-121.031 235,-100 243.42,-96.0903 252.426,-92.7917 261.614,-90.0087"/>
<polygon fill="midnightblue" stroke="midnightblue" points="119.045,-183.079 114.573,-192.684 124.059,-187.964 119.045,-183.079"/>
</g>
<!-- Node10 -->
<g id="node10" class="node"><title>Node10</title>
<g id="a_node10"><a xlink:href="../../d5/daf/classorg_1_1msrg_1_1raccoon_1_1engine_1_1task_1_1sequential_1_1EncodingReceivedEncodingDecodingEqual__SequentialCodingTask_acf664608beaee091834399cde52cbf8f.html#acf664608beaee091834399cde52cbf8f" target="_top" xlink:title="org.msrg.raccoon.engine.task.sequential.\lEncodingReceivedEncodingDecodingEqual\l_SequentialCodingTask.runStagePrivately">
<polygon fill="none" stroke="black" points="261.5,-0.5 261.5,-41.5 466.5,-41.5 466.5,-0.5 261.5,-0.5"/>
<text text-anchor="start" x="269.5" y="-29.5" font-family="Helvetica,sans-Serif" font-size="10.00">org.msrg.raccoon.engine.task.sequential.</text>
<text text-anchor="start" x="269.5" y="-18.5" font-family="Helvetica,sans-Serif" font-size="10.00">EncodingReceivedEncodingDecodingEqual</text>
<text text-anchor="middle" x="364" y="-7.5" font-family="Helvetica,sans-Serif" font-size="10.00">_SequentialCodingTask.runStagePrivately</text>
</a>
</g>
</g>
<!-- Node1&#45;&gt;Node10 -->
<g id="edge9" class="edge"><title>Node1&#45;&gt;Node10</title>
<path fill="none" stroke="midnightblue" d="M114.132,-184.068C135.319,-149.146 179.542,-84.722 235,-51 243.191,-46.0194 252.139,-41.8656 261.377,-38.4014"/>
<polygon fill="midnightblue" stroke="midnightblue" points="111.114,-182.296 109.012,-192.68 117.131,-185.873 111.114,-182.296"/>
</g>
<!-- Node9 -->
<g id="node9" class="node"><title>Node9</title>
<g id="a_node9"><a xlink:href="../../d6/d19/classorg_1_1msrg_1_1raccoon_1_1engine_1_1thread_1_1CodingThreadImpl_af81a44607be02e9f01c5f4c119ff5ed4.html#af81a44607be02e9f01c5f4c119ff5ed4" target="_top" xlink:title="org.msrg.raccoon.engine.thread.\lCodingThreadImpl.runTask">
<polygon fill="none" stroke="black" points="553,-60 553,-90 710,-90 710,-60 553,-60"/>
<text text-anchor="start" x="561" y="-78" font-family="Helvetica,sans-Serif" font-size="10.00">org.msrg.raccoon.engine.thread.</text>
<text text-anchor="middle" x="631.5" y="-67" font-family="Helvetica,sans-Serif" font-size="10.00">CodingThreadImpl.runTask</text>
</a>
</g>
</g>
<!-- Node8&#45;&gt;Node9 -->
<g id="edge8" class="edge"><title>Node8&#45;&gt;Node9</title>
<path fill="none" stroke="midnightblue" d="M489.381,-75C511.008,-75 532.933,-75 552.848,-75"/>
<polygon fill="midnightblue" stroke="midnightblue" points="489.137,-71.5001 479.137,-75 489.137,-78.5001 489.137,-71.5001"/>
</g>
<!-- Node11 -->
<g id="node11" class="node"><title>Node11</title>
<g id="a_node11"><a xlink:href="../../d5/daf/classorg_1_1msrg_1_1raccoon_1_1engine_1_1task_1_1sequential_1_1EncodingReceivedEncodingDecodingEqual__SequentialCodingTask_ad2c155a55fc3d08e007c03be1be0b195.html#ad2c155a55fc3d08e007c03be1be0b195" target="_top" xlink:title="org.msrg.raccoon.engine.task.sequential.\lEncodingReceivedEncodingDecodingEqual\l_SequentialCodingTask.codingFinished">
<polygon fill="none" stroke="black" points="529,-0.5 529,-41.5 734,-41.5 734,-0.5 529,-0.5"/>
<text text-anchor="start" x="537" y="-29.5" font-family="Helvetica,sans-Serif" font-size="10.00">org.msrg.raccoon.engine.task.sequential.</text>
<text text-anchor="start" x="537" y="-18.5" font-family="Helvetica,sans-Serif" font-size="10.00">EncodingReceivedEncodingDecodingEqual</text>
<text text-anchor="middle" x="631.5" y="-7.5" font-family="Helvetica,sans-Serif" font-size="10.00">_SequentialCodingTask.codingFinished</text>
</a>
</g>
</g>
<!-- Node10&#45;&gt;Node11 -->
<g id="edge10" class="edge"><title>Node10&#45;&gt;Node11</title>
<path fill="none" stroke="midnightblue" d="M476.6,-21C493.849,-21 511.586,-21 528.606,-21"/>
<polygon fill="midnightblue" stroke="midnightblue" points="476.511,-17.5001 466.511,-21 476.511,-24.5001 476.511,-17.5001"/>
</g>
</g>
</svg>
        <g id="navigator" transform="translate(0 0)" fill="#404254">
                <rect fill="#f2f5e9" fill-opacity="0.5" stroke="#606060" stroke-width=".5" x="0" y="0" width="60" height="60"/>
                <use id="zoomplus" xlink:href="#zoomPlus" x="17" y="9" onmousedown="handleZoom(evt,'in')"/>
                <use id="zoomminus" xlink:href="#zoomMin" x="42" y="9" onmousedown="handleZoom(evt,'out')"/>
                <use id="reset" xlink:href="#resetDef" x="30" y="36" onmousedown="handleReset()"/>
                <g id="arrowUp" xlink:href="#dirArrow" transform="translate(30 24)" onmousedown="handlePan(0,-1)">
                  <use xlink:href="#rim" fill="#404040">
                        <set attributeName="fill" to="#808080" begin="arrowUp.mouseover" end="arrowUp.mouseout"/>
                  </use>
                  <path fill="none" stroke="white" stroke-width="1.5" d="M0,-3.0v7 M-2.5,-0.5L0,-3.0L2.5,-0.5"/>
                </g>
                <g id="arrowRight" xlink:href="#dirArrow" transform="rotate(90) translate(36 -43)" onmousedown="handlePan(1,0)">
                  <use xlink:href="#rim" fill="#404040">
                        <set attributeName="fill" to="#808080" begin="arrowRight.mouseover" end="arrowRight.mouseout"/>
                  </use>
                  <path fill="none" stroke="white" stroke-width="1.5" d="M0,-3.0v7 M-2.5,-0.5L0,-3.0L2.5,-0.5"/>
                </g>
                <g id="arrowDown" xlink:href="#dirArrow" transform="rotate(180) translate(-30 -48)" onmousedown="handlePan(0,1)">
                  <use xlink:href="#rim" fill="#404040">
                        <set attributeName="fill" to="#808080" begin="arrowDown.mouseover" end="arrowDown.mouseout"/>
                  </use>
                  <path fill="none" stroke="white" stroke-width="1.5" d="M0,-3.0v7 M-2.5,-0.5L0,-3.0L2.5,-0.5"/>
                </g>
                <g id="arrowLeft" xlink:href="#dirArrow" transform="rotate(270) translate(-36 17)" onmousedown="handlePan(-1,0)">
                  <use xlink:href="#rim" fill="#404040">
                        <set attributeName="fill" to="#808080" begin="arrowLeft.mouseover" end="arrowLeft.mouseout"/>
                  </use>
                  <path fill="none" stroke="white" stroke-width="1.5" d="M0,-3.0v7 M-2.5,-0.5L0,-3.0L2.5,-0.5"/>
                </g>
        </g>
        <svg viewBox="0 0 15 15" width="100%" height="30px" preserveAspectRatio="xMaxYMin meet">
         <g id="arrow_out" transform="scale(0.3 0.3)">
          <a xlink:href="classorg_1_1msrg_1_1raccoon_1_1engine_1_1task_1_1sequential_1_1SequentialCodingTask_a20507db4cd28c24453172612ae32afe5_a20507db4cd28c24453172612ae32afe5_icgraph_org.svg" target="_base">
           <rect id="button" ry="5" rx="5" y="6" x="6" height="38" width="38"
                fill="#f2f5e9" fill-opacity="0.5" stroke="#606060" stroke-width="1.0"/>
           <path id="arrow"
             d="M 11.500037,31.436501 C 11.940474,20.09759 22.043105,11.32322 32.158766,21.979434 L 37.068811,17.246167 C 37.068811,17.246167 37.088388,32 37.088388,32 L 22.160133,31.978069 C 22.160133,31.978069 26.997745,27.140456 26.997745,27.140456 C 18.528582,18.264221 13.291696,25.230495 11.500037,31.436501 z"
             style="fill:#404040;"/>
          </a>
         </g>
        </svg>
</svg>
