<?xml version="1.0" encoding="UTF-8" standalone="no"?>
<!DOCTYPE svg PUBLIC "-//W3C//DTD SVG 1.1//EN"
 "http://www.w3.org/Graphics/SVG/1.1/DTD/svg11.dtd">
<!-- Generated by graphviz version 2.38.0 (20140413.2041)
 -->
<!-- Title: org.msrg.raccoon.CodedBatch.getBulkMatrix Pages: 1 -->
<svg width="747pt" height="389pt"
 viewBox="0.00 0.00 747.00 389.00" xmlns="http://www.w3.org/2000/svg" xmlns:xlink="http://www.w3.org/1999/xlink">
<g id="graph0" class="graph" transform="scale(1 1) rotate(0) translate(4 385)">
<title>org.msrg.raccoon.CodedBatch.getBulkMatrix</title>
<!-- Node1 -->
<g id="node1" class="node"><title>Node1</title>
<polygon fill="#bfbfbf" stroke="black" points="0,-165 0,-195 166,-195 166,-165 0,-165"/>
<text text-anchor="start" x="8" y="-183" font-family="Helvetica,sans-Serif" font-size="10.00">org.msrg.raccoon.CodedBatch.get</text>
<text text-anchor="middle" x="83" y="-172" font-family="Helvetica,sans-Serif" font-size="10.00">BulkMatrix</text>
</g>
<!-- Node2 -->
<g id="node2" class="node"><title>Node2</title>
<g id="a_node2"><a xlink:href="../../de/d11/classorg_1_1msrg_1_1raccoon_1_1engine_1_1task_1_1sequential_1_1EncodingDecodingEqual__SequentialCodingTask_a908a978a4738dc1a5445eabd628c362d.html#a908a978a4738dc1a5445eabd628c362d" target="_top" xlink:title="org.msrg.raccoon.engine.task.sequential.\lEncodingDecodingEqual_SequentialCodingTask.\lEncodingDecodingEqual_SequentialCodingTask">
<polygon fill="none" stroke="black" points="208.5,-339.5 208.5,-380.5 438.5,-380.5 438.5,-339.5 208.5,-339.5"/>
<text text-anchor="start" x="216.5" y="-368.5" font-family="Helvetica,sans-Serif" font-size="10.00">org.msrg.raccoon.engine.task.sequential.</text>
<text text-anchor="start" x="216.5" y="-357.5" font-family="Helvetica,sans-Serif" font-size="10.00">EncodingDecodingEqual_SequentialCodingTask.</text>
<text text-anchor="middle" x="323.5" y="-346.5" font-family="Helvetica,sans-Serif" font-size="10.00">EncodingDecodingEqual_SequentialCodingTask</text>
</a>
</g>
</g>
<!-- Node1&#45;&gt;Node2 -->
<g id="edge1" class="edge"><title>Node1&#45;&gt;Node2</title>
<path fill="none" stroke="midnightblue" d="M96.2752,-204.148C114.609,-237.699 152.369,-297.899 202,-330 207.521,-333.571 213.437,-336.717 219.576,-339.489"/>
<polygon fill="midnightblue" stroke="midnightblue" points="99.2145,-202.222 91.4211,-195.045 93.0377,-205.515 99.2145,-202.222"/>
</g>
<!-- Node3 -->
<g id="node3" class="node"><title>Node3</title>
<g id="a_node3"><a xlink:href="../../d0/d6b/classorg_1_1msrg_1_1raccoon_1_1engine_1_1task_1_1sequential_1_1EncodingSourceCodedBatch__SequentialCodingTask_adfa33e105ef32cced4a8b532961cde23.html#adfa33e105ef32cced4a8b532961cde23" target="_top" xlink:title="org.msrg.raccoon.engine.task.sequential.\lEncodingSourceCodedBatch_SequentialCoding\lTask.runStagePrivately">
<polygon fill="none" stroke="black" points="211.5,-279.5 211.5,-320.5 435.5,-320.5 435.5,-279.5 211.5,-279.5"/>
<text text-anchor="start" x="219.5" y="-308.5" font-family="Helvetica,sans-Serif" font-size="10.00">org.msrg.raccoon.engine.task.sequential.</text>
<text text-anchor="start" x="219.5" y="-297.5" font-family="Helvetica,sans-Serif" font-size="10.00">EncodingSourceCodedBatch_SequentialCoding</text>
<text text-anchor="middle" x="323.5" y="-286.5" font-family="Helvetica,sans-Serif" font-size="10.00">Task.runStagePrivately</text>
</a>
</g>
</g>
<!-- Node1&#45;&gt;Node3 -->
<g id="edge2" class="edge"><title>Node1&#45;&gt;Node3</title>
<path fill="none" stroke="midnightblue" d="M106.746,-201.94C129.216,-222.437 165.436,-252.437 202,-270 209.287,-273.5 217.026,-276.619 224.926,-279.393"/>
<polygon fill="midnightblue" stroke="midnightblue" points="109.106,-199.355 99.3931,-195.122 104.346,-204.488 109.106,-199.355"/>
</g>
<!-- Node4 -->
<g id="node4" class="node"><title>Node4</title>
<g id="a_node4"><a xlink:href="../../de/d11/classorg_1_1msrg_1_1raccoon_1_1engine_1_1task_1_1sequential_1_1EncodingDecodingEqual__SequentialCodingTask_ac93037a0e0b21d08ef67e2b1042b866e.html#ac93037a0e0b21d08ef67e2b1042b866e" target="_top" xlink:title="org.msrg.raccoon.engine.task.sequential.\lEncodingDecodingEqual_SequentialCodingTask.run\lStagePrivately">
<polygon fill="none" stroke="black" points="202,-219.5 202,-260.5 445,-260.5 445,-219.5 202,-219.5"/>
<text text-anchor="start" x="210" y="-248.5" font-family="Helvetica,sans-Serif" font-size="10.00">org.msrg.raccoon.engine.task.sequential.</text>
<text text-anchor="start" x="210" y="-237.5" font-family="Helvetica,sans-Serif" font-size="10.00">EncodingDecodingEqual_SequentialCodingTask.run</text>
<text text-anchor="middle" x="323.5" y="-226.5" font-family="Helvetica,sans-Serif" font-size="10.00">StagePrivately</text>
</a>
</g>
</g>
<!-- Node1&#45;&gt;Node4 -->
<g id="edge3" class="edge"><title>Node1&#45;&gt;Node4</title>
<path fill="none" stroke="midnightblue" d="M152.719,-197.532C168.879,-201.638 186.043,-205.985 202,-210 214.231,-213.077 227.164,-216.315 239.84,-219.478"/>
<polygon fill="midnightblue" stroke="midnightblue" points="153.36,-194.084 142.806,-195.012 151.635,-200.868 153.36,-194.084"/>
</g>
<!-- Node6 -->
<g id="node6" class="node"><title>Node6</title>
<g id="a_node6"><a xlink:href="../../d5/daf/classorg_1_1msrg_1_1raccoon_1_1engine_1_1task_1_1sequential_1_1EncodingReceivedEncodingDecodingEqual__SequentialCodingTask_acf664608beaee091834399cde52cbf8f.html#acf664608beaee091834399cde52cbf8f" target="_top" xlink:title="org.msrg.raccoon.engine.task.sequential.\lEncodingReceivedEncodingDecodingEqual\l_SequentialCodingTask.runStagePrivately">
<polygon fill="none" stroke="black" points="221,-159.5 221,-200.5 426,-200.5 426,-159.5 221,-159.5"/>
<text text-anchor="start" x="229" y="-188.5" font-family="Helvetica,sans-Serif" font-size="10.00">org.msrg.raccoon.engine.task.sequential.</text>
<text text-anchor="start" x="229" y="-177.5" font-family="Helvetica,sans-Serif" font-size="10.00">EncodingReceivedEncodingDecodingEqual</text>
<text text-anchor="middle" x="323.5" y="-166.5" font-family="Helvetica,sans-Serif" font-size="10.00">_SequentialCodingTask.runStagePrivately</text>
</a>
</g>
</g>
<!-- Node1&#45;&gt;Node6 -->
<g id="edge5" class="edge"><title>Node1&#45;&gt;Node6</title>
<path fill="none" stroke="midnightblue" d="M176.123,-180C190.782,-180 206.019,-180 220.882,-180"/>
<polygon fill="midnightblue" stroke="midnightblue" points="176.078,-176.5 166.078,-180 176.078,-183.5 176.078,-176.5"/>
</g>
<!-- Node8 -->
<g id="node8" class="node"><title>Node8</title>
<g id="a_node8"><a xlink:href="../../db/d77/classorg_1_1msrg_1_1raccoon_1_1CodedBatchTest_af315e153681ea73bcbce6675ccb3f823.html#af315e153681ea73bcbce6675ccb3f823" target="_top" xlink:title="org.msrg.raccoon.CodedBatch\lTest.setUp">
<polygon fill="none" stroke="black" points="249,-110 249,-140 398,-140 398,-110 249,-110"/>
<text text-anchor="start" x="257" y="-128" font-family="Helvetica,sans-Serif" font-size="10.00">org.msrg.raccoon.CodedBatch</text>
<text text-anchor="middle" x="323.5" y="-117" font-family="Helvetica,sans-Serif" font-size="10.00">Test.setUp</text>
</a>
</g>
</g>
<!-- Node1&#45;&gt;Node8 -->
<g id="edge7" class="edge"><title>Node1&#45;&gt;Node8</title>
<path fill="none" stroke="midnightblue" d="M150.594,-162.52C167.339,-158.276 185.299,-153.853 202,-150 217.094,-146.517 233.303,-143.002 248.785,-139.752"/>
<polygon fill="midnightblue" stroke="midnightblue" points="149.719,-159.131 140.894,-164.992 151.448,-165.914 149.719,-159.131"/>
</g>
<!-- Node9 -->
<g id="node9" class="node"><title>Node9</title>
<g id="a_node9"><a xlink:href="../../d7/d47/classorg_1_1msrg_1_1raccoon_1_1SlicedCodedBatchTest_a355965b499dffd1233919da4f09372c3.html#a355965b499dffd1233919da4f09372c3" target="_top" xlink:title="org.msrg.raccoon.SlicedCoded\lBatchTest.setUp">
<polygon fill="none" stroke="black" points="248,-61 248,-91 399,-91 399,-61 248,-61"/>
<text text-anchor="start" x="256" y="-79" font-family="Helvetica,sans-Serif" font-size="10.00">org.msrg.raccoon.SlicedCoded</text>
<text text-anchor="middle" x="323.5" y="-68" font-family="Helvetica,sans-Serif" font-size="10.00">BatchTest.setUp</text>
</a>
</g>
</g>
<!-- Node1&#45;&gt;Node9 -->
<g id="edge8" class="edge"><title>Node1&#45;&gt;Node9</title>
<path fill="none" stroke="midnightblue" d="M109.76,-158.446C132.599,-140.434 167.58,-115.442 202,-101 216.382,-94.9656 232.361,-90.3399 247.855,-86.8101"/>
<polygon fill="midnightblue" stroke="midnightblue" points="107.531,-155.747 101.919,-164.733 111.91,-161.208 107.531,-155.747"/>
</g>
<!-- Node10 -->
<g id="node10" class="node"><title>Node10</title>
<g id="a_node10"><a xlink:href="../../db/d26/classorg_1_1msrg_1_1raccoon_1_1ReceivedCodedBatchTest_af7c8b12bc8b1dc5d9c5e353b838d830d.html#af7c8b12bc8b1dc5d9c5e353b838d830d" target="_top" xlink:title="org.msrg.raccoon.Received\lCodedBatchTest.ttestEncodingDecoding\lReceivedCodedBatch">
<polygon fill="none" stroke="black" points="226.5,-0.5 226.5,-41.5 420.5,-41.5 420.5,-0.5 226.5,-0.5"/>
<text text-anchor="start" x="234.5" y="-29.5" font-family="Helvetica,sans-Serif" font-size="10.00">org.msrg.raccoon.Received</text>
<text text-anchor="start" x="234.5" y="-18.5" font-family="Helvetica,sans-Serif" font-size="10.00">CodedBatchTest.ttestEncodingDecoding</text>
<text text-anchor="middle" x="323.5" y="-7.5" font-family="Helvetica,sans-Serif" font-size="10.00">ReceivedCodedBatch</text>
</a>
</g>
</g>
<!-- Node1&#45;&gt;Node10 -->
<g id="edge9" class="edge"><title>Node1&#45;&gt;Node10</title>
<path fill="none" stroke="midnightblue" d="M99.2993,-156.412C119.37,-127.396 157.334,-78.7084 202,-52 209.601,-47.4548 217.859,-43.5703 226.367,-40.2515"/>
<polygon fill="midnightblue" stroke="midnightblue" points="96.3687,-154.498 93.6574,-164.74 102.164,-158.424 96.3687,-154.498"/>
</g>
<!-- Node5 -->
<g id="node5" class="node"><title>Node5</title>
<g id="a_node5"><a xlink:href="../../de/d11/classorg_1_1msrg_1_1raccoon_1_1engine_1_1task_1_1sequential_1_1EncodingDecodingEqual__SequentialCodingTask_a13129faffdbf845a23ffdd2def1c2f1a.html#a13129faffdbf845a23ffdd2def1c2f1a" target="_top" xlink:title="org.msrg.raccoon.engine.task.sequential.\lEncodingDecodingEqual_SequentialCodingTask.coding\lFinished">
<polygon fill="none" stroke="black" points="481,-219.5 481,-260.5 739,-260.5 739,-219.5 481,-219.5"/>
<text text-anchor="start" x="489" y="-248.5" font-family="Helvetica,sans-Serif" font-size="10.00">org.msrg.raccoon.engine.task.sequential.</text>
<text text-anchor="start" x="489" y="-237.5" font-family="Helvetica,sans-Serif" font-size="10.00">EncodingDecodingEqual_SequentialCodingTask.coding</text>
<text text-anchor="middle" x="610" y="-226.5" font-family="Helvetica,sans-Serif" font-size="10.00">Finished</text>
</a>
</g>
</g>
<!-- Node4&#45;&gt;Node5 -->
<g id="edge4" class="edge"><title>Node4&#45;&gt;Node5</title>
<path fill="none" stroke="midnightblue" d="M455.161,-240C463.715,-240 472.325,-240 480.866,-240"/>
<polygon fill="midnightblue" stroke="midnightblue" points="455.154,-236.5 445.154,-240 455.154,-243.5 455.154,-236.5"/>
</g>
<!-- Node7 -->
<g id="node7" class="node"><title>Node7</title>
<g id="a_node7"><a xlink:href="../../d5/daf/classorg_1_1msrg_1_1raccoon_1_1engine_1_1task_1_1sequential_1_1EncodingReceivedEncodingDecodingEqual__SequentialCodingTask_ad2c155a55fc3d08e007c03be1be0b195.html#ad2c155a55fc3d08e007c03be1be0b195" target="_top" xlink:title="org.msrg.raccoon.engine.task.sequential.\lEncodingReceivedEncodingDecodingEqual\l_SequentialCodingTask.codingFinished">
<polygon fill="none" stroke="black" points="507.5,-159.5 507.5,-200.5 712.5,-200.5 712.5,-159.5 507.5,-159.5"/>
<text text-anchor="start" x="515.5" y="-188.5" font-family="Helvetica,sans-Serif" font-size="10.00">org.msrg.raccoon.engine.task.sequential.</text>
<text text-anchor="start" x="515.5" y="-177.5" font-family="Helvetica,sans-Serif" font-size="10.00">EncodingReceivedEncodingDecodingEqual</text>
<text text-anchor="middle" x="610" y="-166.5" font-family="Helvetica,sans-Serif" font-size="10.00">_SequentialCodingTask.codingFinished</text>
</a>
</g>
</g>
<!-- Node6&#45;&gt;Node7 -->
<g id="edge6" class="edge"><title>Node6&#45;&gt;Node7</title>
<path fill="none" stroke="midnightblue" d="M436.281,-180C459.616,-180 484.098,-180 507.054,-180"/>
<polygon fill="midnightblue" stroke="midnightblue" points="436.006,-176.5 426.006,-180 436.006,-183.5 436.006,-176.5"/>
</g>
</g>
</svg>
