<?xml version="1.0" encoding="UTF-8" standalone="no"?>
<!DOCTYPE svg PUBLIC "-//W3C//DTD SVG 1.1//EN"
 "http://www.w3.org/Graphics/SVG/1.1/DTD/svg11.dtd">
<!-- Generated by graphviz version 2.38.0 (20140413.2041)
 -->
<!-- Title: org.msrg.raccoon.CodedBatch.getBulkMatrix Pages: 1 -->
<svg width="747pt" height="387pt"
 viewBox="0.00 0.00 747.00 387.00" xmlns="http://www.w3.org/2000/svg" xmlns:xlink="http://www.w3.org/1999/xlink">
<g id="graph0" class="graph" transform="scale(1 1) rotate(0) translate(4 383)">
<title>org.msrg.raccoon.CodedBatch.getBulkMatrix</title>
<!-- Node1 -->
<g id="node1" class="node"><title>Node1</title>
<polygon fill="#bfbfbf" stroke="black" points="0,-163 0,-193 166,-193 166,-163 0,-163"/>
<text text-anchor="start" x="8" y="-181" font-family="Helvetica,sans-Serif" font-size="10.00">org.msrg.raccoon.CodedBatch.get</text>
<text text-anchor="middle" x="83" y="-170" font-family="Helvetica,sans-Serif" font-size="10.00">BulkMatrix</text>
</g>
<!-- Node2 -->
<g id="node2" class="node"><title>Node2</title>
<g id="a_node2"><a xlink:href="../../de/d11/classorg_1_1msrg_1_1raccoon_1_1engine_1_1task_1_1sequential_1_1EncodingDecodingEqual__SequentialCodingTask_a908a978a4738dc1a5445eabd628c362d.html#a908a978a4738dc1a5445eabd628c362d" target="_top" xlink:title="org.msrg.raccoon.engine.task.sequential.\lEncodingDecodingEqual_SequentialCodingTask.\lEncodingDecodingEqual_SequentialCodingTask">
<polygon fill="none" stroke="black" points="208.5,-337.5 208.5,-378.5 438.5,-378.5 438.5,-337.5 208.5,-337.5"/>
<text text-anchor="start" x="216.5" y="-366.5" font-family="Helvetica,sans-Serif" font-size="10.00">org.msrg.raccoon.engine.task.sequential.</text>
<text text-anchor="start" x="216.5" y="-355.5" font-family="Helvetica,sans-Serif" font-size="10.00">EncodingDecodingEqual_SequentialCodingTask.</text>
<text text-anchor="middle" x="323.5" y="-344.5" font-family="Helvetica,sans-Serif" font-size="10.00">EncodingDecodingEqual_SequentialCodingTask</text>
</a>
</g>
</g>
<!-- Node1&#45;&gt;Node2 -->
<g id="edge1" class="edge"><title>Node1&#45;&gt;Node2</title>
<path fill="none" stroke="midnightblue" d="M96.2752,-202.148C114.609,-235.699 152.369,-295.899 202,-328 207.521,-331.571 213.437,-334.717 219.576,-337.489"/>
<polygon fill="midnightblue" stroke="midnightblue" points="99.2145,-200.222 91.4211,-193.045 93.0377,-203.515 99.2145,-200.222"/>
</g>
<!-- Node3 -->
<g id="node3" class="node"><title>Node3</title>
<g id="a_node3"><a xlink:href="../../d0/d6b/classorg_1_1msrg_1_1raccoon_1_1engine_1_1task_1_1sequential_1_1EncodingSourceCodedBatch__SequentialCodingTask_adfa33e105ef32cced4a8b532961cde23.html#adfa33e105ef32cced4a8b532961cde23" target="_top" xlink:title="org.msrg.raccoon.engine.task.sequential.\lEncodingSourceCodedBatch_SequentialCoding\lTask.runStagePrivately">
<polygon fill="none" stroke="black" points="211.5,-277.5 211.5,-318.5 435.5,-318.5 435.5,-277.5 211.5,-277.5"/>
<text text-anchor="start" x="219.5" y="-306.5" font-family="Helvetica,sans-Serif" font-size="10.00">org.msrg.raccoon.engine.task.sequential.</text>
<text text-anchor="start" x="219.5" y="-295.5" font-family="Helvetica,sans-Serif" font-size="10.00">EncodingSourceCodedBatch_SequentialCoding</text>
<text text-anchor="middle" x="323.5" y="-284.5" font-family="Helvetica,sans-Serif" font-size="10.00">Task.runStagePrivately</text>
</a>
</g>
</g>
<!-- Node1&#45;&gt;Node3 -->
<g id="edge2" class="edge"><title>Node1&#45;&gt;Node3</title>
<path fill="none" stroke="midnightblue" d="M106.746,-199.94C129.216,-220.437 165.436,-250.437 202,-268 209.287,-271.5 217.026,-274.619 224.926,-277.393"/>
<polygon fill="midnightblue" stroke="midnightblue" points="109.106,-197.355 99.3931,-193.122 104.346,-202.488 109.106,-197.355"/>
</g>
<!-- Node4 -->
<g id="node4" class="node"><title>Node4</title>
<g id="a_node4"><a xlink:href="../../de/d11/classorg_1_1msrg_1_1raccoon_1_1engine_1_1task_1_1sequential_1_1EncodingDecodingEqual__SequentialCodingTask_ac93037a0e0b21d08ef67e2b1042b866e.html#ac93037a0e0b21d08ef67e2b1042b866e" target="_top" xlink:title="org.msrg.raccoon.engine.task.sequential.\lEncodingDecodingEqual_SequentialCodingTask.run\lStagePrivately">
<polygon fill="none" stroke="black" points="202,-217.5 202,-258.5 445,-258.5 445,-217.5 202,-217.5"/>
<text text-anchor="start" x="210" y="-246.5" font-family="Helvetica,sans-Serif" font-size="10.00">org.msrg.raccoon.engine.task.sequential.</text>
<text text-anchor="start" x="210" y="-235.5" font-family="Helvetica,sans-Serif" font-size="10.00">EncodingDecodingEqual_SequentialCodingTask.run</text>
<text text-anchor="middle" x="323.5" y="-224.5" font-family="Helvetica,sans-Serif" font-size="10.00">StagePrivately</text>
</a>
</g>
</g>
<!-- Node1&#45;&gt;Node4 -->
<g id="edge3" class="edge"><title>Node1&#45;&gt;Node4</title>
<path fill="none" stroke="midnightblue" d="M152.719,-195.532C168.879,-199.638 186.043,-203.985 202,-208 214.231,-211.077 227.164,-214.315 239.84,-217.478"/>
<polygon fill="midnightblue" stroke="midnightblue" points="153.36,-192.084 142.806,-193.012 151.635,-198.868 153.36,-192.084"/>
</g>
<!-- Node6 -->
<g id="node6" class="node"><title>Node6</title>
<g id="a_node6"><a xlink:href="../../d5/daf/classorg_1_1msrg_1_1raccoon_1_1engine_1_1task_1_1sequential_1_1EncodingReceivedEncodingDecodingEqual__SequentialCodingTask_acf664608beaee091834399cde52cbf8f.html#acf664608beaee091834399cde52cbf8f" target="_top" xlink:title="org.msrg.raccoon.engine.task.sequential.\lEncodingReceivedEncodingDecodingEqual\l_SequentialCodingTask.runStagePrivately">
<polygon fill="none" stroke="black" points="221,-157.5 221,-198.5 426,-198.5 426,-157.5 221,-157.5"/>
<text text-anchor="start" x="229" y="-186.5" font-family="Helvetica,sans-Serif" font-size="10.00">org.msrg.raccoon.engine.task.sequential.</text>
<text text-anchor="start" x="229" y="-175.5" font-family="Helvetica,sans-Serif" font-size="10.00">EncodingReceivedEncodingDecodingEqual</text>
<text text-anchor="middle" x="323.5" y="-164.5" font-family="Helvetica,sans-Serif" font-size="10.00">_SequentialCodingTask.runStagePrivately</text>
</a>
</g>
</g>
<!-- Node1&#45;&gt;Node6 -->
<g id="edge5" class="edge"><title>Node1&#45;&gt;Node6</title>
<path fill="none" stroke="midnightblue" d="M176.123,-178C190.782,-178 206.019,-178 220.882,-178"/>
<polygon fill="midnightblue" stroke="midnightblue" points="176.078,-174.5 166.078,-178 176.078,-181.5 176.078,-174.5"/>
</g>
<!-- Node8 -->
<g id="node8" class="node"><title>Node8</title>
<g id="a_node8"><a xlink:href="../../db/d77/classorg_1_1msrg_1_1raccoon_1_1CodedBatchTest_af315e153681ea73bcbce6675ccb3f823.html#af315e153681ea73bcbce6675ccb3f823" target="_top" xlink:title="org.msrg.raccoon.CodedBatch\lTest.setUp">
<polygon fill="none" stroke="black" points="249,-109 249,-139 398,-139 398,-109 249,-109"/>
<text text-anchor="start" x="257" y="-127" font-family="Helvetica,sans-Serif" font-size="10.00">org.msrg.raccoon.CodedBatch</text>
<text text-anchor="middle" x="323.5" y="-116" font-family="Helvetica,sans-Serif" font-size="10.00">Test.setUp</text>
</a>
</g>
</g>
<!-- Node1&#45;&gt;Node8 -->
<g id="edge7" class="edge"><title>Node1&#45;&gt;Node8</title>
<path fill="none" stroke="midnightblue" d="M150.314,-160.492C167.133,-156.23 185.198,-151.806 202,-148 217.083,-144.583 233.287,-141.177 248.768,-138.049"/>
<polygon fill="midnightblue" stroke="midnightblue" points="149.398,-157.113 140.574,-162.977 151.128,-163.896 149.398,-157.113"/>
</g>
<!-- Node9 -->
<g id="node9" class="node"><title>Node9</title>
<g id="a_node9"><a xlink:href="../../d7/d47/classorg_1_1msrg_1_1raccoon_1_1SlicedCodedBatchTest_a355965b499dffd1233919da4f09372c3.html#a355965b499dffd1233919da4f09372c3" target="_top" xlink:title="org.msrg.raccoon.SlicedCoded\lBatchTest.setUp">
<polygon fill="none" stroke="black" points="248,-60 248,-90 399,-90 399,-60 248,-60"/>
<text text-anchor="start" x="256" y="-78" font-family="Helvetica,sans-Serif" font-size="10.00">org.msrg.raccoon.SlicedCoded</text>
<text text-anchor="middle" x="323.5" y="-67" font-family="Helvetica,sans-Serif" font-size="10.00">BatchTest.setUp</text>
</a>
</g>
</g>
<!-- Node1&#45;&gt;Node9 -->
<g id="edge8" class="edge"><title>Node1&#45;&gt;Node9</title>
<path fill="none" stroke="midnightblue" d="M109.806,-156.732C132.674,-138.956 167.672,-114.284 202,-100 216.4,-94.0079 232.386,-89.4003 247.882,-85.8749"/>
<polygon fill="midnightblue" stroke="midnightblue" points="107.63,-153.99 101.954,-162.936 111.97,-159.483 107.63,-153.99"/>
</g>
<!-- Node10 -->
<g id="node10" class="node"><title>Node10</title>
<g id="a_node10"><a xlink:href="../../db/d26/classorg_1_1msrg_1_1raccoon_1_1ReceivedCodedBatchTest_af7c8b12bc8b1dc5d9c5e353b838d830d.html#af7c8b12bc8b1dc5d9c5e353b838d830d" target="_top" xlink:title="org.msrg.raccoon.Received\lCodedBatchTest.ttestEncodingDecoding\lReceivedCodedBatch">
<polygon fill="none" stroke="black" points="226.5,-0.5 226.5,-41.5 420.5,-41.5 420.5,-0.5 226.5,-0.5"/>
<text text-anchor="start" x="234.5" y="-29.5" font-family="Helvetica,sans-Serif" font-size="10.00">org.msrg.raccoon.Received</text>
<text text-anchor="start" x="234.5" y="-18.5" font-family="Helvetica,sans-Serif" font-size="10.00">CodedBatchTest.ttestEncodingDecoding</text>
<text text-anchor="middle" x="323.5" y="-7.5" font-family="Helvetica,sans-Serif" font-size="10.00">ReceivedCodedBatch</text>
</a>
</g>
</g>
<!-- Node1&#45;&gt;Node10 -->
<g id="edge9" class="edge"><title>Node1&#45;&gt;Node10</title>
<path fill="none" stroke="midnightblue" d="M99.3101,-154.544C119.392,-125.699 157.367,-77.3349 202,-51 209.613,-46.5082 217.878,-42.6857 226.391,-39.4334"/>
<polygon fill="midnightblue" stroke="midnightblue" points="96.4066,-152.589 93.6647,-162.823 102.19,-156.533 96.4066,-152.589"/>
</g>
<!-- Node5 -->
<g id="node5" class="node"><title>Node5</title>
<g id="a_node5"><a xlink:href="../../de/d11/classorg_1_1msrg_1_1raccoon_1_1engine_1_1task_1_1sequential_1_1EncodingDecodingEqual__SequentialCodingTask_a13129faffdbf845a23ffdd2def1c2f1a.html#a13129faffdbf845a23ffdd2def1c2f1a" target="_top" xlink:title="org.msrg.raccoon.engine.task.sequential.\lEncodingDecodingEqual_SequentialCodingTask.coding\lFinished">
<polygon fill="none" stroke="black" points="481,-217.5 481,-258.5 739,-258.5 739,-217.5 481,-217.5"/>
<text text-anchor="start" x="489" y="-246.5" font-family="Helvetica,sans-Serif" font-size="10.00">org.msrg.raccoon.engine.task.sequential.</text>
<text text-anchor="start" x="489" y="-235.5" font-family="Helvetica,sans-Serif" font-size="10.00">EncodingDecodingEqual_SequentialCodingTask.coding</text>
<text text-anchor="middle" x="610" y="-224.5" font-family="Helvetica,sans-Serif" font-size="10.00">Finished</text>
</a>
</g>
</g>
<!-- Node4&#45;&gt;Node5 -->
<g id="edge4" class="edge"><title>Node4&#45;&gt;Node5</title>
<path fill="none" stroke="midnightblue" d="M455.161,-238C463.715,-238 472.325,-238 480.866,-238"/>
<polygon fill="midnightblue" stroke="midnightblue" points="455.154,-234.5 445.154,-238 455.154,-241.5 455.154,-234.5"/>
</g>
<!-- Node7 -->
<g id="node7" class="node"><title>Node7</title>
<g id="a_node7"><a xlink:href="../../d5/daf/classorg_1_1msrg_1_1raccoon_1_1engine_1_1task_1_1sequential_1_1EncodingReceivedEncodingDecodingEqual__SequentialCodingTask_ad2c155a55fc3d08e007c03be1be0b195.html#ad2c155a55fc3d08e007c03be1be0b195" target="_top" xlink:title="org.msrg.raccoon.engine.task.sequential.\lEncodingReceivedEncodingDecodingEqual\l_SequentialCodingTask.codingFinished">
<polygon fill="none" stroke="black" points="507.5,-157.5 507.5,-198.5 712.5,-198.5 712.5,-157.5 507.5,-157.5"/>
<text text-anchor="start" x="515.5" y="-186.5" font-family="Helvetica,sans-Serif" font-size="10.00">org.msrg.raccoon.engine.task.sequential.</text>
<text text-anchor="start" x="515.5" y="-175.5" font-family="Helvetica,sans-Serif" font-size="10.00">EncodingReceivedEncodingDecodingEqual</text>
<text text-anchor="middle" x="610" y="-164.5" font-family="Helvetica,sans-Serif" font-size="10.00">_SequentialCodingTask.codingFinished</text>
</a>
</g>
</g>
<!-- Node6&#45;&gt;Node7 -->
<g id="edge6" class="edge"><title>Node6&#45;&gt;Node7</title>
<path fill="none" stroke="midnightblue" d="M436.281,-178C459.616,-178 484.098,-178 507.054,-178"/>
<polygon fill="midnightblue" stroke="midnightblue" points="436.006,-174.5 426.006,-178 436.006,-181.5 436.006,-174.5"/>
</g>
</g>
</svg>
