<?xml version="1.0" encoding="UTF-8" standalone="no"?>
<!DOCTYPE svg PUBLIC "-//W3C//DTD SVG 1.1//EN"
 "http://www.w3.org/Graphics/SVG/1.1/DTD/svg11.dtd">
<!-- Generated by graphviz version 2.38.0 (20140413.2041)
 -->
<!-- Title: org.msrg.raccoon.CodedBatch.toString Pages: 1 -->
<svg width="533pt" height="88pt"
 viewBox="0.00 0.00 533.00 88.00" xmlns="http://www.w3.org/2000/svg" xmlns:xlink="http://www.w3.org/1999/xlink">
<g id="graph0" class="graph" transform="scale(1 1) rotate(0) translate(4 84)">
<title>org.msrg.raccoon.CodedBatch.toString</title>
<!-- Node1 -->
<g id="node1" class="node"><title>Node1</title>
<polygon fill="#bfbfbf" stroke="black" points="0,-24.5 0,-54.5 161,-54.5 161,-24.5 0,-24.5"/>
<text text-anchor="start" x="8" y="-42.5" font-family="Helvetica,sans-Serif" font-size="10.00">org.msrg.raccoon.CodedBatch.to</text>
<text text-anchor="middle" x="80.5" y="-31.5" font-family="Helvetica,sans-Serif" font-size="10.00">String</text>
</g>
<!-- Node2 -->
<g id="node2" class="node"><title>Node2</title>
<g id="a_node2"><a xlink:href="../../df/da4/classorg_1_1msrg_1_1raccoon_1_1matrix_1_1bulk_1_1BulkMatrix_a3c2bc23eec089f27b7f14db3898e42ab.html#a3c2bc23eec089f27b7f14db3898e42ab" target="_top" xlink:title="org.msrg.raccoon.matrix.bulk.\lBulkMatrix.getByte">
<polygon fill="none" stroke="black" points="197,-49.5 197,-79.5 343,-79.5 343,-49.5 197,-49.5"/>
<text text-anchor="start" x="205" y="-67.5" font-family="Helvetica,sans-Serif" font-size="10.00">org.msrg.raccoon.matrix.bulk.</text>
<text text-anchor="middle" x="270" y="-56.5" font-family="Helvetica,sans-Serif" font-size="10.00">BulkMatrix.getByte</text>
</a>
</g>
</g>
<!-- Node1&#45;&gt;Node2 -->
<g id="edge1" class="edge"><title>Node1&#45;&gt;Node2</title>
<path fill="none" stroke="midnightblue" d="M161.017,-50.1023C169.554,-51.2405 178.252,-52.4003 186.819,-53.5426"/>
<polygon fill="midnightblue" stroke="midnightblue" points="186.424,-57.0208 196.799,-54.8732 187.349,-50.0822 186.424,-57.0208"/>
</g>
<!-- Node4 -->
<g id="node4" class="node"><title>Node4</title>
<g id="a_node4"><a xlink:href="../../d0/d99/classorg_1_1msrg_1_1raccoon_1_1utils_1_1BytesUtil_a8c89e67ad6d79eb211def90a501bf654.html#a8c89e67ad6d79eb211def90a501bf654" target="_top" xlink:title="org.msrg.raccoon.utils.Bytes\lUtil.hex">
<polygon fill="none" stroke="black" points="199,-0.5 199,-30.5 341,-30.5 341,-0.5 199,-0.5"/>
<text text-anchor="start" x="207" y="-18.5" font-family="Helvetica,sans-Serif" font-size="10.00">org.msrg.raccoon.utils.Bytes</text>
<text text-anchor="middle" x="270" y="-7.5" font-family="Helvetica,sans-Serif" font-size="10.00">Util.hex</text>
</a>
</g>
</g>
<!-- Node1&#45;&gt;Node4 -->
<g id="edge3" class="edge"><title>Node1&#45;&gt;Node4</title>
<path fill="none" stroke="midnightblue" d="M161.017,-29.3218C170.252,-28.1397 179.677,-26.9334 188.92,-25.7502"/>
<polygon fill="midnightblue" stroke="midnightblue" points="189.386,-29.2192 198.861,-24.4778 188.498,-22.2758 189.386,-29.2192"/>
</g>
<!-- Node3 -->
<g id="node3" class="node"><title>Node3</title>
<g id="a_node3"><a xlink:href="../../d6/d6d/classorg_1_1msrg_1_1raccoon_1_1matrix_1_1bulk_1_1SliceMatrix_a1fe8792bcabbfd1a541b53fee375f8a0.html#a1fe8792bcabbfd1a541b53fee375f8a0" target="_top" xlink:title="org.msrg.raccoon.matrix.bulk.\lSliceMatrix.getByte">
<polygon fill="none" stroke="black" points="379,-49.5 379,-79.5 525,-79.5 525,-49.5 379,-49.5"/>
<text text-anchor="start" x="387" y="-67.5" font-family="Helvetica,sans-Serif" font-size="10.00">org.msrg.raccoon.matrix.bulk.</text>
<text text-anchor="middle" x="452" y="-56.5" font-family="Helvetica,sans-Serif" font-size="10.00">SliceMatrix.getByte</text>
</a>
</g>
</g>
<!-- Node2&#45;&gt;Node3 -->
<g id="edge2" class="edge"><title>Node2&#45;&gt;Node3</title>
<path fill="none" stroke="midnightblue" d="M343.176,-64.5C351.52,-64.5 360.077,-64.5 368.544,-64.5"/>
<polygon fill="midnightblue" stroke="midnightblue" points="368.808,-68.0001 378.808,-64.5 368.808,-61.0001 368.808,-68.0001"/>
</g>
</g>
</svg>
