<?xml version="1.0" encoding="UTF-8" standalone="no"?>
<!DOCTYPE svg PUBLIC "-//W3C//DTD SVG 1.1//EN"
 "http://www.w3.org/Graphics/SVG/1.1/DTD/svg11.dtd">
<!-- Generated by graphviz version 2.38.0 (20140413.2041)
 -->
<!-- Title: org.msrg.raccoon.CodedBatch.getCodedBatchType Pages: 1 -->
<svg width="595pt" height="159pt"
 viewBox="0.00 0.00 595.00 158.50" xmlns="http://www.w3.org/2000/svg" xmlns:xlink="http://www.w3.org/1999/xlink">
<g id="graph0" class="graph" transform="scale(1 1) rotate(0) translate(4 154.5)">
<title>org.msrg.raccoon.CodedBatch.getCodedBatchType</title>
<!-- Node1 -->
<g id="node1" class="node"><title>Node1</title>
<polygon fill="#bfbfbf" stroke="black" points="0,-54.5 0,-84.5 166,-84.5 166,-54.5 0,-54.5"/>
<text text-anchor="start" x="8" y="-72.5" font-family="Helvetica,sans-Serif" font-size="10.00">org.msrg.raccoon.CodedBatch.get</text>
<text text-anchor="middle" x="83" y="-61.5" font-family="Helvetica,sans-Serif" font-size="10.00">CodedBatchType</text>
</g>
<!-- Node2 -->
<g id="node2" class="node"><title>Node2</title>
<g id="a_node2"><a xlink:href="../../dd/db2/classorg_1_1msrg_1_1raccoon_1_1engine_1_1task_1_1sequential_1_1Encoding__SequentialCodingTask_a0db811a3c1c9e9554334e1df8ea71192.html#a0db811a3c1c9e9554334e1df8ea71192" target="_top" xlink:title="org.msrg.raccoon.engine.task.sequential.\lEncoding_SequentialCodingTask.Encoding\l_SequentialCodingTask">
<polygon fill="none" stroke="black" points="209,-109 209,-150 413,-150 413,-109 209,-109"/>
<text text-anchor="start" x="217" y="-138" font-family="Helvetica,sans-Serif" font-size="10.00">org.msrg.raccoon.engine.task.sequential.</text>
<text text-anchor="start" x="217" y="-127" font-family="Helvetica,sans-Serif" font-size="10.00">Encoding_SequentialCodingTask.Encoding</text>
<text text-anchor="middle" x="311" y="-116" font-family="Helvetica,sans-Serif" font-size="10.00">_SequentialCodingTask</text>
</a>
</g>
</g>
<!-- Node1&#45;&gt;Node2 -->
<g id="edge1" class="edge"><title>Node1&#45;&gt;Node2</title>
<path fill="none" stroke="midnightblue" d="M150.424,-87.1346C176.236,-93.9875 205.979,-101.884 232.74,-108.989"/>
<polygon fill="midnightblue" stroke="midnightblue" points="151.301,-83.7463 140.738,-84.5631 149.505,-90.512 151.301,-83.7463"/>
</g>
<!-- Node3 -->
<g id="node3" class="node"><title>Node3</title>
<g id="a_node3"><a xlink:href="../../dd/db2/classorg_1_1msrg_1_1raccoon_1_1engine_1_1task_1_1sequential_1_1Encoding__SequentialCodingTask_a85584616087c7318d1adffee5369af4b.html#a85584616087c7318d1adffee5369af4b" target="_top" xlink:title="org.msrg.raccoon.engine.task.sequential.\lEncoding_SequentialCodingTask.getEncoding\l_SequentialCodingTask">
<polygon fill="none" stroke="black" points="202,-49 202,-90 420,-90 420,-49 202,-49"/>
<text text-anchor="start" x="210" y="-78" font-family="Helvetica,sans-Serif" font-size="10.00">org.msrg.raccoon.engine.task.sequential.</text>
<text text-anchor="start" x="210" y="-67" font-family="Helvetica,sans-Serif" font-size="10.00">Encoding_SequentialCodingTask.getEncoding</text>
<text text-anchor="middle" x="311" y="-56" font-family="Helvetica,sans-Serif" font-size="10.00">_SequentialCodingTask</text>
</a>
</g>
</g>
<!-- Node1&#45;&gt;Node3 -->
<g id="edge2" class="edge"><title>Node1&#45;&gt;Node3</title>
<path fill="none" stroke="midnightblue" d="M176.404,-69.5C184.82,-69.5 193.393,-69.5 201.928,-69.5"/>
<polygon fill="midnightblue" stroke="midnightblue" points="176.231,-66.0001 166.231,-69.5 176.23,-73.0001 176.231,-66.0001"/>
</g>
<!-- Node5 -->
<g id="node5" class="node"><title>Node5</title>
<g id="a_node5"><a xlink:href="../../dd/da2/classorg_1_1msrg_1_1raccoon_1_1CodedBatch_a7c04419efe38b8a350d0f35d8abd6980.html#a7c04419efe38b8a350d0f35d8abd6980" target="_top" xlink:title="org.msrg.raccoon.CodedBatch.to\lString">
<polygon fill="none" stroke="black" points="230.5,-0.5 230.5,-30.5 391.5,-30.5 391.5,-0.5 230.5,-0.5"/>
<text text-anchor="start" x="238.5" y="-18.5" font-family="Helvetica,sans-Serif" font-size="10.00">org.msrg.raccoon.CodedBatch.to</text>
<text text-anchor="middle" x="311" y="-7.5" font-family="Helvetica,sans-Serif" font-size="10.00">String</text>
</a>
</g>
</g>
<!-- Node1&#45;&gt;Node5 -->
<g id="edge4" class="edge"><title>Node1&#45;&gt;Node5</title>
<path fill="none" stroke="midnightblue" d="M151.874,-51.8696C168.262,-47.7164 185.738,-43.3732 202,-39.5 214.519,-36.5184 227.882,-33.4535 240.791,-30.5532"/>
<polygon fill="midnightblue" stroke="midnightblue" points="150.659,-48.5671 141.831,-54.4251 152.386,-55.3509 150.659,-48.5671"/>
</g>
<!-- Node4 -->
<g id="node4" class="node"><title>Node4</title>
<g id="a_node4"><a xlink:href="../../d2/d9a/classorg_1_1msrg_1_1raccoon_1_1engine_1_1CodingEngineImpl_a6be80b856b9185ab93b5e9921844481e.html#a6be80b856b9185ab93b5e9921844481e" target="_top" xlink:title="org.msrg.raccoon.engine.\lCodingEngineImpl.encode">
<polygon fill="none" stroke="black" points="456,-54.5 456,-84.5 587,-84.5 587,-54.5 456,-54.5"/>
<text text-anchor="start" x="464" y="-72.5" font-family="Helvetica,sans-Serif" font-size="10.00">org.msrg.raccoon.engine.</text>
<text text-anchor="middle" x="521.5" y="-61.5" font-family="Helvetica,sans-Serif" font-size="10.00">CodingEngineImpl.encode</text>
</a>
</g>
</g>
<!-- Node3&#45;&gt;Node4 -->
<g id="edge3" class="edge"><title>Node3&#45;&gt;Node4</title>
<path fill="none" stroke="midnightblue" d="M430.478,-69.5C439.177,-69.5 447.741,-69.5 455.922,-69.5"/>
<polygon fill="midnightblue" stroke="midnightblue" points="430.22,-66.0001 420.22,-69.5 430.22,-73.0001 430.22,-66.0001"/>
</g>
</g>
</svg>
