<?xml version="1.0" encoding="UTF-8" standalone="no"?>
<!DOCTYPE svg PUBLIC "-//W3C//DTD SVG 1.1//EN"
 "http://www.w3.org/Graphics/SVG/1.1/DTD/svg11.dtd">
<!-- Generated by graphviz version 2.38.0 (20140413.2041)
 -->
<!-- Title: org.msrg.raccoon.CodedBatch.isSolved Pages: 1 -->
<svg width="670pt" height="171pt"
 viewBox="0.00 0.00 670.00 170.50" xmlns="http://www.w3.org/2000/svg" xmlns:xlink="http://www.w3.org/1999/xlink">
<g id="graph0" class="graph" transform="scale(1 1) rotate(0) translate(4 166.5)">
<title>org.msrg.raccoon.CodedBatch.isSolved</title>
<!-- Node1 -->
<g id="node1" class="node"><title>Node1</title>
<polygon fill="#bfbfbf" stroke="black" points="0,-60.5 0,-90.5 160,-90.5 160,-60.5 0,-60.5"/>
<text text-anchor="start" x="8" y="-78.5" font-family="Helvetica,sans-Serif" font-size="10.00">org.msrg.raccoon.CodedBatch.is</text>
<text text-anchor="middle" x="80" y="-67.5" font-family="Helvetica,sans-Serif" font-size="10.00">Solved</text>
</g>
<!-- Node2 -->
<g id="node2" class="node"><title>Node2</title>
<g id="a_node2"><a xlink:href="../../dd/da2/classorg_1_1msrg_1_1raccoon_1_1CodedBatch_a790dedc7e8851563c2ab75be32a9425f.html#a790dedc7e8851563c2ab75be32a9425f" target="_top" xlink:title="org.msrg.raccoon.CodedBatch.getSize">
<polygon fill="none" stroke="black" points="196,-66 196,-85 381,-85 381,-66 196,-66"/>
<text text-anchor="middle" x="288.5" y="-73" font-family="Helvetica,sans-Serif" font-size="10.00">org.msrg.raccoon.CodedBatch.getSize</text>
</a>
</g>
</g>
<!-- Node1&#45;&gt;Node2 -->
<g id="edge1" class="edge"><title>Node1&#45;&gt;Node2</title>
<path fill="none" stroke="midnightblue" d="M170.4,-75.5C178.787,-75.5 187.297,-75.5 195.705,-75.5"/>
<polygon fill="midnightblue" stroke="midnightblue" points="170.248,-72.0001 160.248,-75.5 170.248,-79.0001 170.248,-72.0001"/>
</g>
<!-- Node3 -->
<g id="node3" class="node"><title>Node3</title>
<g id="a_node3"><a xlink:href="../../de/d11/classorg_1_1msrg_1_1raccoon_1_1engine_1_1task_1_1sequential_1_1EncodingDecodingEqual__SequentialCodingTask_a908a978a4738dc1a5445eabd628c362d.html#a908a978a4738dc1a5445eabd628c362d" target="_top" xlink:title="org.msrg.raccoon.engine.task.sequential.\lEncodingDecodingEqual_SequentialCodingTask.\lEncodingDecodingEqual_SequentialCodingTask">
<polygon fill="none" stroke="black" points="424.5,-121 424.5,-162 654.5,-162 654.5,-121 424.5,-121"/>
<text text-anchor="start" x="432.5" y="-150" font-family="Helvetica,sans-Serif" font-size="10.00">org.msrg.raccoon.engine.task.sequential.</text>
<text text-anchor="start" x="432.5" y="-139" font-family="Helvetica,sans-Serif" font-size="10.00">EncodingDecodingEqual_SequentialCodingTask.</text>
<text text-anchor="middle" x="539.5" y="-128" font-family="Helvetica,sans-Serif" font-size="10.00">EncodingDecodingEqual_SequentialCodingTask</text>
</a>
</g>
</g>
<!-- Node2&#45;&gt;Node3 -->
<g id="edge2" class="edge"><title>Node2&#45;&gt;Node3</title>
<path fill="none" stroke="midnightblue" d="M331.973,-87.8726C356.722,-94.987 388.565,-103.977 417,-111.5 428.868,-114.64 441.415,-117.855 453.764,-120.959"/>
<polygon fill="midnightblue" stroke="midnightblue" points="332.752,-84.4549 322.174,-85.0475 330.813,-91.1809 332.752,-84.4549"/>
</g>
<!-- Node4 -->
<g id="node4" class="node"><title>Node4</title>
<g id="a_node4"><a xlink:href="../../d5/daf/classorg_1_1msrg_1_1raccoon_1_1engine_1_1task_1_1sequential_1_1EncodingReceivedEncodingDecodingEqual__SequentialCodingTask_ad5ef98690228affc48e89762d07bef35.html#ad5ef98690228affc48e89762d07bef35" target="_top" xlink:title="org.msrg.raccoon.engine.task.sequential.\lEncodingReceivedEncodingDecodingEqual\l_SequentialCodingTask.EncodingReceivedEncoding\lDecodingEqual_SequentialCodingTask">
<polygon fill="none" stroke="black" points="417,-49.5 417,-101.5 662,-101.5 662,-49.5 417,-49.5"/>
<text text-anchor="start" x="425" y="-89.5" font-family="Helvetica,sans-Serif" font-size="10.00">org.msrg.raccoon.engine.task.sequential.</text>
<text text-anchor="start" x="425" y="-78.5" font-family="Helvetica,sans-Serif" font-size="10.00">EncodingReceivedEncodingDecodingEqual</text>
<text text-anchor="start" x="425" y="-67.5" font-family="Helvetica,sans-Serif" font-size="10.00">_SequentialCodingTask.EncodingReceivedEncoding</text>
<text text-anchor="middle" x="539.5" y="-56.5" font-family="Helvetica,sans-Serif" font-size="10.00">DecodingEqual_SequentialCodingTask</text>
</a>
</g>
</g>
<!-- Node2&#45;&gt;Node4 -->
<g id="edge3" class="edge"><title>Node2&#45;&gt;Node4</title>
<path fill="none" stroke="midnightblue" d="M391.351,-75.5C399.776,-75.5 408.343,-75.5 416.892,-75.5"/>
<polygon fill="midnightblue" stroke="midnightblue" points="391.158,-72.0001 381.158,-75.5 391.158,-79.0001 391.158,-72.0001"/>
</g>
<!-- Node5 -->
<g id="node5" class="node"><title>Node5</title>
<g id="a_node5"><a xlink:href="../../da/df0/classorg_1_1msrg_1_1raccoon_1_1ReceivedCodedBatch_a771ca954fd49e06ed4f4ca355a42a92d.html#a771ca954fd49e06ed4f4ca355a42a92d" target="_top" xlink:title="org.msrg.raccoon.Received\lCodedBatch.getCols">
<polygon fill="none" stroke="black" points="471,-0.5 471,-30.5 608,-30.5 608,-0.5 471,-0.5"/>
<text text-anchor="start" x="479" y="-18.5" font-family="Helvetica,sans-Serif" font-size="10.00">org.msrg.raccoon.Received</text>
<text text-anchor="middle" x="539.5" y="-7.5" font-family="Helvetica,sans-Serif" font-size="10.00">CodedBatch.getCols</text>
</a>
</g>
</g>
<!-- Node2&#45;&gt;Node5 -->
<g id="edge4" class="edge"><title>Node2&#45;&gt;Node5</title>
<path fill="none" stroke="midnightblue" d="M331.636,-63.1927C356.394,-56.1471 388.357,-47.3704 417,-40.5 434.382,-36.3307 453.264,-32.237 470.847,-28.6082"/>
<polygon fill="midnightblue" stroke="midnightblue" points="330.491,-59.8798 321.841,-65.9969 332.418,-66.6095 330.491,-59.8798"/>
</g>
</g>
</svg>
