<?xml version="1.0" encoding="UTF-8" standalone="no"?>
<!DOCTYPE svg PUBLIC "-//W3C//DTD SVG 1.1//EN"
 "http://www.w3.org/Graphics/SVG/1.1/DTD/svg11.dtd">
<!-- Generated by graphviz version 2.38.0 (20140413.2041)
 -->
<!-- Title: org.msrg.raccoon.CodedBatch.getSize Pages: 1 -->
<svg width="474pt" height="171pt"
 viewBox="0.00 0.00 474.00 170.50" xmlns="http://www.w3.org/2000/svg" xmlns:xlink="http://www.w3.org/1999/xlink">
<g id="graph0" class="graph" transform="scale(1 1) rotate(0) translate(4 166.5)">
<title>org.msrg.raccoon.CodedBatch.getSize</title>
<!-- Node2 -->
<g id="node1" class="node"><title>Node2</title>
<polygon fill="#bfbfbf" stroke="black" points="0,-66 0,-85 185,-85 185,-66 0,-66"/>
<text text-anchor="middle" x="92.5" y="-73" font-family="Helvetica,sans-Serif" font-size="10.00">org.msrg.raccoon.CodedBatch.getSize</text>
</g>
<!-- Node3 -->
<g id="node2" class="node"><title>Node3</title>
<g id="a_node2"><a xlink:href="../../de/d11/classorg_1_1msrg_1_1raccoon_1_1engine_1_1task_1_1sequential_1_1EncodingDecodingEqual__SequentialCodingTask_a908a978a4738dc1a5445eabd628c362d.html#a908a978a4738dc1a5445eabd628c362d" target="_top" xlink:title="org.msrg.raccoon.engine.task.sequential.\lEncodingDecodingEqual_SequentialCodingTask.\lEncodingDecodingEqual_SequentialCodingTask">
<polygon fill="none" stroke="black" points="228.5,-121 228.5,-162 458.5,-162 458.5,-121 228.5,-121"/>
<text text-anchor="start" x="236.5" y="-150" font-family="Helvetica,sans-Serif" font-size="10.00">org.msrg.raccoon.engine.task.sequential.</text>
<text text-anchor="start" x="236.5" y="-139" font-family="Helvetica,sans-Serif" font-size="10.00">EncodingDecodingEqual_SequentialCodingTask.</text>
<text text-anchor="middle" x="343.5" y="-128" font-family="Helvetica,sans-Serif" font-size="10.00">EncodingDecodingEqual_SequentialCodingTask</text>
</a>
</g>
</g>
<!-- Node2&#45;&gt;Node3 -->
<g id="edge1" class="edge"><title>Node2&#45;&gt;Node3</title>
<path fill="none" stroke="midnightblue" d="M135.973,-87.8726C160.722,-94.987 192.565,-103.977 221,-111.5 232.868,-114.64 245.415,-117.855 257.764,-120.959"/>
<polygon fill="midnightblue" stroke="midnightblue" points="136.752,-84.4549 126.174,-85.0475 134.813,-91.1809 136.752,-84.4549"/>
</g>
<!-- Node4 -->
<g id="node3" class="node"><title>Node4</title>
<g id="a_node3"><a xlink:href="../../d5/daf/classorg_1_1msrg_1_1raccoon_1_1engine_1_1task_1_1sequential_1_1EncodingReceivedEncodingDecodingEqual__SequentialCodingTask_ad5ef98690228affc48e89762d07bef35.html#ad5ef98690228affc48e89762d07bef35" target="_top" xlink:title="org.msrg.raccoon.engine.task.sequential.\lEncodingReceivedEncodingDecodingEqual\l_SequentialCodingTask.EncodingReceivedEncoding\lDecodingEqual_SequentialCodingTask">
<polygon fill="none" stroke="black" points="221,-49.5 221,-101.5 466,-101.5 466,-49.5 221,-49.5"/>
<text text-anchor="start" x="229" y="-89.5" font-family="Helvetica,sans-Serif" font-size="10.00">org.msrg.raccoon.engine.task.sequential.</text>
<text text-anchor="start" x="229" y="-78.5" font-family="Helvetica,sans-Serif" font-size="10.00">EncodingReceivedEncodingDecodingEqual</text>
<text text-anchor="start" x="229" y="-67.5" font-family="Helvetica,sans-Serif" font-size="10.00">_SequentialCodingTask.EncodingReceivedEncoding</text>
<text text-anchor="middle" x="343.5" y="-56.5" font-family="Helvetica,sans-Serif" font-size="10.00">DecodingEqual_SequentialCodingTask</text>
</a>
</g>
</g>
<!-- Node2&#45;&gt;Node4 -->
<g id="edge2" class="edge"><title>Node2&#45;&gt;Node4</title>
<path fill="none" stroke="midnightblue" d="M195.351,-75.5C203.776,-75.5 212.343,-75.5 220.892,-75.5"/>
<polygon fill="midnightblue" stroke="midnightblue" points="195.158,-72.0001 185.158,-75.5 195.158,-79.0001 195.158,-72.0001"/>
</g>
<!-- Node5 -->
<g id="node4" class="node"><title>Node5</title>
<g id="a_node4"><a xlink:href="../../da/df0/classorg_1_1msrg_1_1raccoon_1_1ReceivedCodedBatch_a771ca954fd49e06ed4f4ca355a42a92d.html#a771ca954fd49e06ed4f4ca355a42a92d" target="_top" xlink:title="org.msrg.raccoon.Received\lCodedBatch.getCols">
<polygon fill="none" stroke="black" points="275,-0.5 275,-30.5 412,-30.5 412,-0.5 275,-0.5"/>
<text text-anchor="start" x="283" y="-18.5" font-family="Helvetica,sans-Serif" font-size="10.00">org.msrg.raccoon.Received</text>
<text text-anchor="middle" x="343.5" y="-7.5" font-family="Helvetica,sans-Serif" font-size="10.00">CodedBatch.getCols</text>
</a>
</g>
</g>
<!-- Node2&#45;&gt;Node5 -->
<g id="edge3" class="edge"><title>Node2&#45;&gt;Node5</title>
<path fill="none" stroke="midnightblue" d="M135.636,-63.1927C160.394,-56.1471 192.357,-47.3704 221,-40.5 238.382,-36.3307 257.264,-32.237 274.847,-28.6082"/>
<polygon fill="midnightblue" stroke="midnightblue" points="134.491,-59.8798 125.841,-65.9969 136.418,-66.6095 134.491,-59.8798"/>
</g>
</g>
</svg>
