<?xml version="1.0" encoding="UTF-8" standalone="no"?>
<!DOCTYPE svg PUBLIC "-//W3C//DTD SVG 1.1//EN"
 "http://www.w3.org/Graphics/SVG/1.1/DTD/svg11.dtd">
<!-- Generated by graphviz version 2.38.0 (20140413.2041)
 -->
<!-- Title: org.msrg.raccoon.CodedBatch.equals Pages: 1 -->
<svg width="812pt" height="176pt"
 viewBox="0.00 0.00 812.00 175.50" xmlns="http://www.w3.org/2000/svg" xmlns:xlink="http://www.w3.org/1999/xlink">
<g id="graph0" class="graph" transform="scale(1 1) rotate(0) translate(4 171.5)">
<title>org.msrg.raccoon.CodedBatch.equals</title>
<!-- Node1 -->
<g id="node1" class="node"><title>Node1</title>
<polygon fill="#bfbfbf" stroke="black" points="0,-92.5 0,-111.5 181,-111.5 181,-92.5 0,-92.5"/>
<text text-anchor="middle" x="90.5" y="-99.5" font-family="Helvetica,sans-Serif" font-size="10.00">org.msrg.raccoon.CodedBatch.equals</text>
</g>
<!-- Node2 -->
<g id="node2" class="node"><title>Node2</title>
<g id="a_node2"><a xlink:href="../../dd/da2/classorg_1_1msrg_1_1raccoon_1_1CodedBatch_a0d83f9996320268e978e73f0ea41a9d0.html#a0d83f9996320268e978e73f0ea41a9d0" target="_top" xlink:title="org.msrg.raccoon.CodedBatch.\lCodedBatch">
<polygon fill="none" stroke="black" points="231.5,-124 231.5,-154 383.5,-154 383.5,-124 231.5,-124"/>
<text text-anchor="start" x="239.5" y="-142" font-family="Helvetica,sans-Serif" font-size="10.00">org.msrg.raccoon.CodedBatch.</text>
<text text-anchor="middle" x="307.5" y="-131" font-family="Helvetica,sans-Serif" font-size="10.00">CodedBatch</text>
</a>
</g>
</g>
<!-- Node1&#45;&gt;Node2 -->
<g id="edge1" class="edge"><title>Node1&#45;&gt;Node2</title>
<path fill="none" stroke="midnightblue" d="M146.868,-111.528C169.605,-115.441 196.447,-120.061 221.567,-124.384"/>
<polygon fill="midnightblue" stroke="midnightblue" points="221.017,-127.84 231.466,-126.087 222.205,-120.942 221.017,-127.84"/>
</g>
<!-- Node4 -->
<g id="node4" class="node"><title>Node4</title>
<g id="a_node4"><a xlink:href="../../dd/da2/classorg_1_1msrg_1_1raccoon_1_1CodedBatch_a0f775cb64db97a1e67680d072ae4c202.html#a0f775cb64db97a1e67680d072ae4c202" target="_top" xlink:title="org.msrg.raccoon.CodedBatch.equals\lExact">
<polygon fill="none" stroke="black" points="217,-51 217,-81 398,-81 398,-51 217,-51"/>
<text text-anchor="start" x="225" y="-69" font-family="Helvetica,sans-Serif" font-size="10.00">org.msrg.raccoon.CodedBatch.equals</text>
<text text-anchor="middle" x="307.5" y="-58" font-family="Helvetica,sans-Serif" font-size="10.00">Exact</text>
</a>
</g>
</g>
<!-- Node1&#45;&gt;Node4 -->
<g id="edge3" class="edge"><title>Node1&#45;&gt;Node4</title>
<path fill="none" stroke="midnightblue" d="M148.27,-92.4943C166.257,-89.4826 186.702,-86.0593 206.783,-82.6969"/>
<polygon fill="midnightblue" stroke="midnightblue" points="207.631,-86.1036 216.916,-81.0002 206.475,-79.1997 207.631,-86.1036"/>
</g>
<!-- Node3 -->
<g id="node3" class="node"><title>Node3</title>
<g id="a_node3"><a xlink:href="../../df/da4/classorg_1_1msrg_1_1raccoon_1_1matrix_1_1bulk_1_1BulkMatrix_a257d6e8cb7dcebe468d29c4393b20f3d.html#a257d6e8cb7dcebe468d29c4393b20f3d" target="_top" xlink:title="org.msrg.raccoon.matrix.bulk.\lBulkMatrix.getSize">
<polygon fill="none" stroke="black" points="455,-137 455,-167 601,-167 601,-137 455,-137"/>
<text text-anchor="start" x="463" y="-155" font-family="Helvetica,sans-Serif" font-size="10.00">org.msrg.raccoon.matrix.bulk.</text>
<text text-anchor="middle" x="528" y="-144" font-family="Helvetica,sans-Serif" font-size="10.00">BulkMatrix.getSize</text>
</a>
</g>
</g>
<!-- Node2&#45;&gt;Node3 -->
<g id="edge2" class="edge"><title>Node2&#45;&gt;Node3</title>
<path fill="none" stroke="midnightblue" d="M383.695,-143.474C403.443,-144.649 424.841,-145.922 444.929,-147.117"/>
<polygon fill="midnightblue" stroke="midnightblue" points="444.794,-150.615 454.984,-147.715 445.21,-143.627 444.794,-150.615"/>
</g>
<!-- Node5 -->
<g id="node5" class="node"><title>Node5</title>
<g id="a_node5"><a xlink:href="../../df/da4/classorg_1_1msrg_1_1raccoon_1_1matrix_1_1bulk_1_1BulkMatrix_af6c5f0c294627b409dff7fa2b9e7e5c3.html#af6c5f0c294627b409dff7fa2b9e7e5c3" target="_top" xlink:title="org.msrg.raccoon.matrix.bulk.\lBulkMatrix.equals">
<polygon fill="none" stroke="black" points="455,-88 455,-118 601,-118 601,-88 455,-88"/>
<text text-anchor="start" x="463" y="-106" font-family="Helvetica,sans-Serif" font-size="10.00">org.msrg.raccoon.matrix.bulk.</text>
<text text-anchor="middle" x="528" y="-95" font-family="Helvetica,sans-Serif" font-size="10.00">BulkMatrix.equals</text>
</a>
</g>
</g>
<!-- Node4&#45;&gt;Node5 -->
<g id="edge4" class="edge"><title>Node4&#45;&gt;Node5</title>
<path fill="none" stroke="midnightblue" d="M397.372,-81.0493C413.073,-83.7081 429.357,-86.4654 444.862,-89.0911"/>
<polygon fill="midnightblue" stroke="midnightblue" points="444.481,-92.5763 454.925,-90.7951 445.65,-85.6746 444.481,-92.5763"/>
</g>
<!-- Node8 -->
<g id="node8" class="node"><title>Node8</title>
<g id="a_node8"><a xlink:href="../../d1/d78/interfaceorg_1_1msrg_1_1raccoon_1_1ICodedBatch_ac619debd08f8bf73a370c90147ebf9f5.html#ac619debd08f8bf73a370c90147ebf9f5" target="_top" xlink:title="org.msrg.raccoon.ICodedBatch.get\lBulkMatrix">
<polygon fill="none" stroke="black" points="443.5,-39 443.5,-69 612.5,-69 612.5,-39 443.5,-39"/>
<text text-anchor="start" x="451.5" y="-57" font-family="Helvetica,sans-Serif" font-size="10.00">org.msrg.raccoon.ICodedBatch.get</text>
<text text-anchor="middle" x="528" y="-46" font-family="Helvetica,sans-Serif" font-size="10.00">BulkMatrix</text>
</a>
</g>
</g>
<!-- Node4&#45;&gt;Node8 -->
<g id="edge7" class="edge"><title>Node4&#45;&gt;Node8</title>
<path fill="none" stroke="midnightblue" d="M398.003,-61.0845C409.579,-60.4487 421.462,-59.7962 433.107,-59.1566"/>
<polygon fill="midnightblue" stroke="midnightblue" points="433.472,-62.6419 443.265,-58.5987 433.088,-55.6524 433.472,-62.6419"/>
</g>
<!-- Node9 -->
<g id="node9" class="node"><title>Node9</title>
<g id="a_node9"><a xlink:href="../../d1/d78/interfaceorg_1_1msrg_1_1raccoon_1_1ICodedBatch_abc6a498c6f7f8b9245cbb54703eb6807.html#abc6a498c6f7f8b9245cbb54703eb6807" target="_top" xlink:title="org.msrg.raccoon.ICodedBatch.getSize">
<polygon fill="none" stroke="black" points="434,-0.5 434,-19.5 622,-19.5 622,-0.5 434,-0.5"/>
<text text-anchor="middle" x="528" y="-7.5" font-family="Helvetica,sans-Serif" font-size="10.00">org.msrg.raccoon.ICodedBatch.getSize</text>
</a>
</g>
</g>
<!-- Node4&#45;&gt;Node9 -->
<g id="edge8" class="edge"><title>Node4&#45;&gt;Node9</title>
<path fill="none" stroke="midnightblue" d="M355.914,-50.9841C379.294,-43.8457 407.991,-35.4784 434,-29 444.406,-26.4079 455.532,-23.9059 466.339,-21.6156"/>
<polygon fill="midnightblue" stroke="midnightblue" points="467.066,-25.0393 476.144,-19.5753 465.64,-18.1861 467.066,-25.0393"/>
</g>
<!-- Node6 -->
<g id="node6" class="node"><title>Node6</title>
<g id="a_node6"><a xlink:href="../../df/da4/classorg_1_1msrg_1_1raccoon_1_1matrix_1_1bulk_1_1BulkMatrix_ae52685687565b5725a204d70237d300a.html#ae52685687565b5725a204d70237d300a" target="_top" xlink:title="org.msrg.raccoon.matrix.bulk.\lBulkMatrix.BulkMatrix">
<polygon fill="none" stroke="black" points="658,-112 658,-142 804,-142 804,-112 658,-112"/>
<text text-anchor="start" x="666" y="-130" font-family="Helvetica,sans-Serif" font-size="10.00">org.msrg.raccoon.matrix.bulk.</text>
<text text-anchor="middle" x="731" y="-119" font-family="Helvetica,sans-Serif" font-size="10.00">BulkMatrix.BulkMatrix</text>
</a>
</g>
</g>
<!-- Node5&#45;&gt;Node6 -->
<g id="edge5" class="edge"><title>Node5&#45;&gt;Node6</title>
<path fill="none" stroke="midnightblue" d="M601.282,-111.631C616.331,-113.428 632.298,-115.334 647.678,-117.171"/>
<polygon fill="midnightblue" stroke="midnightblue" points="647.34,-120.655 657.685,-118.365 648.17,-113.704 647.34,-120.655"/>
</g>
<!-- Node7 -->
<g id="node7" class="node"><title>Node7</title>
<g id="a_node7"><a xlink:href="../../df/da4/classorg_1_1msrg_1_1raccoon_1_1matrix_1_1bulk_1_1BulkMatrix_a98b3c00a4eb4e1864c20182b3ae0e8ec.html#a98b3c00a4eb4e1864c20182b3ae0e8ec" target="_top" xlink:title="org.msrg.raccoon.matrix.bulk.\lBulkMatrix.getSliceCount">
<polygon fill="none" stroke="black" points="658,-63 658,-93 804,-93 804,-63 658,-63"/>
<text text-anchor="start" x="666" y="-81" font-family="Helvetica,sans-Serif" font-size="10.00">org.msrg.raccoon.matrix.bulk.</text>
<text text-anchor="middle" x="731" y="-70" font-family="Helvetica,sans-Serif" font-size="10.00">BulkMatrix.getSliceCount</text>
</a>
</g>
</g>
<!-- Node5&#45;&gt;Node7 -->
<g id="edge6" class="edge"><title>Node5&#45;&gt;Node7</title>
<path fill="none" stroke="midnightblue" d="M601.282,-94.0097C616.331,-92.138 632.298,-90.152 647.678,-88.239"/>
<polygon fill="midnightblue" stroke="midnightblue" points="648.193,-91.7021 657.685,-86.9945 647.329,-84.7556 648.193,-91.7021"/>
</g>
</g>
</svg>
