<?xml version="1.0" encoding="UTF-8" standalone="no"?>
<!DOCTYPE svg PUBLIC "-//W3C//DTD SVG 1.1//EN"
 "http://www.w3.org/Graphics/SVG/1.1/DTD/svg11.dtd">
<!-- Generated by graphviz version 2.38.0 (20140413.2041)
 -->
<!-- Title: org.msrg.raccoon.CodedBatch.equalsExact Pages: 1 -->
<svg width="595pt" height="200pt"
 viewBox="0.00 0.00 595.00 199.50" xmlns="http://www.w3.org/2000/svg" xmlns:xlink="http://www.w3.org/1999/xlink">
<g id="graph0" class="graph" transform="scale(1 1) rotate(0) translate(4 195.5)">
<title>org.msrg.raccoon.CodedBatch.equalsExact</title>
<!-- Node0 -->
<g id="node1" class="node"><title>Node0</title>
<polygon fill="#bfbfbf" stroke="black" points="0,-63 0,-93 181,-93 181,-63 0,-63"/>
<text text-anchor="start" x="8" y="-81" font-family="Helvetica,sans-Serif" font-size="10.00">org.msrg.raccoon.CodedBatch.equals</text>
<text text-anchor="middle" x="90.5" y="-70" font-family="Helvetica,sans-Serif" font-size="10.00">Exact</text>
</g>
<!-- Node1 -->
<g id="node2" class="node"><title>Node1</title>
<g id="a_node2"><a xlink:href="../../df/da4/classorg_1_1msrg_1_1raccoon_1_1matrix_1_1bulk_1_1BulkMatrix_af6c5f0c294627b409dff7fa2b9e7e5c3.html#af6c5f0c294627b409dff7fa2b9e7e5c3" target="_top" xlink:title="org.msrg.raccoon.matrix.bulk.\lBulkMatrix.equals">
<polygon fill="none" stroke="black" points="238,-137 238,-167 384,-167 384,-137 238,-137"/>
<text text-anchor="start" x="246" y="-155" font-family="Helvetica,sans-Serif" font-size="10.00">org.msrg.raccoon.matrix.bulk.</text>
<text text-anchor="middle" x="311" y="-144" font-family="Helvetica,sans-Serif" font-size="10.00">BulkMatrix.equals</text>
</a>
</g>
</g>
<!-- Node0&#45;&gt;Node1 -->
<g id="edge1" class="edge"><title>Node0&#45;&gt;Node1</title>
<path fill="none" stroke="midnightblue" d="M125.96,-93.099C150.934,-103.703 185.678,-117.764 217,-128 223.496,-130.123 230.296,-132.181 237.135,-134.141"/>
<polygon fill="midnightblue" stroke="midnightblue" points="236.581,-137.62 247.154,-136.938 238.464,-130.878 236.581,-137.62"/>
</g>
<!-- Node4 -->
<g id="node5" class="node"><title>Node4</title>
<g id="a_node5"><a xlink:href="../../dd/da2/classorg_1_1msrg_1_1raccoon_1_1CodedBatch_ac3e6ebf9f6d3334dec7bba22a83f3999.html#ac3e6ebf9f6d3334dec7bba22a83f3999" target="_top" xlink:title="org.msrg.raccoon.CodedBatch.get\lAvailableCodedPieceCount">
<polygon fill="none" stroke="black" points="228,-88 228,-118 394,-118 394,-88 228,-88"/>
<text text-anchor="start" x="236" y="-106" font-family="Helvetica,sans-Serif" font-size="10.00">org.msrg.raccoon.CodedBatch.get</text>
<text text-anchor="middle" x="311" y="-95" font-family="Helvetica,sans-Serif" font-size="10.00">AvailableCodedPieceCount</text>
</a>
</g>
</g>
<!-- Node0&#45;&gt;Node4 -->
<g id="edge4" class="edge"><title>Node0&#45;&gt;Node4</title>
<path fill="none" stroke="midnightblue" d="M181.003,-88.2406C193.064,-89.6206 205.458,-91.0387 217.57,-92.4245"/>
<polygon fill="midnightblue" stroke="midnightblue" points="217.33,-95.9198 227.663,-93.5793 218.126,-88.9652 217.33,-95.9198"/>
</g>
<!-- Node5 -->
<g id="node6" class="node"><title>Node5</title>
<g id="a_node6"><a xlink:href="../../d1/d78/interfaceorg_1_1msrg_1_1raccoon_1_1ICodedBatch_ac619debd08f8bf73a370c90147ebf9f5.html#ac619debd08f8bf73a370c90147ebf9f5" target="_top" xlink:title="org.msrg.raccoon.ICodedBatch.get\lBulkMatrix">
<polygon fill="none" stroke="black" points="226.5,-39 226.5,-69 395.5,-69 395.5,-39 226.5,-39"/>
<text text-anchor="start" x="234.5" y="-57" font-family="Helvetica,sans-Serif" font-size="10.00">org.msrg.raccoon.ICodedBatch.get</text>
<text text-anchor="middle" x="311" y="-46" font-family="Helvetica,sans-Serif" font-size="10.00">BulkMatrix</text>
</a>
</g>
</g>
<!-- Node0&#45;&gt;Node5 -->
<g id="edge5" class="edge"><title>Node0&#45;&gt;Node5</title>
<path fill="none" stroke="midnightblue" d="M181.003,-68.169C192.579,-66.8975 204.462,-65.5923 216.107,-64.3132"/>
<polygon fill="midnightblue" stroke="midnightblue" points="216.707,-67.7684 226.265,-63.1974 215.943,-60.8102 216.707,-67.7684"/>
</g>
<!-- Node6 -->
<g id="node7" class="node"><title>Node6</title>
<g id="a_node7"><a xlink:href="../../d1/d78/interfaceorg_1_1msrg_1_1raccoon_1_1ICodedBatch_abc6a498c6f7f8b9245cbb54703eb6807.html#abc6a498c6f7f8b9245cbb54703eb6807" target="_top" xlink:title="org.msrg.raccoon.ICodedBatch.getSize">
<polygon fill="none" stroke="black" points="217,-0.5 217,-19.5 405,-19.5 405,-0.5 217,-0.5"/>
<text text-anchor="middle" x="311" y="-7.5" font-family="Helvetica,sans-Serif" font-size="10.00">org.msrg.raccoon.ICodedBatch.getSize</text>
</a>
</g>
</g>
<!-- Node0&#45;&gt;Node6 -->
<g id="edge6" class="edge"><title>Node0&#45;&gt;Node6</title>
<path fill="none" stroke="midnightblue" d="M126.434,-62.9792C151.341,-52.6818 185.804,-39.2607 217,-30 227.303,-26.9415 238.378,-24.1455 249.166,-21.6762"/>
<polygon fill="midnightblue" stroke="midnightblue" points="249.959,-25.0856 258.963,-19.5022 248.442,-18.2519 249.959,-25.0856"/>
</g>
<!-- Node2 -->
<g id="node3" class="node"><title>Node2</title>
<g id="a_node3"><a xlink:href="../../df/da4/classorg_1_1msrg_1_1raccoon_1_1matrix_1_1bulk_1_1BulkMatrix_ae52685687565b5725a204d70237d300a.html#ae52685687565b5725a204d70237d300a" target="_top" xlink:title="org.msrg.raccoon.matrix.bulk.\lBulkMatrix.BulkMatrix">
<polygon fill="none" stroke="black" points="441,-161 441,-191 587,-191 587,-161 441,-161"/>
<text text-anchor="start" x="449" y="-179" font-family="Helvetica,sans-Serif" font-size="10.00">org.msrg.raccoon.matrix.bulk.</text>
<text text-anchor="middle" x="514" y="-168" font-family="Helvetica,sans-Serif" font-size="10.00">BulkMatrix.BulkMatrix</text>
</a>
</g>
</g>
<!-- Node1&#45;&gt;Node2 -->
<g id="edge2" class="edge"><title>Node1&#45;&gt;Node2</title>
<path fill="none" stroke="midnightblue" d="M384.282,-160.631C399.331,-162.428 415.298,-164.334 430.678,-166.171"/>
<polygon fill="midnightblue" stroke="midnightblue" points="430.34,-169.655 440.685,-167.365 431.17,-162.704 430.34,-169.655"/>
</g>
<!-- Node3 -->
<g id="node4" class="node"><title>Node3</title>
<g id="a_node4"><a xlink:href="../../df/da4/classorg_1_1msrg_1_1raccoon_1_1matrix_1_1bulk_1_1BulkMatrix_a98b3c00a4eb4e1864c20182b3ae0e8ec.html#a98b3c00a4eb4e1864c20182b3ae0e8ec" target="_top" xlink:title="org.msrg.raccoon.matrix.bulk.\lBulkMatrix.getSliceCount">
<polygon fill="none" stroke="black" points="441,-112 441,-142 587,-142 587,-112 441,-112"/>
<text text-anchor="start" x="449" y="-130" font-family="Helvetica,sans-Serif" font-size="10.00">org.msrg.raccoon.matrix.bulk.</text>
<text text-anchor="middle" x="514" y="-119" font-family="Helvetica,sans-Serif" font-size="10.00">BulkMatrix.getSliceCount</text>
</a>
</g>
</g>
<!-- Node1&#45;&gt;Node3 -->
<g id="edge3" class="edge"><title>Node1&#45;&gt;Node3</title>
<path fill="none" stroke="midnightblue" d="M384.282,-143.01C399.331,-141.138 415.298,-139.152 430.678,-137.239"/>
<polygon fill="midnightblue" stroke="midnightblue" points="431.193,-140.702 440.685,-135.994 430.329,-133.756 431.193,-140.702"/>
</g>
</g>
</svg>
