<?xml version="1.0" encoding="UTF-8" standalone="no"?>
<!DOCTYPE svg PUBLIC "-//W3C//DTD SVG 1.1//EN"
 "http://www.w3.org/Graphics/SVG/1.1/DTD/svg11.dtd">
<!-- Generated by graphviz version 2.38.0 (20140413.2041)
 -->
<!-- Title: org.msrg.raccoon.CodedBatchTest Pages: 1 -->
<svg width="177pt" height="226pt"
 viewBox="0.00 0.00 177.00 226.00" xmlns="http://www.w3.org/2000/svg" xmlns:xlink="http://www.w3.org/1999/xlink">
<g id="graph0" class="graph" transform="scale(1 1) rotate(0) translate(4 222)">
<title>org.msrg.raccoon.CodedBatchTest</title>
<!-- Node0 -->
<g id="node1" class="node"><title>Node0</title>
<polygon fill="#bfbfbf" stroke="black" points="-1.42109e-14,-0.5 -1.42109e-14,-123.5 169,-123.5 169,-0.5 -1.42109e-14,-0.5"/>
<text text-anchor="middle" x="84.5" y="-111.5" font-family="Helvetica,sans-Serif" font-size="10.00">org.msrg.raccoon.CodedBatchTest</text>
<polyline fill="none" stroke="black" points="-1.42109e-14,-104.5 169,-104.5 "/>
<text text-anchor="start" x="8" y="-92.5" font-family="Helvetica,sans-Serif" font-size="10.00">&#45; _contentSize</text>
<text text-anchor="start" x="8" y="-81.5" font-family="Helvetica,sans-Serif" font-size="10.00">&#45; _content</text>
<text text-anchor="start" x="8" y="-70.5" font-family="Helvetica,sans-Serif" font-size="10.00">&#45; _sourceCodedBatch</text>
<text text-anchor="start" x="8" y="-59.5" font-family="Helvetica,sans-Serif" font-size="10.00">&#45; _receivedCodedBatch</text>
<polyline fill="none" stroke="black" points="-1.42109e-14,-52.5 169,-52.5 "/>
<text text-anchor="start" x="8" y="-40.5" font-family="Helvetica,sans-Serif" font-size="10.00">+ setUp()</text>
<text text-anchor="start" x="8" y="-29.5" font-family="Helvetica,sans-Serif" font-size="10.00">+ testSourceCodedBatch()</text>
<text text-anchor="start" x="8" y="-18.5" font-family="Helvetica,sans-Serif" font-size="10.00">+ testReceivedCodedBatch()</text>
<text text-anchor="start" x="8" y="-7.5" font-family="Helvetica,sans-Serif" font-size="10.00">~ [static initializer]()</text>
</g>
<!-- Node1 -->
<g id="node2" class="node"><title>Node1</title>
<polygon fill="none" stroke="#bfbfbf" points="55,-160.5 55,-217.5 114,-217.5 114,-160.5 55,-160.5"/>
<text text-anchor="middle" x="84.5" y="-205.5" font-family="Helvetica,sans-Serif" font-size="10.00">TestCase</text>
<polyline fill="none" stroke="#bfbfbf" points="55,-198.5 114,-198.5 "/>
<text text-anchor="middle" x="84.5" y="-186.5" font-family="Helvetica,sans-Serif" font-size="10.00"> </text>
<polyline fill="none" stroke="#bfbfbf" points="55,-179.5 114,-179.5 "/>
<text text-anchor="middle" x="84.5" y="-167.5" font-family="Helvetica,sans-Serif" font-size="10.00"> </text>
</g>
<!-- Node1&#45;&gt;Node0 -->
<g id="edge1" class="edge"><title>Node1&#45;&gt;Node0</title>
<path fill="none" stroke="midnightblue" d="M84.5,-150.099C84.5,-141.739 84.5,-132.68 84.5,-123.672"/>
<polygon fill="none" stroke="midnightblue" points="81.0001,-150.258 84.5,-160.258 88.0001,-150.258 81.0001,-150.258"/>
</g>
</g>
</svg>
