<?xml version="1.0" encoding="UTF-8" standalone="no"?>
<!DOCTYPE svg PUBLIC "-//W3C//DTD SVG 1.1//EN"
 "http://www.w3.org/Graphics/SVG/1.1/DTD/svg11.dtd">
<!-- Generated by graphviz version 2.38.0 (20140413.2041)
 -->
<!-- Title: org.msrg.raccoon.matrix.finitefields.FFByteMatrix.multiply2 Pages: 1 -->
<svg width="808pt" height="88pt"
 viewBox="0.00 0.00 808.00 88.00" xmlns="http://www.w3.org/2000/svg" xmlns:xlink="http://www.w3.org/1999/xlink">
<g id="graph0" class="graph" transform="scale(1 1) rotate(0) translate(4 84)">
<title>org.msrg.raccoon.matrix.finitefields.FFByteMatrix.multiply2</title>
<!-- Node0 -->
<g id="node1" class="node"><title>Node0</title>
<polygon fill="#bfbfbf" stroke="black" points="0,-24.5 0,-54.5 173,-54.5 173,-24.5 0,-24.5"/>
<text text-anchor="start" x="8" y="-42.5" font-family="Helvetica,sans-Serif" font-size="10.00">org.msrg.raccoon.matrix.finitefields.</text>
<text text-anchor="middle" x="86.5" y="-31.5" font-family="Helvetica,sans-Serif" font-size="10.00">FFByteMatrix.multiply2</text>
</g>
<!-- Node1 -->
<g id="node2" class="node"><title>Node1</title>
<g id="a_node2"><a xlink:href="../../db/d3f/classorg_1_1msrg_1_1raccoon_1_1matrix_1_1TypedMatrix_af7ccc065eb74dab0bd851c7d59f2eb2a.html#af7ccc065eb74dab0bd851c7d59f2eb2a" target="_top" xlink:title="org.msrg.raccoon.matrix.\lTypedMatrix.getColumnSize">
<polygon fill="none" stroke="black" points="225.5,-49.5 225.5,-79.5 365.5,-79.5 365.5,-49.5 225.5,-49.5"/>
<text text-anchor="start" x="233.5" y="-67.5" font-family="Helvetica,sans-Serif" font-size="10.00">org.msrg.raccoon.matrix.</text>
<text text-anchor="middle" x="295.5" y="-56.5" font-family="Helvetica,sans-Serif" font-size="10.00">TypedMatrix.getColumnSize</text>
</a>
</g>
</g>
<!-- Node0&#45;&gt;Node1 -->
<g id="edge1" class="edge"><title>Node0&#45;&gt;Node1</title>
<path fill="none" stroke="midnightblue" d="M173.189,-49.8489C187.016,-51.5188 201.28,-53.2415 214.953,-54.8929"/>
<polygon fill="midnightblue" stroke="midnightblue" points="214.93,-58.4154 225.277,-56.1398 215.769,-51.4659 214.93,-58.4154"/>
</g>
<!-- Node2 -->
<g id="node3" class="node"><title>Node2</title>
<g id="a_node3"><a xlink:href="../../de/d17/classorg_1_1msrg_1_1raccoon_1_1matrix_1_1finitefields_1_1FFByteMatrix_a4da61cb8d5757b2cee0e67975dad432f.html#a4da61cb8d5757b2cee0e67975dad432f" target="_top" xlink:title="org.msrg.raccoon.matrix.finitefields.\lFFByteMatrix.getZeroMatrix">
<polygon fill="none" stroke="black" points="209,-0.5 209,-30.5 382,-30.5 382,-0.5 209,-0.5"/>
<text text-anchor="start" x="217" y="-18.5" font-family="Helvetica,sans-Serif" font-size="10.00">org.msrg.raccoon.matrix.finitefields.</text>
<text text-anchor="middle" x="295.5" y="-7.5" font-family="Helvetica,sans-Serif" font-size="10.00">FFByteMatrix.getZeroMatrix</text>
</a>
</g>
</g>
<!-- Node0&#45;&gt;Node2 -->
<g id="edge2" class="edge"><title>Node0&#45;&gt;Node2</title>
<path fill="none" stroke="midnightblue" d="M173.189,-29.565C181.663,-28.5826 190.301,-27.581 198.867,-26.5879"/>
<polygon fill="midnightblue" stroke="midnightblue" points="199.345,-30.056 208.875,-25.4275 198.539,-23.1026 199.345,-30.056"/>
</g>
<!-- Node3 -->
<g id="node4" class="node"><title>Node3</title>
<g id="a_node4"><a xlink:href="../../de/d17/classorg_1_1msrg_1_1raccoon_1_1matrix_1_1finitefields_1_1FFByteMatrix_a74fec4736961bf7a7fc542e6db4ba471.html#a74fec4736961bf7a7fc542e6db4ba471" target="_top" xlink:title="org.msrg.raccoon.matrix.finitefields.\lFFByteMatrix.FFByteMatrix">
<polygon fill="none" stroke="black" points="418,-0.5 418,-30.5 591,-30.5 591,-0.5 418,-0.5"/>
<text text-anchor="start" x="426" y="-18.5" font-family="Helvetica,sans-Serif" font-size="10.00">org.msrg.raccoon.matrix.finitefields.</text>
<text text-anchor="middle" x="504.5" y="-7.5" font-family="Helvetica,sans-Serif" font-size="10.00">FFByteMatrix.FFByteMatrix</text>
</a>
</g>
</g>
<!-- Node2&#45;&gt;Node3 -->
<g id="edge3" class="edge"><title>Node2&#45;&gt;Node3</title>
<path fill="none" stroke="midnightblue" d="M382.189,-15.5C390.663,-15.5 399.301,-15.5 407.867,-15.5"/>
<polygon fill="midnightblue" stroke="midnightblue" points="407.875,-19.0001 417.875,-15.5 407.875,-12.0001 407.875,-19.0001"/>
</g>
<!-- Node4 -->
<g id="node5" class="node"><title>Node4</title>
<g id="a_node5"><a xlink:href="../../de/d17/classorg_1_1msrg_1_1raccoon_1_1matrix_1_1finitefields_1_1FFByteMatrix_acc3fe051b40979d0a2da7a61cc4489d1.html#acc3fe051b40979d0a2da7a61cc4489d1" target="_top" xlink:title="org.msrg.raccoon.matrix.finitefields.\lFFByteMatrix.makeZero2d">
<polygon fill="none" stroke="black" points="627,-0.5 627,-30.5 800,-30.5 800,-0.5 627,-0.5"/>
<text text-anchor="start" x="635" y="-18.5" font-family="Helvetica,sans-Serif" font-size="10.00">org.msrg.raccoon.matrix.finitefields.</text>
<text text-anchor="middle" x="713.5" y="-7.5" font-family="Helvetica,sans-Serif" font-size="10.00">FFByteMatrix.makeZero2d</text>
</a>
</g>
</g>
<!-- Node3&#45;&gt;Node4 -->
<g id="edge4" class="edge"><title>Node3&#45;&gt;Node4</title>
<path fill="none" stroke="midnightblue" d="M591.189,-15.5C599.663,-15.5 608.301,-15.5 616.867,-15.5"/>
<polygon fill="midnightblue" stroke="midnightblue" points="616.875,-19.0001 626.875,-15.5 616.875,-12.0001 616.875,-19.0001"/>
</g>
</g>
</svg>
