<?xml version="1.0" encoding="UTF-8" standalone="no"?>
<!DOCTYPE svg PUBLIC "-//W3C//DTD SVG 1.1//EN"
 "http://www.w3.org/Graphics/SVG/1.1/DTD/svg11.dtd">
<!-- Generated by graphviz version 2.38.0 (20140413.2041)
 -->
<!-- Title: org.msrg.raccoon.matrix.finitefields.FFByteMatrix.multiplyAndAddInPlace Pages: 1 -->
<svg width="576pt" height="39pt"
 viewBox="0.00 0.00 576.00 39.00" xmlns="http://www.w3.org/2000/svg" xmlns:xlink="http://www.w3.org/1999/xlink">
<g id="graph0" class="graph" transform="scale(1 1) rotate(0) translate(4 35)">
<title>org.msrg.raccoon.matrix.finitefields.FFByteMatrix.multiplyAndAddInPlace</title>
<!-- Node1 -->
<g id="node1" class="node"><title>Node1</title>
<polygon fill="#bfbfbf" stroke="black" points="0,-0.5 0,-30.5 180,-30.5 180,-0.5 0,-0.5"/>
<text text-anchor="start" x="8" y="-18.5" font-family="Helvetica,sans-Serif" font-size="10.00">org.msrg.raccoon.matrix.finitefields.</text>
<text text-anchor="middle" x="90" y="-7.5" font-family="Helvetica,sans-Serif" font-size="10.00">FFByteMatrix.multiplyAndAddInPlace</text>
</g>
<!-- Node2 -->
<g id="node2" class="node"><title>Node2</title>
<g id="a_node2"><a xlink:href="../../de/d17/classorg_1_1msrg_1_1raccoon_1_1matrix_1_1finitefields_1_1FFByteMatrix_a486c7b8600578fcd9816671318051e8e.html#a486c7b8600578fcd9816671318051e8e" target="_top" xlink:title="org.msrg.raccoon.matrix.finitefields.\lFFByteMatrix.multiply">
<polygon fill="none" stroke="black" points="216,-0.5 216,-30.5 389,-30.5 389,-0.5 216,-0.5"/>
<text text-anchor="start" x="224" y="-18.5" font-family="Helvetica,sans-Serif" font-size="10.00">org.msrg.raccoon.matrix.finitefields.</text>
<text text-anchor="middle" x="302.5" y="-7.5" font-family="Helvetica,sans-Serif" font-size="10.00">FFByteMatrix.multiply</text>
</a>
</g>
</g>
<!-- Node1&#45;&gt;Node2 -->
<g id="edge1" class="edge"><title>Node1&#45;&gt;Node2</title>
<path fill="none" stroke="midnightblue" d="M180.271,-15.5C188.636,-15.5 197.138,-15.5 205.561,-15.5"/>
<polygon fill="midnightblue" stroke="midnightblue" points="205.78,-19.0001 215.78,-15.5 205.78,-12.0001 205.78,-19.0001"/>
</g>
<!-- Node3 -->
<g id="node3" class="node"><title>Node3</title>
<g id="a_node3"><a xlink:href="../../d6/d93/classorg_1_1msrg_1_1raccoon_1_1finitefields_1_1Tables_a4960f7eaa4376a3915382787ac630f7d.html#a4960f7eaa4376a3915382787ac630f7d" target="_top" xlink:title="org.msrg.raccoon.finitefields.\lTables.FFMulFast">
<polygon fill="none" stroke="black" points="425,-0.5 425,-30.5 568,-30.5 568,-0.5 425,-0.5"/>
<text text-anchor="start" x="433" y="-18.5" font-family="Helvetica,sans-Serif" font-size="10.00">org.msrg.raccoon.finitefields.</text>
<text text-anchor="middle" x="496.5" y="-7.5" font-family="Helvetica,sans-Serif" font-size="10.00">Tables.FFMulFast</text>
</a>
</g>
</g>
<!-- Node2&#45;&gt;Node3 -->
<g id="edge2" class="edge"><title>Node2&#45;&gt;Node3</title>
<path fill="none" stroke="midnightblue" d="M389.112,-15.5C397.572,-15.5 406.141,-15.5 414.552,-15.5"/>
<polygon fill="midnightblue" stroke="midnightblue" points="414.715,-19.0001 424.715,-15.5 414.715,-12.0001 414.715,-19.0001"/>
</g>
</g>
</svg>
