<?xml version="1.0" encoding="UTF-8" standalone="no"?>
<!DOCTYPE svg PUBLIC "-//W3C//DTD SVG 1.1//EN"
 "http://www.w3.org/Graphics/SVG/1.1/DTD/svg11.dtd">
<!-- Generated by graphviz version 2.38.0 (20140413.2041)
 -->
<!-- Title: org.msrg.raccoon.matrix.finitefields.FFByteMatrix.cloneExtended Pages: 1 -->
<svg width="808pt" height="313pt"
 viewBox="0.00 0.00 808.00 313.00" xmlns="http://www.w3.org/2000/svg" xmlns:xlink="http://www.w3.org/1999/xlink">
<g id="graph0" class="graph" transform="scale(1 1) rotate(0) translate(4 309)">
<title>org.msrg.raccoon.matrix.finitefields.FFByteMatrix.cloneExtended</title>
<!-- Node0 -->
<g id="node1" class="node"><title>Node0</title>
<polygon fill="#bfbfbf" stroke="black" points="0,-142.5 0,-172.5 173,-172.5 173,-142.5 0,-142.5"/>
<text text-anchor="start" x="8" y="-160.5" font-family="Helvetica,sans-Serif" font-size="10.00">org.msrg.raccoon.matrix.finitefields.</text>
<text text-anchor="middle" x="86.5" y="-149.5" font-family="Helvetica,sans-Serif" font-size="10.00">FFByteMatrix.cloneExtended</text>
</g>
<!-- Node1 -->
<g id="node2" class="node"><title>Node1</title>
<g id="a_node2"><a xlink:href="../../de/d17/classorg_1_1msrg_1_1raccoon_1_1matrix_1_1finitefields_1_1FFByteMatrix_a816ad2e99b9c0076470c72f6e3056d57.html#a816ad2e99b9c0076470c72f6e3056d57" target="_top" xlink:title="org.msrg.raccoon.matrix.finitefields.\lFFByteMatrix.clone">
<polygon fill="none" stroke="black" points="209,-186.5 209,-216.5 382,-216.5 382,-186.5 209,-186.5"/>
<text text-anchor="start" x="217" y="-204.5" font-family="Helvetica,sans-Serif" font-size="10.00">org.msrg.raccoon.matrix.finitefields.</text>
<text text-anchor="middle" x="295.5" y="-193.5" font-family="Helvetica,sans-Serif" font-size="10.00">FFByteMatrix.clone</text>
</a>
</g>
</g>
<!-- Node0&#45;&gt;Node1 -->
<g id="edge1" class="edge"><title>Node0&#45;&gt;Node1</title>
<path fill="none" stroke="midnightblue" d="M158.159,-172.519C176.128,-176.339 195.571,-180.472 213.991,-184.387"/>
<polygon fill="midnightblue" stroke="midnightblue" points="213.299,-187.818 223.809,-186.474 214.755,-180.971 213.299,-187.818"/>
</g>
<!-- Node4 -->
<g id="node5" class="node"><title>Node4</title>
<g id="a_node5"><a xlink:href="../../db/d3f/classorg_1_1msrg_1_1raccoon_1_1matrix_1_1TypedMatrix_af7ccc065eb74dab0bd851c7d59f2eb2a.html#af7ccc065eb74dab0bd851c7d59f2eb2a" target="_top" xlink:title="org.msrg.raccoon.matrix.\lTypedMatrix.getColumnSize">
<polygon fill="none" stroke="black" points="434.5,-216.5 434.5,-246.5 574.5,-246.5 574.5,-216.5 434.5,-216.5"/>
<text text-anchor="start" x="442.5" y="-234.5" font-family="Helvetica,sans-Serif" font-size="10.00">org.msrg.raccoon.matrix.</text>
<text text-anchor="middle" x="504.5" y="-223.5" font-family="Helvetica,sans-Serif" font-size="10.00">TypedMatrix.getColumnSize</text>
</a>
</g>
</g>
<!-- Node0&#45;&gt;Node4 -->
<g id="edge8" class="edge"><title>Node0&#45;&gt;Node4</title>
<path fill="none" stroke="midnightblue" d="M106.765,-172.547C129.647,-189.399 169.688,-215.758 209,-226.5 279.878,-245.867 363.969,-245.068 424.111,-240.64"/>
<polygon fill="midnightblue" stroke="midnightblue" points="424.607,-244.112 434.302,-239.838 424.058,-237.134 424.607,-244.112"/>
</g>
<!-- Node5 -->
<g id="node6" class="node"><title>Node5</title>
<g id="a_node6"><a xlink:href="../../db/d3f/classorg_1_1msrg_1_1raccoon_1_1matrix_1_1TypedMatrix_aba5684317273db23da9933dd1acdc94c.html#aba5684317273db23da9933dd1acdc94c" target="_top" xlink:title="org.msrg.raccoon.matrix.\lTypedMatrix.getRowSize">
<polygon fill="none" stroke="black" points="441,-159.5 441,-189.5 568,-189.5 568,-159.5 441,-159.5"/>
<text text-anchor="start" x="449" y="-177.5" font-family="Helvetica,sans-Serif" font-size="10.00">org.msrg.raccoon.matrix.</text>
<text text-anchor="middle" x="504.5" y="-166.5" font-family="Helvetica,sans-Serif" font-size="10.00">TypedMatrix.getRowSize</text>
</a>
</g>
</g>
<!-- Node0&#45;&gt;Node5 -->
<g id="edge11" class="edge"><title>Node0&#45;&gt;Node5</title>
<path fill="none" stroke="midnightblue" d="M173.191,-161.002C249.135,-164.105 358.818,-168.588 430.624,-171.522"/>
<polygon fill="midnightblue" stroke="midnightblue" points="430.8,-175.032 440.935,-171.943 431.086,-168.038 430.8,-175.032"/>
</g>
<!-- Node6 -->
<g id="node7" class="node"><title>Node6</title>
<g id="a_node7"><a xlink:href="../../de/d17/classorg_1_1msrg_1_1raccoon_1_1matrix_1_1finitefields_1_1FFByteMatrix_aed115c93940976f424b2003258994ff0.html#aed115c93940976f424b2003258994ff0" target="_top" xlink:title="org.msrg.raccoon.matrix.finitefields.\lFFByteMatrix.createNewMatrix">
<polygon fill="none" stroke="black" points="209,-274.5 209,-304.5 382,-304.5 382,-274.5 209,-274.5"/>
<text text-anchor="start" x="217" y="-292.5" font-family="Helvetica,sans-Serif" font-size="10.00">org.msrg.raccoon.matrix.finitefields.</text>
<text text-anchor="middle" x="295.5" y="-281.5" font-family="Helvetica,sans-Serif" font-size="10.00">FFByteMatrix.createNewMatrix</text>
</a>
</g>
</g>
<!-- Node0&#45;&gt;Node6 -->
<g id="edge6" class="edge"><title>Node0&#45;&gt;Node6</title>
<path fill="none" stroke="midnightblue" d="M101.878,-172.642C123.358,-194.5 165.927,-234.957 209,-259.5 216.368,-263.698 224.424,-267.459 232.552,-270.779"/>
<polygon fill="midnightblue" stroke="midnightblue" points="231.5,-274.125 242.089,-274.476 234.029,-267.598 231.5,-274.125"/>
</g>
<!-- Node7 -->
<g id="node8" class="node"><title>Node7</title>
<g id="a_node8"><a xlink:href="../../de/d17/classorg_1_1msrg_1_1raccoon_1_1matrix_1_1finitefields_1_1FFByteMatrix_a2939182ceca33d15bfe6144bb844c997.html#a2939182ceca33d15bfe6144bb844c997" target="_top" xlink:title="org.msrg.raccoon.matrix.finitefields.\lFFByteMatrix.getEmptyArray">
<polygon fill="none" stroke="black" points="209,-98.5 209,-128.5 382,-128.5 382,-98.5 209,-98.5"/>
<text text-anchor="start" x="217" y="-116.5" font-family="Helvetica,sans-Serif" font-size="10.00">org.msrg.raccoon.matrix.finitefields.</text>
<text text-anchor="middle" x="295.5" y="-105.5" font-family="Helvetica,sans-Serif" font-size="10.00">FFByteMatrix.getEmptyArray</text>
</a>
</g>
</g>
<!-- Node0&#45;&gt;Node7 -->
<g id="edge9" class="edge"><title>Node0&#45;&gt;Node7</title>
<path fill="none" stroke="midnightblue" d="M158.159,-142.481C176.128,-138.661 195.571,-134.528 213.991,-130.613"/>
<polygon fill="midnightblue" stroke="midnightblue" points="214.755,-134.029 223.809,-128.526 213.299,-127.182 214.755,-134.029"/>
</g>
<!-- Node8 -->
<g id="node9" class="node"><title>Node8</title>
<g id="a_node9"><a xlink:href="../../de/d17/classorg_1_1msrg_1_1raccoon_1_1matrix_1_1finitefields_1_1FFByteMatrix_aba33e809501aa88c748fcb92ab12ef92.html#aba33e809501aa88c748fcb92ab12ef92" target="_top" xlink:title="org.msrg.raccoon.matrix.finitefields.\lFFByteMatrix.getOne">
<polygon fill="none" stroke="black" points="209,-49.5 209,-79.5 382,-79.5 382,-49.5 209,-49.5"/>
<text text-anchor="start" x="217" y="-67.5" font-family="Helvetica,sans-Serif" font-size="10.00">org.msrg.raccoon.matrix.finitefields.</text>
<text text-anchor="middle" x="295.5" y="-56.5" font-family="Helvetica,sans-Serif" font-size="10.00">FFByteMatrix.getOne</text>
</a>
</g>
</g>
<!-- Node0&#45;&gt;Node8 -->
<g id="edge10" class="edge"><title>Node0&#45;&gt;Node8</title>
<path fill="none" stroke="midnightblue" d="M110.898,-142.299C134.792,-127.288 173.337,-104.467 209,-89.5 214.709,-87.1042 220.723,-84.8464 226.807,-82.742"/>
<polygon fill="midnightblue" stroke="midnightblue" points="228.002,-86.0333 236.392,-79.5636 225.798,-79.3891 228.002,-86.0333"/>
</g>
<!-- Node9 -->
<g id="node10" class="node"><title>Node9</title>
<g id="a_node10"><a xlink:href="../../de/d17/classorg_1_1msrg_1_1raccoon_1_1matrix_1_1finitefields_1_1FFByteMatrix_ad7b2882bd5d83eff6b210249dd1a2299.html#ad7b2882bd5d83eff6b210249dd1a2299" target="_top" xlink:title="org.msrg.raccoon.matrix.finitefields.\lFFByteMatrix.getZero">
<polygon fill="none" stroke="black" points="209,-0.5 209,-30.5 382,-30.5 382,-0.5 209,-0.5"/>
<text text-anchor="start" x="217" y="-18.5" font-family="Helvetica,sans-Serif" font-size="10.00">org.msrg.raccoon.matrix.finitefields.</text>
<text text-anchor="middle" x="295.5" y="-7.5" font-family="Helvetica,sans-Serif" font-size="10.00">FFByteMatrix.getZero</text>
</a>
</g>
</g>
<!-- Node0&#45;&gt;Node9 -->
<g id="edge12" class="edge"><title>Node0&#45;&gt;Node9</title>
<path fill="none" stroke="midnightblue" d="M98.8352,-142.382C118.479,-117.248 161.343,-66.9277 209,-39.5 212.032,-37.7553 215.197,-36.1313 218.45,-34.6203"/>
<polygon fill="midnightblue" stroke="midnightblue" points="219.964,-37.78 227.805,-30.6551 217.232,-31.335 219.964,-37.78"/>
</g>
<!-- Node2 -->
<g id="node3" class="node"><title>Node2</title>
<g id="a_node3"><a xlink:href="../../de/d17/classorg_1_1msrg_1_1raccoon_1_1matrix_1_1finitefields_1_1FFByteMatrix_a74fec4736961bf7a7fc542e6db4ba471.html#a74fec4736961bf7a7fc542e6db4ba471" target="_top" xlink:title="org.msrg.raccoon.matrix.finitefields.\lFFByteMatrix.FFByteMatrix">
<polygon fill="none" stroke="black" points="418,-269.5 418,-299.5 591,-299.5 591,-269.5 418,-269.5"/>
<text text-anchor="start" x="426" y="-287.5" font-family="Helvetica,sans-Serif" font-size="10.00">org.msrg.raccoon.matrix.finitefields.</text>
<text text-anchor="middle" x="504.5" y="-276.5" font-family="Helvetica,sans-Serif" font-size="10.00">FFByteMatrix.FFByteMatrix</text>
</a>
</g>
</g>
<!-- Node1&#45;&gt;Node2 -->
<g id="edge2" class="edge"><title>Node1&#45;&gt;Node2</title>
<path fill="none" stroke="midnightblue" d="M327.318,-216.572C351.644,-228.195 386.6,-244.293 418,-256.5 426.553,-259.825 435.683,-263.099 444.675,-266.169"/>
<polygon fill="midnightblue" stroke="midnightblue" points="443.751,-269.551 454.345,-269.414 445.978,-262.914 443.751,-269.551"/>
</g>
<!-- Node1&#45;&gt;Node4 -->
<g id="edge4" class="edge"><title>Node1&#45;&gt;Node4</title>
<path fill="none" stroke="midnightblue" d="M382.189,-213.919C396.151,-215.942 410.559,-218.03 424.355,-220.03"/>
<polygon fill="midnightblue" stroke="midnightblue" points="423.879,-223.497 434.277,-221.468 424.883,-216.57 423.879,-223.497"/>
</g>
<!-- Node1&#45;&gt;Node5 -->
<g id="edge5" class="edge"><title>Node1&#45;&gt;Node5</title>
<path fill="none" stroke="midnightblue" d="M382.189,-190.323C398.338,-188.217 415.084,-186.033 430.789,-183.984"/>
<polygon fill="midnightblue" stroke="midnightblue" points="431.48,-187.424 440.943,-182.66 430.574,-180.482 431.48,-187.424"/>
</g>
<!-- Node3 -->
<g id="node4" class="node"><title>Node3</title>
<g id="a_node4"><a xlink:href="../../de/d17/classorg_1_1msrg_1_1raccoon_1_1matrix_1_1finitefields_1_1FFByteMatrix_acc3fe051b40979d0a2da7a61cc4489d1.html#acc3fe051b40979d0a2da7a61cc4489d1" target="_top" xlink:title="org.msrg.raccoon.matrix.finitefields.\lFFByteMatrix.makeZero2d">
<polygon fill="none" stroke="black" points="627,-269.5 627,-299.5 800,-299.5 800,-269.5 627,-269.5"/>
<text text-anchor="start" x="635" y="-287.5" font-family="Helvetica,sans-Serif" font-size="10.00">org.msrg.raccoon.matrix.finitefields.</text>
<text text-anchor="middle" x="713.5" y="-276.5" font-family="Helvetica,sans-Serif" font-size="10.00">FFByteMatrix.makeZero2d</text>
</a>
</g>
</g>
<!-- Node2&#45;&gt;Node3 -->
<g id="edge3" class="edge"><title>Node2&#45;&gt;Node3</title>
<path fill="none" stroke="midnightblue" d="M591.189,-284.5C599.663,-284.5 608.301,-284.5 616.867,-284.5"/>
<polygon fill="midnightblue" stroke="midnightblue" points="616.875,-288 626.875,-284.5 616.875,-281 616.875,-288"/>
</g>
<!-- Node6&#45;&gt;Node2 -->
<g id="edge7" class="edge"><title>Node6&#45;&gt;Node2</title>
<path fill="none" stroke="midnightblue" d="M382.189,-287.43C390.663,-287.226 399.301,-287.017 407.867,-286.81"/>
<polygon fill="midnightblue" stroke="midnightblue" points="407.963,-290.309 417.875,-286.568 407.794,-283.311 407.963,-290.309"/>
</g>
</g>
</svg>
