<?xml version="1.0" encoding="UTF-8" standalone="no"?>
<!DOCTYPE svg PUBLIC "-//W3C//DTD SVG 1.1//EN"
 "http://www.w3.org/Graphics/SVG/1.1/DTD/svg11.dtd">
<!-- Generated by graphviz version 2.38.0 (20140413.2041)
 -->
<!-- Title: org.msrg.raccoon.matrix.finitefields.FFByteMatrix.makeZero2d Pages: 1 -->
<!--zoomable 284 -->
<svg id="main" version="1.1" xmlns="http://www.w3.org/2000/svg" xmlns:xlink="http://www.w3.org/1999/xlink" xml:space="preserve" onload="init(evt)">
<style type="text/css"><![CDATA[
.edge:hover path { stroke: red; }
.edge:hover polygon { stroke: red; fill: red; }
]]></style>
<script type="text/javascript"><![CDATA[
var edges = document.getElementsByTagName('g');
if (edges && edges.length) {
  for (var i=0;i<edges.length;i++) {
    if (edges[i].id.substr(0,4)=='edge') {
      edges[i].setAttribute('class','edge');
    }
  }
}
]]></script>
        <defs>
                <circle id="rim" cx="0" cy="0" r="7"/>
                <circle id="rim2" cx="0" cy="0" r="3.5"/>
                <g id="zoomPlus">
                        <use xlink:href="#rim" fill="#404040">
                                <set attributeName="fill" to="#808080" begin="zoomplus.mouseover" end="zoomplus.mouseout"/>
                        </use>
                        <path d="M-4,0h8M0,-4v8" fill="none" stroke="white" stroke-width="1.5" pointer-events="none"/>
                </g>
                <g id="zoomMin">
                        <use xlink:href="#rim" fill="#404040">
                                <set attributeName="fill" to="#808080" begin="zoomminus.mouseover" end="zoomminus.mouseout"/>
                        </use>
                        <path d="M-4,0h8" fill="none" stroke="white" stroke-width="1.5" pointer-events="none"/>
                </g>
                <g id="dirArrow">
                        <path fill="none" stroke="white" stroke-width="1.5" d="M0,-3.0v7 M-2.5,-0.5L0,-3.0L2.5,-0.5"/>
                </g>
               <g id="resetDef">
                       <use xlink:href="#rim2" fill="#404040">
                               <set attributeName="fill" to="#808080" begin="reset.mouseover" end="reset.mouseout"/>
                       </use>
               </g>
        </defs>

<script type="text/javascript">
var viewWidth = 1118;
var viewHeight = 284;
var sectionId = 'dynsection-0';
</script>
<script xlink:href="../../svgpan.js"/>
<svg id="graph" class="graph">
<g id="viewport">
<title>org.msrg.raccoon.matrix.finitefields.FFByteMatrix.makeZero2d</title>
<!-- Node1 -->
<g id="node1" class="node"><title>Node1</title>
<polygon fill="#bfbfbf" stroke="black" points="0,-122.5 0,-152.5 173,-152.5 173,-122.5 0,-122.5"/>
<text text-anchor="start" x="8" y="-140.5" font-family="Helvetica,sans-Serif" font-size="10.00">org.msrg.raccoon.matrix.finitefields.</text>
<text text-anchor="middle" x="86.5" y="-129.5" font-family="Helvetica,sans-Serif" font-size="10.00">FFByteMatrix.makeZero2d</text>
</g>
<!-- Node2 -->
<g id="node2" class="node"><title>Node2</title>
<g id="a_node2"><a xlink:href="../../de/d17/classorg_1_1msrg_1_1raccoon_1_1matrix_1_1finitefields_1_1FFByteMatrix_a74fec4736961bf7a7fc542e6db4ba471.html#a74fec4736961bf7a7fc542e6db4ba471" target="_top" xlink:title="org.msrg.raccoon.matrix.finitefields.\lFFByteMatrix.FFByteMatrix">
<polygon fill="none" stroke="black" points="209,-122.5 209,-152.5 382,-152.5 382,-122.5 209,-122.5"/>
<text text-anchor="start" x="217" y="-140.5" font-family="Helvetica,sans-Serif" font-size="10.00">org.msrg.raccoon.matrix.finitefields.</text>
<text text-anchor="middle" x="295.5" y="-129.5" font-family="Helvetica,sans-Serif" font-size="10.00">FFByteMatrix.FFByteMatrix</text>
</a>
</g>
</g>
<!-- Node1&#45;&gt;Node2 -->
<g id="edge1" class="edge"><title>Node1&#45;&gt;Node2</title>
<path fill="none" stroke="midnightblue" d="M183.198,-137.5C191.764,-137.5 200.402,-137.5 208.875,-137.5"/>
<polygon fill="midnightblue" stroke="midnightblue" points="183.189,-134 173.189,-137.5 183.189,-141 183.189,-134"/>
</g>
<!-- Node3 -->
<g id="node3" class="node"><title>Node3</title>
<g id="a_node3"><a xlink:href="../../de/d17/classorg_1_1msrg_1_1raccoon_1_1matrix_1_1finitefields_1_1FFByteMatrix_a816ad2e99b9c0076470c72f6e3056d57.html#a816ad2e99b9c0076470c72f6e3056d57" target="_top" xlink:title="org.msrg.raccoon.matrix.finitefields.\lFFByteMatrix.clone">
<polygon fill="none" stroke="black" points="426.5,-245.5 426.5,-275.5 599.5,-275.5 599.5,-245.5 426.5,-245.5"/>
<text text-anchor="start" x="434.5" y="-263.5" font-family="Helvetica,sans-Serif" font-size="10.00">org.msrg.raccoon.matrix.finitefields.</text>
<text text-anchor="middle" x="513" y="-252.5" font-family="Helvetica,sans-Serif" font-size="10.00">FFByteMatrix.clone</text>
</a>
</g>
</g>
<!-- Node2&#45;&gt;Node3 -->
<g id="edge2" class="edge"><title>Node2&#45;&gt;Node3</title>
<path fill="none" stroke="midnightblue" d="M317.811,-159.834C340.571,-182.405 378.706,-216.696 418,-236.5 424.768,-239.911 432.062,-242.865 439.486,-245.416"/>
<polygon fill="midnightblue" stroke="midnightblue" points="320.23,-157.303 310.703,-152.667 315.26,-162.232 320.23,-157.303"/>
</g>
<!-- Node6 -->
<g id="node6" class="node"><title>Node6</title>
<g id="a_node6"><a xlink:href="../../de/d17/classorg_1_1msrg_1_1raccoon_1_1matrix_1_1finitefields_1_1FFByteMatrix_a1f37770436dcf9caf82a8c776395f312.html#a1f37770436dcf9caf82a8c776395f312" target="_top" xlink:title="org.msrg.raccoon.matrix.finitefields.\lFFByteMatrix.createMatrix">
<polygon fill="none" stroke="black" points="426.5,-147.5 426.5,-177.5 599.5,-177.5 599.5,-147.5 426.5,-147.5"/>
<text text-anchor="start" x="434.5" y="-165.5" font-family="Helvetica,sans-Serif" font-size="10.00">org.msrg.raccoon.matrix.finitefields.</text>
<text text-anchor="middle" x="513" y="-154.5" font-family="Helvetica,sans-Serif" font-size="10.00">FFByteMatrix.createMatrix</text>
</a>
</g>
</g>
<!-- Node2&#45;&gt;Node6 -->
<g id="edge5" class="edge"><title>Node2&#45;&gt;Node6</title>
<path fill="none" stroke="midnightblue" d="M392.518,-148.639C403.722,-149.939 415.098,-151.258 426.153,-152.541"/>
<polygon fill="midnightblue" stroke="midnightblue" points="392.627,-145.128 382.291,-147.452 391.821,-152.082 392.627,-145.128"/>
</g>
<!-- Node7 -->
<g id="node7" class="node"><title>Node7</title>
<g id="a_node7"><a xlink:href="../../de/d17/classorg_1_1msrg_1_1raccoon_1_1matrix_1_1finitefields_1_1FFByteMatrix_aed115c93940976f424b2003258994ff0.html#aed115c93940976f424b2003258994ff0" target="_top" xlink:title="org.msrg.raccoon.matrix.finitefields.\lFFByteMatrix.createNewMatrix">
<polygon fill="none" stroke="black" points="426.5,-196.5 426.5,-226.5 599.5,-226.5 599.5,-196.5 426.5,-196.5"/>
<text text-anchor="start" x="434.5" y="-214.5" font-family="Helvetica,sans-Serif" font-size="10.00">org.msrg.raccoon.matrix.finitefields.</text>
<text text-anchor="middle" x="513" y="-203.5" font-family="Helvetica,sans-Serif" font-size="10.00">FFByteMatrix.createNewMatrix</text>
</a>
</g>
</g>
<!-- Node2&#45;&gt;Node7 -->
<g id="edge6" class="edge"><title>Node2&#45;&gt;Node7</title>
<path fill="none" stroke="midnightblue" d="M338.725,-156.589C361.843,-166.603 391.169,-178.603 418,-187.5 427.672,-190.707 438.023,-193.739 448.191,-196.499"/>
<polygon fill="midnightblue" stroke="midnightblue" points="340.11,-153.375 329.546,-152.576 337.307,-159.789 340.11,-153.375"/>
</g>
<!-- Node8 -->
<g id="node8" class="node"><title>Node8</title>
<g id="a_node8"><a xlink:href="../../de/d17/classorg_1_1msrg_1_1raccoon_1_1matrix_1_1finitefields_1_1FFByteMatrix_a87f23a4e4b90bad777f271edb73f0aa4.html#a87f23a4e4b90bad777f271edb73f0aa4" target="_top" xlink:title="org.msrg.raccoon.matrix.finitefields.\lFFByteMatrix.createRandomByteMatrix">
<polygon fill="none" stroke="black" points="418,-98.5 418,-128.5 608,-128.5 608,-98.5 418,-98.5"/>
<text text-anchor="start" x="426" y="-116.5" font-family="Helvetica,sans-Serif" font-size="10.00">org.msrg.raccoon.matrix.finitefields.</text>
<text text-anchor="middle" x="513" y="-105.5" font-family="Helvetica,sans-Serif" font-size="10.00">FFByteMatrix.createRandomByteMatrix</text>
</a>
</g>
</g>
<!-- Node2&#45;&gt;Node8 -->
<g id="edge9" class="edge"><title>Node2&#45;&gt;Node8</title>
<path fill="none" stroke="midnightblue" d="M392.443,-126.815C400.816,-125.882 409.286,-124.939 417.646,-124.008"/>
<polygon fill="midnightblue" stroke="midnightblue" points="391.842,-123.36 382.291,-127.946 392.616,-130.317 391.842,-123.36"/>
</g>
<!-- Node12 -->
<g id="node12" class="node"><title>Node12</title>
<g id="a_node12"><a xlink:href="../../de/d17/classorg_1_1msrg_1_1raccoon_1_1matrix_1_1finitefields_1_1FFByteMatrix_a4da61cb8d5757b2cee0e67975dad432f.html#a4da61cb8d5757b2cee0e67975dad432f" target="_top" xlink:title="org.msrg.raccoon.matrix.finitefields.\lFFByteMatrix.getZeroMatrix">
<polygon fill="none" stroke="black" points="426.5,-49.5 426.5,-79.5 599.5,-79.5 599.5,-49.5 426.5,-49.5"/>
<text text-anchor="start" x="434.5" y="-67.5" font-family="Helvetica,sans-Serif" font-size="10.00">org.msrg.raccoon.matrix.finitefields.</text>
<text text-anchor="middle" x="513" y="-56.5" font-family="Helvetica,sans-Serif" font-size="10.00">FFByteMatrix.getZeroMatrix</text>
</a>
</g>
</g>
<!-- Node2&#45;&gt;Node12 -->
<g id="edge13" class="edge"><title>Node2&#45;&gt;Node12</title>
<path fill="none" stroke="midnightblue" d="M339.809,-118.396C362.772,-108.686 391.618,-97.1451 418,-88.5 427.683,-85.3269 438.04,-82.3132 448.21,-79.5607"/>
<polygon fill="midnightblue" stroke="midnightblue" points="338.176,-115.287 330.352,-122.431 340.924,-121.725 338.176,-115.287"/>
</g>
<!-- Node14 -->
<g id="node14" class="node"><title>Node14</title>
<g id="a_node14"><a xlink:href="../../dd/d36/classorg_1_1msrg_1_1raccoon_1_1matrix_1_1finitefields_1_1ByteMatrix_a25491e8ba3b3c3e18ec2392b7393bac3.html#a25491e8ba3b3c3e18ec2392b7393bac3" target="_top" xlink:title="org.msrg.raccoon.matrix.finitefields.\lByteMatrix.multiply">
<polygon fill="none" stroke="black" points="426.5,-0.5 426.5,-30.5 599.5,-30.5 599.5,-0.5 426.5,-0.5"/>
<text text-anchor="start" x="434.5" y="-18.5" font-family="Helvetica,sans-Serif" font-size="10.00">org.msrg.raccoon.matrix.finitefields.</text>
<text text-anchor="middle" x="513" y="-7.5" font-family="Helvetica,sans-Serif" font-size="10.00">ByteMatrix.multiply</text>
</a>
</g>
</g>
<!-- Node2&#45;&gt;Node14 -->
<g id="edge15" class="edge"><title>Node2&#45;&gt;Node14</title>
<path fill="none" stroke="midnightblue" d="M317.856,-115.401C340.651,-93.0652 378.815,-59.1276 418,-39.5 424.777,-36.1056 432.076,-33.1629 439.503,-30.6181"/>
<polygon fill="midnightblue" stroke="midnightblue" points="315.35,-112.956 310.735,-122.493 320.29,-117.916 315.35,-112.956"/>
</g>
<!-- Node4 -->
<g id="node4" class="node"><title>Node4</title>
<g id="a_node4"><a xlink:href="../../de/d17/classorg_1_1msrg_1_1raccoon_1_1matrix_1_1finitefields_1_1FFByteMatrix_a24f33e9d6ecdd54e19682bdcfd5fc8d4.html#a24f33e9d6ecdd54e19682bdcfd5fc8d4" target="_top" xlink:title="org.msrg.raccoon.matrix.finitefields.\lFFByteMatrix.cloneExtended">
<polygon fill="none" stroke="black" points="668,-196.5 668,-226.5 841,-226.5 841,-196.5 668,-196.5"/>
<text text-anchor="start" x="676" y="-214.5" font-family="Helvetica,sans-Serif" font-size="10.00">org.msrg.raccoon.matrix.finitefields.</text>
<text text-anchor="middle" x="754.5" y="-203.5" font-family="Helvetica,sans-Serif" font-size="10.00">FFByteMatrix.cloneExtended</text>
</a>
</g>
</g>
<!-- Node3&#45;&gt;Node4 -->
<g id="edge3" class="edge"><title>Node3&#45;&gt;Node4</title>
<path fill="none" stroke="midnightblue" d="M597.287,-243.46C624.259,-237.942 653.958,-231.866 680.153,-226.506"/>
<polygon fill="midnightblue" stroke="midnightblue" points="596.581,-240.032 587.486,-245.465 597.984,-246.89 596.581,-240.032"/>
</g>
<!-- Node5 -->
<g id="node5" class="node"><title>Node5</title>
<g id="a_node5"><a xlink:href="../../de/d17/classorg_1_1msrg_1_1raccoon_1_1matrix_1_1finitefields_1_1FFByteMatrix_a7aa95ca8ee24659a4f34b343ff6e68ba.html#a7aa95ca8ee24659a4f34b343ff6e68ba" target="_top" xlink:title="org.msrg.raccoon.matrix.finitefields.\lFFByteMatrix.decloneExtended">
<polygon fill="none" stroke="black" points="668,-245.5 668,-275.5 841,-275.5 841,-245.5 668,-245.5"/>
<text text-anchor="start" x="676" y="-263.5" font-family="Helvetica,sans-Serif" font-size="10.00">org.msrg.raccoon.matrix.finitefields.</text>
<text text-anchor="middle" x="754.5" y="-252.5" font-family="Helvetica,sans-Serif" font-size="10.00">FFByteMatrix.decloneExtended</text>
</a>
</g>
</g>
<!-- Node3&#45;&gt;Node5 -->
<g id="edge4" class="edge"><title>Node3&#45;&gt;Node5</title>
<path fill="none" stroke="midnightblue" d="M610.016,-260.5C629.158,-260.5 649.144,-260.5 667.908,-260.5"/>
<polygon fill="midnightblue" stroke="midnightblue" points="609.789,-257 599.789,-260.5 609.788,-264 609.789,-257"/>
</g>
<!-- Node7&#45;&gt;Node4 -->
<g id="edge7" class="edge"><title>Node7&#45;&gt;Node4</title>
<path fill="none" stroke="midnightblue" d="M610.016,-211.5C629.158,-211.5 649.144,-211.5 667.908,-211.5"/>
<polygon fill="midnightblue" stroke="midnightblue" points="609.789,-208 599.789,-211.5 609.788,-215 609.789,-208"/>
</g>
<!-- Node7&#45;&gt;Node5 -->
<g id="edge8" class="edge"><title>Node7&#45;&gt;Node5</title>
<path fill="none" stroke="midnightblue" d="M597.287,-228.54C624.259,-234.058 653.958,-240.134 680.153,-245.494"/>
<polygon fill="midnightblue" stroke="midnightblue" points="597.984,-225.11 587.486,-226.535 596.581,-231.968 597.984,-225.11"/>
</g>
<!-- Node9 -->
<g id="node9" class="node"><title>Node9</title>
<g id="a_node9"><a xlink:href="../../de/d17/classorg_1_1msrg_1_1raccoon_1_1matrix_1_1finitefields_1_1FFByteMatrix_aa021f3b8c4acdaf1ea73248dc1356e55.html#aa021f3b8c4acdaf1ea73248dc1356e55" target="_top" xlink:title="org.msrg.raccoon.matrix.finitefields.\lFFByteMatrix.createRandomSquareByteMatrix">
<polygon fill="none" stroke="black" points="644,-98.5 644,-128.5 865,-128.5 865,-98.5 644,-98.5"/>
<text text-anchor="start" x="652" y="-116.5" font-family="Helvetica,sans-Serif" font-size="10.00">org.msrg.raccoon.matrix.finitefields.</text>
<text text-anchor="middle" x="754.5" y="-105.5" font-family="Helvetica,sans-Serif" font-size="10.00">FFByteMatrix.createRandomSquareByteMatrix</text>
</a>
</g>
</g>
<!-- Node8&#45;&gt;Node9 -->
<g id="edge10" class="edge"><title>Node8&#45;&gt;Node9</title>
<path fill="none" stroke="midnightblue" d="M618.489,-113.5C626.882,-113.5 635.377,-113.5 643.805,-113.5"/>
<polygon fill="midnightblue" stroke="midnightblue" points="618.313,-110 608.313,-113.5 618.313,-117 618.313,-110"/>
</g>
<!-- Node11 -->
<g id="node11" class="node"><title>Node11</title>
<g id="a_node11"><a xlink:href="../../d3/dbf/classorg_1_1msrg_1_1raccoon_1_1matrix_1_1finitefields_1_1FFByteMatrixTest_a8d0d9f8aa3c271bf44839894d8038c7c.html#a8d0d9f8aa3c271bf44839894d8038c7c" target="_top" xlink:title="org.msrg.raccoon.matrix.finitefields.\lFFByteMatrixTest.testM2timesInvIsM">
<polygon fill="none" stroke="black" points="663.5,-147.5 663.5,-177.5 845.5,-177.5 845.5,-147.5 663.5,-147.5"/>
<text text-anchor="start" x="671.5" y="-165.5" font-family="Helvetica,sans-Serif" font-size="10.00">org.msrg.raccoon.matrix.finitefields.</text>
<text text-anchor="middle" x="754.5" y="-154.5" font-family="Helvetica,sans-Serif" font-size="10.00">FFByteMatrixTest.testM2timesInvIsM</text>
</a>
</g>
</g>
<!-- Node8&#45;&gt;Node11 -->
<g id="edge12" class="edge"><title>Node8&#45;&gt;Node11</title>
<path fill="none" stroke="midnightblue" d="M597.287,-130.54C624.259,-136.058 653.958,-142.134 680.153,-147.494"/>
<polygon fill="midnightblue" stroke="midnightblue" points="597.984,-127.11 587.486,-128.535 596.581,-133.968 597.984,-127.11"/>
</g>
<!-- Node10 -->
<g id="node10" class="node"><title>Node10</title>
<g id="a_node10"><a xlink:href="../../d3/dbf/classorg_1_1msrg_1_1raccoon_1_1matrix_1_1finitefields_1_1FFByteMatrixTest_a5ccbea71ba50b68456d1625106b2091e.html#a5ccbea71ba50b68456d1625106b2091e" target="_top" xlink:title="org.msrg.raccoon.matrix.finitefields.\lFFByteMatrixTest.testMtimesMInvIsIdentity">
<polygon fill="none" stroke="black" points="901,-98.5 901,-128.5 1110,-128.5 1110,-98.5 901,-98.5"/>
<text text-anchor="start" x="909" y="-116.5" font-family="Helvetica,sans-Serif" font-size="10.00">org.msrg.raccoon.matrix.finitefields.</text>
<text text-anchor="middle" x="1005.5" y="-105.5" font-family="Helvetica,sans-Serif" font-size="10.00">FFByteMatrixTest.testMtimesMInvIsIdentity</text>
</a>
</g>
</g>
<!-- Node9&#45;&gt;Node10 -->
<g id="edge11" class="edge"><title>Node9&#45;&gt;Node10</title>
<path fill="none" stroke="midnightblue" d="M875.129,-113.5C883.712,-113.5 892.327,-113.5 900.808,-113.5"/>
<polygon fill="midnightblue" stroke="midnightblue" points="875.077,-110 865.077,-113.5 875.077,-117 875.077,-110"/>
</g>
<!-- Node13 -->
<g id="node13" class="node"><title>Node13</title>
<g id="a_node13"><a xlink:href="../../de/d17/classorg_1_1msrg_1_1raccoon_1_1matrix_1_1finitefields_1_1FFByteMatrix_aae53e5325eaf7a19351d6a9f064f1cc8.html#aae53e5325eaf7a19351d6a9f064f1cc8" target="_top" xlink:title="org.msrg.raccoon.matrix.finitefields.\lFFByteMatrix.multiply2">
<polygon fill="none" stroke="black" points="668,-49.5 668,-79.5 841,-79.5 841,-49.5 668,-49.5"/>
<text text-anchor="start" x="676" y="-67.5" font-family="Helvetica,sans-Serif" font-size="10.00">org.msrg.raccoon.matrix.finitefields.</text>
<text text-anchor="middle" x="754.5" y="-56.5" font-family="Helvetica,sans-Serif" font-size="10.00">FFByteMatrix.multiply2</text>
</a>
</g>
</g>
<!-- Node12&#45;&gt;Node13 -->
<g id="edge14" class="edge"><title>Node12&#45;&gt;Node13</title>
<path fill="none" stroke="midnightblue" d="M610.016,-64.5C629.158,-64.5 649.144,-64.5 667.908,-64.5"/>
<polygon fill="midnightblue" stroke="midnightblue" points="609.789,-61.0001 599.789,-64.5 609.788,-68.0001 609.789,-61.0001"/>
</g>
</g>
</svg>
        <g id="navigator" transform="translate(0 0)" fill="#404254">
                <rect fill="#f2f5e9" fill-opacity="0.5" stroke="#606060" stroke-width=".5" x="0" y="0" width="60" height="60"/>
                <use id="zoomplus" xlink:href="#zoomPlus" x="17" y="9" onmousedown="handleZoom(evt,'in')"/>
                <use id="zoomminus" xlink:href="#zoomMin" x="42" y="9" onmousedown="handleZoom(evt,'out')"/>
                <use id="reset" xlink:href="#resetDef" x="30" y="36" onmousedown="handleReset()"/>
                <g id="arrowUp" xlink:href="#dirArrow" transform="translate(30 24)" onmousedown="handlePan(0,-1)">
                  <use xlink:href="#rim" fill="#404040">
                        <set attributeName="fill" to="#808080" begin="arrowUp.mouseover" end="arrowUp.mouseout"/>
                  </use>
                  <path fill="none" stroke="white" stroke-width="1.5" d="M0,-3.0v7 M-2.5,-0.5L0,-3.0L2.5,-0.5"/>
                </g>
                <g id="arrowRight" xlink:href="#dirArrow" transform="rotate(90) translate(36 -43)" onmousedown="handlePan(1,0)">
                  <use xlink:href="#rim" fill="#404040">
                        <set attributeName="fill" to="#808080" begin="arrowRight.mouseover" end="arrowRight.mouseout"/>
                  </use>
                  <path fill="none" stroke="white" stroke-width="1.5" d="M0,-3.0v7 M-2.5,-0.5L0,-3.0L2.5,-0.5"/>
                </g>
                <g id="arrowDown" xlink:href="#dirArrow" transform="rotate(180) translate(-30 -48)" onmousedown="handlePan(0,1)">
                  <use xlink:href="#rim" fill="#404040">
                        <set attributeName="fill" to="#808080" begin="arrowDown.mouseover" end="arrowDown.mouseout"/>
                  </use>
                  <path fill="none" stroke="white" stroke-width="1.5" d="M0,-3.0v7 M-2.5,-0.5L0,-3.0L2.5,-0.5"/>
                </g>
                <g id="arrowLeft" xlink:href="#dirArrow" transform="rotate(270) translate(-36 17)" onmousedown="handlePan(-1,0)">
                  <use xlink:href="#rim" fill="#404040">
                        <set attributeName="fill" to="#808080" begin="arrowLeft.mouseover" end="arrowLeft.mouseout"/>
                  </use>
                  <path fill="none" stroke="white" stroke-width="1.5" d="M0,-3.0v7 M-2.5,-0.5L0,-3.0L2.5,-0.5"/>
                </g>
        </g>
        <svg viewBox="0 0 15 15" width="100%" height="30px" preserveAspectRatio="xMaxYMin meet">
         <g id="arrow_out" transform="scale(0.3 0.3)">
          <a xlink:href="classorg_1_1msrg_1_1raccoon_1_1matrix_1_1finitefields_1_1FFByteMatrix_acc3fe051b40979d0a2da7a61cc4489d1_acc3fe051b40979d0a2da7a61cc4489d1_icgraph_org.svg" target="_base">
           <rect id="button" ry="5" rx="5" y="6" x="6" height="38" width="38"
                fill="#f2f5e9" fill-opacity="0.5" stroke="#606060" stroke-width="1.0"/>
           <path id="arrow"
             d="M 11.500037,31.436501 C 11.940474,20.09759 22.043105,11.32322 32.158766,21.979434 L 37.068811,17.246167 C 37.068811,17.246167 37.088388,32 37.088388,32 L 22.160133,31.978069 C 22.160133,31.978069 26.997745,27.140456 26.997745,27.140456 C 18.528582,18.264221 13.291696,25.230495 11.500037,31.436501 z"
             style="fill:#404040;"/>
          </a>
         </g>
        </svg>
</svg>
