<?xml version="1.0" encoding="UTF-8" standalone="no"?>
<!DOCTYPE svg PUBLIC "-//W3C//DTD SVG 1.1//EN"
 "http://www.w3.org/Graphics/SVG/1.1/DTD/svg11.dtd">
<!-- Generated by graphviz version 2.38.0 (20140413.2041)
 -->
<!-- Title: org.msrg.raccoon.matrix.finitefields.FFByteMatrix.multiply Pages: 1 -->
<svg width="397pt" height="88pt"
 viewBox="0.00 0.00 397.00 88.00" xmlns="http://www.w3.org/2000/svg" xmlns:xlink="http://www.w3.org/1999/xlink">
<g id="graph0" class="graph" transform="scale(1 1) rotate(0) translate(4 84)">
<title>org.msrg.raccoon.matrix.finitefields.FFByteMatrix.multiply</title>
<!-- Node2 -->
<g id="node1" class="node"><title>Node2</title>
<polygon fill="#bfbfbf" stroke="black" points="0,-24.5 0,-54.5 173,-54.5 173,-24.5 0,-24.5"/>
<text text-anchor="start" x="8" y="-42.5" font-family="Helvetica,sans-Serif" font-size="10.00">org.msrg.raccoon.matrix.finitefields.</text>
<text text-anchor="middle" x="86.5" y="-31.5" font-family="Helvetica,sans-Serif" font-size="10.00">FFByteMatrix.multiply</text>
</g>
<!-- Node3 -->
<g id="node2" class="node"><title>Node3</title>
<g id="a_node2"><a xlink:href="../../de/d17/classorg_1_1msrg_1_1raccoon_1_1matrix_1_1finitefields_1_1FFByteMatrix_a1d366abbfeb41906e5e66731c26de47a.html#a1d366abbfeb41906e5e66731c26de47a" target="_top" xlink:title="org.msrg.raccoon.matrix.finitefields.\lFFByteMatrix.divide">
<polygon fill="none" stroke="black" points="212.5,-49.5 212.5,-79.5 385.5,-79.5 385.5,-49.5 212.5,-49.5"/>
<text text-anchor="start" x="220.5" y="-67.5" font-family="Helvetica,sans-Serif" font-size="10.00">org.msrg.raccoon.matrix.finitefields.</text>
<text text-anchor="middle" x="299" y="-56.5" font-family="Helvetica,sans-Serif" font-size="10.00">FFByteMatrix.divide</text>
</a>
</g>
</g>
<!-- Node2&#45;&gt;Node3 -->
<g id="edge1" class="edge"><title>Node2&#45;&gt;Node3</title>
<path fill="none" stroke="midnightblue" d="M183.223,-50.8685C192.97,-52.0262 202.828,-53.1969 212.457,-54.3406"/>
<polygon fill="midnightblue" stroke="midnightblue" points="183.461,-47.3723 173.118,-49.6685 182.636,-54.3235 183.461,-47.3723"/>
</g>
<!-- Node4 -->
<g id="node3" class="node"><title>Node4</title>
<g id="a_node3"><a xlink:href="../../de/d17/classorg_1_1msrg_1_1raccoon_1_1matrix_1_1finitefields_1_1FFByteMatrix_a5ae32dafc3af3803729cd9010c118a73.html#a5ae32dafc3af3803729cd9010c118a73" target="_top" xlink:title="org.msrg.raccoon.matrix.finitefields.\lFFByteMatrix.multiplyAndAddInPlace">
<polygon fill="none" stroke="black" points="209,-0.5 209,-30.5 389,-30.5 389,-0.5 209,-0.5"/>
<text text-anchor="start" x="217" y="-18.5" font-family="Helvetica,sans-Serif" font-size="10.00">org.msrg.raccoon.matrix.finitefields.</text>
<text text-anchor="middle" x="299" y="-7.5" font-family="Helvetica,sans-Serif" font-size="10.00">FFByteMatrix.multiplyAndAddInPlace</text>
</a>
</g>
</g>
<!-- Node2&#45;&gt;Node4 -->
<g id="edge2" class="edge"><title>Node2&#45;&gt;Node4</title>
<path fill="none" stroke="midnightblue" d="M183.077,-28.6029C191.605,-27.6306 200.218,-26.6485 208.691,-25.6825"/>
<polygon fill="midnightblue" stroke="midnightblue" points="182.658,-25.1279 173.118,-29.7383 183.451,-32.0829 182.658,-25.1279"/>
</g>
</g>
</svg>
