<?xml version="1.0" encoding="UTF-8" standalone="no"?>
<!DOCTYPE svg PUBLIC "-//W3C//DTD SVG 1.1//EN"
 "http://www.w3.org/Graphics/SVG/1.1/DTD/svg11.dtd">
<!-- Generated by graphviz version 2.38.0 (20140413.2041)
 -->
<!-- Title: org.msrg.raccoon.matrix.finitefields.FFByteMatrix.createRandomByteMatrix Pages: 1 -->
<svg width="616pt" height="88pt"
 viewBox="0.00 0.00 616.00 88.00" xmlns="http://www.w3.org/2000/svg" xmlns:xlink="http://www.w3.org/1999/xlink">
<g id="graph0" class="graph" transform="scale(1 1) rotate(0) translate(4 84)">
<title>org.msrg.raccoon.matrix.finitefields.FFByteMatrix.createRandomByteMatrix</title>
<!-- Node1 -->
<g id="node1" class="node"><title>Node1</title>
<polygon fill="#bfbfbf" stroke="black" points="0,-24.5 0,-54.5 190,-54.5 190,-24.5 0,-24.5"/>
<text text-anchor="start" x="8" y="-42.5" font-family="Helvetica,sans-Serif" font-size="10.00">org.msrg.raccoon.matrix.finitefields.</text>
<text text-anchor="middle" x="95" y="-31.5" font-family="Helvetica,sans-Serif" font-size="10.00">FFByteMatrix.createRandomByteMatrix</text>
</g>
<!-- Node2 -->
<g id="node2" class="node"><title>Node2</title>
<g id="a_node2"><a xlink:href="../../de/d17/classorg_1_1msrg_1_1raccoon_1_1matrix_1_1finitefields_1_1FFByteMatrix_a74fec4736961bf7a7fc542e6db4ba471.html#a74fec4736961bf7a7fc542e6db4ba471" target="_top" xlink:title="org.msrg.raccoon.matrix.finitefields.\lFFByteMatrix.FFByteMatrix">
<polygon fill="none" stroke="black" points="226,-49.5 226,-79.5 399,-79.5 399,-49.5 226,-49.5"/>
<text text-anchor="start" x="234" y="-67.5" font-family="Helvetica,sans-Serif" font-size="10.00">org.msrg.raccoon.matrix.finitefields.</text>
<text text-anchor="middle" x="312.5" y="-56.5" font-family="Helvetica,sans-Serif" font-size="10.00">FFByteMatrix.FFByteMatrix</text>
</a>
</g>
</g>
<!-- Node1&#45;&gt;Node2 -->
<g id="edge1" class="edge"><title>Node1&#45;&gt;Node2</title>
<path fill="none" stroke="midnightblue" d="M190.208,-50.429C198.755,-51.4206 207.418,-52.4255 215.977,-53.4184"/>
<polygon fill="midnightblue" stroke="midnightblue" points="215.626,-56.9011 225.963,-54.5769 216.433,-49.9478 215.626,-56.9011"/>
</g>
<!-- Node4 -->
<g id="node4" class="node"><title>Node4</title>
<g id="a_node4"><a xlink:href="../../de/d17/classorg_1_1msrg_1_1raccoon_1_1matrix_1_1finitefields_1_1FFByteMatrix_a0168a50b2630c4e56b191a23671e77eb.html#a0168a50b2630c4e56b191a23671e77eb" target="_top" xlink:title="org.msrg.raccoon.matrix.finitefields.\lFFByteMatrix.random">
<polygon fill="none" stroke="black" points="226,-0.5 226,-30.5 399,-30.5 399,-0.5 226,-0.5"/>
<text text-anchor="start" x="234" y="-18.5" font-family="Helvetica,sans-Serif" font-size="10.00">org.msrg.raccoon.matrix.finitefields.</text>
<text text-anchor="middle" x="312.5" y="-7.5" font-family="Helvetica,sans-Serif" font-size="10.00">FFByteMatrix.random</text>
</a>
</g>
</g>
<!-- Node1&#45;&gt;Node4 -->
<g id="edge3" class="edge"><title>Node1&#45;&gt;Node4</title>
<path fill="none" stroke="midnightblue" d="M190.208,-29.0082C198.755,-28.0563 207.418,-27.0915 215.977,-26.1383"/>
<polygon fill="midnightblue" stroke="midnightblue" points="216.412,-29.6116 225.963,-25.0262 215.637,-22.6546 216.412,-29.6116"/>
</g>
<!-- Node3 -->
<g id="node3" class="node"><title>Node3</title>
<g id="a_node3"><a xlink:href="../../de/d17/classorg_1_1msrg_1_1raccoon_1_1matrix_1_1finitefields_1_1FFByteMatrix_acc3fe051b40979d0a2da7a61cc4489d1.html#acc3fe051b40979d0a2da7a61cc4489d1" target="_top" xlink:title="org.msrg.raccoon.matrix.finitefields.\lFFByteMatrix.makeZero2d">
<polygon fill="none" stroke="black" points="435,-49.5 435,-79.5 608,-79.5 608,-49.5 435,-49.5"/>
<text text-anchor="start" x="443" y="-67.5" font-family="Helvetica,sans-Serif" font-size="10.00">org.msrg.raccoon.matrix.finitefields.</text>
<text text-anchor="middle" x="521.5" y="-56.5" font-family="Helvetica,sans-Serif" font-size="10.00">FFByteMatrix.makeZero2d</text>
</a>
</g>
</g>
<!-- Node2&#45;&gt;Node3 -->
<g id="edge2" class="edge"><title>Node2&#45;&gt;Node3</title>
<path fill="none" stroke="midnightblue" d="M399.189,-64.5C407.663,-64.5 416.301,-64.5 424.867,-64.5"/>
<polygon fill="midnightblue" stroke="midnightblue" points="424.875,-68.0001 434.875,-64.5 424.875,-61.0001 424.875,-68.0001"/>
</g>
</g>
</svg>
