<?xml version="1.0" encoding="UTF-8" standalone="no"?>
<!DOCTYPE svg PUBLIC "-//W3C//DTD SVG 1.1//EN"
 "http://www.w3.org/Graphics/SVG/1.1/DTD/svg11.dtd">
<!-- Generated by graphviz version 2.38.0 (20140413.2041)
 -->
<!-- Title: org.msrg.raccoon.engine.CodingEngineEvent_ThreadEvent Pages: 1 -->
<!--zoomable 320 -->
<svg id="main" version="1.1" xmlns="http://www.w3.org/2000/svg" xmlns:xlink="http://www.w3.org/1999/xlink" xml:space="preserve" onload="init(evt)">
<style type="text/css"><![CDATA[
.edge:hover path { stroke: red; }
.edge:hover polygon { stroke: red; fill: red; }
]]></style>
<script type="text/javascript"><![CDATA[
var edges = document.getElementsByTagName('g');
if (edges && edges.length) {
  for (var i=0;i<edges.length;i++) {
    if (edges[i].id.substr(0,4)=='edge') {
      edges[i].setAttribute('class','edge');
    }
  }
}
]]></script>
        <defs>
                <circle id="rim" cx="0" cy="0" r="7"/>
                <circle id="rim2" cx="0" cy="0" r="3.5"/>
                <g id="zoomPlus">
                        <use xlink:href="#rim" fill="#404040">
                                <set attributeName="fill" to="#808080" begin="zoomplus.mouseover" end="zoomplus.mouseout"/>
                        </use>
                        <path d="M-4,0h8M0,-4v8" fill="none" stroke="white" stroke-width="1.5" pointer-events="none"/>
                </g>
                <g id="zoomMin">
                        <use xlink:href="#rim" fill="#404040">
                                <set attributeName="fill" to="#808080" begin="zoomminus.mouseover" end="zoomminus.mouseout"/>
                        </use>
                        <path d="M-4,0h8" fill="none" stroke="white" stroke-width="1.5" pointer-events="none"/>
                </g>
                <g id="dirArrow">
                        <path fill="none" stroke="white" stroke-width="1.5" d="M0,-3.0v7 M-2.5,-0.5L0,-3.0L2.5,-0.5"/>
                </g>
               <g id="resetDef">
                       <use xlink:href="#rim2" fill="#404040">
                               <set attributeName="fill" to="#808080" begin="reset.mouseover" end="reset.mouseout"/>
                       </use>
               </g>
        </defs>

<script type="text/javascript">
var viewWidth = 598;
var viewHeight = 320;
var sectionId = 'dynsection-0';
</script>
<script xlink:href="../../svgpan.js"/>
<svg id="graph" class="graph">
<g id="viewport">
<title>org.msrg.raccoon.engine.CodingEngineEvent_ThreadEvent</title>
<!-- Node0 -->
<g id="node1" class="node"><title>Node0</title>
<polygon fill="#bfbfbf" stroke="black" points="214,-116.5 214,-195.5 378,-195.5 378,-116.5 214,-116.5"/>
<text text-anchor="start" x="222" y="-183.5" font-family="Helvetica,sans-Serif" font-size="10.00">org.msrg.raccoon.engine.</text>
<text text-anchor="middle" x="296" y="-172.5" font-family="Helvetica,sans-Serif" font-size="10.00">CodingEngineEvent_ThreadEvent</text>
<polyline fill="none" stroke="black" points="214,-165.5 378,-165.5 "/>
<text text-anchor="start" x="222" y="-153.5" font-family="Helvetica,sans-Serif" font-size="10.00"># _cThread</text>
<polyline fill="none" stroke="black" points="214,-146.5 378,-146.5 "/>
<text text-anchor="start" x="222" y="-134.5" font-family="Helvetica,sans-Serif" font-size="10.00">~ CodingEngineEvent_Thread</text>
<text text-anchor="start" x="222" y="-123.5" font-family="Helvetica,sans-Serif" font-size="10.00">Event()</text>
</g>
<!-- Node2 -->
<g id="node3" class="node"><title>Node2</title>
<g id="a_node3"><a xlink:href="../../d2/dda/classorg_1_1msrg_1_1raccoon_1_1engine_1_1CodingEngineEvent__BusyThreadEvent.html" target="_top" xlink:title="{org.msrg.raccoon.engine.\lCodingEngineEvent_BusyThreadEvent\n||~ CodingEngineEvent_BusyThread\lEvent()\l}">
<polygon fill="none" stroke="black" points="0,-0.5 0,-79.5 186,-79.5 186,-0.5 0,-0.5"/>
<text text-anchor="start" x="8" y="-67.5" font-family="Helvetica,sans-Serif" font-size="10.00">org.msrg.raccoon.engine.</text>
<text text-anchor="middle" x="93" y="-56.5" font-family="Helvetica,sans-Serif" font-size="10.00">CodingEngineEvent_BusyThreadEvent</text>
<polyline fill="none" stroke="black" points="0,-49.5 186,-49.5 "/>
<text text-anchor="middle" x="93" y="-37.5" font-family="Helvetica,sans-Serif" font-size="10.00"> </text>
<polyline fill="none" stroke="black" points="0,-30.5 186,-30.5 "/>
<text text-anchor="start" x="8" y="-18.5" font-family="Helvetica,sans-Serif" font-size="10.00">~ CodingEngineEvent_BusyThread</text>
<text text-anchor="start" x="8" y="-7.5" font-family="Helvetica,sans-Serif" font-size="10.00">Event()</text>
</a>
</g>
</g>
<!-- Node0&#45;&gt;Node2 -->
<g id="edge2" class="edge"><title>Node0&#45;&gt;Node2</title>
<path fill="none" stroke="midnightblue" d="M218.484,-111.469C199.78,-100.965 179.922,-89.8135 161.656,-79.5555"/>
<polygon fill="none" stroke="midnightblue" points="216.84,-114.56 227.273,-116.405 220.268,-108.457 216.84,-114.56"/>
</g>
<!-- Node3 -->
<g id="node4" class="node"><title>Node3</title>
<g id="a_node4"><a xlink:href="../../de/daf/classorg_1_1msrg_1_1raccoon_1_1engine_1_1CodingEngineEvent__FreeThreadEvent.html" target="_top" xlink:title="{org.msrg.raccoon.engine.\lCodingEngineEvent_FreeThreadEvent\n||~ CodingEngineEvent_FreeThread\lEvent()\l}">
<polygon fill="none" stroke="black" points="204.5,-0.5 204.5,-79.5 387.5,-79.5 387.5,-0.5 204.5,-0.5"/>
<text text-anchor="start" x="212.5" y="-67.5" font-family="Helvetica,sans-Serif" font-size="10.00">org.msrg.raccoon.engine.</text>
<text text-anchor="middle" x="296" y="-56.5" font-family="Helvetica,sans-Serif" font-size="10.00">CodingEngineEvent_FreeThreadEvent</text>
<polyline fill="none" stroke="black" points="204.5,-49.5 387.5,-49.5 "/>
<text text-anchor="middle" x="296" y="-37.5" font-family="Helvetica,sans-Serif" font-size="10.00"> </text>
<polyline fill="none" stroke="black" points="204.5,-30.5 387.5,-30.5 "/>
<text text-anchor="start" x="212.5" y="-18.5" font-family="Helvetica,sans-Serif" font-size="10.00">~ CodingEngineEvent_FreeThread</text>
<text text-anchor="start" x="212.5" y="-7.5" font-family="Helvetica,sans-Serif" font-size="10.00">Event()</text>
</a>
</g>
</g>
<!-- Node0&#45;&gt;Node3 -->
<g id="edge3" class="edge"><title>Node0&#45;&gt;Node3</title>
<path fill="none" stroke="midnightblue" d="M296,-106.146C296,-97.256 296,-88.0961 296,-79.5555"/>
<polygon fill="none" stroke="midnightblue" points="292.5,-106.405 296,-116.405 299.5,-106.405 292.5,-106.405"/>
</g>
<!-- Node4 -->
<g id="node5" class="node"><title>Node4</title>
<g id="a_node5"><a xlink:href="../../d4/dd3/classorg_1_1msrg_1_1raccoon_1_1engine_1_1CodingEngineEvent__NewThreadEvent.html" target="_top" xlink:title="{org.msrg.raccoon.engine.\lCodingEngineEvent_NewThreadEvent\n||~ CodingEngineEvent_NewThread\lEvent()\l}">
<polygon fill="none" stroke="black" points="406,-0.5 406,-79.5 590,-79.5 590,-0.5 406,-0.5"/>
<text text-anchor="start" x="414" y="-67.5" font-family="Helvetica,sans-Serif" font-size="10.00">org.msrg.raccoon.engine.</text>
<text text-anchor="middle" x="498" y="-56.5" font-family="Helvetica,sans-Serif" font-size="10.00">CodingEngineEvent_NewThreadEvent</text>
<polyline fill="none" stroke="black" points="406,-49.5 590,-49.5 "/>
<text text-anchor="middle" x="498" y="-37.5" font-family="Helvetica,sans-Serif" font-size="10.00"> </text>
<polyline fill="none" stroke="black" points="406,-30.5 590,-30.5 "/>
<text text-anchor="start" x="414" y="-18.5" font-family="Helvetica,sans-Serif" font-size="10.00">~ CodingEngineEvent_NewThread</text>
<text text-anchor="start" x="414" y="-7.5" font-family="Helvetica,sans-Serif" font-size="10.00">Event()</text>
</a>
</g>
</g>
<!-- Node0&#45;&gt;Node4 -->
<g id="edge4" class="edge"><title>Node0&#45;&gt;Node4</title>
<path fill="none" stroke="midnightblue" d="M373.134,-111.469C391.746,-100.965 411.506,-89.8135 429.682,-79.5555"/>
<polygon fill="none" stroke="midnightblue" points="371.377,-108.442 364.388,-116.405 374.817,-114.538 371.377,-108.442"/>
</g>
<!-- Node1 -->
<g id="node2" class="node"><title>Node1</title>
<g id="a_node2"><a xlink:href="../../d3/db5/classorg_1_1msrg_1_1raccoon_1_1engine_1_1CodingEngineEvent.html" target="_top" xlink:title="{org.msrg.raccoon.engine.\lCodingEngineEvent\n|+ _eventType\l|+ toString()\l# CodingEngineEvent()\l}">
<polygon fill="none" stroke="black" points="232.5,-232.5 232.5,-311.5 359.5,-311.5 359.5,-232.5 232.5,-232.5"/>
<text text-anchor="start" x="240.5" y="-299.5" font-family="Helvetica,sans-Serif" font-size="10.00">org.msrg.raccoon.engine.</text>
<text text-anchor="middle" x="296" y="-288.5" font-family="Helvetica,sans-Serif" font-size="10.00">CodingEngineEvent</text>
<polyline fill="none" stroke="black" points="232.5,-281.5 359.5,-281.5 "/>
<text text-anchor="start" x="240.5" y="-269.5" font-family="Helvetica,sans-Serif" font-size="10.00">+ _eventType</text>
<polyline fill="none" stroke="black" points="232.5,-262.5 359.5,-262.5 "/>
<text text-anchor="start" x="240.5" y="-250.5" font-family="Helvetica,sans-Serif" font-size="10.00">+ toString()</text>
<text text-anchor="start" x="240.5" y="-239.5" font-family="Helvetica,sans-Serif" font-size="10.00"># CodingEngineEvent()</text>
</a>
</g>
</g>
<!-- Node1&#45;&gt;Node0 -->
<g id="edge1" class="edge"><title>Node1&#45;&gt;Node0</title>
<path fill="none" stroke="midnightblue" d="M296,-222.146C296,-213.256 296,-204.096 296,-195.555"/>
<polygon fill="none" stroke="midnightblue" points="292.5,-222.405 296,-232.405 299.5,-222.405 292.5,-222.405"/>
</g>
</g>
</svg>
        <g id="navigator" transform="translate(0 0)" fill="#404254">
                <rect fill="#f2f5e9" fill-opacity="0.5" stroke="#606060" stroke-width=".5" x="0" y="0" width="60" height="60"/>
                <use id="zoomplus" xlink:href="#zoomPlus" x="17" y="9" onmousedown="handleZoom(evt,'in')"/>
                <use id="zoomminus" xlink:href="#zoomMin" x="42" y="9" onmousedown="handleZoom(evt,'out')"/>
                <use id="reset" xlink:href="#resetDef" x="30" y="36" onmousedown="handleReset()"/>
                <g id="arrowUp" xlink:href="#dirArrow" transform="translate(30 24)" onmousedown="handlePan(0,-1)">
                  <use xlink:href="#rim" fill="#404040">
                        <set attributeName="fill" to="#808080" begin="arrowUp.mouseover" end="arrowUp.mouseout"/>
                  </use>
                  <path fill="none" stroke="white" stroke-width="1.5" d="M0,-3.0v7 M-2.5,-0.5L0,-3.0L2.5,-0.5"/>
                </g>
                <g id="arrowRight" xlink:href="#dirArrow" transform="rotate(90) translate(36 -43)" onmousedown="handlePan(1,0)">
                  <use xlink:href="#rim" fill="#404040">
                        <set attributeName="fill" to="#808080" begin="arrowRight.mouseover" end="arrowRight.mouseout"/>
                  </use>
                  <path fill="none" stroke="white" stroke-width="1.5" d="M0,-3.0v7 M-2.5,-0.5L0,-3.0L2.5,-0.5"/>
                </g>
                <g id="arrowDown" xlink:href="#dirArrow" transform="rotate(180) translate(-30 -48)" onmousedown="handlePan(0,1)">
                  <use xlink:href="#rim" fill="#404040">
                        <set attributeName="fill" to="#808080" begin="arrowDown.mouseover" end="arrowDown.mouseout"/>
                  </use>
                  <path fill="none" stroke="white" stroke-width="1.5" d="M0,-3.0v7 M-2.5,-0.5L0,-3.0L2.5,-0.5"/>
                </g>
                <g id="arrowLeft" xlink:href="#dirArrow" transform="rotate(270) translate(-36 17)" onmousedown="handlePan(-1,0)">
                  <use xlink:href="#rim" fill="#404040">
                        <set attributeName="fill" to="#808080" begin="arrowLeft.mouseover" end="arrowLeft.mouseout"/>
                  </use>
                  <path fill="none" stroke="white" stroke-width="1.5" d="M0,-3.0v7 M-2.5,-0.5L0,-3.0L2.5,-0.5"/>
                </g>
        </g>
        <svg viewBox="0 0 15 15" width="100%" height="30px" preserveAspectRatio="xMaxYMin meet">
         <g id="arrow_out" transform="scale(0.3 0.3)">
          <a xlink:href="classorg_1_1msrg_1_1raccoon_1_1engine_1_1CodingEngineEvent__ThreadEvent__inherit__graph_org.svg" target="_base">
           <rect id="button" ry="5" rx="5" y="6" x="6" height="38" width="38"
                fill="#f2f5e9" fill-opacity="0.5" stroke="#606060" stroke-width="1.0"/>
           <path id="arrow"
             d="M 11.500037,31.436501 C 11.940474,20.09759 22.043105,11.32322 32.158766,21.979434 L 37.068811,17.246167 C 37.068811,17.246167 37.088388,32 37.088388,32 L 22.160133,31.978069 C 22.160133,31.978069 26.997745,27.140456 26.997745,27.140456 C 18.528582,18.264221 13.291696,25.230495 11.500037,31.436501 z"
             style="fill:#404040;"/>
          </a>
         </g>
        </svg>
</svg>
