<?xml version="1.0" encoding="UTF-8" standalone="no"?>
<!DOCTYPE svg PUBLIC "-//W3C//DTD SVG 1.1//EN"
 "http://www.w3.org/Graphics/SVG/1.1/DTD/svg11.dtd">
<!-- Generated by graphviz version 2.38.0 (20140413.2041)
 -->
<!-- Title: org.msrg.raccoon.engine.CodingEngineEvent_ThreadEvent Pages: 1 -->
<svg width="598pt" height="320pt"
 viewBox="0.00 0.00 598.00 320.00" xmlns="http://www.w3.org/2000/svg" xmlns:xlink="http://www.w3.org/1999/xlink">
<g id="graph0" class="graph" transform="scale(1 1) rotate(0) translate(4 316)">
<title>org.msrg.raccoon.engine.CodingEngineEvent_ThreadEvent</title>
<!-- Node0 -->
<g id="node1" class="node"><title>Node0</title>
<polygon fill="#bfbfbf" stroke="black" points="214,-116.5 214,-195.5 378,-195.5 378,-116.5 214,-116.5"/>
<text text-anchor="start" x="222" y="-183.5" font-family="Helvetica,sans-Serif" font-size="10.00">org.msrg.raccoon.engine.</text>
<text text-anchor="middle" x="296" y="-172.5" font-family="Helvetica,sans-Serif" font-size="10.00">CodingEngineEvent_ThreadEvent</text>
<polyline fill="none" stroke="black" points="214,-165.5 378,-165.5 "/>
<text text-anchor="start" x="222" y="-153.5" font-family="Helvetica,sans-Serif" font-size="10.00"># _cThread</text>
<polyline fill="none" stroke="black" points="214,-146.5 378,-146.5 "/>
<text text-anchor="start" x="222" y="-134.5" font-family="Helvetica,sans-Serif" font-size="10.00">~ CodingEngineEvent_Thread</text>
<text text-anchor="start" x="222" y="-123.5" font-family="Helvetica,sans-Serif" font-size="10.00">Event()</text>
</g>
<!-- Node2 -->
<g id="node3" class="node"><title>Node2</title>
<g id="a_node3"><a xlink:href="../../d2/dda/classorg_1_1msrg_1_1raccoon_1_1engine_1_1CodingEngineEvent__BusyThreadEvent.html" target="_top" xlink:title="{org.msrg.raccoon.engine.\lCodingEngineEvent_BusyThreadEvent\n||~ CodingEngineEvent_BusyThread\lEvent()\l}">
<polygon fill="none" stroke="black" points="0,-0.5 0,-79.5 186,-79.5 186,-0.5 0,-0.5"/>
<text text-anchor="start" x="8" y="-67.5" font-family="Helvetica,sans-Serif" font-size="10.00">org.msrg.raccoon.engine.</text>
<text text-anchor="middle" x="93" y="-56.5" font-family="Helvetica,sans-Serif" font-size="10.00">CodingEngineEvent_BusyThreadEvent</text>
<polyline fill="none" stroke="black" points="0,-49.5 186,-49.5 "/>
<text text-anchor="middle" x="93" y="-37.5" font-family="Helvetica,sans-Serif" font-size="10.00"> </text>
<polyline fill="none" stroke="black" points="0,-30.5 186,-30.5 "/>
<text text-anchor="start" x="8" y="-18.5" font-family="Helvetica,sans-Serif" font-size="10.00">~ CodingEngineEvent_BusyThread</text>
<text text-anchor="start" x="8" y="-7.5" font-family="Helvetica,sans-Serif" font-size="10.00">Event()</text>
</a>
</g>
</g>
<!-- Node0&#45;&gt;Node2 -->
<g id="edge2" class="edge"><title>Node0&#45;&gt;Node2</title>
<path fill="none" stroke="midnightblue" d="M218.484,-111.469C199.78,-100.965 179.922,-89.8135 161.656,-79.5555"/>
<polygon fill="none" stroke="midnightblue" points="216.84,-114.56 227.273,-116.405 220.268,-108.457 216.84,-114.56"/>
</g>
<!-- Node3 -->
<g id="node4" class="node"><title>Node3</title>
<g id="a_node4"><a xlink:href="../../de/daf/classorg_1_1msrg_1_1raccoon_1_1engine_1_1CodingEngineEvent__FreeThreadEvent.html" target="_top" xlink:title="{org.msrg.raccoon.engine.\lCodingEngineEvent_FreeThreadEvent\n||~ CodingEngineEvent_FreeThread\lEvent()\l}">
<polygon fill="none" stroke="black" points="204.5,-0.5 204.5,-79.5 387.5,-79.5 387.5,-0.5 204.5,-0.5"/>
<text text-anchor="start" x="212.5" y="-67.5" font-family="Helvetica,sans-Serif" font-size="10.00">org.msrg.raccoon.engine.</text>
<text text-anchor="middle" x="296" y="-56.5" font-family="Helvetica,sans-Serif" font-size="10.00">CodingEngineEvent_FreeThreadEvent</text>
<polyline fill="none" stroke="black" points="204.5,-49.5 387.5,-49.5 "/>
<text text-anchor="middle" x="296" y="-37.5" font-family="Helvetica,sans-Serif" font-size="10.00"> </text>
<polyline fill="none" stroke="black" points="204.5,-30.5 387.5,-30.5 "/>
<text text-anchor="start" x="212.5" y="-18.5" font-family="Helvetica,sans-Serif" font-size="10.00">~ CodingEngineEvent_FreeThread</text>
<text text-anchor="start" x="212.5" y="-7.5" font-family="Helvetica,sans-Serif" font-size="10.00">Event()</text>
</a>
</g>
</g>
<!-- Node0&#45;&gt;Node3 -->
<g id="edge3" class="edge"><title>Node0&#45;&gt;Node3</title>
<path fill="none" stroke="midnightblue" d="M296,-106.146C296,-97.256 296,-88.0961 296,-79.5555"/>
<polygon fill="none" stroke="midnightblue" points="292.5,-106.405 296,-116.405 299.5,-106.405 292.5,-106.405"/>
</g>
<!-- Node4 -->
<g id="node5" class="node"><title>Node4</title>
<g id="a_node5"><a xlink:href="../../d4/dd3/classorg_1_1msrg_1_1raccoon_1_1engine_1_1CodingEngineEvent__NewThreadEvent.html" target="_top" xlink:title="{org.msrg.raccoon.engine.\lCodingEngineEvent_NewThreadEvent\n||~ CodingEngineEvent_NewThread\lEvent()\l}">
<polygon fill="none" stroke="black" points="406,-0.5 406,-79.5 590,-79.5 590,-0.5 406,-0.5"/>
<text text-anchor="start" x="414" y="-67.5" font-family="Helvetica,sans-Serif" font-size="10.00">org.msrg.raccoon.engine.</text>
<text text-anchor="middle" x="498" y="-56.5" font-family="Helvetica,sans-Serif" font-size="10.00">CodingEngineEvent_NewThreadEvent</text>
<polyline fill="none" stroke="black" points="406,-49.5 590,-49.5 "/>
<text text-anchor="middle" x="498" y="-37.5" font-family="Helvetica,sans-Serif" font-size="10.00"> </text>
<polyline fill="none" stroke="black" points="406,-30.5 590,-30.5 "/>
<text text-anchor="start" x="414" y="-18.5" font-family="Helvetica,sans-Serif" font-size="10.00">~ CodingEngineEvent_NewThread</text>
<text text-anchor="start" x="414" y="-7.5" font-family="Helvetica,sans-Serif" font-size="10.00">Event()</text>
</a>
</g>
</g>
<!-- Node0&#45;&gt;Node4 -->
<g id="edge4" class="edge"><title>Node0&#45;&gt;Node4</title>
<path fill="none" stroke="midnightblue" d="M373.134,-111.469C391.746,-100.965 411.506,-89.8135 429.682,-79.5555"/>
<polygon fill="none" stroke="midnightblue" points="371.377,-108.442 364.388,-116.405 374.817,-114.538 371.377,-108.442"/>
</g>
<!-- Node1 -->
<g id="node2" class="node"><title>Node1</title>
<g id="a_node2"><a xlink:href="../../d3/db5/classorg_1_1msrg_1_1raccoon_1_1engine_1_1CodingEngineEvent.html" target="_top" xlink:title="{org.msrg.raccoon.engine.\lCodingEngineEvent\n|+ _eventType\l|+ toString()\l# CodingEngineEvent()\l}">
<polygon fill="none" stroke="black" points="232.5,-232.5 232.5,-311.5 359.5,-311.5 359.5,-232.5 232.5,-232.5"/>
<text text-anchor="start" x="240.5" y="-299.5" font-family="Helvetica,sans-Serif" font-size="10.00">org.msrg.raccoon.engine.</text>
<text text-anchor="middle" x="296" y="-288.5" font-family="Helvetica,sans-Serif" font-size="10.00">CodingEngineEvent</text>
<polyline fill="none" stroke="black" points="232.5,-281.5 359.5,-281.5 "/>
<text text-anchor="start" x="240.5" y="-269.5" font-family="Helvetica,sans-Serif" font-size="10.00">+ _eventType</text>
<polyline fill="none" stroke="black" points="232.5,-262.5 359.5,-262.5 "/>
<text text-anchor="start" x="240.5" y="-250.5" font-family="Helvetica,sans-Serif" font-size="10.00">+ toString()</text>
<text text-anchor="start" x="240.5" y="-239.5" font-family="Helvetica,sans-Serif" font-size="10.00"># CodingEngineEvent()</text>
</a>
</g>
</g>
<!-- Node1&#45;&gt;Node0 -->
<g id="edge1" class="edge"><title>Node1&#45;&gt;Node0</title>
<path fill="none" stroke="midnightblue" d="M296,-222.146C296,-213.256 296,-204.096 296,-195.555"/>
<polygon fill="none" stroke="midnightblue" points="292.5,-222.405 296,-232.405 299.5,-222.405 292.5,-222.405"/>
</g>
</g>
</svg>
