<?xml version="1.0" encoding="UTF-8" standalone="no"?>
<!DOCTYPE svg PUBLIC "-//W3C//DTD SVG 1.1//EN"
 "http://www.w3.org/Graphics/SVG/1.1/DTD/svg11.dtd">
<!-- Generated by graphviz version 2.38.0 (20140413.2041)
 -->
<!-- Title: org.msrg.raccoon.engine.CodingEngine.MyThread Pages: 1 -->
<svg width="135pt" height="193pt"
 viewBox="0.00 0.00 135.00 193.00" xmlns="http://www.w3.org/2000/svg" xmlns:xlink="http://www.w3.org/1999/xlink">
<g id="graph0" class="graph" transform="scale(1 1) rotate(0) translate(4 189)">
<title>org.msrg.raccoon.engine.CodingEngine.MyThread</title>
<!-- Node2 -->
<g id="node1" class="node"><title>Node2</title>
<polygon fill="#bfbfbf" stroke="black" points="0,-0.5 0,-90.5 127,-90.5 127,-0.5 0,-0.5"/>
<text text-anchor="start" x="8" y="-78.5" font-family="Helvetica,sans-Serif" font-size="10.00">org.msrg.raccoon.engine.</text>
<text text-anchor="middle" x="63.5" y="-67.5" font-family="Helvetica,sans-Serif" font-size="10.00">CodingEngine.MyThread</text>
<polyline fill="none" stroke="black" points="0,-60.5 127,-60.5 "/>
<text text-anchor="middle" x="63.5" y="-48.5" font-family="Helvetica,sans-Serif" font-size="10.00"> </text>
<polyline fill="none" stroke="black" points="0,-41.5 127,-41.5 "/>
<text text-anchor="start" x="8" y="-29.5" font-family="Helvetica,sans-Serif" font-size="10.00">+ MyThread()</text>
<text text-anchor="start" x="8" y="-18.5" font-family="Helvetica,sans-Serif" font-size="10.00">+ run()</text>
<text text-anchor="start" x="8" y="-7.5" font-family="Helvetica,sans-Serif" font-size="10.00">+ toString()</text>
</g>
<!-- Node3 -->
<g id="node2" class="node"><title>Node3</title>
<polygon fill="none" stroke="#bfbfbf" points="40,-127.5 40,-184.5 87,-184.5 87,-127.5 40,-127.5"/>
<text text-anchor="middle" x="63.5" y="-172.5" font-family="Helvetica,sans-Serif" font-size="10.00">Thread</text>
<polyline fill="none" stroke="#bfbfbf" points="40,-165.5 87,-165.5 "/>
<text text-anchor="middle" x="63.5" y="-153.5" font-family="Helvetica,sans-Serif" font-size="10.00"> </text>
<polyline fill="none" stroke="#bfbfbf" points="40,-146.5 87,-146.5 "/>
<text text-anchor="middle" x="63.5" y="-134.5" font-family="Helvetica,sans-Serif" font-size="10.00"> </text>
</g>
<!-- Node3&#45;&gt;Node2 -->
<g id="edge1" class="edge"><title>Node3&#45;&gt;Node2</title>
<path fill="none" stroke="midnightblue" d="M63.5,-117.214C63.5,-108.609 63.5,-99.3943 63.5,-90.5541"/>
<polygon fill="none" stroke="midnightblue" points="60.0001,-117.34 63.5,-127.34 67.0001,-117.34 60.0001,-117.34"/>
</g>
</g>
</svg>
