<?xml version="1.0" encoding="UTF-8" standalone="no"?>
<!DOCTYPE svg PUBLIC "-//W3C//DTD SVG 1.1//EN"
 "http://www.w3.org/Graphics/SVG/1.1/DTD/svg11.dtd">
<!-- Generated by graphviz version 2.38.0 (20140413.2041)
 -->
<!-- Title: org.msrg.raccoon.utils.Combinations Pages: 1 -->
<svg width="212pt" height="408pt"
 viewBox="0.00 0.00 212.00 408.00" xmlns="http://www.w3.org/2000/svg" xmlns:xlink="http://www.w3.org/1999/xlink">
<g id="graph0" class="graph" transform="scale(1 1) rotate(0) translate(4 404)">
<title>org.msrg.raccoon.utils.Combinations</title>
<!-- Node1 -->
<g id="node1" class="node"><title>Node1</title>
<polygon fill="#bfbfbf" stroke="black" points="-1.42109e-14,-0.5 -1.42109e-14,-189.5 176,-189.5 176,-0.5 -1.42109e-14,-0.5"/>
<text text-anchor="middle" x="88" y="-177.5" font-family="Helvetica,sans-Serif" font-size="10.00">org.msrg.raccoon.utils.Combinations</text>
<polyline fill="none" stroke="black" points="-1.42109e-14,-170.5 176,-170.5 "/>
<text text-anchor="start" x="8" y="-158.5" font-family="Helvetica,sans-Serif" font-size="10.00">~ MAX_SUPPORTED_TOTAL</text>
<text text-anchor="start" x="8" y="-147.5" font-family="Helvetica,sans-Serif" font-size="10.00">&#45; _count</text>
<text text-anchor="start" x="8" y="-136.5" font-family="Helvetica,sans-Serif" font-size="10.00">&#45; _total</text>
<polyline fill="none" stroke="black" points="-1.42109e-14,-129.5 176,-129.5 "/>
<text text-anchor="start" x="8" y="-117.5" font-family="Helvetica,sans-Serif" font-size="10.00">+ getRandomCombinations()</text>
<text text-anchor="start" x="8" y="-106.5" font-family="Helvetica,sans-Serif" font-size="10.00">+ getAllCombinations()</text>
<text text-anchor="start" x="8" y="-95.5" font-family="Helvetica,sans-Serif" font-size="10.00">+ toString()</text>
<text text-anchor="start" x="8" y="-84.5" font-family="Helvetica,sans-Serif" font-size="10.00">+ toString()</text>
<text text-anchor="start" x="8" y="-73.5" font-family="Helvetica,sans-Serif" font-size="10.00">+ toString()</text>
<text text-anchor="start" x="8" y="-62.5" font-family="Helvetica,sans-Serif" font-size="10.00">+ makeAllCombinations()</text>
<text text-anchor="start" x="8" y="-51.5" font-family="Helvetica,sans-Serif" font-size="10.00">+ main()</text>
<text text-anchor="start" x="8" y="-40.5" font-family="Helvetica,sans-Serif" font-size="10.00"># Combinations()</text>
<text text-anchor="start" x="8" y="-29.5" font-family="Helvetica,sans-Serif" font-size="10.00"># generateBVRecursively()</text>
<text text-anchor="start" x="8" y="-18.5" font-family="Helvetica,sans-Serif" font-size="10.00"># getCount()</text>
<text text-anchor="start" x="8" y="-7.5" font-family="Helvetica,sans-Serif" font-size="10.00"># getTotal()</text>
</g>
<!-- Node2 -->
<g id="node2" class="node"><title>Node2</title>
<polygon fill="none" stroke="#bfbfbf" points="19.5,-237.5 19.5,-294.5 72.5,-294.5 72.5,-237.5 19.5,-237.5"/>
<text text-anchor="middle" x="46" y="-282.5" font-family="Helvetica,sans-Serif" font-size="10.00">Random</text>
<polyline fill="none" stroke="#bfbfbf" points="19.5,-275.5 72.5,-275.5 "/>
<text text-anchor="middle" x="46" y="-263.5" font-family="Helvetica,sans-Serif" font-size="10.00"> </text>
<polyline fill="none" stroke="#bfbfbf" points="19.5,-256.5 72.5,-256.5 "/>
<text text-anchor="middle" x="46" y="-244.5" font-family="Helvetica,sans-Serif" font-size="10.00"> </text>
</g>
<!-- Node2&#45;&gt;Node1 -->
<g id="edge1" class="edge"><title>Node2&#45;&gt;Node1</title>
<path fill="none" stroke="#404040" d="M47.7626,-237.278C48.6634,-227.915 50.0074,-217.444 52,-208 52.4546,-205.845 52.9347,-203.674 53.4375,-201.49"/>
<polygon fill="none" stroke="#404040" points="53.4637,-201.383 51.0096,-194.602 56.3248,-189.729 58.7789,-196.509 53.4637,-201.383"/>
<text text-anchor="middle" x="80.5" y="-211" font-family="Helvetica,sans-Serif" font-size="10.00"> &#45;_RANDOM</text>
</g>
<!-- Node3 -->
<g id="node3" class="node"><title>Node3</title>
<polygon fill="none" stroke="#bfbfbf" points="91,-237.5 91,-294.5 181,-294.5 181,-237.5 91,-237.5"/>
<text text-anchor="middle" x="136" y="-282.5" font-family="Helvetica,sans-Serif" font-size="10.00">Vector&lt; BitSet &gt;</text>
<polyline fill="none" stroke="#bfbfbf" points="91,-275.5 181,-275.5 "/>
<text text-anchor="middle" x="136" y="-263.5" font-family="Helvetica,sans-Serif" font-size="10.00"> </text>
<polyline fill="none" stroke="#bfbfbf" points="91,-256.5 181,-256.5 "/>
<text text-anchor="middle" x="136" y="-244.5" font-family="Helvetica,sans-Serif" font-size="10.00"> </text>
</g>
<!-- Node3&#45;&gt;Node1 -->
<g id="edge2" class="edge"><title>Node3&#45;&gt;Node1</title>
<path fill="none" stroke="#404040" d="M128.181,-237.471C125.243,-227.126 121.699,-214.649 117.949,-201.444"/>
<polygon fill="none" stroke="#404040" points="117.888,-201.23 112.401,-196.552 114.609,-189.687 120.096,-194.366 117.888,-201.23"/>
<text text-anchor="middle" x="163" y="-211" font-family="Helvetica,sans-Serif" font-size="10.00"> &#45;_allCombinations</text>
</g>
<!-- Node4 -->
<g id="node4" class="node"><title>Node4</title>
<polygon fill="none" stroke="#bfbfbf" points="113.5,-342.5 113.5,-399.5 158.5,-399.5 158.5,-342.5 113.5,-342.5"/>
<text text-anchor="middle" x="136" y="-387.5" font-family="Helvetica,sans-Serif" font-size="10.00">Vector</text>
<polyline fill="none" stroke="#bfbfbf" points="113.5,-380.5 158.5,-380.5 "/>
<text text-anchor="middle" x="136" y="-368.5" font-family="Helvetica,sans-Serif" font-size="10.00"> </text>
<polyline fill="none" stroke="#bfbfbf" points="113.5,-361.5 158.5,-361.5 "/>
<text text-anchor="middle" x="136" y="-349.5" font-family="Helvetica,sans-Serif" font-size="10.00"> </text>
</g>
<!-- Node4&#45;&gt;Node3 -->
<g id="edge3" class="edge"><title>Node4&#45;&gt;Node3</title>
<path fill="none" stroke="orange" d="M136,-332.286C136,-319.839 136,-306.233 136,-294.678"/>
<polygon fill="orange" stroke="orange" points="132.5,-332.398 136,-342.398 139.5,-332.398 132.5,-332.398"/>
<text text-anchor="middle" x="160.5" y="-316" font-family="Helvetica,sans-Serif" font-size="10.00"> &lt; BitSet &gt;</text>
</g>
</g>
</svg>
