<?xml version="1.0" encoding="UTF-8" standalone="no"?>
<!DOCTYPE svg PUBLIC "-//W3C//DTD SVG 1.1//EN"
 "http://www.w3.org/Graphics/SVG/1.1/DTD/svg11.dtd">
<!-- Generated by graphviz version 2.38.0 (20140413.2041)
 -->
<!-- Title: org.msrg.raccoon.matrix.finitefields.FFByteMatrixTest Pages: 1 -->
<svg width="181pt" height="193pt"
 viewBox="0.00 0.00 181.00 193.00" xmlns="http://www.w3.org/2000/svg" xmlns:xlink="http://www.w3.org/1999/xlink">
<g id="graph0" class="graph" transform="scale(1 1) rotate(0) translate(4 189)">
<title>org.msrg.raccoon.matrix.finitefields.FFByteMatrixTest</title>
<!-- Node2 -->
<g id="node1" class="node"><title>Node2</title>
<polygon fill="#bfbfbf" stroke="black" points="0,-0.5 0,-90.5 173,-90.5 173,-0.5 0,-0.5"/>
<text text-anchor="start" x="8" y="-78.5" font-family="Helvetica,sans-Serif" font-size="10.00">org.msrg.raccoon.matrix.finitefields.</text>
<text text-anchor="middle" x="86.5" y="-67.5" font-family="Helvetica,sans-Serif" font-size="10.00">FFByteMatrixTest</text>
<polyline fill="none" stroke="black" points="0,-60.5 173,-60.5 "/>
<text text-anchor="start" x="8" y="-48.5" font-family="Helvetica,sans-Serif" font-size="10.00">~ matrixSize</text>
<polyline fill="none" stroke="black" points="0,-41.5 173,-41.5 "/>
<text text-anchor="start" x="8" y="-29.5" font-family="Helvetica,sans-Serif" font-size="10.00">+ setUp()</text>
<text text-anchor="start" x="8" y="-18.5" font-family="Helvetica,sans-Serif" font-size="10.00">+ testM2timesInvIsM()</text>
<text text-anchor="start" x="8" y="-7.5" font-family="Helvetica,sans-Serif" font-size="10.00">+ testMtimesMInvIsIdentity()</text>
</g>
<!-- Node3 -->
<g id="node2" class="node"><title>Node3</title>
<polygon fill="none" stroke="#bfbfbf" points="57,-127.5 57,-184.5 116,-184.5 116,-127.5 57,-127.5"/>
<text text-anchor="middle" x="86.5" y="-172.5" font-family="Helvetica,sans-Serif" font-size="10.00">TestCase</text>
<polyline fill="none" stroke="#bfbfbf" points="57,-165.5 116,-165.5 "/>
<text text-anchor="middle" x="86.5" y="-153.5" font-family="Helvetica,sans-Serif" font-size="10.00"> </text>
<polyline fill="none" stroke="#bfbfbf" points="57,-146.5 116,-146.5 "/>
<text text-anchor="middle" x="86.5" y="-134.5" font-family="Helvetica,sans-Serif" font-size="10.00"> </text>
</g>
<!-- Node3&#45;&gt;Node2 -->
<g id="edge1" class="edge"><title>Node3&#45;&gt;Node2</title>
<path fill="none" stroke="midnightblue" d="M86.5,-117.214C86.5,-108.609 86.5,-99.3943 86.5,-90.5541"/>
<polygon fill="none" stroke="midnightblue" points="83.0001,-117.34 86.5,-127.34 90.0001,-117.34 83.0001,-117.34"/>
</g>
</g>
</svg>
