<?xml version="1.0" encoding="UTF-8" standalone="no"?>
<!DOCTYPE svg PUBLIC "-//W3C//DTD SVG 1.1//EN"
 "http://www.w3.org/Graphics/SVG/1.1/DTD/svg11.dtd">
<!-- Generated by graphviz version 2.38.0 (20140413.2041)
 -->
<!-- Title: org.msrg.raccoon.engine.CodingEngineEvent_SequentialCodingTaskEvents Pages: 1 -->
<svg width="350pt" height="342pt"
 viewBox="0.00 0.00 350.00 342.00" xmlns="http://www.w3.org/2000/svg" xmlns:xlink="http://www.w3.org/1999/xlink">
<g id="graph0" class="graph" transform="scale(1 1) rotate(0) translate(4 338)">
<title>org.msrg.raccoon.engine.CodingEngineEvent_SequentialCodingTaskEvents</title>
<!-- Node0 -->
<g id="node1" class="node"><title>Node0</title>
<polygon fill="#bfbfbf" stroke="black" points="90,-127.5 90,-217.5 252,-217.5 252,-127.5 90,-127.5"/>
<text text-anchor="start" x="98" y="-205.5" font-family="Helvetica,sans-Serif" font-size="10.00">org.msrg.raccoon.engine.</text>
<text text-anchor="start" x="98" y="-194.5" font-family="Helvetica,sans-Serif" font-size="10.00">CodingEngineEvent_Sequential</text>
<text text-anchor="middle" x="171" y="-183.5" font-family="Helvetica,sans-Serif" font-size="10.00">CodingTaskEvents</text>
<polyline fill="none" stroke="black" points="90,-176.5 252,-176.5 "/>
<text text-anchor="start" x="98" y="-164.5" font-family="Helvetica,sans-Serif" font-size="10.00">+ _seqCodingTask</text>
<polyline fill="none" stroke="black" points="90,-157.5 252,-157.5 "/>
<text text-anchor="start" x="98" y="-145.5" font-family="Helvetica,sans-Serif" font-size="10.00"># CodingEngineEvent_Sequential</text>
<text text-anchor="start" x="98" y="-134.5" font-family="Helvetica,sans-Serif" font-size="10.00">CodingTaskEvents()</text>
</g>
<!-- Node2 -->
<g id="node3" class="node"><title>Node2</title>
<g id="a_node3"><a xlink:href="../../d9/da7/classorg_1_1msrg_1_1raccoon_1_1engine_1_1CodingEngineEvent__SequentialCodingTaskFailed.html" target="_top" xlink:title="{org.msrg.raccoon.engine.\lCodingEngineEvent_Sequential\lCodingTaskFailed\n||# CodingEngineEvent_Sequential\lCodingTaskFailed()\l}">
<polygon fill="none" stroke="black" points="0,-0.5 0,-90.5 162,-90.5 162,-0.5 0,-0.5"/>
<text text-anchor="start" x="8" y="-78.5" font-family="Helvetica,sans-Serif" font-size="10.00">org.msrg.raccoon.engine.</text>
<text text-anchor="start" x="8" y="-67.5" font-family="Helvetica,sans-Serif" font-size="10.00">CodingEngineEvent_Sequential</text>
<text text-anchor="middle" x="81" y="-56.5" font-family="Helvetica,sans-Serif" font-size="10.00">CodingTaskFailed</text>
<polyline fill="none" stroke="black" points="0,-49.5 162,-49.5 "/>
<text text-anchor="middle" x="81" y="-37.5" font-family="Helvetica,sans-Serif" font-size="10.00"> </text>
<polyline fill="none" stroke="black" points="0,-30.5 162,-30.5 "/>
<text text-anchor="start" x="8" y="-18.5" font-family="Helvetica,sans-Serif" font-size="10.00"># CodingEngineEvent_Sequential</text>
<text text-anchor="start" x="8" y="-7.5" font-family="Helvetica,sans-Serif" font-size="10.00">CodingTaskFailed()</text>
</a>
</g>
</g>
<!-- Node0&#45;&gt;Node2 -->
<g id="edge2" class="edge"><title>Node0&#45;&gt;Node2</title>
<path fill="none" stroke="midnightblue" d="M133.329,-119.179C126.482,-109.669 119.402,-99.8367 112.747,-90.5937"/>
<polygon fill="none" stroke="midnightblue" points="130.586,-121.359 139.269,-127.43 136.267,-117.269 130.586,-121.359"/>
</g>
<!-- Node3 -->
<g id="node4" class="node"><title>Node3</title>
<g id="a_node4"><a xlink:href="../../d0/d5d/classorg_1_1msrg_1_1raccoon_1_1engine_1_1CodingEngineEvent__SequentialCodingTaskFinished.html" target="_top" xlink:title="{org.msrg.raccoon.engine.\lCodingEngineEvent_Sequential\lCodingTaskFinished\n||# CodingEngineEvent_Sequential\lCodingTaskFinished()\l}">
<polygon fill="none" stroke="black" points="180,-0.5 180,-90.5 342,-90.5 342,-0.5 180,-0.5"/>
<text text-anchor="start" x="188" y="-78.5" font-family="Helvetica,sans-Serif" font-size="10.00">org.msrg.raccoon.engine.</text>
<text text-anchor="start" x="188" y="-67.5" font-family="Helvetica,sans-Serif" font-size="10.00">CodingEngineEvent_Sequential</text>
<text text-anchor="middle" x="261" y="-56.5" font-family="Helvetica,sans-Serif" font-size="10.00">CodingTaskFinished</text>
<polyline fill="none" stroke="black" points="180,-49.5 342,-49.5 "/>
<text text-anchor="middle" x="261" y="-37.5" font-family="Helvetica,sans-Serif" font-size="10.00"> </text>
<polyline fill="none" stroke="black" points="180,-30.5 342,-30.5 "/>
<text text-anchor="start" x="188" y="-18.5" font-family="Helvetica,sans-Serif" font-size="10.00"># CodingEngineEvent_Sequential</text>
<text text-anchor="start" x="188" y="-7.5" font-family="Helvetica,sans-Serif" font-size="10.00">CodingTaskFinished()</text>
</a>
</g>
</g>
<!-- Node0&#45;&gt;Node3 -->
<g id="edge3" class="edge"><title>Node0&#45;&gt;Node3</title>
<path fill="none" stroke="midnightblue" d="M208.671,-119.179C215.518,-109.669 222.598,-99.8367 229.253,-90.5937"/>
<polygon fill="none" stroke="midnightblue" points="205.733,-117.269 202.731,-127.43 211.414,-121.359 205.733,-117.269"/>
</g>
<!-- Node1 -->
<g id="node2" class="node"><title>Node1</title>
<g id="a_node2"><a xlink:href="../../d3/db5/classorg_1_1msrg_1_1raccoon_1_1engine_1_1CodingEngineEvent.html" target="_top" xlink:title="{org.msrg.raccoon.engine.\lCodingEngineEvent\n|+ _eventType\l|+ toString()\l# CodingEngineEvent()\l}">
<polygon fill="none" stroke="black" points="107.5,-254.5 107.5,-333.5 234.5,-333.5 234.5,-254.5 107.5,-254.5"/>
<text text-anchor="start" x="115.5" y="-321.5" font-family="Helvetica,sans-Serif" font-size="10.00">org.msrg.raccoon.engine.</text>
<text text-anchor="middle" x="171" y="-310.5" font-family="Helvetica,sans-Serif" font-size="10.00">CodingEngineEvent</text>
<polyline fill="none" stroke="black" points="107.5,-303.5 234.5,-303.5 "/>
<text text-anchor="start" x="115.5" y="-291.5" font-family="Helvetica,sans-Serif" font-size="10.00">+ _eventType</text>
<polyline fill="none" stroke="black" points="107.5,-284.5 234.5,-284.5 "/>
<text text-anchor="start" x="115.5" y="-272.5" font-family="Helvetica,sans-Serif" font-size="10.00">+ toString()</text>
<text text-anchor="start" x="115.5" y="-261.5" font-family="Helvetica,sans-Serif" font-size="10.00"># CodingEngineEvent()</text>
</a>
</g>
</g>
<!-- Node1&#45;&gt;Node0 -->
<g id="edge1" class="edge"><title>Node1&#45;&gt;Node0</title>
<path fill="none" stroke="midnightblue" d="M171,-244.187C171,-235.491 171,-226.476 171,-217.911"/>
<polygon fill="none" stroke="midnightblue" points="167.5,-244.202 171,-254.202 174.5,-244.202 167.5,-244.202"/>
</g>
</g>
</svg>
