<?xml version="1.0" encoding="UTF-8" standalone="no"?>
<!DOCTYPE svg PUBLIC "-//W3C//DTD SVG 1.1//EN"
 "http://www.w3.org/Graphics/SVG/1.1/DTD/svg11.dtd">
<!-- Generated by graphviz version 2.38.0 (20140413.2041)
 -->
<!-- Title: org.msrg.raccoon.matrix.bulk.BulkMatrix.getByte Pages: 1 -->
<svg width="351pt" height="88pt"
 viewBox="0.00 0.00 351.00 88.00" xmlns="http://www.w3.org/2000/svg" xmlns:xlink="http://www.w3.org/1999/xlink">
<g id="graph0" class="graph" transform="scale(1 1) rotate(0) translate(4 84)">
<title>org.msrg.raccoon.matrix.bulk.BulkMatrix.getByte</title>
<!-- Node1 -->
<g id="node1" class="node"><title>Node1</title>
<polygon fill="#bfbfbf" stroke="black" points="0,-24.5 0,-54.5 146,-54.5 146,-24.5 0,-24.5"/>
<text text-anchor="start" x="8" y="-42.5" font-family="Helvetica,sans-Serif" font-size="10.00">org.msrg.raccoon.matrix.bulk.</text>
<text text-anchor="middle" x="73" y="-31.5" font-family="Helvetica,sans-Serif" font-size="10.00">BulkMatrix.getByte</text>
</g>
<!-- Node2 -->
<g id="node2" class="node"><title>Node2</title>
<g id="a_node2"><a xlink:href="../../dd/da2/classorg_1_1msrg_1_1raccoon_1_1CodedBatch_a278ce8de1db74d107ffd3e449fc3717e.html#a278ce8de1db74d107ffd3e449fc3717e" target="_top" xlink:title="org.msrg.raccoon.CodedBatch.to\lString">
<polygon fill="none" stroke="black" points="182,-49.5 182,-79.5 343,-79.5 343,-49.5 182,-49.5"/>
<text text-anchor="start" x="190" y="-67.5" font-family="Helvetica,sans-Serif" font-size="10.00">org.msrg.raccoon.CodedBatch.to</text>
<text text-anchor="middle" x="262.5" y="-56.5" font-family="Helvetica,sans-Serif" font-size="10.00">String</text>
</a>
</g>
</g>
<!-- Node1&#45;&gt;Node2 -->
<g id="edge1" class="edge"><title>Node1&#45;&gt;Node2</title>
<path fill="none" stroke="midnightblue" d="M156.154,-50.4539C164.679,-51.5905 173.333,-52.7444 181.83,-53.8773"/>
<polygon fill="midnightblue" stroke="midnightblue" points="156.599,-46.9823 146.224,-49.1299 155.674,-53.9209 156.599,-46.9823"/>
</g>
<!-- Node3 -->
<g id="node3" class="node"><title>Node3</title>
<g id="a_node3"><a xlink:href="../../da/df0/classorg_1_1msrg_1_1raccoon_1_1ReceivedCodedBatch_aa20f61989dc946caf00948bd99bb8fda.html#aa20f61989dc946caf00948bd99bb8fda" target="_top" xlink:title="org.msrg.raccoon.Received\lCodedBatch.toString">
<polygon fill="none" stroke="black" points="194,-0.5 194,-30.5 331,-30.5 331,-0.5 194,-0.5"/>
<text text-anchor="start" x="202" y="-18.5" font-family="Helvetica,sans-Serif" font-size="10.00">org.msrg.raccoon.Received</text>
<text text-anchor="middle" x="262.5" y="-7.5" font-family="Helvetica,sans-Serif" font-size="10.00">CodedBatch.toString</text>
</a>
</g>
</g>
<!-- Node1&#45;&gt;Node3 -->
<g id="edge2" class="edge"><title>Node1&#45;&gt;Node3</title>
<path fill="none" stroke="midnightblue" d="M156.243,-28.9729C168.832,-27.3614 181.703,-25.714 193.928,-24.1492"/>
<polygon fill="midnightblue" stroke="midnightblue" points="155.699,-25.5139 146.224,-30.2553 156.588,-32.4573 155.699,-25.5139"/>
</g>
</g>
</svg>
