<?xml version="1.0" encoding="UTF-8" standalone="no"?>
<!DOCTYPE svg PUBLIC "-//W3C//DTD SVG 1.1//EN"
 "http://www.w3.org/Graphics/SVG/1.1/DTD/svg11.dtd">
<!-- Generated by graphviz version 2.38.0 (20140413.2041)
 -->
<!-- Title: org.msrg.raccoon.matrix.bulk.BulkMatrix.equals Pages: 1 -->
<!--zoomable 235 -->
<svg id="main" version="1.1" xmlns="http://www.w3.org/2000/svg" xmlns:xlink="http://www.w3.org/1999/xlink" xml:space="preserve" onload="init(evt)">
<style type="text/css"><![CDATA[
.edge:hover path { stroke: red; }
.edge:hover polygon { stroke: red; fill: red; }
]]></style>
<script type="text/javascript"><![CDATA[
var edges = document.getElementsByTagName('g');
if (edges && edges.length) {
  for (var i=0;i<edges.length;i++) {
    if (edges[i].id.substr(0,4)=='edge') {
      edges[i].setAttribute('class','edge');
    }
  }
}
]]></script>
        <defs>
                <circle id="rim" cx="0" cy="0" r="7"/>
                <circle id="rim2" cx="0" cy="0" r="3.5"/>
                <g id="zoomPlus">
                        <use xlink:href="#rim" fill="#404040">
                                <set attributeName="fill" to="#808080" begin="zoomplus.mouseover" end="zoomplus.mouseout"/>
                        </use>
                        <path d="M-4,0h8M0,-4v8" fill="none" stroke="white" stroke-width="1.5" pointer-events="none"/>
                </g>
                <g id="zoomMin">
                        <use xlink:href="#rim" fill="#404040">
                                <set attributeName="fill" to="#808080" begin="zoomminus.mouseover" end="zoomminus.mouseout"/>
                        </use>
                        <path d="M-4,0h8" fill="none" stroke="white" stroke-width="1.5" pointer-events="none"/>
                </g>
                <g id="dirArrow">
                        <path fill="none" stroke="white" stroke-width="1.5" d="M0,-3.0v7 M-2.5,-0.5L0,-3.0L2.5,-0.5"/>
                </g>
               <g id="resetDef">
                       <use xlink:href="#rim2" fill="#404040">
                               <set attributeName="fill" to="#808080" begin="reset.mouseover" end="reset.mouseout"/>
                       </use>
               </g>
        </defs>

<script type="text/javascript">
var viewWidth = 838;
var viewHeight = 235;
var sectionId = 'dynsection-1';
</script>
<script xlink:href="../../svgpan.js"/>
<svg id="graph" class="graph">
<g id="viewport">
<title>org.msrg.raccoon.matrix.bulk.BulkMatrix.equals</title>
<!-- Node3 -->
<g id="node1" class="node"><title>Node3</title>
<polygon fill="#bfbfbf" stroke="black" points="0,-88 0,-118 146,-118 146,-88 0,-88"/>
<text text-anchor="start" x="8" y="-106" font-family="Helvetica,sans-Serif" font-size="10.00">org.msrg.raccoon.matrix.bulk.</text>
<text text-anchor="middle" x="73" y="-95" font-family="Helvetica,sans-Serif" font-size="10.00">BulkMatrix.equals</text>
</g>
<!-- Node4 -->
<g id="node2" class="node"><title>Node4</title>
<g id="a_node2"><a xlink:href="../../dd/da2/classorg_1_1msrg_1_1raccoon_1_1CodedBatch_a0f775cb64db97a1e67680d072ae4c202.html#a0f775cb64db97a1e67680d072ae4c202" target="_top" xlink:title="org.msrg.raccoon.CodedBatch.equals\lExact">
<polygon fill="none" stroke="black" points="201,-171 201,-201 382,-201 382,-171 201,-171"/>
<text text-anchor="start" x="209" y="-189" font-family="Helvetica,sans-Serif" font-size="10.00">org.msrg.raccoon.CodedBatch.equals</text>
<text text-anchor="middle" x="291.5" y="-178" font-family="Helvetica,sans-Serif" font-size="10.00">Exact</text>
</a>
</g>
</g>
<!-- Node3&#45;&gt;Node4 -->
<g id="edge1" class="edge"><title>Node3&#45;&gt;Node4</title>
<path fill="none" stroke="midnightblue" d="M106.358,-123.325C127.272,-135.708 155.45,-151.017 182,-161 192.042,-164.776 202.829,-168.089 213.567,-170.964"/>
<polygon fill="midnightblue" stroke="midnightblue" points="107.953,-120.2 97.5788,-118.046 104.345,-126.199 107.953,-120.2"/>
</g>
<!-- Node8 -->
<g id="node6" class="node"><title>Node8</title>
<g id="a_node6"><a xlink:href="../../dc/dcf/classorg_1_1msrg_1_1raccoon_1_1engine_1_1CodingEngineTest_af8b30ec26e68febeddd3f3ff75a13555.html#af8b30ec26e68febeddd3f3ff75a13555" target="_top" xlink:title="org.msrg.raccoon.engine.\lCodingEngineTest.processFinished\lResult">
<polygon fill="none" stroke="black" points="206,-110.5 206,-151.5 377,-151.5 377,-110.5 206,-110.5"/>
<text text-anchor="start" x="214" y="-139.5" font-family="Helvetica,sans-Serif" font-size="10.00">org.msrg.raccoon.engine.</text>
<text text-anchor="start" x="214" y="-128.5" font-family="Helvetica,sans-Serif" font-size="10.00">CodingEngineTest.processFinished</text>
<text text-anchor="middle" x="291.5" y="-117.5" font-family="Helvetica,sans-Serif" font-size="10.00">Result</text>
</a>
</g>
</g>
<!-- Node3&#45;&gt;Node8 -->
<g id="edge5" class="edge"><title>Node3&#45;&gt;Node8</title>
<path fill="none" stroke="midnightblue" d="M156.123,-113.621C172.433,-115.73 189.584,-117.948 205.972,-120.068"/>
<polygon fill="midnightblue" stroke="midnightblue" points="156.458,-110.135 146.091,-112.324 155.56,-117.077 156.458,-110.135"/>
</g>
<!-- Node10 -->
<g id="node8" class="node"><title>Node10</title>
<g id="a_node8"><a xlink:href="../../d5/d96/classorg_1_1msrg_1_1raccoon_1_1matrix_1_1finitefields_1_1ByteMatrixTest_ac60808b559cdc155d008f0d650fe5c34.html#ac60808b559cdc155d008f0d650fe5c34" target="_top" xlink:title="org.msrg.raccoon.matrix.finitefields.\lByteMatrixTest.testMtimesBMtimesInvMIsBM">
<polygon fill="none" stroke="black" points="182,-61 182,-91 401,-91 401,-61 182,-61"/>
<text text-anchor="start" x="190" y="-79" font-family="Helvetica,sans-Serif" font-size="10.00">org.msrg.raccoon.matrix.finitefields.</text>
<text text-anchor="middle" x="291.5" y="-68" font-family="Helvetica,sans-Serif" font-size="10.00">ByteMatrixTest.testMtimesBMtimesInvMIsBM</text>
</a>
</g>
</g>
<!-- Node3&#45;&gt;Node10 -->
<g id="edge7" class="edge"><title>Node3&#45;&gt;Node10</title>
<path fill="none" stroke="midnightblue" d="M156.15,-92.755C164.497,-91.7139 173.065,-90.6455 181.638,-89.5763"/>
<polygon fill="midnightblue" stroke="midnightblue" points="155.581,-89.2987 146.091,-94.0094 156.448,-96.2449 155.581,-89.2987"/>
</g>
<!-- Node11 -->
<g id="node9" class="node"><title>Node11</title>
<g id="a_node9"><a xlink:href="../../db/d26/classorg_1_1msrg_1_1raccoon_1_1ReceivedCodedBatchTest_af7c8b12bc8b1dc5d9c5e353b838d830d.html#af7c8b12bc8b1dc5d9c5e353b838d830d" target="_top" xlink:title="org.msrg.raccoon.Received\lCodedBatchTest.ttestEncodingDecoding\lReceivedCodedBatch">
<polygon fill="none" stroke="black" points="194.5,-0.5 194.5,-41.5 388.5,-41.5 388.5,-0.5 194.5,-0.5"/>
<text text-anchor="start" x="202.5" y="-29.5" font-family="Helvetica,sans-Serif" font-size="10.00">org.msrg.raccoon.Received</text>
<text text-anchor="start" x="202.5" y="-18.5" font-family="Helvetica,sans-Serif" font-size="10.00">CodedBatchTest.ttestEncodingDecoding</text>
<text text-anchor="middle" x="291.5" y="-7.5" font-family="Helvetica,sans-Serif" font-size="10.00">ReceivedCodedBatch</text>
</a>
</g>
</g>
<!-- Node3&#45;&gt;Node11 -->
<g id="edge8" class="edge"><title>Node3&#45;&gt;Node11</title>
<path fill="none" stroke="midnightblue" d="M111.762,-83.3117C132.205,-73.1302 158.101,-60.9887 182,-52 191.81,-48.3104 202.258,-44.809 212.65,-41.5783"/>
<polygon fill="midnightblue" stroke="midnightblue" points="110.139,-80.2105 102.781,-87.8333 113.286,-86.4629 110.139,-80.2105"/>
</g>
<!-- Node5 -->
<g id="node3" class="node"><title>Node5</title>
<g id="a_node3"><a xlink:href="../../dd/da2/classorg_1_1msrg_1_1raccoon_1_1CodedBatch_aecd891a0b0992dcc4f97bb4c7d39a2ed.html#aecd891a0b0992dcc4f97bb4c7d39a2ed" target="_top" xlink:title="org.msrg.raccoon.CodedBatch.equals">
<polygon fill="none" stroke="black" points="437,-176.5 437,-195.5 618,-195.5 618,-176.5 437,-176.5"/>
<text text-anchor="middle" x="527.5" y="-183.5" font-family="Helvetica,sans-Serif" font-size="10.00">org.msrg.raccoon.CodedBatch.equals</text>
</a>
</g>
</g>
<!-- Node4&#45;&gt;Node5 -->
<g id="edge2" class="edge"><title>Node4&#45;&gt;Node5</title>
<path fill="none" stroke="midnightblue" d="M392.462,-186C407.24,-186 422.39,-186 436.939,-186"/>
<polygon fill="midnightblue" stroke="midnightblue" points="392.301,-182.5 382.301,-186 392.301,-189.5 392.301,-182.5"/>
</g>
<!-- Node6 -->
<g id="node4" class="node"><title>Node6</title>
<g id="a_node4"><a xlink:href="../../db/d77/classorg_1_1msrg_1_1raccoon_1_1CodedBatchTest_a04baac235b53bea4fab4b550de9271a5.html#a04baac235b53bea4fab4b550de9271a5" target="_top" xlink:title="org.msrg.raccoon.CodedBatch\lTest.testReceivedCodedBatch">
<polygon fill="none" stroke="black" points="666.5,-196 666.5,-226 817.5,-226 817.5,-196 666.5,-196"/>
<text text-anchor="start" x="674.5" y="-214" font-family="Helvetica,sans-Serif" font-size="10.00">org.msrg.raccoon.CodedBatch</text>
<text text-anchor="middle" x="742" y="-203" font-family="Helvetica,sans-Serif" font-size="10.00">Test.testReceivedCodedBatch</text>
</a>
</g>
</g>
<!-- Node5&#45;&gt;Node6 -->
<g id="edge3" class="edge"><title>Node5&#45;&gt;Node6</title>
<path fill="none" stroke="midnightblue" d="M619.589,-196.716C635.147,-198.547 651.147,-200.429 666.219,-202.202"/>
<polygon fill="midnightblue" stroke="midnightblue" points="619.784,-193.215 609.443,-195.523 618.966,-200.167 619.784,-193.215"/>
</g>
<!-- Node7 -->
<g id="node5" class="node"><title>Node7</title>
<g id="a_node5"><a xlink:href="../../d7/d47/classorg_1_1msrg_1_1raccoon_1_1SlicedCodedBatchTest_aa7d0bdfa77013b46a1f2e416dbb71b8c.html#aa7d0bdfa77013b46a1f2e416dbb71b8c" target="_top" xlink:title="org.msrg.raccoon.SlicedCoded\lBatchTest.testReceivedCodedBatch">
<polygon fill="none" stroke="black" points="654,-147 654,-177 830,-177 830,-147 654,-147"/>
<text text-anchor="start" x="662" y="-165" font-family="Helvetica,sans-Serif" font-size="10.00">org.msrg.raccoon.SlicedCoded</text>
<text text-anchor="middle" x="742" y="-154" font-family="Helvetica,sans-Serif" font-size="10.00">BatchTest.testReceivedCodedBatch</text>
</a>
</g>
</g>
<!-- Node5&#45;&gt;Node7 -->
<g id="edge4" class="edge"><title>Node5&#45;&gt;Node7</title>
<path fill="none" stroke="midnightblue" d="M622.95,-175.333C633.172,-174.178 643.542,-173.007 653.675,-171.863"/>
<polygon fill="midnightblue" stroke="midnightblue" points="622.335,-171.88 612.791,-176.48 623.12,-178.836 622.335,-171.88"/>
</g>
<!-- Node9 -->
<g id="node7" class="node"><title>Node9</title>
<g id="a_node7"><a xlink:href="../../dc/dcf/classorg_1_1msrg_1_1raccoon_1_1engine_1_1CodingEngineTest_a312467d37f3faa057e1deaaeb5f527a4.html#a312467d37f3faa057e1deaaeb5f527a4" target="_top" xlink:title="org.msrg.raccoon.engine.\lCodingEngineTest.codingFinished">
<polygon fill="none" stroke="black" points="445,-116 445,-146 610,-146 610,-116 445,-116"/>
<text text-anchor="start" x="453" y="-134" font-family="Helvetica,sans-Serif" font-size="10.00">org.msrg.raccoon.engine.</text>
<text text-anchor="middle" x="527.5" y="-123" font-family="Helvetica,sans-Serif" font-size="10.00">CodingEngineTest.codingFinished</text>
</a>
</g>
</g>
<!-- Node8&#45;&gt;Node9 -->
<g id="edge6" class="edge"><title>Node8&#45;&gt;Node9</title>
<path fill="none" stroke="midnightblue" d="M387.455,-131C406.437,-131 426.223,-131 444.715,-131"/>
<polygon fill="midnightblue" stroke="midnightblue" points="387.31,-127.5 377.31,-131 387.31,-134.5 387.31,-127.5"/>
</g>
</g>
</svg>
        <g id="navigator" transform="translate(0 0)" fill="#404254">
                <rect fill="#f2f5e9" fill-opacity="0.5" stroke="#606060" stroke-width=".5" x="0" y="0" width="60" height="60"/>
                <use id="zoomplus" xlink:href="#zoomPlus" x="17" y="9" onmousedown="handleZoom(evt,'in')"/>
                <use id="zoomminus" xlink:href="#zoomMin" x="42" y="9" onmousedown="handleZoom(evt,'out')"/>
                <use id="reset" xlink:href="#resetDef" x="30" y="36" onmousedown="handleReset()"/>
                <g id="arrowUp" xlink:href="#dirArrow" transform="translate(30 24)" onmousedown="handlePan(0,-1)">
                  <use xlink:href="#rim" fill="#404040">
                        <set attributeName="fill" to="#808080" begin="arrowUp.mouseover" end="arrowUp.mouseout"/>
                  </use>
                  <path fill="none" stroke="white" stroke-width="1.5" d="M0,-3.0v7 M-2.5,-0.5L0,-3.0L2.5,-0.5"/>
                </g>
                <g id="arrowRight" xlink:href="#dirArrow" transform="rotate(90) translate(36 -43)" onmousedown="handlePan(1,0)">
                  <use xlink:href="#rim" fill="#404040">
                        <set attributeName="fill" to="#808080" begin="arrowRight.mouseover" end="arrowRight.mouseout"/>
                  </use>
                  <path fill="none" stroke="white" stroke-width="1.5" d="M0,-3.0v7 M-2.5,-0.5L0,-3.0L2.5,-0.5"/>
                </g>
                <g id="arrowDown" xlink:href="#dirArrow" transform="rotate(180) translate(-30 -48)" onmousedown="handlePan(0,1)">
                  <use xlink:href="#rim" fill="#404040">
                        <set attributeName="fill" to="#808080" begin="arrowDown.mouseover" end="arrowDown.mouseout"/>
                  </use>
                  <path fill="none" stroke="white" stroke-width="1.5" d="M0,-3.0v7 M-2.5,-0.5L0,-3.0L2.5,-0.5"/>
                </g>
                <g id="arrowLeft" xlink:href="#dirArrow" transform="rotate(270) translate(-36 17)" onmousedown="handlePan(-1,0)">
                  <use xlink:href="#rim" fill="#404040">
                        <set attributeName="fill" to="#808080" begin="arrowLeft.mouseover" end="arrowLeft.mouseout"/>
                  </use>
                  <path fill="none" stroke="white" stroke-width="1.5" d="M0,-3.0v7 M-2.5,-0.5L0,-3.0L2.5,-0.5"/>
                </g>
        </g>
        <svg viewBox="0 0 15 15" width="100%" height="30px" preserveAspectRatio="xMaxYMin meet">
         <g id="arrow_out" transform="scale(0.3 0.3)">
          <a xlink:href="classorg_1_1msrg_1_1raccoon_1_1matrix_1_1bulk_1_1BulkMatrix_af6c5f0c294627b409dff7fa2b9e7e5c3_af6c5f0c294627b409dff7fa2b9e7e5c3_icgraph_org.svg" target="_base">
           <rect id="button" ry="5" rx="5" y="6" x="6" height="38" width="38"
                fill="#f2f5e9" fill-opacity="0.5" stroke="#606060" stroke-width="1.0"/>
           <path id="arrow"
             d="M 11.500037,31.436501 C 11.940474,20.09759 22.043105,11.32322 32.158766,21.979434 L 37.068811,17.246167 C 37.068811,17.246167 37.088388,32 37.088388,32 L 22.160133,31.978069 C 22.160133,31.978069 26.997745,27.140456 26.997745,27.140456 C 18.528582,18.264221 13.291696,25.230495 11.500037,31.436501 z"
             style="fill:#404040;"/>
          </a>
         </g>
        </svg>
</svg>
