<?xml version="1.0" encoding="UTF-8" standalone="no"?>
<!DOCTYPE svg PUBLIC "-//W3C//DTD SVG 1.1//EN"
 "http://www.w3.org/Graphics/SVG/1.1/DTD/svg11.dtd">
<!-- Generated by graphviz version 2.38.0 (20140413.2041)
 -->
<!-- Title: org.msrg.raccoon.matrix.bulk.BulkMatrix.getContent Pages: 1 -->
<svg width="1339pt" height="343pt"
 viewBox="0.00 0.00 1339.00 343.00" xmlns="http://www.w3.org/2000/svg" xmlns:xlink="http://www.w3.org/1999/xlink">
<g id="graph0" class="graph" transform="scale(1 1) rotate(0) translate(4 339)">
<title>org.msrg.raccoon.matrix.bulk.BulkMatrix.getContent</title>
<!-- Node1 -->
<g id="node1" class="node"><title>Node1</title>
<polygon fill="#bfbfbf" stroke="black" points="0,-157.5 0,-187.5 146,-187.5 146,-157.5 0,-157.5"/>
<text text-anchor="start" x="8" y="-175.5" font-family="Helvetica,sans-Serif" font-size="10.00">org.msrg.raccoon.matrix.bulk.</text>
<text text-anchor="middle" x="73" y="-164.5" font-family="Helvetica,sans-Serif" font-size="10.00">BulkMatrix.getContent</text>
</g>
<!-- Node2 -->
<g id="node2" class="node"><title>Node2</title>
<g id="a_node2"><a xlink:href="../../dd/da0/classorg_1_1msrg_1_1raccoon_1_1matrix_1_1bulk_1_1BulkMatrix1D_a34a7e8583f851f75514494a440298c22.html#a34a7e8583f851f75514494a440298c22" target="_top" xlink:title="org.msrg.raccoon.matrix.bulk.\lBulkMatrix1D.createBulkMatixIncrementalData">
<polygon fill="none" stroke="black" points="182,-206.5 182,-236.5 403,-236.5 403,-206.5 182,-206.5"/>
<text text-anchor="start" x="190" y="-224.5" font-family="Helvetica,sans-Serif" font-size="10.00">org.msrg.raccoon.matrix.bulk.</text>
<text text-anchor="middle" x="292.5" y="-213.5" font-family="Helvetica,sans-Serif" font-size="10.00">BulkMatrix1D.createBulkMatixIncrementalData</text>
</a>
</g>
</g>
<!-- Node1&#45;&gt;Node2 -->
<g id="edge1" class="edge"><title>Node1&#45;&gt;Node2</title>
<path fill="none" stroke="midnightblue" d="M150.605,-189.758C174.84,-195.218 201.415,-201.205 224.891,-206.494"/>
<polygon fill="midnightblue" stroke="midnightblue" points="151.26,-186.318 140.735,-187.535 149.722,-193.147 151.26,-186.318"/>
</g>
<!-- Node3 -->
<g id="node3" class="node"><title>Node3</title>
<g id="a_node3"><a xlink:href="../../dd/d36/classorg_1_1msrg_1_1raccoon_1_1matrix_1_1finitefields_1_1ByteMatrix_a5a3c18a9905c1d33c6a992930e2b6a78.html#a5a3c18a9905c1d33c6a992930e2b6a78" target="_top" xlink:title="org.msrg.raccoon.matrix.finitefields.\lByteMatrix.multiply">
<polygon fill="none" stroke="black" points="206,-157.5 206,-187.5 379,-187.5 379,-157.5 206,-157.5"/>
<text text-anchor="start" x="214" y="-175.5" font-family="Helvetica,sans-Serif" font-size="10.00">org.msrg.raccoon.matrix.finitefields.</text>
<text text-anchor="middle" x="292.5" y="-164.5" font-family="Helvetica,sans-Serif" font-size="10.00">ByteMatrix.multiply</text>
</a>
</g>
</g>
<!-- Node1&#45;&gt;Node3 -->
<g id="edge2" class="edge"><title>Node1&#45;&gt;Node3</title>
<path fill="none" stroke="midnightblue" d="M156.143,-172.5C172.437,-172.5 189.579,-172.5 205.982,-172.5"/>
<polygon fill="midnightblue" stroke="midnightblue" points="156.122,-169 146.122,-172.5 156.122,-176 156.122,-169"/>
</g>
<!-- Node20 -->
<g id="node20" class="node"><title>Node20</title>
<g id="a_node20"><a xlink:href="../../d6/d37/classorg_1_1msrg_1_1raccoon_1_1matrix_1_1finitefields_1_1ByteMatrix1D_afdc7ff8a8726716ba954854799d35af1.html#afdc7ff8a8726716ba954854799d35af1" target="_top" xlink:title="org.msrg.raccoon.matrix.finitefields.\lByteMatrix1D.multiply1D">
<polygon fill="none" stroke="black" points="206,-54.5 206,-84.5 379,-84.5 379,-54.5 206,-54.5"/>
<text text-anchor="start" x="214" y="-72.5" font-family="Helvetica,sans-Serif" font-size="10.00">org.msrg.raccoon.matrix.finitefields.</text>
<text text-anchor="middle" x="292.5" y="-61.5" font-family="Helvetica,sans-Serif" font-size="10.00">ByteMatrix1D.multiply1D</text>
</a>
</g>
</g>
<!-- Node1&#45;&gt;Node20 -->
<g id="edge22" class="edge"><title>Node1&#45;&gt;Node20</title>
<path fill="none" stroke="midnightblue" d="M115.215,-152.982C157.192,-133.103 221.39,-102.702 259.63,-84.5926"/>
<polygon fill="midnightblue" stroke="midnightblue" points="113.633,-149.859 106.093,-157.302 116.629,-156.185 113.633,-149.859"/>
</g>
<!-- Node4 -->
<g id="node4" class="node"><title>Node4</title>
<g id="a_node4"><a xlink:href="../../dd/dfd/classorg_1_1msrg_1_1raccoon_1_1CodedPiece_a916100d89d5cbded0ba4a2d7c86727b6.html#a916100d89d5cbded0ba4a2d7c86727b6" target="_top" xlink:title="org.msrg.raccoon.CodedPiece.\lCodedPiece">
<polygon fill="none" stroke="black" points="480,-108.5 480,-138.5 632,-138.5 632,-108.5 480,-108.5"/>
<text text-anchor="start" x="488" y="-126.5" font-family="Helvetica,sans-Serif" font-size="10.00">org.msrg.raccoon.CodedPiece.</text>
<text text-anchor="middle" x="556" y="-115.5" font-family="Helvetica,sans-Serif" font-size="10.00">CodedPiece</text>
</a>
</g>
</g>
<!-- Node3&#45;&gt;Node4 -->
<g id="edge3" class="edge"><title>Node3&#45;&gt;Node4</title>
<path fill="none" stroke="midnightblue" d="M383.774,-155.584C415.096,-149.715 449.856,-143.202 479.829,-137.586"/>
<polygon fill="midnightblue" stroke="midnightblue" points="382.92,-152.183 373.736,-157.465 384.209,-159.064 382.92,-152.183"/>
</g>
<!-- Node12 -->
<g id="node12" class="node"><title>Node12</title>
<g id="a_node12"><a xlink:href="../../d4/daf/classorg_1_1msrg_1_1raccoon_1_1engine_1_1task_1_1sequential_1_1EncodingReceivedCodedBatch__SequentialCodingTask_a42110602418c15d727175229b4b8f9cb.html#a42110602418c15d727175229b4b8f9cb" target="_top" xlink:title="org.msrg.raccoon.engine.task.sequential.\lEncodingReceivedCodedBatch_SequentialCoding\lTask.runStagePrivately">
<polygon fill="none" stroke="black" points="439,-49 439,-90 673,-90 673,-49 439,-49"/>
<text text-anchor="start" x="447" y="-78" font-family="Helvetica,sans-Serif" font-size="10.00">org.msrg.raccoon.engine.task.sequential.</text>
<text text-anchor="start" x="447" y="-67" font-family="Helvetica,sans-Serif" font-size="10.00">EncodingReceivedCodedBatch_SequentialCoding</text>
<text text-anchor="middle" x="556" y="-56" font-family="Helvetica,sans-Serif" font-size="10.00">Task.runStagePrivately</text>
</a>
</g>
</g>
<!-- Node3&#45;&gt;Node12 -->
<g id="edge11" class="edge"><title>Node3&#45;&gt;Node12</title>
<path fill="none" stroke="midnightblue" d="M327.582,-152.384C356.452,-136.031 399.357,-113.319 439,-98.5 447.167,-95.4471 455.776,-92.6154 464.463,-90.0144"/>
<polygon fill="midnightblue" stroke="midnightblue" points="325.665,-149.448 318.723,-157.452 329.141,-155.524 325.665,-149.448"/>
</g>
<!-- Node13 -->
<g id="node13" class="node"><title>Node13</title>
<g id="a_node13"><a xlink:href="../../dd/d36/classorg_1_1msrg_1_1raccoon_1_1matrix_1_1finitefields_1_1ByteMatrix_a25491e8ba3b3c3e18ec2392b7393bac3.html#a25491e8ba3b3c3e18ec2392b7393bac3" target="_top" xlink:title="org.msrg.raccoon.matrix.finitefields.\lByteMatrix.multiply">
<polygon fill="none" stroke="black" points="469.5,-304.5 469.5,-334.5 642.5,-334.5 642.5,-304.5 469.5,-304.5"/>
<text text-anchor="start" x="477.5" y="-322.5" font-family="Helvetica,sans-Serif" font-size="10.00">org.msrg.raccoon.matrix.finitefields.</text>
<text text-anchor="middle" x="556" y="-311.5" font-family="Helvetica,sans-Serif" font-size="10.00">ByteMatrix.multiply</text>
</a>
</g>
</g>
<!-- Node3&#45;&gt;Node13 -->
<g id="edge12" class="edge"><title>Node3&#45;&gt;Node13</title>
<path fill="none" stroke="midnightblue" d="M388.346,-186.479C393.599,-189.288 398.543,-192.6 403,-196.5 438.233,-227.333 403.587,-264.875 439,-295.5 447.789,-303.101 458.349,-308.515 469.469,-312.339"/>
<polygon fill="midnightblue" stroke="midnightblue" points="389.786,-183.289 379.246,-182.213 386.814,-189.627 389.786,-183.289"/>
</g>
<!-- Node14 -->
<g id="node14" class="node"><title>Node14</title>
<g id="a_node14"><a xlink:href="../../d5/d96/classorg_1_1msrg_1_1raccoon_1_1matrix_1_1finitefields_1_1ByteMatrixTest_ae32ff4ec2714b4cecdb5f85253619a41.html#ae32ff4ec2714b4cecdb5f85253619a41" target="_top" xlink:title="org.msrg.raccoon.matrix.finitefields.\lByteMatrixTest.runTestM2timesInvIsM">
<polygon fill="none" stroke="black" points="462.5,-255.5 462.5,-285.5 649.5,-285.5 649.5,-255.5 462.5,-255.5"/>
<text text-anchor="start" x="470.5" y="-273.5" font-family="Helvetica,sans-Serif" font-size="10.00">org.msrg.raccoon.matrix.finitefields.</text>
<text text-anchor="middle" x="556" y="-262.5" font-family="Helvetica,sans-Serif" font-size="10.00">ByteMatrixTest.runTestM2timesInvIsM</text>
</a>
</g>
</g>
<!-- Node3&#45;&gt;Node14 -->
<g id="edge13" class="edge"><title>Node3&#45;&gt;Node14</title>
<path fill="none" stroke="midnightblue" d="M388.417,-188.603C393.509,-190.899 398.411,-193.517 403,-196.5 425.656,-211.23 416.318,-230.81 439,-245.5 446.176,-250.148 454.074,-253.945 462.271,-257.046"/>
<polygon fill="midnightblue" stroke="midnightblue" points="389.657,-185.329 379.075,-184.807 387.022,-191.814 389.657,-185.329"/>
</g>
<!-- Node17 -->
<g id="node17" class="node"><title>Node17</title>
<g id="a_node17"><a xlink:href="../../d5/d96/classorg_1_1msrg_1_1raccoon_1_1matrix_1_1finitefields_1_1ByteMatrixTest_ac60808b559cdc155d008f0d650fe5c34.html#ac60808b559cdc155d008f0d650fe5c34" target="_top" xlink:title="org.msrg.raccoon.matrix.finitefields.\lByteMatrixTest.testMtimesBMtimesInvMIsBM">
<polygon fill="none" stroke="black" points="446.5,-206.5 446.5,-236.5 665.5,-236.5 665.5,-206.5 446.5,-206.5"/>
<text text-anchor="start" x="454.5" y="-224.5" font-family="Helvetica,sans-Serif" font-size="10.00">org.msrg.raccoon.matrix.finitefields.</text>
<text text-anchor="middle" x="556" y="-213.5" font-family="Helvetica,sans-Serif" font-size="10.00">ByteMatrixTest.testMtimesBMtimesInvMIsBM</text>
</a>
</g>
</g>
<!-- Node3&#45;&gt;Node17 -->
<g id="edge16" class="edge"><title>Node3&#45;&gt;Node17</title>
<path fill="none" stroke="midnightblue" d="M383.664,-189.395C413.318,-194.952 446.064,-201.087 474.916,-206.494"/>
<polygon fill="midnightblue" stroke="midnightblue" points="384.209,-185.936 373.736,-187.535 382.92,-192.817 384.209,-185.936"/>
</g>
<!-- Node18 -->
<g id="node18" class="node"><title>Node18</title>
<g id="a_node18"><a xlink:href="../../da/df0/classorg_1_1msrg_1_1raccoon_1_1ReceivedCodedBatch_a5621d4c76e51a0ac69a179e1001e6371.html#a5621d4c76e51a0ac69a179e1001e6371" target="_top" xlink:title="org.msrg.raccoon.Received\lCodedBatch.decodeUsing">
<polygon fill="none" stroke="black" points="487.5,-157.5 487.5,-187.5 624.5,-187.5 624.5,-157.5 487.5,-157.5"/>
<text text-anchor="start" x="495.5" y="-175.5" font-family="Helvetica,sans-Serif" font-size="10.00">org.msrg.raccoon.Received</text>
<text text-anchor="middle" x="556" y="-164.5" font-family="Helvetica,sans-Serif" font-size="10.00">CodedBatch.decodeUsing</text>
</a>
</g>
</g>
<!-- Node3&#45;&gt;Node18 -->
<g id="edge17" class="edge"><title>Node3&#45;&gt;Node18</title>
<path fill="none" stroke="midnightblue" d="M389.133,-172.5C421.737,-172.5 457.488,-172.5 487.424,-172.5"/>
<polygon fill="midnightblue" stroke="midnightblue" points="389.125,-169 379.125,-172.5 389.125,-176 389.125,-169"/>
</g>
<!-- Node5 -->
<g id="node5" class="node"><title>Node5</title>
<g id="a_node5"><a xlink:href="../../dd/dfd/classorg_1_1msrg_1_1raccoon_1_1CodedPiece_acaf7264810bbdf99b73278b11ac1da72.html#acaf7264810bbdf99b73278b11ac1da72" target="_top" xlink:title="org.msrg.raccoon.CodedPiece.equals">
<polygon fill="none" stroke="black" points="709,-114 709,-133 889,-133 889,-114 709,-114"/>
<text text-anchor="middle" x="799" y="-121" font-family="Helvetica,sans-Serif" font-size="10.00">org.msrg.raccoon.CodedPiece.equals</text>
</a>
</g>
</g>
<!-- Node4&#45;&gt;Node5 -->
<g id="edge4" class="edge"><title>Node4&#45;&gt;Node5</title>
<path fill="none" stroke="midnightblue" d="M642.381,-123.5C663.965,-123.5 687.196,-123.5 708.956,-123.5"/>
<polygon fill="midnightblue" stroke="midnightblue" points="642.263,-120 632.263,-123.5 642.263,-127 642.263,-120"/>
</g>
<!-- Node6 -->
<g id="node6" class="node"><title>Node6</title>
<g id="a_node6"><a xlink:href="../../dd/dfd/classorg_1_1msrg_1_1raccoon_1_1CodedPiece_a2356802d8204151b602ba47d25c34ff3.html#a2356802d8204151b602ba47d25c34ff3" target="_top" xlink:title="org.msrg.raccoon.CodedPiece.make\lCodedPiece">
<polygon fill="none" stroke="black" points="711,-62.5 711,-92.5 887,-92.5 887,-62.5 711,-62.5"/>
<text text-anchor="start" x="719" y="-80.5" font-family="Helvetica,sans-Serif" font-size="10.00">org.msrg.raccoon.CodedPiece.make</text>
<text text-anchor="middle" x="799" y="-69.5" font-family="Helvetica,sans-Serif" font-size="10.00">CodedPiece</text>
</a>
</g>
</g>
<!-- Node4&#45;&gt;Node6 -->
<g id="edge5" class="edge"><title>Node4&#45;&gt;Node6</title>
<path fill="none" stroke="midnightblue" d="M642.115,-107.254C667.181,-102.47 694.489,-97.2572 719.145,-92.5512"/>
<polygon fill="midnightblue" stroke="midnightblue" points="641.429,-103.822 632.263,-109.135 642.741,-110.698 641.429,-103.822"/>
</g>
<!-- Node7 -->
<g id="node7" class="node"><title>Node7</title>
<g id="a_node7"><a xlink:href="../../d2/da2/classorg_1_1msrg_1_1raccoon_1_1SourceCodedBatch_aa614a213e1484d4643bf8f6b4eb8616a.html#aa614a213e1484d4643bf8f6b4eb8616a" target="_top" xlink:title="org.msrg.raccoon.SourceCoded\lBatch.code">
<polygon fill="none" stroke="black" points="944.5,-61.5 944.5,-91.5 1099.5,-91.5 1099.5,-61.5 944.5,-61.5"/>
<text text-anchor="start" x="952.5" y="-79.5" font-family="Helvetica,sans-Serif" font-size="10.00">org.msrg.raccoon.SourceCoded</text>
<text text-anchor="middle" x="1022" y="-68.5" font-family="Helvetica,sans-Serif" font-size="10.00">Batch.code</text>
</a>
</g>
</g>
<!-- Node6&#45;&gt;Node7 -->
<g id="edge6" class="edge"><title>Node6&#45;&gt;Node7</title>
<path fill="none" stroke="midnightblue" d="M897.33,-77.0596C913.109,-76.9882 929.251,-76.9152 944.444,-76.8464"/>
<polygon fill="midnightblue" stroke="midnightblue" points="897.012,-73.5609 887.028,-77.1062 897.044,-80.5608 897.012,-73.5609"/>
</g>
<!-- Node10 -->
<g id="node10" class="node"><title>Node10</title>
<g id="a_node10"><a xlink:href="../../d7/da5/classorg_1_1msrg_1_1raccoon_1_1CodedPieceTest_a264feb2dd21ccabd0fa19fe54a7c52db.html#a264feb2dd21ccabd0fa19fe54a7c52db" target="_top" xlink:title="org.msrg.raccoon.CodedPiece\lTest.setUp">
<polygon fill="none" stroke="black" points="947.5,-12.5 947.5,-42.5 1096.5,-42.5 1096.5,-12.5 947.5,-12.5"/>
<text text-anchor="start" x="955.5" y="-30.5" font-family="Helvetica,sans-Serif" font-size="10.00">org.msrg.raccoon.CodedPiece</text>
<text text-anchor="middle" x="1022" y="-19.5" font-family="Helvetica,sans-Serif" font-size="10.00">Test.setUp</text>
</a>
</g>
</g>
<!-- Node6&#45;&gt;Node10 -->
<g id="edge9" class="edge"><title>Node6&#45;&gt;Node10</title>
<path fill="none" stroke="midnightblue" d="M876.267,-60.2451C901.667,-54.4984 929.745,-48.1459 954.358,-42.5774"/>
<polygon fill="midnightblue" stroke="midnightblue" points="875.288,-56.8779 866.307,-62.4984 876.833,-63.7053 875.288,-56.8779"/>
</g>
<!-- Node11 -->
<g id="node11" class="node"><title>Node11</title>
<g id="a_node11"><a xlink:href="../../db/d26/classorg_1_1msrg_1_1raccoon_1_1ReceivedCodedBatchTest_af7c8b12bc8b1dc5d9c5e353b838d830d.html#af7c8b12bc8b1dc5d9c5e353b838d830d" target="_top" xlink:title="org.msrg.raccoon.Received\lCodedBatchTest.ttestEncodingDecoding\lReceivedCodedBatch">
<polygon fill="none" stroke="black" points="925,-110 925,-151 1119,-151 1119,-110 925,-110"/>
<text text-anchor="start" x="933" y="-139" font-family="Helvetica,sans-Serif" font-size="10.00">org.msrg.raccoon.Received</text>
<text text-anchor="start" x="933" y="-128" font-family="Helvetica,sans-Serif" font-size="10.00">CodedBatchTest.ttestEncodingDecoding</text>
<text text-anchor="middle" x="1022" y="-117" font-family="Helvetica,sans-Serif" font-size="10.00">ReceivedCodedBatch</text>
</a>
</g>
</g>
<!-- Node6&#45;&gt;Node11 -->
<g id="edge10" class="edge"><title>Node6&#45;&gt;Node11</title>
<path fill="none" stroke="midnightblue" d="M872.724,-94.9406C892.773,-99.7487 914.708,-105.009 935.412,-109.974"/>
<polygon fill="midnightblue" stroke="midnightblue" points="873.279,-91.4745 862.739,-92.5459 871.647,-98.2815 873.279,-91.4745"/>
</g>
<!-- Node8 -->
<g id="node8" class="node"><title>Node8</title>
<g id="a_node8"><a xlink:href="../../db/d77/classorg_1_1msrg_1_1raccoon_1_1CodedBatchTest_a04baac235b53bea4fab4b550de9271a5.html#a04baac235b53bea4fab4b550de9271a5" target="_top" xlink:title="org.msrg.raccoon.CodedBatch\lTest.testReceivedCodedBatch">
<polygon fill="none" stroke="black" points="1167.5,-107.5 1167.5,-137.5 1318.5,-137.5 1318.5,-107.5 1167.5,-107.5"/>
<text text-anchor="start" x="1175.5" y="-125.5" font-family="Helvetica,sans-Serif" font-size="10.00">org.msrg.raccoon.CodedBatch</text>
<text text-anchor="middle" x="1243" y="-114.5" font-family="Helvetica,sans-Serif" font-size="10.00">Test.testReceivedCodedBatch</text>
</a>
</g>
</g>
<!-- Node7&#45;&gt;Node8 -->
<g id="edge7" class="edge"><title>Node7&#45;&gt;Node8</title>
<path fill="none" stroke="midnightblue" d="M1104.54,-93.6266C1126.2,-98.1764 1149.42,-103.055 1170.5,-107.483"/>
<polygon fill="midnightblue" stroke="midnightblue" points="1105.21,-90.1925 1094.71,-91.5621 1103.78,-97.0431 1105.21,-90.1925"/>
</g>
<!-- Node9 -->
<g id="node9" class="node"><title>Node9</title>
<g id="a_node9"><a xlink:href="../../d7/d47/classorg_1_1msrg_1_1raccoon_1_1SlicedCodedBatchTest_aa7d0bdfa77013b46a1f2e416dbb71b8c.html#aa7d0bdfa77013b46a1f2e416dbb71b8c" target="_top" xlink:title="org.msrg.raccoon.SlicedCoded\lBatchTest.testReceivedCodedBatch">
<polygon fill="none" stroke="black" points="1155,-179.5 1155,-209.5 1331,-209.5 1331,-179.5 1155,-179.5"/>
<text text-anchor="start" x="1163" y="-197.5" font-family="Helvetica,sans-Serif" font-size="10.00">org.msrg.raccoon.SlicedCoded</text>
<text text-anchor="middle" x="1243" y="-186.5" font-family="Helvetica,sans-Serif" font-size="10.00">BatchTest.testReceivedCodedBatch</text>
</a>
</g>
</g>
<!-- Node7&#45;&gt;Node9 -->
<g id="edge8" class="edge"><title>Node7&#45;&gt;Node9</title>
<path fill="none" stroke="midnightblue" d="M1109.15,-94.8912C1112.56,-96.5976 1115.86,-98.4623 1119,-100.5 1140.77,-114.637 1135.24,-129.667 1155,-146.5 1170.63,-159.81 1190.53,-171.118 1207.35,-179.409"/>
<polygon fill="midnightblue" stroke="midnightblue" points="1110.46,-91.6404 1099.9,-90.734 1107.59,-98.0254 1110.46,-91.6404"/>
</g>
<!-- Node15 -->
<g id="node15" class="node"><title>Node15</title>
<g id="a_node15"><a xlink:href="../../d5/d96/classorg_1_1msrg_1_1raccoon_1_1matrix_1_1finitefields_1_1ByteMatrixTest_af84f780201f4ae5e9d625748fa84ca38.html#af84f780201f4ae5e9d625748fa84ca38" target="_top" xlink:title="org.msrg.raccoon.matrix.finitefields.\lByteMatrixTest.testM2timesInvIsM\l_HasNoInvserse">
<polygon fill="none" stroke="black" points="712.5,-230 712.5,-271 885.5,-271 885.5,-230 712.5,-230"/>
<text text-anchor="start" x="720.5" y="-259" font-family="Helvetica,sans-Serif" font-size="10.00">org.msrg.raccoon.matrix.finitefields.</text>
<text text-anchor="start" x="720.5" y="-248" font-family="Helvetica,sans-Serif" font-size="10.00">ByteMatrixTest.testM2timesInvIsM</text>
<text text-anchor="middle" x="799" y="-237" font-family="Helvetica,sans-Serif" font-size="10.00">_HasNoInvserse</text>
</a>
</g>
</g>
<!-- Node14&#45;&gt;Node15 -->
<g id="edge14" class="edge"><title>Node14&#45;&gt;Node15</title>
<path fill="none" stroke="midnightblue" d="M660.028,-261.95C677.463,-260.503 695.396,-259.015 712.325,-257.61"/>
<polygon fill="midnightblue" stroke="midnightblue" points="659.508,-258.481 649.832,-262.796 660.087,-265.457 659.508,-258.481"/>
</g>
<!-- Node16 -->
<g id="node16" class="node"><title>Node16</title>
<g id="a_node16"><a xlink:href="../../d5/d96/classorg_1_1msrg_1_1raccoon_1_1matrix_1_1finitefields_1_1ByteMatrixTest_a810788f9ce020bbab969821becb0ef3f.html#a810788f9ce020bbab969821becb0ef3f" target="_top" xlink:title="org.msrg.raccoon.matrix.finitefields.\lByteMatrixTest.testM2timesInvIsM\l_HasInvserse">
<polygon fill="none" stroke="black" points="712.5,-290 712.5,-331 885.5,-331 885.5,-290 712.5,-290"/>
<text text-anchor="start" x="720.5" y="-319" font-family="Helvetica,sans-Serif" font-size="10.00">org.msrg.raccoon.matrix.finitefields.</text>
<text text-anchor="start" x="720.5" y="-308" font-family="Helvetica,sans-Serif" font-size="10.00">ByteMatrixTest.testM2timesInvIsM</text>
<text text-anchor="middle" x="799" y="-297" font-family="Helvetica,sans-Serif" font-size="10.00">_HasInvserse</text>
</a>
</g>
</g>
<!-- Node14&#45;&gt;Node16 -->
<g id="edge15" class="edge"><title>Node14&#45;&gt;Node16</title>
<path fill="none" stroke="midnightblue" d="M657.466,-287.175C675.677,-290.197 694.515,-293.324 712.254,-296.268"/>
<polygon fill="midnightblue" stroke="midnightblue" points="657.863,-283.693 647.425,-285.508 656.717,-290.599 657.863,-283.693"/>
</g>
<!-- Node19 -->
<g id="node19" class="node"><title>Node19</title>
<g id="a_node19"><a xlink:href="../../da/df0/classorg_1_1msrg_1_1raccoon_1_1ReceivedCodedBatch_aa025693c18e525356f5750174ceccd70.html#aa025693c18e525356f5750174ceccd70" target="_top" xlink:title="org.msrg.raccoon.Received\lCodedBatch.decode">
<polygon fill="none" stroke="black" points="730.5,-162.5 730.5,-192.5 867.5,-192.5 867.5,-162.5 730.5,-162.5"/>
<text text-anchor="start" x="738.5" y="-180.5" font-family="Helvetica,sans-Serif" font-size="10.00">org.msrg.raccoon.Received</text>
<text text-anchor="middle" x="799" y="-169.5" font-family="Helvetica,sans-Serif" font-size="10.00">CodedBatch.decode</text>
</a>
</g>
</g>
<!-- Node18&#45;&gt;Node19 -->
<g id="edge18" class="edge"><title>Node18&#45;&gt;Node19</title>
<path fill="none" stroke="midnightblue" d="M635.016,-174.119C665.738,-174.756 700.685,-175.481 730.318,-176.096"/>
<polygon fill="midnightblue" stroke="midnightblue" points="634.844,-170.614 624.773,-173.906 634.698,-177.613 634.844,-170.614"/>
</g>
<!-- Node19&#45;&gt;Node8 -->
<g id="edge19" class="edge"><title>Node19&#45;&gt;Node8</title>
<path fill="none" stroke="midnightblue" d="M877.928,-178.675C942.894,-178.385 1037.63,-175.008 1119,-160.5 1147.38,-155.439 1178.39,-145.83 1202.18,-137.541"/>
<polygon fill="midnightblue" stroke="midnightblue" points="877.756,-175.175 867.763,-178.696 877.771,-182.175 877.756,-175.175"/>
</g>
<!-- Node19&#45;&gt;Node9 -->
<g id="edge20" class="edge"><title>Node19&#45;&gt;Node9</title>
<path fill="none" stroke="midnightblue" d="M877.779,-188.973C893.383,-190.847 909.688,-192.5 925,-193.5 1002.57,-198.567 1091.05,-198.347 1154.78,-197.132"/>
<polygon fill="midnightblue" stroke="midnightblue" points="877.999,-185.474 867.644,-187.715 877.137,-192.421 877.999,-185.474"/>
</g>
<!-- Node19&#45;&gt;Node11 -->
<g id="edge21" class="edge"><title>Node19&#45;&gt;Node11</title>
<path fill="none" stroke="midnightblue" d="M877.386,-161.042C892.642,-157.798 908.826,-154.356 924.619,-150.997"/>
<polygon fill="midnightblue" stroke="midnightblue" points="876.561,-157.639 867.508,-163.143 878.017,-164.486 876.561,-157.639"/>
</g>
<!-- Node21 -->
<g id="node21" class="node"><title>Node21</title>
<g id="a_node21"><a xlink:href="../../d6/d19/classorg_1_1msrg_1_1raccoon_1_1engine_1_1thread_1_1CodingThreadImpl_af81a44607be02e9f01c5f4c119ff5ed4.html#af81a44607be02e9f01c5f4c119ff5ed4" target="_top" xlink:title="org.msrg.raccoon.engine.thread.\lCodingThreadImpl.runTask">
<polygon fill="none" stroke="black" points="477.5,-0.5 477.5,-30.5 634.5,-30.5 634.5,-0.5 477.5,-0.5"/>
<text text-anchor="start" x="485.5" y="-18.5" font-family="Helvetica,sans-Serif" font-size="10.00">org.msrg.raccoon.engine.thread.</text>
<text text-anchor="middle" x="556" y="-7.5" font-family="Helvetica,sans-Serif" font-size="10.00">CodingThreadImpl.runTask</text>
</a>
</g>
</g>
<!-- Node20&#45;&gt;Node21 -->
<g id="edge23" class="edge"><title>Node20&#45;&gt;Node21</title>
<path fill="none" stroke="midnightblue" d="M376.246,-52.4129C410.219,-45.3974 449.214,-37.345 482.095,-30.5549"/>
<polygon fill="midnightblue" stroke="midnightblue" points="375.428,-49.0079 366.342,-54.458 376.844,-55.8633 375.428,-49.0079"/>
</g>
</g>
</svg>
