<?xml version="1.0" encoding="UTF-8" standalone="no"?>
<!DOCTYPE svg PUBLIC "-//W3C//DTD SVG 1.1//EN"
 "http://www.w3.org/Graphics/SVG/1.1/DTD/svg11.dtd">
<!-- Generated by graphviz version 2.38.0 (20140413.2041)
 -->
<!-- Title: org.msrg.raccoon.matrix.bulk.BulkMatrix.equals Pages: 1 -->
<svg width="838pt" height="232pt"
 viewBox="0.00 0.00 838.00 231.50" xmlns="http://www.w3.org/2000/svg" xmlns:xlink="http://www.w3.org/1999/xlink">
<g id="graph0" class="graph" transform="scale(1 1) rotate(0) translate(4 227.5)">
<title>org.msrg.raccoon.matrix.bulk.BulkMatrix.equals</title>
<!-- Node1 -->
<g id="node1" class="node"><title>Node1</title>
<polygon fill="#bfbfbf" stroke="black" points="0,-87 0,-117 146,-117 146,-87 0,-87"/>
<text text-anchor="start" x="8" y="-105" font-family="Helvetica,sans-Serif" font-size="10.00">org.msrg.raccoon.matrix.bulk.</text>
<text text-anchor="middle" x="73" y="-94" font-family="Helvetica,sans-Serif" font-size="10.00">BulkMatrix.equals</text>
</g>
<!-- Node2 -->
<g id="node2" class="node"><title>Node2</title>
<g id="a_node2"><a xlink:href="../../dd/da2/classorg_1_1msrg_1_1raccoon_1_1CodedBatch_a0f775cb64db97a1e67680d072ae4c202.html#a0f775cb64db97a1e67680d072ae4c202" target="_top" xlink:title="org.msrg.raccoon.CodedBatch.equals\lExact">
<polygon fill="none" stroke="black" points="201,-168 201,-198 382,-198 382,-168 201,-168"/>
<text text-anchor="start" x="209" y="-186" font-family="Helvetica,sans-Serif" font-size="10.00">org.msrg.raccoon.CodedBatch.equals</text>
<text text-anchor="middle" x="291.5" y="-175" font-family="Helvetica,sans-Serif" font-size="10.00">Exact</text>
</a>
</g>
</g>
<!-- Node1&#45;&gt;Node2 -->
<g id="edge1" class="edge"><title>Node1&#45;&gt;Node2</title>
<path fill="none" stroke="midnightblue" d="M106.785,-122.268C127.663,-134.415 155.646,-149.331 182,-159 191.237,-162.389 201.1,-165.38 210.972,-167.998"/>
<polygon fill="midnightblue" stroke="midnightblue" points="108.401,-119.157 98.0114,-117.082 104.839,-125.183 108.401,-119.157"/>
</g>
<!-- Node6 -->
<g id="node6" class="node"><title>Node6</title>
<g id="a_node6"><a xlink:href="../../dc/dcf/classorg_1_1msrg_1_1raccoon_1_1engine_1_1CodingEngineTest_af8b30ec26e68febeddd3f3ff75a13555.html#af8b30ec26e68febeddd3f3ff75a13555" target="_top" xlink:title="org.msrg.raccoon.engine.\lCodingEngineTest.processFinished\lResult">
<polygon fill="none" stroke="black" points="206,-108.5 206,-149.5 377,-149.5 377,-108.5 206,-108.5"/>
<text text-anchor="start" x="214" y="-137.5" font-family="Helvetica,sans-Serif" font-size="10.00">org.msrg.raccoon.engine.</text>
<text text-anchor="start" x="214" y="-126.5" font-family="Helvetica,sans-Serif" font-size="10.00">CodingEngineTest.processFinished</text>
<text text-anchor="middle" x="291.5" y="-115.5" font-family="Helvetica,sans-Serif" font-size="10.00">Result</text>
</a>
</g>
</g>
<!-- Node1&#45;&gt;Node6 -->
<g id="edge5" class="edge"><title>Node1&#45;&gt;Node6</title>
<path fill="none" stroke="midnightblue" d="M156.123,-112.242C172.433,-114.276 189.584,-116.415 205.972,-118.458"/>
<polygon fill="midnightblue" stroke="midnightblue" points="156.448,-108.755 146.091,-110.991 155.581,-115.701 156.448,-108.755"/>
</g>
<!-- Node8 -->
<g id="node8" class="node"><title>Node8</title>
<g id="a_node8"><a xlink:href="../../d5/d96/classorg_1_1msrg_1_1raccoon_1_1matrix_1_1finitefields_1_1ByteMatrixTest_ac60808b559cdc155d008f0d650fe5c34.html#ac60808b559cdc155d008f0d650fe5c34" target="_top" xlink:title="org.msrg.raccoon.matrix.finitefields.\lByteMatrixTest.testMtimesBMtimesInvMIsBM">
<polygon fill="none" stroke="black" points="182,-60 182,-90 401,-90 401,-60 182,-60"/>
<text text-anchor="start" x="190" y="-78" font-family="Helvetica,sans-Serif" font-size="10.00">org.msrg.raccoon.matrix.finitefields.</text>
<text text-anchor="middle" x="291.5" y="-67" font-family="Helvetica,sans-Serif" font-size="10.00">ByteMatrixTest.testMtimesBMtimesInvMIsBM</text>
</a>
</g>
</g>
<!-- Node1&#45;&gt;Node8 -->
<g id="edge7" class="edge"><title>Node1&#45;&gt;Node8</title>
<path fill="none" stroke="midnightblue" d="M156.15,-91.755C164.497,-90.7139 173.065,-89.6455 181.638,-88.5763"/>
<polygon fill="midnightblue" stroke="midnightblue" points="155.581,-88.2987 146.091,-93.0094 156.448,-95.2449 155.581,-88.2987"/>
</g>
<!-- Node9 -->
<g id="node9" class="node"><title>Node9</title>
<g id="a_node9"><a xlink:href="../../db/d26/classorg_1_1msrg_1_1raccoon_1_1ReceivedCodedBatchTest_af7c8b12bc8b1dc5d9c5e353b838d830d.html#af7c8b12bc8b1dc5d9c5e353b838d830d" target="_top" xlink:title="org.msrg.raccoon.Received\lCodedBatchTest.ttestEncodingDecoding\lReceivedCodedBatch">
<polygon fill="none" stroke="black" points="194.5,-0.5 194.5,-41.5 388.5,-41.5 388.5,-0.5 194.5,-0.5"/>
<text text-anchor="start" x="202.5" y="-29.5" font-family="Helvetica,sans-Serif" font-size="10.00">org.msrg.raccoon.Received</text>
<text text-anchor="start" x="202.5" y="-18.5" font-family="Helvetica,sans-Serif" font-size="10.00">CodedBatchTest.ttestEncodingDecoding</text>
<text text-anchor="middle" x="291.5" y="-7.5" font-family="Helvetica,sans-Serif" font-size="10.00">ReceivedCodedBatch</text>
</a>
</g>
</g>
<!-- Node1&#45;&gt;Node9 -->
<g id="edge8" class="edge"><title>Node1&#45;&gt;Node9</title>
<path fill="none" stroke="midnightblue" d="M111.301,-82.4444C131.8,-72.1953 157.894,-59.9491 182,-51 190.978,-47.6671 200.494,-44.5111 210.013,-41.5862"/>
<polygon fill="midnightblue" stroke="midnightblue" points="109.648,-79.3582 102.303,-86.9939 112.806,-85.6051 109.648,-79.3582"/>
</g>
<!-- Node3 -->
<g id="node3" class="node"><title>Node3</title>
<g id="a_node3"><a xlink:href="../../dd/da2/classorg_1_1msrg_1_1raccoon_1_1CodedBatch_aecd891a0b0992dcc4f97bb4c7d39a2ed.html#aecd891a0b0992dcc4f97bb4c7d39a2ed" target="_top" xlink:title="org.msrg.raccoon.CodedBatch.equals">
<polygon fill="none" stroke="black" points="437,-173.5 437,-192.5 618,-192.5 618,-173.5 437,-173.5"/>
<text text-anchor="middle" x="527.5" y="-180.5" font-family="Helvetica,sans-Serif" font-size="10.00">org.msrg.raccoon.CodedBatch.equals</text>
</a>
</g>
</g>
<!-- Node2&#45;&gt;Node3 -->
<g id="edge2" class="edge"><title>Node2&#45;&gt;Node3</title>
<path fill="none" stroke="midnightblue" d="M392.462,-183C407.24,-183 422.39,-183 436.939,-183"/>
<polygon fill="midnightblue" stroke="midnightblue" points="392.301,-179.5 382.301,-183 392.301,-186.5 392.301,-179.5"/>
</g>
<!-- Node4 -->
<g id="node4" class="node"><title>Node4</title>
<g id="a_node4"><a xlink:href="../../db/d77/classorg_1_1msrg_1_1raccoon_1_1CodedBatchTest_a04baac235b53bea4fab4b550de9271a5.html#a04baac235b53bea4fab4b550de9271a5" target="_top" xlink:title="org.msrg.raccoon.CodedBatch\lTest.testReceivedCodedBatch">
<polygon fill="none" stroke="black" points="666.5,-193 666.5,-223 817.5,-223 817.5,-193 666.5,-193"/>
<text text-anchor="start" x="674.5" y="-211" font-family="Helvetica,sans-Serif" font-size="10.00">org.msrg.raccoon.CodedBatch</text>
<text text-anchor="middle" x="742" y="-200" font-family="Helvetica,sans-Serif" font-size="10.00">Test.testReceivedCodedBatch</text>
</a>
</g>
</g>
<!-- Node3&#45;&gt;Node4 -->
<g id="edge3" class="edge"><title>Node3&#45;&gt;Node4</title>
<path fill="none" stroke="midnightblue" d="M619.589,-193.716C635.147,-195.547 651.147,-197.429 666.219,-199.202"/>
<polygon fill="midnightblue" stroke="midnightblue" points="619.784,-190.215 609.443,-192.523 618.966,-197.167 619.784,-190.215"/>
</g>
<!-- Node5 -->
<g id="node5" class="node"><title>Node5</title>
<g id="a_node5"><a xlink:href="../../d7/d47/classorg_1_1msrg_1_1raccoon_1_1SlicedCodedBatchTest_aa7d0bdfa77013b46a1f2e416dbb71b8c.html#aa7d0bdfa77013b46a1f2e416dbb71b8c" target="_top" xlink:title="org.msrg.raccoon.SlicedCoded\lBatchTest.testReceivedCodedBatch">
<polygon fill="none" stroke="black" points="654,-144 654,-174 830,-174 830,-144 654,-144"/>
<text text-anchor="start" x="662" y="-162" font-family="Helvetica,sans-Serif" font-size="10.00">org.msrg.raccoon.SlicedCoded</text>
<text text-anchor="middle" x="742" y="-151" font-family="Helvetica,sans-Serif" font-size="10.00">BatchTest.testReceivedCodedBatch</text>
</a>
</g>
</g>
<!-- Node3&#45;&gt;Node5 -->
<g id="edge4" class="edge"><title>Node3&#45;&gt;Node5</title>
<path fill="none" stroke="midnightblue" d="M622.95,-172.333C633.172,-171.178 643.542,-170.007 653.675,-168.863"/>
<polygon fill="midnightblue" stroke="midnightblue" points="622.335,-168.88 612.791,-173.48 623.12,-175.836 622.335,-168.88"/>
</g>
<!-- Node7 -->
<g id="node7" class="node"><title>Node7</title>
<g id="a_node7"><a xlink:href="../../dc/dcf/classorg_1_1msrg_1_1raccoon_1_1engine_1_1CodingEngineTest_a312467d37f3faa057e1deaaeb5f527a4.html#a312467d37f3faa057e1deaaeb5f527a4" target="_top" xlink:title="org.msrg.raccoon.engine.\lCodingEngineTest.codingFinished">
<polygon fill="none" stroke="black" points="445,-114 445,-144 610,-144 610,-114 445,-114"/>
<text text-anchor="start" x="453" y="-132" font-family="Helvetica,sans-Serif" font-size="10.00">org.msrg.raccoon.engine.</text>
<text text-anchor="middle" x="527.5" y="-121" font-family="Helvetica,sans-Serif" font-size="10.00">CodingEngineTest.codingFinished</text>
</a>
</g>
</g>
<!-- Node6&#45;&gt;Node7 -->
<g id="edge6" class="edge"><title>Node6&#45;&gt;Node7</title>
<path fill="none" stroke="midnightblue" d="M387.455,-129C406.437,-129 426.223,-129 444.715,-129"/>
<polygon fill="midnightblue" stroke="midnightblue" points="387.31,-125.5 377.31,-129 387.31,-132.5 387.31,-125.5"/>
</g>
</g>
</svg>
