<?xml version="1.0" encoding="UTF-8" standalone="no"?>
<!DOCTYPE svg PUBLIC "-//W3C//DTD SVG 1.1//EN"
 "http://www.w3.org/Graphics/SVG/1.1/DTD/svg11.dtd">
<!-- Generated by graphviz version 2.38.0 (20140413.2041)
 -->
<!-- Title: org.msrg.raccoon.matrix.bulk.BulkMatrix.getSize Pages: 1 -->
<svg width="771pt" height="113pt"
 viewBox="0.00 0.00 771.00 113.00" xmlns="http://www.w3.org/2000/svg" xmlns:xlink="http://www.w3.org/1999/xlink">
<g id="graph0" class="graph" transform="scale(1 1) rotate(0) translate(4 109)">
<title>org.msrg.raccoon.matrix.bulk.BulkMatrix.getSize</title>
<!-- Node1 -->
<g id="node1" class="node"><title>Node1</title>
<polygon fill="#bfbfbf" stroke="black" points="0,-24.5 0,-54.5 146,-54.5 146,-24.5 0,-24.5"/>
<text text-anchor="start" x="8" y="-42.5" font-family="Helvetica,sans-Serif" font-size="10.00">org.msrg.raccoon.matrix.bulk.</text>
<text text-anchor="middle" x="73" y="-31.5" font-family="Helvetica,sans-Serif" font-size="10.00">BulkMatrix.getSize</text>
</g>
<!-- Node2 -->
<g id="node2" class="node"><title>Node2</title>
<g id="a_node2"><a xlink:href="../../dd/da2/classorg_1_1msrg_1_1raccoon_1_1CodedBatch_a0d83f9996320268e978e73f0ea41a9d0.html#a0d83f9996320268e978e73f0ea41a9d0" target="_top" xlink:title="org.msrg.raccoon.CodedBatch.\lCodedBatch">
<polygon fill="none" stroke="black" points="182,-49.5 182,-79.5 334,-79.5 334,-49.5 182,-49.5"/>
<text text-anchor="start" x="190" y="-67.5" font-family="Helvetica,sans-Serif" font-size="10.00">org.msrg.raccoon.CodedBatch.</text>
<text text-anchor="middle" x="258" y="-56.5" font-family="Helvetica,sans-Serif" font-size="10.00">CodedBatch</text>
</a>
</g>
</g>
<!-- Node1&#45;&gt;Node2 -->
<g id="edge1" class="edge"><title>Node1&#45;&gt;Node2</title>
<path fill="none" stroke="midnightblue" d="M156.111,-50.7173C164.729,-51.8947 173.46,-53.0874 181.992,-54.2531"/>
<polygon fill="midnightblue" stroke="midnightblue" points="156.445,-47.2306 146.064,-49.3448 155.498,-54.1662 156.445,-47.2306"/>
</g>
<!-- Node6 -->
<g id="node6" class="node"><title>Node6</title>
<g id="a_node6"><a xlink:href="../../db/d26/classorg_1_1msrg_1_1raccoon_1_1ReceivedCodedBatchTest_af48d802e6f619d8e81119e7829f963bf.html#af48d802e6f619d8e81119e7829f963bf" target="_top" xlink:title="org.msrg.raccoon.Received\lCodedBatchTest.setUp">
<polygon fill="none" stroke="black" points="189.5,-0.5 189.5,-30.5 326.5,-30.5 326.5,-0.5 189.5,-0.5"/>
<text text-anchor="start" x="197.5" y="-18.5" font-family="Helvetica,sans-Serif" font-size="10.00">org.msrg.raccoon.Received</text>
<text text-anchor="middle" x="258" y="-7.5" font-family="Helvetica,sans-Serif" font-size="10.00">CodedBatchTest.setUp</text>
</a>
</g>
</g>
<!-- Node1&#45;&gt;Node6 -->
<g id="edge5" class="edge"><title>Node1&#45;&gt;Node6</title>
<path fill="none" stroke="midnightblue" d="M156.211,-28.7183C167.337,-27.259 178.649,-25.7755 189.478,-24.3553"/>
<polygon fill="midnightblue" stroke="midnightblue" points="155.524,-25.2783 146.064,-30.049 156.434,-32.2189 155.524,-25.2783"/>
</g>
<!-- Node3 -->
<g id="node3" class="node"><title>Node3</title>
<g id="a_node3"><a xlink:href="../../dd/da2/classorg_1_1msrg_1_1raccoon_1_1CodedBatch_aecd891a0b0992dcc4f97bb4c7d39a2ed.html#aecd891a0b0992dcc4f97bb4c7d39a2ed" target="_top" xlink:title="org.msrg.raccoon.CodedBatch.equals">
<polygon fill="none" stroke="black" points="370,-55 370,-74 551,-74 551,-55 370,-55"/>
<text text-anchor="middle" x="460.5" y="-62" font-family="Helvetica,sans-Serif" font-size="10.00">org.msrg.raccoon.CodedBatch.equals</text>
</a>
</g>
</g>
<!-- Node2&#45;&gt;Node3 -->
<g id="edge2" class="edge"><title>Node2&#45;&gt;Node3</title>
<path fill="none" stroke="midnightblue" d="M344.452,-64.5C352.904,-64.5 361.5,-64.5 369.992,-64.5"/>
<polygon fill="midnightblue" stroke="midnightblue" points="344.229,-61.0001 334.229,-64.5 344.229,-68.0001 344.229,-61.0001"/>
</g>
<!-- Node4 -->
<g id="node4" class="node"><title>Node4</title>
<g id="a_node4"><a xlink:href="../../db/d77/classorg_1_1msrg_1_1raccoon_1_1CodedBatchTest_a04baac235b53bea4fab4b550de9271a5.html#a04baac235b53bea4fab4b550de9271a5" target="_top" xlink:title="org.msrg.raccoon.CodedBatch\lTest.testReceivedCodedBatch">
<polygon fill="none" stroke="black" points="599.5,-74.5 599.5,-104.5 750.5,-104.5 750.5,-74.5 599.5,-74.5"/>
<text text-anchor="start" x="607.5" y="-92.5" font-family="Helvetica,sans-Serif" font-size="10.00">org.msrg.raccoon.CodedBatch</text>
<text text-anchor="middle" x="675" y="-81.5" font-family="Helvetica,sans-Serif" font-size="10.00">Test.testReceivedCodedBatch</text>
</a>
</g>
</g>
<!-- Node3&#45;&gt;Node4 -->
<g id="edge3" class="edge"><title>Node3&#45;&gt;Node4</title>
<path fill="none" stroke="midnightblue" d="M552.589,-75.2163C568.147,-77.0467 584.147,-78.9291 599.219,-80.7023"/>
<polygon fill="midnightblue" stroke="midnightblue" points="552.784,-71.7152 542.443,-74.0227 551.966,-78.6673 552.784,-71.7152"/>
</g>
<!-- Node5 -->
<g id="node5" class="node"><title>Node5</title>
<g id="a_node5"><a xlink:href="../../d7/d47/classorg_1_1msrg_1_1raccoon_1_1SlicedCodedBatchTest_aa7d0bdfa77013b46a1f2e416dbb71b8c.html#aa7d0bdfa77013b46a1f2e416dbb71b8c" target="_top" xlink:title="org.msrg.raccoon.SlicedCoded\lBatchTest.testReceivedCodedBatch">
<polygon fill="none" stroke="black" points="587,-25.5 587,-55.5 763,-55.5 763,-25.5 587,-25.5"/>
<text text-anchor="start" x="595" y="-43.5" font-family="Helvetica,sans-Serif" font-size="10.00">org.msrg.raccoon.SlicedCoded</text>
<text text-anchor="middle" x="675" y="-32.5" font-family="Helvetica,sans-Serif" font-size="10.00">BatchTest.testReceivedCodedBatch</text>
</a>
</g>
</g>
<!-- Node3&#45;&gt;Node5 -->
<g id="edge4" class="edge"><title>Node3&#45;&gt;Node5</title>
<path fill="none" stroke="midnightblue" d="M555.95,-53.8327C566.172,-52.6782 576.542,-51.507 586.675,-50.3626"/>
<polygon fill="midnightblue" stroke="midnightblue" points="555.335,-50.3798 545.791,-54.9801 556.12,-57.3356 555.335,-50.3798"/>
</g>
</g>
</svg>
