<?xml version="1.0" encoding="UTF-8" standalone="no"?>
<!DOCTYPE svg PUBLIC "-//W3C//DTD SVG 1.1//EN"
 "http://www.w3.org/Graphics/SVG/1.1/DTD/svg11.dtd">
<!-- Generated by graphviz version 2.38.0 (20140413.2041)
 -->
<!-- Title: org.msrg.raccoon.matrix.bulk.BulkMatrix.slice Pages: 1 -->
<!--zoomable 572 -->
<svg id="main" version="1.1" xmlns="http://www.w3.org/2000/svg" xmlns:xlink="http://www.w3.org/1999/xlink" xml:space="preserve" onload="init(evt)">
<style type="text/css"><![CDATA[
.edge:hover path { stroke: red; }
.edge:hover polygon { stroke: red; fill: red; }
]]></style>
<script type="text/javascript"><![CDATA[
var edges = document.getElementsByTagName('g');
if (edges && edges.length) {
  for (var i=0;i<edges.length;i++) {
    if (edges[i].id.substr(0,4)=='edge') {
      edges[i].setAttribute('class','edge');
    }
  }
}
]]></script>
        <defs>
                <circle id="rim" cx="0" cy="0" r="7"/>
                <circle id="rim2" cx="0" cy="0" r="3.5"/>
                <g id="zoomPlus">
                        <use xlink:href="#rim" fill="#404040">
                                <set attributeName="fill" to="#808080" begin="zoomplus.mouseover" end="zoomplus.mouseout"/>
                        </use>
                        <path d="M-4,0h8M0,-4v8" fill="none" stroke="white" stroke-width="1.5" pointer-events="none"/>
                </g>
                <g id="zoomMin">
                        <use xlink:href="#rim" fill="#404040">
                                <set attributeName="fill" to="#808080" begin="zoomminus.mouseover" end="zoomminus.mouseout"/>
                        </use>
                        <path d="M-4,0h8" fill="none" stroke="white" stroke-width="1.5" pointer-events="none"/>
                </g>
                <g id="dirArrow">
                        <path fill="none" stroke="white" stroke-width="1.5" d="M0,-3.0v7 M-2.5,-0.5L0,-3.0L2.5,-0.5"/>
                </g>
               <g id="resetDef">
                       <use xlink:href="#rim2" fill="#404040">
                               <set attributeName="fill" to="#808080" begin="reset.mouseover" end="reset.mouseout"/>
                       </use>
               </g>
        </defs>

<script type="text/javascript">
var viewWidth = 1344;
var viewHeight = 572;
var sectionId = 'dynsection-0';
</script>
<script xlink:href="../../svgpan.js"/>
<svg id="graph" class="graph">
<g id="viewport">
<title>org.msrg.raccoon.matrix.bulk.BulkMatrix.slice</title>
<!-- Node1 -->
<g id="node1" class="node"><title>Node1</title>
<polygon fill="#bfbfbf" stroke="black" points="0,-193.5 0,-223.5 146,-223.5 146,-193.5 0,-193.5"/>
<text text-anchor="start" x="8" y="-211.5" font-family="Helvetica,sans-Serif" font-size="10.00">org.msrg.raccoon.matrix.bulk.</text>
<text text-anchor="middle" x="73" y="-200.5" font-family="Helvetica,sans-Serif" font-size="10.00">BulkMatrix.slice</text>
</g>
<!-- Node2 -->
<g id="node2" class="node"><title>Node2</title>
<g id="a_node2"><a xlink:href="../../dd/dfd/classorg_1_1msrg_1_1raccoon_1_1CodedPiece_a916100d89d5cbded0ba4a2d7c86727b6.html#a916100d89d5cbded0ba4a2d7c86727b6" target="_top" xlink:title="org.msrg.raccoon.CodedPiece.\lCodedPiece">
<polygon fill="none" stroke="black" points="485,-355.5 485,-385.5 637,-385.5 637,-355.5 485,-355.5"/>
<text text-anchor="start" x="493" y="-373.5" font-family="Helvetica,sans-Serif" font-size="10.00">org.msrg.raccoon.CodedPiece.</text>
<text text-anchor="middle" x="561" y="-362.5" font-family="Helvetica,sans-Serif" font-size="10.00">CodedPiece</text>
</a>
</g>
</g>
<!-- Node1&#45;&gt;Node2 -->
<g id="edge1" class="edge"><title>Node1&#45;&gt;Node2</title>
<path fill="none" stroke="midnightblue" d="M94.902,-230.935C115.181,-251.283 147.826,-280.473 182,-296.5 280.383,-342.639 406.173,-360.02 484.934,-366.561"/>
<polygon fill="midnightblue" stroke="midnightblue" points="97.2473,-228.327 87.7578,-223.615 92.2378,-233.216 97.2473,-228.327"/>
</g>
<!-- Node10 -->
<g id="node10" class="node"><title>Node10</title>
<g id="a_node10"><a xlink:href="../../df/da4/classorg_1_1msrg_1_1raccoon_1_1matrix_1_1bulk_1_1BulkMatrix_a8a2fe48f174a616aa6ab6535ffd6a3d3.html#a8a2fe48f174a616aa6ab6535ffd6a3d3" target="_top" xlink:title="org.msrg.raccoon.matrix.bulk.\lBulkMatrix.createBulkMatixIncrementalData">
<polygon fill="none" stroke="black" points="190.5,-453.5 190.5,-483.5 399.5,-483.5 399.5,-453.5 190.5,-453.5"/>
<text text-anchor="start" x="198.5" y="-471.5" font-family="Helvetica,sans-Serif" font-size="10.00">org.msrg.raccoon.matrix.bulk.</text>
<text text-anchor="middle" x="295" y="-460.5" font-family="Helvetica,sans-Serif" font-size="10.00">BulkMatrix.createBulkMatixIncrementalData</text>
</a>
</g>
</g>
<!-- Node1&#45;&gt;Node10 -->
<g id="edge9" class="edge"><title>Node1&#45;&gt;Node10</title>
<path fill="none" stroke="midnightblue" d="M89.6374,-232.523C109.701,-262.741 146.202,-315.729 182,-357.5 213.353,-394.085 254.533,-432.831 277.209,-453.474"/>
<polygon fill="midnightblue" stroke="midnightblue" points="92.3859,-230.333 83.9575,-223.913 86.5429,-234.188 92.3859,-230.333"/>
</g>
<!-- Node14 -->
<g id="node14" class="node"><title>Node14</title>
<g id="a_node14"><a xlink:href="../../df/da4/classorg_1_1msrg_1_1raccoon_1_1matrix_1_1bulk_1_1BulkMatrix_ae50751d175974196c55c9119429568e6.html#ae50751d175974196c55c9119429568e6" target="_top" xlink:title="org.msrg.raccoon.matrix.bulk.\lBulkMatrix.createBulkMatixRandomData">
<polygon fill="none" stroke="black" points="198,-193.5 198,-223.5 392,-223.5 392,-193.5 198,-193.5"/>
<text text-anchor="start" x="206" y="-211.5" font-family="Helvetica,sans-Serif" font-size="10.00">org.msrg.raccoon.matrix.bulk.</text>
<text text-anchor="middle" x="295" y="-200.5" font-family="Helvetica,sans-Serif" font-size="10.00">BulkMatrix.createBulkMatixRandomData</text>
</a>
</g>
</g>
<!-- Node1&#45;&gt;Node14 -->
<g id="edge14" class="edge"><title>Node1&#45;&gt;Node14</title>
<path fill="none" stroke="midnightblue" d="M156.263,-208.5C169.809,-208.5 183.955,-208.5 197.805,-208.5"/>
<polygon fill="midnightblue" stroke="midnightblue" points="156.036,-205 146.036,-208.5 156.036,-212 156.036,-205"/>
</g>
<!-- Node16 -->
<g id="node16" class="node"><title>Node16</title>
<g id="a_node16"><a xlink:href="../../dd/da0/classorg_1_1msrg_1_1raccoon_1_1matrix_1_1bulk_1_1BulkMatrix1D_ac7f14a79687f87b8fd5ea4d3c729488b.html#ac7f14a79687f87b8fd5ea4d3c729488b" target="_top" xlink:title="org.msrg.raccoon.matrix.bulk.\lBulkMatrix1D.createBulkMatrix1D">
<polygon fill="none" stroke="black" points="212.5,-144.5 212.5,-174.5 377.5,-174.5 377.5,-144.5 212.5,-144.5"/>
<text text-anchor="start" x="220.5" y="-162.5" font-family="Helvetica,sans-Serif" font-size="10.00">org.msrg.raccoon.matrix.bulk.</text>
<text text-anchor="middle" x="295" y="-151.5" font-family="Helvetica,sans-Serif" font-size="10.00">BulkMatrix1D.createBulkMatrix1D</text>
</a>
</g>
</g>
<!-- Node1&#45;&gt;Node16 -->
<g id="edge16" class="edge"><title>Node1&#45;&gt;Node16</title>
<path fill="none" stroke="midnightblue" d="M148.098,-191.179C159.446,-188.575 171.031,-185.945 182,-183.5 195.199,-180.558 209.288,-177.486 222.863,-174.56"/>
<polygon fill="midnightblue" stroke="midnightblue" points="147.168,-187.801 138.208,-193.455 148.738,-194.623 147.168,-187.801"/>
</g>
<!-- Node18 -->
<g id="node18" class="node"><title>Node18</title>
<g id="a_node18"><a xlink:href="../../df/da4/classorg_1_1msrg_1_1raccoon_1_1matrix_1_1bulk_1_1BulkMatrix_a8a8141b976299afc4d33bddf4621ce60.html#a8a8141b976299afc4d33bddf4621ce60" target="_top" xlink:title="org.msrg.raccoon.matrix.bulk.\lBulkMatrix.getSizeInByteBuffer">
<polygon fill="none" stroke="black" points="218,-95.5 218,-125.5 372,-125.5 372,-95.5 218,-95.5"/>
<text text-anchor="start" x="226" y="-113.5" font-family="Helvetica,sans-Serif" font-size="10.00">org.msrg.raccoon.matrix.bulk.</text>
<text text-anchor="middle" x="295" y="-102.5" font-family="Helvetica,sans-Serif" font-size="10.00">BulkMatrix.getSizeInByteBuffer</text>
</a>
</g>
</g>
<!-- Node1&#45;&gt;Node18 -->
<g id="edge18" class="edge"><title>Node1&#45;&gt;Node18</title>
<path fill="none" stroke="midnightblue" d="M99.4647,-186.777C120.343,-170.066 151.35,-147.673 182,-134.5 193.236,-129.671 205.537,-125.777 217.744,-122.648"/>
<polygon fill="midnightblue" stroke="midnightblue" points="96.9772,-184.289 91.4391,-193.321 101.401,-189.714 96.9772,-184.289"/>
</g>
<!-- Node19 -->
<g id="node19" class="node"><title>Node19</title>
<g id="a_node19"><a xlink:href="../../dd/d36/classorg_1_1msrg_1_1raccoon_1_1matrix_1_1finitefields_1_1ByteMatrix_a5a3c18a9905c1d33c6a992930e2b6a78.html#a5a3c18a9905c1d33c6a992930e2b6a78" target="_top" xlink:title="org.msrg.raccoon.matrix.finitefields.\lByteMatrix.multiply">
<polygon fill="none" stroke="black" points="208.5,-257.5 208.5,-287.5 381.5,-287.5 381.5,-257.5 208.5,-257.5"/>
<text text-anchor="start" x="216.5" y="-275.5" font-family="Helvetica,sans-Serif" font-size="10.00">org.msrg.raccoon.matrix.finitefields.</text>
<text text-anchor="middle" x="295" y="-264.5" font-family="Helvetica,sans-Serif" font-size="10.00">ByteMatrix.multiply</text>
</a>
</g>
</g>
<!-- Node1&#45;&gt;Node19 -->
<g id="edge19" class="edge"><title>Node1&#45;&gt;Node19</title>
<path fill="none" stroke="midnightblue" d="M135.318,-226.338C169.009,-236.139 210.332,-248.16 242.362,-257.478"/>
<polygon fill="midnightblue" stroke="midnightblue" points="136.16,-222.938 125.58,-223.505 134.205,-229.659 136.16,-222.938"/>
</g>
<!-- Node27 -->
<g id="node27" class="node"><title>Node27</title>
<g id="a_node27"><a xlink:href="../../dc/d76/classorg_1_1msrg_1_1raccoon_1_1engine_1_1task_1_1sequential_1_1BulkMatrixEqual__CodingTask_ad34041615ce2c563116189d9a3b22a6d.html#ad34041615ce2c563116189d9a3b22a6d" target="_top" xlink:title="org.msrg.raccoon.engine.task.sequential.\lBulkMatrixEqual_CodingTask.runStagePrivately">
<polygon fill="none" stroke="black" points="182,-16.5 182,-46.5 408,-46.5 408,-16.5 182,-16.5"/>
<text text-anchor="start" x="190" y="-34.5" font-family="Helvetica,sans-Serif" font-size="10.00">org.msrg.raccoon.engine.task.sequential.</text>
<text text-anchor="middle" x="295" y="-23.5" font-family="Helvetica,sans-Serif" font-size="10.00">BulkMatrixEqual_CodingTask.runStagePrivately</text>
</a>
</g>
</g>
<!-- Node1&#45;&gt;Node27 -->
<g id="edge32" class="edge"><title>Node1&#45;&gt;Node27</title>
<path fill="none" stroke="midnightblue" d="M90.3445,-184.701C109.721,-157.863 144.188,-114.23 182,-85.5 203.571,-69.1102 230.909,-55.8123 253.176,-46.5137"/>
<polygon fill="midnightblue" stroke="midnightblue" points="87.3069,-182.933 84.3687,-193.113 93.0135,-186.987 87.3069,-182.933"/>
</g>
<!-- Node3 -->
<g id="node3" class="node"><title>Node3</title>
<g id="a_node3"><a xlink:href="../../dd/dfd/classorg_1_1msrg_1_1raccoon_1_1CodedPiece_acaf7264810bbdf99b73278b11ac1da72.html#acaf7264810bbdf99b73278b11ac1da72" target="_top" xlink:title="org.msrg.raccoon.CodedPiece.equals">
<polygon fill="none" stroke="black" points="714,-408 714,-427 894,-427 894,-408 714,-408"/>
<text text-anchor="middle" x="804" y="-415" font-family="Helvetica,sans-Serif" font-size="10.00">org.msrg.raccoon.CodedPiece.equals</text>
</a>
</g>
</g>
<!-- Node2&#45;&gt;Node3 -->
<g id="edge2" class="edge"><title>Node2&#45;&gt;Node3</title>
<path fill="none" stroke="midnightblue" d="M647.235,-387.123C683.061,-394.109 723.448,-401.986 754.119,-407.967"/>
<polygon fill="midnightblue" stroke="midnightblue" points="647.748,-383.657 637.263,-385.178 646.408,-390.527 647.748,-383.657"/>
</g>
<!-- Node4 -->
<g id="node4" class="node"><title>Node4</title>
<g id="a_node4"><a xlink:href="../../dd/dfd/classorg_1_1msrg_1_1raccoon_1_1CodedPiece_a2356802d8204151b602ba47d25c34ff3.html#a2356802d8204151b602ba47d25c34ff3" target="_top" xlink:title="org.msrg.raccoon.CodedPiece.make\lCodedPiece">
<polygon fill="none" stroke="black" points="716,-358.5 716,-388.5 892,-388.5 892,-358.5 716,-358.5"/>
<text text-anchor="start" x="724" y="-376.5" font-family="Helvetica,sans-Serif" font-size="10.00">org.msrg.raccoon.CodedPiece.make</text>
<text text-anchor="middle" x="804" y="-365.5" font-family="Helvetica,sans-Serif" font-size="10.00">CodedPiece</text>
</a>
</g>
</g>
<!-- Node2&#45;&gt;Node4 -->
<g id="edge3" class="edge"><title>Node2&#45;&gt;Node4</title>
<path fill="none" stroke="midnightblue" d="M647.315,-371.562C669.485,-371.838 693.398,-372.136 715.671,-372.413"/>
<polygon fill="midnightblue" stroke="midnightblue" points="647.305,-368.062 637.263,-371.437 647.218,-375.061 647.305,-368.062"/>
</g>
<!-- Node5 -->
<g id="node5" class="node"><title>Node5</title>
<g id="a_node5"><a xlink:href="../../d2/da2/classorg_1_1msrg_1_1raccoon_1_1SourceCodedBatch_aa614a213e1484d4643bf8f6b4eb8616a.html#aa614a213e1484d4643bf8f6b4eb8616a" target="_top" xlink:title="org.msrg.raccoon.SourceCoded\lBatch.code">
<polygon fill="none" stroke="black" points="949.5,-413.5 949.5,-443.5 1104.5,-443.5 1104.5,-413.5 949.5,-413.5"/>
<text text-anchor="start" x="957.5" y="-431.5" font-family="Helvetica,sans-Serif" font-size="10.00">org.msrg.raccoon.SourceCoded</text>
<text text-anchor="middle" x="1027" y="-420.5" font-family="Helvetica,sans-Serif" font-size="10.00">Batch.code</text>
</a>
</g>
</g>
<!-- Node4&#45;&gt;Node5 -->
<g id="edge4" class="edge"><title>Node4&#45;&gt;Node5</title>
<path fill="none" stroke="midnightblue" d="M875.465,-391.037C904.5,-398.262 937.799,-406.549 965.684,-413.489"/>
<polygon fill="midnightblue" stroke="midnightblue" points="875.939,-387.548 865.389,-388.529 874.248,-394.34 875.939,-387.548"/>
</g>
<!-- Node8 -->
<g id="node8" class="node"><title>Node8</title>
<g id="a_node8"><a xlink:href="../../d7/da5/classorg_1_1msrg_1_1raccoon_1_1CodedPieceTest_a264feb2dd21ccabd0fa19fe54a7c52db.html#a264feb2dd21ccabd0fa19fe54a7c52db" target="_top" xlink:title="org.msrg.raccoon.CodedPiece\lTest.setUp">
<polygon fill="none" stroke="black" points="952.5,-504.5 952.5,-534.5 1101.5,-534.5 1101.5,-504.5 952.5,-504.5"/>
<text text-anchor="start" x="960.5" y="-522.5" font-family="Helvetica,sans-Serif" font-size="10.00">org.msrg.raccoon.CodedPiece</text>
<text text-anchor="middle" x="1027" y="-511.5" font-family="Helvetica,sans-Serif" font-size="10.00">Test.setUp</text>
</a>
</g>
</g>
<!-- Node4&#45;&gt;Node8 -->
<g id="edge7" class="edge"><title>Node4&#45;&gt;Node8</title>
<path fill="none" stroke="midnightblue" d="M885.622,-393.135C888.532,-394.782 891.338,-396.566 894,-398.5 917.336,-415.454 909.823,-431.888 930,-452.5 950.473,-473.414 978.289,-491.999 998.709,-504.258"/>
<polygon fill="midnightblue" stroke="midnightblue" points="887.123,-389.972 876.618,-388.597 883.973,-396.223 887.123,-389.972"/>
</g>
<!-- Node9 -->
<g id="node9" class="node"><title>Node9</title>
<g id="a_node9"><a xlink:href="../../db/d26/classorg_1_1msrg_1_1raccoon_1_1ReceivedCodedBatchTest_af7c8b12bc8b1dc5d9c5e353b838d830d.html#af7c8b12bc8b1dc5d9c5e353b838d830d" target="_top" xlink:title="org.msrg.raccoon.Received\lCodedBatchTest.ttestEncodingDecoding\lReceivedCodedBatch">
<polygon fill="none" stroke="black" points="930,-353 930,-394 1124,-394 1124,-353 930,-353"/>
<text text-anchor="start" x="938" y="-382" font-family="Helvetica,sans-Serif" font-size="10.00">org.msrg.raccoon.Received</text>
<text text-anchor="start" x="938" y="-371" font-family="Helvetica,sans-Serif" font-size="10.00">CodedBatchTest.ttestEncodingDecoding</text>
<text text-anchor="middle" x="1027" y="-360" font-family="Helvetica,sans-Serif" font-size="10.00">ReceivedCodedBatch</text>
</a>
</g>
</g>
<!-- Node4&#45;&gt;Node9 -->
<g id="edge8" class="edge"><title>Node4&#45;&gt;Node9</title>
<path fill="none" stroke="midnightblue" d="M902.313,-373.5C911.482,-373.5 920.773,-373.5 929.929,-373.5"/>
<polygon fill="midnightblue" stroke="midnightblue" points="902.028,-370 892.028,-373.5 902.028,-377 902.028,-370"/>
</g>
<!-- Node6 -->
<g id="node6" class="node"><title>Node6</title>
<g id="a_node6"><a xlink:href="../../db/d77/classorg_1_1msrg_1_1raccoon_1_1CodedBatchTest_a04baac235b53bea4fab4b550de9271a5.html#a04baac235b53bea4fab4b550de9271a5" target="_top" xlink:title="org.msrg.raccoon.CodedBatch\lTest.testReceivedCodedBatch">
<polygon fill="none" stroke="black" points="1172.5,-389.5 1172.5,-419.5 1323.5,-419.5 1323.5,-389.5 1172.5,-389.5"/>
<text text-anchor="start" x="1180.5" y="-407.5" font-family="Helvetica,sans-Serif" font-size="10.00">org.msrg.raccoon.CodedBatch</text>
<text text-anchor="middle" x="1248" y="-396.5" font-family="Helvetica,sans-Serif" font-size="10.00">Test.testReceivedCodedBatch</text>
</a>
</g>
</g>
<!-- Node5&#45;&gt;Node6 -->
<g id="edge5" class="edge"><title>Node5&#45;&gt;Node6</title>
<path fill="none" stroke="midnightblue" d="M1114.75,-418.993C1133.79,-416.907 1153.78,-414.716 1172.29,-412.687"/>
<polygon fill="midnightblue" stroke="midnightblue" points="1114.15,-415.537 1104.6,-420.106 1114.92,-422.496 1114.15,-415.537"/>
</g>
<!-- Node7 -->
<g id="node7" class="node"><title>Node7</title>
<g id="a_node7"><a xlink:href="../../d7/d47/classorg_1_1msrg_1_1raccoon_1_1SlicedCodedBatchTest_aa7d0bdfa77013b46a1f2e416dbb71b8c.html#aa7d0bdfa77013b46a1f2e416dbb71b8c" target="_top" xlink:title="org.msrg.raccoon.SlicedCoded\lBatchTest.testReceivedCodedBatch">
<polygon fill="none" stroke="black" points="1160,-317.5 1160,-347.5 1336,-347.5 1336,-317.5 1160,-317.5"/>
<text text-anchor="start" x="1168" y="-335.5" font-family="Helvetica,sans-Serif" font-size="10.00">org.msrg.raccoon.SlicedCoded</text>
<text text-anchor="middle" x="1248" y="-324.5" font-family="Helvetica,sans-Serif" font-size="10.00">BatchTest.testReceivedCodedBatch</text>
</a>
</g>
</g>
<!-- Node5&#45;&gt;Node7 -->
<g id="edge6" class="edge"><title>Node5&#45;&gt;Node7</title>
<path fill="none" stroke="midnightblue" d="M1107.01,-410.215C1112.84,-408.172 1118.56,-405.937 1124,-403.5 1141.55,-395.635 1143.52,-389.414 1160,-379.5 1178.83,-368.171 1200.58,-356.421 1217.62,-347.503"/>
<polygon fill="midnightblue" stroke="midnightblue" points="1105.54,-407.017 1097.14,-413.473 1107.73,-413.664 1105.54,-407.017"/>
</g>
<!-- Node10&#45;&gt;Node8 -->
<g id="edge10" class="edge"><title>Node10&#45;&gt;Node8</title>
<path fill="none" stroke="midnightblue" d="M326.583,-489.118C355.431,-507.234 400.607,-532.256 444,-542.5 623.608,-584.9 842.914,-555.158 954.039,-534.584"/>
<polygon fill="midnightblue" stroke="midnightblue" points="328.124,-485.949 317.814,-483.507 324.35,-491.845 328.124,-485.949"/>
</g>
<!-- Node11 -->
<g id="node11" class="node"><title>Node11</title>
<g id="a_node11"><a xlink:href="../../db/d26/classorg_1_1msrg_1_1raccoon_1_1ReceivedCodedBatchTest_af48d802e6f619d8e81119e7829f963bf.html#af48d802e6f619d8e81119e7829f963bf" target="_top" xlink:title="org.msrg.raccoon.Received\lCodedBatchTest.setUp">
<polygon fill="none" stroke="black" points="492.5,-502.5 492.5,-532.5 629.5,-532.5 629.5,-502.5 492.5,-502.5"/>
<text text-anchor="start" x="500.5" y="-520.5" font-family="Helvetica,sans-Serif" font-size="10.00">org.msrg.raccoon.Received</text>
<text text-anchor="middle" x="561" y="-509.5" font-family="Helvetica,sans-Serif" font-size="10.00">CodedBatchTest.setUp</text>
</a>
</g>
</g>
<!-- Node10&#45;&gt;Node11 -->
<g id="edge11" class="edge"><title>Node10&#45;&gt;Node11</title>
<path fill="none" stroke="midnightblue" d="M387.113,-485.411C421.7,-491.831 460.442,-499.021 492.471,-504.966"/>
<polygon fill="midnightblue" stroke="midnightblue" points="387.474,-481.918 377.003,-483.535 386.196,-488.801 387.474,-481.918"/>
</g>
<!-- Node12 -->
<g id="node12" class="node"><title>Node12</title>
<g id="a_node12"><a xlink:href="../../dc/dcf/classorg_1_1msrg_1_1raccoon_1_1engine_1_1CodingEngineTest_a1a3ce31a699af797e95ece5666d7e394.html#a1a3ce31a699af797e95ece5666d7e394" target="_top" xlink:title="org.msrg.raccoon.engine.\lCodingEngineTest.setUp">
<polygon fill="none" stroke="black" points="497.5,-453.5 497.5,-483.5 624.5,-483.5 624.5,-453.5 497.5,-453.5"/>
<text text-anchor="start" x="505.5" y="-471.5" font-family="Helvetica,sans-Serif" font-size="10.00">org.msrg.raccoon.engine.</text>
<text text-anchor="middle" x="561" y="-460.5" font-family="Helvetica,sans-Serif" font-size="10.00">CodingEngineTest.setUp</text>
</a>
</g>
</g>
<!-- Node10&#45;&gt;Node12 -->
<g id="edge12" class="edge"><title>Node10&#45;&gt;Node12</title>
<path fill="none" stroke="midnightblue" d="M409.729,-468.5C439.824,-468.5 471.211,-468.5 497.468,-468.5"/>
<polygon fill="midnightblue" stroke="midnightblue" points="409.582,-465 399.582,-468.5 409.582,-472 409.582,-465"/>
</g>
<!-- Node13 -->
<g id="node13" class="node"><title>Node13</title>
<g id="a_node13"><a xlink:href="../../d5/d96/classorg_1_1msrg_1_1raccoon_1_1matrix_1_1finitefields_1_1ByteMatrixTest_ac60808b559cdc155d008f0d650fe5c34.html#ac60808b559cdc155d008f0d650fe5c34" target="_top" xlink:title="org.msrg.raccoon.matrix.finitefields.\lByteMatrixTest.testMtimesBMtimesInvMIsBM">
<polygon fill="none" stroke="black" points="451.5,-404.5 451.5,-434.5 670.5,-434.5 670.5,-404.5 451.5,-404.5"/>
<text text-anchor="start" x="459.5" y="-422.5" font-family="Helvetica,sans-Serif" font-size="10.00">org.msrg.raccoon.matrix.finitefields.</text>
<text text-anchor="middle" x="561" y="-411.5" font-family="Helvetica,sans-Serif" font-size="10.00">ByteMatrixTest.testMtimesBMtimesInvMIsBM</text>
</a>
</g>
</g>
<!-- Node10&#45;&gt;Node13 -->
<g id="edge13" class="edge"><title>Node10&#45;&gt;Node13</title>
<path fill="none" stroke="midnightblue" d="M387.026,-451.605C416.963,-446.048 450.022,-439.913 479.15,-434.506"/>
<polygon fill="midnightblue" stroke="midnightblue" points="386.196,-448.199 377.003,-453.465 387.474,-455.082 386.196,-448.199"/>
</g>
<!-- Node15 -->
<g id="node15" class="node"><title>Node15</title>
<g id="a_node15"><a xlink:href="../../d7/d47/classorg_1_1msrg_1_1raccoon_1_1SlicedCodedBatchTest_a355965b499dffd1233919da4f09372c3.html#a355965b499dffd1233919da4f09372c3" target="_top" xlink:title="org.msrg.raccoon.SlicedCoded\lBatchTest.setUp">
<polygon fill="none" stroke="black" points="485.5,-98.5 485.5,-128.5 636.5,-128.5 636.5,-98.5 485.5,-98.5"/>
<text text-anchor="start" x="493.5" y="-116.5" font-family="Helvetica,sans-Serif" font-size="10.00">org.msrg.raccoon.SlicedCoded</text>
<text text-anchor="middle" x="561" y="-105.5" font-family="Helvetica,sans-Serif" font-size="10.00">BatchTest.setUp</text>
</a>
</g>
</g>
<!-- Node14&#45;&gt;Node15 -->
<g id="edge15" class="edge"><title>Node14&#45;&gt;Node15</title>
<path fill="none" stroke="midnightblue" d="M397.487,-189.347C401.118,-187.567 404.637,-185.623 408,-183.5 429.952,-169.64 421.941,-151.188 444,-137.5 456.407,-129.801 470.854,-124.527 485.256,-120.924"/>
<polygon fill="midnightblue" stroke="midnightblue" points="395.979,-186.187 388.258,-193.442 398.818,-192.586 395.979,-186.187"/>
</g>
<!-- Node17 -->
<g id="node17" class="node"><title>Node17</title>
<g id="a_node17"><a xlink:href="../../db/d77/classorg_1_1msrg_1_1raccoon_1_1CodedBatchTest_af315e153681ea73bcbce6675ccb3f823.html#af315e153681ea73bcbce6675ccb3f823" target="_top" xlink:title="org.msrg.raccoon.CodedBatch\lTest.setUp">
<polygon fill="none" stroke="black" points="486.5,-49.5 486.5,-79.5 635.5,-79.5 635.5,-49.5 486.5,-49.5"/>
<text text-anchor="start" x="494.5" y="-67.5" font-family="Helvetica,sans-Serif" font-size="10.00">org.msrg.raccoon.CodedBatch</text>
<text text-anchor="middle" x="561" y="-56.5" font-family="Helvetica,sans-Serif" font-size="10.00">Test.setUp</text>
</a>
</g>
</g>
<!-- Node16&#45;&gt;Node17 -->
<g id="edge17" class="edge"><title>Node16&#45;&gt;Node17</title>
<path fill="none" stroke="midnightblue" d="M387.019,-144.932C394.383,-142.054 401.485,-138.613 408,-134.5 429.952,-120.64 421.941,-102.188 444,-88.5 456.756,-80.5842 471.67,-75.2314 486.473,-71.6235"/>
<polygon fill="midnightblue" stroke="midnightblue" points="385.829,-141.641 377.577,-148.285 388.172,-148.237 385.829,-141.641"/>
</g>
<!-- Node19&#45;&gt;Node2 -->
<g id="edge20" class="edge"><title>Node19&#45;&gt;Node2</title>
<path fill="none" stroke="midnightblue" d="M334.478,-292.09C374.487,-312.362 432.831,-341.609 444,-345.5 457.034,-350.041 471.192,-353.918 484.991,-357.167"/>
<polygon fill="midnightblue" stroke="midnightblue" points="335.995,-288.935 325.493,-287.533 332.828,-295.178 335.995,-288.935"/>
</g>
<!-- Node19&#45;&gt;Node13 -->
<g id="edge31" class="edge"><title>Node19&#45;&gt;Node13</title>
<path fill="none" stroke="midnightblue" d="M316.344,-294.859C342.927,-322.64 392.221,-369.435 444,-394.5 452.066,-398.405 460.74,-401.704 469.583,-404.492"/>
<polygon fill="midnightblue" stroke="midnightblue" points="318.872,-292.437 309.466,-287.561 313.778,-297.238 318.872,-292.437"/>
</g>
<!-- Node20 -->
<g id="node20" class="node"><title>Node20</title>
<g id="a_node20"><a xlink:href="../../d4/daf/classorg_1_1msrg_1_1raccoon_1_1engine_1_1task_1_1sequential_1_1EncodingReceivedCodedBatch__SequentialCodingTask_a42110602418c15d727175229b4b8f9cb.html#a42110602418c15d727175229b4b8f9cb" target="_top" xlink:title="org.msrg.raccoon.engine.task.sequential.\lEncodingReceivedCodedBatch_SequentialCoding\lTask.runStagePrivately">
<polygon fill="none" stroke="black" points="444,-197 444,-238 678,-238 678,-197 444,-197"/>
<text text-anchor="start" x="452" y="-226" font-family="Helvetica,sans-Serif" font-size="10.00">org.msrg.raccoon.engine.task.sequential.</text>
<text text-anchor="start" x="452" y="-215" font-family="Helvetica,sans-Serif" font-size="10.00">EncodingReceivedCodedBatch_SequentialCoding</text>
<text text-anchor="middle" x="561" y="-204" font-family="Helvetica,sans-Serif" font-size="10.00">Task.runStagePrivately</text>
</a>
</g>
</g>
<!-- Node19&#45;&gt;Node20 -->
<g id="edge21" class="edge"><title>Node19&#45;&gt;Node20</title>
<path fill="none" stroke="midnightblue" d="M378.067,-255.403C404.395,-249.918 433.832,-243.785 461.227,-238.078"/>
<polygon fill="midnightblue" stroke="midnightblue" points="377.215,-252.005 368.139,-257.471 378.643,-258.858 377.215,-252.005"/>
</g>
<!-- Node21 -->
<g id="node21" class="node"><title>Node21</title>
<g id="a_node21"><a xlink:href="../../dd/d36/classorg_1_1msrg_1_1raccoon_1_1matrix_1_1finitefields_1_1ByteMatrix_a25491e8ba3b3c3e18ec2392b7393bac3.html#a25491e8ba3b3c3e18ec2392b7393bac3" target="_top" xlink:title="org.msrg.raccoon.matrix.finitefields.\lByteMatrix.multiply">
<polygon fill="none" stroke="black" points="474.5,-147.5 474.5,-177.5 647.5,-177.5 647.5,-147.5 474.5,-147.5"/>
<text text-anchor="start" x="482.5" y="-165.5" font-family="Helvetica,sans-Serif" font-size="10.00">org.msrg.raccoon.matrix.finitefields.</text>
<text text-anchor="middle" x="561" y="-154.5" font-family="Helvetica,sans-Serif" font-size="10.00">ByteMatrix.multiply</text>
</a>
</g>
</g>
<!-- Node19&#45;&gt;Node21 -->
<g id="edge22" class="edge"><title>Node19&#45;&gt;Node21</title>
<path fill="none" stroke="midnightblue" d="M366.574,-254.008C381.022,-248.424 395.59,-241.351 408,-232.5 428.852,-217.628 422.221,-200.978 444,-187.5 453.285,-181.754 463.697,-177.316 474.372,-173.89"/>
<polygon fill="midnightblue" stroke="midnightblue" points="365.31,-250.744 357.121,-257.466 367.715,-257.318 365.31,-250.744"/>
</g>
<!-- Node22 -->
<g id="node22" class="node"><title>Node22</title>
<g id="a_node22"><a xlink:href="../../da/df0/classorg_1_1msrg_1_1raccoon_1_1ReceivedCodedBatch_a5621d4c76e51a0ac69a179e1001e6371.html#a5621d4c76e51a0ac69a179e1001e6371" target="_top" xlink:title="org.msrg.raccoon.Received\lCodedBatch.decodeUsing">
<polygon fill="none" stroke="black" points="492.5,-306.5 492.5,-336.5 629.5,-336.5 629.5,-306.5 492.5,-306.5"/>
<text text-anchor="start" x="500.5" y="-324.5" font-family="Helvetica,sans-Serif" font-size="10.00">org.msrg.raccoon.Received</text>
<text text-anchor="middle" x="561" y="-313.5" font-family="Helvetica,sans-Serif" font-size="10.00">CodedBatch.decodeUsing</text>
</a>
</g>
</g>
<!-- Node19&#45;&gt;Node22 -->
<g id="edge23" class="edge"><title>Node19&#45;&gt;Node22</title>
<path fill="none" stroke="midnightblue" d="M387.113,-289.411C421.7,-295.831 460.442,-303.021 492.471,-308.966"/>
<polygon fill="midnightblue" stroke="midnightblue" points="387.474,-285.918 377.003,-287.535 386.196,-292.801 387.474,-285.918"/>
</g>
<!-- Node24 -->
<g id="node24" class="node"><title>Node24</title>
<g id="a_node24"><a xlink:href="../../d5/d96/classorg_1_1msrg_1_1raccoon_1_1matrix_1_1finitefields_1_1ByteMatrixTest_ae32ff4ec2714b4cecdb5f85253619a41.html#ae32ff4ec2714b4cecdb5f85253619a41" target="_top" xlink:title="org.msrg.raccoon.matrix.finitefields.\lByteMatrixTest.runTestM2timesInvIsM">
<polygon fill="none" stroke="black" points="467.5,-257.5 467.5,-287.5 654.5,-287.5 654.5,-257.5 467.5,-257.5"/>
<text text-anchor="start" x="475.5" y="-275.5" font-family="Helvetica,sans-Serif" font-size="10.00">org.msrg.raccoon.matrix.finitefields.</text>
<text text-anchor="middle" x="561" y="-264.5" font-family="Helvetica,sans-Serif" font-size="10.00">ByteMatrixTest.runTestM2timesInvIsM</text>
</a>
</g>
</g>
<!-- Node19&#45;&gt;Node24 -->
<g id="edge28" class="edge"><title>Node19&#45;&gt;Node24</title>
<path fill="none" stroke="midnightblue" d="M391.792,-272.5C416.451,-272.5 442.938,-272.5 467.431,-272.5"/>
<polygon fill="midnightblue" stroke="midnightblue" points="391.713,-269 381.713,-272.5 391.713,-276 391.713,-269"/>
</g>
<!-- Node23 -->
<g id="node23" class="node"><title>Node23</title>
<g id="a_node23"><a xlink:href="../../da/df0/classorg_1_1msrg_1_1raccoon_1_1ReceivedCodedBatch_aa025693c18e525356f5750174ceccd70.html#aa025693c18e525356f5750174ceccd70" target="_top" xlink:title="org.msrg.raccoon.Received\lCodedBatch.decode">
<polygon fill="none" stroke="black" points="735.5,-309.5 735.5,-339.5 872.5,-339.5 872.5,-309.5 735.5,-309.5"/>
<text text-anchor="start" x="743.5" y="-327.5" font-family="Helvetica,sans-Serif" font-size="10.00">org.msrg.raccoon.Received</text>
<text text-anchor="middle" x="804" y="-316.5" font-family="Helvetica,sans-Serif" font-size="10.00">CodedBatch.decode</text>
</a>
</g>
</g>
<!-- Node22&#45;&gt;Node23 -->
<g id="edge24" class="edge"><title>Node22&#45;&gt;Node23</title>
<path fill="none" stroke="midnightblue" d="M640.016,-322.471C670.738,-322.854 705.685,-323.289 735.318,-323.657"/>
<polygon fill="midnightblue" stroke="midnightblue" points="639.816,-318.968 629.773,-322.344 639.729,-325.968 639.816,-318.968"/>
</g>
<!-- Node23&#45;&gt;Node6 -->
<g id="edge25" class="edge"><title>Node23&#45;&gt;Node6</title>
<path fill="none" stroke="midnightblue" d="M882.76,-320.567C948.211,-319.274 1043.72,-322.148 1124,-343.5 1143.23,-348.616 1189.72,-373.016 1219.71,-389.363"/>
<polygon fill="midnightblue" stroke="midnightblue" points="882.435,-317.073 872.52,-320.808 882.6,-324.071 882.435,-317.073"/>
</g>
<!-- Node23&#45;&gt;Node7 -->
<g id="edge26" class="edge"><title>Node23&#45;&gt;Node7</title>
<path fill="none" stroke="midnightblue" d="M882.811,-314.427C898.413,-312.79 914.708,-311.354 930,-310.5 1016.09,-305.694 1038.12,-302.88 1124,-310.5 1140.75,-311.986 1158.63,-314.588 1175.42,-317.495"/>
<polygon fill="midnightblue" stroke="midnightblue" points="882.241,-310.968 872.677,-315.527 882.996,-317.927 882.241,-310.968"/>
</g>
<!-- Node23&#45;&gt;Node9 -->
<g id="edge27" class="edge"><title>Node23&#45;&gt;Node9</title>
<path fill="none" stroke="midnightblue" d="M882.558,-341.696C898.943,-345.329 916.391,-349.198 933.272,-352.94"/>
<polygon fill="midnightblue" stroke="midnightblue" points="883.029,-338.216 872.508,-339.468 881.513,-345.05 883.029,-338.216"/>
</g>
<!-- Node25 -->
<g id="node25" class="node"><title>Node25</title>
<g id="a_node25"><a xlink:href="../../d5/d96/classorg_1_1msrg_1_1raccoon_1_1matrix_1_1finitefields_1_1ByteMatrixTest_af84f780201f4ae5e9d625748fa84ca38.html#af84f780201f4ae5e9d625748fa84ca38" target="_top" xlink:title="org.msrg.raccoon.matrix.finitefields.\lByteMatrixTest.testM2timesInvIsM\l_HasNoInvserse">
<polygon fill="none" stroke="black" points="717.5,-249 717.5,-290 890.5,-290 890.5,-249 717.5,-249"/>
<text text-anchor="start" x="725.5" y="-278" font-family="Helvetica,sans-Serif" font-size="10.00">org.msrg.raccoon.matrix.finitefields.</text>
<text text-anchor="start" x="725.5" y="-267" font-family="Helvetica,sans-Serif" font-size="10.00">ByteMatrixTest.testM2timesInvIsM</text>
<text text-anchor="middle" x="804" y="-256" font-family="Helvetica,sans-Serif" font-size="10.00">_HasNoInvserse</text>
</a>
</g>
</g>
<!-- Node24&#45;&gt;Node25 -->
<g id="edge29" class="edge"><title>Node24&#45;&gt;Node25</title>
<path fill="none" stroke="midnightblue" d="M665.028,-271.217C682.463,-271 700.396,-270.777 717.325,-270.566"/>
<polygon fill="midnightblue" stroke="midnightblue" points="664.788,-267.72 654.832,-271.344 664.875,-274.72 664.788,-267.72"/>
</g>
<!-- Node26 -->
<g id="node26" class="node"><title>Node26</title>
<g id="a_node26"><a xlink:href="../../d5/d96/classorg_1_1msrg_1_1raccoon_1_1matrix_1_1finitefields_1_1ByteMatrixTest_a810788f9ce020bbab969821becb0ef3f.html#a810788f9ce020bbab969821becb0ef3f" target="_top" xlink:title="org.msrg.raccoon.matrix.finitefields.\lByteMatrixTest.testM2timesInvIsM\l_HasInvserse">
<polygon fill="none" stroke="black" points="717.5,-189 717.5,-230 890.5,-230 890.5,-189 717.5,-189"/>
<text text-anchor="start" x="725.5" y="-218" font-family="Helvetica,sans-Serif" font-size="10.00">org.msrg.raccoon.matrix.finitefields.</text>
<text text-anchor="start" x="725.5" y="-207" font-family="Helvetica,sans-Serif" font-size="10.00">ByteMatrixTest.testM2timesInvIsM</text>
<text text-anchor="middle" x="804" y="-196" font-family="Helvetica,sans-Serif" font-size="10.00">_HasInvserse</text>
</a>
</g>
</g>
<!-- Node24&#45;&gt;Node26 -->
<g id="edge30" class="edge"><title>Node24&#45;&gt;Node26</title>
<path fill="none" stroke="midnightblue" d="M646.032,-255.252C656.822,-252.784 667.694,-250.172 678,-247.5 697.98,-242.32 719.55,-236.02 739.055,-230.053"/>
<polygon fill="midnightblue" stroke="midnightblue" points="645.151,-251.862 636.164,-257.475 646.689,-258.691 645.151,-251.862"/>
</g>
<!-- Node28 -->
<g id="node28" class="node"><title>Node28</title>
<g id="a_node28"><a xlink:href="../../dc/d76/classorg_1_1msrg_1_1raccoon_1_1engine_1_1task_1_1sequential_1_1BulkMatrixEqual__CodingTask_a2b079bf5a4d740b867ed98740abb0b49.html#a2b079bf5a4d740b867ed98740abb0b49" target="_top" xlink:title="org.msrg.raccoon.engine.task.sequential.\lBulkMatrixEqual_CodingTask.codingFinished">
<polygon fill="none" stroke="black" points="454,-0.5 454,-30.5 668,-30.5 668,-0.5 454,-0.5"/>
<text text-anchor="start" x="462" y="-18.5" font-family="Helvetica,sans-Serif" font-size="10.00">org.msrg.raccoon.engine.task.sequential.</text>
<text text-anchor="middle" x="561" y="-7.5" font-family="Helvetica,sans-Serif" font-size="10.00">BulkMatrixEqual_CodingTask.codingFinished</text>
</a>
</g>
</g>
<!-- Node27&#45;&gt;Node28 -->
<g id="edge33" class="edge"><title>Node27&#45;&gt;Node28</title>
<path fill="none" stroke="midnightblue" d="M418.593,-24.0701C430.297,-23.3608 442.101,-22.6454 453.632,-21.9465"/>
<polygon fill="midnightblue" stroke="midnightblue" points="418.112,-20.5927 408.343,-24.6914 418.536,-27.5799 418.112,-20.5927"/>
</g>
</g>
</svg>
        <g id="navigator" transform="translate(0 0)" fill="#404254">
                <rect fill="#f2f5e9" fill-opacity="0.5" stroke="#606060" stroke-width=".5" x="0" y="0" width="60" height="60"/>
                <use id="zoomplus" xlink:href="#zoomPlus" x="17" y="9" onmousedown="handleZoom(evt,'in')"/>
                <use id="zoomminus" xlink:href="#zoomMin" x="42" y="9" onmousedown="handleZoom(evt,'out')"/>
                <use id="reset" xlink:href="#resetDef" x="30" y="36" onmousedown="handleReset()"/>
                <g id="arrowUp" xlink:href="#dirArrow" transform="translate(30 24)" onmousedown="handlePan(0,-1)">
                  <use xlink:href="#rim" fill="#404040">
                        <set attributeName="fill" to="#808080" begin="arrowUp.mouseover" end="arrowUp.mouseout"/>
                  </use>
                  <path fill="none" stroke="white" stroke-width="1.5" d="M0,-3.0v7 M-2.5,-0.5L0,-3.0L2.5,-0.5"/>
                </g>
                <g id="arrowRight" xlink:href="#dirArrow" transform="rotate(90) translate(36 -43)" onmousedown="handlePan(1,0)">
                  <use xlink:href="#rim" fill="#404040">
                        <set attributeName="fill" to="#808080" begin="arrowRight.mouseover" end="arrowRight.mouseout"/>
                  </use>
                  <path fill="none" stroke="white" stroke-width="1.5" d="M0,-3.0v7 M-2.5,-0.5L0,-3.0L2.5,-0.5"/>
                </g>
                <g id="arrowDown" xlink:href="#dirArrow" transform="rotate(180) translate(-30 -48)" onmousedown="handlePan(0,1)">
                  <use xlink:href="#rim" fill="#404040">
                        <set attributeName="fill" to="#808080" begin="arrowDown.mouseover" end="arrowDown.mouseout"/>
                  </use>
                  <path fill="none" stroke="white" stroke-width="1.5" d="M0,-3.0v7 M-2.5,-0.5L0,-3.0L2.5,-0.5"/>
                </g>
                <g id="arrowLeft" xlink:href="#dirArrow" transform="rotate(270) translate(-36 17)" onmousedown="handlePan(-1,0)">
                  <use xlink:href="#rim" fill="#404040">
                        <set attributeName="fill" to="#808080" begin="arrowLeft.mouseover" end="arrowLeft.mouseout"/>
                  </use>
                  <path fill="none" stroke="white" stroke-width="1.5" d="M0,-3.0v7 M-2.5,-0.5L0,-3.0L2.5,-0.5"/>
                </g>
        </g>
        <svg viewBox="0 0 15 15" width="100%" height="30px" preserveAspectRatio="xMaxYMin meet">
         <g id="arrow_out" transform="scale(0.3 0.3)">
          <a xlink:href="classorg_1_1msrg_1_1raccoon_1_1matrix_1_1bulk_1_1BulkMatrix_a7f382b71b1e7fb03fa68f22724f75f88_a7f382b71b1e7fb03fa68f22724f75f88_icgraph_org.svg" target="_base">
           <rect id="button" ry="5" rx="5" y="6" x="6" height="38" width="38"
                fill="#f2f5e9" fill-opacity="0.5" stroke="#606060" stroke-width="1.0"/>
           <path id="arrow"
             d="M 11.500037,31.436501 C 11.940474,20.09759 22.043105,11.32322 32.158766,21.979434 L 37.068811,17.246167 C 37.068811,17.246167 37.088388,32 37.088388,32 L 22.160133,31.978069 C 22.160133,31.978069 26.997745,27.140456 26.997745,27.140456 C 18.528582,18.264221 13.291696,25.230495 11.500037,31.436501 z"
             style="fill:#404040;"/>
          </a>
         </g>
        </svg>
</svg>
