<?xml version="1.0" encoding="UTF-8" standalone="no"?>
<!DOCTYPE svg PUBLIC "-//W3C//DTD SVG 1.1//EN"
 "http://www.w3.org/Graphics/SVG/1.1/DTD/svg11.dtd">
<!-- Generated by graphviz version 2.38.0 (20140413.2041)
 -->
<!-- Title: org.msrg.raccoon.matrix.bulk.BulkMatrix.slice Pages: 1 -->
<svg width="1344pt" height="570pt"
 viewBox="0.00 0.00 1344.00 569.96" xmlns="http://www.w3.org/2000/svg" xmlns:xlink="http://www.w3.org/1999/xlink">
<g id="graph0" class="graph" transform="scale(1 1) rotate(0) translate(4 565.961)">
<title>org.msrg.raccoon.matrix.bulk.BulkMatrix.slice</title>
<!-- Node1 -->
<g id="node1" class="node"><title>Node1</title>
<polygon fill="#bfbfbf" stroke="black" points="0,-191.5 0,-221.5 146,-221.5 146,-191.5 0,-191.5"/>
<text text-anchor="start" x="8" y="-209.5" font-family="Helvetica,sans-Serif" font-size="10.00">org.msrg.raccoon.matrix.bulk.</text>
<text text-anchor="middle" x="73" y="-198.5" font-family="Helvetica,sans-Serif" font-size="10.00">BulkMatrix.slice</text>
</g>
<!-- Node2 -->
<g id="node2" class="node"><title>Node2</title>
<g id="a_node2"><a xlink:href="../../dd/dfd/classorg_1_1msrg_1_1raccoon_1_1CodedPiece_a916100d89d5cbded0ba4a2d7c86727b6.html#a916100d89d5cbded0ba4a2d7c86727b6" target="_top" xlink:title="org.msrg.raccoon.CodedPiece.\lCodedPiece">
<polygon fill="none" stroke="black" points="485,-353.5 485,-383.5 637,-383.5 637,-353.5 485,-353.5"/>
<text text-anchor="start" x="493" y="-371.5" font-family="Helvetica,sans-Serif" font-size="10.00">org.msrg.raccoon.CodedPiece.</text>
<text text-anchor="middle" x="561" y="-360.5" font-family="Helvetica,sans-Serif" font-size="10.00">CodedPiece</text>
</a>
</g>
</g>
<!-- Node1&#45;&gt;Node2 -->
<g id="edge1" class="edge"><title>Node1&#45;&gt;Node2</title>
<path fill="none" stroke="midnightblue" d="M94.902,-228.935C115.181,-249.283 147.826,-278.473 182,-294.5 280.383,-340.639 406.173,-358.02 484.934,-364.561"/>
<polygon fill="midnightblue" stroke="midnightblue" points="97.2473,-226.327 87.7578,-221.615 92.2378,-231.216 97.2473,-226.327"/>
</g>
<!-- Node10 -->
<g id="node10" class="node"><title>Node10</title>
<g id="a_node10"><a xlink:href="../../df/da4/classorg_1_1msrg_1_1raccoon_1_1matrix_1_1bulk_1_1BulkMatrix_a8a2fe48f174a616aa6ab6535ffd6a3d3.html#a8a2fe48f174a616aa6ab6535ffd6a3d3" target="_top" xlink:title="org.msrg.raccoon.matrix.bulk.\lBulkMatrix.createBulkMatixIncrementalData">
<polygon fill="none" stroke="black" points="190.5,-451.5 190.5,-481.5 399.5,-481.5 399.5,-451.5 190.5,-451.5"/>
<text text-anchor="start" x="198.5" y="-469.5" font-family="Helvetica,sans-Serif" font-size="10.00">org.msrg.raccoon.matrix.bulk.</text>
<text text-anchor="middle" x="295" y="-458.5" font-family="Helvetica,sans-Serif" font-size="10.00">BulkMatrix.createBulkMatixIncrementalData</text>
</a>
</g>
</g>
<!-- Node1&#45;&gt;Node10 -->
<g id="edge9" class="edge"><title>Node1&#45;&gt;Node10</title>
<path fill="none" stroke="midnightblue" d="M89.6374,-230.523C109.701,-260.741 146.202,-313.729 182,-355.5 213.353,-392.085 254.533,-430.831 277.209,-451.474"/>
<polygon fill="midnightblue" stroke="midnightblue" points="92.3859,-228.333 83.9575,-221.913 86.5429,-232.188 92.3859,-228.333"/>
</g>
<!-- Node14 -->
<g id="node14" class="node"><title>Node14</title>
<g id="a_node14"><a xlink:href="../../df/da4/classorg_1_1msrg_1_1raccoon_1_1matrix_1_1bulk_1_1BulkMatrix_ae50751d175974196c55c9119429568e6.html#ae50751d175974196c55c9119429568e6" target="_top" xlink:title="org.msrg.raccoon.matrix.bulk.\lBulkMatrix.createBulkMatixRandomData">
<polygon fill="none" stroke="black" points="198,-191.5 198,-221.5 392,-221.5 392,-191.5 198,-191.5"/>
<text text-anchor="start" x="206" y="-209.5" font-family="Helvetica,sans-Serif" font-size="10.00">org.msrg.raccoon.matrix.bulk.</text>
<text text-anchor="middle" x="295" y="-198.5" font-family="Helvetica,sans-Serif" font-size="10.00">BulkMatrix.createBulkMatixRandomData</text>
</a>
</g>
</g>
<!-- Node1&#45;&gt;Node14 -->
<g id="edge14" class="edge"><title>Node1&#45;&gt;Node14</title>
<path fill="none" stroke="midnightblue" d="M156.263,-206.5C169.809,-206.5 183.955,-206.5 197.805,-206.5"/>
<polygon fill="midnightblue" stroke="midnightblue" points="156.036,-203 146.036,-206.5 156.036,-210 156.036,-203"/>
</g>
<!-- Node16 -->
<g id="node16" class="node"><title>Node16</title>
<g id="a_node16"><a xlink:href="../../dd/da0/classorg_1_1msrg_1_1raccoon_1_1matrix_1_1bulk_1_1BulkMatrix1D_ac7f14a79687f87b8fd5ea4d3c729488b.html#ac7f14a79687f87b8fd5ea4d3c729488b" target="_top" xlink:title="org.msrg.raccoon.matrix.bulk.\lBulkMatrix1D.createBulkMatrix1D">
<polygon fill="none" stroke="black" points="212.5,-142.5 212.5,-172.5 377.5,-172.5 377.5,-142.5 212.5,-142.5"/>
<text text-anchor="start" x="220.5" y="-160.5" font-family="Helvetica,sans-Serif" font-size="10.00">org.msrg.raccoon.matrix.bulk.</text>
<text text-anchor="middle" x="295" y="-149.5" font-family="Helvetica,sans-Serif" font-size="10.00">BulkMatrix1D.createBulkMatrix1D</text>
</a>
</g>
</g>
<!-- Node1&#45;&gt;Node16 -->
<g id="edge16" class="edge"><title>Node1&#45;&gt;Node16</title>
<path fill="none" stroke="midnightblue" d="M148.098,-189.179C159.446,-186.575 171.031,-183.945 182,-181.5 195.199,-178.558 209.288,-175.486 222.863,-172.56"/>
<polygon fill="midnightblue" stroke="midnightblue" points="147.168,-185.801 138.208,-191.455 148.738,-192.623 147.168,-185.801"/>
</g>
<!-- Node18 -->
<g id="node18" class="node"><title>Node18</title>
<g id="a_node18"><a xlink:href="../../df/da4/classorg_1_1msrg_1_1raccoon_1_1matrix_1_1bulk_1_1BulkMatrix_a8a8141b976299afc4d33bddf4621ce60.html#a8a8141b976299afc4d33bddf4621ce60" target="_top" xlink:title="org.msrg.raccoon.matrix.bulk.\lBulkMatrix.getSizeInByteBuffer">
<polygon fill="none" stroke="black" points="218,-93.5 218,-123.5 372,-123.5 372,-93.5 218,-93.5"/>
<text text-anchor="start" x="226" y="-111.5" font-family="Helvetica,sans-Serif" font-size="10.00">org.msrg.raccoon.matrix.bulk.</text>
<text text-anchor="middle" x="295" y="-100.5" font-family="Helvetica,sans-Serif" font-size="10.00">BulkMatrix.getSizeInByteBuffer</text>
</a>
</g>
</g>
<!-- Node1&#45;&gt;Node18 -->
<g id="edge18" class="edge"><title>Node1&#45;&gt;Node18</title>
<path fill="none" stroke="midnightblue" d="M99.4647,-184.777C120.343,-168.066 151.35,-145.673 182,-132.5 193.236,-127.671 205.537,-123.777 217.744,-120.648"/>
<polygon fill="midnightblue" stroke="midnightblue" points="96.9772,-182.289 91.4391,-191.321 101.401,-187.714 96.9772,-182.289"/>
</g>
<!-- Node19 -->
<g id="node19" class="node"><title>Node19</title>
<g id="a_node19"><a xlink:href="../../dd/d36/classorg_1_1msrg_1_1raccoon_1_1matrix_1_1finitefields_1_1ByteMatrix_a5a3c18a9905c1d33c6a992930e2b6a78.html#a5a3c18a9905c1d33c6a992930e2b6a78" target="_top" xlink:title="org.msrg.raccoon.matrix.finitefields.\lByteMatrix.multiply">
<polygon fill="none" stroke="black" points="208.5,-255.5 208.5,-285.5 381.5,-285.5 381.5,-255.5 208.5,-255.5"/>
<text text-anchor="start" x="216.5" y="-273.5" font-family="Helvetica,sans-Serif" font-size="10.00">org.msrg.raccoon.matrix.finitefields.</text>
<text text-anchor="middle" x="295" y="-262.5" font-family="Helvetica,sans-Serif" font-size="10.00">ByteMatrix.multiply</text>
</a>
</g>
</g>
<!-- Node1&#45;&gt;Node19 -->
<g id="edge19" class="edge"><title>Node1&#45;&gt;Node19</title>
<path fill="none" stroke="midnightblue" d="M135.318,-224.338C169.009,-234.139 210.332,-246.16 242.362,-255.478"/>
<polygon fill="midnightblue" stroke="midnightblue" points="136.16,-220.938 125.58,-221.505 134.205,-227.659 136.16,-220.938"/>
</g>
<!-- Node27 -->
<g id="node27" class="node"><title>Node27</title>
<g id="a_node27"><a xlink:href="../../dc/d76/classorg_1_1msrg_1_1raccoon_1_1engine_1_1task_1_1sequential_1_1BulkMatrixEqual__CodingTask_ad34041615ce2c563116189d9a3b22a6d.html#ad34041615ce2c563116189d9a3b22a6d" target="_top" xlink:title="org.msrg.raccoon.engine.task.sequential.\lBulkMatrixEqual_CodingTask.runStagePrivately">
<polygon fill="none" stroke="black" points="182,-15.5 182,-45.5 408,-45.5 408,-15.5 182,-15.5"/>
<text text-anchor="start" x="190" y="-33.5" font-family="Helvetica,sans-Serif" font-size="10.00">org.msrg.raccoon.engine.task.sequential.</text>
<text text-anchor="middle" x="295" y="-22.5" font-family="Helvetica,sans-Serif" font-size="10.00">BulkMatrixEqual_CodingTask.runStagePrivately</text>
</a>
</g>
</g>
<!-- Node1&#45;&gt;Node27 -->
<g id="edge32" class="edge"><title>Node1&#45;&gt;Node27</title>
<path fill="none" stroke="midnightblue" d="M89.9962,-183.083C109.279,-156.238 143.88,-112.246 182,-83.5 203.212,-67.5043 230.023,-54.6072 252.095,-45.5418"/>
<polygon fill="midnightblue" stroke="midnightblue" points="86.9732,-181.296 84.0611,-191.483 92.6901,-185.336 86.9732,-181.296"/>
</g>
<!-- Node3 -->
<g id="node3" class="node"><title>Node3</title>
<g id="a_node3"><a xlink:href="../../dd/dfd/classorg_1_1msrg_1_1raccoon_1_1CodedPiece_acaf7264810bbdf99b73278b11ac1da72.html#acaf7264810bbdf99b73278b11ac1da72" target="_top" xlink:title="org.msrg.raccoon.CodedPiece.equals">
<polygon fill="none" stroke="black" points="714,-406 714,-425 894,-425 894,-406 714,-406"/>
<text text-anchor="middle" x="804" y="-413" font-family="Helvetica,sans-Serif" font-size="10.00">org.msrg.raccoon.CodedPiece.equals</text>
</a>
</g>
</g>
<!-- Node2&#45;&gt;Node3 -->
<g id="edge2" class="edge"><title>Node2&#45;&gt;Node3</title>
<path fill="none" stroke="midnightblue" d="M647.235,-385.123C683.061,-392.109 723.448,-399.986 754.119,-405.967"/>
<polygon fill="midnightblue" stroke="midnightblue" points="647.748,-381.657 637.263,-383.178 646.408,-388.527 647.748,-381.657"/>
</g>
<!-- Node4 -->
<g id="node4" class="node"><title>Node4</title>
<g id="a_node4"><a xlink:href="../../dd/dfd/classorg_1_1msrg_1_1raccoon_1_1CodedPiece_a2356802d8204151b602ba47d25c34ff3.html#a2356802d8204151b602ba47d25c34ff3" target="_top" xlink:title="org.msrg.raccoon.CodedPiece.make\lCodedPiece">
<polygon fill="none" stroke="black" points="716,-356.5 716,-386.5 892,-386.5 892,-356.5 716,-356.5"/>
<text text-anchor="start" x="724" y="-374.5" font-family="Helvetica,sans-Serif" font-size="10.00">org.msrg.raccoon.CodedPiece.make</text>
<text text-anchor="middle" x="804" y="-363.5" font-family="Helvetica,sans-Serif" font-size="10.00">CodedPiece</text>
</a>
</g>
</g>
<!-- Node2&#45;&gt;Node4 -->
<g id="edge3" class="edge"><title>Node2&#45;&gt;Node4</title>
<path fill="none" stroke="midnightblue" d="M647.315,-369.562C669.485,-369.838 693.398,-370.136 715.671,-370.413"/>
<polygon fill="midnightblue" stroke="midnightblue" points="647.305,-366.062 637.263,-369.437 647.218,-373.061 647.305,-366.062"/>
</g>
<!-- Node5 -->
<g id="node5" class="node"><title>Node5</title>
<g id="a_node5"><a xlink:href="../../d2/da2/classorg_1_1msrg_1_1raccoon_1_1SourceCodedBatch_aa614a213e1484d4643bf8f6b4eb8616a.html#aa614a213e1484d4643bf8f6b4eb8616a" target="_top" xlink:title="org.msrg.raccoon.SourceCoded\lBatch.code">
<polygon fill="none" stroke="black" points="949.5,-410.5 949.5,-440.5 1104.5,-440.5 1104.5,-410.5 949.5,-410.5"/>
<text text-anchor="start" x="957.5" y="-428.5" font-family="Helvetica,sans-Serif" font-size="10.00">org.msrg.raccoon.SourceCoded</text>
<text text-anchor="middle" x="1027" y="-417.5" font-family="Helvetica,sans-Serif" font-size="10.00">Batch.code</text>
</a>
</g>
</g>
<!-- Node4&#45;&gt;Node5 -->
<g id="edge4" class="edge"><title>Node4&#45;&gt;Node5</title>
<path fill="none" stroke="midnightblue" d="M876.413,-388.949C904.772,-395.879 937.075,-403.772 964.386,-410.445"/>
<polygon fill="midnightblue" stroke="midnightblue" points="877.106,-385.516 866.561,-386.542 875.444,-392.316 877.106,-385.516"/>
</g>
<!-- Node8 -->
<g id="node8" class="node"><title>Node8</title>
<g id="a_node8"><a xlink:href="../../d7/da5/classorg_1_1msrg_1_1raccoon_1_1CodedPieceTest_a264feb2dd21ccabd0fa19fe54a7c52db.html#a264feb2dd21ccabd0fa19fe54a7c52db" target="_top" xlink:title="org.msrg.raccoon.CodedPiece\lTest.setUp">
<polygon fill="none" stroke="black" points="952.5,-501.5 952.5,-531.5 1101.5,-531.5 1101.5,-501.5 952.5,-501.5"/>
<text text-anchor="start" x="960.5" y="-519.5" font-family="Helvetica,sans-Serif" font-size="10.00">org.msrg.raccoon.CodedPiece</text>
<text text-anchor="middle" x="1027" y="-508.5" font-family="Helvetica,sans-Serif" font-size="10.00">Test.setUp</text>
</a>
</g>
</g>
<!-- Node4&#45;&gt;Node8 -->
<g id="edge7" class="edge"><title>Node4&#45;&gt;Node8</title>
<path fill="none" stroke="midnightblue" d="M885.6,-391.164C888.517,-392.803 891.33,-394.578 894,-396.5 917.11,-413.138 909.993,-429.238 930,-449.5 950.706,-470.47 978.755,-489.18 999.185,-501.462"/>
<polygon fill="midnightblue" stroke="midnightblue" points="887.091,-387.997 876.583,-386.646 883.955,-394.255 887.091,-387.997"/>
</g>
<!-- Node9 -->
<g id="node9" class="node"><title>Node9</title>
<g id="a_node9"><a xlink:href="../../db/d26/classorg_1_1msrg_1_1raccoon_1_1ReceivedCodedBatchTest_af7c8b12bc8b1dc5d9c5e353b838d830d.html#af7c8b12bc8b1dc5d9c5e353b838d830d" target="_top" xlink:title="org.msrg.raccoon.Received\lCodedBatchTest.ttestEncodingDecoding\lReceivedCodedBatch">
<polygon fill="none" stroke="black" points="930,-351 930,-392 1124,-392 1124,-351 930,-351"/>
<text text-anchor="start" x="938" y="-380" font-family="Helvetica,sans-Serif" font-size="10.00">org.msrg.raccoon.Received</text>
<text text-anchor="start" x="938" y="-369" font-family="Helvetica,sans-Serif" font-size="10.00">CodedBatchTest.ttestEncodingDecoding</text>
<text text-anchor="middle" x="1027" y="-358" font-family="Helvetica,sans-Serif" font-size="10.00">ReceivedCodedBatch</text>
</a>
</g>
</g>
<!-- Node4&#45;&gt;Node9 -->
<g id="edge8" class="edge"><title>Node4&#45;&gt;Node9</title>
<path fill="none" stroke="midnightblue" d="M902.313,-371.5C911.482,-371.5 920.773,-371.5 929.929,-371.5"/>
<polygon fill="midnightblue" stroke="midnightblue" points="902.028,-368 892.028,-371.5 902.028,-375 902.028,-368"/>
</g>
<!-- Node6 -->
<g id="node6" class="node"><title>Node6</title>
<g id="a_node6"><a xlink:href="../../db/d77/classorg_1_1msrg_1_1raccoon_1_1CodedBatchTest_a04baac235b53bea4fab4b550de9271a5.html#a04baac235b53bea4fab4b550de9271a5" target="_top" xlink:title="org.msrg.raccoon.CodedBatch\lTest.testReceivedCodedBatch">
<polygon fill="none" stroke="black" points="1172.5,-387.5 1172.5,-417.5 1323.5,-417.5 1323.5,-387.5 1172.5,-387.5"/>
<text text-anchor="start" x="1180.5" y="-405.5" font-family="Helvetica,sans-Serif" font-size="10.00">org.msrg.raccoon.CodedBatch</text>
<text text-anchor="middle" x="1248" y="-394.5" font-family="Helvetica,sans-Serif" font-size="10.00">Test.testReceivedCodedBatch</text>
</a>
</g>
</g>
<!-- Node5&#45;&gt;Node6 -->
<g id="edge5" class="edge"><title>Node5&#45;&gt;Node6</title>
<path fill="none" stroke="midnightblue" d="M1114.75,-416.389C1133.79,-414.39 1153.78,-412.29 1172.29,-410.346"/>
<polygon fill="midnightblue" stroke="midnightblue" points="1114.18,-412.93 1104.6,-417.456 1114.91,-419.892 1114.18,-412.93"/>
</g>
<!-- Node7 -->
<g id="node7" class="node"><title>Node7</title>
<g id="a_node7"><a xlink:href="../../d7/d47/classorg_1_1msrg_1_1raccoon_1_1SlicedCodedBatchTest_aa7d0bdfa77013b46a1f2e416dbb71b8c.html#aa7d0bdfa77013b46a1f2e416dbb71b8c" target="_top" xlink:title="org.msrg.raccoon.SlicedCoded\lBatchTest.testReceivedCodedBatch">
<polygon fill="none" stroke="black" points="1160,-315.5 1160,-345.5 1336,-345.5 1336,-315.5 1160,-315.5"/>
<text text-anchor="start" x="1168" y="-333.5" font-family="Helvetica,sans-Serif" font-size="10.00">org.msrg.raccoon.SlicedCoded</text>
<text text-anchor="middle" x="1248" y="-322.5" font-family="Helvetica,sans-Serif" font-size="10.00">BatchTest.testReceivedCodedBatch</text>
</a>
</g>
</g>
<!-- Node5&#45;&gt;Node7 -->
<g id="edge6" class="edge"><title>Node5&#45;&gt;Node7</title>
<path fill="none" stroke="midnightblue" d="M1109.4,-407.261C1114.41,-405.493 1119.31,-403.575 1124,-401.5 1141.59,-393.721 1143.52,-387.414 1160,-377.5 1178.83,-366.171 1200.58,-354.421 1217.62,-345.503"/>
<polygon fill="midnightblue" stroke="midnightblue" points="1108.09,-404.012 1099.69,-410.481 1110.29,-410.656 1108.09,-404.012"/>
</g>
<!-- Node10&#45;&gt;Node8 -->
<g id="edge10" class="edge"><title>Node10&#45;&gt;Node8</title>
<path fill="none" stroke="midnightblue" d="M326.583,-487.118C355.431,-505.234 400.607,-530.256 444,-540.5 624.359,-583.077 844.725,-552.401 955.406,-531.528"/>
<polygon fill="midnightblue" stroke="midnightblue" points="328.124,-483.949 317.814,-481.507 324.35,-489.845 328.124,-483.949"/>
</g>
<!-- Node11 -->
<g id="node11" class="node"><title>Node11</title>
<g id="a_node11"><a xlink:href="../../db/d26/classorg_1_1msrg_1_1raccoon_1_1ReceivedCodedBatchTest_af48d802e6f619d8e81119e7829f963bf.html#af48d802e6f619d8e81119e7829f963bf" target="_top" xlink:title="org.msrg.raccoon.Received\lCodedBatchTest.setUp">
<polygon fill="none" stroke="black" points="492.5,-500.5 492.5,-530.5 629.5,-530.5 629.5,-500.5 492.5,-500.5"/>
<text text-anchor="start" x="500.5" y="-518.5" font-family="Helvetica,sans-Serif" font-size="10.00">org.msrg.raccoon.Received</text>
<text text-anchor="middle" x="561" y="-507.5" font-family="Helvetica,sans-Serif" font-size="10.00">CodedBatchTest.setUp</text>
</a>
</g>
</g>
<!-- Node10&#45;&gt;Node11 -->
<g id="edge11" class="edge"><title>Node10&#45;&gt;Node11</title>
<path fill="none" stroke="midnightblue" d="M387.113,-483.411C421.7,-489.831 460.442,-497.021 492.471,-502.966"/>
<polygon fill="midnightblue" stroke="midnightblue" points="387.474,-479.918 377.003,-481.535 386.196,-486.801 387.474,-479.918"/>
</g>
<!-- Node12 -->
<g id="node12" class="node"><title>Node12</title>
<g id="a_node12"><a xlink:href="../../dc/dcf/classorg_1_1msrg_1_1raccoon_1_1engine_1_1CodingEngineTest_a1a3ce31a699af797e95ece5666d7e394.html#a1a3ce31a699af797e95ece5666d7e394" target="_top" xlink:title="org.msrg.raccoon.engine.\lCodingEngineTest.setUp">
<polygon fill="none" stroke="black" points="497.5,-451.5 497.5,-481.5 624.5,-481.5 624.5,-451.5 497.5,-451.5"/>
<text text-anchor="start" x="505.5" y="-469.5" font-family="Helvetica,sans-Serif" font-size="10.00">org.msrg.raccoon.engine.</text>
<text text-anchor="middle" x="561" y="-458.5" font-family="Helvetica,sans-Serif" font-size="10.00">CodingEngineTest.setUp</text>
</a>
</g>
</g>
<!-- Node10&#45;&gt;Node12 -->
<g id="edge12" class="edge"><title>Node10&#45;&gt;Node12</title>
<path fill="none" stroke="midnightblue" d="M409.729,-466.5C439.824,-466.5 471.211,-466.5 497.468,-466.5"/>
<polygon fill="midnightblue" stroke="midnightblue" points="409.582,-463 399.582,-466.5 409.582,-470 409.582,-463"/>
</g>
<!-- Node13 -->
<g id="node13" class="node"><title>Node13</title>
<g id="a_node13"><a xlink:href="../../d5/d96/classorg_1_1msrg_1_1raccoon_1_1matrix_1_1finitefields_1_1ByteMatrixTest_ac60808b559cdc155d008f0d650fe5c34.html#ac60808b559cdc155d008f0d650fe5c34" target="_top" xlink:title="org.msrg.raccoon.matrix.finitefields.\lByteMatrixTest.testMtimesBMtimesInvMIsBM">
<polygon fill="none" stroke="black" points="451.5,-402.5 451.5,-432.5 670.5,-432.5 670.5,-402.5 451.5,-402.5"/>
<text text-anchor="start" x="459.5" y="-420.5" font-family="Helvetica,sans-Serif" font-size="10.00">org.msrg.raccoon.matrix.finitefields.</text>
<text text-anchor="middle" x="561" y="-409.5" font-family="Helvetica,sans-Serif" font-size="10.00">ByteMatrixTest.testMtimesBMtimesInvMIsBM</text>
</a>
</g>
</g>
<!-- Node10&#45;&gt;Node13 -->
<g id="edge13" class="edge"><title>Node10&#45;&gt;Node13</title>
<path fill="none" stroke="midnightblue" d="M387.026,-449.605C416.963,-444.048 450.022,-437.913 479.15,-432.506"/>
<polygon fill="midnightblue" stroke="midnightblue" points="386.196,-446.199 377.003,-451.465 387.474,-453.082 386.196,-446.199"/>
</g>
<!-- Node15 -->
<g id="node15" class="node"><title>Node15</title>
<g id="a_node15"><a xlink:href="../../d7/d47/classorg_1_1msrg_1_1raccoon_1_1SlicedCodedBatchTest_a355965b499dffd1233919da4f09372c3.html#a355965b499dffd1233919da4f09372c3" target="_top" xlink:title="org.msrg.raccoon.SlicedCoded\lBatchTest.setUp">
<polygon fill="none" stroke="black" points="485.5,-98.5 485.5,-128.5 636.5,-128.5 636.5,-98.5 485.5,-98.5"/>
<text text-anchor="start" x="493.5" y="-116.5" font-family="Helvetica,sans-Serif" font-size="10.00">org.msrg.raccoon.SlicedCoded</text>
<text text-anchor="middle" x="561" y="-105.5" font-family="Helvetica,sans-Serif" font-size="10.00">BatchTest.setUp</text>
</a>
</g>
</g>
<!-- Node14&#45;&gt;Node15 -->
<g id="edge15" class="edge"><title>Node14&#45;&gt;Node15</title>
<path fill="none" stroke="midnightblue" d="M397.279,-187.326C400.979,-185.552 404.568,-183.615 408,-181.5 429.51,-168.243 422.388,-150.589 444,-137.5 456.49,-129.936 470.974,-124.722 485.386,-121.135"/>
<polygon fill="midnightblue" stroke="midnightblue" points="395.659,-184.214 387.88,-191.407 398.447,-190.635 395.659,-184.214"/>
</g>
<!-- Node17 -->
<g id="node17" class="node"><title>Node17</title>
<g id="a_node17"><a xlink:href="../../db/d77/classorg_1_1msrg_1_1raccoon_1_1CodedBatchTest_af315e153681ea73bcbce6675ccb3f823.html#af315e153681ea73bcbce6675ccb3f823" target="_top" xlink:title="org.msrg.raccoon.CodedBatch\lTest.setUp">
<polygon fill="none" stroke="black" points="486.5,-49.5 486.5,-79.5 635.5,-79.5 635.5,-49.5 486.5,-49.5"/>
<text text-anchor="start" x="494.5" y="-67.5" font-family="Helvetica,sans-Serif" font-size="10.00">org.msrg.raccoon.CodedBatch</text>
<text text-anchor="middle" x="561" y="-56.5" font-family="Helvetica,sans-Serif" font-size="10.00">Test.setUp</text>
</a>
</g>
</g>
<!-- Node16&#45;&gt;Node17 -->
<g id="edge17" class="edge"><title>Node16&#45;&gt;Node17</title>
<path fill="none" stroke="midnightblue" d="M387.612,-142.512C394.751,-139.722 401.645,-136.417 408,-132.5 429.51,-119.243 422.388,-101.589 444,-88.5 456.753,-80.7763 471.587,-75.5024 486.299,-71.9103"/>
<polygon fill="midnightblue" stroke="midnightblue" points="386.01,-139.367 377.753,-146.005 388.348,-145.965 386.01,-139.367"/>
</g>
<!-- Node19&#45;&gt;Node2 -->
<g id="edge20" class="edge"><title>Node19&#45;&gt;Node2</title>
<path fill="none" stroke="midnightblue" d="M334.478,-290.09C374.487,-310.362 432.831,-339.609 444,-343.5 457.034,-348.041 471.192,-351.918 484.991,-355.167"/>
<polygon fill="midnightblue" stroke="midnightblue" points="335.995,-286.935 325.493,-285.533 332.828,-293.178 335.995,-286.935"/>
</g>
<!-- Node19&#45;&gt;Node13 -->
<g id="edge26" class="edge"><title>Node19&#45;&gt;Node13</title>
<path fill="none" stroke="midnightblue" d="M316.344,-292.859C342.927,-320.64 392.221,-367.435 444,-392.5 452.066,-396.405 460.74,-399.704 469.583,-402.492"/>
<polygon fill="midnightblue" stroke="midnightblue" points="318.872,-290.437 309.466,-285.561 313.778,-295.238 318.872,-290.437"/>
</g>
<!-- Node20 -->
<g id="node20" class="node"><title>Node20</title>
<g id="a_node20"><a xlink:href="../../d4/daf/classorg_1_1msrg_1_1raccoon_1_1engine_1_1task_1_1sequential_1_1EncodingReceivedCodedBatch__SequentialCodingTask_a42110602418c15d727175229b4b8f9cb.html#a42110602418c15d727175229b4b8f9cb" target="_top" xlink:title="org.msrg.raccoon.engine.task.sequential.\lEncodingReceivedCodedBatch_SequentialCoding\lTask.runStagePrivately">
<polygon fill="none" stroke="black" points="444,-196 444,-237 678,-237 678,-196 444,-196"/>
<text text-anchor="start" x="452" y="-225" font-family="Helvetica,sans-Serif" font-size="10.00">org.msrg.raccoon.engine.task.sequential.</text>
<text text-anchor="start" x="452" y="-214" font-family="Helvetica,sans-Serif" font-size="10.00">EncodingReceivedCodedBatch_SequentialCoding</text>
<text text-anchor="middle" x="561" y="-203" font-family="Helvetica,sans-Serif" font-size="10.00">Task.runStagePrivately</text>
</a>
</g>
</g>
<!-- Node19&#45;&gt;Node20 -->
<g id="edge21" class="edge"><title>Node19&#45;&gt;Node20</title>
<path fill="none" stroke="midnightblue" d="M379.524,-253.416C404.996,-248.205 433.265,-242.423 459.725,-237.011"/>
<polygon fill="midnightblue" stroke="midnightblue" points="378.634,-250.025 369.539,-255.458 380.037,-256.883 378.634,-250.025"/>
</g>
<!-- Node21 -->
<g id="node21" class="node"><title>Node21</title>
<g id="a_node21"><a xlink:href="../../dd/d36/classorg_1_1msrg_1_1raccoon_1_1matrix_1_1finitefields_1_1ByteMatrix_a25491e8ba3b3c3e18ec2392b7393bac3.html#a25491e8ba3b3c3e18ec2392b7393bac3" target="_top" xlink:title="org.msrg.raccoon.matrix.finitefields.\lByteMatrix.multiply">
<polygon fill="none" stroke="black" points="474.5,-147.5 474.5,-177.5 647.5,-177.5 647.5,-147.5 474.5,-147.5"/>
<text text-anchor="start" x="482.5" y="-165.5" font-family="Helvetica,sans-Serif" font-size="10.00">org.msrg.raccoon.matrix.finitefields.</text>
<text text-anchor="middle" x="561" y="-154.5" font-family="Helvetica,sans-Serif" font-size="10.00">ByteMatrix.multiply</text>
</a>
</g>
</g>
<!-- Node19&#45;&gt;Node21 -->
<g id="edge22" class="edge"><title>Node19&#45;&gt;Node21</title>
<path fill="none" stroke="midnightblue" d="M366.26,-251.997C380.791,-246.405 395.472,-239.332 408,-230.5 428.651,-215.942 422.388,-199.589 444,-186.5 453.323,-180.854 463.758,-176.517 474.444,-173.189"/>
<polygon fill="midnightblue" stroke="midnightblue" points="364.953,-248.748 356.756,-255.462 367.35,-255.325 364.953,-248.748"/>
</g>
<!-- Node22 -->
<g id="node22" class="node"><title>Node22</title>
<g id="a_node22"><a xlink:href="../../d5/d96/classorg_1_1msrg_1_1raccoon_1_1matrix_1_1finitefields_1_1ByteMatrixTest_ae32ff4ec2714b4cecdb5f85253619a41.html#ae32ff4ec2714b4cecdb5f85253619a41" target="_top" xlink:title="org.msrg.raccoon.matrix.finitefields.\lByteMatrixTest.runTestM2timesInvIsM">
<polygon fill="none" stroke="black" points="467.5,-255.5 467.5,-285.5 654.5,-285.5 654.5,-255.5 467.5,-255.5"/>
<text text-anchor="start" x="475.5" y="-273.5" font-family="Helvetica,sans-Serif" font-size="10.00">org.msrg.raccoon.matrix.finitefields.</text>
<text text-anchor="middle" x="561" y="-262.5" font-family="Helvetica,sans-Serif" font-size="10.00">ByteMatrixTest.runTestM2timesInvIsM</text>
</a>
</g>
</g>
<!-- Node19&#45;&gt;Node22 -->
<g id="edge23" class="edge"><title>Node19&#45;&gt;Node22</title>
<path fill="none" stroke="midnightblue" d="M391.792,-270.5C416.451,-270.5 442.938,-270.5 467.431,-270.5"/>
<polygon fill="midnightblue" stroke="midnightblue" points="391.713,-267 381.713,-270.5 391.713,-274 391.713,-267"/>
</g>
<!-- Node25 -->
<g id="node25" class="node"><title>Node25</title>
<g id="a_node25"><a xlink:href="../../da/df0/classorg_1_1msrg_1_1raccoon_1_1ReceivedCodedBatch_a5621d4c76e51a0ac69a179e1001e6371.html#a5621d4c76e51a0ac69a179e1001e6371" target="_top" xlink:title="org.msrg.raccoon.Received\lCodedBatch.decodeUsing">
<polygon fill="none" stroke="black" points="492.5,-304.5 492.5,-334.5 629.5,-334.5 629.5,-304.5 492.5,-304.5"/>
<text text-anchor="start" x="500.5" y="-322.5" font-family="Helvetica,sans-Serif" font-size="10.00">org.msrg.raccoon.Received</text>
<text text-anchor="middle" x="561" y="-311.5" font-family="Helvetica,sans-Serif" font-size="10.00">CodedBatch.decodeUsing</text>
</a>
</g>
</g>
<!-- Node19&#45;&gt;Node25 -->
<g id="edge27" class="edge"><title>Node19&#45;&gt;Node25</title>
<path fill="none" stroke="midnightblue" d="M387.113,-287.411C421.7,-293.831 460.442,-301.021 492.471,-306.966"/>
<polygon fill="midnightblue" stroke="midnightblue" points="387.474,-283.918 377.003,-285.535 386.196,-290.801 387.474,-283.918"/>
</g>
<!-- Node23 -->
<g id="node23" class="node"><title>Node23</title>
<g id="a_node23"><a xlink:href="../../d5/d96/classorg_1_1msrg_1_1raccoon_1_1matrix_1_1finitefields_1_1ByteMatrixTest_af84f780201f4ae5e9d625748fa84ca38.html#af84f780201f4ae5e9d625748fa84ca38" target="_top" xlink:title="org.msrg.raccoon.matrix.finitefields.\lByteMatrixTest.testM2timesInvIsM\l_HasNoInvserse">
<polygon fill="none" stroke="black" points="717.5,-248 717.5,-289 890.5,-289 890.5,-248 717.5,-248"/>
<text text-anchor="start" x="725.5" y="-277" font-family="Helvetica,sans-Serif" font-size="10.00">org.msrg.raccoon.matrix.finitefields.</text>
<text text-anchor="start" x="725.5" y="-266" font-family="Helvetica,sans-Serif" font-size="10.00">ByteMatrixTest.testM2timesInvIsM</text>
<text text-anchor="middle" x="804" y="-255" font-family="Helvetica,sans-Serif" font-size="10.00">_HasNoInvserse</text>
</a>
</g>
</g>
<!-- Node22&#45;&gt;Node23 -->
<g id="edge24" class="edge"><title>Node22&#45;&gt;Node23</title>
<path fill="none" stroke="midnightblue" d="M665.028,-269.645C682.463,-269.5 700.396,-269.351 717.325,-269.211"/>
<polygon fill="midnightblue" stroke="midnightblue" points="664.803,-266.147 654.832,-269.73 664.861,-273.146 664.803,-266.147"/>
</g>
<!-- Node24 -->
<g id="node24" class="node"><title>Node24</title>
<g id="a_node24"><a xlink:href="../../d5/d96/classorg_1_1msrg_1_1raccoon_1_1matrix_1_1finitefields_1_1ByteMatrixTest_a810788f9ce020bbab969821becb0ef3f.html#a810788f9ce020bbab969821becb0ef3f" target="_top" xlink:title="org.msrg.raccoon.matrix.finitefields.\lByteMatrixTest.testM2timesInvIsM\l_HasInvserse">
<polygon fill="none" stroke="black" points="717.5,-188 717.5,-229 890.5,-229 890.5,-188 717.5,-188"/>
<text text-anchor="start" x="725.5" y="-217" font-family="Helvetica,sans-Serif" font-size="10.00">org.msrg.raccoon.matrix.finitefields.</text>
<text text-anchor="start" x="725.5" y="-206" font-family="Helvetica,sans-Serif" font-size="10.00">ByteMatrixTest.testM2timesInvIsM</text>
<text text-anchor="middle" x="804" y="-195" font-family="Helvetica,sans-Serif" font-size="10.00">_HasInvserse</text>
</a>
</g>
</g>
<!-- Node22&#45;&gt;Node24 -->
<g id="edge25" class="edge"><title>Node22&#45;&gt;Node24</title>
<path fill="none" stroke="midnightblue" d="M649.594,-253.265C659.208,-251.11 668.83,-248.837 678,-246.5 698.111,-241.374 719.815,-235.058 739.403,-229.057"/>
<polygon fill="midnightblue" stroke="midnightblue" points="648.61,-249.898 639.597,-255.467 650.116,-256.734 648.61,-249.898"/>
</g>
<!-- Node26 -->
<g id="node26" class="node"><title>Node26</title>
<g id="a_node26"><a xlink:href="../../da/df0/classorg_1_1msrg_1_1raccoon_1_1ReceivedCodedBatch_aa025693c18e525356f5750174ceccd70.html#aa025693c18e525356f5750174ceccd70" target="_top" xlink:title="org.msrg.raccoon.Received\lCodedBatch.decode">
<polygon fill="none" stroke="black" points="735.5,-307.5 735.5,-337.5 872.5,-337.5 872.5,-307.5 735.5,-307.5"/>
<text text-anchor="start" x="743.5" y="-325.5" font-family="Helvetica,sans-Serif" font-size="10.00">org.msrg.raccoon.Received</text>
<text text-anchor="middle" x="804" y="-314.5" font-family="Helvetica,sans-Serif" font-size="10.00">CodedBatch.decode</text>
</a>
</g>
</g>
<!-- Node25&#45;&gt;Node26 -->
<g id="edge28" class="edge"><title>Node25&#45;&gt;Node26</title>
<path fill="none" stroke="midnightblue" d="M640.016,-320.471C670.738,-320.854 705.685,-321.289 735.318,-321.657"/>
<polygon fill="midnightblue" stroke="midnightblue" points="639.816,-316.968 629.773,-320.344 639.729,-323.968 639.816,-316.968"/>
</g>
<!-- Node26&#45;&gt;Node6 -->
<g id="edge29" class="edge"><title>Node26&#45;&gt;Node6</title>
<path fill="none" stroke="midnightblue" d="M882.76,-318.567C948.211,-317.274 1043.72,-320.148 1124,-341.5 1143.23,-346.616 1189.72,-371.016 1219.71,-387.363"/>
<polygon fill="midnightblue" stroke="midnightblue" points="882.435,-315.073 872.52,-318.808 882.6,-322.071 882.435,-315.073"/>
</g>
<!-- Node26&#45;&gt;Node7 -->
<g id="edge30" class="edge"><title>Node26&#45;&gt;Node7</title>
<path fill="none" stroke="midnightblue" d="M882.811,-312.427C898.413,-310.79 914.708,-309.354 930,-308.5 1016.09,-303.694 1038.12,-300.88 1124,-308.5 1140.75,-309.986 1158.63,-312.588 1175.42,-315.495"/>
<polygon fill="midnightblue" stroke="midnightblue" points="882.241,-308.968 872.677,-313.527 882.996,-315.927 882.241,-308.968"/>
</g>
<!-- Node26&#45;&gt;Node9 -->
<g id="edge31" class="edge"><title>Node26&#45;&gt;Node9</title>
<path fill="none" stroke="midnightblue" d="M882.558,-339.696C898.943,-343.329 916.391,-347.198 933.272,-350.94"/>
<polygon fill="midnightblue" stroke="midnightblue" points="883.029,-336.216 872.508,-337.468 881.513,-343.05 883.029,-336.216"/>
</g>
<!-- Node28 -->
<g id="node28" class="node"><title>Node28</title>
<g id="a_node28"><a xlink:href="../../dc/d76/classorg_1_1msrg_1_1raccoon_1_1engine_1_1task_1_1sequential_1_1BulkMatrixEqual__CodingTask_a2b079bf5a4d740b867ed98740abb0b49.html#a2b079bf5a4d740b867ed98740abb0b49" target="_top" xlink:title="org.msrg.raccoon.engine.task.sequential.\lBulkMatrixEqual_CodingTask.codingFinished">
<polygon fill="none" stroke="black" points="454,-0.5 454,-30.5 668,-30.5 668,-0.5 454,-0.5"/>
<text text-anchor="start" x="462" y="-18.5" font-family="Helvetica,sans-Serif" font-size="10.00">org.msrg.raccoon.engine.task.sequential.</text>
<text text-anchor="middle" x="561" y="-7.5" font-family="Helvetica,sans-Serif" font-size="10.00">BulkMatrixEqual_CodingTask.codingFinished</text>
</a>
</g>
</g>
<!-- Node27&#45;&gt;Node28 -->
<g id="edge33" class="edge"><title>Node27&#45;&gt;Node28</title>
<path fill="none" stroke="midnightblue" d="M418.593,-23.5345C430.297,-22.8695 442.101,-22.1988 453.632,-21.5436"/>
<polygon fill="midnightblue" stroke="midnightblue" points="418.128,-20.0552 408.343,-24.1169 418.525,-27.0439 418.128,-20.0552"/>
</g>
</g>
</svg>
