<?xml version="1.0" encoding="UTF-8" standalone="no"?>
<!DOCTYPE svg PUBLIC "-//W3C//DTD SVG 1.1//EN"
 "http://www.w3.org/Graphics/SVG/1.1/DTD/svg11.dtd">
<!-- Generated by graphviz version 2.38.0 (20140413.2041)
 -->
<!-- Title: org.msrg.raccoon.engine.ICodingEngine.checkEquality Pages: 1 -->
<svg width="726pt" height="278pt"
 viewBox="0.00 0.00 726.00 278.00" xmlns="http://www.w3.org/2000/svg" xmlns:xlink="http://www.w3.org/1999/xlink">
<g id="graph0" class="graph" transform="scale(1 1) rotate(0) translate(4 274)">
<title>org.msrg.raccoon.engine.ICodingEngine.checkEquality</title>
<!-- Node1 -->
<g id="node1" class="node"><title>Node1</title>
<polygon fill="#bfbfbf" stroke="black" points="0,-126 0,-156 145,-156 145,-126 0,-126"/>
<text text-anchor="start" x="8" y="-144" font-family="Helvetica,sans-Serif" font-size="10.00">org.msrg.raccoon.engine.</text>
<text text-anchor="middle" x="72.5" y="-133" font-family="Helvetica,sans-Serif" font-size="10.00">ICodingEngine.checkEquality</text>
</g>
<!-- Node2 -->
<g id="node2" class="node"><title>Node2</title>
<g id="a_node2"><a xlink:href="../../dc/dcf/classorg_1_1msrg_1_1raccoon_1_1engine_1_1CodingEngineTest_a866fee70b60a8eb0ced6d3e0e11a65f6.html#a866fee70b60a8eb0ced6d3e0e11a65f6" target="_top" xlink:title="org.msrg.raccoon.engine.\lCodingEngineTest.generateEquality\lCodingTasks">
<polygon fill="none" stroke="black" points="216,-228.5 216,-269.5 389,-269.5 389,-228.5 216,-228.5"/>
<text text-anchor="start" x="224" y="-257.5" font-family="Helvetica,sans-Serif" font-size="10.00">org.msrg.raccoon.engine.</text>
<text text-anchor="start" x="224" y="-246.5" font-family="Helvetica,sans-Serif" font-size="10.00">CodingEngineTest.generateEquality</text>
<text text-anchor="middle" x="302.5" y="-235.5" font-family="Helvetica,sans-Serif" font-size="10.00">CodingTasks</text>
</a>
</g>
</g>
<!-- Node1&#45;&gt;Node2 -->
<g id="edge1" class="edge"><title>Node1&#45;&gt;Node2</title>
<path fill="none" stroke="midnightblue" d="M97.7367,-162.818C118.466,-180.389 149.814,-204.476 181,-219 191.944,-224.097 203.866,-228.399 215.815,-232.011"/>
<polygon fill="midnightblue" stroke="midnightblue" points="99.9264,-160.084 90.0683,-156.202 95.354,-165.385 99.9264,-160.084"/>
</g>
<!-- Node4 -->
<g id="node4" class="node"><title>Node4</title>
<g id="a_node4"><a xlink:href="../../dc/d76/classorg_1_1msrg_1_1raccoon_1_1engine_1_1task_1_1sequential_1_1BulkMatrixEqual__CodingTask_ad34041615ce2c563116189d9a3b22a6d.html#ad34041615ce2c563116189d9a3b22a6d" target="_top" xlink:title="org.msrg.raccoon.engine.task.sequential.\lBulkMatrixEqual_CodingTask.runStagePrivately">
<polygon fill="none" stroke="black" points="189.5,-180 189.5,-210 415.5,-210 415.5,-180 189.5,-180"/>
<text text-anchor="start" x="197.5" y="-198" font-family="Helvetica,sans-Serif" font-size="10.00">org.msrg.raccoon.engine.task.sequential.</text>
<text text-anchor="middle" x="302.5" y="-187" font-family="Helvetica,sans-Serif" font-size="10.00">BulkMatrixEqual_CodingTask.runStagePrivately</text>
</a>
</g>
</g>
<!-- Node1&#45;&gt;Node4 -->
<g id="edge3" class="edge"><title>Node1&#45;&gt;Node4</title>
<path fill="none" stroke="midnightblue" d="M134.235,-158.812C149.447,-163.035 165.772,-167.364 181,-171 194.071,-174.121 208.007,-177.159 221.589,-179.967"/>
<polygon fill="midnightblue" stroke="midnightblue" points="134.996,-155.39 124.423,-156.061 133.106,-162.13 134.996,-155.39"/>
</g>
<!-- Node6 -->
<g id="node6" class="node"><title>Node6</title>
<g id="a_node6"><a xlink:href="../../d4/d5e/classorg_1_1msrg_1_1raccoon_1_1engine_1_1task_1_1sequential_1_1MultiplyInverseMultiplyEqual__SequentialCodingTask_a8870d11208f9be305c378f932d7abaa0.html#a8870d11208f9be305c378f932d7abaa0" target="_top" xlink:title="org.msrg.raccoon.engine.task.sequential.\lMultiplyInverseMultiplyEqual_Sequential\lCodingTask.runStagePrivately">
<polygon fill="none" stroke="black" points="204.5,-120.5 204.5,-161.5 400.5,-161.5 400.5,-120.5 204.5,-120.5"/>
<text text-anchor="start" x="212.5" y="-149.5" font-family="Helvetica,sans-Serif" font-size="10.00">org.msrg.raccoon.engine.task.sequential.</text>
<text text-anchor="start" x="212.5" y="-138.5" font-family="Helvetica,sans-Serif" font-size="10.00">MultiplyInverseMultiplyEqual_Sequential</text>
<text text-anchor="middle" x="302.5" y="-127.5" font-family="Helvetica,sans-Serif" font-size="10.00">CodingTask.runStagePrivately</text>
</a>
</g>
</g>
<!-- Node1&#45;&gt;Node6 -->
<g id="edge5" class="edge"><title>Node1&#45;&gt;Node6</title>
<path fill="none" stroke="midnightblue" d="M155.312,-141C171.203,-141 188.003,-141 204.332,-141"/>
<polygon fill="midnightblue" stroke="midnightblue" points="155.015,-137.5 145.015,-141 155.015,-144.5 155.015,-137.5"/>
</g>
<!-- Node8 -->
<g id="node8" class="node"><title>Node8</title>
<g id="a_node8"><a xlink:href="../../de/d11/classorg_1_1msrg_1_1raccoon_1_1engine_1_1task_1_1sequential_1_1EncodingDecodingEqual__SequentialCodingTask_ac93037a0e0b21d08ef67e2b1042b866e.html#ac93037a0e0b21d08ef67e2b1042b866e" target="_top" xlink:title="org.msrg.raccoon.engine.task.sequential.\lEncodingDecodingEqual_SequentialCodingTask.run\lStagePrivately">
<polygon fill="none" stroke="black" points="181,-60.5 181,-101.5 424,-101.5 424,-60.5 181,-60.5"/>
<text text-anchor="start" x="189" y="-89.5" font-family="Helvetica,sans-Serif" font-size="10.00">org.msrg.raccoon.engine.task.sequential.</text>
<text text-anchor="start" x="189" y="-78.5" font-family="Helvetica,sans-Serif" font-size="10.00">EncodingDecodingEqual_SequentialCodingTask.run</text>
<text text-anchor="middle" x="302.5" y="-67.5" font-family="Helvetica,sans-Serif" font-size="10.00">StagePrivately</text>
</a>
</g>
</g>
<!-- Node1&#45;&gt;Node8 -->
<g id="edge7" class="edge"><title>Node1&#45;&gt;Node8</title>
<path fill="none" stroke="midnightblue" d="M136.178,-123.188C150.862,-119.104 166.463,-114.837 181,-111 192.882,-107.864 205.446,-104.637 217.8,-101.515"/>
<polygon fill="midnightblue" stroke="midnightblue" points="134.874,-119.919 126.183,-125.979 136.756,-126.661 134.874,-119.919"/>
</g>
<!-- Node10 -->
<g id="node10" class="node"><title>Node10</title>
<g id="a_node10"><a xlink:href="../../d5/daf/classorg_1_1msrg_1_1raccoon_1_1engine_1_1task_1_1sequential_1_1EncodingReceivedEncodingDecodingEqual__SequentialCodingTask_acf664608beaee091834399cde52cbf8f.html#acf664608beaee091834399cde52cbf8f" target="_top" xlink:title="org.msrg.raccoon.engine.task.sequential.\lEncodingReceivedEncodingDecodingEqual\l_SequentialCodingTask.runStagePrivately">
<polygon fill="none" stroke="black" points="200,-0.5 200,-41.5 405,-41.5 405,-0.5 200,-0.5"/>
<text text-anchor="start" x="208" y="-29.5" font-family="Helvetica,sans-Serif" font-size="10.00">org.msrg.raccoon.engine.task.sequential.</text>
<text text-anchor="start" x="208" y="-18.5" font-family="Helvetica,sans-Serif" font-size="10.00">EncodingReceivedEncodingDecodingEqual</text>
<text text-anchor="middle" x="302.5" y="-7.5" font-family="Helvetica,sans-Serif" font-size="10.00">_SequentialCodingTask.runStagePrivately</text>
</a>
</g>
</g>
<!-- Node1&#45;&gt;Node10 -->
<g id="edge9" class="edge"><title>Node1&#45;&gt;Node10</title>
<path fill="none" stroke="midnightblue" d="M94.3773,-118.435C114.614,-97.8925 147.141,-68.2208 181,-51 187.918,-47.4815 195.273,-44.3594 202.805,-41.5917"/>
<polygon fill="midnightblue" stroke="midnightblue" points="91.6773,-116.192 87.2461,-125.816 96.7116,-121.056 91.6773,-116.192"/>
</g>
<!-- Node3 -->
<g id="node3" class="node"><title>Node3</title>
<g id="a_node3"><a xlink:href="../../dc/dcf/classorg_1_1msrg_1_1raccoon_1_1engine_1_1CodingEngineTest_adeae2ceda5cf2fce3a6a14a3286ec9c9.html#adeae2ceda5cf2fce3a6a14a3286ec9c9" target="_top" xlink:title="org.msrg.raccoon.engine.\lCodingEngineTest.testEngine">
<polygon fill="none" stroke="black" points="516,-234 516,-264 662,-264 662,-234 516,-234"/>
<text text-anchor="start" x="524" y="-252" font-family="Helvetica,sans-Serif" font-size="10.00">org.msrg.raccoon.engine.</text>
<text text-anchor="middle" x="589" y="-241" font-family="Helvetica,sans-Serif" font-size="10.00">CodingEngineTest.testEngine</text>
</a>
</g>
</g>
<!-- Node2&#45;&gt;Node3 -->
<g id="edge2" class="edge"><title>Node2&#45;&gt;Node3</title>
<path fill="none" stroke="midnightblue" d="M399.328,-249C437.418,-249 480.495,-249 515.862,-249"/>
<polygon fill="midnightblue" stroke="midnightblue" points="399.245,-245.5 389.245,-249 399.245,-252.5 399.245,-245.5"/>
</g>
<!-- Node5 -->
<g id="node5" class="node"><title>Node5</title>
<g id="a_node5"><a xlink:href="../../dc/d76/classorg_1_1msrg_1_1raccoon_1_1engine_1_1task_1_1sequential_1_1BulkMatrixEqual__CodingTask_a2b079bf5a4d740b867ed98740abb0b49.html#a2b079bf5a4d740b867ed98740abb0b49" target="_top" xlink:title="org.msrg.raccoon.engine.task.sequential.\lBulkMatrixEqual_CodingTask.codingFinished">
<polygon fill="none" stroke="black" points="482,-180 482,-210 696,-210 696,-180 482,-180"/>
<text text-anchor="start" x="490" y="-198" font-family="Helvetica,sans-Serif" font-size="10.00">org.msrg.raccoon.engine.task.sequential.</text>
<text text-anchor="middle" x="589" y="-187" font-family="Helvetica,sans-Serif" font-size="10.00">BulkMatrixEqual_CodingTask.codingFinished</text>
</a>
</g>
</g>
<!-- Node4&#45;&gt;Node5 -->
<g id="edge4" class="edge"><title>Node4&#45;&gt;Node5</title>
<path fill="none" stroke="midnightblue" d="M425.544,-195C444.21,-195 463.35,-195 481.642,-195"/>
<polygon fill="midnightblue" stroke="midnightblue" points="425.534,-191.5 415.534,-195 425.534,-198.5 425.534,-191.5"/>
</g>
<!-- Node7 -->
<g id="node7" class="node"><title>Node7</title>
<g id="a_node7"><a xlink:href="../../d4/d5e/classorg_1_1msrg_1_1raccoon_1_1engine_1_1task_1_1sequential_1_1MultiplyInverseMultiplyEqual__SequentialCodingTask_a486ab503957784e8d6aa52a9ddde130d.html#a486ab503957784e8d6aa52a9ddde130d" target="_top" xlink:title="org.msrg.raccoon.engine.task.sequential.\lMultiplyInverseMultiplyEqual_Sequential\lCodingTask.codingFinished">
<polygon fill="none" stroke="black" points="491,-120.5 491,-161.5 687,-161.5 687,-120.5 491,-120.5"/>
<text text-anchor="start" x="499" y="-149.5" font-family="Helvetica,sans-Serif" font-size="10.00">org.msrg.raccoon.engine.task.sequential.</text>
<text text-anchor="start" x="499" y="-138.5" font-family="Helvetica,sans-Serif" font-size="10.00">MultiplyInverseMultiplyEqual_Sequential</text>
<text text-anchor="middle" x="589" y="-127.5" font-family="Helvetica,sans-Serif" font-size="10.00">CodingTask.codingFinished</text>
</a>
</g>
</g>
<!-- Node6&#45;&gt;Node7 -->
<g id="edge6" class="edge"><title>Node6&#45;&gt;Node7</title>
<path fill="none" stroke="midnightblue" d="M410.615,-141C436.952,-141 465.004,-141 490.842,-141"/>
<polygon fill="midnightblue" stroke="midnightblue" points="410.613,-137.5 400.613,-141 410.613,-144.5 410.613,-137.5"/>
</g>
<!-- Node9 -->
<g id="node9" class="node"><title>Node9</title>
<g id="a_node9"><a xlink:href="../../de/d11/classorg_1_1msrg_1_1raccoon_1_1engine_1_1task_1_1sequential_1_1EncodingDecodingEqual__SequentialCodingTask_a13129faffdbf845a23ffdd2def1c2f1a.html#a13129faffdbf845a23ffdd2def1c2f1a" target="_top" xlink:title="org.msrg.raccoon.engine.task.sequential.\lEncodingDecodingEqual_SequentialCodingTask.coding\lFinished">
<polygon fill="none" stroke="black" points="460,-60.5 460,-101.5 718,-101.5 718,-60.5 460,-60.5"/>
<text text-anchor="start" x="468" y="-89.5" font-family="Helvetica,sans-Serif" font-size="10.00">org.msrg.raccoon.engine.task.sequential.</text>
<text text-anchor="start" x="468" y="-78.5" font-family="Helvetica,sans-Serif" font-size="10.00">EncodingDecodingEqual_SequentialCodingTask.coding</text>
<text text-anchor="middle" x="589" y="-67.5" font-family="Helvetica,sans-Serif" font-size="10.00">Finished</text>
</a>
</g>
</g>
<!-- Node8&#45;&gt;Node9 -->
<g id="edge8" class="edge"><title>Node8&#45;&gt;Node9</title>
<path fill="none" stroke="midnightblue" d="M434.161,-81C442.715,-81 451.325,-81 459.866,-81"/>
<polygon fill="midnightblue" stroke="midnightblue" points="434.154,-77.5001 424.154,-81 434.154,-84.5001 434.154,-77.5001"/>
</g>
<!-- Node11 -->
<g id="node11" class="node"><title>Node11</title>
<g id="a_node11"><a xlink:href="../../d5/daf/classorg_1_1msrg_1_1raccoon_1_1engine_1_1task_1_1sequential_1_1EncodingReceivedEncodingDecodingEqual__SequentialCodingTask_ad2c155a55fc3d08e007c03be1be0b195.html#ad2c155a55fc3d08e007c03be1be0b195" target="_top" xlink:title="org.msrg.raccoon.engine.task.sequential.\lEncodingReceivedEncodingDecodingEqual\l_SequentialCodingTask.codingFinished">
<polygon fill="none" stroke="black" points="486.5,-0.5 486.5,-41.5 691.5,-41.5 691.5,-0.5 486.5,-0.5"/>
<text text-anchor="start" x="494.5" y="-29.5" font-family="Helvetica,sans-Serif" font-size="10.00">org.msrg.raccoon.engine.task.sequential.</text>
<text text-anchor="start" x="494.5" y="-18.5" font-family="Helvetica,sans-Serif" font-size="10.00">EncodingReceivedEncodingDecodingEqual</text>
<text text-anchor="middle" x="589" y="-7.5" font-family="Helvetica,sans-Serif" font-size="10.00">_SequentialCodingTask.codingFinished</text>
</a>
</g>
</g>
<!-- Node10&#45;&gt;Node11 -->
<g id="edge10" class="edge"><title>Node10&#45;&gt;Node11</title>
<path fill="none" stroke="midnightblue" d="M415.281,-21C438.616,-21 463.098,-21 486.054,-21"/>
<polygon fill="midnightblue" stroke="midnightblue" points="415.006,-17.5001 405.006,-21 415.006,-24.5001 415.006,-17.5001"/>
</g>
</g>
</svg>
