<?xml version="1.0" encoding="UTF-8" standalone="no"?>
<!DOCTYPE svg PUBLIC "-//W3C//DTD SVG 1.1//EN"
 "http://www.w3.org/Graphics/SVG/1.1/DTD/svg11.dtd">
<!-- Generated by graphviz version 2.38.0 (20140413.2041)
 -->
<!-- Title: org.msrg.raccoon.ReceivedCodedBatch.getCols Pages: 1 -->
<svg width="562pt" height="83pt"
 viewBox="0.00 0.00 562.00 83.00" xmlns="http://www.w3.org/2000/svg" xmlns:xlink="http://www.w3.org/1999/xlink">
<g id="graph0" class="graph" transform="scale(1 1) rotate(0) translate(4 79)">
<title>org.msrg.raccoon.ReceivedCodedBatch.getCols</title>
<!-- Node0 -->
<g id="node1" class="node"><title>Node0</title>
<polygon fill="#bfbfbf" stroke="black" points="0,-22.5 0,-52.5 137,-52.5 137,-22.5 0,-22.5"/>
<text text-anchor="start" x="8" y="-40.5" font-family="Helvetica,sans-Serif" font-size="10.00">org.msrg.raccoon.Received</text>
<text text-anchor="middle" x="68.5" y="-29.5" font-family="Helvetica,sans-Serif" font-size="10.00">CodedBatch.getCols</text>
</g>
<!-- Node1 -->
<g id="node2" class="node"><title>Node1</title>
<g id="a_node2"><a xlink:href="../../da/df0/classorg_1_1msrg_1_1raccoon_1_1ReceivedCodedBatch_a49ff20e36a119e0d723508f18026b5da.html#a49ff20e36a119e0d723508f18026b5da" target="_top" xlink:title="org.msrg.raccoon.Received\lCodedBatch.getRows">
<polygon fill="none" stroke="black" points="197,-44.5 197,-74.5 334,-74.5 334,-44.5 197,-44.5"/>
<text text-anchor="start" x="205" y="-62.5" font-family="Helvetica,sans-Serif" font-size="10.00">org.msrg.raccoon.Received</text>
<text text-anchor="middle" x="265.5" y="-51.5" font-family="Helvetica,sans-Serif" font-size="10.00">CodedBatch.getRows</text>
</a>
</g>
</g>
<!-- Node0&#45;&gt;Node1 -->
<g id="edge1" class="edge"><title>Node0&#45;&gt;Node1</title>
<path fill="none" stroke="midnightblue" d="M137.154,-45.1328C153.187,-46.9416 170.411,-48.8849 186.849,-50.7394"/>
<polygon fill="midnightblue" stroke="midnightblue" points="186.636,-54.2375 196.965,-51.8807 187.421,-47.2816 186.636,-54.2375"/>
</g>
<!-- Node2 -->
<g id="node3" class="node"><title>Node2</title>
<g id="a_node3"><a xlink:href="../../dd/da2/classorg_1_1msrg_1_1raccoon_1_1CodedBatch_a790dedc7e8851563c2ab75be32a9425f.html#a790dedc7e8851563c2ab75be32a9425f" target="_top" xlink:title="org.msrg.raccoon.CodedBatch.getSize">
<polygon fill="none" stroke="black" points="173,-6 173,-25 358,-25 358,-6 173,-6"/>
<text text-anchor="middle" x="265.5" y="-13" font-family="Helvetica,sans-Serif" font-size="10.00">org.msrg.raccoon.CodedBatch.getSize</text>
</a>
</g>
</g>
<!-- Node0&#45;&gt;Node2 -->
<g id="edge2" class="edge"><title>Node0&#45;&gt;Node2</title>
<path fill="none" stroke="midnightblue" d="M137.154,-29.8672C147.766,-28.67 158.9,-27.4139 169.982,-26.1636"/>
<polygon fill="midnightblue" stroke="midnightblue" points="170.584,-29.6179 180.129,-25.0188 169.799,-22.6621 170.584,-29.6179"/>
</g>
<!-- Node3 -->
<g id="node4" class="node"><title>Node3</title>
<g id="a_node4"><a xlink:href="../../dd/da2/classorg_1_1msrg_1_1raccoon_1_1CodedBatch_add35b13e6611e5eea0f1ce5c97923634.html#add35b13e6611e5eea0f1ce5c97923634" target="_top" xlink:title="org.msrg.raccoon.CodedBatch.is\lSolved">
<polygon fill="none" stroke="black" points="394,-0.5 394,-30.5 554,-30.5 554,-0.5 394,-0.5"/>
<text text-anchor="start" x="402" y="-18.5" font-family="Helvetica,sans-Serif" font-size="10.00">org.msrg.raccoon.CodedBatch.is</text>
<text text-anchor="middle" x="474" y="-7.5" font-family="Helvetica,sans-Serif" font-size="10.00">Solved</text>
</a>
</g>
</g>
<!-- Node2&#45;&gt;Node3 -->
<g id="edge3" class="edge"><title>Node2&#45;&gt;Node3</title>
<path fill="none" stroke="midnightblue" d="M358.276,-15.5C366.7,-15.5 375.227,-15.5 383.629,-15.5"/>
<polygon fill="midnightblue" stroke="midnightblue" points="383.801,-19.0001 393.801,-15.5 383.801,-12.0001 383.801,-19.0001"/>
</g>
</g>
</svg>
