<?xml version="1.0" encoding="UTF-8" standalone="no"?>
<!DOCTYPE svg PUBLIC "-//W3C//DTD SVG 1.1//EN"
 "http://www.w3.org/Graphics/SVG/1.1/DTD/svg11.dtd">
<!-- Generated by graphviz version 2.38.0 (20140413.2041)
 -->
<!-- Title: org.msrg.raccoon.ReceivedCodedBatch.toString Pages: 1 -->
<svg width="509pt" height="88pt"
 viewBox="0.00 0.00 509.00 88.00" xmlns="http://www.w3.org/2000/svg" xmlns:xlink="http://www.w3.org/1999/xlink">
<g id="graph0" class="graph" transform="scale(1 1) rotate(0) translate(4 84)">
<title>org.msrg.raccoon.ReceivedCodedBatch.toString</title>
<!-- Node0 -->
<g id="node1" class="node"><title>Node0</title>
<polygon fill="#bfbfbf" stroke="black" points="0,-24.5 0,-54.5 137,-54.5 137,-24.5 0,-24.5"/>
<text text-anchor="start" x="8" y="-42.5" font-family="Helvetica,sans-Serif" font-size="10.00">org.msrg.raccoon.Received</text>
<text text-anchor="middle" x="68.5" y="-31.5" font-family="Helvetica,sans-Serif" font-size="10.00">CodedBatch.toString</text>
</g>
<!-- Node1 -->
<g id="node2" class="node"><title>Node1</title>
<g id="a_node2"><a xlink:href="../../df/da4/classorg_1_1msrg_1_1raccoon_1_1matrix_1_1bulk_1_1BulkMatrix_a3c2bc23eec089f27b7f14db3898e42ab.html#a3c2bc23eec089f27b7f14db3898e42ab" target="_top" xlink:title="org.msrg.raccoon.matrix.bulk.\lBulkMatrix.getByte">
<polygon fill="none" stroke="black" points="173,-49.5 173,-79.5 319,-79.5 319,-49.5 173,-49.5"/>
<text text-anchor="start" x="181" y="-67.5" font-family="Helvetica,sans-Serif" font-size="10.00">org.msrg.raccoon.matrix.bulk.</text>
<text text-anchor="middle" x="246" y="-56.5" font-family="Helvetica,sans-Serif" font-size="10.00">BulkMatrix.getByte</text>
</a>
</g>
</g>
<!-- Node0&#45;&gt;Node1 -->
<g id="edge1" class="edge"><title>Node0&#45;&gt;Node1</title>
<path fill="none" stroke="midnightblue" d="M137.102,-49.1299C145.5,-50.3262 154.158,-51.5595 162.745,-52.7828"/>
<polygon fill="midnightblue" stroke="midnightblue" points="162.38,-56.2661 172.774,-54.2114 163.368,-49.336 162.38,-56.2661"/>
</g>
<!-- Node3 -->
<g id="node4" class="node"><title>Node3</title>
<g id="a_node4"><a xlink:href="../../d8/dd8/enumorg_1_1msrg_1_1raccoon_1_1utils_1_1BytesUtil_a8c89e67ad6d79eb211def90a501bf654.html#a8c89e67ad6d79eb211def90a501bf654" target="_top" xlink:title="org.msrg.raccoon.utils.Bytes\lUtil.hex">
<polygon fill="none" stroke="black" points="175,-0.5 175,-30.5 317,-30.5 317,-0.5 175,-0.5"/>
<text text-anchor="start" x="183" y="-18.5" font-family="Helvetica,sans-Serif" font-size="10.00">org.msrg.raccoon.utils.Bytes</text>
<text text-anchor="middle" x="246" y="-7.5" font-family="Helvetica,sans-Serif" font-size="10.00">Util.hex</text>
</a>
</g>
</g>
<!-- Node0&#45;&gt;Node3 -->
<g id="edge3" class="edge"><title>Node0&#45;&gt;Node3</title>
<path fill="none" stroke="midnightblue" d="M137.102,-30.2553C146.179,-29.014 155.559,-27.7312 164.826,-26.4639"/>
<polygon fill="midnightblue" stroke="midnightblue" points="165.384,-29.9203 174.818,-25.0975 164.436,-22.9848 165.384,-29.9203"/>
</g>
<!-- Node2 -->
<g id="node3" class="node"><title>Node2</title>
<g id="a_node3"><a xlink:href="../../d6/d6d/classorg_1_1msrg_1_1raccoon_1_1matrix_1_1bulk_1_1SliceMatrix_a1fe8792bcabbfd1a541b53fee375f8a0.html#a1fe8792bcabbfd1a541b53fee375f8a0" target="_top" xlink:title="org.msrg.raccoon.matrix.bulk.\lSliceMatrix.getByte">
<polygon fill="none" stroke="black" points="355,-49.5 355,-79.5 501,-79.5 501,-49.5 355,-49.5"/>
<text text-anchor="start" x="363" y="-67.5" font-family="Helvetica,sans-Serif" font-size="10.00">org.msrg.raccoon.matrix.bulk.</text>
<text text-anchor="middle" x="428" y="-56.5" font-family="Helvetica,sans-Serif" font-size="10.00">SliceMatrix.getByte</text>
</a>
</g>
</g>
<!-- Node1&#45;&gt;Node2 -->
<g id="edge2" class="edge"><title>Node1&#45;&gt;Node2</title>
<path fill="none" stroke="midnightblue" d="M319.176,-64.5C327.52,-64.5 336.077,-64.5 344.544,-64.5"/>
<polygon fill="midnightblue" stroke="midnightblue" points="344.808,-68.0001 354.808,-64.5 344.808,-61.0001 344.808,-68.0001"/>
</g>
</g>
</svg>
