<?xml version="1.0" encoding="UTF-8" standalone="no"?>
<!DOCTYPE svg PUBLIC "-//W3C//DTD SVG 1.1//EN"
 "http://www.w3.org/Graphics/SVG/1.1/DTD/svg11.dtd">
<!-- Generated by graphviz version 2.38.0 (20140413.2041)
 -->
<!-- Title: org.msrg.raccoon.ReceivedCodedBatch.canSolve Pages: 1 -->
<svg width="756pt" height="274pt"
 viewBox="0.00 0.00 756.00 274.00" xmlns="http://www.w3.org/2000/svg" xmlns:xlink="http://www.w3.org/1999/xlink">
<g id="graph0" class="graph" transform="scale(1 1) rotate(0) translate(4 270)">
<title>org.msrg.raccoon.ReceivedCodedBatch.canSolve</title>
<!-- Node1 -->
<g id="node1" class="node"><title>Node1</title>
<polygon fill="#bfbfbf" stroke="black" points="0,-172.5 0,-202.5 137,-202.5 137,-172.5 0,-172.5"/>
<text text-anchor="start" x="8" y="-190.5" font-family="Helvetica,sans-Serif" font-size="10.00">org.msrg.raccoon.Received</text>
<text text-anchor="middle" x="68.5" y="-179.5" font-family="Helvetica,sans-Serif" font-size="10.00">CodedBatch.canSolve</text>
</g>
<!-- Node2 -->
<g id="node2" class="node"><title>Node2</title>
<g id="a_node2"><a xlink:href="../../da/df0/classorg_1_1msrg_1_1raccoon_1_1ReceivedCodedBatch_abe5a8dd787d94591fcbdc4aa01e639df.html#abe5a8dd787d94591fcbdc4aa01e639df" target="_top" xlink:title="org.msrg.raccoon.Received\lCodedBatch.canSolveHighPriority">
<polygon fill="none" stroke="black" points="173,-137.5 173,-167.5 338,-167.5 338,-137.5 173,-137.5"/>
<text text-anchor="start" x="181" y="-155.5" font-family="Helvetica,sans-Serif" font-size="10.00">org.msrg.raccoon.Received</text>
<text text-anchor="middle" x="255.5" y="-144.5" font-family="Helvetica,sans-Serif" font-size="10.00">CodedBatch.canSolveHighPriority</text>
</a>
</g>
</g>
<!-- Node1&#45;&gt;Node2 -->
<g id="edge1" class="edge"><title>Node1&#45;&gt;Node2</title>
<path fill="none" stroke="midnightblue" d="M137.075,-174.716C146.267,-172.976 155.815,-171.17 165.316,-169.373"/>
<polygon fill="midnightblue" stroke="midnightblue" points="166.009,-172.804 175.184,-167.506 164.707,-165.926 166.009,-172.804"/>
</g>
<!-- Node5 -->
<g id="node5" class="node"><title>Node5</title>
<g id="a_node5"><a xlink:href="../../da/df0/classorg_1_1msrg_1_1raccoon_1_1ReceivedCodedBatch_a837b249e1478223f84c24acbbaf33451.html#a837b249e1478223f84c24acbbaf33451" target="_top" xlink:title="org.msrg.raccoon.Received\lCodedBatch.getRequiredCodedPieceCount">
<polygon fill="none" stroke="black" points="374,-235.5 374,-265.5 580,-265.5 580,-235.5 374,-235.5"/>
<text text-anchor="start" x="382" y="-253.5" font-family="Helvetica,sans-Serif" font-size="10.00">org.msrg.raccoon.Received</text>
<text text-anchor="middle" x="477" y="-242.5" font-family="Helvetica,sans-Serif" font-size="10.00">CodedBatch.getRequiredCodedPieceCount</text>
</a>
</g>
</g>
<!-- Node1&#45;&gt;Node5 -->
<g id="edge9" class="edge"><title>Node1&#45;&gt;Node5</title>
<path fill="none" stroke="midnightblue" d="M137.082,-197.974C200.15,-207.748 295.294,-222.494 368.734,-233.876"/>
<polygon fill="midnightblue" stroke="midnightblue" points="368.529,-237.386 378.947,-235.459 369.601,-230.468 368.529,-237.386"/>
</g>
<!-- Node3 -->
<g id="node3" class="node"><title>Node3</title>
<g id="a_node3"><a xlink:href="../../db/d3f/classorg_1_1msrg_1_1raccoon_1_1matrix_1_1TypedMatrix_ae1d2f2c49745535f8586ada075ba449e.html#ae1d2f2c49745535f8586ada075ba449e" target="_top" xlink:title="org.msrg.raccoon.matrix.\lTypedMatrix.getInverseRowZero">
<polygon fill="none" stroke="black" points="397.5,-186.5 397.5,-216.5 556.5,-216.5 556.5,-186.5 397.5,-186.5"/>
<text text-anchor="start" x="405.5" y="-204.5" font-family="Helvetica,sans-Serif" font-size="10.00">org.msrg.raccoon.matrix.</text>
<text text-anchor="middle" x="477" y="-193.5" font-family="Helvetica,sans-Serif" font-size="10.00">TypedMatrix.getInverseRowZero</text>
</a>
</g>
</g>
<!-- Node2&#45;&gt;Node3 -->
<g id="edge2" class="edge"><title>Node2&#45;&gt;Node3</title>
<path fill="none" stroke="midnightblue" d="M323.849,-167.535C347.552,-172.826 374.373,-178.813 398.822,-184.271"/>
<polygon fill="midnightblue" stroke="midnightblue" points="398.256,-187.731 408.778,-186.494 399.781,-180.899 398.256,-187.731"/>
</g>
<!-- Node4 -->
<g id="node4" class="node"><title>Node4</title>
<g id="a_node4"><a xlink:href="../../da/df0/classorg_1_1msrg_1_1raccoon_1_1ReceivedCodedBatch_ae70ccb56d60221b625265c875e93bcc2.html#ae70ccb56d60221b625265c875e93bcc2" target="_top" xlink:title="org.msrg.raccoon.Received\lCodedBatch.getRandomIndex">
<polygon fill="none" stroke="black" points="403,-137.5 403,-167.5 551,-167.5 551,-137.5 403,-137.5"/>
<text text-anchor="start" x="411" y="-155.5" font-family="Helvetica,sans-Serif" font-size="10.00">org.msrg.raccoon.Received</text>
<text text-anchor="middle" x="477" y="-144.5" font-family="Helvetica,sans-Serif" font-size="10.00">CodedBatch.getRandomIndex</text>
</a>
</g>
</g>
<!-- Node2&#45;&gt;Node4 -->
<g id="edge3" class="edge"><title>Node2&#45;&gt;Node4</title>
<path fill="none" stroke="midnightblue" d="M338.234,-152.5C355.963,-152.5 374.737,-152.5 392.532,-152.5"/>
<polygon fill="midnightblue" stroke="midnightblue" points="392.881,-156 402.881,-152.5 392.881,-149 392.881,-156"/>
</g>
<!-- Node2&#45;&gt;Node5 -->
<g id="edge4" class="edge"><title>Node2&#45;&gt;Node5</title>
<path fill="none" stroke="midnightblue" d="M276.17,-167.776C298.64,-184.517 337.087,-211.043 374,-226.5 379.086,-228.63 384.398,-230.592 389.811,-232.396"/>
<polygon fill="midnightblue" stroke="midnightblue" points="389.047,-235.824 399.636,-235.475 391.14,-229.145 389.047,-235.824"/>
</g>
<!-- Node6 -->
<g id="node6" class="node"><title>Node6</title>
<g id="a_node6"><a xlink:href="../../db/d3f/classorg_1_1msrg_1_1raccoon_1_1matrix_1_1TypedMatrix_a62f3b28a72c0c130fa783e1129694d4e.html#a62f3b28a72c0c130fa783e1129694d4e" target="_top" xlink:title="org.msrg.raccoon.matrix.\lTypedMatrix.inverseMatrix">
<polygon fill="none" stroke="black" points="616,-71.5 616,-101.5 748,-101.5 748,-71.5 616,-71.5"/>
<text text-anchor="start" x="624" y="-89.5" font-family="Helvetica,sans-Serif" font-size="10.00">org.msrg.raccoon.matrix.</text>
<text text-anchor="middle" x="682" y="-78.5" font-family="Helvetica,sans-Serif" font-size="10.00">TypedMatrix.inverseMatrix</text>
</a>
</g>
</g>
<!-- Node2&#45;&gt;Node6 -->
<g id="edge5" class="edge"><title>Node2&#45;&gt;Node6</title>
<path fill="none" stroke="midnightblue" d="M326.257,-137.468C341.928,-134.31 358.504,-131.14 374,-128.5 452.743,-115.087 543.422,-103.104 605.7,-95.4043"/>
<polygon fill="midnightblue" stroke="midnightblue" points="606.332,-98.853 615.83,-94.1587 605.478,-91.9053 606.332,-98.853"/>
</g>
<!-- Node7 -->
<g id="node7" class="node"><title>Node7</title>
<g id="a_node7"><a xlink:href="../../dd/d36/classorg_1_1msrg_1_1raccoon_1_1matrix_1_1finitefields_1_1ByteMatrix_a8d9b66312ac41346f1149bc30061c96a.html#a8d9b66312ac41346f1149bc30061c96a" target="_top" xlink:title="org.msrg.raccoon.matrix.finitefields.\lByteMatrix.isInversable">
<polygon fill="none" stroke="black" points="390.5,-49.5 390.5,-79.5 563.5,-79.5 563.5,-49.5 390.5,-49.5"/>
<text text-anchor="start" x="398.5" y="-67.5" font-family="Helvetica,sans-Serif" font-size="10.00">org.msrg.raccoon.matrix.finitefields.</text>
<text text-anchor="middle" x="477" y="-56.5" font-family="Helvetica,sans-Serif" font-size="10.00">ByteMatrix.isInversable</text>
</a>
</g>
</g>
<!-- Node2&#45;&gt;Node7 -->
<g id="edge6" class="edge"><title>Node2&#45;&gt;Node7</title>
<path fill="none" stroke="midnightblue" d="M283.904,-137.287C307.337,-124.692 342.214,-106.913 374,-94.5 385.082,-90.1725 397.049,-86.1224 408.754,-82.4843"/>
<polygon fill="midnightblue" stroke="midnightblue" points="409.945,-85.7805 418.499,-79.5283 407.913,-79.082 409.945,-85.7805"/>
</g>
<!-- Node8 -->
<g id="node8" class="node"><title>Node8</title>
<g id="a_node8"><a xlink:href="../../da/df0/classorg_1_1msrg_1_1raccoon_1_1ReceivedCodedBatch_ab18664e24c529e824bfaf94bb94640d4.html#ab18664e24c529e824bfaf94bb94640d4" target="_top" xlink:title="org.msrg.raccoon.Received\lCodedBatch.removeBadRow">
<polygon fill="none" stroke="black" points="405.5,-0.5 405.5,-30.5 548.5,-30.5 548.5,-0.5 405.5,-0.5"/>
<text text-anchor="start" x="413.5" y="-18.5" font-family="Helvetica,sans-Serif" font-size="10.00">org.msrg.raccoon.Received</text>
<text text-anchor="middle" x="477" y="-7.5" font-family="Helvetica,sans-Serif" font-size="10.00">CodedBatch.removeBadRow</text>
</a>
</g>
</g>
<!-- Node2&#45;&gt;Node8 -->
<g id="edge8" class="edge"><title>Node2&#45;&gt;Node8</title>
<path fill="none" stroke="midnightblue" d="M267.68,-137.419C286.687,-112.915 327.764,-64.6677 374,-39.5 380.797,-35.8002 388.151,-32.6673 395.69,-30.015"/>
<polygon fill="midnightblue" stroke="midnightblue" points="396.871,-33.3116 405.311,-26.906 394.719,-26.6508 396.871,-33.3116"/>
</g>
<!-- Node7&#45;&gt;Node6 -->
<g id="edge7" class="edge"><title>Node7&#45;&gt;Node6</title>
<path fill="none" stroke="midnightblue" d="M563.502,-73.7662C577.49,-75.2822 591.894,-76.8432 605.615,-78.3302"/>
<polygon fill="midnightblue" stroke="midnightblue" points="605.637,-81.853 615.956,-79.4509 606.391,-74.8937 605.637,-81.853"/>
</g>
</g>
</svg>
