<?xml version="1.0" encoding="UTF-8" standalone="no"?>
<!DOCTYPE svg PUBLIC "-//W3C//DTD SVG 1.1//EN"
 "http://www.w3.org/Graphics/SVG/1.1/DTD/svg11.dtd">
<!-- Generated by graphviz version 2.38.0 (20140413.2041)
 -->
<!-- Title: org.msrg.raccoon.ReceivedCodedBatch.getRequiredCodedPieceCount Pages: 1 -->
<svg width="1132pt" height="198pt"
 viewBox="0.00 0.00 1132.00 197.50" xmlns="http://www.w3.org/2000/svg" xmlns:xlink="http://www.w3.org/1999/xlink">
<g id="graph0" class="graph" transform="scale(1 1) rotate(0) translate(4 193.5)">
<title>org.msrg.raccoon.ReceivedCodedBatch.getRequiredCodedPieceCount</title>
<!-- Node1 -->
<g id="node1" class="node"><title>Node1</title>
<polygon fill="#bfbfbf" stroke="black" points="0,-37 0,-67 206,-67 206,-37 0,-37"/>
<text text-anchor="start" x="8" y="-55" font-family="Helvetica,sans-Serif" font-size="10.00">org.msrg.raccoon.Received</text>
<text text-anchor="middle" x="103" y="-44" font-family="Helvetica,sans-Serif" font-size="10.00">CodedBatch.getRequiredCodedPieceCount</text>
</g>
<!-- Node2 -->
<g id="node2" class="node"><title>Node2</title>
<g id="a_node2"><a xlink:href="../../da/df0/classorg_1_1msrg_1_1raccoon_1_1ReceivedCodedBatch_a0eb883fc8fa5805904afcc3d6297b85a.html#a0eb883fc8fa5805904afcc3d6297b85a" target="_top" xlink:title="org.msrg.raccoon.Received\lCodedBatch.canSolve">
<polygon fill="none" stroke="black" points="443,-75 443,-105 580,-105 580,-75 443,-75"/>
<text text-anchor="start" x="451" y="-93" font-family="Helvetica,sans-Serif" font-size="10.00">org.msrg.raccoon.Received</text>
<text text-anchor="middle" x="511.5" y="-82" font-family="Helvetica,sans-Serif" font-size="10.00">CodedBatch.canSolve</text>
</a>
</g>
</g>
<!-- Node1&#45;&gt;Node2 -->
<g id="edge1" class="edge"><title>Node1&#45;&gt;Node2</title>
<path fill="none" stroke="midnightblue" d="M190.663,-68.7078C207.633,-71.5159 225.335,-74.1232 242,-76 310.07,-83.6657 388.329,-87.1433 442.728,-88.7153"/>
<polygon fill="midnightblue" stroke="midnightblue" points="191.213,-65.2512 180.77,-67.0352 190.046,-72.1532 191.213,-65.2512"/>
</g>
<!-- Node6 -->
<g id="node6" class="node"><title>Node6</title>
<g id="a_node6"><a xlink:href="../../db/d26/classorg_1_1msrg_1_1raccoon_1_1ReceivedCodedBatchTest_af7c8b12bc8b1dc5d9c5e353b838d830d.html#af7c8b12bc8b1dc5d9c5e353b838d830d" target="_top" xlink:title="org.msrg.raccoon.Received\lCodedBatchTest.ttestEncodingDecoding\lReceivedCodedBatch">
<polygon fill="none" stroke="black" points="912,-0.5 912,-41.5 1106,-41.5 1106,-0.5 912,-0.5"/>
<text text-anchor="start" x="920" y="-29.5" font-family="Helvetica,sans-Serif" font-size="10.00">org.msrg.raccoon.Received</text>
<text text-anchor="start" x="920" y="-18.5" font-family="Helvetica,sans-Serif" font-size="10.00">CodedBatchTest.ttestEncodingDecoding</text>
<text text-anchor="middle" x="1009" y="-7.5" font-family="Helvetica,sans-Serif" font-size="10.00">ReceivedCodedBatch</text>
</a>
</g>
</g>
<!-- Node1&#45;&gt;Node6 -->
<g id="edge11" class="edge"><title>Node1&#45;&gt;Node6</title>
<path fill="none" stroke="midnightblue" d="M183.96,-35.1187C202.902,-31.7861 223.095,-28.7732 242,-27 482.157,-4.4738 766.52,-10.8552 911.898,-16.4898"/>
<polygon fill="midnightblue" stroke="midnightblue" points="183.1,-31.7173 173.883,-36.9412 184.346,-38.6055 183.1,-31.7173"/>
</g>
<!-- Node9 -->
<g id="node9" class="node"><title>Node9</title>
<g id="a_node9"><a xlink:href="../../da/df0/classorg_1_1msrg_1_1raccoon_1_1ReceivedCodedBatch_abe5a8dd787d94591fcbdc4aa01e639df.html#abe5a8dd787d94591fcbdc4aa01e639df" target="_top" xlink:title="org.msrg.raccoon.Received\lCodedBatch.canSolveHighPriority">
<polygon fill="none" stroke="black" points="242,-37 242,-67 407,-67 407,-37 242,-37"/>
<text text-anchor="start" x="250" y="-55" font-family="Helvetica,sans-Serif" font-size="10.00">org.msrg.raccoon.Received</text>
<text text-anchor="middle" x="324.5" y="-44" font-family="Helvetica,sans-Serif" font-size="10.00">CodedBatch.canSolveHighPriority</text>
</a>
</g>
</g>
<!-- Node1&#45;&gt;Node9 -->
<g id="edge9" class="edge"><title>Node1&#45;&gt;Node9</title>
<path fill="none" stroke="midnightblue" d="M216.163,-52C224.79,-52 233.397,-52 241.771,-52"/>
<polygon fill="midnightblue" stroke="midnightblue" points="216.039,-48.5001 206.039,-52 216.039,-55.5001 216.039,-48.5001"/>
</g>
<!-- Node3 -->
<g id="node3" class="node"><title>Node3</title>
<g id="a_node3"><a xlink:href="../../da/df0/classorg_1_1msrg_1_1raccoon_1_1ReceivedCodedBatch_aa025693c18e525356f5750174ceccd70.html#aa025693c18e525356f5750174ceccd70" target="_top" xlink:title="org.msrg.raccoon.Received\lCodedBatch.decode">
<polygon fill="none" stroke="black" points="668.5,-75 668.5,-105 805.5,-105 805.5,-75 668.5,-75"/>
<text text-anchor="start" x="676.5" y="-93" font-family="Helvetica,sans-Serif" font-size="10.00">org.msrg.raccoon.Received</text>
<text text-anchor="middle" x="737" y="-82" font-family="Helvetica,sans-Serif" font-size="10.00">CodedBatch.decode</text>
</a>
</g>
</g>
<!-- Node2&#45;&gt;Node3 -->
<g id="edge2" class="edge"><title>Node2&#45;&gt;Node3</title>
<path fill="none" stroke="midnightblue" d="M590.469,-90C615.789,-90 643.662,-90 668.181,-90"/>
<polygon fill="midnightblue" stroke="midnightblue" points="590.164,-86.5001 580.164,-90 590.164,-93.5001 590.164,-86.5001"/>
</g>
<!-- Node2&#45;&gt;Node6 -->
<g id="edge8" class="edge"><title>Node2&#45;&gt;Node6</title>
<path fill="none" stroke="midnightblue" d="M579.262,-72.5784C591.43,-69.7734 604.053,-67.1049 616,-65 716.155,-47.3546 832.019,-35.3751 911.665,-28.4256"/>
<polygon fill="midnightblue" stroke="midnightblue" points="578.103,-69.2556 569.173,-74.9572 579.709,-76.0688 578.103,-69.2556"/>
</g>
<!-- Node7 -->
<g id="node7" class="node"><title>Node7</title>
<g id="a_node7"><a xlink:href="../../d3/d36/classorg_1_1msrg_1_1raccoon_1_1engine_1_1task_1_1sequential_1_1Decoding__SequentialCodingTask_aa875e6c27f9bd356223417ae1689c3b4.html#aa875e6c27f9bd356223417ae1689c3b4" target="_top" xlink:title="org.msrg.raccoon.engine.task.sequential.\lDecoding_SequentialCodingTask.runStagePrivately">
<polygon fill="none" stroke="black" points="616,-135 616,-165 858,-165 858,-135 616,-135"/>
<text text-anchor="start" x="624" y="-153" font-family="Helvetica,sans-Serif" font-size="10.00">org.msrg.raccoon.engine.task.sequential.</text>
<text text-anchor="middle" x="737" y="-142" font-family="Helvetica,sans-Serif" font-size="10.00">Decoding_SequentialCodingTask.runStagePrivately</text>
</a>
</g>
</g>
<!-- Node2&#45;&gt;Node7 -->
<g id="edge6" class="edge"><title>Node2&#45;&gt;Node7</title>
<path fill="none" stroke="midnightblue" d="M578.403,-107.692C610.644,-116.347 649.044,-126.656 679.867,-134.931"/>
<polygon fill="midnightblue" stroke="midnightblue" points="579.176,-104.276 568.61,-105.063 577.361,-111.036 579.176,-104.276"/>
</g>
<!-- Node4 -->
<g id="node4" class="node"><title>Node4</title>
<g id="a_node4"><a xlink:href="../../db/d77/classorg_1_1msrg_1_1raccoon_1_1CodedBatchTest_a04baac235b53bea4fab4b550de9271a5.html#a04baac235b53bea4fab4b550de9271a5" target="_top" xlink:title="org.msrg.raccoon.CodedBatch\lTest.testReceivedCodedBatch">
<polygon fill="none" stroke="black" points="933.5,-61 933.5,-91 1084.5,-91 1084.5,-61 933.5,-61"/>
<text text-anchor="start" x="941.5" y="-79" font-family="Helvetica,sans-Serif" font-size="10.00">org.msrg.raccoon.CodedBatch</text>
<text text-anchor="middle" x="1009" y="-68" font-family="Helvetica,sans-Serif" font-size="10.00">Test.testReceivedCodedBatch</text>
</a>
</g>
</g>
<!-- Node3&#45;&gt;Node4 -->
<g id="edge3" class="edge"><title>Node3&#45;&gt;Node4</title>
<path fill="none" stroke="midnightblue" d="M815.979,-85.9566C852.821,-84.0463 896.605,-81.776 933.053,-79.8861"/>
<polygon fill="midnightblue" stroke="midnightblue" points="815.589,-82.4721 805.784,-86.4853 815.952,-89.4627 815.589,-82.4721"/>
</g>
<!-- Node5 -->
<g id="node5" class="node"><title>Node5</title>
<g id="a_node5"><a xlink:href="../../d7/d47/classorg_1_1msrg_1_1raccoon_1_1SlicedCodedBatchTest_aa7d0bdfa77013b46a1f2e416dbb71b8c.html#aa7d0bdfa77013b46a1f2e416dbb71b8c" target="_top" xlink:title="org.msrg.raccoon.SlicedCoded\lBatchTest.testReceivedCodedBatch">
<polygon fill="none" stroke="black" points="921,-110 921,-140 1097,-140 1097,-110 921,-110"/>
<text text-anchor="start" x="929" y="-128" font-family="Helvetica,sans-Serif" font-size="10.00">org.msrg.raccoon.SlicedCoded</text>
<text text-anchor="middle" x="1009" y="-117" font-family="Helvetica,sans-Serif" font-size="10.00">BatchTest.testReceivedCodedBatch</text>
</a>
</g>
</g>
<!-- Node3&#45;&gt;Node5 -->
<g id="edge4" class="edge"><title>Node3&#45;&gt;Node5</title>
<path fill="none" stroke="midnightblue" d="M815.804,-100.086C848.703,-104.35 887.162,-109.336 920.996,-113.722"/>
<polygon fill="midnightblue" stroke="midnightblue" points="816.151,-96.6015 805.784,-98.7868 815.251,-103.543 816.151,-96.6015"/>
</g>
<!-- Node3&#45;&gt;Node6 -->
<g id="edge5" class="edge"><title>Node3&#45;&gt;Node6</title>
<path fill="none" stroke="midnightblue" d="M808.714,-72.4388C824.915,-68.3827 842.06,-64.0645 858,-60 881.205,-54.0828 906.405,-47.5662 929.408,-41.5821"/>
<polygon fill="midnightblue" stroke="midnightblue" points="807.619,-69.1046 798.767,-74.9259 809.317,-75.8956 807.619,-69.1046"/>
</g>
<!-- Node8 -->
<g id="node8" class="node"><title>Node8</title>
<g id="a_node8"><a xlink:href="../../d3/d36/classorg_1_1msrg_1_1raccoon_1_1engine_1_1task_1_1sequential_1_1Decoding__SequentialCodingTask_a3497f9c294517ca7934dea0ad28f411d.html#a3497f9c294517ca7934dea0ad28f411d" target="_top" xlink:title="org.msrg.raccoon.engine.task.sequential.\lDecoding_SequentialCodingTask.codingFinished">
<polygon fill="none" stroke="black" points="894,-159 894,-189 1124,-189 1124,-159 894,-159"/>
<text text-anchor="start" x="902" y="-177" font-family="Helvetica,sans-Serif" font-size="10.00">org.msrg.raccoon.engine.task.sequential.</text>
<text text-anchor="middle" x="1009" y="-166" font-family="Helvetica,sans-Serif" font-size="10.00">Decoding_SequentialCodingTask.codingFinished</text>
</a>
</g>
</g>
<!-- Node7&#45;&gt;Node8 -->
<g id="edge7" class="edge"><title>Node7&#45;&gt;Node8</title>
<path fill="none" stroke="midnightblue" d="M868.386,-161.59C876.916,-162.348 885.471,-163.109 893.915,-163.859"/>
<polygon fill="midnightblue" stroke="midnightblue" points="868.662,-158.101 858.392,-160.701 868.042,-165.073 868.662,-158.101"/>
</g>
<!-- Node9&#45;&gt;Node2 -->
<g id="edge10" class="edge"><title>Node9&#45;&gt;Node2</title>
<path fill="none" stroke="midnightblue" d="M408.587,-69.0666C420.01,-71.4128 431.626,-73.7988 442.729,-76.0794"/>
<polygon fill="midnightblue" stroke="midnightblue" points="409.117,-65.6023 398.617,-67.0186 407.708,-72.4592 409.117,-65.6023"/>
</g>
</g>
</svg>
