<?xml version="1.0" encoding="UTF-8" standalone="no"?>
<!DOCTYPE svg PUBLIC "-//W3C//DTD SVG 1.1//EN"
 "http://www.w3.org/Graphics/SVG/1.1/DTD/svg11.dtd">
<!-- Generated by graphviz version 2.38.0 (20140413.2041)
 -->
<!-- Title: org.msrg.raccoon.ReceivedCodedBatch.getCols Pages: 1 -->
<svg width="366pt" height="78pt"
 viewBox="0.00 0.00 366.00 77.50" xmlns="http://www.w3.org/2000/svg" xmlns:xlink="http://www.w3.org/1999/xlink">
<g id="graph0" class="graph" transform="scale(1 1) rotate(0) translate(4 73.5)">
<title>org.msrg.raccoon.ReceivedCodedBatch.getCols</title>
<!-- Node1 -->
<g id="node1" class="node"><title>Node1</title>
<polygon fill="#bfbfbf" stroke="black" points="0,-17 0,-47 137,-47 137,-17 0,-17"/>
<text text-anchor="start" x="8" y="-35" font-family="Helvetica,sans-Serif" font-size="10.00">org.msrg.raccoon.Received</text>
<text text-anchor="middle" x="68.5" y="-24" font-family="Helvetica,sans-Serif" font-size="10.00">CodedBatch.getCols</text>
</g>
<!-- Node2 -->
<g id="node2" class="node"><title>Node2</title>
<g id="a_node2"><a xlink:href="../../da/df0/classorg_1_1msrg_1_1raccoon_1_1ReceivedCodedBatch_a49ff20e36a119e0d723508f18026b5da.html#a49ff20e36a119e0d723508f18026b5da" target="_top" xlink:title="org.msrg.raccoon.Received\lCodedBatch.getRows">
<polygon fill="none" stroke="black" points="197,-39 197,-69 334,-69 334,-39 197,-39"/>
<text text-anchor="start" x="205" y="-57" font-family="Helvetica,sans-Serif" font-size="10.00">org.msrg.raccoon.Received</text>
<text text-anchor="middle" x="265.5" y="-46" font-family="Helvetica,sans-Serif" font-size="10.00">CodedBatch.getRows</text>
</a>
</g>
</g>
<!-- Node1&#45;&gt;Node2 -->
<g id="edge1" class="edge"><title>Node1&#45;&gt;Node2</title>
<path fill="none" stroke="midnightblue" d="M137.154,-39.6328C153.187,-41.4416 170.411,-43.3849 186.849,-45.2394"/>
<polygon fill="midnightblue" stroke="midnightblue" points="186.636,-48.7375 196.965,-46.3807 187.421,-41.7816 186.636,-48.7375"/>
</g>
<!-- Node3 -->
<g id="node3" class="node"><title>Node3</title>
<g id="a_node3"><a xlink:href="../../dd/da2/classorg_1_1msrg_1_1raccoon_1_1CodedBatch_a790dedc7e8851563c2ab75be32a9425f.html#a790dedc7e8851563c2ab75be32a9425f" target="_top" xlink:title="org.msrg.raccoon.CodedBatch.getSize">
<polygon fill="none" stroke="black" points="173,-0.5 173,-19.5 358,-19.5 358,-0.5 173,-0.5"/>
<text text-anchor="middle" x="265.5" y="-7.5" font-family="Helvetica,sans-Serif" font-size="10.00">org.msrg.raccoon.CodedBatch.getSize</text>
</a>
</g>
</g>
<!-- Node1&#45;&gt;Node3 -->
<g id="edge2" class="edge"><title>Node1&#45;&gt;Node3</title>
<path fill="none" stroke="midnightblue" d="M137.154,-24.3672C147.766,-23.17 158.9,-21.9139 169.982,-20.6636"/>
<polygon fill="midnightblue" stroke="midnightblue" points="170.584,-24.1179 180.129,-19.5188 169.799,-17.1621 170.584,-24.1179"/>
</g>
</g>
</svg>
