<?xml version="1.0" encoding="UTF-8" standalone="no"?>
<!DOCTYPE svg PUBLIC "-//W3C//DTD SVG 1.1//EN"
 "http://www.w3.org/Graphics/SVG/1.1/DTD/svg11.dtd">
<!-- Generated by graphviz version 2.38.0 (20140413.2041)
 -->
<!-- Title: org.msrg.raccoon.ReceivedCodedBatch.getRequiredCodedPieceCount Pages: 1 -->
<!--zoomable 197 -->
<svg id="main" version="1.1" xmlns="http://www.w3.org/2000/svg" xmlns:xlink="http://www.w3.org/1999/xlink" xml:space="preserve" onload="init(evt)">
<style type="text/css"><![CDATA[
.edge:hover path { stroke: red; }
.edge:hover polygon { stroke: red; fill: red; }
]]></style>
<script type="text/javascript"><![CDATA[
var edges = document.getElementsByTagName('g');
if (edges && edges.length) {
  for (var i=0;i<edges.length;i++) {
    if (edges[i].id.substr(0,4)=='edge') {
      edges[i].setAttribute('class','edge');
    }
  }
}
]]></script>
        <defs>
                <circle id="rim" cx="0" cy="0" r="7"/>
                <circle id="rim2" cx="0" cy="0" r="3.5"/>
                <g id="zoomPlus">
                        <use xlink:href="#rim" fill="#404040">
                                <set attributeName="fill" to="#808080" begin="zoomplus.mouseover" end="zoomplus.mouseout"/>
                        </use>
                        <path d="M-4,0h8M0,-4v8" fill="none" stroke="white" stroke-width="1.5" pointer-events="none"/>
                </g>
                <g id="zoomMin">
                        <use xlink:href="#rim" fill="#404040">
                                <set attributeName="fill" to="#808080" begin="zoomminus.mouseover" end="zoomminus.mouseout"/>
                        </use>
                        <path d="M-4,0h8" fill="none" stroke="white" stroke-width="1.5" pointer-events="none"/>
                </g>
                <g id="dirArrow">
                        <path fill="none" stroke="white" stroke-width="1.5" d="M0,-3.0v7 M-2.5,-0.5L0,-3.0L2.5,-0.5"/>
                </g>
               <g id="resetDef">
                       <use xlink:href="#rim2" fill="#404040">
                               <set attributeName="fill" to="#808080" begin="reset.mouseover" end="reset.mouseout"/>
                       </use>
               </g>
        </defs>

<script type="text/javascript">
var viewWidth = 1132;
var viewHeight = 197;
var sectionId = 'dynsection-0';
</script>
<script xlink:href="../../svgpan.js"/>
<svg id="graph" class="graph">
<g id="viewport">
<title>org.msrg.raccoon.ReceivedCodedBatch.getRequiredCodedPieceCount</title>
<!-- Node1 -->
<g id="node1" class="node"><title>Node1</title>
<polygon fill="#bfbfbf" stroke="black" points="0,-36 0,-66 206,-66 206,-36 0,-36"/>
<text text-anchor="start" x="8" y="-54" font-family="Helvetica,sans-Serif" font-size="10.00">org.msrg.raccoon.Received</text>
<text text-anchor="middle" x="103" y="-43" font-family="Helvetica,sans-Serif" font-size="10.00">CodedBatch.getRequiredCodedPieceCount</text>
</g>
<!-- Node2 -->
<g id="node2" class="node"><title>Node2</title>
<g id="a_node2"><a xlink:href="../../da/df0/classorg_1_1msrg_1_1raccoon_1_1ReceivedCodedBatch_a0eb883fc8fa5805904afcc3d6297b85a.html#a0eb883fc8fa5805904afcc3d6297b85a" target="_top" xlink:title="org.msrg.raccoon.Received\lCodedBatch.canSolve">
<polygon fill="none" stroke="black" points="443,-74 443,-104 580,-104 580,-74 443,-74"/>
<text text-anchor="start" x="451" y="-92" font-family="Helvetica,sans-Serif" font-size="10.00">org.msrg.raccoon.Received</text>
<text text-anchor="middle" x="511.5" y="-81" font-family="Helvetica,sans-Serif" font-size="10.00">CodedBatch.canSolve</text>
</a>
</g>
</g>
<!-- Node1&#45;&gt;Node2 -->
<g id="edge1" class="edge"><title>Node1&#45;&gt;Node2</title>
<path fill="none" stroke="midnightblue" d="M190.663,-67.7078C207.633,-70.5159 225.335,-73.1232 242,-75 310.07,-82.6657 388.329,-86.1433 442.728,-87.7153"/>
<polygon fill="midnightblue" stroke="midnightblue" points="191.213,-64.2512 180.77,-66.0352 190.046,-71.1532 191.213,-64.2512"/>
</g>
<!-- Node6 -->
<g id="node6" class="node"><title>Node6</title>
<g id="a_node6"><a xlink:href="../../db/d26/classorg_1_1msrg_1_1raccoon_1_1ReceivedCodedBatchTest_af7c8b12bc8b1dc5d9c5e353b838d830d.html#af7c8b12bc8b1dc5d9c5e353b838d830d" target="_top" xlink:title="org.msrg.raccoon.Received\lCodedBatchTest.ttestEncodingDecoding\lReceivedCodedBatch">
<polygon fill="none" stroke="black" points="912,-0.5 912,-41.5 1106,-41.5 1106,-0.5 912,-0.5"/>
<text text-anchor="start" x="920" y="-29.5" font-family="Helvetica,sans-Serif" font-size="10.00">org.msrg.raccoon.Received</text>
<text text-anchor="start" x="920" y="-18.5" font-family="Helvetica,sans-Serif" font-size="10.00">CodedBatchTest.ttestEncodingDecoding</text>
<text text-anchor="middle" x="1009" y="-7.5" font-family="Helvetica,sans-Serif" font-size="10.00">ReceivedCodedBatch</text>
</a>
</g>
</g>
<!-- Node1&#45;&gt;Node6 -->
<g id="edge11" class="edge"><title>Node1&#45;&gt;Node6</title>
<path fill="none" stroke="midnightblue" d="M183.387,-34.2015C202.494,-30.8296 222.904,-27.7786 242,-26 482.169,-3.63077 766.527,-10.4487 911.902,-16.3245"/>
<polygon fill="midnightblue" stroke="midnightblue" points="182.743,-30.7611 173.527,-35.989 183.991,-37.6489 182.743,-30.7611"/>
</g>
<!-- Node9 -->
<g id="node9" class="node"><title>Node9</title>
<g id="a_node9"><a xlink:href="../../da/df0/classorg_1_1msrg_1_1raccoon_1_1ReceivedCodedBatch_abe5a8dd787d94591fcbdc4aa01e639df.html#abe5a8dd787d94591fcbdc4aa01e639df" target="_top" xlink:title="org.msrg.raccoon.Received\lCodedBatch.canSolveHighPriority">
<polygon fill="none" stroke="black" points="242,-36 242,-66 407,-66 407,-36 242,-36"/>
<text text-anchor="start" x="250" y="-54" font-family="Helvetica,sans-Serif" font-size="10.00">org.msrg.raccoon.Received</text>
<text text-anchor="middle" x="324.5" y="-43" font-family="Helvetica,sans-Serif" font-size="10.00">CodedBatch.canSolveHighPriority</text>
</a>
</g>
</g>
<!-- Node1&#45;&gt;Node9 -->
<g id="edge9" class="edge"><title>Node1&#45;&gt;Node9</title>
<path fill="none" stroke="midnightblue" d="M216.163,-51C224.79,-51 233.397,-51 241.771,-51"/>
<polygon fill="midnightblue" stroke="midnightblue" points="216.039,-47.5001 206.039,-51 216.039,-54.5001 216.039,-47.5001"/>
</g>
<!-- Node3 -->
<g id="node3" class="node"><title>Node3</title>
<g id="a_node3"><a xlink:href="../../da/df0/classorg_1_1msrg_1_1raccoon_1_1ReceivedCodedBatch_aa025693c18e525356f5750174ceccd70.html#aa025693c18e525356f5750174ceccd70" target="_top" xlink:title="org.msrg.raccoon.Received\lCodedBatch.decode">
<polygon fill="none" stroke="black" points="668.5,-74 668.5,-104 805.5,-104 805.5,-74 668.5,-74"/>
<text text-anchor="start" x="676.5" y="-92" font-family="Helvetica,sans-Serif" font-size="10.00">org.msrg.raccoon.Received</text>
<text text-anchor="middle" x="737" y="-81" font-family="Helvetica,sans-Serif" font-size="10.00">CodedBatch.decode</text>
</a>
</g>
</g>
<!-- Node2&#45;&gt;Node3 -->
<g id="edge2" class="edge"><title>Node2&#45;&gt;Node3</title>
<path fill="none" stroke="midnightblue" d="M590.469,-89C615.789,-89 643.662,-89 668.181,-89"/>
<polygon fill="midnightblue" stroke="midnightblue" points="590.164,-85.5001 580.164,-89 590.164,-92.5001 590.164,-85.5001"/>
</g>
<!-- Node2&#45;&gt;Node6 -->
<g id="edge8" class="edge"><title>Node2&#45;&gt;Node6</title>
<path fill="none" stroke="midnightblue" d="M578.673,-71.6881C591.021,-68.8364 603.859,-66.1233 616,-64 716.149,-46.4857 832.014,-34.8217 911.662,-28.114"/>
<polygon fill="midnightblue" stroke="midnightblue" points="577.826,-68.2918 568.898,-73.9962 579.435,-75.1044 577.826,-68.2918"/>
</g>
<!-- Node7 -->
<g id="node7" class="node"><title>Node7</title>
<g id="a_node7"><a xlink:href="../../d3/d36/classorg_1_1msrg_1_1raccoon_1_1engine_1_1task_1_1sequential_1_1Decoding__SequentialCodingTask_aa875e6c27f9bd356223417ae1689c3b4.html#aa875e6c27f9bd356223417ae1689c3b4" target="_top" xlink:title="org.msrg.raccoon.engine.task.sequential.\lDecoding_SequentialCodingTask.runStagePrivately">
<polygon fill="none" stroke="black" points="616,-133 616,-163 858,-163 858,-133 616,-133"/>
<text text-anchor="start" x="624" y="-151" font-family="Helvetica,sans-Serif" font-size="10.00">org.msrg.raccoon.engine.task.sequential.</text>
<text text-anchor="middle" x="737" y="-140" font-family="Helvetica,sans-Serif" font-size="10.00">Decoding_SequentialCodingTask.runStagePrivately</text>
</a>
</g>
</g>
<!-- Node2&#45;&gt;Node7 -->
<g id="edge6" class="edge"><title>Node2&#45;&gt;Node7</title>
<path fill="none" stroke="midnightblue" d="M579.151,-106.595C610.979,-114.997 648.67,-124.946 679.127,-132.987"/>
<polygon fill="midnightblue" stroke="midnightblue" points="580.039,-103.209 569.477,-104.041 578.252,-109.977 580.039,-103.209"/>
</g>
<!-- Node4 -->
<g id="node4" class="node"><title>Node4</title>
<g id="a_node4"><a xlink:href="../../db/d77/classorg_1_1msrg_1_1raccoon_1_1CodedBatchTest_a04baac235b53bea4fab4b550de9271a5.html#a04baac235b53bea4fab4b550de9271a5" target="_top" xlink:title="org.msrg.raccoon.CodedBatch\lTest.testReceivedCodedBatch">
<polygon fill="none" stroke="black" points="933.5,-60 933.5,-90 1084.5,-90 1084.5,-60 933.5,-60"/>
<text text-anchor="start" x="941.5" y="-78" font-family="Helvetica,sans-Serif" font-size="10.00">org.msrg.raccoon.CodedBatch</text>
<text text-anchor="middle" x="1009" y="-67" font-family="Helvetica,sans-Serif" font-size="10.00">Test.testReceivedCodedBatch</text>
</a>
</g>
</g>
<!-- Node3&#45;&gt;Node4 -->
<g id="edge3" class="edge"><title>Node3&#45;&gt;Node4</title>
<path fill="none" stroke="midnightblue" d="M815.979,-84.9566C852.821,-83.0463 896.605,-80.776 933.053,-78.8861"/>
<polygon fill="midnightblue" stroke="midnightblue" points="815.589,-81.4721 805.784,-85.4853 815.952,-88.4627 815.589,-81.4721"/>
</g>
<!-- Node5 -->
<g id="node5" class="node"><title>Node5</title>
<g id="a_node5"><a xlink:href="../../d7/d47/classorg_1_1msrg_1_1raccoon_1_1SlicedCodedBatchTest_aa7d0bdfa77013b46a1f2e416dbb71b8c.html#aa7d0bdfa77013b46a1f2e416dbb71b8c" target="_top" xlink:title="org.msrg.raccoon.SlicedCoded\lBatchTest.testReceivedCodedBatch">
<polygon fill="none" stroke="black" points="921,-109 921,-139 1097,-139 1097,-109 921,-109"/>
<text text-anchor="start" x="929" y="-127" font-family="Helvetica,sans-Serif" font-size="10.00">org.msrg.raccoon.SlicedCoded</text>
<text text-anchor="middle" x="1009" y="-116" font-family="Helvetica,sans-Serif" font-size="10.00">BatchTest.testReceivedCodedBatch</text>
</a>
</g>
</g>
<!-- Node3&#45;&gt;Node5 -->
<g id="edge4" class="edge"><title>Node3&#45;&gt;Node5</title>
<path fill="none" stroke="midnightblue" d="M815.804,-99.0857C848.703,-103.35 887.162,-108.336 920.996,-112.722"/>
<polygon fill="midnightblue" stroke="midnightblue" points="816.151,-95.6015 805.784,-97.7868 815.251,-102.543 816.151,-95.6015"/>
</g>
<!-- Node3&#45;&gt;Node6 -->
<g id="edge5" class="edge"><title>Node3&#45;&gt;Node6</title>
<path fill="none" stroke="midnightblue" d="M808.432,-71.4311C824.712,-67.3593 841.961,-63.0364 858,-59 880.405,-53.3615 904.684,-47.2229 927.051,-41.5566"/>
<polygon fill="midnightblue" stroke="midnightblue" points="807.293,-68.1081 798.441,-73.929 808.991,-74.8991 807.293,-68.1081"/>
</g>
<!-- Node8 -->
<g id="node8" class="node"><title>Node8</title>
<g id="a_node8"><a xlink:href="../../d3/d36/classorg_1_1msrg_1_1raccoon_1_1engine_1_1task_1_1sequential_1_1Decoding__SequentialCodingTask_a3497f9c294517ca7934dea0ad28f411d.html#a3497f9c294517ca7934dea0ad28f411d" target="_top" xlink:title="org.msrg.raccoon.engine.task.sequential.\lDecoding_SequentialCodingTask.codingFinished">
<polygon fill="none" stroke="black" points="894,-158 894,-188 1124,-188 1124,-158 894,-158"/>
<text text-anchor="start" x="902" y="-176" font-family="Helvetica,sans-Serif" font-size="10.00">org.msrg.raccoon.engine.task.sequential.</text>
<text text-anchor="middle" x="1009" y="-165" font-family="Helvetica,sans-Serif" font-size="10.00">Decoding_SequentialCodingTask.codingFinished</text>
</a>
</g>
</g>
<!-- Node7&#45;&gt;Node8 -->
<g id="edge7" class="edge"><title>Node7&#45;&gt;Node8</title>
<path fill="none" stroke="midnightblue" d="M868.386,-160.073C876.916,-160.863 885.471,-161.655 893.915,-162.437"/>
<polygon fill="midnightblue" stroke="midnightblue" points="868.672,-156.584 858.392,-159.147 868.026,-163.555 868.672,-156.584"/>
</g>
<!-- Node9&#45;&gt;Node2 -->
<g id="edge10" class="edge"><title>Node9&#45;&gt;Node2</title>
<path fill="none" stroke="midnightblue" d="M408.587,-68.0666C420.01,-70.4128 431.626,-72.7988 442.729,-75.0794"/>
<polygon fill="midnightblue" stroke="midnightblue" points="409.117,-64.6023 398.617,-66.0186 407.708,-71.4592 409.117,-64.6023"/>
</g>
</g>
</svg>
        <g id="navigator" transform="translate(0 0)" fill="#404254">
                <rect fill="#f2f5e9" fill-opacity="0.5" stroke="#606060" stroke-width=".5" x="0" y="0" width="60" height="60"/>
                <use id="zoomplus" xlink:href="#zoomPlus" x="17" y="9" onmousedown="handleZoom(evt,'in')"/>
                <use id="zoomminus" xlink:href="#zoomMin" x="42" y="9" onmousedown="handleZoom(evt,'out')"/>
                <use id="reset" xlink:href="#resetDef" x="30" y="36" onmousedown="handleReset()"/>
                <g id="arrowUp" xlink:href="#dirArrow" transform="translate(30 24)" onmousedown="handlePan(0,-1)">
                  <use xlink:href="#rim" fill="#404040">
                        <set attributeName="fill" to="#808080" begin="arrowUp.mouseover" end="arrowUp.mouseout"/>
                  </use>
                  <path fill="none" stroke="white" stroke-width="1.5" d="M0,-3.0v7 M-2.5,-0.5L0,-3.0L2.5,-0.5"/>
                </g>
                <g id="arrowRight" xlink:href="#dirArrow" transform="rotate(90) translate(36 -43)" onmousedown="handlePan(1,0)">
                  <use xlink:href="#rim" fill="#404040">
                        <set attributeName="fill" to="#808080" begin="arrowRight.mouseover" end="arrowRight.mouseout"/>
                  </use>
                  <path fill="none" stroke="white" stroke-width="1.5" d="M0,-3.0v7 M-2.5,-0.5L0,-3.0L2.5,-0.5"/>
                </g>
                <g id="arrowDown" xlink:href="#dirArrow" transform="rotate(180) translate(-30 -48)" onmousedown="handlePan(0,1)">
                  <use xlink:href="#rim" fill="#404040">
                        <set attributeName="fill" to="#808080" begin="arrowDown.mouseover" end="arrowDown.mouseout"/>
                  </use>
                  <path fill="none" stroke="white" stroke-width="1.5" d="M0,-3.0v7 M-2.5,-0.5L0,-3.0L2.5,-0.5"/>
                </g>
                <g id="arrowLeft" xlink:href="#dirArrow" transform="rotate(270) translate(-36 17)" onmousedown="handlePan(-1,0)">
                  <use xlink:href="#rim" fill="#404040">
                        <set attributeName="fill" to="#808080" begin="arrowLeft.mouseover" end="arrowLeft.mouseout"/>
                  </use>
                  <path fill="none" stroke="white" stroke-width="1.5" d="M0,-3.0v7 M-2.5,-0.5L0,-3.0L2.5,-0.5"/>
                </g>
        </g>
        <svg viewBox="0 0 15 15" width="100%" height="30px" preserveAspectRatio="xMaxYMin meet">
         <g id="arrow_out" transform="scale(0.3 0.3)">
          <a xlink:href="classorg_1_1msrg_1_1raccoon_1_1ReceivedCodedBatch_a837b249e1478223f84c24acbbaf33451_a837b249e1478223f84c24acbbaf33451_icgraph_org.svg" target="_base">
           <rect id="button" ry="5" rx="5" y="6" x="6" height="38" width="38"
                fill="#f2f5e9" fill-opacity="0.5" stroke="#606060" stroke-width="1.0"/>
           <path id="arrow"
             d="M 11.500037,31.436501 C 11.940474,20.09759 22.043105,11.32322 32.158766,21.979434 L 37.068811,17.246167 C 37.068811,17.246167 37.088388,32 37.088388,32 L 22.160133,31.978069 C 22.160133,31.978069 26.997745,27.140456 26.997745,27.140456 C 18.528582,18.264221 13.291696,25.230495 11.500037,31.436501 z"
             style="fill:#404040;"/>
          </a>
         </g>
        </svg>
</svg>
