<?xml version="1.0" encoding="UTF-8" standalone="no"?>
<!DOCTYPE svg PUBLIC "-//W3C//DTD SVG 1.1//EN"
 "http://www.w3.org/Graphics/SVG/1.1/DTD/svg11.dtd">
<!-- Generated by graphviz version 2.38.0 (20140413.2041)
 -->
<!-- Title: org.msrg.raccoon.ReceivedCodedBatch.code Pages: 1 -->
<svg width="782pt" height="88pt"
 viewBox="0.00 0.00 782.00 88.00" xmlns="http://www.w3.org/2000/svg" xmlns:xlink="http://www.w3.org/1999/xlink">
<g id="graph0" class="graph" transform="scale(1 1) rotate(0) translate(4 84)">
<title>org.msrg.raccoon.ReceivedCodedBatch.code</title>
<!-- Node1 -->
<g id="node1" class="node"><title>Node1</title>
<polygon fill="#bfbfbf" stroke="black" points="0,-24.5 0,-54.5 137,-54.5 137,-24.5 0,-24.5"/>
<text text-anchor="start" x="8" y="-42.5" font-family="Helvetica,sans-Serif" font-size="10.00">org.msrg.raccoon.Received</text>
<text text-anchor="middle" x="68.5" y="-31.5" font-family="Helvetica,sans-Serif" font-size="10.00">CodedBatch.code</text>
</g>
<!-- Node2 -->
<g id="node2" class="node"><title>Node2</title>
<g id="a_node2"><a xlink:href="../../da/df0/classorg_1_1msrg_1_1raccoon_1_1ReceivedCodedBatch_ac38e1c991515ebdb1cd5b97b72a2aa00.html#ac38e1c991515ebdb1cd5b97b72a2aa00" target="_top" xlink:title="org.msrg.raccoon.Received\lCodedBatch.getCodedSlicesForCoding">
<polygon fill="none" stroke="black" points="173,-49.5 173,-79.5 361,-79.5 361,-49.5 173,-49.5"/>
<text text-anchor="start" x="181" y="-67.5" font-family="Helvetica,sans-Serif" font-size="10.00">org.msrg.raccoon.Received</text>
<text text-anchor="middle" x="267" y="-56.5" font-family="Helvetica,sans-Serif" font-size="10.00">CodedBatch.getCodedSlicesForCoding</text>
</a>
</g>
</g>
<!-- Node1&#45;&gt;Node2 -->
<g id="edge1" class="edge"><title>Node1&#45;&gt;Node2</title>
<path fill="none" stroke="midnightblue" d="M137.124,-48.1036C145.423,-49.1594 154.045,-50.2564 162.72,-51.36"/>
<polygon fill="midnightblue" stroke="midnightblue" points="162.549,-54.8665 172.911,-52.6566 163.433,-47.9224 162.549,-54.8665"/>
</g>
<!-- Node5 -->
<g id="node5" class="node"><title>Node5</title>
<g id="a_node5"><a xlink:href="../../dd/dfd/classorg_1_1msrg_1_1raccoon_1_1CodedPiece_ab195b1ceff1d30c80edbde298571e271.html#ab195b1ceff1d30c80edbde298571e271" target="_top" xlink:title="org.msrg.raccoon.CodedPiece.make\lCodedSlice">
<polygon fill="none" stroke="black" points="179,-0.5 179,-30.5 355,-30.5 355,-0.5 179,-0.5"/>
<text text-anchor="start" x="187" y="-18.5" font-family="Helvetica,sans-Serif" font-size="10.00">org.msrg.raccoon.CodedPiece.make</text>
<text text-anchor="middle" x="267" y="-7.5" font-family="Helvetica,sans-Serif" font-size="10.00">CodedSlice</text>
</a>
</g>
</g>
<!-- Node1&#45;&gt;Node5 -->
<g id="edge4" class="edge"><title>Node1&#45;&gt;Node5</title>
<path fill="none" stroke="midnightblue" d="M137.124,-31.2406C147.304,-29.9972 157.971,-28.6944 168.624,-27.3932"/>
<polygon fill="midnightblue" stroke="midnightblue" points="169.316,-30.8348 178.818,-26.1482 168.467,-23.8865 169.316,-30.8348"/>
</g>
<!-- Node3 -->
<g id="node3" class="node"><title>Node3</title>
<g id="a_node3"><a xlink:href="../../da/df0/classorg_1_1msrg_1_1raccoon_1_1ReceivedCodedBatch_ac3719ba770d5744c09af8768443201ea.html#ac3719ba770d5744c09af8768443201ea" target="_top" xlink:title="org.msrg.raccoon.Received\lCodedBatch.getCodedSlices">
<polygon fill="none" stroke="black" points="422,-49.5 422,-79.5 565,-79.5 565,-49.5 422,-49.5"/>
<text text-anchor="start" x="430" y="-67.5" font-family="Helvetica,sans-Serif" font-size="10.00">org.msrg.raccoon.Received</text>
<text text-anchor="middle" x="493.5" y="-56.5" font-family="Helvetica,sans-Serif" font-size="10.00">CodedBatch.getCodedSlices</text>
</a>
</g>
</g>
<!-- Node2&#45;&gt;Node3 -->
<g id="edge2" class="edge"><title>Node2&#45;&gt;Node3</title>
<path fill="none" stroke="midnightblue" d="M361.258,-64.5C378.018,-64.5 395.361,-64.5 411.731,-64.5"/>
<polygon fill="midnightblue" stroke="midnightblue" points="411.785,-68.0001 421.785,-64.5 411.785,-61.0001 411.785,-68.0001"/>
</g>
<!-- Node4 -->
<g id="node4" class="node"><title>Node4</title>
<g id="a_node4"><a xlink:href="../../da/df0/classorg_1_1msrg_1_1raccoon_1_1ReceivedCodedBatch_ae70ccb56d60221b625265c875e93bcc2.html#ae70ccb56d60221b625265c875e93bcc2" target="_top" xlink:title="org.msrg.raccoon.Received\lCodedBatch.getRandomIndex">
<polygon fill="none" stroke="black" points="626,-49.5 626,-79.5 774,-79.5 774,-49.5 626,-49.5"/>
<text text-anchor="start" x="634" y="-67.5" font-family="Helvetica,sans-Serif" font-size="10.00">org.msrg.raccoon.Received</text>
<text text-anchor="middle" x="700" y="-56.5" font-family="Helvetica,sans-Serif" font-size="10.00">CodedBatch.getRandomIndex</text>
</a>
</g>
</g>
<!-- Node3&#45;&gt;Node4 -->
<g id="edge3" class="edge"><title>Node3&#45;&gt;Node4</title>
<path fill="none" stroke="midnightblue" d="M565.164,-64.5C581.417,-64.5 598.85,-64.5 615.587,-64.5"/>
<polygon fill="midnightblue" stroke="midnightblue" points="615.901,-68.0001 625.901,-64.5 615.901,-61.0001 615.901,-68.0001"/>
</g>
<!-- Node6 -->
<g id="node6" class="node"><title>Node6</title>
<g id="a_node6"><a xlink:href="../../dd/d36/classorg_1_1msrg_1_1raccoon_1_1CodedCoefficients_ab4ca804aa0a40bde8c35b3e9613eae9f.html#ab4ca804aa0a40bde8c35b3e9613eae9f" target="_top" xlink:title="org.msrg.raccoon.CodedCoefficients.get\lLength">
<polygon fill="none" stroke="black" points="397,-0.5 397,-30.5 590,-30.5 590,-0.5 397,-0.5"/>
<text text-anchor="start" x="405" y="-18.5" font-family="Helvetica,sans-Serif" font-size="10.00">org.msrg.raccoon.CodedCoefficients.get</text>
<text text-anchor="middle" x="493.5" y="-7.5" font-family="Helvetica,sans-Serif" font-size="10.00">Length</text>
</a>
</g>
</g>
<!-- Node5&#45;&gt;Node6 -->
<g id="edge5" class="edge"><title>Node5&#45;&gt;Node6</title>
<path fill="none" stroke="midnightblue" d="M355.119,-15.5C365.487,-15.5 376.156,-15.5 386.747,-15.5"/>
<polygon fill="midnightblue" stroke="midnightblue" points="386.866,-19.0001 396.866,-15.5 386.866,-12.0001 386.866,-19.0001"/>
</g>
</g>
</svg>
