<?xml version="1.0" encoding="UTF-8" standalone="no"?>
<!DOCTYPE svg PUBLIC "-//W3C//DTD SVG 1.1//EN"
 "http://www.w3.org/Graphics/SVG/1.1/DTD/svg11.dtd">
<!-- Generated by graphviz version 2.38.0 (20140413.2041)
 -->
<!-- Title: org.msrg.raccoon.ReceivedCodedBatch.getCodedSlices Pages: 1 -->
<svg width="585pt" height="99pt"
 viewBox="0.00 0.00 585.00 98.50" xmlns="http://www.w3.org/2000/svg" xmlns:xlink="http://www.w3.org/1999/xlink">
<g id="graph0" class="graph" transform="scale(1 1) rotate(0) translate(4 94.5)">
<title>org.msrg.raccoon.ReceivedCodedBatch.getCodedSlices</title>
<!-- Node1 -->
<g id="node1" class="node"><title>Node1</title>
<polygon fill="#bfbfbf" stroke="black" points="0,-33 0,-63 143,-63 143,-33 0,-33"/>
<text text-anchor="start" x="8" y="-51" font-family="Helvetica,sans-Serif" font-size="10.00">org.msrg.raccoon.Received</text>
<text text-anchor="middle" x="71.5" y="-40" font-family="Helvetica,sans-Serif" font-size="10.00">CodedBatch.getCodedSlices</text>
</g>
<!-- Node2 -->
<g id="node2" class="node"><title>Node2</title>
<g id="a_node2"><a xlink:href="../../da/df0/classorg_1_1msrg_1_1raccoon_1_1ReceivedCodedBatch_ac38e1c991515ebdb1cd5b97b72a2aa00.html#ac38e1c991515ebdb1cd5b97b72a2aa00" target="_top" xlink:title="org.msrg.raccoon.Received\lCodedBatch.getCodedSlicesForCoding">
<polygon fill="none" stroke="black" points="179,-33 179,-63 367,-63 367,-33 179,-33"/>
<text text-anchor="start" x="187" y="-51" font-family="Helvetica,sans-Serif" font-size="10.00">org.msrg.raccoon.Received</text>
<text text-anchor="middle" x="273" y="-40" font-family="Helvetica,sans-Serif" font-size="10.00">CodedBatch.getCodedSlicesForCoding</text>
</a>
</g>
</g>
<!-- Node1&#45;&gt;Node2 -->
<g id="edge1" class="edge"><title>Node1&#45;&gt;Node2</title>
<path fill="none" stroke="midnightblue" d="M153.255,-48C161.656,-48 170.244,-48 178.768,-48"/>
<polygon fill="midnightblue" stroke="midnightblue" points="153.117,-44.5001 143.117,-48 153.117,-51.5001 153.117,-44.5001"/>
</g>
<!-- Node3 -->
<g id="node3" class="node"><title>Node3</title>
<g id="a_node3"><a xlink:href="../../da/df0/classorg_1_1msrg_1_1raccoon_1_1ReceivedCodedBatch_a2dcf8b034de98ee19fd5c7e3246f9b49.html#a2dcf8b034de98ee19fd5c7e3246f9b49" target="_top" xlink:title="org.msrg.raccoon.Received\lCodedBatch.code">
<polygon fill="none" stroke="black" points="421.5,-60 421.5,-90 558.5,-90 558.5,-60 421.5,-60"/>
<text text-anchor="start" x="429.5" y="-78" font-family="Helvetica,sans-Serif" font-size="10.00">org.msrg.raccoon.Received</text>
<text text-anchor="middle" x="490" y="-67" font-family="Helvetica,sans-Serif" font-size="10.00">CodedBatch.code</text>
</a>
</g>
</g>
<!-- Node2&#45;&gt;Node3 -->
<g id="edge2" class="edge"><title>Node2&#45;&gt;Node3</title>
<path fill="none" stroke="midnightblue" d="M377.375,-60.982C392.332,-62.8603 407.395,-64.752 421.405,-66.5113"/>
<polygon fill="midnightblue" stroke="midnightblue" points="377.41,-57.4589 367.052,-59.6856 376.538,-64.4044 377.41,-57.4589"/>
</g>
<!-- Node4 -->
<g id="node4" class="node"><title>Node4</title>
<g id="a_node4"><a xlink:href="../../da/df0/classorg_1_1msrg_1_1raccoon_1_1ReceivedCodedBatch_a72894cc4033de6ca2b58b4beae33025e.html#a72894cc4033de6ca2b58b4beae33025e" target="_top" xlink:title="org.msrg.raccoon.Received\lCodedBatch.getCodedSlicesAsBulk\lMatrix2">
<polygon fill="none" stroke="black" points="403,-0.5 403,-41.5 577,-41.5 577,-0.5 403,-0.5"/>
<text text-anchor="start" x="411" y="-29.5" font-family="Helvetica,sans-Serif" font-size="10.00">org.msrg.raccoon.Received</text>
<text text-anchor="start" x="411" y="-18.5" font-family="Helvetica,sans-Serif" font-size="10.00">CodedBatch.getCodedSlicesAsBulk</text>
<text text-anchor="middle" x="490" y="-7.5" font-family="Helvetica,sans-Serif" font-size="10.00">Matrix2</text>
</a>
</g>
</g>
<!-- Node2&#45;&gt;Node4 -->
<g id="edge3" class="edge"><title>Node2&#45;&gt;Node4</title>
<path fill="none" stroke="midnightblue" d="M377.15,-35.0463C385.778,-33.9627 394.444,-32.8745 402.924,-31.8095"/>
<polygon fill="midnightblue" stroke="midnightblue" points="376.538,-31.5956 367.052,-36.3144 377.41,-38.5411 376.538,-31.5956"/>
</g>
</g>
</svg>
