<?xml version="1.0" encoding="UTF-8" standalone="no"?>
<!DOCTYPE svg PUBLIC "-//W3C//DTD SVG 1.1//EN"
 "http://www.w3.org/Graphics/SVG/1.1/DTD/svg11.dtd">
<!-- Generated by graphviz version 2.38.0 (20140413.2041)
 -->
<!-- Title: org.msrg.raccoon.ReceivedCodedBatch.getRandomIndex Pages: 1 -->
<svg width="1146pt" height="297pt"
 viewBox="0.00 0.00 1146.00 296.50" xmlns="http://www.w3.org/2000/svg" xmlns:xlink="http://www.w3.org/1999/xlink">
<g id="graph0" class="graph" transform="scale(1 1) rotate(0) translate(4 292.5)">
<title>org.msrg.raccoon.ReceivedCodedBatch.getRandomIndex</title>
<!-- Node1 -->
<g id="node1" class="node"><title>Node1</title>
<polygon fill="#bfbfbf" stroke="black" points="0,-61 0,-91 148,-91 148,-61 0,-61"/>
<text text-anchor="start" x="8" y="-79" font-family="Helvetica,sans-Serif" font-size="10.00">org.msrg.raccoon.Received</text>
<text text-anchor="middle" x="74" y="-68" font-family="Helvetica,sans-Serif" font-size="10.00">CodedBatch.getRandomIndex</text>
</g>
<!-- Node2 -->
<g id="node2" class="node"><title>Node2</title>
<g id="a_node2"><a xlink:href="../../da/df0/classorg_1_1msrg_1_1raccoon_1_1ReceivedCodedBatch_abe5a8dd787d94591fcbdc4aa01e639df.html#abe5a8dd787d94591fcbdc4aa01e639df" target="_top" xlink:title="org.msrg.raccoon.Received\lCodedBatch.canSolveHighPriority">
<polygon fill="none" stroke="black" points="194.5,-110 194.5,-140 359.5,-140 359.5,-110 194.5,-110"/>
<text text-anchor="start" x="202.5" y="-128" font-family="Helvetica,sans-Serif" font-size="10.00">org.msrg.raccoon.Received</text>
<text text-anchor="middle" x="277" y="-117" font-family="Helvetica,sans-Serif" font-size="10.00">CodedBatch.canSolveHighPriority</text>
</a>
</g>
</g>
<!-- Node1&#45;&gt;Node2 -->
<g id="edge1" class="edge"><title>Node1&#45;&gt;Node2</title>
<path fill="none" stroke="midnightblue" d="M146.391,-93.4038C168.626,-98.8243 192.942,-104.752 214.444,-109.994"/>
<polygon fill="midnightblue" stroke="midnightblue" points="147.217,-90.0027 136.673,-91.0346 145.559,-96.8036 147.217,-90.0027"/>
</g>
<!-- Node10 -->
<g id="node10" class="node"><title>Node10</title>
<g id="a_node10"><a xlink:href="../../da/df0/classorg_1_1msrg_1_1raccoon_1_1ReceivedCodedBatch_ac3719ba770d5744c09af8768443201ea.html#ac3719ba770d5744c09af8768443201ea" target="_top" xlink:title="org.msrg.raccoon.Received\lCodedBatch.getCodedSlices">
<polygon fill="none" stroke="black" points="205.5,-61 205.5,-91 348.5,-91 348.5,-61 205.5,-61"/>
<text text-anchor="start" x="213.5" y="-79" font-family="Helvetica,sans-Serif" font-size="10.00">org.msrg.raccoon.Received</text>
<text text-anchor="middle" x="277" y="-68" font-family="Helvetica,sans-Serif" font-size="10.00">CodedBatch.getCodedSlices</text>
</a>
</g>
</g>
<!-- Node1&#45;&gt;Node10 -->
<g id="edge10" class="edge"><title>Node1&#45;&gt;Node10</title>
<path fill="none" stroke="midnightblue" d="M158.294,-76C173.904,-76 190.085,-76 205.27,-76"/>
<polygon fill="midnightblue" stroke="midnightblue" points="158.134,-72.5001 148.134,-76 158.134,-79.5001 158.134,-72.5001"/>
</g>
<!-- Node14 -->
<g id="node14" class="node"><title>Node14</title>
<g id="a_node14"><a xlink:href="../../db/d26/classorg_1_1msrg_1_1raccoon_1_1ReceivedCodedBatchTest_a053716f274ba99d3c782352fddf9d859.html#a053716f274ba99d3c782352fddf9d859" target="_top" xlink:title="org.msrg.raccoon.Received\lCodedBatchTest.testGetRandomIndex">
<polygon fill="none" stroke="black" points="184,-12 184,-42 370,-42 370,-12 184,-12"/>
<text text-anchor="start" x="192" y="-30" font-family="Helvetica,sans-Serif" font-size="10.00">org.msrg.raccoon.Received</text>
<text text-anchor="middle" x="277" y="-19" font-family="Helvetica,sans-Serif" font-size="10.00">CodedBatchTest.testGetRandomIndex</text>
</a>
</g>
</g>
<!-- Node1&#45;&gt;Node14 -->
<g id="edge14" class="edge"><title>Node1&#45;&gt;Node14</title>
<path fill="none" stroke="midnightblue" d="M146.391,-58.5962C168.626,-53.1757 192.942,-47.248 214.444,-42.0062"/>
<polygon fill="midnightblue" stroke="midnightblue" points="145.559,-55.1964 136.673,-60.9654 147.217,-61.9973 145.559,-55.1964"/>
</g>
<!-- Node3 -->
<g id="node3" class="node"><title>Node3</title>
<g id="a_node3"><a xlink:href="../../da/df0/classorg_1_1msrg_1_1raccoon_1_1ReceivedCodedBatch_a0eb883fc8fa5805904afcc3d6297b85a.html#a0eb883fc8fa5805904afcc3d6297b85a" target="_top" xlink:title="org.msrg.raccoon.Received\lCodedBatch.canSolve">
<polygon fill="none" stroke="black" points="431.5,-132 431.5,-162 568.5,-162 568.5,-132 431.5,-132"/>
<text text-anchor="start" x="439.5" y="-150" font-family="Helvetica,sans-Serif" font-size="10.00">org.msrg.raccoon.Received</text>
<text text-anchor="middle" x="500" y="-139" font-family="Helvetica,sans-Serif" font-size="10.00">CodedBatch.canSolve</text>
</a>
</g>
</g>
<!-- Node2&#45;&gt;Node3 -->
<g id="edge2" class="edge"><title>Node2&#45;&gt;Node3</title>
<path fill="none" stroke="midnightblue" d="M369.723,-134.131C390.387,-136.188 411.953,-138.335 431.417,-140.272"/>
<polygon fill="midnightblue" stroke="midnightblue" points="369.962,-130.637 359.664,-133.129 369.268,-137.603 369.962,-130.637"/>
</g>
<!-- Node4 -->
<g id="node4" class="node"><title>Node4</title>
<g id="a_node4"><a xlink:href="../../da/df0/classorg_1_1msrg_1_1raccoon_1_1ReceivedCodedBatch_aa025693c18e525356f5750174ceccd70.html#aa025693c18e525356f5750174ceccd70" target="_top" xlink:title="org.msrg.raccoon.Received\lCodedBatch.decode">
<polygon fill="none" stroke="black" points="682.5,-203 682.5,-233 819.5,-233 819.5,-203 682.5,-203"/>
<text text-anchor="start" x="690.5" y="-221" font-family="Helvetica,sans-Serif" font-size="10.00">org.msrg.raccoon.Received</text>
<text text-anchor="middle" x="751" y="-210" font-family="Helvetica,sans-Serif" font-size="10.00">CodedBatch.decode</text>
</a>
</g>
</g>
<!-- Node3&#45;&gt;Node4 -->
<g id="edge3" class="edge"><title>Node3&#45;&gt;Node4</title>
<path fill="none" stroke="midnightblue" d="M563.478,-164.815C604.724,-176.576 658.168,-191.815 697.27,-202.964"/>
<polygon fill="midnightblue" stroke="midnightblue" points="564.383,-161.434 553.806,-162.057 562.463,-168.165 564.383,-161.434"/>
</g>
<!-- Node7 -->
<g id="node7" class="node"><title>Node7</title>
<g id="a_node7"><a xlink:href="../../db/d26/classorg_1_1msrg_1_1raccoon_1_1ReceivedCodedBatchTest_af7c8b12bc8b1dc5d9c5e353b838d830d.html#af7c8b12bc8b1dc5d9c5e353b838d830d" target="_top" xlink:title="org.msrg.raccoon.Received\lCodedBatchTest.ttestEncodingDecoding\lReceivedCodedBatch">
<polygon fill="none" stroke="black" points="926,-148.5 926,-189.5 1120,-189.5 1120,-148.5 926,-148.5"/>
<text text-anchor="start" x="934" y="-177.5" font-family="Helvetica,sans-Serif" font-size="10.00">org.msrg.raccoon.Received</text>
<text text-anchor="start" x="934" y="-166.5" font-family="Helvetica,sans-Serif" font-size="10.00">CodedBatchTest.ttestEncodingDecoding</text>
<text text-anchor="middle" x="1023" y="-155.5" font-family="Helvetica,sans-Serif" font-size="10.00">ReceivedCodedBatch</text>
</a>
</g>
</g>
<!-- Node3&#45;&gt;Node7 -->
<g id="edge9" class="edge"><title>Node3&#45;&gt;Node7</title>
<path fill="none" stroke="midnightblue" d="M578.715,-150.282C671.238,-154.189 825.774,-160.714 925.765,-164.936"/>
<polygon fill="midnightblue" stroke="midnightblue" points="578.716,-146.779 568.578,-149.854 578.421,-153.772 578.716,-146.779"/>
</g>
<!-- Node8 -->
<g id="node8" class="node"><title>Node8</title>
<g id="a_node8"><a xlink:href="../../d3/d36/classorg_1_1msrg_1_1raccoon_1_1engine_1_1task_1_1sequential_1_1Decoding__SequentialCodingTask_aa875e6c27f9bd356223417ae1689c3b4.html#aa875e6c27f9bd356223417ae1689c3b4" target="_top" xlink:title="org.msrg.raccoon.engine.task.sequential.\lDecoding_SequentialCodingTask.runStagePrivately">
<polygon fill="none" stroke="black" points="630,-110 630,-140 872,-140 872,-110 630,-110"/>
<text text-anchor="start" x="638" y="-128" font-family="Helvetica,sans-Serif" font-size="10.00">org.msrg.raccoon.engine.task.sequential.</text>
<text text-anchor="middle" x="751" y="-117" font-family="Helvetica,sans-Serif" font-size="10.00">Decoding_SequentialCodingTask.runStagePrivately</text>
</a>
</g>
</g>
<!-- Node3&#45;&gt;Node8 -->
<g id="edge7" class="edge"><title>Node3&#45;&gt;Node8</title>
<path fill="none" stroke="midnightblue" d="M579.082,-140.101C595.147,-138.682 612.417,-137.156 629.582,-135.639"/>
<polygon fill="midnightblue" stroke="midnightblue" points="578.365,-136.651 568.711,-141.017 578.981,-143.624 578.365,-136.651"/>
</g>
<!-- Node5 -->
<g id="node5" class="node"><title>Node5</title>
<g id="a_node5"><a xlink:href="../../db/d77/classorg_1_1msrg_1_1raccoon_1_1CodedBatchTest_a04baac235b53bea4fab4b550de9271a5.html#a04baac235b53bea4fab4b550de9271a5" target="_top" xlink:title="org.msrg.raccoon.CodedBatch\lTest.testReceivedCodedBatch">
<polygon fill="none" stroke="black" points="947.5,-258 947.5,-288 1098.5,-288 1098.5,-258 947.5,-258"/>
<text text-anchor="start" x="955.5" y="-276" font-family="Helvetica,sans-Serif" font-size="10.00">org.msrg.raccoon.CodedBatch</text>
<text text-anchor="middle" x="1023" y="-265" font-family="Helvetica,sans-Serif" font-size="10.00">Test.testReceivedCodedBatch</text>
</a>
</g>
</g>
<!-- Node4&#45;&gt;Node5 -->
<g id="edge4" class="edge"><title>Node4&#45;&gt;Node5</title>
<path fill="none" stroke="midnightblue" d="M829.587,-233.805C866.835,-241.392 911.249,-250.44 948.016,-257.929"/>
<polygon fill="midnightblue" stroke="midnightblue" points="830.281,-230.374 819.784,-231.808 828.884,-237.234 830.281,-230.374"/>
</g>
<!-- Node6 -->
<g id="node6" class="node"><title>Node6</title>
<g id="a_node6"><a xlink:href="../../d7/d47/classorg_1_1msrg_1_1raccoon_1_1SlicedCodedBatchTest_aa7d0bdfa77013b46a1f2e416dbb71b8c.html#aa7d0bdfa77013b46a1f2e416dbb71b8c" target="_top" xlink:title="org.msrg.raccoon.SlicedCoded\lBatchTest.testReceivedCodedBatch">
<polygon fill="none" stroke="black" points="935,-209 935,-239 1111,-239 1111,-209 935,-209"/>
<text text-anchor="start" x="943" y="-227" font-family="Helvetica,sans-Serif" font-size="10.00">org.msrg.raccoon.SlicedCoded</text>
<text text-anchor="middle" x="1023" y="-216" font-family="Helvetica,sans-Serif" font-size="10.00">BatchTest.testReceivedCodedBatch</text>
</a>
</g>
</g>
<!-- Node4&#45;&gt;Node6 -->
<g id="edge5" class="edge"><title>Node4&#45;&gt;Node6</title>
<path fill="none" stroke="midnightblue" d="M829.804,-219.729C862.703,-220.46 901.162,-221.315 934.996,-222.067"/>
<polygon fill="midnightblue" stroke="midnightblue" points="829.859,-216.229 819.784,-219.506 829.704,-223.228 829.859,-216.229"/>
</g>
<!-- Node4&#45;&gt;Node7 -->
<g id="edge6" class="edge"><title>Node4&#45;&gt;Node7</title>
<path fill="none" stroke="midnightblue" d="M829.764,-203.887C859.749,-198.446 894.356,-192.165 925.874,-186.445"/>
<polygon fill="midnightblue" stroke="midnightblue" points="828.998,-200.469 819.784,-205.698 830.248,-207.356 828.998,-200.469"/>
</g>
<!-- Node9 -->
<g id="node9" class="node"><title>Node9</title>
<g id="a_node9"><a xlink:href="../../d3/d36/classorg_1_1msrg_1_1raccoon_1_1engine_1_1task_1_1sequential_1_1Decoding__SequentialCodingTask_a3497f9c294517ca7934dea0ad28f411d.html#a3497f9c294517ca7934dea0ad28f411d" target="_top" xlink:title="org.msrg.raccoon.engine.task.sequential.\lDecoding_SequentialCodingTask.codingFinished">
<polygon fill="none" stroke="black" points="908,-99 908,-129 1138,-129 1138,-99 908,-99"/>
<text text-anchor="start" x="916" y="-117" font-family="Helvetica,sans-Serif" font-size="10.00">org.msrg.raccoon.engine.task.sequential.</text>
<text text-anchor="middle" x="1023" y="-106" font-family="Helvetica,sans-Serif" font-size="10.00">Decoding_SequentialCodingTask.codingFinished</text>
</a>
</g>
</g>
<!-- Node8&#45;&gt;Node9 -->
<g id="edge8" class="edge"><title>Node8&#45;&gt;Node9</title>
<path fill="none" stroke="midnightblue" d="M882.386,-119.688C890.916,-119.34 899.471,-118.992 907.915,-118.648"/>
<polygon fill="midnightblue" stroke="midnightblue" points="882.241,-116.191 872.392,-120.095 882.526,-123.185 882.241,-116.191"/>
</g>
<!-- Node11 -->
<g id="node11" class="node"><title>Node11</title>
<g id="a_node11"><a xlink:href="../../da/df0/classorg_1_1msrg_1_1raccoon_1_1ReceivedCodedBatch_ac38e1c991515ebdb1cd5b97b72a2aa00.html#ac38e1c991515ebdb1cd5b97b72a2aa00" target="_top" xlink:title="org.msrg.raccoon.Received\lCodedBatch.getCodedSlicesForCoding">
<polygon fill="none" stroke="black" points="406,-61 406,-91 594,-91 594,-61 406,-61"/>
<text text-anchor="start" x="414" y="-79" font-family="Helvetica,sans-Serif" font-size="10.00">org.msrg.raccoon.Received</text>
<text text-anchor="middle" x="500" y="-68" font-family="Helvetica,sans-Serif" font-size="10.00">CodedBatch.getCodedSlicesForCoding</text>
</a>
</g>
</g>
<!-- Node10&#45;&gt;Node11 -->
<g id="edge11" class="edge"><title>Node10&#45;&gt;Node11</title>
<path fill="none" stroke="midnightblue" d="M358.926,-76C374.147,-76 390.175,-76 405.737,-76"/>
<polygon fill="midnightblue" stroke="midnightblue" points="358.533,-72.5001 348.533,-76 358.533,-79.5001 358.533,-72.5001"/>
</g>
<!-- Node12 -->
<g id="node12" class="node"><title>Node12</title>
<g id="a_node12"><a xlink:href="../../da/df0/classorg_1_1msrg_1_1raccoon_1_1ReceivedCodedBatch_a2dcf8b034de98ee19fd5c7e3246f9b49.html#a2dcf8b034de98ee19fd5c7e3246f9b49" target="_top" xlink:title="org.msrg.raccoon.Received\lCodedBatch.code">
<polygon fill="none" stroke="black" points="682.5,-61 682.5,-91 819.5,-91 819.5,-61 682.5,-61"/>
<text text-anchor="start" x="690.5" y="-79" font-family="Helvetica,sans-Serif" font-size="10.00">org.msrg.raccoon.Received</text>
<text text-anchor="middle" x="751" y="-68" font-family="Helvetica,sans-Serif" font-size="10.00">CodedBatch.code</text>
</a>
</g>
</g>
<!-- Node11&#45;&gt;Node12 -->
<g id="edge12" class="edge"><title>Node11&#45;&gt;Node12</title>
<path fill="none" stroke="midnightblue" d="M604.11,-76C630.495,-76 658.202,-76 682.296,-76"/>
<polygon fill="midnightblue" stroke="midnightblue" points="604.073,-72.5001 594.073,-76 604.072,-79.5001 604.073,-72.5001"/>
</g>
<!-- Node13 -->
<g id="node13" class="node"><title>Node13</title>
<g id="a_node13"><a xlink:href="../../da/df0/classorg_1_1msrg_1_1raccoon_1_1ReceivedCodedBatch_a72894cc4033de6ca2b58b4beae33025e.html#a72894cc4033de6ca2b58b4beae33025e" target="_top" xlink:title="org.msrg.raccoon.Received\lCodedBatch.getCodedSlicesAsBulk\lMatrix2">
<polygon fill="none" stroke="black" points="664,-0.5 664,-41.5 838,-41.5 838,-0.5 664,-0.5"/>
<text text-anchor="start" x="672" y="-29.5" font-family="Helvetica,sans-Serif" font-size="10.00">org.msrg.raccoon.Received</text>
<text text-anchor="start" x="672" y="-18.5" font-family="Helvetica,sans-Serif" font-size="10.00">CodedBatch.getCodedSlicesAsBulk</text>
<text text-anchor="middle" x="751" y="-7.5" font-family="Helvetica,sans-Serif" font-size="10.00">Matrix2</text>
</a>
</g>
</g>
<!-- Node11&#45;&gt;Node13 -->
<g id="edge13" class="edge"><title>Node11&#45;&gt;Node13</title>
<path fill="none" stroke="midnightblue" d="M578.809,-58.8132C605.775,-52.8568 636.159,-46.1455 663.763,-40.0482"/>
<polygon fill="midnightblue" stroke="midnightblue" points="578.05,-55.3965 569.04,-60.971 579.56,-62.2317 578.05,-55.3965"/>
</g>
</g>
</svg>
