<?xml version="1.0" encoding="UTF-8" standalone="no"?>
<!DOCTYPE svg PUBLIC "-//W3C//DTD SVG 1.1//EN"
 "http://www.w3.org/Graphics/SVG/1.1/DTD/svg11.dtd">
<!-- Generated by graphviz version 2.38.0 (20140413.2041)
 -->
<!-- Title: org.msrg.raccoon.ReceivedCodedBatch.getCodedSlicesForCoding Pages: 1 -->
<svg width="406pt" height="99pt"
 viewBox="0.00 0.00 406.00 98.50" xmlns="http://www.w3.org/2000/svg" xmlns:xlink="http://www.w3.org/1999/xlink">
<g id="graph0" class="graph" transform="scale(1 1) rotate(0) translate(4 94.5)">
<title>org.msrg.raccoon.ReceivedCodedBatch.getCodedSlicesForCoding</title>
<!-- Node1 -->
<g id="node1" class="node"><title>Node1</title>
<polygon fill="#bfbfbf" stroke="black" points="0,-33 0,-63 188,-63 188,-33 0,-33"/>
<text text-anchor="start" x="8" y="-51" font-family="Helvetica,sans-Serif" font-size="10.00">org.msrg.raccoon.Received</text>
<text text-anchor="middle" x="94" y="-40" font-family="Helvetica,sans-Serif" font-size="10.00">CodedBatch.getCodedSlicesForCoding</text>
</g>
<!-- Node2 -->
<g id="node2" class="node"><title>Node2</title>
<g id="a_node2"><a xlink:href="../../da/df0/classorg_1_1msrg_1_1raccoon_1_1ReceivedCodedBatch_a2dcf8b034de98ee19fd5c7e3246f9b49.html#a2dcf8b034de98ee19fd5c7e3246f9b49" target="_top" xlink:title="org.msrg.raccoon.Received\lCodedBatch.code">
<polygon fill="none" stroke="black" points="242.5,-60 242.5,-90 379.5,-90 379.5,-60 242.5,-60"/>
<text text-anchor="start" x="250.5" y="-78" font-family="Helvetica,sans-Serif" font-size="10.00">org.msrg.raccoon.Received</text>
<text text-anchor="middle" x="311" y="-67" font-family="Helvetica,sans-Serif" font-size="10.00">CodedBatch.code</text>
</a>
</g>
</g>
<!-- Node1&#45;&gt;Node2 -->
<g id="edge1" class="edge"><title>Node1&#45;&gt;Node2</title>
<path fill="none" stroke="midnightblue" d="M198.375,-60.982C213.332,-62.8603 228.395,-64.752 242.405,-66.5113"/>
<polygon fill="midnightblue" stroke="midnightblue" points="198.41,-57.4589 188.052,-59.6856 197.538,-64.4044 198.41,-57.4589"/>
</g>
<!-- Node3 -->
<g id="node3" class="node"><title>Node3</title>
<g id="a_node3"><a xlink:href="../../da/df0/classorg_1_1msrg_1_1raccoon_1_1ReceivedCodedBatch_a72894cc4033de6ca2b58b4beae33025e.html#a72894cc4033de6ca2b58b4beae33025e" target="_top" xlink:title="org.msrg.raccoon.Received\lCodedBatch.getCodedSlicesAsBulk\lMatrix2">
<polygon fill="none" stroke="black" points="224,-0.5 224,-41.5 398,-41.5 398,-0.5 224,-0.5"/>
<text text-anchor="start" x="232" y="-29.5" font-family="Helvetica,sans-Serif" font-size="10.00">org.msrg.raccoon.Received</text>
<text text-anchor="start" x="232" y="-18.5" font-family="Helvetica,sans-Serif" font-size="10.00">CodedBatch.getCodedSlicesAsBulk</text>
<text text-anchor="middle" x="311" y="-7.5" font-family="Helvetica,sans-Serif" font-size="10.00">Matrix2</text>
</a>
</g>
</g>
<!-- Node1&#45;&gt;Node3 -->
<g id="edge2" class="edge"><title>Node1&#45;&gt;Node3</title>
<path fill="none" stroke="midnightblue" d="M198.15,-35.0463C206.778,-33.9627 215.444,-32.8745 223.924,-31.8095"/>
<polygon fill="midnightblue" stroke="midnightblue" points="197.538,-31.5956 188.052,-36.3144 198.41,-38.5411 197.538,-31.5956"/>
</g>
</g>
</svg>
