<?xml version="1.0" encoding="UTF-8" standalone="no"?>
<!DOCTYPE svg PUBLIC "-//W3C//DTD SVG 1.1//EN"
 "http://www.w3.org/Graphics/SVG/1.1/DTD/svg11.dtd">
<!-- Generated by graphviz version 2.38.0 (20140413.2041)
 -->
<!-- Title: org.msrg.raccoon.ReceivedCodedBatch.canSolveHighPriority Pages: 1 -->
<!--zoomable 196 -->
<svg id="main" version="1.1" xmlns="http://www.w3.org/2000/svg" xmlns:xlink="http://www.w3.org/1999/xlink" xml:space="preserve" onload="init(evt)">
<style type="text/css"><![CDATA[
.edge:hover path { stroke: red; }
.edge:hover polygon { stroke: red; fill: red; }
]]></style>
<script type="text/javascript"><![CDATA[
var edges = document.getElementsByTagName('g');
if (edges && edges.length) {
  for (var i=0;i<edges.length;i++) {
    if (edges[i].id.substr(0,4)=='edge') {
      edges[i].setAttribute('class','edge');
    }
  }
}
]]></script>
        <defs>
                <circle id="rim" cx="0" cy="0" r="7"/>
                <circle id="rim2" cx="0" cy="0" r="3.5"/>
                <g id="zoomPlus">
                        <use xlink:href="#rim" fill="#404040">
                                <set attributeName="fill" to="#808080" begin="zoomplus.mouseover" end="zoomplus.mouseout"/>
                        </use>
                        <path d="M-4,0h8M0,-4v8" fill="none" stroke="white" stroke-width="1.5" pointer-events="none"/>
                </g>
                <g id="zoomMin">
                        <use xlink:href="#rim" fill="#404040">
                                <set attributeName="fill" to="#808080" begin="zoomminus.mouseover" end="zoomminus.mouseout"/>
                        </use>
                        <path d="M-4,0h8" fill="none" stroke="white" stroke-width="1.5" pointer-events="none"/>
                </g>
                <g id="dirArrow">
                        <path fill="none" stroke="white" stroke-width="1.5" d="M0,-3.0v7 M-2.5,-0.5L0,-3.0L2.5,-0.5"/>
                </g>
               <g id="resetDef">
                       <use xlink:href="#rim2" fill="#404040">
                               <set attributeName="fill" to="#808080" begin="reset.mouseover" end="reset.mouseout"/>
                       </use>
               </g>
        </defs>

<script type="text/javascript">
var viewWidth = 890;
var viewHeight = 196;
var sectionId = 'dynsection-1';
</script>
<script xlink:href="../../svgpan.js"/>
<svg id="graph" class="graph">
<g id="viewport">
<title>org.msrg.raccoon.ReceivedCodedBatch.canSolveHighPriority</title>
<!-- Node1 -->
<g id="node1" class="node"><title>Node1</title>
<polygon fill="#bfbfbf" stroke="black" points="0,-54.5 0,-84.5 165,-84.5 165,-54.5 0,-54.5"/>
<text text-anchor="start" x="8" y="-72.5" font-family="Helvetica,sans-Serif" font-size="10.00">org.msrg.raccoon.Received</text>
<text text-anchor="middle" x="82.5" y="-61.5" font-family="Helvetica,sans-Serif" font-size="10.00">CodedBatch.canSolveHighPriority</text>
</g>
<!-- Node2 -->
<g id="node2" class="node"><title>Node2</title>
<g id="a_node2"><a xlink:href="../../da/df0/classorg_1_1msrg_1_1raccoon_1_1ReceivedCodedBatch_a0eb883fc8fa5805904afcc3d6297b85a.html#a0eb883fc8fa5805904afcc3d6297b85a" target="_top" xlink:title="org.msrg.raccoon.Received\lCodedBatch.canSolve">
<polygon fill="none" stroke="black" points="201,-54.5 201,-84.5 338,-84.5 338,-54.5 201,-54.5"/>
<text text-anchor="start" x="209" y="-72.5" font-family="Helvetica,sans-Serif" font-size="10.00">org.msrg.raccoon.Received</text>
<text text-anchor="middle" x="269.5" y="-61.5" font-family="Helvetica,sans-Serif" font-size="10.00">CodedBatch.canSolve</text>
</a>
</g>
</g>
<!-- Node1&#45;&gt;Node2 -->
<g id="edge1" class="edge"><title>Node1&#45;&gt;Node2</title>
<path fill="none" stroke="midnightblue" d="M175.267,-69.5C183.877,-69.5 192.495,-69.5 200.823,-69.5"/>
<polygon fill="midnightblue" stroke="midnightblue" points="175.182,-66.0001 165.182,-69.5 175.182,-73.0001 175.182,-66.0001"/>
</g>
<!-- Node3 -->
<g id="node3" class="node"><title>Node3</title>
<g id="a_node3"><a xlink:href="../../da/df0/classorg_1_1msrg_1_1raccoon_1_1ReceivedCodedBatch_aa025693c18e525356f5750174ceccd70.html#aa025693c18e525356f5750174ceccd70" target="_top" xlink:title="org.msrg.raccoon.Received\lCodedBatch.decode">
<polygon fill="none" stroke="black" points="426.5,-103.5 426.5,-133.5 563.5,-133.5 563.5,-103.5 426.5,-103.5"/>
<text text-anchor="start" x="434.5" y="-121.5" font-family="Helvetica,sans-Serif" font-size="10.00">org.msrg.raccoon.Received</text>
<text text-anchor="middle" x="495" y="-110.5" font-family="Helvetica,sans-Serif" font-size="10.00">CodedBatch.decode</text>
</a>
</g>
</g>
<!-- Node2&#45;&gt;Node3 -->
<g id="edge2" class="edge"><title>Node2&#45;&gt;Node3</title>
<path fill="none" stroke="midnightblue" d="M348.131,-86.5198C373.541,-92.0906 401.553,-98.2321 426.181,-103.631"/>
<polygon fill="midnightblue" stroke="midnightblue" points="348.681,-83.0574 338.164,-84.3346 347.182,-89.895 348.681,-83.0574"/>
</g>
<!-- Node6 -->
<g id="node6" class="node"><title>Node6</title>
<g id="a_node6"><a xlink:href="../../db/d26/classorg_1_1msrg_1_1raccoon_1_1ReceivedCodedBatchTest_af7c8b12bc8b1dc5d9c5e353b838d830d.html#af7c8b12bc8b1dc5d9c5e353b838d830d" target="_top" xlink:title="org.msrg.raccoon.Received\lCodedBatchTest.ttestEncodingDecoding\lReceivedCodedBatch">
<polygon fill="none" stroke="black" points="670,-49 670,-90 864,-90 864,-49 670,-49"/>
<text text-anchor="start" x="678" y="-78" font-family="Helvetica,sans-Serif" font-size="10.00">org.msrg.raccoon.Received</text>
<text text-anchor="start" x="678" y="-67" font-family="Helvetica,sans-Serif" font-size="10.00">CodedBatchTest.ttestEncodingDecoding</text>
<text text-anchor="middle" x="767" y="-56" font-family="Helvetica,sans-Serif" font-size="10.00">ReceivedCodedBatch</text>
</a>
</g>
</g>
<!-- Node2&#45;&gt;Node6 -->
<g id="edge8" class="edge"><title>Node2&#45;&gt;Node6</title>
<path fill="none" stroke="midnightblue" d="M348.17,-69.5C435.146,-69.5 576.18,-69.5 669.997,-69.5"/>
<polygon fill="midnightblue" stroke="midnightblue" points="348.099,-66.0001 338.099,-69.5 348.099,-73.0001 348.099,-66.0001"/>
</g>
<!-- Node7 -->
<g id="node7" class="node"><title>Node7</title>
<g id="a_node7"><a xlink:href="../../d3/d36/classorg_1_1msrg_1_1raccoon_1_1engine_1_1task_1_1sequential_1_1Decoding__SequentialCodingTask_aa875e6c27f9bd356223417ae1689c3b4.html#aa875e6c27f9bd356223417ae1689c3b4" target="_top" xlink:title="org.msrg.raccoon.engine.task.sequential.\lDecoding_SequentialCodingTask.runStagePrivately">
<polygon fill="none" stroke="black" points="374,-5.5 374,-35.5 616,-35.5 616,-5.5 374,-5.5"/>
<text text-anchor="start" x="382" y="-23.5" font-family="Helvetica,sans-Serif" font-size="10.00">org.msrg.raccoon.engine.task.sequential.</text>
<text text-anchor="middle" x="495" y="-12.5" font-family="Helvetica,sans-Serif" font-size="10.00">Decoding_SequentialCodingTask.runStagePrivately</text>
</a>
</g>
</g>
<!-- Node2&#45;&gt;Node7 -->
<g id="edge6" class="edge"><title>Node2&#45;&gt;Node7</title>
<path fill="none" stroke="midnightblue" d="M348.038,-52.5006C373.207,-46.9826 400.939,-40.9027 425.408,-35.538"/>
<polygon fill="midnightblue" stroke="midnightblue" points="347.182,-49.105 338.164,-54.6654 348.681,-55.9426 347.182,-49.105"/>
</g>
<!-- Node4 -->
<g id="node4" class="node"><title>Node4</title>
<g id="a_node4"><a xlink:href="../../db/d77/classorg_1_1msrg_1_1raccoon_1_1CodedBatchTest_a04baac235b53bea4fab4b550de9271a5.html#a04baac235b53bea4fab4b550de9271a5" target="_top" xlink:title="org.msrg.raccoon.CodedBatch\lTest.testReceivedCodedBatch">
<polygon fill="none" stroke="black" points="691.5,-157.5 691.5,-187.5 842.5,-187.5 842.5,-157.5 691.5,-157.5"/>
<text text-anchor="start" x="699.5" y="-175.5" font-family="Helvetica,sans-Serif" font-size="10.00">org.msrg.raccoon.CodedBatch</text>
<text text-anchor="middle" x="767" y="-164.5" font-family="Helvetica,sans-Serif" font-size="10.00">Test.testReceivedCodedBatch</text>
</a>
</g>
</g>
<!-- Node3&#45;&gt;Node4 -->
<g id="edge3" class="edge"><title>Node3&#45;&gt;Node4</title>
<path fill="none" stroke="midnightblue" d="M573.979,-134.096C610.821,-141.464 654.605,-150.221 691.053,-157.511"/>
<polygon fill="midnightblue" stroke="midnightblue" points="574.276,-130.586 563.784,-132.057 572.903,-137.45 574.276,-130.586"/>
</g>
<!-- Node5 -->
<g id="node5" class="node"><title>Node5</title>
<g id="a_node5"><a xlink:href="../../d7/d47/classorg_1_1msrg_1_1raccoon_1_1SlicedCodedBatchTest_aa7d0bdfa77013b46a1f2e416dbb71b8c.html#aa7d0bdfa77013b46a1f2e416dbb71b8c" target="_top" xlink:title="org.msrg.raccoon.SlicedCoded\lBatchTest.testReceivedCodedBatch">
<polygon fill="none" stroke="black" points="679,-108.5 679,-138.5 855,-138.5 855,-108.5 679,-108.5"/>
<text text-anchor="start" x="687" y="-126.5" font-family="Helvetica,sans-Serif" font-size="10.00">org.msrg.raccoon.SlicedCoded</text>
<text text-anchor="middle" x="767" y="-115.5" font-family="Helvetica,sans-Serif" font-size="10.00">BatchTest.testReceivedCodedBatch</text>
</a>
</g>
</g>
<!-- Node3&#45;&gt;Node5 -->
<g id="edge4" class="edge"><title>Node3&#45;&gt;Node5</title>
<path fill="none" stroke="midnightblue" d="M573.804,-119.941C606.703,-120.55 645.162,-121.262 678.996,-121.889"/>
<polygon fill="midnightblue" stroke="midnightblue" points="573.847,-116.441 563.784,-119.755 573.717,-123.44 573.847,-116.441"/>
</g>
<!-- Node3&#45;&gt;Node6 -->
<g id="edge5" class="edge"><title>Node3&#45;&gt;Node6</title>
<path fill="none" stroke="midnightblue" d="M573.764,-104.387C603.749,-98.9456 638.356,-92.665 669.874,-86.9452"/>
<polygon fill="midnightblue" stroke="midnightblue" points="572.998,-100.969 563.784,-106.198 574.248,-107.856 572.998,-100.969"/>
</g>
<!-- Node8 -->
<g id="node8" class="node"><title>Node8</title>
<g id="a_node8"><a xlink:href="../../d3/d36/classorg_1_1msrg_1_1raccoon_1_1engine_1_1task_1_1sequential_1_1Decoding__SequentialCodingTask_a3497f9c294517ca7934dea0ad28f411d.html#a3497f9c294517ca7934dea0ad28f411d" target="_top" xlink:title="org.msrg.raccoon.engine.task.sequential.\lDecoding_SequentialCodingTask.codingFinished">
<polygon fill="none" stroke="black" points="652,-0.5 652,-30.5 882,-30.5 882,-0.5 652,-0.5"/>
<text text-anchor="start" x="660" y="-18.5" font-family="Helvetica,sans-Serif" font-size="10.00">org.msrg.raccoon.engine.task.sequential.</text>
<text text-anchor="middle" x="767" y="-7.5" font-family="Helvetica,sans-Serif" font-size="10.00">Decoding_SequentialCodingTask.codingFinished</text>
</a>
</g>
</g>
<!-- Node7&#45;&gt;Node8 -->
<g id="edge7" class="edge"><title>Node7&#45;&gt;Node8</title>
<path fill="none" stroke="midnightblue" d="M626.664,-18.0803C635.102,-17.924 643.563,-17.7673 651.915,-17.6127"/>
<polygon fill="midnightblue" stroke="midnightblue" points="626.325,-14.5859 616.392,-18.2705 626.455,-21.5847 626.325,-14.5859"/>
</g>
</g>
</svg>
        <g id="navigator" transform="translate(0 0)" fill="#404254">
                <rect fill="#f2f5e9" fill-opacity="0.5" stroke="#606060" stroke-width=".5" x="0" y="0" width="60" height="60"/>
                <use id="zoomplus" xlink:href="#zoomPlus" x="17" y="9" onmousedown="handleZoom(evt,'in')"/>
                <use id="zoomminus" xlink:href="#zoomMin" x="42" y="9" onmousedown="handleZoom(evt,'out')"/>
                <use id="reset" xlink:href="#resetDef" x="30" y="36" onmousedown="handleReset()"/>
                <g id="arrowUp" xlink:href="#dirArrow" transform="translate(30 24)" onmousedown="handlePan(0,-1)">
                  <use xlink:href="#rim" fill="#404040">
                        <set attributeName="fill" to="#808080" begin="arrowUp.mouseover" end="arrowUp.mouseout"/>
                  </use>
                  <path fill="none" stroke="white" stroke-width="1.5" d="M0,-3.0v7 M-2.5,-0.5L0,-3.0L2.5,-0.5"/>
                </g>
                <g id="arrowRight" xlink:href="#dirArrow" transform="rotate(90) translate(36 -43)" onmousedown="handlePan(1,0)">
                  <use xlink:href="#rim" fill="#404040">
                        <set attributeName="fill" to="#808080" begin="arrowRight.mouseover" end="arrowRight.mouseout"/>
                  </use>
                  <path fill="none" stroke="white" stroke-width="1.5" d="M0,-3.0v7 M-2.5,-0.5L0,-3.0L2.5,-0.5"/>
                </g>
                <g id="arrowDown" xlink:href="#dirArrow" transform="rotate(180) translate(-30 -48)" onmousedown="handlePan(0,1)">
                  <use xlink:href="#rim" fill="#404040">
                        <set attributeName="fill" to="#808080" begin="arrowDown.mouseover" end="arrowDown.mouseout"/>
                  </use>
                  <path fill="none" stroke="white" stroke-width="1.5" d="M0,-3.0v7 M-2.5,-0.5L0,-3.0L2.5,-0.5"/>
                </g>
                <g id="arrowLeft" xlink:href="#dirArrow" transform="rotate(270) translate(-36 17)" onmousedown="handlePan(-1,0)">
                  <use xlink:href="#rim" fill="#404040">
                        <set attributeName="fill" to="#808080" begin="arrowLeft.mouseover" end="arrowLeft.mouseout"/>
                  </use>
                  <path fill="none" stroke="white" stroke-width="1.5" d="M0,-3.0v7 M-2.5,-0.5L0,-3.0L2.5,-0.5"/>
                </g>
        </g>
        <svg viewBox="0 0 15 15" width="100%" height="30px" preserveAspectRatio="xMaxYMin meet">
         <g id="arrow_out" transform="scale(0.3 0.3)">
          <a xlink:href="classorg_1_1msrg_1_1raccoon_1_1ReceivedCodedBatch_abe5a8dd787d94591fcbdc4aa01e639df_abe5a8dd787d94591fcbdc4aa01e639df_icgraph_org.svg" target="_base">
           <rect id="button" ry="5" rx="5" y="6" x="6" height="38" width="38"
                fill="#f2f5e9" fill-opacity="0.5" stroke="#606060" stroke-width="1.0"/>
           <path id="arrow"
             d="M 11.500037,31.436501 C 11.940474,20.09759 22.043105,11.32322 32.158766,21.979434 L 37.068811,17.246167 C 37.068811,17.246167 37.088388,32 37.088388,32 L 22.160133,31.978069 C 22.160133,31.978069 26.997745,27.140456 26.997745,27.140456 C 18.528582,18.264221 13.291696,25.230495 11.500037,31.436501 z"
             style="fill:#404040;"/>
          </a>
         </g>
        </svg>
</svg>
