<?xml version="1.0" encoding="UTF-8" standalone="no"?>
<!DOCTYPE svg PUBLIC "-//W3C//DTD SVG 1.1//EN"
 "http://www.w3.org/Graphics/SVG/1.1/DTD/svg11.dtd">
<!-- Generated by graphviz version 2.38.0 (20140413.2041)
 -->
<!-- Title: org.msrg.raccoon.engine.CodingEngine_ForTest.encodingReceivedEncodingDecodingEqual Pages: 1 -->
<svg width="542pt" height="50pt"
 viewBox="0.00 0.00 542.00 50.00" xmlns="http://www.w3.org/2000/svg" xmlns:xlink="http://www.w3.org/1999/xlink">
<g id="graph0" class="graph" transform="scale(1 1) rotate(0) translate(4 46)">
<title>org.msrg.raccoon.engine.CodingEngine_ForTest.encodingReceivedEncodingDecodingEqual</title>
<!-- Node0 -->
<g id="node1" class="node"><title>Node0</title>
<polygon fill="#bfbfbf" stroke="black" points="5.68434e-14,-0.5 5.68434e-14,-41.5 164,-41.5 164,-0.5 5.68434e-14,-0.5"/>
<text text-anchor="start" x="8" y="-29.5" font-family="Helvetica,sans-Serif" font-size="10.00">org.msrg.raccoon.engine.</text>
<text text-anchor="start" x="8" y="-18.5" font-family="Helvetica,sans-Serif" font-size="10.00">CodingEngine_ForTest.encoding</text>
<text text-anchor="middle" x="82" y="-7.5" font-family="Helvetica,sans-Serif" font-size="10.00">ReceivedEncodingDecodingEqual</text>
</g>
<!-- Node1 -->
<g id="node2" class="node"><title>Node1</title>
<g id="a_node2"><a xlink:href="../../d5/d15/classorg_1_1msrg_1_1raccoon_1_1engine_1_1task_1_1CodingId_a6ba7d662d6e68c8ae2c6d59bdb84aa4d.html#a6ba7d662d6e68c8ae2c6d59bdb84aa4d" target="_top" xlink:title="org.msrg.raccoon.engine.task.\lCodingId.getNewCodingId">
<polygon fill="none" stroke="black" points="200,-6 200,-36 349,-36 349,-6 200,-6"/>
<text text-anchor="start" x="208" y="-24" font-family="Helvetica,sans-Serif" font-size="10.00">org.msrg.raccoon.engine.task.</text>
<text text-anchor="middle" x="274.5" y="-13" font-family="Helvetica,sans-Serif" font-size="10.00">CodingId.getNewCodingId</text>
</a>
</g>
</g>
<!-- Node0&#45;&gt;Node1 -->
<g id="edge1" class="edge"><title>Node0&#45;&gt;Node1</title>
<path fill="none" stroke="midnightblue" d="M164.065,-21C172.489,-21 181.064,-21 189.518,-21"/>
<polygon fill="midnightblue" stroke="midnightblue" points="189.754,-24.5001 199.753,-21 189.753,-17.5001 189.754,-24.5001"/>
</g>
<!-- Node2 -->
<g id="node3" class="node"><title>Node2</title>
<g id="a_node3"><a xlink:href="../../d5/d15/classorg_1_1msrg_1_1raccoon_1_1engine_1_1task_1_1CodingId_ab50e593ac53f18fc667dc3dddaecc039.html#ab50e593ac53f18fc667dc3dddaecc039" target="_top" xlink:title="org.msrg.raccoon.engine.task.\lCodingId.CodingId">
<polygon fill="none" stroke="black" points="385,-6 385,-36 534,-36 534,-6 385,-6"/>
<text text-anchor="start" x="393" y="-24" font-family="Helvetica,sans-Serif" font-size="10.00">org.msrg.raccoon.engine.task.</text>
<text text-anchor="middle" x="459.5" y="-13" font-family="Helvetica,sans-Serif" font-size="10.00">CodingId.CodingId</text>
</a>
</g>
</g>
<!-- Node1&#45;&gt;Node2 -->
<g id="edge2" class="edge"><title>Node1&#45;&gt;Node2</title>
<path fill="none" stroke="midnightblue" d="M349.142,-21C357.474,-21 366.011,-21 374.463,-21"/>
<polygon fill="midnightblue" stroke="midnightblue" points="374.711,-24.5001 384.711,-21 374.711,-17.5001 374.711,-24.5001"/>
</g>
</g>
</svg>
