<?xml version="1.0" encoding="UTF-8" standalone="no"?>
<!DOCTYPE svg PUBLIC "-//W3C//DTD SVG 1.1//EN"
 "http://www.w3.org/Graphics/SVG/1.1/DTD/svg11.dtd">
<!-- Generated by graphviz version 2.38.0 (20140413.2041)
 -->
<!-- Title: org.msrg.raccoon.engine.CodingEngine_ForTest.encodingDecodingEqual Pages: 1 -->
<svg width="591pt" height="88pt"
 viewBox="0.00 0.00 591.00 88.00" xmlns="http://www.w3.org/2000/svg" xmlns:xlink="http://www.w3.org/1999/xlink">
<g id="graph0" class="graph" transform="scale(1 1) rotate(0) translate(4 84)">
<title>org.msrg.raccoon.engine.CodingEngine_ForTest.encodingDecodingEqual</title>
<!-- Node1 -->
<g id="node1" class="node"><title>Node1</title>
<polygon fill="#bfbfbf" stroke="black" points="0,-19 0,-60 158,-60 158,-19 0,-19"/>
<text text-anchor="start" x="8" y="-48" font-family="Helvetica,sans-Serif" font-size="10.00">org.msrg.raccoon.engine.</text>
<text text-anchor="start" x="8" y="-37" font-family="Helvetica,sans-Serif" font-size="10.00">CodingEngine_ForTest.encoding</text>
<text text-anchor="middle" x="79" y="-26" font-family="Helvetica,sans-Serif" font-size="10.00">DecodingEqual</text>
</g>
<!-- Node2 -->
<g id="node2" class="node"><title>Node2</title>
<g id="a_node2"><a xlink:href="../../db/d98/classorg_1_1msrg_1_1raccoon_1_1engine_1_1CodingEngine_a3f229e36767db9f7cd2ec62919f828e3.html#a3f229e36767db9f7cd2ec62919f828e3" target="_top" xlink:title="org.msrg.raccoon.engine.\lCodingEngine.addCodingTaskEngineEvent">
<polygon fill="none" stroke="black" points="194,-49.5 194,-79.5 398,-79.5 398,-49.5 194,-49.5"/>
<text text-anchor="start" x="202" y="-67.5" font-family="Helvetica,sans-Serif" font-size="10.00">org.msrg.raccoon.engine.</text>
<text text-anchor="middle" x="296" y="-56.5" font-family="Helvetica,sans-Serif" font-size="10.00">CodingEngine.addCodingTaskEngineEvent</text>
</a>
</g>
</g>
<!-- Node1&#45;&gt;Node2 -->
<g id="edge1" class="edge"><title>Node1&#45;&gt;Node2</title>
<path fill="none" stroke="midnightblue" d="M158.228,-48.5963C166.513,-49.5596 175.048,-50.5521 183.617,-51.5485"/>
<polygon fill="midnightblue" stroke="midnightblue" points="183.34,-55.0398 193.678,-52.7183 184.149,-48.0867 183.34,-55.0398"/>
</g>
<!-- Node3 -->
<g id="node3" class="node"><title>Node3</title>
<g id="a_node3"><a xlink:href="../../d5/d15/classorg_1_1msrg_1_1raccoon_1_1engine_1_1task_1_1CodingId_a6ba7d662d6e68c8ae2c6d59bdb84aa4d.html#a6ba7d662d6e68c8ae2c6d59bdb84aa4d" target="_top" xlink:title="org.msrg.raccoon.engine.task.\lCodingId.getNewCodingId">
<polygon fill="none" stroke="black" points="221.5,-0.5 221.5,-30.5 370.5,-30.5 370.5,-0.5 221.5,-0.5"/>
<text text-anchor="start" x="229.5" y="-18.5" font-family="Helvetica,sans-Serif" font-size="10.00">org.msrg.raccoon.engine.task.</text>
<text text-anchor="middle" x="296" y="-7.5" font-family="Helvetica,sans-Serif" font-size="10.00">CodingId.getNewCodingId</text>
</a>
</g>
</g>
<!-- Node1&#45;&gt;Node3 -->
<g id="edge2" class="edge"><title>Node1&#45;&gt;Node3</title>
<path fill="none" stroke="midnightblue" d="M158.228,-30.7676C175.491,-28.8405 193.845,-26.7917 211.315,-24.8416"/>
<polygon fill="midnightblue" stroke="midnightblue" points="211.934,-28.2943 221.484,-23.7065 211.157,-21.3375 211.934,-28.2943"/>
</g>
<!-- Node4 -->
<g id="node4" class="node"><title>Node4</title>
<g id="a_node4"><a xlink:href="../../d5/d15/classorg_1_1msrg_1_1raccoon_1_1engine_1_1task_1_1CodingId_ab50e593ac53f18fc667dc3dddaecc039.html#ab50e593ac53f18fc667dc3dddaecc039" target="_top" xlink:title="org.msrg.raccoon.engine.task.\lCodingId.CodingId">
<polygon fill="none" stroke="black" points="434,-0.5 434,-30.5 583,-30.5 583,-0.5 434,-0.5"/>
<text text-anchor="start" x="442" y="-18.5" font-family="Helvetica,sans-Serif" font-size="10.00">org.msrg.raccoon.engine.task.</text>
<text text-anchor="middle" x="508.5" y="-7.5" font-family="Helvetica,sans-Serif" font-size="10.00">CodingId.CodingId</text>
</a>
</g>
</g>
<!-- Node3&#45;&gt;Node4 -->
<g id="edge3" class="edge"><title>Node3&#45;&gt;Node4</title>
<path fill="none" stroke="midnightblue" d="M370.623,-15.5C387.768,-15.5 406.148,-15.5 423.698,-15.5"/>
<polygon fill="midnightblue" stroke="midnightblue" points="423.919,-19.0001 433.919,-15.5 423.919,-12.0001 423.919,-19.0001"/>
</g>
</g>
</svg>
