<?xml version="1.0" encoding="UTF-8" standalone="no"?>
<!DOCTYPE svg PUBLIC "-//W3C//DTD SVG 1.1//EN"
 "http://www.w3.org/Graphics/SVG/1.1/DTD/svg11.dtd">
<!-- Generated by graphviz version 2.38.0 (20140413.2041)
 -->
<!-- Title: org.msrg.raccoon.CodedPieceTest Pages: 1 -->
<!--zoomable 1765 -->
<svg id="main" version="1.1" xmlns="http://www.w3.org/2000/svg" xmlns:xlink="http://www.w3.org/1999/xlink" xml:space="preserve" onload="init(evt)">
<style type="text/css"><![CDATA[
.edge:hover path { stroke: red; }
.edge:hover polygon { stroke: red; fill: red; }
]]></style>
<script type="text/javascript"><![CDATA[
var edges = document.getElementsByTagName('g');
if (edges && edges.length) {
  for (var i=0;i<edges.length;i++) {
    if (edges[i].id.substr(0,4)=='edge') {
      edges[i].setAttribute('class','edge');
    }
  }
}
]]></script>
        <defs>
                <circle id="rim" cx="0" cy="0" r="7"/>
                <circle id="rim2" cx="0" cy="0" r="3.5"/>
                <g id="zoomPlus">
                        <use xlink:href="#rim" fill="#404040">
                                <set attributeName="fill" to="#808080" begin="zoomplus.mouseover" end="zoomplus.mouseout"/>
                        </use>
                        <path d="M-4,0h8M0,-4v8" fill="none" stroke="white" stroke-width="1.5" pointer-events="none"/>
                </g>
                <g id="zoomMin">
                        <use xlink:href="#rim" fill="#404040">
                                <set attributeName="fill" to="#808080" begin="zoomminus.mouseover" end="zoomminus.mouseout"/>
                        </use>
                        <path d="M-4,0h8" fill="none" stroke="white" stroke-width="1.5" pointer-events="none"/>
                </g>
                <g id="dirArrow">
                        <path fill="none" stroke="white" stroke-width="1.5" d="M0,-3.0v7 M-2.5,-0.5L0,-3.0L2.5,-0.5"/>
                </g>
               <g id="resetDef">
                       <use xlink:href="#rim2" fill="#404040">
                               <set attributeName="fill" to="#808080" begin="reset.mouseover" end="reset.mouseout"/>
                       </use>
               </g>
        </defs>

<script type="text/javascript">
var viewWidth = 673;
var viewHeight = 1765;
var sectionId = 'dynsection-1';
</script>
<script xlink:href="../../svgpan.js"/>
<svg id="graph" class="graph">
<g id="viewport">
<title>org.msrg.raccoon.CodedPieceTest</title>
<!-- Node2 -->
<g id="node1" class="node"><title>Node2</title>
<polygon fill="#bfbfbf" stroke="black" points="370.5,-0.5 370.5,-90.5 538.5,-90.5 538.5,-0.5 370.5,-0.5"/>
<text text-anchor="middle" x="454.5" y="-78.5" font-family="Helvetica,sans-Serif" font-size="10.00">org.msrg.raccoon.CodedPieceTest</text>
<polyline fill="none" stroke="black" points="370.5,-71.5 538.5,-71.5 "/>
<text text-anchor="start" x="378.5" y="-59.5" font-family="Helvetica,sans-Serif" font-size="10.00">+ _rows</text>
<text text-anchor="start" x="378.5" y="-48.5" font-family="Helvetica,sans-Serif" font-size="10.00">+ _cols</text>
<text text-anchor="start" x="378.5" y="-37.5" font-family="Helvetica,sans-Serif" font-size="10.00">~ _b</text>
<polyline fill="none" stroke="black" points="370.5,-30.5 538.5,-30.5 "/>
<text text-anchor="start" x="378.5" y="-18.5" font-family="Helvetica,sans-Serif" font-size="10.00">+ setUp()</text>
<text text-anchor="start" x="378.5" y="-7.5" font-family="Helvetica,sans-Serif" font-size="10.00">+ testCodedPiece()</text>
</g>
<!-- Node3 -->
<g id="node2" class="node"><title>Node3</title>
<polygon fill="none" stroke="#bfbfbf" points="303,-166 303,-223 362,-223 362,-166 303,-166"/>
<text text-anchor="middle" x="332.5" y="-211" font-family="Helvetica,sans-Serif" font-size="10.00">TestCase</text>
<polyline fill="none" stroke="#bfbfbf" points="303,-204 362,-204 "/>
<text text-anchor="middle" x="332.5" y="-192" font-family="Helvetica,sans-Serif" font-size="10.00"> </text>
<polyline fill="none" stroke="#bfbfbf" points="303,-185 362,-185 "/>
<text text-anchor="middle" x="332.5" y="-173" font-family="Helvetica,sans-Serif" font-size="10.00"> </text>
</g>
<!-- Node3&#45;&gt;Node2 -->
<g id="edge1" class="edge"><title>Node3&#45;&gt;Node2</title>
<path fill="none" stroke="midnightblue" d="M355.991,-157.578C360.636,-150.946 365.596,-144.171 370.5,-138 383.246,-121.962 398.1,-105.227 411.742,-90.5202"/>
<polygon fill="none" stroke="midnightblue" points="353.087,-155.623 350.303,-165.845 358.854,-159.591 353.087,-155.623"/>
</g>
<!-- Node4 -->
<g id="node3" class="node"><title>Node4</title>
<g id="a_node3"><a xlink:href="../../dd/dfd/classorg_1_1msrg_1_1raccoon_1_1CodedPiece.html" target="_top" xlink:title="{org.msrg.raccoon.CodedPiece\n||+ CodedPiece()\l+ CodedPiece()\l+ equals()\l+ toString()\l+ makeCodedPiece()\l+ makeCodedSlice()\l}">
<polygon fill="none" stroke="black" points="380,-138.5 380,-250.5 529,-250.5 529,-138.5 380,-138.5"/>
<text text-anchor="middle" x="454.5" y="-238.5" font-family="Helvetica,sans-Serif" font-size="10.00">org.msrg.raccoon.CodedPiece</text>
<polyline fill="none" stroke="black" points="380,-231.5 529,-231.5 "/>
<text text-anchor="middle" x="454.5" y="-219.5" font-family="Helvetica,sans-Serif" font-size="10.00"> </text>
<polyline fill="none" stroke="black" points="380,-212.5 529,-212.5 "/>
<text text-anchor="start" x="388" y="-200.5" font-family="Helvetica,sans-Serif" font-size="10.00">+ CodedPiece()</text>
<text text-anchor="start" x="388" y="-189.5" font-family="Helvetica,sans-Serif" font-size="10.00">+ CodedPiece()</text>
<text text-anchor="start" x="388" y="-178.5" font-family="Helvetica,sans-Serif" font-size="10.00">+ equals()</text>
<text text-anchor="start" x="388" y="-167.5" font-family="Helvetica,sans-Serif" font-size="10.00">+ toString()</text>
<text text-anchor="start" x="388" y="-156.5" font-family="Helvetica,sans-Serif" font-size="10.00">+ makeCodedPiece()</text>
<text text-anchor="start" x="388" y="-145.5" font-family="Helvetica,sans-Serif" font-size="10.00">+ makeCodedSlice()</text>
</a>
</g>
</g>
<!-- Node4&#45;&gt;Node2 -->
<g id="edge2" class="edge"><title>Node4&#45;&gt;Node2</title>
<path fill="none" stroke="#404040" d="M454.5,-138.344C454.5,-126.857 454.5,-114.732 454.5,-103.19"/>
<polygon fill="none" stroke="#404040" points="454.5,-102.954 450.5,-96.9539 454.5,-90.9539 458.5,-96.9538 454.5,-102.954"/>
<text text-anchor="middle" x="467" y="-112" font-family="Helvetica,sans-Serif" font-size="10.00"> ~_cp</text>
</g>
<!-- Node5 -->
<g id="node4" class="node"><title>Node5</title>
<g id="a_node4"><a xlink:href="../../dd/d36/classorg_1_1msrg_1_1raccoon_1_1CodedCoefficients.html" target="_top" xlink:title="{org.msrg.raccoon.CodedCoefficients\n|# _MAX_COEFFICIENTS_PRINT\l|+ CodedCoefficients()\l+ CodedCoefficients()\l+ CodedCoefficients()\l+ getCoefficients()\l+ getSizeInByteBuffer()\l+ getLength()\l+ toString()\l+ toString()\l+ equals()\l# makeRand1dArray()\l}">
<polygon fill="none" stroke="black" points="250.5,-298.5 250.5,-454.5 426.5,-454.5 426.5,-298.5 250.5,-298.5"/>
<text text-anchor="middle" x="338.5" y="-442.5" font-family="Helvetica,sans-Serif" font-size="10.00">org.msrg.raccoon.CodedCoefficients</text>
<polyline fill="none" stroke="black" points="250.5,-435.5 426.5,-435.5 "/>
<text text-anchor="start" x="258.5" y="-423.5" font-family="Helvetica,sans-Serif" font-size="10.00"># _MAX_COEFFICIENTS_PRINT</text>
<polyline fill="none" stroke="black" points="250.5,-416.5 426.5,-416.5 "/>
<text text-anchor="start" x="258.5" y="-404.5" font-family="Helvetica,sans-Serif" font-size="10.00">+ CodedCoefficients()</text>
<text text-anchor="start" x="258.5" y="-393.5" font-family="Helvetica,sans-Serif" font-size="10.00">+ CodedCoefficients()</text>
<text text-anchor="start" x="258.5" y="-382.5" font-family="Helvetica,sans-Serif" font-size="10.00">+ CodedCoefficients()</text>
<text text-anchor="start" x="258.5" y="-371.5" font-family="Helvetica,sans-Serif" font-size="10.00">+ getCoefficients()</text>
<text text-anchor="start" x="258.5" y="-360.5" font-family="Helvetica,sans-Serif" font-size="10.00">+ getSizeInByteBuffer()</text>
<text text-anchor="start" x="258.5" y="-349.5" font-family="Helvetica,sans-Serif" font-size="10.00">+ getLength()</text>
<text text-anchor="start" x="258.5" y="-338.5" font-family="Helvetica,sans-Serif" font-size="10.00">+ toString()</text>
<text text-anchor="start" x="258.5" y="-327.5" font-family="Helvetica,sans-Serif" font-size="10.00">+ toString()</text>
<text text-anchor="start" x="258.5" y="-316.5" font-family="Helvetica,sans-Serif" font-size="10.00">+ equals()</text>
<text text-anchor="start" x="258.5" y="-305.5" font-family="Helvetica,sans-Serif" font-size="10.00"># makeRand1dArray()</text>
</a>
</g>
</g>
<!-- Node5&#45;&gt;Node4 -->
<g id="edge3" class="edge"><title>Node5&#45;&gt;Node4</title>
<path fill="none" stroke="#404040" d="M388.199,-298.38C396.189,-285.982 404.394,-273.25 412.19,-261.153"/>
<polygon fill="none" stroke="#404040" points="412.42,-260.797 412.308,-253.587 418.92,-250.71 419.032,-257.92 412.42,-260.797"/>
<text text-anchor="middle" x="420" y="-272" font-family="Helvetica,sans-Serif" font-size="10.00"> +_cc</text>
</g>
<!-- Node6 -->
<g id="node5" class="node"><title>Node6</title>
<g id="a_node5"><a xlink:href="../../d6/d37/classorg_1_1msrg_1_1raccoon_1_1matrix_1_1finitefields_1_1ByteMatrix1D.html" target="_top" xlink:title="{org.msrg.raccoon.matrix.finitefields.\lByteMatrix1D\n||+ ByteMatrix1D()\l+ ByteMatrix1D()\l+ ByteMatrix1D()\l+ multiply1D()\l# make1dArray2d()\l}">
<polygon fill="none" stroke="black" points="153,-492.5 153,-604.5 326,-604.5 326,-492.5 153,-492.5"/>
<text text-anchor="start" x="161" y="-592.5" font-family="Helvetica,sans-Serif" font-size="10.00">org.msrg.raccoon.matrix.finitefields.</text>
<text text-anchor="middle" x="239.5" y="-581.5" font-family="Helvetica,sans-Serif" font-size="10.00">ByteMatrix1D</text>
<polyline fill="none" stroke="black" points="153,-574.5 326,-574.5 "/>
<text text-anchor="middle" x="239.5" y="-562.5" font-family="Helvetica,sans-Serif" font-size="10.00"> </text>
<polyline fill="none" stroke="black" points="153,-555.5 326,-555.5 "/>
<text text-anchor="start" x="161" y="-543.5" font-family="Helvetica,sans-Serif" font-size="10.00">+ ByteMatrix1D()</text>
<text text-anchor="start" x="161" y="-532.5" font-family="Helvetica,sans-Serif" font-size="10.00">+ ByteMatrix1D()</text>
<text text-anchor="start" x="161" y="-521.5" font-family="Helvetica,sans-Serif" font-size="10.00">+ ByteMatrix1D()</text>
<text text-anchor="start" x="161" y="-510.5" font-family="Helvetica,sans-Serif" font-size="10.00">+ multiply1D()</text>
<text text-anchor="start" x="161" y="-499.5" font-family="Helvetica,sans-Serif" font-size="10.00"># make1dArray2d()</text>
</a>
</g>
</g>
<!-- Node6&#45;&gt;Node5 -->
<g id="edge4" class="edge"><title>Node6&#45;&gt;Node5</title>
<path fill="none" stroke="midnightblue" d="M276.813,-483.427C282.283,-474.033 287.966,-464.276 293.569,-454.654"/>
<polygon fill="none" stroke="midnightblue" points="273.65,-481.903 271.642,-492.306 279.699,-485.426 273.65,-481.903"/>
</g>
<!-- Node7 -->
<g id="node6" class="node"><title>Node7</title>
<g id="a_node6"><a xlink:href="../../dd/d36/classorg_1_1msrg_1_1raccoon_1_1matrix_1_1finitefields_1_1ByteMatrix.html" target="_top" xlink:title="{org.msrg.raccoon.matrix.finitefields.\lByteMatrix\n||+ ByteMatrix()\l+ ByteMatrix()\l+ ByteMatrix()\l+ isInversable()\l+ getByteArray()\l+ multiply()\l+ multiply()\l+ getZeroMatrix()\l+ verifyNotNull()\l+ wrap()\l+ wrap()\l+ unwrap()\l+ createRandomByteMatrix()\l+ createMatrix()\l# createByteMatrix()\l# createNewMatrix()\l}">
<polygon fill="none" stroke="black" points="145,-686.5 145,-919.5 318,-919.5 318,-686.5 145,-686.5"/>
<text text-anchor="start" x="153" y="-907.5" font-family="Helvetica,sans-Serif" font-size="10.00">org.msrg.raccoon.matrix.finitefields.</text>
<text text-anchor="middle" x="231.5" y="-896.5" font-family="Helvetica,sans-Serif" font-size="10.00">ByteMatrix</text>
<polyline fill="none" stroke="black" points="145,-889.5 318,-889.5 "/>
<text text-anchor="middle" x="231.5" y="-877.5" font-family="Helvetica,sans-Serif" font-size="10.00"> </text>
<polyline fill="none" stroke="black" points="145,-870.5 318,-870.5 "/>
<text text-anchor="start" x="153" y="-858.5" font-family="Helvetica,sans-Serif" font-size="10.00">+ ByteMatrix()</text>
<text text-anchor="start" x="153" y="-847.5" font-family="Helvetica,sans-Serif" font-size="10.00">+ ByteMatrix()</text>
<text text-anchor="start" x="153" y="-836.5" font-family="Helvetica,sans-Serif" font-size="10.00">+ ByteMatrix()</text>
<text text-anchor="start" x="153" y="-825.5" font-family="Helvetica,sans-Serif" font-size="10.00">+ isInversable()</text>
<text text-anchor="start" x="153" y="-814.5" font-family="Helvetica,sans-Serif" font-size="10.00">+ getByteArray()</text>
<text text-anchor="start" x="153" y="-803.5" font-family="Helvetica,sans-Serif" font-size="10.00">+ multiply()</text>
<text text-anchor="start" x="153" y="-792.5" font-family="Helvetica,sans-Serif" font-size="10.00">+ multiply()</text>
<text text-anchor="start" x="153" y="-781.5" font-family="Helvetica,sans-Serif" font-size="10.00">+ getZeroMatrix()</text>
<text text-anchor="start" x="153" y="-770.5" font-family="Helvetica,sans-Serif" font-size="10.00">+ verifyNotNull()</text>
<text text-anchor="start" x="153" y="-759.5" font-family="Helvetica,sans-Serif" font-size="10.00">+ wrap()</text>
<text text-anchor="start" x="153" y="-748.5" font-family="Helvetica,sans-Serif" font-size="10.00">+ wrap()</text>
<text text-anchor="start" x="153" y="-737.5" font-family="Helvetica,sans-Serif" font-size="10.00">+ unwrap()</text>
<text text-anchor="start" x="153" y="-726.5" font-family="Helvetica,sans-Serif" font-size="10.00">+ createRandomByteMatrix()</text>
<text text-anchor="start" x="153" y="-715.5" font-family="Helvetica,sans-Serif" font-size="10.00">+ createMatrix()</text>
<text text-anchor="start" x="153" y="-704.5" font-family="Helvetica,sans-Serif" font-size="10.00"># createByteMatrix()</text>
<text text-anchor="start" x="153" y="-693.5" font-family="Helvetica,sans-Serif" font-size="10.00"># createNewMatrix()</text>
</a>
</g>
</g>
<!-- Node7&#45;&gt;Node6 -->
<g id="edge5" class="edge"><title>Node7&#45;&gt;Node6</title>
<path fill="none" stroke="midnightblue" d="M235.478,-676.446C236.276,-651.26 237.075,-626.037 237.748,-604.786"/>
<polygon fill="none" stroke="midnightblue" points="231.979,-676.359 235.161,-686.465 238.976,-676.581 231.979,-676.359"/>
</g>
<!-- Node8 -->
<g id="node7" class="node"><title>Node8</title>
<g id="a_node7"><a xlink:href="../../de/d17/classorg_1_1msrg_1_1raccoon_1_1matrix_1_1finitefields_1_1FFByteMatrix.html" target="_top" xlink:title="{org.msrg.raccoon.matrix.finitefields.\lFFByteMatrix\n|# m\l# DIG\l|+ FFByteMatrix()\l+ FFByteMatrix()\l+ add()\l+ decloneExtended()\l+ cloneExtended()\l+ clone()\l+ getOne()\l+ getZero()\l+ getZeroMatrix()\l+ getNullMatrix()\land 10 more...\l+ createRandomSquareByteMatrix()\l+ createRandomByteMatrix()\l+ createMatrix()\l+ random()\l# createNewMatrix()\l# toString()\l# multiply2()\l# makeZero2d()\l}">
<polygon fill="none" stroke="black" points="134,-1011.5 134,-1288.5 307,-1288.5 307,-1011.5 134,-1011.5"/>
<text text-anchor="start" x="142" y="-1276.5" font-family="Helvetica,sans-Serif" font-size="10.00">org.msrg.raccoon.matrix.finitefields.</text>
<text text-anchor="middle" x="220.5" y="-1265.5" font-family="Helvetica,sans-Serif" font-size="10.00">FFByteMatrix</text>
<polyline fill="none" stroke="black" points="134,-1258.5 307,-1258.5 "/>
<text text-anchor="start" x="142" y="-1246.5" font-family="Helvetica,sans-Serif" font-size="10.00"># m</text>
<text text-anchor="start" x="142" y="-1235.5" font-family="Helvetica,sans-Serif" font-size="10.00"># DIG</text>
<polyline fill="none" stroke="black" points="134,-1228.5 307,-1228.5 "/>
<text text-anchor="start" x="142" y="-1216.5" font-family="Helvetica,sans-Serif" font-size="10.00">+ FFByteMatrix()</text>
<text text-anchor="start" x="142" y="-1205.5" font-family="Helvetica,sans-Serif" font-size="10.00">+ FFByteMatrix()</text>
<text text-anchor="start" x="142" y="-1194.5" font-family="Helvetica,sans-Serif" font-size="10.00">+ add()</text>
<text text-anchor="start" x="142" y="-1183.5" font-family="Helvetica,sans-Serif" font-size="10.00">+ decloneExtended()</text>
<text text-anchor="start" x="142" y="-1172.5" font-family="Helvetica,sans-Serif" font-size="10.00">+ cloneExtended()</text>
<text text-anchor="start" x="142" y="-1161.5" font-family="Helvetica,sans-Serif" font-size="10.00">+ clone()</text>
<text text-anchor="start" x="142" y="-1150.5" font-family="Helvetica,sans-Serif" font-size="10.00">+ getOne()</text>
<text text-anchor="start" x="142" y="-1139.5" font-family="Helvetica,sans-Serif" font-size="10.00">+ getZero()</text>
<text text-anchor="start" x="142" y="-1128.5" font-family="Helvetica,sans-Serif" font-size="10.00">+ getZeroMatrix()</text>
<text text-anchor="start" x="142" y="-1117.5" font-family="Helvetica,sans-Serif" font-size="10.00">+ getNullMatrix()</text>
<text text-anchor="start" x="142" y="-1106.5" font-family="Helvetica,sans-Serif" font-size="10.00">and 10 more...</text>
<text text-anchor="start" x="142" y="-1095.5" font-family="Helvetica,sans-Serif" font-size="10.00">+ createRandomSquareByteMatrix()</text>
<text text-anchor="start" x="142" y="-1084.5" font-family="Helvetica,sans-Serif" font-size="10.00">+ createRandomByteMatrix()</text>
<text text-anchor="start" x="142" y="-1073.5" font-family="Helvetica,sans-Serif" font-size="10.00">+ createMatrix()</text>
<text text-anchor="start" x="142" y="-1062.5" font-family="Helvetica,sans-Serif" font-size="10.00">+ random()</text>
<text text-anchor="start" x="142" y="-1051.5" font-family="Helvetica,sans-Serif" font-size="10.00"># createNewMatrix()</text>
<text text-anchor="start" x="142" y="-1040.5" font-family="Helvetica,sans-Serif" font-size="10.00"># toString()</text>
<text text-anchor="start" x="142" y="-1029.5" font-family="Helvetica,sans-Serif" font-size="10.00"># multiply2()</text>
<text text-anchor="start" x="142" y="-1018.5" font-family="Helvetica,sans-Serif" font-size="10.00"># makeZero2d()</text>
</a>
</g>
</g>
<!-- Node8&#45;&gt;Node7 -->
<g id="edge6" class="edge"><title>Node8&#45;&gt;Node7</title>
<path fill="none" stroke="midnightblue" d="M225.225,-1000.81C226.09,-973.675 226.981,-945.724 227.811,-919.713"/>
<polygon fill="none" stroke="midnightblue" points="221.715,-1001.05 224.895,-1011.16 228.712,-1001.28 221.715,-1001.05"/>
</g>
<!-- Node9 -->
<g id="node8" class="node"><title>Node9</title>
<g id="a_node8"><a xlink:href="../../db/d3f/classorg_1_1msrg_1_1raccoon_1_1matrix_1_1TypedMatrix.html" target="_top" xlink:title="{org::msrg::raccoon\l::matrix::TypedMatrix\l\&lt; Byte \&gt;\n|+ _b\l+ _MAX_ROWS_PRINT\l+ _MAX_COLS_PRINT\l# _rows\l# _cols\l# _lock\l# _inverseRowZero\l# _inverse\l|+ TypedMatrix()\l+ clone()\l+ cloneExtended()\l+ decloneExtended()\l+ compareToAbs()\l+ isZero()\l+ isOne()\l+ getOne()\l+ getZero()\l+ inverse()\land 25 more...\l+ toStringMult()\l+ toStringAdd()\l+ toString()\l# toString()\l# getNullMatrix()\l# getZeroMatrix()\l# getEmptyArray()\l# inverseMatrixPrivately()\l# devideRow()\l# subtractRow()\l# subtractRowFromRow()\l# addRow()\l# multiplyRow()\land 8 more...\l}">
<polygon fill="none" stroke="black" points="0,-1336.5 0,-1756.5 129,-1756.5 129,-1336.5 0,-1336.5"/>
<text text-anchor="start" x="8" y="-1744.5" font-family="Helvetica,sans-Serif" font-size="10.00">org::msrg::raccoon</text>
<text text-anchor="start" x="8" y="-1733.5" font-family="Helvetica,sans-Serif" font-size="10.00">::matrix::TypedMatrix</text>
<text text-anchor="middle" x="64.5" y="-1722.5" font-family="Helvetica,sans-Serif" font-size="10.00">&lt; Byte &gt;</text>
<polyline fill="none" stroke="black" points="0,-1715.5 129,-1715.5 "/>
<text text-anchor="start" x="8" y="-1703.5" font-family="Helvetica,sans-Serif" font-size="10.00">+ _b</text>
<text text-anchor="start" x="8" y="-1692.5" font-family="Helvetica,sans-Serif" font-size="10.00">+ _MAX_ROWS_PRINT</text>
<text text-anchor="start" x="8" y="-1681.5" font-family="Helvetica,sans-Serif" font-size="10.00">+ _MAX_COLS_PRINT</text>
<text text-anchor="start" x="8" y="-1670.5" font-family="Helvetica,sans-Serif" font-size="10.00"># _rows</text>
<text text-anchor="start" x="8" y="-1659.5" font-family="Helvetica,sans-Serif" font-size="10.00"># _cols</text>
<text text-anchor="start" x="8" y="-1648.5" font-family="Helvetica,sans-Serif" font-size="10.00"># _lock</text>
<text text-anchor="start" x="8" y="-1637.5" font-family="Helvetica,sans-Serif" font-size="10.00"># _inverseRowZero</text>
<text text-anchor="start" x="8" y="-1626.5" font-family="Helvetica,sans-Serif" font-size="10.00"># _inverse</text>
<polyline fill="none" stroke="black" points="0,-1619.5 129,-1619.5 "/>
<text text-anchor="start" x="8" y="-1607.5" font-family="Helvetica,sans-Serif" font-size="10.00">+ TypedMatrix()</text>
<text text-anchor="start" x="8" y="-1596.5" font-family="Helvetica,sans-Serif" font-size="10.00">+ clone()</text>
<text text-anchor="start" x="8" y="-1585.5" font-family="Helvetica,sans-Serif" font-size="10.00">+ cloneExtended()</text>
<text text-anchor="start" x="8" y="-1574.5" font-family="Helvetica,sans-Serif" font-size="10.00">+ decloneExtended()</text>
<text text-anchor="start" x="8" y="-1563.5" font-family="Helvetica,sans-Serif" font-size="10.00">+ compareToAbs()</text>
<text text-anchor="start" x="8" y="-1552.5" font-family="Helvetica,sans-Serif" font-size="10.00">+ isZero()</text>
<text text-anchor="start" x="8" y="-1541.5" font-family="Helvetica,sans-Serif" font-size="10.00">+ isOne()</text>
<text text-anchor="start" x="8" y="-1530.5" font-family="Helvetica,sans-Serif" font-size="10.00">+ getOne()</text>
<text text-anchor="start" x="8" y="-1519.5" font-family="Helvetica,sans-Serif" font-size="10.00">+ getZero()</text>
<text text-anchor="start" x="8" y="-1508.5" font-family="Helvetica,sans-Serif" font-size="10.00">+ inverse()</text>
<text text-anchor="start" x="8" y="-1497.5" font-family="Helvetica,sans-Serif" font-size="10.00">and 25 more...</text>
<text text-anchor="start" x="8" y="-1486.5" font-family="Helvetica,sans-Serif" font-size="10.00">+ toStringMult()</text>
<text text-anchor="start" x="8" y="-1475.5" font-family="Helvetica,sans-Serif" font-size="10.00">+ toStringAdd()</text>
<text text-anchor="start" x="8" y="-1464.5" font-family="Helvetica,sans-Serif" font-size="10.00">+ toString()</text>
<text text-anchor="start" x="8" y="-1453.5" font-family="Helvetica,sans-Serif" font-size="10.00"># toString()</text>
<text text-anchor="start" x="8" y="-1442.5" font-family="Helvetica,sans-Serif" font-size="10.00"># getNullMatrix()</text>
<text text-anchor="start" x="8" y="-1431.5" font-family="Helvetica,sans-Serif" font-size="10.00"># getZeroMatrix()</text>
<text text-anchor="start" x="8" y="-1420.5" font-family="Helvetica,sans-Serif" font-size="10.00"># getEmptyArray()</text>
<text text-anchor="start" x="8" y="-1409.5" font-family="Helvetica,sans-Serif" font-size="10.00"># inverseMatrixPrivately()</text>
<text text-anchor="start" x="8" y="-1398.5" font-family="Helvetica,sans-Serif" font-size="10.00"># devideRow()</text>
<text text-anchor="start" x="8" y="-1387.5" font-family="Helvetica,sans-Serif" font-size="10.00"># subtractRow()</text>
<text text-anchor="start" x="8" y="-1376.5" font-family="Helvetica,sans-Serif" font-size="10.00"># subtractRowFromRow()</text>
<text text-anchor="start" x="8" y="-1365.5" font-family="Helvetica,sans-Serif" font-size="10.00"># addRow()</text>
<text text-anchor="start" x="8" y="-1354.5" font-family="Helvetica,sans-Serif" font-size="10.00"># multiplyRow()</text>
<text text-anchor="start" x="8" y="-1343.5" font-family="Helvetica,sans-Serif" font-size="10.00">and 8 more...</text>
</a>
</g>
</g>
<!-- Node9&#45;&gt;Node8 -->
<g id="edge7" class="edge"><title>Node9&#45;&gt;Node8</title>
<path fill="none" stroke="midnightblue" d="M132.759,-1348.06C134.337,-1344 135.919,-1339.98 137.5,-1336 143.647,-1320.54 150.352,-1304.49 157.2,-1288.59"/>
<polygon fill="none" stroke="midnightblue" points="129.411,-1347.02 129.081,-1357.61 135.943,-1349.54 129.411,-1347.02"/>
</g>
<!-- Node10 -->
<g id="node9" class="node"><title>Node10</title>
<g id="a_node9"><a xlink:href="../../d6/d93/classorg_1_1msrg_1_1raccoon_1_1finitefields_1_1Tables.html" target="_top" xlink:title="{org.msrg.raccoon.finitefields.\lTables\n|+ LOG\l+ EXP\l|+ FFMulFast()\l+ FFInv()\l}">
<polygon fill="none" stroke="black" points="147,-1501.5 147,-1591.5 290,-1591.5 290,-1501.5 147,-1501.5"/>
<text text-anchor="start" x="155" y="-1579.5" font-family="Helvetica,sans-Serif" font-size="10.00">org.msrg.raccoon.finitefields.</text>
<text text-anchor="middle" x="218.5" y="-1568.5" font-family="Helvetica,sans-Serif" font-size="10.00">Tables</text>
<polyline fill="none" stroke="black" points="147,-1561.5 290,-1561.5 "/>
<text text-anchor="start" x="155" y="-1549.5" font-family="Helvetica,sans-Serif" font-size="10.00">+ LOG</text>
<text text-anchor="start" x="155" y="-1538.5" font-family="Helvetica,sans-Serif" font-size="10.00">+ EXP</text>
<polyline fill="none" stroke="black" points="147,-1531.5 290,-1531.5 "/>
<text text-anchor="start" x="155" y="-1519.5" font-family="Helvetica,sans-Serif" font-size="10.00">+ FFMulFast()</text>
<text text-anchor="start" x="155" y="-1508.5" font-family="Helvetica,sans-Serif" font-size="10.00">+ FFInv()</text>
</a>
</g>
</g>
<!-- Node10&#45;&gt;Node8 -->
<g id="edge8" class="edge"><title>Node10&#45;&gt;Node8</title>
<path fill="none" stroke="#404040" d="M218.657,-1501.1C218.833,-1453.21 219.141,-1374.7 219.5,-1307 219.511,-1304.95 219.522,-1302.89 219.533,-1300.81"/>
<polygon fill="none" stroke="#404040" points="219.533,-1300.81 215.567,-1294.78 219.6,-1288.81 223.567,-1294.83 219.533,-1300.81"/>
<text text-anchor="middle" x="239.5" y="-1310" font-family="Helvetica,sans-Serif" font-size="10.00"> #_tables</text>
</g>
<!-- Node11 -->
<g id="node10" class="node"><title>Node11</title>
<polygon fill="none" stroke="#bfbfbf" points="363,-1518 363,-1575 416,-1575 416,-1518 363,-1518"/>
<text text-anchor="middle" x="389.5" y="-1563" font-family="Helvetica,sans-Serif" font-size="10.00">Random</text>
<polyline fill="none" stroke="#bfbfbf" points="363,-1556 416,-1556 "/>
<text text-anchor="middle" x="389.5" y="-1544" font-family="Helvetica,sans-Serif" font-size="10.00"> </text>
<polyline fill="none" stroke="#bfbfbf" points="363,-1537 416,-1537 "/>
<text text-anchor="middle" x="389.5" y="-1525" font-family="Helvetica,sans-Serif" font-size="10.00"> </text>
</g>
<!-- Node11&#45;&gt;Node5 -->
<g id="edge10" class="edge"><title>Node11&#45;&gt;Node5</title>
<path fill="none" stroke="#404040" d="M385.585,-1517.83C376.844,-1453.56 356.5,-1289.14 356.5,-1151 356.5,-1151 356.5,-1151 356.5,-547.5 356.5,-521.238 354.349,-492.821 351.535,-466.875"/>
<polygon fill="none" stroke="#404040" points="351.512,-466.675 346.859,-461.167 350.154,-454.753 354.807,-460.261 351.512,-466.675"/>
<text text-anchor="middle" x="373.5" y="-800.5" font-family="Helvetica,sans-Serif" font-size="10.00"> ~_rand</text>
</g>
<!-- Node11&#45;&gt;Node8 -->
<g id="edge9" class="edge"><title>Node11&#45;&gt;Node8</title>
<path fill="none" stroke="#404040" d="M380.59,-1517.67C366.621,-1476.17 337.124,-1396.5 298.5,-1336 292.74,-1326.98 288.013,-1327.17 282.5,-1318 278.928,-1312.06 275.507,-1305.87 272.237,-1299.54"/>
<polygon fill="none" stroke="#404040" points="272.215,-1299.49 265.963,-1295.9 266.876,-1288.74 273.127,-1292.34 272.215,-1299.49"/>
<text text-anchor="middle" x="312.5" y="-1310" font-family="Helvetica,sans-Serif" font-size="10.00"> ~_RANDOM</text>
</g>
<!-- Node12 -->
<g id="node11" class="node"><title>Node12</title>
<g id="a_node11"><a xlink:href="../../d6/d6d/classorg_1_1msrg_1_1raccoon_1_1matrix_1_1bulk_1_1SliceMatrix.html" target="_top" xlink:title="{org.msrg.raccoon.matrix.bulk.\lSliceMatrix\n|+ _cols\l+ _MAX_COLS_PRINT\l# _b\l&#45; serialVersionUID\l|+ SliceMatrix()\l+ SliceMatrix()\l+ SliceMatrix()\l+ loadNoCopy()\l+ loadWithCopy()\l+ getContent()\l+ hasContent()\l+ clone()\l+ equals()\l+ getByte()\land 6 more...\l+ createRandomSliceMatrix()\l+ getEmptySliceMatrix()\l}">
<polygon fill="none" stroke="black" points="384.5,-1033.5 384.5,-1266.5 530.5,-1266.5 530.5,-1033.5 384.5,-1033.5"/>
<text text-anchor="start" x="392.5" y="-1254.5" font-family="Helvetica,sans-Serif" font-size="10.00">org.msrg.raccoon.matrix.bulk.</text>
<text text-anchor="middle" x="457.5" y="-1243.5" font-family="Helvetica,sans-Serif" font-size="10.00">SliceMatrix</text>
<polyline fill="none" stroke="black" points="384.5,-1236.5 530.5,-1236.5 "/>
<text text-anchor="start" x="392.5" y="-1224.5" font-family="Helvetica,sans-Serif" font-size="10.00">+ _cols</text>
<text text-anchor="start" x="392.5" y="-1213.5" font-family="Helvetica,sans-Serif" font-size="10.00">+ _MAX_COLS_PRINT</text>
<text text-anchor="start" x="392.5" y="-1202.5" font-family="Helvetica,sans-Serif" font-size="10.00"># _b</text>
<text text-anchor="start" x="392.5" y="-1191.5" font-family="Helvetica,sans-Serif" font-size="10.00">&#45; serialVersionUID</text>
<polyline fill="none" stroke="black" points="384.5,-1184.5 530.5,-1184.5 "/>
<text text-anchor="start" x="392.5" y="-1172.5" font-family="Helvetica,sans-Serif" font-size="10.00">+ SliceMatrix()</text>
<text text-anchor="start" x="392.5" y="-1161.5" font-family="Helvetica,sans-Serif" font-size="10.00">+ SliceMatrix()</text>
<text text-anchor="start" x="392.5" y="-1150.5" font-family="Helvetica,sans-Serif" font-size="10.00">+ SliceMatrix()</text>
<text text-anchor="start" x="392.5" y="-1139.5" font-family="Helvetica,sans-Serif" font-size="10.00">+ loadNoCopy()</text>
<text text-anchor="start" x="392.5" y="-1128.5" font-family="Helvetica,sans-Serif" font-size="10.00">+ loadWithCopy()</text>
<text text-anchor="start" x="392.5" y="-1117.5" font-family="Helvetica,sans-Serif" font-size="10.00">+ getContent()</text>
<text text-anchor="start" x="392.5" y="-1106.5" font-family="Helvetica,sans-Serif" font-size="10.00">+ hasContent()</text>
<text text-anchor="start" x="392.5" y="-1095.5" font-family="Helvetica,sans-Serif" font-size="10.00">+ clone()</text>
<text text-anchor="start" x="392.5" y="-1084.5" font-family="Helvetica,sans-Serif" font-size="10.00">+ equals()</text>
<text text-anchor="start" x="392.5" y="-1073.5" font-family="Helvetica,sans-Serif" font-size="10.00">+ getByte()</text>
<text text-anchor="start" x="392.5" y="-1062.5" font-family="Helvetica,sans-Serif" font-size="10.00">and 6 more...</text>
<text text-anchor="start" x="392.5" y="-1051.5" font-family="Helvetica,sans-Serif" font-size="10.00">+ createRandomSliceMatrix()</text>
<text text-anchor="start" x="392.5" y="-1040.5" font-family="Helvetica,sans-Serif" font-size="10.00">+ getEmptySliceMatrix()</text>
</a>
</g>
</g>
<!-- Node11&#45;&gt;Node12 -->
<g id="edge13" class="edge"><title>Node11&#45;&gt;Node12</title>
<path fill="none" stroke="#404040" d="M394.282,-1517.76C402.741,-1468.68 420.839,-1363.69 435.511,-1278.57"/>
<polygon fill="none" stroke="#404040" points="435.519,-1278.52 432.596,-1271.93 437.558,-1266.7 440.48,-1273.29 435.519,-1278.52"/>
<text text-anchor="middle" x="460" y="-1310" font-family="Helvetica,sans-Serif" font-size="10.00"> #_RANDOM</text>
</g>
<!-- Node14 -->
<g id="node13" class="node"><title>Node14</title>
<g id="a_node13"><a xlink:href="../../df/da4/classorg_1_1msrg_1_1raccoon_1_1matrix_1_1bulk_1_1BulkMatrix.html" target="_top" xlink:title="{org.msrg.raccoon.matrix.bulk.\lBulkMatrix\n|+ _size\l+ _cols\l+ _rows\l+ _SLICE_LENGTH\l+ _MAX_ROWS_PRINT\l+ _MAX_SLICES_PRINT\l&#45; serialVersionUID\l|+ BulkMatrix()\l+ BulkMatrix()\l+ BulkMatrix()\l+ createEmptyMatrix()\l+ createOneEmtpySlice()\l+ getSliceCount()\l+ slice()\l+ equals()\l+ getByte()\l+ getSize()\l+ add()\l+ toString()\l+ getSizeInByteBuffer()\l+ getContent()\l+ getSlices()\l+ createBulkMatixRandomData()\l+ createBulkMatixIncrementalData()\l# toString()\l}">
<polygon fill="none" stroke="black" points="482.5,-642.5 482.5,-963.5 656.5,-963.5 656.5,-642.5 482.5,-642.5"/>
<text text-anchor="start" x="490.5" y="-951.5" font-family="Helvetica,sans-Serif" font-size="10.00">org.msrg.raccoon.matrix.bulk.</text>
<text text-anchor="middle" x="569.5" y="-940.5" font-family="Helvetica,sans-Serif" font-size="10.00">BulkMatrix</text>
<polyline fill="none" stroke="black" points="482.5,-933.5 656.5,-933.5 "/>
<text text-anchor="start" x="490.5" y="-921.5" font-family="Helvetica,sans-Serif" font-size="10.00">+ _size</text>
<text text-anchor="start" x="490.5" y="-910.5" font-family="Helvetica,sans-Serif" font-size="10.00">+ _cols</text>
<text text-anchor="start" x="490.5" y="-899.5" font-family="Helvetica,sans-Serif" font-size="10.00">+ _rows</text>
<text text-anchor="start" x="490.5" y="-888.5" font-family="Helvetica,sans-Serif" font-size="10.00">+ _SLICE_LENGTH</text>
<text text-anchor="start" x="490.5" y="-877.5" font-family="Helvetica,sans-Serif" font-size="10.00">+ _MAX_ROWS_PRINT</text>
<text text-anchor="start" x="490.5" y="-866.5" font-family="Helvetica,sans-Serif" font-size="10.00">+ _MAX_SLICES_PRINT</text>
<text text-anchor="start" x="490.5" y="-855.5" font-family="Helvetica,sans-Serif" font-size="10.00">&#45; serialVersionUID</text>
<polyline fill="none" stroke="black" points="482.5,-848.5 656.5,-848.5 "/>
<text text-anchor="start" x="490.5" y="-836.5" font-family="Helvetica,sans-Serif" font-size="10.00">+ BulkMatrix()</text>
<text text-anchor="start" x="490.5" y="-825.5" font-family="Helvetica,sans-Serif" font-size="10.00">+ BulkMatrix()</text>
<text text-anchor="start" x="490.5" y="-814.5" font-family="Helvetica,sans-Serif" font-size="10.00">+ BulkMatrix()</text>
<text text-anchor="start" x="490.5" y="-803.5" font-family="Helvetica,sans-Serif" font-size="10.00">+ createEmptyMatrix()</text>
<text text-anchor="start" x="490.5" y="-792.5" font-family="Helvetica,sans-Serif" font-size="10.00">+ createOneEmtpySlice()</text>
<text text-anchor="start" x="490.5" y="-781.5" font-family="Helvetica,sans-Serif" font-size="10.00">+ getSliceCount()</text>
<text text-anchor="start" x="490.5" y="-770.5" font-family="Helvetica,sans-Serif" font-size="10.00">+ slice()</text>
<text text-anchor="start" x="490.5" y="-759.5" font-family="Helvetica,sans-Serif" font-size="10.00">+ equals()</text>
<text text-anchor="start" x="490.5" y="-748.5" font-family="Helvetica,sans-Serif" font-size="10.00">+ getByte()</text>
<text text-anchor="start" x="490.5" y="-737.5" font-family="Helvetica,sans-Serif" font-size="10.00">+ getSize()</text>
<text text-anchor="start" x="490.5" y="-726.5" font-family="Helvetica,sans-Serif" font-size="10.00">+ add()</text>
<text text-anchor="start" x="490.5" y="-715.5" font-family="Helvetica,sans-Serif" font-size="10.00">+ toString()</text>
<text text-anchor="start" x="490.5" y="-704.5" font-family="Helvetica,sans-Serif" font-size="10.00">+ getSizeInByteBuffer()</text>
<text text-anchor="start" x="490.5" y="-693.5" font-family="Helvetica,sans-Serif" font-size="10.00">+ getContent()</text>
<text text-anchor="start" x="490.5" y="-682.5" font-family="Helvetica,sans-Serif" font-size="10.00">+ getSlices()</text>
<text text-anchor="start" x="490.5" y="-671.5" font-family="Helvetica,sans-Serif" font-size="10.00">+ createBulkMatixRandomData()</text>
<text text-anchor="start" x="490.5" y="-660.5" font-family="Helvetica,sans-Serif" font-size="10.00">+ createBulkMatixIncrementalData()</text>
<text text-anchor="start" x="490.5" y="-649.5" font-family="Helvetica,sans-Serif" font-size="10.00"># toString()</text>
</a>
</g>
</g>
<!-- Node11&#45;&gt;Node14 -->
<g id="edge17" class="edge"><title>Node11&#45;&gt;Node14</title>
<path fill="none" stroke="#404040" d="M411.581,-1517.96C446.107,-1473.09 511.785,-1380.05 539.5,-1289 556.79,-1232.2 564.136,-1091.22 567.247,-975.808"/>
<polygon fill="none" stroke="#404040" points="567.25,-975.652 563.407,-969.55 567.561,-963.656 571.404,-969.758 567.25,-975.652"/>
<text text-anchor="middle" x="596" y="-1147.5" font-family="Helvetica,sans-Serif" font-size="10.00"> #_RANDOM</text>
</g>
<!-- Node12&#45;&gt;Node4 -->
<g id="edge11" class="edge"><title>Node12&#45;&gt;Node4</title>
<path fill="none" stroke="#404040" d="M455.991,-1033.22C455.244,-966.246 454.5,-880.37 454.5,-804 454.5,-804 454.5,-804 454.5,-375.5 454.5,-338.205 454.5,-296.564 454.5,-262.733"/>
<polygon fill="none" stroke="#404040" points="454.5,-262.646 450.5,-256.646 454.5,-250.646 458.5,-256.646 454.5,-262.646"/>
<text text-anchor="middle" x="492.5" y="-546" font-family="Helvetica,sans-Serif" font-size="10.00"> +_codedContent</text>
</g>
<!-- Node12&#45;&gt;Node14 -->
<g id="edge16" class="edge"><title>Node12&#45;&gt;Node14</title>
<path fill="none" stroke="#404040" d="M495.106,-1033.16C501.162,-1014.51 507.541,-994.856 513.913,-975.229"/>
<polygon fill="none" stroke="#404040" points="513.956,-975.096 512.004,-968.154 517.661,-963.683 519.613,-970.625 513.956,-975.096"/>
<text text-anchor="middle" x="530.5" y="-985" font-family="Helvetica,sans-Serif" font-size="10.00"> #_slices</text>
</g>
<!-- Node13 -->
<g id="node12" class="node"><title>Node13</title>
<polygon fill="none" stroke="#bfbfbf" points="598,-1518 598,-1575 665,-1575 665,-1518 598,-1518"/>
<text text-anchor="middle" x="631.5" y="-1563" font-family="Helvetica,sans-Serif" font-size="10.00">Serializable</text>
<polyline fill="none" stroke="#bfbfbf" points="598,-1556 665,-1556 "/>
<text text-anchor="middle" x="631.5" y="-1544" font-family="Helvetica,sans-Serif" font-size="10.00"> </text>
<polyline fill="none" stroke="#bfbfbf" points="598,-1537 665,-1537 "/>
<text text-anchor="middle" x="631.5" y="-1525" font-family="Helvetica,sans-Serif" font-size="10.00"> </text>
</g>
<!-- Node13&#45;&gt;Node12 -->
<g id="edge12" class="edge"><title>Node13&#45;&gt;Node12</title>
<path fill="none" stroke="midnightblue" d="M615.16,-1508.45C591.006,-1453.69 544.726,-1348.76 508.529,-1266.7"/>
<polygon fill="none" stroke="midnightblue" points="612.027,-1510.02 619.265,-1517.76 618.431,-1507.2 612.027,-1510.02"/>
</g>
<!-- Node13&#45;&gt;Node14 -->
<g id="edge15" class="edge"><title>Node13&#45;&gt;Node14</title>
<path fill="none" stroke="midnightblue" d="M634.934,-1507.75C642.139,-1420 656.079,-1195.69 629.5,-1011 627.261,-995.445 624.142,-979.423 620.492,-963.504"/>
<polygon fill="none" stroke="midnightblue" points="631.442,-1507.51 634.092,-1517.76 638.417,-1508.09 631.442,-1507.51"/>
</g>
<!-- Node14&#45;&gt;Node2 -->
<g id="edge14" class="edge"><title>Node14&#45;&gt;Node2</title>
<path fill="none" stroke="#404040" d="M564.559,-642.4C563.93,-611.578 563.5,-579.537 563.5,-549.5 563.5,-549.5 563.5,-549.5 563.5,-193.5 563.5,-157.69 542.371,-124.918 518.718,-99.4498"/>
<polygon fill="none" stroke="#404040" points="518.635,-99.364 511.586,-97.8445 510.277,-90.7531 517.326,-92.2726 518.635,-99.364"/>
<text text-anchor="middle" x="577.5" y="-374" font-family="Helvetica,sans-Serif" font-size="10.00"> ~_bm</text>
</g>
</g>
</svg>
        <g id="navigator" transform="translate(0 0)" fill="#404254">
                <rect fill="#f2f5e9" fill-opacity="0.5" stroke="#606060" stroke-width=".5" x="0" y="0" width="60" height="60"/>
                <use id="zoomplus" xlink:href="#zoomPlus" x="17" y="9" onmousedown="handleZoom(evt,'in')"/>
                <use id="zoomminus" xlink:href="#zoomMin" x="42" y="9" onmousedown="handleZoom(evt,'out')"/>
                <use id="reset" xlink:href="#resetDef" x="30" y="36" onmousedown="handleReset()"/>
                <g id="arrowUp" xlink:href="#dirArrow" transform="translate(30 24)" onmousedown="handlePan(0,-1)">
                  <use xlink:href="#rim" fill="#404040">
                        <set attributeName="fill" to="#808080" begin="arrowUp.mouseover" end="arrowUp.mouseout"/>
                  </use>
                  <path fill="none" stroke="white" stroke-width="1.5" d="M0,-3.0v7 M-2.5,-0.5L0,-3.0L2.5,-0.5"/>
                </g>
                <g id="arrowRight" xlink:href="#dirArrow" transform="rotate(90) translate(36 -43)" onmousedown="handlePan(1,0)">
                  <use xlink:href="#rim" fill="#404040">
                        <set attributeName="fill" to="#808080" begin="arrowRight.mouseover" end="arrowRight.mouseout"/>
                  </use>
                  <path fill="none" stroke="white" stroke-width="1.5" d="M0,-3.0v7 M-2.5,-0.5L0,-3.0L2.5,-0.5"/>
                </g>
                <g id="arrowDown" xlink:href="#dirArrow" transform="rotate(180) translate(-30 -48)" onmousedown="handlePan(0,1)">
                  <use xlink:href="#rim" fill="#404040">
                        <set attributeName="fill" to="#808080" begin="arrowDown.mouseover" end="arrowDown.mouseout"/>
                  </use>
                  <path fill="none" stroke="white" stroke-width="1.5" d="M0,-3.0v7 M-2.5,-0.5L0,-3.0L2.5,-0.5"/>
                </g>
                <g id="arrowLeft" xlink:href="#dirArrow" transform="rotate(270) translate(-36 17)" onmousedown="handlePan(-1,0)">
                  <use xlink:href="#rim" fill="#404040">
                        <set attributeName="fill" to="#808080" begin="arrowLeft.mouseover" end="arrowLeft.mouseout"/>
                  </use>
                  <path fill="none" stroke="white" stroke-width="1.5" d="M0,-3.0v7 M-2.5,-0.5L0,-3.0L2.5,-0.5"/>
                </g>
        </g>
        <svg viewBox="0 0 15 15" width="100%" height="30px" preserveAspectRatio="xMaxYMin meet">
         <g id="arrow_out" transform="scale(0.3 0.3)">
          <a xlink:href="classorg_1_1msrg_1_1raccoon_1_1CodedPieceTest__coll__graph_org.svg" target="_base">
           <rect id="button" ry="5" rx="5" y="6" x="6" height="38" width="38"
                fill="#f2f5e9" fill-opacity="0.5" stroke="#606060" stroke-width="1.0"/>
           <path id="arrow"
             d="M 11.500037,31.436501 C 11.940474,20.09759 22.043105,11.32322 32.158766,21.979434 L 37.068811,17.246167 C 37.068811,17.246167 37.088388,32 37.088388,32 L 22.160133,31.978069 C 22.160133,31.978069 26.997745,27.140456 26.997745,27.140456 C 18.528582,18.264221 13.291696,25.230495 11.500037,31.436501 z"
             style="fill:#404040;"/>
          </a>
         </g>
        </svg>
</svg>
