<?xml version="1.0" encoding="UTF-8" standalone="no"?>
<!DOCTYPE svg PUBLIC "-//W3C//DTD SVG 1.1//EN"
 "http://www.w3.org/Graphics/SVG/1.1/DTD/svg11.dtd">
<!-- Generated by graphviz version 2.38.0 (20140413.2041)
 -->
<!-- Title: org.msrg.raccoon.engine.CodingEngineImpl.processCodingEvent Pages: 1 -->
<!--zoomable 413 -->
<svg id="main" version="1.1" xmlns="http://www.w3.org/2000/svg" xmlns:xlink="http://www.w3.org/1999/xlink" xml:space="preserve" onload="init(evt)">
<style type="text/css"><![CDATA[
.edge:hover path { stroke: red; }
.edge:hover polygon { stroke: red; fill: red; }
]]></style>
<script type="text/javascript"><![CDATA[
var edges = document.getElementsByTagName('g');
if (edges && edges.length) {
  for (var i=0;i<edges.length;i++) {
    if (edges[i].id.substr(0,4)=='edge') {
      edges[i].setAttribute('class','edge');
    }
  }
}
]]></script>
        <defs>
                <circle id="rim" cx="0" cy="0" r="7"/>
                <circle id="rim2" cx="0" cy="0" r="3.5"/>
                <g id="zoomPlus">
                        <use xlink:href="#rim" fill="#404040">
                                <set attributeName="fill" to="#808080" begin="zoomplus.mouseover" end="zoomplus.mouseout"/>
                        </use>
                        <path d="M-4,0h8M0,-4v8" fill="none" stroke="white" stroke-width="1.5" pointer-events="none"/>
                </g>
                <g id="zoomMin">
                        <use xlink:href="#rim" fill="#404040">
                                <set attributeName="fill" to="#808080" begin="zoomminus.mouseover" end="zoomminus.mouseout"/>
                        </use>
                        <path d="M-4,0h8" fill="none" stroke="white" stroke-width="1.5" pointer-events="none"/>
                </g>
                <g id="dirArrow">
                        <path fill="none" stroke="white" stroke-width="1.5" d="M0,-3.0v7 M-2.5,-0.5L0,-3.0L2.5,-0.5"/>
                </g>
               <g id="resetDef">
                       <use xlink:href="#rim2" fill="#404040">
                               <set attributeName="fill" to="#808080" begin="reset.mouseover" end="reset.mouseout"/>
                       </use>
               </g>
        </defs>

<script type="text/javascript">
var viewWidth = 608;
var viewHeight = 413;
var sectionId = 'dynsection-0';
</script>
<script xlink:href="../../svgpan.js"/>
<svg id="graph" class="graph">
<g id="viewport">
<title>org.msrg.raccoon.engine.CodingEngineImpl.processCodingEvent</title>
<!-- Node0 -->
<g id="node1" class="node"><title>Node0</title>
<polygon fill="#bfbfbf" stroke="black" points="0,-186.5 0,-216.5 190,-216.5 190,-186.5 0,-186.5"/>
<text text-anchor="start" x="8" y="-204.5" font-family="Helvetica,sans-Serif" font-size="10.00">org.msrg.raccoon.engine.</text>
<text text-anchor="middle" x="95" y="-193.5" font-family="Helvetica,sans-Serif" font-size="10.00">CodingEngineImpl.processCodingEvent</text>
</g>
<!-- Node1 -->
<g id="node2" class="node"><title>Node1</title>
<g id="a_node2"><a xlink:href="../../d6/d58/interfaceorg_1_1msrg_1_1raccoon_1_1engine_1_1ICodingListener_a3a983a9848df60f8b6a02573acf3a993.html#a3a983a9848df60f8b6a02573acf3a993" target="_top" xlink:title="org.msrg.raccoon.engine.\lICodingListener.codingFailed">
<polygon fill="none" stroke="black" points="452,-374.5 452,-404.5 595,-404.5 595,-374.5 452,-374.5"/>
<text text-anchor="start" x="460" y="-392.5" font-family="Helvetica,sans-Serif" font-size="10.00">org.msrg.raccoon.engine.</text>
<text text-anchor="middle" x="523.5" y="-381.5" font-family="Helvetica,sans-Serif" font-size="10.00">ICodingListener.codingFailed</text>
</a>
</g>
</g>
<!-- Node0&#45;&gt;Node1 -->
<g id="edge1" class="edge"><title>Node0&#45;&gt;Node1</title>
<path fill="none" stroke="midnightblue" d="M103.962,-216.734C121.332,-248.241 165.938,-320.304 226,-352.5 292.48,-388.136 379.094,-395.227 441.524,-394.703"/>
<polygon fill="midnightblue" stroke="midnightblue" points="441.772,-398.2 451.718,-394.548 441.666,-391.201 441.772,-398.2"/>
</g>
<!-- Node2 -->
<g id="node3" class="node"><title>Node2</title>
<g id="a_node3"><a xlink:href="../../d6/d58/interfaceorg_1_1msrg_1_1raccoon_1_1engine_1_1ICodingListener_a3404a752dcaceaab52ed6d2effae7aca.html#a3404a752dcaceaab52ed6d2effae7aca" target="_top" xlink:title="org.msrg.raccoon.engine.\lICodingListener.codingFinished">
<polygon fill="none" stroke="black" points="447,-325.5 447,-355.5 600,-355.5 600,-325.5 447,-325.5"/>
<text text-anchor="start" x="455" y="-343.5" font-family="Helvetica,sans-Serif" font-size="10.00">org.msrg.raccoon.engine.</text>
<text text-anchor="middle" x="523.5" y="-332.5" font-family="Helvetica,sans-Serif" font-size="10.00">ICodingListener.codingFinished</text>
</a>
</g>
</g>
<!-- Node0&#45;&gt;Node2 -->
<g id="edge2" class="edge"><title>Node0&#45;&gt;Node2</title>
<path fill="none" stroke="midnightblue" d="M106.341,-216.731C125.946,-244.134 171.475,-301.072 226,-324.5 292.626,-353.127 375.556,-355.125 436.755,-351.115"/>
<polygon fill="midnightblue" stroke="midnightblue" points="437.045,-354.603 446.768,-350.393 436.542,-347.621 437.045,-354.603"/>
</g>
<!-- Node3 -->
<g id="node4" class="node"><title>Node3</title>
<g id="a_node4"><a xlink:href="../../d6/d58/interfaceorg_1_1msrg_1_1raccoon_1_1engine_1_1ICodingListener_a6069e7344b79cdfc36755624a8cff03b.html#a6069e7344b79cdfc36755624a8cff03b" target="_top" xlink:title="org.msrg.raccoon.engine.\lICodingListener.codingStarted">
<polygon fill="none" stroke="black" points="244.5,-235.5 244.5,-265.5 392.5,-265.5 392.5,-235.5 244.5,-235.5"/>
<text text-anchor="start" x="252.5" y="-253.5" font-family="Helvetica,sans-Serif" font-size="10.00">org.msrg.raccoon.engine.</text>
<text text-anchor="middle" x="318.5" y="-242.5" font-family="Helvetica,sans-Serif" font-size="10.00">ICodingListener.codingStarted</text>
</a>
</g>
</g>
<!-- Node0&#45;&gt;Node3 -->
<g id="edge3" class="edge"><title>Node0&#45;&gt;Node3</title>
<path fill="none" stroke="midnightblue" d="M163.963,-216.535C187.881,-221.826 214.947,-227.813 239.619,-233.271"/>
<polygon fill="midnightblue" stroke="midnightblue" points="239.146,-236.751 249.666,-235.494 240.658,-229.916 239.146,-236.751"/>
</g>
<!-- Node4 -->
<g id="node5" class="node"><title>Node4</title>
<g id="a_node5"><a xlink:href="../../d9/d22/classorg_1_1msrg_1_1raccoon_1_1engine_1_1task_1_1CodingTask_a99d911f2477bc74953b24f332d95b6a3.html#a99d911f2477bc74953b24f332d95b6a3" target="_top" xlink:title="org.msrg.raccoon.engine.task.\lCodingTask.getStatus">
<polygon fill="none" stroke="black" points="244,-186.5 244,-216.5 393,-216.5 393,-186.5 244,-186.5"/>
<text text-anchor="start" x="252" y="-204.5" font-family="Helvetica,sans-Serif" font-size="10.00">org.msrg.raccoon.engine.task.</text>
<text text-anchor="middle" x="318.5" y="-193.5" font-family="Helvetica,sans-Serif" font-size="10.00">CodingTask.getStatus</text>
</a>
</g>
</g>
<!-- Node0&#45;&gt;Node4 -->
<g id="edge4" class="edge"><title>Node0&#45;&gt;Node4</title>
<path fill="none" stroke="midnightblue" d="M190.257,-201.5C204.659,-201.5 219.442,-201.5 233.601,-201.5"/>
<polygon fill="midnightblue" stroke="midnightblue" points="233.787,-205 243.787,-201.5 233.787,-198 233.787,-205"/>
</g>
<!-- Node5 -->
<g id="node6" class="node"><title>Node5</title>
<g id="a_node6"><a xlink:href="../../db/d98/classorg_1_1msrg_1_1raccoon_1_1engine_1_1CodingEngine_a1396555d04800f11479184ccff358804.html#a1396555d04800f11479184ccff358804" target="_top" xlink:title="org.msrg.raccoon.engine.\lCodingEngine.notifyListener">
<polygon fill="none" stroke="black" points="249,-284.5 249,-314.5 388,-314.5 388,-284.5 249,-284.5"/>
<text text-anchor="start" x="257" y="-302.5" font-family="Helvetica,sans-Serif" font-size="10.00">org.msrg.raccoon.engine.</text>
<text text-anchor="middle" x="318.5" y="-291.5" font-family="Helvetica,sans-Serif" font-size="10.00">CodingEngine.notifyListener</text>
</a>
</g>
</g>
<!-- Node0&#45;&gt;Node5 -->
<g id="edge5" class="edge"><title>Node0&#45;&gt;Node5</title>
<path fill="none" stroke="midnightblue" d="M119.084,-216.767C144.418,-232.964 186.724,-258.393 226,-274.5 231.899,-276.919 238.107,-279.179 244.395,-281.271"/>
<polygon fill="midnightblue" stroke="midnightblue" points="243.72,-284.729 254.31,-284.421 245.839,-278.057 243.72,-284.729"/>
</g>
<!-- Node8 -->
<g id="node9" class="node"><title>Node8</title>
<g id="a_node9"><a xlink:href="../../db/d98/classorg_1_1msrg_1_1raccoon_1_1engine_1_1CodingEngine_a4bf1e9a2edabe5cdd38d1f544818221b.html#a4bf1e9a2edabe5cdd38d1f544818221b" target="_top" xlink:title="org.msrg.raccoon.engine.\lCodingEngine.scheduleTask">
<polygon fill="none" stroke="black" points="453,-98.5 453,-128.5 594,-128.5 594,-98.5 453,-98.5"/>
<text text-anchor="start" x="461" y="-116.5" font-family="Helvetica,sans-Serif" font-size="10.00">org.msrg.raccoon.engine.</text>
<text text-anchor="middle" x="523.5" y="-105.5" font-family="Helvetica,sans-Serif" font-size="10.00">CodingEngine.scheduleTask</text>
</a>
</g>
</g>
<!-- Node0&#45;&gt;Node8 -->
<g id="edge10" class="edge"><title>Node0&#45;&gt;Node8</title>
<path fill="none" stroke="midnightblue" d="M171.152,-186.485C235.002,-173.667 329.067,-154.641 411,-137.5 421.461,-135.311 432.468,-132.979 443.325,-130.66"/>
<polygon fill="midnightblue" stroke="midnightblue" points="444.188,-134.055 453.234,-128.539 442.723,-127.21 444.188,-134.055"/>
</g>
<!-- Node9 -->
<g id="node10" class="node"><title>Node9</title>
<g id="a_node10"><a xlink:href="../../d2/d9a/classorg_1_1msrg_1_1raccoon_1_1engine_1_1CodingEngineImpl_aa27d75eccd5ce6550b9913c5418e5ed8.html#aa27d75eccd5ce6550b9913c5418e5ed8" target="_top" xlink:title="org.msrg.raccoon.engine.\lCodingEngineImpl.threadAdded">
<polygon fill="none" stroke="black" points="241.5,-98.5 241.5,-128.5 395.5,-128.5 395.5,-98.5 241.5,-98.5"/>
<text text-anchor="start" x="249.5" y="-116.5" font-family="Helvetica,sans-Serif" font-size="10.00">org.msrg.raccoon.engine.</text>
<text text-anchor="middle" x="318.5" y="-105.5" font-family="Helvetica,sans-Serif" font-size="10.00">CodingEngineImpl.threadAdded</text>
</a>
</g>
</g>
<!-- Node0&#45;&gt;Node9 -->
<g id="edge11" class="edge"><title>Node0&#45;&gt;Node9</title>
<path fill="none" stroke="midnightblue" d="M127.405,-186.396C153.5,-174.112 191.76,-156.711 226,-143.5 236.495,-139.451 247.794,-135.457 258.75,-131.77"/>
<polygon fill="midnightblue" stroke="midnightblue" points="259.872,-135.086 268.261,-128.616 257.668,-128.442 259.872,-135.086"/>
</g>
<!-- Node10 -->
<g id="node11" class="node"><title>Node10</title>
<g id="a_node11"><a xlink:href="../../d2/d9a/classorg_1_1msrg_1_1raccoon_1_1engine_1_1CodingEngineImpl_a0543d3f72bff11e6815d2935711171d1.html#a0543d3f72bff11e6815d2935711171d1" target="_top" xlink:title="org.msrg.raccoon.engine.\lCodingEngineImpl.threadBecameBusy">
<polygon fill="none" stroke="black" points="226,-0.5 226,-30.5 411,-30.5 411,-0.5 226,-0.5"/>
<text text-anchor="start" x="234" y="-18.5" font-family="Helvetica,sans-Serif" font-size="10.00">org.msrg.raccoon.engine.</text>
<text text-anchor="middle" x="318.5" y="-7.5" font-family="Helvetica,sans-Serif" font-size="10.00">CodingEngineImpl.threadBecameBusy</text>
</a>
</g>
</g>
<!-- Node0&#45;&gt;Node10 -->
<g id="edge13" class="edge"><title>Node0&#45;&gt;Node10</title>
<path fill="none" stroke="midnightblue" d="M103.771,-186.306C121.092,-154.019 166.102,-78.3622 226,-39.5 228.454,-37.9078 231.01,-36.421 233.641,-35.0326"/>
<polygon fill="midnightblue" stroke="midnightblue" points="235.296,-38.1213 242.839,-30.6812 232.303,-31.7937 235.296,-38.1213"/>
</g>
<!-- Node11 -->
<g id="node12" class="node"><title>Node11</title>
<g id="a_node12"><a xlink:href="../../d2/d9a/classorg_1_1msrg_1_1raccoon_1_1engine_1_1CodingEngineImpl_a80c65118b8ac647ac6393bd77625088b.html#a80c65118b8ac647ac6393bd77625088b" target="_top" xlink:title="org.msrg.raccoon.engine.\lCodingEngineImpl.threadBecameFree">
<polygon fill="none" stroke="black" points="227.5,-49.5 227.5,-79.5 409.5,-79.5 409.5,-49.5 227.5,-49.5"/>
<text text-anchor="start" x="235.5" y="-67.5" font-family="Helvetica,sans-Serif" font-size="10.00">org.msrg.raccoon.engine.</text>
<text text-anchor="middle" x="318.5" y="-56.5" font-family="Helvetica,sans-Serif" font-size="10.00">CodingEngineImpl.threadBecameFree</text>
</a>
</g>
</g>
<!-- Node0&#45;&gt;Node11 -->
<g id="edge14" class="edge"><title>Node0&#45;&gt;Node11</title>
<path fill="none" stroke="midnightblue" d="M109.164,-186.209C130.977,-161.847 177.084,-114.342 226,-88.5 229.676,-86.5582 233.519,-84.7657 237.461,-83.112"/>
<polygon fill="midnightblue" stroke="midnightblue" points="238.739,-86.3703 246.805,-79.5004 236.216,-79.841 238.739,-86.3703"/>
</g>
<!-- Node5&#45;&gt;Node1 -->
<g id="edge6" class="edge"><title>Node5&#45;&gt;Node1</title>
<path fill="none" stroke="midnightblue" d="M345.735,-314.758C371.083,-329.093 410.846,-350.524 447,-365.5 451.646,-367.425 456.505,-369.289 461.421,-371.071"/>
<polygon fill="midnightblue" stroke="midnightblue" points="460.31,-374.39 470.905,-374.391 462.623,-367.784 460.31,-374.39"/>
</g>
<!-- Node5&#45;&gt;Node2 -->
<g id="edge7" class="edge"><title>Node5&#45;&gt;Node2</title>
<path fill="none" stroke="midnightblue" d="M388.227,-313.381C404.134,-316.594 421.244,-320.049 437.747,-323.382"/>
<polygon fill="midnightblue" stroke="midnightblue" points="437.433,-326.89 447.928,-325.439 438.819,-320.028 437.433,-326.89"/>
</g>
<!-- Node6 -->
<g id="node7" class="node"><title>Node6</title>
<g id="a_node7"><a xlink:href="../../d9/d22/classorg_1_1msrg_1_1raccoon_1_1engine_1_1task_1_1CodingTask_ae73495361c978756abf28bfd65138fb3.html#ae73495361c978756abf28bfd65138fb3" target="_top" xlink:title="org.msrg.raccoon.engine.task.\lCodingTask.isFailed">
<polygon fill="none" stroke="black" points="449,-227.5 449,-257.5 598,-257.5 598,-227.5 449,-227.5"/>
<text text-anchor="start" x="457" y="-245.5" font-family="Helvetica,sans-Serif" font-size="10.00">org.msrg.raccoon.engine.task.</text>
<text text-anchor="middle" x="523.5" y="-234.5" font-family="Helvetica,sans-Serif" font-size="10.00">CodingTask.isFailed</text>
</a>
</g>
</g>
<!-- Node5&#45;&gt;Node6 -->
<g id="edge8" class="edge"><title>Node5&#45;&gt;Node6</title>
<path fill="none" stroke="midnightblue" d="M375.177,-284.41C387.01,-281.168 399.424,-277.742 411,-274.5 427.14,-269.979 444.57,-265.016 460.746,-260.375"/>
<polygon fill="midnightblue" stroke="midnightblue" points="461.988,-263.66 470.633,-257.534 460.055,-256.932 461.988,-263.66"/>
</g>
<!-- Node7 -->
<g id="node8" class="node"><title>Node7</title>
<g id="a_node8"><a xlink:href="../../d9/d22/classorg_1_1msrg_1_1raccoon_1_1engine_1_1task_1_1CodingTask_a0104d5d4c38b3b0d8cb60436798287c1.html#a0104d5d4c38b3b0d8cb60436798287c1" target="_top" xlink:title="org.msrg.raccoon.engine.task.\lCodingTask.isFinished">
<polygon fill="none" stroke="black" points="449,-276.5 449,-306.5 598,-306.5 598,-276.5 449,-276.5"/>
<text text-anchor="start" x="457" y="-294.5" font-family="Helvetica,sans-Serif" font-size="10.00">org.msrg.raccoon.engine.task.</text>
<text text-anchor="middle" x="523.5" y="-283.5" font-family="Helvetica,sans-Serif" font-size="10.00">CodingTask.isFinished</text>
</a>
</g>
</g>
<!-- Node5&#45;&gt;Node7 -->
<g id="edge9" class="edge"><title>Node5&#45;&gt;Node7</title>
<path fill="none" stroke="midnightblue" d="M388.227,-296.792C404.42,-296.153 421.859,-295.466 438.636,-294.805"/>
<polygon fill="midnightblue" stroke="midnightblue" points="439.125,-298.289 448.979,-294.397 438.849,-291.294 439.125,-298.289"/>
</g>
<!-- Node9&#45;&gt;Node8 -->
<g id="edge12" class="edge"><title>Node9&#45;&gt;Node8</title>
<path fill="none" stroke="midnightblue" d="M395.667,-113.5C411.079,-113.5 427.324,-113.5 442.852,-113.5"/>
<polygon fill="midnightblue" stroke="midnightblue" points="442.937,-117 452.937,-113.5 442.937,-110 442.937,-117"/>
</g>
<!-- Node11&#45;&gt;Node8 -->
<g id="edge15" class="edge"><title>Node11&#45;&gt;Node8</title>
<path fill="none" stroke="midnightblue" d="M381.786,-79.5346C403.513,-84.7789 428.071,-90.7069 450.52,-96.1255"/>
<polygon fill="midnightblue" stroke="midnightblue" points="449.789,-99.5496 460.332,-98.4938 451.432,-92.745 449.789,-99.5496"/>
</g>
</g>
</svg>
        <g id="navigator" transform="translate(0 0)" fill="#404254">
                <rect fill="#f2f5e9" fill-opacity="0.5" stroke="#606060" stroke-width=".5" x="0" y="0" width="60" height="60"/>
                <use id="zoomplus" xlink:href="#zoomPlus" x="17" y="9" onmousedown="handleZoom(evt,'in')"/>
                <use id="zoomminus" xlink:href="#zoomMin" x="42" y="9" onmousedown="handleZoom(evt,'out')"/>
                <use id="reset" xlink:href="#resetDef" x="30" y="36" onmousedown="handleReset()"/>
                <g id="arrowUp" xlink:href="#dirArrow" transform="translate(30 24)" onmousedown="handlePan(0,-1)">
                  <use xlink:href="#rim" fill="#404040">
                        <set attributeName="fill" to="#808080" begin="arrowUp.mouseover" end="arrowUp.mouseout"/>
                  </use>
                  <path fill="none" stroke="white" stroke-width="1.5" d="M0,-3.0v7 M-2.5,-0.5L0,-3.0L2.5,-0.5"/>
                </g>
                <g id="arrowRight" xlink:href="#dirArrow" transform="rotate(90) translate(36 -43)" onmousedown="handlePan(1,0)">
                  <use xlink:href="#rim" fill="#404040">
                        <set attributeName="fill" to="#808080" begin="arrowRight.mouseover" end="arrowRight.mouseout"/>
                  </use>
                  <path fill="none" stroke="white" stroke-width="1.5" d="M0,-3.0v7 M-2.5,-0.5L0,-3.0L2.5,-0.5"/>
                </g>
                <g id="arrowDown" xlink:href="#dirArrow" transform="rotate(180) translate(-30 -48)" onmousedown="handlePan(0,1)">
                  <use xlink:href="#rim" fill="#404040">
                        <set attributeName="fill" to="#808080" begin="arrowDown.mouseover" end="arrowDown.mouseout"/>
                  </use>
                  <path fill="none" stroke="white" stroke-width="1.5" d="M0,-3.0v7 M-2.5,-0.5L0,-3.0L2.5,-0.5"/>
                </g>
                <g id="arrowLeft" xlink:href="#dirArrow" transform="rotate(270) translate(-36 17)" onmousedown="handlePan(-1,0)">
                  <use xlink:href="#rim" fill="#404040">
                        <set attributeName="fill" to="#808080" begin="arrowLeft.mouseover" end="arrowLeft.mouseout"/>
                  </use>
                  <path fill="none" stroke="white" stroke-width="1.5" d="M0,-3.0v7 M-2.5,-0.5L0,-3.0L2.5,-0.5"/>
                </g>
        </g>
        <svg viewBox="0 0 15 15" width="100%" height="30px" preserveAspectRatio="xMaxYMin meet">
         <g id="arrow_out" transform="scale(0.3 0.3)">
          <a xlink:href="classorg_1_1msrg_1_1raccoon_1_1engine_1_1CodingEngineImpl_a0398a605548bebf4995dd161d4785b45_a0398a605548bebf4995dd161d4785b45_cgraph_org.svg" target="_base">
           <rect id="button" ry="5" rx="5" y="6" x="6" height="38" width="38"
                fill="#f2f5e9" fill-opacity="0.5" stroke="#606060" stroke-width="1.0"/>
           <path id="arrow"
             d="M 11.500037,31.436501 C 11.940474,20.09759 22.043105,11.32322 32.158766,21.979434 L 37.068811,17.246167 C 37.068811,17.246167 37.088388,32 37.088388,32 L 22.160133,31.978069 C 22.160133,31.978069 26.997745,27.140456 26.997745,27.140456 C 18.528582,18.264221 13.291696,25.230495 11.500037,31.436501 z"
             style="fill:#404040;"/>
          </a>
         </g>
        </svg>
</svg>
