<?xml version="1.0" encoding="UTF-8" standalone="no"?>
<!DOCTYPE svg PUBLIC "-//W3C//DTD SVG 1.1//EN"
 "http://www.w3.org/Graphics/SVG/1.1/DTD/svg11.dtd">
<!-- Generated by graphviz version 2.38.0 (20140413.2041)
 -->
<!-- Title: org.msrg.raccoon.engine.CodingEngineImpl.decode Pages: 1 -->
<svg width="564pt" height="88pt"
 viewBox="0.00 0.00 564.00 88.00" xmlns="http://www.w3.org/2000/svg" xmlns:xlink="http://www.w3.org/1999/xlink">
<g id="graph0" class="graph" transform="scale(1 1) rotate(0) translate(4 84)">
<title>org.msrg.raccoon.engine.CodingEngineImpl.decode</title>
<!-- Node1 -->
<g id="node1" class="node"><title>Node1</title>
<polygon fill="#bfbfbf" stroke="black" points="5.68434e-14,-24.5 5.68434e-14,-54.5 131,-54.5 131,-24.5 5.68434e-14,-24.5"/>
<text text-anchor="start" x="8" y="-42.5" font-family="Helvetica,sans-Serif" font-size="10.00">org.msrg.raccoon.engine.</text>
<text text-anchor="middle" x="65.5" y="-31.5" font-family="Helvetica,sans-Serif" font-size="10.00">CodingEngineImpl.decode</text>
</g>
<!-- Node2 -->
<g id="node2" class="node"><title>Node2</title>
<g id="a_node2"><a xlink:href="../../db/d98/classorg_1_1msrg_1_1raccoon_1_1engine_1_1CodingEngine_a3f229e36767db9f7cd2ec62919f828e3.html#a3f229e36767db9f7cd2ec62919f828e3" target="_top" xlink:title="org.msrg.raccoon.engine.\lCodingEngine.addCodingTaskEngineEvent">
<polygon fill="none" stroke="black" points="167,-49.5 167,-79.5 371,-79.5 371,-49.5 167,-49.5"/>
<text text-anchor="start" x="175" y="-67.5" font-family="Helvetica,sans-Serif" font-size="10.00">org.msrg.raccoon.engine.</text>
<text text-anchor="middle" x="269" y="-56.5" font-family="Helvetica,sans-Serif" font-size="10.00">CodingEngine.addCodingTaskEngineEvent</text>
</a>
</g>
</g>
<!-- Node1&#45;&gt;Node2 -->
<g id="edge1" class="edge"><title>Node1&#45;&gt;Node2</title>
<path fill="none" stroke="midnightblue" d="M131.087,-47.5133C139.367,-48.5406 148.023,-49.6145 156.786,-50.7017"/>
<polygon fill="midnightblue" stroke="midnightblue" points="156.355,-54.175 166.71,-51.933 157.217,-47.2283 156.355,-54.175"/>
</g>
<!-- Node3 -->
<g id="node3" class="node"><title>Node3</title>
<g id="a_node3"><a xlink:href="../../d5/d15/classorg_1_1msrg_1_1raccoon_1_1engine_1_1task_1_1CodingId_a6ba7d662d6e68c8ae2c6d59bdb84aa4d.html#a6ba7d662d6e68c8ae2c6d59bdb84aa4d" target="_top" xlink:title="org.msrg.raccoon.engine.task.\lCodingId.getNewCodingId">
<polygon fill="none" stroke="black" points="194.5,-0.5 194.5,-30.5 343.5,-30.5 343.5,-0.5 194.5,-0.5"/>
<text text-anchor="start" x="202.5" y="-18.5" font-family="Helvetica,sans-Serif" font-size="10.00">org.msrg.raccoon.engine.task.</text>
<text text-anchor="middle" x="269" y="-7.5" font-family="Helvetica,sans-Serif" font-size="10.00">CodingId.getNewCodingId</text>
</a>
</g>
</g>
<!-- Node1&#45;&gt;Node3 -->
<g id="edge2" class="edge"><title>Node1&#45;&gt;Node3</title>
<path fill="none" stroke="midnightblue" d="M131.087,-31.8072C147.927,-29.8015 166.321,-27.6107 184.006,-25.5042"/>
<polygon fill="midnightblue" stroke="midnightblue" points="184.804,-28.934 194.32,-24.2758 183.976,-21.9831 184.804,-28.934"/>
</g>
<!-- Node4 -->
<g id="node4" class="node"><title>Node4</title>
<g id="a_node4"><a xlink:href="../../d5/d15/classorg_1_1msrg_1_1raccoon_1_1engine_1_1task_1_1CodingId_ab50e593ac53f18fc667dc3dddaecc039.html#ab50e593ac53f18fc667dc3dddaecc039" target="_top" xlink:title="org.msrg.raccoon.engine.task.\lCodingId.CodingId">
<polygon fill="none" stroke="black" points="407,-0.5 407,-30.5 556,-30.5 556,-0.5 407,-0.5"/>
<text text-anchor="start" x="415" y="-18.5" font-family="Helvetica,sans-Serif" font-size="10.00">org.msrg.raccoon.engine.task.</text>
<text text-anchor="middle" x="481.5" y="-7.5" font-family="Helvetica,sans-Serif" font-size="10.00">CodingId.CodingId</text>
</a>
</g>
</g>
<!-- Node3&#45;&gt;Node4 -->
<g id="edge3" class="edge"><title>Node3&#45;&gt;Node4</title>
<path fill="none" stroke="midnightblue" d="M343.623,-15.5C360.768,-15.5 379.148,-15.5 396.698,-15.5"/>
<polygon fill="midnightblue" stroke="midnightblue" points="396.919,-19.0001 406.919,-15.5 396.919,-12.0001 396.919,-19.0001"/>
</g>
</g>
</svg>
