<?xml version="1.0" encoding="UTF-8" standalone="no"?>
<!DOCTYPE svg PUBLIC "-//W3C//DTD SVG 1.1//EN"
 "http://www.w3.org/Graphics/SVG/1.1/DTD/svg11.dtd">
<!-- Generated by graphviz version 2.38.0 (20140413.2041)
 -->
<!-- Title: org.msrg.raccoon.engine.CodingEngineImpl.encode Pages: 1 -->
<svg width="595pt" height="147pt"
 viewBox="0.00 0.00 595.00 147.00" xmlns="http://www.w3.org/2000/svg" xmlns:xlink="http://www.w3.org/1999/xlink">
<g id="graph0" class="graph" transform="scale(1 1) rotate(0) translate(4 143)">
<title>org.msrg.raccoon.engine.CodingEngineImpl.encode</title>
<!-- Node1 -->
<g id="node1" class="node"><title>Node1</title>
<polygon fill="#bfbfbf" stroke="black" points="0,-54.5 0,-84.5 131,-84.5 131,-54.5 0,-54.5"/>
<text text-anchor="start" x="8" y="-72.5" font-family="Helvetica,sans-Serif" font-size="10.00">org.msrg.raccoon.engine.</text>
<text text-anchor="middle" x="65.5" y="-61.5" font-family="Helvetica,sans-Serif" font-size="10.00">CodingEngineImpl.encode</text>
</g>
<!-- Node2 -->
<g id="node2" class="node"><title>Node2</title>
<g id="a_node2"><a xlink:href="../../db/d98/classorg_1_1msrg_1_1raccoon_1_1engine_1_1CodingEngine_a3f229e36767db9f7cd2ec62919f828e3.html#a3f229e36767db9f7cd2ec62919f828e3" target="_top" xlink:title="org.msrg.raccoon.engine.\lCodingEngine.addCodingTaskEngineEvent">
<polygon fill="none" stroke="black" points="174,-108.5 174,-138.5 378,-138.5 378,-108.5 174,-108.5"/>
<text text-anchor="start" x="182" y="-126.5" font-family="Helvetica,sans-Serif" font-size="10.00">org.msrg.raccoon.engine.</text>
<text text-anchor="middle" x="276" y="-115.5" font-family="Helvetica,sans-Serif" font-size="10.00">CodingEngine.addCodingTaskEngineEvent</text>
</a>
</g>
</g>
<!-- Node1&#45;&gt;Node2 -->
<g id="edge1" class="edge"><title>Node1&#45;&gt;Node2</title>
<path fill="none" stroke="midnightblue" d="M114.357,-84.5454C130.954,-89.5607 149.73,-95.0095 167,-99.5 175.737,-101.772 184.906,-104.018 194.054,-106.172"/>
<polygon fill="midnightblue" stroke="midnightblue" points="193.419,-109.618 203.951,-108.47 195.002,-102.799 193.419,-109.618"/>
</g>
<!-- Node3 -->
<g id="node3" class="node"><title>Node3</title>
<g id="a_node3"><a xlink:href="../../dd/db2/classorg_1_1msrg_1_1raccoon_1_1engine_1_1task_1_1sequential_1_1Encoding__SequentialCodingTask_a85584616087c7318d1adffee5369af4b.html#a85584616087c7318d1adffee5369af4b" target="_top" xlink:title="org.msrg.raccoon.engine.task.sequential.\lEncoding_SequentialCodingTask.getEncoding\l_SequentialCodingTask">
<polygon fill="none" stroke="black" points="167,-49 167,-90 385,-90 385,-49 167,-49"/>
<text text-anchor="start" x="175" y="-78" font-family="Helvetica,sans-Serif" font-size="10.00">org.msrg.raccoon.engine.task.sequential.</text>
<text text-anchor="start" x="175" y="-67" font-family="Helvetica,sans-Serif" font-size="10.00">Encoding_SequentialCodingTask.getEncoding</text>
<text text-anchor="middle" x="276" y="-56" font-family="Helvetica,sans-Serif" font-size="10.00">_SequentialCodingTask</text>
</a>
</g>
</g>
<!-- Node1&#45;&gt;Node3 -->
<g id="edge2" class="edge"><title>Node1&#45;&gt;Node3</title>
<path fill="none" stroke="midnightblue" d="M131.043,-69.5C139.209,-69.5 147.758,-69.5 156.441,-69.5"/>
<polygon fill="midnightblue" stroke="midnightblue" points="156.682,-73.0001 166.682,-69.5 156.682,-66.0001 156.682,-73.0001"/>
</g>
<!-- Node5 -->
<g id="node5" class="node"><title>Node5</title>
<g id="a_node5"><a xlink:href="../../d5/d15/classorg_1_1msrg_1_1raccoon_1_1engine_1_1task_1_1CodingId_a6ba7d662d6e68c8ae2c6d59bdb84aa4d.html#a6ba7d662d6e68c8ae2c6d59bdb84aa4d" target="_top" xlink:title="org.msrg.raccoon.engine.task.\lCodingId.getNewCodingId">
<polygon fill="none" stroke="black" points="201.5,-0.5 201.5,-30.5 350.5,-30.5 350.5,-0.5 201.5,-0.5"/>
<text text-anchor="start" x="209.5" y="-18.5" font-family="Helvetica,sans-Serif" font-size="10.00">org.msrg.raccoon.engine.task.</text>
<text text-anchor="middle" x="276" y="-7.5" font-family="Helvetica,sans-Serif" font-size="10.00">CodingId.getNewCodingId</text>
</a>
</g>
</g>
<!-- Node1&#45;&gt;Node5 -->
<g id="edge4" class="edge"><title>Node1&#45;&gt;Node5</title>
<path fill="none" stroke="midnightblue" d="M114.357,-54.4546C130.954,-49.4393 149.73,-43.9905 167,-39.5 175.737,-37.2283 184.906,-34.9818 194.054,-32.8278"/>
<polygon fill="midnightblue" stroke="midnightblue" points="195.002,-36.2009 203.951,-30.5299 193.419,-29.3823 195.002,-36.2009"/>
</g>
<!-- Node4 -->
<g id="node4" class="node"><title>Node4</title>
<g id="a_node4"><a xlink:href="../../dd/da2/classorg_1_1msrg_1_1raccoon_1_1CodedBatch_a42db20201a31a1b46cb15055e829394f.html#a42db20201a31a1b46cb15055e829394f" target="_top" xlink:title="org.msrg.raccoon.CodedBatch.get\lCodedBatchType">
<polygon fill="none" stroke="black" points="421,-54.5 421,-84.5 587,-84.5 587,-54.5 421,-54.5"/>
<text text-anchor="start" x="429" y="-72.5" font-family="Helvetica,sans-Serif" font-size="10.00">org.msrg.raccoon.CodedBatch.get</text>
<text text-anchor="middle" x="504" y="-61.5" font-family="Helvetica,sans-Serif" font-size="10.00">CodedBatchType</text>
</a>
</g>
</g>
<!-- Node3&#45;&gt;Node4 -->
<g id="edge3" class="edge"><title>Node3&#45;&gt;Node4</title>
<path fill="none" stroke="midnightblue" d="M385.036,-69.5C393.588,-69.5 402.178,-69.5 410.61,-69.5"/>
<polygon fill="midnightblue" stroke="midnightblue" points="410.803,-73.0001 420.803,-69.5 410.803,-66.0001 410.803,-73.0001"/>
</g>
<!-- Node6 -->
<g id="node6" class="node"><title>Node6</title>
<g id="a_node6"><a xlink:href="../../d5/d15/classorg_1_1msrg_1_1raccoon_1_1engine_1_1task_1_1CodingId_ab50e593ac53f18fc667dc3dddaecc039.html#ab50e593ac53f18fc667dc3dddaecc039" target="_top" xlink:title="org.msrg.raccoon.engine.task.\lCodingId.CodingId">
<polygon fill="none" stroke="black" points="429.5,-0.5 429.5,-30.5 578.5,-30.5 578.5,-0.5 429.5,-0.5"/>
<text text-anchor="start" x="437.5" y="-18.5" font-family="Helvetica,sans-Serif" font-size="10.00">org.msrg.raccoon.engine.task.</text>
<text text-anchor="middle" x="504" y="-7.5" font-family="Helvetica,sans-Serif" font-size="10.00">CodingId.CodingId</text>
</a>
</g>
</g>
<!-- Node5&#45;&gt;Node6 -->
<g id="edge5" class="edge"><title>Node5&#45;&gt;Node6</title>
<path fill="none" stroke="midnightblue" d="M350.688,-15.5C372.582,-15.5 396.725,-15.5 419.211,-15.5"/>
<polygon fill="midnightblue" stroke="midnightblue" points="419.412,-19.0001 429.412,-15.5 419.412,-12.0001 419.412,-19.0001"/>
</g>
</g>
</svg>
