<?xml version="1.0" encoding="UTF-8" standalone="no"?>
<!DOCTYPE svg PUBLIC "-//W3C//DTD SVG 1.1//EN"
 "http://www.w3.org/Graphics/SVG/1.1/DTD/svg11.dtd">
<!-- Generated by graphviz version 2.38.0 (20140413.2041)
 -->
<!-- Title: org.msrg.raccoon.engine.CodingEngineImpl.multiply Pages: 1 -->
<svg width="566pt" height="88pt"
 viewBox="0.00 0.00 566.00 88.00" xmlns="http://www.w3.org/2000/svg" xmlns:xlink="http://www.w3.org/1999/xlink">
<g id="graph0" class="graph" transform="scale(1 1) rotate(0) translate(4 84)">
<title>org.msrg.raccoon.engine.CodingEngineImpl.multiply</title>
<!-- Node1 -->
<g id="node1" class="node"><title>Node1</title>
<polygon fill="#bfbfbf" stroke="black" points="5.68434e-14,-24.5 5.68434e-14,-54.5 133,-54.5 133,-24.5 5.68434e-14,-24.5"/>
<text text-anchor="start" x="8" y="-42.5" font-family="Helvetica,sans-Serif" font-size="10.00">org.msrg.raccoon.engine.</text>
<text text-anchor="middle" x="66.5" y="-31.5" font-family="Helvetica,sans-Serif" font-size="10.00">CodingEngineImpl.multiply</text>
</g>
<!-- Node2 -->
<g id="node2" class="node"><title>Node2</title>
<g id="a_node2"><a xlink:href="../../db/d98/classorg_1_1msrg_1_1raccoon_1_1engine_1_1CodingEngine_a3f229e36767db9f7cd2ec62919f828e3.html#a3f229e36767db9f7cd2ec62919f828e3" target="_top" xlink:title="org.msrg.raccoon.engine.\lCodingEngine.addCodingTaskEngineEvent">
<polygon fill="none" stroke="black" points="169,-49.5 169,-79.5 373,-79.5 373,-49.5 169,-49.5"/>
<text text-anchor="start" x="177" y="-67.5" font-family="Helvetica,sans-Serif" font-size="10.00">org.msrg.raccoon.engine.</text>
<text text-anchor="middle" x="271" y="-56.5" font-family="Helvetica,sans-Serif" font-size="10.00">CodingEngine.addCodingTaskEngineEvent</text>
</a>
</g>
</g>
<!-- Node1&#45;&gt;Node2 -->
<g id="edge1" class="edge"><title>Node1&#45;&gt;Node2</title>
<path fill="none" stroke="midnightblue" d="M133.246,-47.6168C141.553,-48.6423 150.225,-49.7129 158.995,-50.7957"/>
<polygon fill="midnightblue" stroke="midnightblue" points="158.571,-54.2699 168.925,-52.0216 159.429,-47.3226 158.571,-54.2699"/>
</g>
<!-- Node3 -->
<g id="node3" class="node"><title>Node3</title>
<g id="a_node3"><a xlink:href="../../d5/d15/classorg_1_1msrg_1_1raccoon_1_1engine_1_1task_1_1CodingId_a6ba7d662d6e68c8ae2c6d59bdb84aa4d.html#a6ba7d662d6e68c8ae2c6d59bdb84aa4d" target="_top" xlink:title="org.msrg.raccoon.engine.task.\lCodingId.getNewCodingId">
<polygon fill="none" stroke="black" points="196.5,-0.5 196.5,-30.5 345.5,-30.5 345.5,-0.5 196.5,-0.5"/>
<text text-anchor="start" x="204.5" y="-18.5" font-family="Helvetica,sans-Serif" font-size="10.00">org.msrg.raccoon.engine.task.</text>
<text text-anchor="middle" x="271" y="-7.5" font-family="Helvetica,sans-Serif" font-size="10.00">CodingId.getNewCodingId</text>
</a>
</g>
</g>
<!-- Node1&#45;&gt;Node3 -->
<g id="edge2" class="edge"><title>Node1&#45;&gt;Node3</title>
<path fill="none" stroke="midnightblue" d="M133.246,-31.7079C150.044,-29.717 168.334,-27.5493 185.914,-25.4658"/>
<polygon fill="midnightblue" stroke="midnightblue" points="186.647,-28.9035 196.165,-24.2508 185.823,-21.9521 186.647,-28.9035"/>
</g>
<!-- Node4 -->
<g id="node4" class="node"><title>Node4</title>
<g id="a_node4"><a xlink:href="../../d5/d15/classorg_1_1msrg_1_1raccoon_1_1engine_1_1task_1_1CodingId_ab50e593ac53f18fc667dc3dddaecc039.html#ab50e593ac53f18fc667dc3dddaecc039" target="_top" xlink:title="org.msrg.raccoon.engine.task.\lCodingId.CodingId">
<polygon fill="none" stroke="black" points="409,-0.5 409,-30.5 558,-30.5 558,-0.5 409,-0.5"/>
<text text-anchor="start" x="417" y="-18.5" font-family="Helvetica,sans-Serif" font-size="10.00">org.msrg.raccoon.engine.task.</text>
<text text-anchor="middle" x="483.5" y="-7.5" font-family="Helvetica,sans-Serif" font-size="10.00">CodingId.CodingId</text>
</a>
</g>
</g>
<!-- Node3&#45;&gt;Node4 -->
<g id="edge3" class="edge"><title>Node3&#45;&gt;Node4</title>
<path fill="none" stroke="midnightblue" d="M345.623,-15.5C362.768,-15.5 381.148,-15.5 398.698,-15.5"/>
<polygon fill="midnightblue" stroke="midnightblue" points="398.919,-19.0001 408.919,-15.5 398.919,-12.0001 398.919,-19.0001"/>
</g>
</g>
</svg>
