<?xml version="1.0" encoding="UTF-8" standalone="no"?>
<!DOCTYPE svg PUBLIC "-//W3C//DTD SVG 1.1//EN"
 "http://www.w3.org/Graphics/SVG/1.1/DTD/svg11.dtd">
<!-- Generated by graphviz version 2.38.0 (20140413.2041)
 -->
<!-- Title: org.msrg.raccoon.engine.task.SlicesEqual_CodingTask Pages: 1 -->
<!--zoomable 617 -->
<svg id="main" version="1.1" xmlns="http://www.w3.org/2000/svg" xmlns:xlink="http://www.w3.org/1999/xlink" xml:space="preserve" onload="init(evt)">
<style type="text/css"><![CDATA[
.edge:hover path { stroke: red; }
.edge:hover polygon { stroke: red; fill: red; }
]]></style>
<script type="text/javascript"><![CDATA[
var edges = document.getElementsByTagName('g');
if (edges && edges.length) {
  for (var i=0;i<edges.length;i++) {
    if (edges[i].id.substr(0,4)=='edge') {
      edges[i].setAttribute('class','edge');
    }
  }
}
]]></script>
        <defs>
                <circle id="rim" cx="0" cy="0" r="7"/>
                <circle id="rim2" cx="0" cy="0" r="3.5"/>
                <g id="zoomPlus">
                        <use xlink:href="#rim" fill="#404040">
                                <set attributeName="fill" to="#808080" begin="zoomplus.mouseover" end="zoomplus.mouseout"/>
                        </use>
                        <path d="M-4,0h8M0,-4v8" fill="none" stroke="white" stroke-width="1.5" pointer-events="none"/>
                </g>
                <g id="zoomMin">
                        <use xlink:href="#rim" fill="#404040">
                                <set attributeName="fill" to="#808080" begin="zoomminus.mouseover" end="zoomminus.mouseout"/>
                        </use>
                        <path d="M-4,0h8" fill="none" stroke="white" stroke-width="1.5" pointer-events="none"/>
                </g>
                <g id="dirArrow">
                        <path fill="none" stroke="white" stroke-width="1.5" d="M0,-3.0v7 M-2.5,-0.5L0,-3.0L2.5,-0.5"/>
                </g>
               <g id="resetDef">
                       <use xlink:href="#rim2" fill="#404040">
                               <set attributeName="fill" to="#808080" begin="reset.mouseover" end="reset.mouseout"/>
                       </use>
               </g>
        </defs>

<script type="text/javascript">
var viewWidth = 852;
var viewHeight = 617;
var sectionId = 'dynsection-1';
</script>
<script xlink:href="../../svgpan.js"/>
<svg id="graph" class="graph">
<g id="viewport">
<title>org.msrg.raccoon.engine.task.SlicesEqual_CodingTask</title>
<!-- Node1 -->
<g id="node1" class="node"><title>Node1</title>
<polygon fill="#bfbfbf" stroke="black" points="486,-33.5 486,-112.5 635,-112.5 635,-33.5 486,-33.5"/>
<text text-anchor="start" x="494" y="-100.5" font-family="Helvetica,sans-Serif" font-size="10.00">org.msrg.raccoon.engine.task.</text>
<text text-anchor="middle" x="560.5" y="-89.5" font-family="Helvetica,sans-Serif" font-size="10.00">SlicesEqual_CodingTask</text>
<polyline fill="none" stroke="black" points="486,-82.5 635,-82.5 "/>
<text text-anchor="middle" x="560.5" y="-70.5" font-family="Helvetica,sans-Serif" font-size="10.00"> </text>
<polyline fill="none" stroke="black" points="486,-63.5 635,-63.5 "/>
<text text-anchor="start" x="494" y="-51.5" font-family="Helvetica,sans-Serif" font-size="10.00">+ SlicesEqual_CodingTask()</text>
<text text-anchor="start" x="494" y="-40.5" font-family="Helvetica,sans-Serif" font-size="10.00"># getEmptyCodingResults()</text>
</g>
<!-- Node2 -->
<g id="node2" class="node"><title>Node2</title>
<g id="a_node2"><a xlink:href="../../d9/d22/classorg_1_1msrg_1_1raccoon_1_1engine_1_1task_1_1CodingTask.html" target="_top" xlink:title="{org.msrg.raccoon.engine.task.\lCodingTask\n||+ getCodingResults()\l+ getStatus()\l+ isStarted()\l+ isFinished()\l+ isFailed()\l+ failed()\l+ started()\l+ finished()\l+ isSequencial()\l+ equals()\l+ hashCode()\l# CodingTask()\l# getEmptyCodingResults()\l# changeStatus()\l}">
<polygon fill="none" stroke="black" points="364,-215.5 364,-426.5 513,-426.5 513,-215.5 364,-215.5"/>
<text text-anchor="start" x="372" y="-414.5" font-family="Helvetica,sans-Serif" font-size="10.00">org.msrg.raccoon.engine.task.</text>
<text text-anchor="middle" x="438.5" y="-403.5" font-family="Helvetica,sans-Serif" font-size="10.00">CodingTask</text>
<polyline fill="none" stroke="black" points="364,-396.5 513,-396.5 "/>
<text text-anchor="middle" x="438.5" y="-384.5" font-family="Helvetica,sans-Serif" font-size="10.00"> </text>
<polyline fill="none" stroke="black" points="364,-377.5 513,-377.5 "/>
<text text-anchor="start" x="372" y="-365.5" font-family="Helvetica,sans-Serif" font-size="10.00">+ getCodingResults()</text>
<text text-anchor="start" x="372" y="-354.5" font-family="Helvetica,sans-Serif" font-size="10.00">+ getStatus()</text>
<text text-anchor="start" x="372" y="-343.5" font-family="Helvetica,sans-Serif" font-size="10.00">+ isStarted()</text>
<text text-anchor="start" x="372" y="-332.5" font-family="Helvetica,sans-Serif" font-size="10.00">+ isFinished()</text>
<text text-anchor="start" x="372" y="-321.5" font-family="Helvetica,sans-Serif" font-size="10.00">+ isFailed()</text>
<text text-anchor="start" x="372" y="-310.5" font-family="Helvetica,sans-Serif" font-size="10.00">+ failed()</text>
<text text-anchor="start" x="372" y="-299.5" font-family="Helvetica,sans-Serif" font-size="10.00">+ started()</text>
<text text-anchor="start" x="372" y="-288.5" font-family="Helvetica,sans-Serif" font-size="10.00">+ finished()</text>
<text text-anchor="start" x="372" y="-277.5" font-family="Helvetica,sans-Serif" font-size="10.00">+ isSequencial()</text>
<text text-anchor="start" x="372" y="-266.5" font-family="Helvetica,sans-Serif" font-size="10.00">+ equals()</text>
<text text-anchor="start" x="372" y="-255.5" font-family="Helvetica,sans-Serif" font-size="10.00">+ hashCode()</text>
<text text-anchor="start" x="372" y="-244.5" font-family="Helvetica,sans-Serif" font-size="10.00"># CodingTask()</text>
<text text-anchor="start" x="372" y="-233.5" font-family="Helvetica,sans-Serif" font-size="10.00"># getEmptyCodingResults()</text>
<text text-anchor="start" x="372" y="-222.5" font-family="Helvetica,sans-Serif" font-size="10.00"># changeStatus()</text>
</a>
</g>
</g>
<!-- Node2&#45;&gt;Node1 -->
<g id="edge1" class="edge"><title>Node2&#45;&gt;Node1</title>
<path fill="none" stroke="midnightblue" d="M494.871,-206.334C511.545,-172.713 528.682,-138.158 541.262,-112.792"/>
<polygon fill="none" stroke="midnightblue" points="491.723,-204.803 490.416,-215.317 497.995,-207.913 491.723,-204.803"/>
</g>
<!-- Node5 -->
<g id="node5" class="node"><title>Node5</title>
<g id="a_node5"><a xlink:href="../../df/d3e/classorg_1_1msrg_1_1raccoon_1_1engine_1_1task_1_1result_1_1CodingResult.html" target="_top" xlink:title="{org.msrg.raccoon.engine.task.result.\lCodingResult\n||+ setStatus()\l+ equals()\l+ hashCode()\l+ getStatus()\l+ isStarted()\l+ isFailed()\l+ isFinished()\l# CodingResult()\l}">
<polygon fill="none" stroke="black" points="288.5,-0.5 288.5,-145.5 464.5,-145.5 464.5,-0.5 288.5,-0.5"/>
<text text-anchor="start" x="296.5" y="-133.5" font-family="Helvetica,sans-Serif" font-size="10.00">org.msrg.raccoon.engine.task.result.</text>
<text text-anchor="middle" x="376.5" y="-122.5" font-family="Helvetica,sans-Serif" font-size="10.00">CodingResult</text>
<polyline fill="none" stroke="black" points="288.5,-115.5 464.5,-115.5 "/>
<text text-anchor="middle" x="376.5" y="-103.5" font-family="Helvetica,sans-Serif" font-size="10.00"> </text>
<polyline fill="none" stroke="black" points="288.5,-96.5 464.5,-96.5 "/>
<text text-anchor="start" x="296.5" y="-84.5" font-family="Helvetica,sans-Serif" font-size="10.00">+ setStatus()</text>
<text text-anchor="start" x="296.5" y="-73.5" font-family="Helvetica,sans-Serif" font-size="10.00">+ equals()</text>
<text text-anchor="start" x="296.5" y="-62.5" font-family="Helvetica,sans-Serif" font-size="10.00">+ hashCode()</text>
<text text-anchor="start" x="296.5" y="-51.5" font-family="Helvetica,sans-Serif" font-size="10.00">+ getStatus()</text>
<text text-anchor="start" x="296.5" y="-40.5" font-family="Helvetica,sans-Serif" font-size="10.00">+ isStarted()</text>
<text text-anchor="start" x="296.5" y="-29.5" font-family="Helvetica,sans-Serif" font-size="10.00">+ isFailed()</text>
<text text-anchor="start" x="296.5" y="-18.5" font-family="Helvetica,sans-Serif" font-size="10.00">+ isFinished()</text>
<text text-anchor="start" x="296.5" y="-7.5" font-family="Helvetica,sans-Serif" font-size="10.00"># CodingResult()</text>
</a>
</g>
</g>
<!-- Node2&#45;&gt;Node5 -->
<g id="edge5" class="edge"><title>Node2&#45;&gt;Node5</title>
<path fill="none" stroke="#404040" d="M427.797,-215.103C424.873,-197.857 421.173,-180.301 416.5,-164 415.846,-161.719 415.146,-159.422 414.406,-157.115"/>
<polygon fill="none" stroke="#404040" points="414.329,-156.893 408.588,-152.529 410.407,-145.551 416.149,-149.915 414.329,-156.893"/>
<text text-anchor="middle" x="443.5" y="-172.5" font-family="Helvetica,sans-Serif" font-size="10.00"> +_cTask</text>
</g>
<!-- Node3 -->
<g id="node3" class="node"><title>Node3</title>
<g id="a_node3"><a xlink:href="../../d6/d58/interfaceorg_1_1msrg_1_1raccoon_1_1engine_1_1ICodingListener.html" target="_top" xlink:title="{org.msrg.raccoon.engine.\lICodingListener\n||+ codingStarted()\l+ codingPreliminaryStageCompleted()\l+ codingFailed()\l+ codingFinished()\l}">
<polygon fill="none" stroke="black" points="167.5,-496.5 167.5,-597.5 349.5,-597.5 349.5,-496.5 167.5,-496.5"/>
<text text-anchor="start" x="175.5" y="-585.5" font-family="Helvetica,sans-Serif" font-size="10.00">org.msrg.raccoon.engine.</text>
<text text-anchor="middle" x="258.5" y="-574.5" font-family="Helvetica,sans-Serif" font-size="10.00">ICodingListener</text>
<polyline fill="none" stroke="black" points="167.5,-567.5 349.5,-567.5 "/>
<text text-anchor="middle" x="258.5" y="-555.5" font-family="Helvetica,sans-Serif" font-size="10.00"> </text>
<polyline fill="none" stroke="black" points="167.5,-548.5 349.5,-548.5 "/>
<text text-anchor="start" x="175.5" y="-536.5" font-family="Helvetica,sans-Serif" font-size="10.00">+ codingStarted()</text>
<text text-anchor="start" x="175.5" y="-525.5" font-family="Helvetica,sans-Serif" font-size="10.00">+ codingPreliminaryStageCompleted()</text>
<text text-anchor="start" x="175.5" y="-514.5" font-family="Helvetica,sans-Serif" font-size="10.00">+ codingFailed()</text>
<text text-anchor="start" x="175.5" y="-503.5" font-family="Helvetica,sans-Serif" font-size="10.00">+ codingFinished()</text>
</a>
</g>
</g>
<!-- Node3&#45;&gt;Node2 -->
<g id="edge2" class="edge"><title>Node3&#45;&gt;Node2</title>
<path fill="none" stroke="#404040" d="M298.448,-496.287C315.53,-475.029 336.14,-449.382 356.232,-424.378"/>
<polygon fill="none" stroke="#404040" points="356.382,-424.192 357.022,-417.009 363.898,-414.838 363.258,-422.02 356.382,-424.192"/>
<text text-anchor="middle" x="350.5" y="-459" font-family="Helvetica,sans-Serif" font-size="10.00"> +_listener</text>
</g>
<!-- Node4 -->
<g id="node4" class="node"><title>Node4</title>
<g id="a_node4"><a xlink:href="../../d5/d15/classorg_1_1msrg_1_1raccoon_1_1engine_1_1task_1_1CodingId.html" target="_top" xlink:title="{org.msrg.raccoon.engine.task.\lCodingId\n|&#45; _id\l&#45; _lastId\l|+ equals()\l+ hashCode()\l+ toString()\l+ getNewCodingId()\l&#45; CodingId()\l}">
<polygon fill="none" stroke="black" points="0,-485.5 0,-608.5 149,-608.5 149,-485.5 0,-485.5"/>
<text text-anchor="start" x="8" y="-596.5" font-family="Helvetica,sans-Serif" font-size="10.00">org.msrg.raccoon.engine.task.</text>
<text text-anchor="middle" x="74.5" y="-585.5" font-family="Helvetica,sans-Serif" font-size="10.00">CodingId</text>
<polyline fill="none" stroke="black" points="0,-578.5 149,-578.5 "/>
<text text-anchor="start" x="8" y="-566.5" font-family="Helvetica,sans-Serif" font-size="10.00">&#45; _id</text>
<text text-anchor="start" x="8" y="-555.5" font-family="Helvetica,sans-Serif" font-size="10.00">&#45; _lastId</text>
<polyline fill="none" stroke="black" points="0,-548.5 149,-548.5 "/>
<text text-anchor="start" x="8" y="-536.5" font-family="Helvetica,sans-Serif" font-size="10.00">+ equals()</text>
<text text-anchor="start" x="8" y="-525.5" font-family="Helvetica,sans-Serif" font-size="10.00">+ hashCode()</text>
<text text-anchor="start" x="8" y="-514.5" font-family="Helvetica,sans-Serif" font-size="10.00">+ toString()</text>
<text text-anchor="start" x="8" y="-503.5" font-family="Helvetica,sans-Serif" font-size="10.00">+ getNewCodingId()</text>
<text text-anchor="start" x="8" y="-492.5" font-family="Helvetica,sans-Serif" font-size="10.00">&#45; CodingId()</text>
</a>
</g>
</g>
<!-- Node4&#45;&gt;Node2 -->
<g id="edge3" class="edge"><title>Node4&#45;&gt;Node2</title>
<path fill="none" stroke="#404040" d="M149.115,-489.49C152.229,-487.879 155.363,-486.374 158.5,-485 195.867,-468.637 211.331,-483.806 248.5,-467 286.02,-450.036 323.001,-424.436 354.224,-399.444"/>
<polygon fill="none" stroke="#404040" points="354.414,-399.289 356.544,-392.4 363.723,-391.717 361.592,-398.607 354.414,-399.289"/>
<text text-anchor="middle" x="277.5" y="-459" font-family="Helvetica,sans-Serif" font-size="10.00"> +_id</text>
</g>
<!-- Node4&#45;&gt;Node5 -->
<g id="edge7" class="edge"><title>Node4&#45;&gt;Node5</title>
<path fill="none" stroke="#404040" d="M149.352,-491.461C175.41,-471.462 200.609,-450.646 210.5,-438 246.443,-392.046 306.697,-249.655 343.877,-157.185"/>
<polygon fill="none" stroke="#404040" points="343.941,-157.024 342.461,-149.967 348.406,-145.886 349.886,-152.943 343.941,-157.024"/>
<text text-anchor="middle" x="334.5" y="-318.5" font-family="Helvetica,sans-Serif" font-size="10.00"> +_id</text>
</g>
<!-- Node5&#45;&gt;Node2 -->
<g id="edge4" class="edge"><title>Node5&#45;&gt;Node2</title>
<path fill="none" stroke="#404040" d="M372.698,-145.604C373.228,-159.137 374.639,-173.09 377.5,-186 378.814,-191.931 380.41,-197.915 382.224,-203.893"/>
<polygon fill="none" stroke="#404040" points="382.244,-203.953 387.907,-208.417 385.964,-215.362 380.301,-210.898 382.244,-203.953"/>
<text text-anchor="middle" x="397" y="-172.5" font-family="Helvetica,sans-Serif" font-size="10.00"> +_result</text>
</g>
<!-- Node6 -->
<g id="node6" class="node"><title>Node6</title>
<g id="a_node6"><a xlink:href="../../d1/dce/namespaceorg_1_1msrg_1_1raccoon_1_1engine_1_1task_1_1result.html#de/d82/enumorg_1_1msrg_1_1raccoon_1_1engine_1_1task_1_1result_1_1CodingResultsType" target="_top" xlink:title="{org.msrg.raccoon.engine.task.result.\lCodingResultsType\n|+ BOOLEAN\l+ NC_MATRIX\l+ BULK_MATRIX\l+ CODED_SLICE_MATRIX\l+ SLICE_MATRIX\l+ CODED_SLICE\l+ FILE_RESULT\l|}">
<polygon fill="none" stroke="black" points="25.5,-254 25.5,-388 201.5,-388 201.5,-254 25.5,-254"/>
<text text-anchor="start" x="33.5" y="-376" font-family="Helvetica,sans-Serif" font-size="10.00">org.msrg.raccoon.engine.task.result.</text>
<text text-anchor="middle" x="113.5" y="-365" font-family="Helvetica,sans-Serif" font-size="10.00">CodingResultsType</text>
<polyline fill="none" stroke="black" points="25.5,-358 201.5,-358 "/>
<text text-anchor="start" x="33.5" y="-346" font-family="Helvetica,sans-Serif" font-size="10.00">+ BOOLEAN</text>
<text text-anchor="start" x="33.5" y="-335" font-family="Helvetica,sans-Serif" font-size="10.00">+ NC_MATRIX</text>
<text text-anchor="start" x="33.5" y="-324" font-family="Helvetica,sans-Serif" font-size="10.00">+ BULK_MATRIX</text>
<text text-anchor="start" x="33.5" y="-313" font-family="Helvetica,sans-Serif" font-size="10.00">+ CODED_SLICE_MATRIX</text>
<text text-anchor="start" x="33.5" y="-302" font-family="Helvetica,sans-Serif" font-size="10.00">+ SLICE_MATRIX</text>
<text text-anchor="start" x="33.5" y="-291" font-family="Helvetica,sans-Serif" font-size="10.00">+ CODED_SLICE</text>
<text text-anchor="start" x="33.5" y="-280" font-family="Helvetica,sans-Serif" font-size="10.00">+ FILE_RESULT</text>
<polyline fill="none" stroke="black" points="25.5,-273 201.5,-273 "/>
<text text-anchor="middle" x="113.5" y="-261" font-family="Helvetica,sans-Serif" font-size="10.00"> </text>
</a>
</g>
</g>
<!-- Node6&#45;&gt;Node5 -->
<g id="edge6" class="edge"><title>Node6&#45;&gt;Node5</title>
<path fill="none" stroke="#404040" d="M118.956,-253.71C124.523,-223.277 135.596,-188.58 157.5,-164 188.372,-129.356 234.602,-107.765 276.641,-94.4521"/>
<polygon fill="none" stroke="#404040" points="276.883,-94.3792 281.472,-88.8164 288.371,-90.9126 283.783,-96.4754 276.883,-94.3792"/>
<text text-anchor="middle" x="190.5" y="-172.5" font-family="Helvetica,sans-Serif" font-size="10.00"> +_resultsType</text>
</g>
<!-- Node7 -->
<g id="node7" class="node"><title>Node7</title>
<g id="a_node7"><a xlink:href="../../df/de9/namespaceorg_1_1msrg_1_1raccoon_1_1engine_1_1task.html#dd/d1c/enumorg_1_1msrg_1_1raccoon_1_1engine_1_1task_1_1CodingTaskStatus" target="_top" xlink:title="{org.msrg.raccoon.engine.task.\lCodingTaskStatus\n|+ CREATED\l+ STARTED\l+ FINISHED\l+ FAILED\l|}">
<polygon fill="none" stroke="black" points="535,-496.5 535,-597.5 684,-597.5 684,-496.5 535,-496.5"/>
<text text-anchor="start" x="543" y="-585.5" font-family="Helvetica,sans-Serif" font-size="10.00">org.msrg.raccoon.engine.task.</text>
<text text-anchor="middle" x="609.5" y="-574.5" font-family="Helvetica,sans-Serif" font-size="10.00">CodingTaskStatus</text>
<polyline fill="none" stroke="black" points="535,-567.5 684,-567.5 "/>
<text text-anchor="start" x="543" y="-555.5" font-family="Helvetica,sans-Serif" font-size="10.00">+ CREATED</text>
<text text-anchor="start" x="543" y="-544.5" font-family="Helvetica,sans-Serif" font-size="10.00">+ STARTED</text>
<text text-anchor="start" x="543" y="-533.5" font-family="Helvetica,sans-Serif" font-size="10.00">+ FINISHED</text>
<text text-anchor="start" x="543" y="-522.5" font-family="Helvetica,sans-Serif" font-size="10.00">+ FAILED</text>
<polyline fill="none" stroke="black" points="535,-515.5 684,-515.5 "/>
<text text-anchor="middle" x="609.5" y="-503.5" font-family="Helvetica,sans-Serif" font-size="10.00"> </text>
</a>
</g>
</g>
<!-- Node7&#45;&gt;Node2 -->
<g id="edge9" class="edge"><title>Node7&#45;&gt;Node2</title>
<path fill="none" stroke="#404040" d="M556.356,-496.125C547.355,-486.776 538.382,-476.84 530.5,-467 522.802,-457.39 515.193,-447.107 507.845,-436.618"/>
<polygon fill="none" stroke="#404040" points="507.692,-436.396 500.995,-433.724 500.886,-426.514 507.583,-429.186 507.692,-436.396"/>
<text text-anchor="middle" x="551" y="-459" font-family="Helvetica,sans-Serif" font-size="10.00"> #_status</text>
</g>
<!-- Node7&#45;&gt;Node5 -->
<g id="edge8" class="edge"><title>Node7&#45;&gt;Node5</title>
<path fill="none" stroke="#404040" d="M605.779,-496.37C598.626,-426.542 578.236,-297.402 521.5,-204 508.754,-183.016 491.572,-163.477 473.496,-146.251"/>
<polygon fill="none" stroke="#404040" points="473.372,-146.136 466.251,-144.995 464.566,-137.984 471.686,-139.125 473.372,-146.136"/>
<text text-anchor="middle" x="619" y="-318.5" font-family="Helvetica,sans-Serif" font-size="10.00"> #_status</text>
</g>
<!-- Node8 -->
<g id="node8" class="node"><title>Node8</title>
<g id="a_node8"><a xlink:href="../../d5/da9/enumorg_1_1msrg_1_1raccoon_1_1engine_1_1task_1_1CodingTaskType.html" target="_top" xlink:title="{org.msrg.raccoon.engine.task.\lCodingTaskType\n|+ FILE_TASK\l+ SLICES_EQUAL\l+ MULTIPLY\l+ INVERSE\l+ SEQUENCIAL\l+ _isSequencial\l|+ CodingTaskType()\l}">
<polygon fill="none" stroke="black" points="368,-485.5 368,-608.5 517,-608.5 517,-485.5 368,-485.5"/>
<text text-anchor="start" x="376" y="-596.5" font-family="Helvetica,sans-Serif" font-size="10.00">org.msrg.raccoon.engine.task.</text>
<text text-anchor="middle" x="442.5" y="-585.5" font-family="Helvetica,sans-Serif" font-size="10.00">CodingTaskType</text>
<polyline fill="none" stroke="black" points="368,-578.5 517,-578.5 "/>
<text text-anchor="start" x="376" y="-566.5" font-family="Helvetica,sans-Serif" font-size="10.00">+ FILE_TASK</text>
<text text-anchor="start" x="376" y="-555.5" font-family="Helvetica,sans-Serif" font-size="10.00">+ SLICES_EQUAL</text>
<text text-anchor="start" x="376" y="-544.5" font-family="Helvetica,sans-Serif" font-size="10.00">+ MULTIPLY</text>
<text text-anchor="start" x="376" y="-533.5" font-family="Helvetica,sans-Serif" font-size="10.00">+ INVERSE</text>
<text text-anchor="start" x="376" y="-522.5" font-family="Helvetica,sans-Serif" font-size="10.00">+ SEQUENCIAL</text>
<text text-anchor="start" x="376" y="-511.5" font-family="Helvetica,sans-Serif" font-size="10.00">+ _isSequencial</text>
<polyline fill="none" stroke="black" points="368,-504.5 517,-504.5 "/>
<text text-anchor="start" x="376" y="-492.5" font-family="Helvetica,sans-Serif" font-size="10.00">+ CodingTaskType()</text>
</a>
</g>
</g>
<!-- Node8&#45;&gt;Node2 -->
<g id="edge10" class="edge"><title>Node8&#45;&gt;Node2</title>
<path fill="none" stroke="#404040" d="M441.418,-485.382C441.159,-470.928 440.875,-455.015 440.589,-438.966"/>
<polygon fill="none" stroke="#404040" points="440.584,-438.687 436.477,-432.759 440.369,-426.688 444.476,-432.616 440.584,-438.687"/>
<text text-anchor="middle" x="469" y="-459" font-family="Helvetica,sans-Serif" font-size="10.00"> +_taskType</text>
</g>
<!-- Node9 -->
<g id="node9" class="node"><title>Node9</title>
<g id="a_node9"><a xlink:href="../../d6/d6d/classorg_1_1msrg_1_1raccoon_1_1matrix_1_1bulk_1_1SliceMatrix.html" target="_top" xlink:title="{org.msrg.raccoon.matrix.bulk.\lSliceMatrix\n|+ _cols\l+ _MAX_COLS_PRINT\l# _b\l&#45; serialVersionUID\l|+ SliceMatrix()\l+ loadNoCopy()\l+ loadWithCopy()\l+ SliceMatrix()\l+ SliceMatrix()\l+ getContent()\l+ hasContent()\l+ clone()\l+ equals()\l+ getByte()\land 6 more...\l+ createRandomSliceMatrix()\l+ getEmptySliceMatrix()\l}">
<polygon fill="none" stroke="black" points="662.5,-204.5 662.5,-437.5 808.5,-437.5 808.5,-204.5 662.5,-204.5"/>
<text text-anchor="start" x="670.5" y="-425.5" font-family="Helvetica,sans-Serif" font-size="10.00">org.msrg.raccoon.matrix.bulk.</text>
<text text-anchor="middle" x="735.5" y="-414.5" font-family="Helvetica,sans-Serif" font-size="10.00">SliceMatrix</text>
<polyline fill="none" stroke="black" points="662.5,-407.5 808.5,-407.5 "/>
<text text-anchor="start" x="670.5" y="-395.5" font-family="Helvetica,sans-Serif" font-size="10.00">+ _cols</text>
<text text-anchor="start" x="670.5" y="-384.5" font-family="Helvetica,sans-Serif" font-size="10.00">+ _MAX_COLS_PRINT</text>
<text text-anchor="start" x="670.5" y="-373.5" font-family="Helvetica,sans-Serif" font-size="10.00"># _b</text>
<text text-anchor="start" x="670.5" y="-362.5" font-family="Helvetica,sans-Serif" font-size="10.00">&#45; serialVersionUID</text>
<polyline fill="none" stroke="black" points="662.5,-355.5 808.5,-355.5 "/>
<text text-anchor="start" x="670.5" y="-343.5" font-family="Helvetica,sans-Serif" font-size="10.00">+ SliceMatrix()</text>
<text text-anchor="start" x="670.5" y="-332.5" font-family="Helvetica,sans-Serif" font-size="10.00">+ loadNoCopy()</text>
<text text-anchor="start" x="670.5" y="-321.5" font-family="Helvetica,sans-Serif" font-size="10.00">+ loadWithCopy()</text>
<text text-anchor="start" x="670.5" y="-310.5" font-family="Helvetica,sans-Serif" font-size="10.00">+ SliceMatrix()</text>
<text text-anchor="start" x="670.5" y="-299.5" font-family="Helvetica,sans-Serif" font-size="10.00">+ SliceMatrix()</text>
<text text-anchor="start" x="670.5" y="-288.5" font-family="Helvetica,sans-Serif" font-size="10.00">+ getContent()</text>
<text text-anchor="start" x="670.5" y="-277.5" font-family="Helvetica,sans-Serif" font-size="10.00">+ hasContent()</text>
<text text-anchor="start" x="670.5" y="-266.5" font-family="Helvetica,sans-Serif" font-size="10.00">+ clone()</text>
<text text-anchor="start" x="670.5" y="-255.5" font-family="Helvetica,sans-Serif" font-size="10.00">+ equals()</text>
<text text-anchor="start" x="670.5" y="-244.5" font-family="Helvetica,sans-Serif" font-size="10.00">+ getByte()</text>
<text text-anchor="start" x="670.5" y="-233.5" font-family="Helvetica,sans-Serif" font-size="10.00">and 6 more...</text>
<text text-anchor="start" x="670.5" y="-222.5" font-family="Helvetica,sans-Serif" font-size="10.00">+ createRandomSliceMatrix()</text>
<text text-anchor="start" x="670.5" y="-211.5" font-family="Helvetica,sans-Serif" font-size="10.00">+ getEmptySliceMatrix()</text>
</a>
</g>
</g>
<!-- Node9&#45;&gt;Node1 -->
<g id="edge11" class="edge"><title>Node9&#45;&gt;Node1</title>
<path fill="none" stroke="#404040" d="M662.298,-217.099C638.961,-184.294 614.229,-149.527 594.986,-122.478"/>
<polygon fill="none" stroke="#404040" points="594.851,-122.288 588.113,-119.717 587.895,-112.509 594.632,-115.08 594.851,-122.288"/>
<text text-anchor="middle" x="655.5" y="-178" font-family="Helvetica,sans-Serif" font-size="10.00"> +_sm1</text>
<text text-anchor="middle" x="655.5" y="-167" font-family="Helvetica,sans-Serif" font-size="10.00">+_sm2</text>
</g>
<!-- Node10 -->
<g id="node10" class="node"><title>Node10</title>
<polygon fill="none" stroke="#bfbfbf" points="702,-518.5 702,-575.5 769,-575.5 769,-518.5 702,-518.5"/>
<text text-anchor="middle" x="735.5" y="-563.5" font-family="Helvetica,sans-Serif" font-size="10.00">Serializable</text>
<polyline fill="none" stroke="#bfbfbf" points="702,-556.5 769,-556.5 "/>
<text text-anchor="middle" x="735.5" y="-544.5" font-family="Helvetica,sans-Serif" font-size="10.00"> </text>
<polyline fill="none" stroke="#bfbfbf" points="702,-537.5 769,-537.5 "/>
<text text-anchor="middle" x="735.5" y="-525.5" font-family="Helvetica,sans-Serif" font-size="10.00"> </text>
</g>
<!-- Node10&#45;&gt;Node9 -->
<g id="edge12" class="edge"><title>Node10&#45;&gt;Node9</title>
<path fill="none" stroke="midnightblue" d="M735.5,-508.025C735.5,-488.317 735.5,-463.072 735.5,-437.579"/>
<polygon fill="none" stroke="midnightblue" points="732,-508.083 735.5,-518.083 739,-508.083 732,-508.083"/>
</g>
<!-- Node11 -->
<g id="node11" class="node"><title>Node11</title>
<polygon fill="none" stroke="#bfbfbf" points="787,-518.5 787,-575.5 840,-575.5 840,-518.5 787,-518.5"/>
<text text-anchor="middle" x="813.5" y="-563.5" font-family="Helvetica,sans-Serif" font-size="10.00">Random</text>
<polyline fill="none" stroke="#bfbfbf" points="787,-556.5 840,-556.5 "/>
<text text-anchor="middle" x="813.5" y="-544.5" font-family="Helvetica,sans-Serif" font-size="10.00"> </text>
<polyline fill="none" stroke="#bfbfbf" points="787,-537.5 840,-537.5 "/>
<text text-anchor="middle" x="813.5" y="-525.5" font-family="Helvetica,sans-Serif" font-size="10.00"> </text>
</g>
<!-- Node11&#45;&gt;Node9 -->
<g id="edge13" class="edge"><title>Node11&#45;&gt;Node9</title>
<path fill="none" stroke="#404040" d="M803.779,-518.083C797.5,-500.052 788.835,-475.168 779.784,-449.173"/>
<polygon fill="none" stroke="#404040" points="779.692,-448.911 773.942,-444.56 775.746,-437.579 781.497,-441.93 779.692,-448.911"/>
<text text-anchor="middle" x="814" y="-459" font-family="Helvetica,sans-Serif" font-size="10.00"> #_RANDOM</text>
</g>
</g>
</svg>
        <g id="navigator" transform="translate(0 0)" fill="#404254">
                <rect fill="#f2f5e9" fill-opacity="0.5" stroke="#606060" stroke-width=".5" x="0" y="0" width="60" height="60"/>
                <use id="zoomplus" xlink:href="#zoomPlus" x="17" y="9" onmousedown="handleZoom(evt,'in')"/>
                <use id="zoomminus" xlink:href="#zoomMin" x="42" y="9" onmousedown="handleZoom(evt,'out')"/>
                <use id="reset" xlink:href="#resetDef" x="30" y="36" onmousedown="handleReset()"/>
                <g id="arrowUp" xlink:href="#dirArrow" transform="translate(30 24)" onmousedown="handlePan(0,-1)">
                  <use xlink:href="#rim" fill="#404040">
                        <set attributeName="fill" to="#808080" begin="arrowUp.mouseover" end="arrowUp.mouseout"/>
                  </use>
                  <path fill="none" stroke="white" stroke-width="1.5" d="M0,-3.0v7 M-2.5,-0.5L0,-3.0L2.5,-0.5"/>
                </g>
                <g id="arrowRight" xlink:href="#dirArrow" transform="rotate(90) translate(36 -43)" onmousedown="handlePan(1,0)">
                  <use xlink:href="#rim" fill="#404040">
                        <set attributeName="fill" to="#808080" begin="arrowRight.mouseover" end="arrowRight.mouseout"/>
                  </use>
                  <path fill="none" stroke="white" stroke-width="1.5" d="M0,-3.0v7 M-2.5,-0.5L0,-3.0L2.5,-0.5"/>
                </g>
                <g id="arrowDown" xlink:href="#dirArrow" transform="rotate(180) translate(-30 -48)" onmousedown="handlePan(0,1)">
                  <use xlink:href="#rim" fill="#404040">
                        <set attributeName="fill" to="#808080" begin="arrowDown.mouseover" end="arrowDown.mouseout"/>
                  </use>
                  <path fill="none" stroke="white" stroke-width="1.5" d="M0,-3.0v7 M-2.5,-0.5L0,-3.0L2.5,-0.5"/>
                </g>
                <g id="arrowLeft" xlink:href="#dirArrow" transform="rotate(270) translate(-36 17)" onmousedown="handlePan(-1,0)">
                  <use xlink:href="#rim" fill="#404040">
                        <set attributeName="fill" to="#808080" begin="arrowLeft.mouseover" end="arrowLeft.mouseout"/>
                  </use>
                  <path fill="none" stroke="white" stroke-width="1.5" d="M0,-3.0v7 M-2.5,-0.5L0,-3.0L2.5,-0.5"/>
                </g>
        </g>
        <svg viewBox="0 0 15 15" width="100%" height="30px" preserveAspectRatio="xMaxYMin meet">
         <g id="arrow_out" transform="scale(0.3 0.3)">
          <a xlink:href="classorg_1_1msrg_1_1raccoon_1_1engine_1_1task_1_1SlicesEqual__CodingTask__coll__graph_org.svg" target="_base">
           <rect id="button" ry="5" rx="5" y="6" x="6" height="38" width="38"
                fill="#f2f5e9" fill-opacity="0.5" stroke="#606060" stroke-width="1.0"/>
           <path id="arrow"
             d="M 11.500037,31.436501 C 11.940474,20.09759 22.043105,11.32322 32.158766,21.979434 L 37.068811,17.246167 C 37.068811,17.246167 37.088388,32 37.088388,32 L 22.160133,31.978069 C 22.160133,31.978069 26.997745,27.140456 26.997745,27.140456 C 18.528582,18.264221 13.291696,25.230495 11.500037,31.436501 z"
             style="fill:#404040;"/>
          </a>
         </g>
        </svg>
</svg>
