<?xml version="1.0" encoding="UTF-8" standalone="no"?>
<!DOCTYPE svg PUBLIC "-//W3C//DTD SVG 1.1//EN"
 "http://www.w3.org/Graphics/SVG/1.1/DTD/svg11.dtd">
<!-- Generated by graphviz version 2.38.0 (20140413.2041)
 -->
<!-- Title: org.msrg.raccoon.matrix.finitefields.ByteMatrix.multiply Pages: 1 -->
<!--zoomable 186 -->
<svg id="main" version="1.1" xmlns="http://www.w3.org/2000/svg" xmlns:xlink="http://www.w3.org/1999/xlink" xml:space="preserve" onload="init(evt)">
<style type="text/css"><![CDATA[
.edge:hover path { stroke: red; }
.edge:hover polygon { stroke: red; fill: red; }
]]></style>
<script type="text/javascript"><![CDATA[
var edges = document.getElementsByTagName('g');
if (edges && edges.length) {
  for (var i=0;i<edges.length;i++) {
    if (edges[i].id.substr(0,4)=='edge') {
      edges[i].setAttribute('class','edge');
    }
  }
}
]]></script>
        <defs>
                <circle id="rim" cx="0" cy="0" r="7"/>
                <circle id="rim2" cx="0" cy="0" r="3.5"/>
                <g id="zoomPlus">
                        <use xlink:href="#rim" fill="#404040">
                                <set attributeName="fill" to="#808080" begin="zoomplus.mouseover" end="zoomplus.mouseout"/>
                        </use>
                        <path d="M-4,0h8M0,-4v8" fill="none" stroke="white" stroke-width="1.5" pointer-events="none"/>
                </g>
                <g id="zoomMin">
                        <use xlink:href="#rim" fill="#404040">
                                <set attributeName="fill" to="#808080" begin="zoomminus.mouseover" end="zoomminus.mouseout"/>
                        </use>
                        <path d="M-4,0h8" fill="none" stroke="white" stroke-width="1.5" pointer-events="none"/>
                </g>
                <g id="dirArrow">
                        <path fill="none" stroke="white" stroke-width="1.5" d="M0,-3.0v7 M-2.5,-0.5L0,-3.0L2.5,-0.5"/>
                </g>
               <g id="resetDef">
                       <use xlink:href="#rim2" fill="#404040">
                               <set attributeName="fill" to="#808080" begin="reset.mouseover" end="reset.mouseout"/>
                       </use>
               </g>
        </defs>

<script type="text/javascript">
var viewWidth = 548;
var viewHeight = 186;
var sectionId = 'dynsection-0';
</script>
<script xlink:href="../../svgpan.js"/>
<svg id="graph" class="graph">
<g id="viewport">
<title>org.msrg.raccoon.matrix.finitefields.ByteMatrix.multiply</title>
<!-- Node1 -->
<g id="node1" class="node"><title>Node1</title>
<polygon fill="#bfbfbf" stroke="black" points="0,-73.5 0,-103.5 173,-103.5 173,-73.5 0,-73.5"/>
<text text-anchor="start" x="8" y="-91.5" font-family="Helvetica,sans-Serif" font-size="10.00">org.msrg.raccoon.matrix.finitefields.</text>
<text text-anchor="middle" x="86.5" y="-80.5" font-family="Helvetica,sans-Serif" font-size="10.00">ByteMatrix.multiply</text>
</g>
<!-- Node2 -->
<g id="node2" class="node"><title>Node2</title>
<g id="a_node2"><a xlink:href="../../df/da4/classorg_1_1msrg_1_1raccoon_1_1matrix_1_1bulk_1_1BulkMatrix_a1ea2bca79aa590fdcfa5f472acc479cc.html#a1ea2bca79aa590fdcfa5f472acc479cc" target="_top" xlink:title="org.msrg.raccoon.matrix.bulk.\lBulkMatrix.createEmptyMatrix">
<polygon fill="none" stroke="black" points="209,-147.5 209,-177.5 358,-177.5 358,-147.5 209,-147.5"/>
<text text-anchor="start" x="217" y="-165.5" font-family="Helvetica,sans-Serif" font-size="10.00">org.msrg.raccoon.matrix.bulk.</text>
<text text-anchor="middle" x="283.5" y="-154.5" font-family="Helvetica,sans-Serif" font-size="10.00">BulkMatrix.createEmptyMatrix</text>
</a>
</g>
</g>
<!-- Node1&#45;&gt;Node2 -->
<g id="edge1" class="edge"><title>Node1&#45;&gt;Node2</title>
<path fill="none" stroke="midnightblue" d="M122.057,-103.528C146.225,-113.839 179.356,-127.578 209,-138.5 214.117,-140.385 219.461,-142.277 224.831,-144.125"/>
<polygon fill="midnightblue" stroke="midnightblue" points="223.887,-147.5 234.481,-147.393 226.133,-140.87 223.887,-147.5"/>
</g>
<!-- Node4 -->
<g id="node4" class="node"><title>Node4</title>
<g id="a_node4"><a xlink:href="../../df/da4/classorg_1_1msrg_1_1raccoon_1_1matrix_1_1bulk_1_1BulkMatrix_a804160abadbedfe02caa0c441731a519.html#a804160abadbedfe02caa0c441731a519" target="_top" xlink:title="org.msrg.raccoon.matrix.bulk.\lBulkMatrix.getContent">
<polygon fill="none" stroke="black" points="210.5,-98.5 210.5,-128.5 356.5,-128.5 356.5,-98.5 210.5,-98.5"/>
<text text-anchor="start" x="218.5" y="-116.5" font-family="Helvetica,sans-Serif" font-size="10.00">org.msrg.raccoon.matrix.bulk.</text>
<text text-anchor="middle" x="283.5" y="-105.5" font-family="Helvetica,sans-Serif" font-size="10.00">BulkMatrix.getContent</text>
</a>
</g>
</g>
<!-- Node1&#45;&gt;Node4 -->
<g id="edge3" class="edge"><title>Node1&#45;&gt;Node4</title>
<path fill="none" stroke="midnightblue" d="M173.03,-99.4654C182.101,-100.628 191.312,-101.809 200.343,-102.967"/>
<polygon fill="midnightblue" stroke="midnightblue" points="200.081,-106.462 210.445,-104.262 200.972,-99.5189 200.081,-106.462"/>
</g>
<!-- Node5 -->
<g id="node5" class="node"><title>Node5</title>
<g id="a_node5"><a xlink:href="../../d6/d6d/classorg_1_1msrg_1_1raccoon_1_1matrix_1_1bulk_1_1SliceMatrix_a4c85807433398a037c9d6885569fba0e.html#a4c85807433398a037c9d6885569fba0e" target="_top" xlink:title="org.msrg.raccoon.matrix.bulk.\lSliceMatrix.loadNoCopy">
<polygon fill="none" stroke="black" points="210.5,-49.5 210.5,-79.5 356.5,-79.5 356.5,-49.5 210.5,-49.5"/>
<text text-anchor="start" x="218.5" y="-67.5" font-family="Helvetica,sans-Serif" font-size="10.00">org.msrg.raccoon.matrix.bulk.</text>
<text text-anchor="middle" x="283.5" y="-56.5" font-family="Helvetica,sans-Serif" font-size="10.00">SliceMatrix.loadNoCopy</text>
</a>
</g>
</g>
<!-- Node1&#45;&gt;Node5 -->
<g id="edge4" class="edge"><title>Node1&#45;&gt;Node5</title>
<path fill="none" stroke="midnightblue" d="M173.03,-77.9733C182.101,-76.8568 191.312,-75.7232 200.343,-74.6117"/>
<polygon fill="midnightblue" stroke="midnightblue" points="200.948,-78.0637 210.445,-73.3683 200.093,-71.1161 200.948,-78.0637"/>
</g>
<!-- Node6 -->
<g id="node6" class="node"><title>Node6</title>
<g id="a_node6"><a xlink:href="../../df/da4/classorg_1_1msrg_1_1raccoon_1_1matrix_1_1bulk_1_1BulkMatrix_a7f382b71b1e7fb03fa68f22724f75f88.html#a7f382b71b1e7fb03fa68f22724f75f88" target="_top" xlink:title="org.msrg.raccoon.matrix.bulk.\lBulkMatrix.slice">
<polygon fill="none" stroke="black" points="210.5,-0.5 210.5,-30.5 356.5,-30.5 356.5,-0.5 210.5,-0.5"/>
<text text-anchor="start" x="218.5" y="-18.5" font-family="Helvetica,sans-Serif" font-size="10.00">org.msrg.raccoon.matrix.bulk.</text>
<text text-anchor="middle" x="283.5" y="-7.5" font-family="Helvetica,sans-Serif" font-size="10.00">BulkMatrix.slice</text>
</a>
</g>
</g>
<!-- Node1&#45;&gt;Node6 -->
<g id="edge5" class="edge"><title>Node1&#45;&gt;Node6</title>
<path fill="none" stroke="midnightblue" d="M124.277,-73.4348C148.282,-63.7343 180.366,-51.0188 209,-40.5 214.895,-38.3345 221.079,-36.1291 227.251,-33.97"/>
<polygon fill="midnightblue" stroke="midnightblue" points="228.595,-37.2087 236.898,-30.6278 226.303,-30.5944 228.595,-37.2087"/>
</g>
<!-- Node3 -->
<g id="node3" class="node"><title>Node3</title>
<g id="a_node3"><a xlink:href="../../df/da4/classorg_1_1msrg_1_1raccoon_1_1matrix_1_1bulk_1_1BulkMatrix_ae52685687565b5725a204d70237d300a.html#ae52685687565b5725a204d70237d300a" target="_top" xlink:title="org.msrg.raccoon.matrix.bulk.\lBulkMatrix.BulkMatrix">
<polygon fill="none" stroke="black" points="394,-147.5 394,-177.5 540,-177.5 540,-147.5 394,-147.5"/>
<text text-anchor="start" x="402" y="-165.5" font-family="Helvetica,sans-Serif" font-size="10.00">org.msrg.raccoon.matrix.bulk.</text>
<text text-anchor="middle" x="467" y="-154.5" font-family="Helvetica,sans-Serif" font-size="10.00">BulkMatrix.BulkMatrix</text>
</a>
</g>
</g>
<!-- Node2&#45;&gt;Node3 -->
<g id="edge2" class="edge"><title>Node2&#45;&gt;Node3</title>
<path fill="none" stroke="midnightblue" d="M358.061,-162.5C366.537,-162.5 375.22,-162.5 383.8,-162.5"/>
<polygon fill="midnightblue" stroke="midnightblue" points="383.806,-166 393.806,-162.5 383.806,-159 383.806,-166"/>
</g>
</g>
</svg>
        <g id="navigator" transform="translate(0 0)" fill="#404254">
                <rect fill="#f2f5e9" fill-opacity="0.5" stroke="#606060" stroke-width=".5" x="0" y="0" width="60" height="60"/>
                <use id="zoomplus" xlink:href="#zoomPlus" x="17" y="9" onmousedown="handleZoom(evt,'in')"/>
                <use id="zoomminus" xlink:href="#zoomMin" x="42" y="9" onmousedown="handleZoom(evt,'out')"/>
                <use id="reset" xlink:href="#resetDef" x="30" y="36" onmousedown="handleReset()"/>
                <g id="arrowUp" xlink:href="#dirArrow" transform="translate(30 24)" onmousedown="handlePan(0,-1)">
                  <use xlink:href="#rim" fill="#404040">
                        <set attributeName="fill" to="#808080" begin="arrowUp.mouseover" end="arrowUp.mouseout"/>
                  </use>
                  <path fill="none" stroke="white" stroke-width="1.5" d="M0,-3.0v7 M-2.5,-0.5L0,-3.0L2.5,-0.5"/>
                </g>
                <g id="arrowRight" xlink:href="#dirArrow" transform="rotate(90) translate(36 -43)" onmousedown="handlePan(1,0)">
                  <use xlink:href="#rim" fill="#404040">
                        <set attributeName="fill" to="#808080" begin="arrowRight.mouseover" end="arrowRight.mouseout"/>
                  </use>
                  <path fill="none" stroke="white" stroke-width="1.5" d="M0,-3.0v7 M-2.5,-0.5L0,-3.0L2.5,-0.5"/>
                </g>
                <g id="arrowDown" xlink:href="#dirArrow" transform="rotate(180) translate(-30 -48)" onmousedown="handlePan(0,1)">
                  <use xlink:href="#rim" fill="#404040">
                        <set attributeName="fill" to="#808080" begin="arrowDown.mouseover" end="arrowDown.mouseout"/>
                  </use>
                  <path fill="none" stroke="white" stroke-width="1.5" d="M0,-3.0v7 M-2.5,-0.5L0,-3.0L2.5,-0.5"/>
                </g>
                <g id="arrowLeft" xlink:href="#dirArrow" transform="rotate(270) translate(-36 17)" onmousedown="handlePan(-1,0)">
                  <use xlink:href="#rim" fill="#404040">
                        <set attributeName="fill" to="#808080" begin="arrowLeft.mouseover" end="arrowLeft.mouseout"/>
                  </use>
                  <path fill="none" stroke="white" stroke-width="1.5" d="M0,-3.0v7 M-2.5,-0.5L0,-3.0L2.5,-0.5"/>
                </g>
        </g>
        <svg viewBox="0 0 15 15" width="100%" height="30px" preserveAspectRatio="xMaxYMin meet">
         <g id="arrow_out" transform="scale(0.3 0.3)">
          <a xlink:href="classorg_1_1msrg_1_1raccoon_1_1matrix_1_1finitefields_1_1ByteMatrix_a5a3c18a9905c1d33c6a992930e2b6a78_a5a3c18a9905c1d33c6a992930e2b6a78_cgraph_org.svg" target="_base">
           <rect id="button" ry="5" rx="5" y="6" x="6" height="38" width="38"
                fill="#f2f5e9" fill-opacity="0.5" stroke="#606060" stroke-width="1.0"/>
           <path id="arrow"
             d="M 11.500037,31.436501 C 11.940474,20.09759 22.043105,11.32322 32.158766,21.979434 L 37.068811,17.246167 C 37.068811,17.246167 37.088388,32 37.088388,32 L 22.160133,31.978069 C 22.160133,31.978069 26.997745,27.140456 26.997745,27.140456 C 18.528582,18.264221 13.291696,25.230495 11.500037,31.436501 z"
             style="fill:#404040;"/>
          </a>
         </g>
        </svg>
</svg>
