<?xml version="1.0" encoding="UTF-8" standalone="no"?>
<!DOCTYPE svg PUBLIC "-//W3C//DTD SVG 1.1//EN"
 "http://www.w3.org/Graphics/SVG/1.1/DTD/svg11.dtd">
<!-- Generated by graphviz version 2.38.0 (20140413.2041)
 -->
<!-- Title: org.msrg.raccoon.matrix.finitefields.ByteMatrix.ByteMatrix Pages: 1 -->
<svg width="859pt" height="259pt"
 viewBox="0.00 0.00 859.00 258.50" xmlns="http://www.w3.org/2000/svg" xmlns:xlink="http://www.w3.org/1999/xlink">
<g id="graph0" class="graph" transform="scale(1 1) rotate(0) translate(4 254.5)">
<title>org.msrg.raccoon.matrix.finitefields.ByteMatrix.ByteMatrix</title>
<!-- Node1 -->
<g id="node1" class="node"><title>Node1</title>
<polygon fill="#bfbfbf" stroke="black" points="0,-134.5 0,-164.5 173,-164.5 173,-134.5 0,-134.5"/>
<text text-anchor="start" x="8" y="-152.5" font-family="Helvetica,sans-Serif" font-size="10.00">org.msrg.raccoon.matrix.finitefields.</text>
<text text-anchor="middle" x="86.5" y="-141.5" font-family="Helvetica,sans-Serif" font-size="10.00">ByteMatrix.ByteMatrix</text>
</g>
<!-- Node2 -->
<g id="node2" class="node"><title>Node2</title>
<g id="a_node2"><a xlink:href="../../dd/d36/classorg_1_1msrg_1_1raccoon_1_1matrix_1_1finitefields_1_1ByteMatrix_a00c5dd396ae8e6d1af0c5aa19ff8d35b.html#a00c5dd396ae8e6d1af0c5aa19ff8d35b" target="_top" xlink:title="org.msrg.raccoon.matrix.finitefields.\lByteMatrix.createMatrix">
<polygon fill="none" stroke="black" points="211.5,-211.5 211.5,-241.5 384.5,-241.5 384.5,-211.5 211.5,-211.5"/>
<text text-anchor="start" x="219.5" y="-229.5" font-family="Helvetica,sans-Serif" font-size="10.00">org.msrg.raccoon.matrix.finitefields.</text>
<text text-anchor="middle" x="298" y="-218.5" font-family="Helvetica,sans-Serif" font-size="10.00">ByteMatrix.createMatrix</text>
</a>
</g>
</g>
<!-- Node1&#45;&gt;Node2 -->
<g id="edge1" class="edge"><title>Node1&#45;&gt;Node2</title>
<path fill="none" stroke="midnightblue" d="M131.197,-168.631C154.158,-178.39 182.883,-190.142 209,-199.5 220.584,-203.651 233.161,-207.747 245.085,-211.446"/>
<polygon fill="midnightblue" stroke="midnightblue" points="132.305,-165.299 121.735,-164.584 129.552,-171.735 132.305,-165.299"/>
</g>
<!-- Node4 -->
<g id="node4" class="node"><title>Node4</title>
<g id="a_node4"><a xlink:href="../../dd/d36/classorg_1_1msrg_1_1raccoon_1_1matrix_1_1finitefields_1_1ByteMatrix_a2f91c40940dc3ba0911b113641888bb5.html#a2f91c40940dc3ba0911b113641888bb5" target="_top" xlink:title="org.msrg.raccoon.matrix.finitefields.\lByteMatrix.createNewMatrix">
<polygon fill="none" stroke="black" points="211.5,-159.5 211.5,-189.5 384.5,-189.5 384.5,-159.5 211.5,-159.5"/>
<text text-anchor="start" x="219.5" y="-177.5" font-family="Helvetica,sans-Serif" font-size="10.00">org.msrg.raccoon.matrix.finitefields.</text>
<text text-anchor="middle" x="298" y="-166.5" font-family="Helvetica,sans-Serif" font-size="10.00">ByteMatrix.createNewMatrix</text>
</a>
</g>
</g>
<!-- Node1&#45;&gt;Node4 -->
<g id="edge3" class="edge"><title>Node1&#45;&gt;Node4</title>
<path fill="none" stroke="midnightblue" d="M183.18,-160.918C192.597,-162.041 202.113,-163.177 211.42,-164.288"/>
<polygon fill="midnightblue" stroke="midnightblue" points="183.358,-157.414 173.014,-159.705 182.529,-164.365 183.358,-157.414"/>
</g>
<!-- Node5 -->
<g id="node5" class="node"><title>Node5</title>
<g id="a_node5"><a xlink:href="../../dd/d36/classorg_1_1msrg_1_1raccoon_1_1matrix_1_1finitefields_1_1ByteMatrix_ac958e4d2d814edc27719b059d8fd08c2.html#ac958e4d2d814edc27719b059d8fd08c2" target="_top" xlink:title="org.msrg.raccoon.matrix.finitefields.\lByteMatrix.createRandomByteMatrix">
<polygon fill="none" stroke="black" points="209,-110.5 209,-140.5 387,-140.5 387,-110.5 209,-110.5"/>
<text text-anchor="start" x="217" y="-128.5" font-family="Helvetica,sans-Serif" font-size="10.00">org.msrg.raccoon.matrix.finitefields.</text>
<text text-anchor="middle" x="298" y="-117.5" font-family="Helvetica,sans-Serif" font-size="10.00">ByteMatrix.createRandomByteMatrix</text>
</a>
</g>
</g>
<!-- Node1&#45;&gt;Node5 -->
<g id="edge4" class="edge"><title>Node1&#45;&gt;Node5</title>
<path fill="none" stroke="midnightblue" d="M183.008,-138.559C191.565,-137.578 200.206,-136.589 208.699,-135.616"/>
<polygon fill="midnightblue" stroke="midnightblue" points="182.55,-135.088 173.014,-139.704 183.347,-142.043 182.55,-135.088"/>
</g>
<!-- Node11 -->
<g id="node11" class="node"><title>Node11</title>
<g id="a_node11"><a xlink:href="../../dd/d36/classorg_1_1msrg_1_1raccoon_1_1matrix_1_1finitefields_1_1ByteMatrix_aade8453eba849913f091802652231557.html#aade8453eba849913f091802652231557" target="_top" xlink:title="org.msrg.raccoon.matrix.finitefields.\lByteMatrix.getZeroMatrix">
<polygon fill="none" stroke="black" points="211.5,-61.5 211.5,-91.5 384.5,-91.5 384.5,-61.5 211.5,-61.5"/>
<text text-anchor="start" x="219.5" y="-79.5" font-family="Helvetica,sans-Serif" font-size="10.00">org.msrg.raccoon.matrix.finitefields.</text>
<text text-anchor="middle" x="298" y="-68.5" font-family="Helvetica,sans-Serif" font-size="10.00">ByteMatrix.getZeroMatrix</text>
</a>
</g>
</g>
<!-- Node1&#45;&gt;Node11 -->
<g id="edge10" class="edge"><title>Node1&#45;&gt;Node11</title>
<path fill="none" stroke="midnightblue" d="M132.183,-130.615C154.973,-121.299 183.249,-110.22 209,-101.5 219.229,-98.0359 230.233,-94.6482 240.879,-91.5407"/>
<polygon fill="midnightblue" stroke="midnightblue" points="130.69,-127.444 122.776,-134.488 133.355,-133.917 130.69,-127.444"/>
</g>
<!-- Node3 -->
<g id="node3" class="node"><title>Node3</title>
<g id="a_node3"><a xlink:href="../../d5/d96/classorg_1_1msrg_1_1raccoon_1_1matrix_1_1finitefields_1_1ByteMatrixTest_af84f780201f4ae5e9d625748fa84ca38.html#af84f780201f4ae5e9d625748fa84ca38" target="_top" xlink:title="org.msrg.raccoon.matrix.finitefields.\lByteMatrixTest.testM2timesInvIsM\l_HasNoInvserse">
<polygon fill="none" stroke="black" points="446,-209 446,-250 619,-250 619,-209 446,-209"/>
<text text-anchor="start" x="454" y="-238" font-family="Helvetica,sans-Serif" font-size="10.00">org.msrg.raccoon.matrix.finitefields.</text>
<text text-anchor="start" x="454" y="-227" font-family="Helvetica,sans-Serif" font-size="10.00">ByteMatrixTest.testM2timesInvIsM</text>
<text text-anchor="middle" x="532.5" y="-216" font-family="Helvetica,sans-Serif" font-size="10.00">_HasNoInvserse</text>
</a>
</g>
</g>
<!-- Node2&#45;&gt;Node3 -->
<g id="edge2" class="edge"><title>Node2&#45;&gt;Node3</title>
<path fill="none" stroke="midnightblue" d="M394.967,-227.738C411.786,-227.955 429.189,-228.18 445.709,-228.393"/>
<polygon fill="midnightblue" stroke="midnightblue" points="394.628,-224.234 384.584,-227.604 394.538,-231.233 394.628,-224.234"/>
</g>
<!-- Node6 -->
<g id="node6" class="node"><title>Node6</title>
<g id="a_node6"><a xlink:href="../../d5/d96/classorg_1_1msrg_1_1raccoon_1_1matrix_1_1finitefields_1_1ByteMatrixTest_a2fbf8530351ff362158e4f2e5c036171.html#a2fbf8530351ff362158e4f2e5c036171" target="_top" xlink:title="org.msrg.raccoon.matrix.finitefields.\lByteMatrixTest.runTestManyInverse">
<polygon fill="none" stroke="black" points="444.5,-159.5 444.5,-189.5 620.5,-189.5 620.5,-159.5 444.5,-159.5"/>
<text text-anchor="start" x="452.5" y="-177.5" font-family="Helvetica,sans-Serif" font-size="10.00">org.msrg.raccoon.matrix.finitefields.</text>
<text text-anchor="middle" x="532.5" y="-166.5" font-family="Helvetica,sans-Serif" font-size="10.00">ByteMatrixTest.runTestManyInverse</text>
</a>
</g>
</g>
<!-- Node5&#45;&gt;Node6 -->
<g id="edge5" class="edge"><title>Node5&#45;&gt;Node6</title>
<path fill="none" stroke="midnightblue" d="M380.198,-142.613C406.289,-148.111 434.979,-154.158 460.297,-159.494"/>
<polygon fill="midnightblue" stroke="midnightblue" points="380.845,-139.172 370.338,-140.535 379.401,-146.022 380.845,-139.172"/>
</g>
<!-- Node8 -->
<g id="node8" class="node"><title>Node8</title>
<g id="a_node8"><a xlink:href="../../dc/dcf/classorg_1_1msrg_1_1raccoon_1_1engine_1_1CodingEngineTest_a1a3ce31a699af797e95ece5666d7e394.html#a1a3ce31a699af797e95ece5666d7e394" target="_top" xlink:title="org.msrg.raccoon.engine.\lCodingEngineTest.setUp">
<polygon fill="none" stroke="black" points="469,-110.5 469,-140.5 596,-140.5 596,-110.5 469,-110.5"/>
<text text-anchor="start" x="477" y="-128.5" font-family="Helvetica,sans-Serif" font-size="10.00">org.msrg.raccoon.engine.</text>
<text text-anchor="middle" x="532.5" y="-117.5" font-family="Helvetica,sans-Serif" font-size="10.00">CodingEngineTest.setUp</text>
</a>
</g>
</g>
<!-- Node5&#45;&gt;Node8 -->
<g id="edge7" class="edge"><title>Node5&#45;&gt;Node8</title>
<path fill="none" stroke="midnightblue" d="M397.483,-125.5C421.586,-125.5 446.732,-125.5 468.645,-125.5"/>
<polygon fill="midnightblue" stroke="midnightblue" points="397.23,-122 387.23,-125.5 397.23,-129 397.23,-122"/>
</g>
<!-- Node9 -->
<g id="node9" class="node"><title>Node9</title>
<g id="a_node9"><a xlink:href="../../d5/d96/classorg_1_1msrg_1_1raccoon_1_1matrix_1_1finitefields_1_1ByteMatrixTest_a810788f9ce020bbab969821becb0ef3f.html#a810788f9ce020bbab969821becb0ef3f" target="_top" xlink:title="org.msrg.raccoon.matrix.finitefields.\lByteMatrixTest.testM2timesInvIsM\l_HasInvserse">
<polygon fill="none" stroke="black" points="446,-50 446,-91 619,-91 619,-50 446,-50"/>
<text text-anchor="start" x="454" y="-79" font-family="Helvetica,sans-Serif" font-size="10.00">org.msrg.raccoon.matrix.finitefields.</text>
<text text-anchor="start" x="454" y="-68" font-family="Helvetica,sans-Serif" font-size="10.00">ByteMatrixTest.testM2timesInvIsM</text>
<text text-anchor="middle" x="532.5" y="-57" font-family="Helvetica,sans-Serif" font-size="10.00">_HasInvserse</text>
</a>
</g>
</g>
<!-- Node5&#45;&gt;Node9 -->
<g id="edge8" class="edge"><title>Node5&#45;&gt;Node9</title>
<path fill="none" stroke="midnightblue" d="M372.352,-108.148C395.682,-102.629 421.692,-96.476 445.813,-90.77"/>
<polygon fill="midnightblue" stroke="midnightblue" points="371.457,-104.763 362.532,-110.471 373.069,-111.575 371.457,-104.763"/>
</g>
<!-- Node10 -->
<g id="node10" class="node"><title>Node10</title>
<g id="a_node10"><a xlink:href="../../d5/d96/classorg_1_1msrg_1_1raccoon_1_1matrix_1_1finitefields_1_1ByteMatrixTest_ac60808b559cdc155d008f0d650fe5c34.html#ac60808b559cdc155d008f0d650fe5c34" target="_top" xlink:title="org.msrg.raccoon.matrix.finitefields.\lByteMatrixTest.testMtimesBMtimesInvMIsBM">
<polygon fill="none" stroke="black" points="423,-0.5 423,-30.5 642,-30.5 642,-0.5 423,-0.5"/>
<text text-anchor="start" x="431" y="-18.5" font-family="Helvetica,sans-Serif" font-size="10.00">org.msrg.raccoon.matrix.finitefields.</text>
<text text-anchor="middle" x="532.5" y="-7.5" font-family="Helvetica,sans-Serif" font-size="10.00">ByteMatrixTest.testMtimesBMtimesInvMIsBM</text>
</a>
</g>
</g>
<!-- Node5&#45;&gt;Node10 -->
<g id="edge9" class="edge"><title>Node5&#45;&gt;Node10</title>
<path fill="none" stroke="midnightblue" d="M379.302,-105.704C381.98,-104.102 384.557,-102.371 387,-100.5 411.689,-81.591 397.843,-58.7817 423,-40.5 428.317,-36.6363 434.135,-33.358 440.228,-30.5776"/>
<polygon fill="midnightblue" stroke="midnightblue" points="377.653,-102.617 370.454,-110.39 380.929,-108.803 377.653,-102.617"/>
</g>
<!-- Node7 -->
<g id="node7" class="node"><title>Node7</title>
<g id="a_node7"><a xlink:href="../../d5/d96/classorg_1_1msrg_1_1raccoon_1_1matrix_1_1finitefields_1_1ByteMatrixTest_ab8f3114007e92860f4f740a9cbae6e18.html#ab8f3114007e92860f4f740a9cbae6e18" target="_top" xlink:title="org.msrg.raccoon.matrix.finitefields.\lByteMatrixTest.testManyInverse">
<polygon fill="none" stroke="black" points="678,-159.5 678,-189.5 851,-189.5 851,-159.5 678,-159.5"/>
<text text-anchor="start" x="686" y="-177.5" font-family="Helvetica,sans-Serif" font-size="10.00">org.msrg.raccoon.matrix.finitefields.</text>
<text text-anchor="middle" x="764.5" y="-166.5" font-family="Helvetica,sans-Serif" font-size="10.00">ByteMatrixTest.testManyInverse</text>
</a>
</g>
</g>
<!-- Node6&#45;&gt;Node7 -->
<g id="edge6" class="edge"><title>Node6&#45;&gt;Node7</title>
<path fill="none" stroke="midnightblue" d="M630.939,-174.5C646.513,-174.5 662.526,-174.5 677.801,-174.5"/>
<polygon fill="midnightblue" stroke="midnightblue" points="630.781,-171 620.781,-174.5 630.781,-178 630.781,-171"/>
</g>
</g>
</svg>
