<?xml version="1.0" encoding="UTF-8" standalone="no"?>
<!DOCTYPE svg PUBLIC "-//W3C//DTD SVG 1.1//EN"
 "http://www.w3.org/Graphics/SVG/1.1/DTD/svg11.dtd">
<!-- Generated by graphviz version 2.38.0 (20140413.2041)
 -->
<!-- Title: org.msrg.raccoon.matrix.finitefields.ByteMatrix.multiply Pages: 1 -->
<svg width="548pt" height="186pt"
 viewBox="0.00 0.00 548.00 186.00" xmlns="http://www.w3.org/2000/svg" xmlns:xlink="http://www.w3.org/1999/xlink">
<g id="graph0" class="graph" transform="scale(1 1) rotate(0) translate(4 182)">
<title>org.msrg.raccoon.matrix.finitefields.ByteMatrix.multiply</title>
<!-- Node0 -->
<g id="node1" class="node"><title>Node0</title>
<polygon fill="#bfbfbf" stroke="black" points="0,-73.5 0,-103.5 173,-103.5 173,-73.5 0,-73.5"/>
<text text-anchor="start" x="8" y="-91.5" font-family="Helvetica,sans-Serif" font-size="10.00">org.msrg.raccoon.matrix.finitefields.</text>
<text text-anchor="middle" x="86.5" y="-80.5" font-family="Helvetica,sans-Serif" font-size="10.00">ByteMatrix.multiply</text>
</g>
<!-- Node1 -->
<g id="node2" class="node"><title>Node1</title>
<g id="a_node2"><a xlink:href="../../df/da4/classorg_1_1msrg_1_1raccoon_1_1matrix_1_1bulk_1_1BulkMatrix_a1ea2bca79aa590fdcfa5f472acc479cc.html#a1ea2bca79aa590fdcfa5f472acc479cc" target="_top" xlink:title="org.msrg.raccoon.matrix.bulk.\lBulkMatrix.createEmptyMatrix">
<polygon fill="none" stroke="black" points="209,-147.5 209,-177.5 358,-177.5 358,-147.5 209,-147.5"/>
<text text-anchor="start" x="217" y="-165.5" font-family="Helvetica,sans-Serif" font-size="10.00">org.msrg.raccoon.matrix.bulk.</text>
<text text-anchor="middle" x="283.5" y="-154.5" font-family="Helvetica,sans-Serif" font-size="10.00">BulkMatrix.createEmptyMatrix</text>
</a>
</g>
</g>
<!-- Node0&#45;&gt;Node1 -->
<g id="edge1" class="edge"><title>Node0&#45;&gt;Node1</title>
<path fill="none" stroke="midnightblue" d="M122.057,-103.528C146.225,-113.839 179.356,-127.578 209,-138.5 214.117,-140.385 219.461,-142.277 224.831,-144.125"/>
<polygon fill="midnightblue" stroke="midnightblue" points="223.887,-147.5 234.481,-147.393 226.133,-140.87 223.887,-147.5"/>
</g>
<!-- Node3 -->
<g id="node4" class="node"><title>Node3</title>
<g id="a_node4"><a xlink:href="../../df/da4/classorg_1_1msrg_1_1raccoon_1_1matrix_1_1bulk_1_1BulkMatrix_a804160abadbedfe02caa0c441731a519.html#a804160abadbedfe02caa0c441731a519" target="_top" xlink:title="org.msrg.raccoon.matrix.bulk.\lBulkMatrix.getContent">
<polygon fill="none" stroke="black" points="210.5,-98.5 210.5,-128.5 356.5,-128.5 356.5,-98.5 210.5,-98.5"/>
<text text-anchor="start" x="218.5" y="-116.5" font-family="Helvetica,sans-Serif" font-size="10.00">org.msrg.raccoon.matrix.bulk.</text>
<text text-anchor="middle" x="283.5" y="-105.5" font-family="Helvetica,sans-Serif" font-size="10.00">BulkMatrix.getContent</text>
</a>
</g>
</g>
<!-- Node0&#45;&gt;Node3 -->
<g id="edge3" class="edge"><title>Node0&#45;&gt;Node3</title>
<path fill="none" stroke="midnightblue" d="M173.03,-99.4654C182.101,-100.628 191.312,-101.809 200.343,-102.967"/>
<polygon fill="midnightblue" stroke="midnightblue" points="200.081,-106.462 210.445,-104.262 200.972,-99.5189 200.081,-106.462"/>
</g>
<!-- Node4 -->
<g id="node5" class="node"><title>Node4</title>
<g id="a_node5"><a xlink:href="../../d6/d6d/classorg_1_1msrg_1_1raccoon_1_1matrix_1_1bulk_1_1SliceMatrix_a4c85807433398a037c9d6885569fba0e.html#a4c85807433398a037c9d6885569fba0e" target="_top" xlink:title="org.msrg.raccoon.matrix.bulk.\lSliceMatrix.loadNoCopy">
<polygon fill="none" stroke="black" points="210.5,-49.5 210.5,-79.5 356.5,-79.5 356.5,-49.5 210.5,-49.5"/>
<text text-anchor="start" x="218.5" y="-67.5" font-family="Helvetica,sans-Serif" font-size="10.00">org.msrg.raccoon.matrix.bulk.</text>
<text text-anchor="middle" x="283.5" y="-56.5" font-family="Helvetica,sans-Serif" font-size="10.00">SliceMatrix.loadNoCopy</text>
</a>
</g>
</g>
<!-- Node0&#45;&gt;Node4 -->
<g id="edge4" class="edge"><title>Node0&#45;&gt;Node4</title>
<path fill="none" stroke="midnightblue" d="M173.03,-77.9733C182.101,-76.8568 191.312,-75.7232 200.343,-74.6117"/>
<polygon fill="midnightblue" stroke="midnightblue" points="200.948,-78.0637 210.445,-73.3683 200.093,-71.1161 200.948,-78.0637"/>
</g>
<!-- Node5 -->
<g id="node6" class="node"><title>Node5</title>
<g id="a_node6"><a xlink:href="../../df/da4/classorg_1_1msrg_1_1raccoon_1_1matrix_1_1bulk_1_1BulkMatrix_a7f382b71b1e7fb03fa68f22724f75f88.html#a7f382b71b1e7fb03fa68f22724f75f88" target="_top" xlink:title="org.msrg.raccoon.matrix.bulk.\lBulkMatrix.slice">
<polygon fill="none" stroke="black" points="210.5,-0.5 210.5,-30.5 356.5,-30.5 356.5,-0.5 210.5,-0.5"/>
<text text-anchor="start" x="218.5" y="-18.5" font-family="Helvetica,sans-Serif" font-size="10.00">org.msrg.raccoon.matrix.bulk.</text>
<text text-anchor="middle" x="283.5" y="-7.5" font-family="Helvetica,sans-Serif" font-size="10.00">BulkMatrix.slice</text>
</a>
</g>
</g>
<!-- Node0&#45;&gt;Node5 -->
<g id="edge5" class="edge"><title>Node0&#45;&gt;Node5</title>
<path fill="none" stroke="midnightblue" d="M124.277,-73.4348C148.282,-63.7343 180.366,-51.0188 209,-40.5 214.895,-38.3345 221.079,-36.1291 227.251,-33.97"/>
<polygon fill="midnightblue" stroke="midnightblue" points="228.595,-37.2087 236.898,-30.6278 226.303,-30.5944 228.595,-37.2087"/>
</g>
<!-- Node2 -->
<g id="node3" class="node"><title>Node2</title>
<g id="a_node3"><a xlink:href="../../df/da4/classorg_1_1msrg_1_1raccoon_1_1matrix_1_1bulk_1_1BulkMatrix_ae52685687565b5725a204d70237d300a.html#ae52685687565b5725a204d70237d300a" target="_top" xlink:title="org.msrg.raccoon.matrix.bulk.\lBulkMatrix.BulkMatrix">
<polygon fill="none" stroke="black" points="394,-147.5 394,-177.5 540,-177.5 540,-147.5 394,-147.5"/>
<text text-anchor="start" x="402" y="-165.5" font-family="Helvetica,sans-Serif" font-size="10.00">org.msrg.raccoon.matrix.bulk.</text>
<text text-anchor="middle" x="467" y="-154.5" font-family="Helvetica,sans-Serif" font-size="10.00">BulkMatrix.BulkMatrix</text>
</a>
</g>
</g>
<!-- Node1&#45;&gt;Node2 -->
<g id="edge2" class="edge"><title>Node1&#45;&gt;Node2</title>
<path fill="none" stroke="midnightblue" d="M358.061,-162.5C366.537,-162.5 375.22,-162.5 383.8,-162.5"/>
<polygon fill="midnightblue" stroke="midnightblue" points="383.806,-166 393.806,-162.5 383.806,-159 383.806,-166"/>
</g>
</g>
</svg>
