<?xml version="1.0" encoding="UTF-8" standalone="no"?>
<!DOCTYPE svg PUBLIC "-//W3C//DTD SVG 1.1//EN"
 "http://www.w3.org/Graphics/SVG/1.1/DTD/svg11.dtd">
<!-- Generated by graphviz version 2.38.0 (20140413.2041)
 -->
<!-- Title: org.msrg.raccoon.matrix.finitefields.ByteMatrix.ByteMatrix Pages: 1 -->
<svg width="859pt" height="256pt"
 viewBox="0.00 0.00 859.00 255.50" xmlns="http://www.w3.org/2000/svg" xmlns:xlink="http://www.w3.org/1999/xlink">
<g id="graph0" class="graph" transform="scale(1 1) rotate(0) translate(4 251.5)">
<title>org.msrg.raccoon.matrix.finitefields.ByteMatrix.ByteMatrix</title>
<!-- Node1 -->
<g id="node1" class="node"><title>Node1</title>
<polygon fill="#bfbfbf" stroke="black" points="0,-132.5 0,-162.5 173,-162.5 173,-132.5 0,-132.5"/>
<text text-anchor="start" x="8" y="-150.5" font-family="Helvetica,sans-Serif" font-size="10.00">org.msrg.raccoon.matrix.finitefields.</text>
<text text-anchor="middle" x="86.5" y="-139.5" font-family="Helvetica,sans-Serif" font-size="10.00">ByteMatrix.ByteMatrix</text>
</g>
<!-- Node2 -->
<g id="node2" class="node"><title>Node2</title>
<g id="a_node2"><a xlink:href="../../dd/d36/classorg_1_1msrg_1_1raccoon_1_1matrix_1_1finitefields_1_1ByteMatrix_a00c5dd396ae8e6d1af0c5aa19ff8d35b.html#a00c5dd396ae8e6d1af0c5aa19ff8d35b" target="_top" xlink:title="org.msrg.raccoon.matrix.finitefields.\lByteMatrix.createMatrix">
<polygon fill="none" stroke="black" points="211.5,-208.5 211.5,-238.5 384.5,-238.5 384.5,-208.5 211.5,-208.5"/>
<text text-anchor="start" x="219.5" y="-226.5" font-family="Helvetica,sans-Serif" font-size="10.00">org.msrg.raccoon.matrix.finitefields.</text>
<text text-anchor="middle" x="298" y="-215.5" font-family="Helvetica,sans-Serif" font-size="10.00">ByteMatrix.createMatrix</text>
</a>
</g>
</g>
<!-- Node1&#45;&gt;Node2 -->
<g id="edge1" class="edge"><title>Node1&#45;&gt;Node2</title>
<path fill="none" stroke="midnightblue" d="M130.91,-166.638C153.9,-176.449 182.741,-188.245 209,-197.5 219.818,-201.313 231.512,-205.037 242.733,-208.422"/>
<polygon fill="midnightblue" stroke="midnightblue" points="132.009,-163.301 121.44,-162.569 129.245,-169.733 132.009,-163.301"/>
</g>
<!-- Node4 -->
<g id="node4" class="node"><title>Node4</title>
<g id="a_node4"><a xlink:href="../../dd/d36/classorg_1_1msrg_1_1raccoon_1_1matrix_1_1finitefields_1_1ByteMatrix_a2f91c40940dc3ba0911b113641888bb5.html#a2f91c40940dc3ba0911b113641888bb5" target="_top" xlink:title="org.msrg.raccoon.matrix.finitefields.\lByteMatrix.createNewMatrix">
<polygon fill="none" stroke="black" points="211.5,-157.5 211.5,-187.5 384.5,-187.5 384.5,-157.5 211.5,-157.5"/>
<text text-anchor="start" x="219.5" y="-175.5" font-family="Helvetica,sans-Serif" font-size="10.00">org.msrg.raccoon.matrix.finitefields.</text>
<text text-anchor="middle" x="298" y="-164.5" font-family="Helvetica,sans-Serif" font-size="10.00">ByteMatrix.createNewMatrix</text>
</a>
</g>
</g>
<!-- Node1&#45;&gt;Node4 -->
<g id="edge3" class="edge"><title>Node1&#45;&gt;Node4</title>
<path fill="none" stroke="midnightblue" d="M183.18,-158.918C192.597,-160.041 202.113,-161.177 211.42,-162.288"/>
<polygon fill="midnightblue" stroke="midnightblue" points="183.358,-155.414 173.014,-157.705 182.529,-162.365 183.358,-155.414"/>
</g>
<!-- Node5 -->
<g id="node5" class="node"><title>Node5</title>
<g id="a_node5"><a xlink:href="../../dd/d36/classorg_1_1msrg_1_1raccoon_1_1matrix_1_1finitefields_1_1ByteMatrix_ac958e4d2d814edc27719b059d8fd08c2.html#ac958e4d2d814edc27719b059d8fd08c2" target="_top" xlink:title="org.msrg.raccoon.matrix.finitefields.\lByteMatrix.createRandomByteMatrix">
<polygon fill="none" stroke="black" points="209,-108.5 209,-138.5 387,-138.5 387,-108.5 209,-108.5"/>
<text text-anchor="start" x="217" y="-126.5" font-family="Helvetica,sans-Serif" font-size="10.00">org.msrg.raccoon.matrix.finitefields.</text>
<text text-anchor="middle" x="298" y="-115.5" font-family="Helvetica,sans-Serif" font-size="10.00">ByteMatrix.createRandomByteMatrix</text>
</a>
</g>
</g>
<!-- Node1&#45;&gt;Node5 -->
<g id="edge4" class="edge"><title>Node1&#45;&gt;Node5</title>
<path fill="none" stroke="midnightblue" d="M183.008,-136.559C191.565,-135.578 200.206,-134.589 208.699,-133.616"/>
<polygon fill="midnightblue" stroke="midnightblue" points="182.55,-133.088 173.014,-137.704 183.347,-140.043 182.55,-133.088"/>
</g>
<!-- Node11 -->
<g id="node11" class="node"><title>Node11</title>
<g id="a_node11"><a xlink:href="../../dd/d36/classorg_1_1msrg_1_1raccoon_1_1matrix_1_1finitefields_1_1ByteMatrix_aade8453eba849913f091802652231557.html#aade8453eba849913f091802652231557" target="_top" xlink:title="org.msrg.raccoon.matrix.finitefields.\lByteMatrix.getZeroMatrix">
<polygon fill="none" stroke="black" points="211.5,-59.5 211.5,-89.5 384.5,-89.5 384.5,-59.5 211.5,-59.5"/>
<text text-anchor="start" x="219.5" y="-77.5" font-family="Helvetica,sans-Serif" font-size="10.00">org.msrg.raccoon.matrix.finitefields.</text>
<text text-anchor="middle" x="298" y="-66.5" font-family="Helvetica,sans-Serif" font-size="10.00">ByteMatrix.getZeroMatrix</text>
</a>
</g>
</g>
<!-- Node1&#45;&gt;Node11 -->
<g id="edge10" class="edge"><title>Node1&#45;&gt;Node11</title>
<path fill="none" stroke="midnightblue" d="M132.183,-128.615C154.973,-119.299 183.249,-108.22 209,-99.5 219.229,-96.0359 230.233,-92.6482 240.879,-89.5407"/>
<polygon fill="midnightblue" stroke="midnightblue" points="130.69,-125.444 122.776,-132.488 133.355,-131.917 130.69,-125.444"/>
</g>
<!-- Node3 -->
<g id="node3" class="node"><title>Node3</title>
<g id="a_node3"><a xlink:href="../../d5/d96/classorg_1_1msrg_1_1raccoon_1_1matrix_1_1finitefields_1_1ByteMatrixTest_af84f780201f4ae5e9d625748fa84ca38.html#af84f780201f4ae5e9d625748fa84ca38" target="_top" xlink:title="org.msrg.raccoon.matrix.finitefields.\lByteMatrixTest.testM2timesInvIsM\l_HasNoInvserse">
<polygon fill="none" stroke="black" points="446,-206 446,-247 619,-247 619,-206 446,-206"/>
<text text-anchor="start" x="454" y="-235" font-family="Helvetica,sans-Serif" font-size="10.00">org.msrg.raccoon.matrix.finitefields.</text>
<text text-anchor="start" x="454" y="-224" font-family="Helvetica,sans-Serif" font-size="10.00">ByteMatrixTest.testM2timesInvIsM</text>
<text text-anchor="middle" x="532.5" y="-213" font-family="Helvetica,sans-Serif" font-size="10.00">_HasNoInvserse</text>
</a>
</g>
</g>
<!-- Node2&#45;&gt;Node3 -->
<g id="edge2" class="edge"><title>Node2&#45;&gt;Node3</title>
<path fill="none" stroke="midnightblue" d="M394.967,-224.738C411.786,-224.955 429.189,-225.18 445.709,-225.393"/>
<polygon fill="midnightblue" stroke="midnightblue" points="394.628,-221.234 384.584,-224.604 394.538,-228.233 394.628,-221.234"/>
</g>
<!-- Node6 -->
<g id="node6" class="node"><title>Node6</title>
<g id="a_node6"><a xlink:href="../../d5/d96/classorg_1_1msrg_1_1raccoon_1_1matrix_1_1finitefields_1_1ByteMatrixTest_a2fbf8530351ff362158e4f2e5c036171.html#a2fbf8530351ff362158e4f2e5c036171" target="_top" xlink:title="org.msrg.raccoon.matrix.finitefields.\lByteMatrixTest.runTestManyInverse">
<polygon fill="none" stroke="black" points="444.5,-157.5 444.5,-187.5 620.5,-187.5 620.5,-157.5 444.5,-157.5"/>
<text text-anchor="start" x="452.5" y="-175.5" font-family="Helvetica,sans-Serif" font-size="10.00">org.msrg.raccoon.matrix.finitefields.</text>
<text text-anchor="middle" x="532.5" y="-164.5" font-family="Helvetica,sans-Serif" font-size="10.00">ByteMatrixTest.runTestManyInverse</text>
</a>
</g>
</g>
<!-- Node5&#45;&gt;Node6 -->
<g id="edge5" class="edge"><title>Node5&#45;&gt;Node6</title>
<path fill="none" stroke="midnightblue" d="M380.198,-140.613C406.289,-146.111 434.979,-152.158 460.297,-157.494"/>
<polygon fill="midnightblue" stroke="midnightblue" points="380.845,-137.172 370.338,-138.535 379.401,-144.022 380.845,-137.172"/>
</g>
<!-- Node8 -->
<g id="node8" class="node"><title>Node8</title>
<g id="a_node8"><a xlink:href="../../dc/dcf/classorg_1_1msrg_1_1raccoon_1_1engine_1_1CodingEngineTest_a1a3ce31a699af797e95ece5666d7e394.html#a1a3ce31a699af797e95ece5666d7e394" target="_top" xlink:title="org.msrg.raccoon.engine.\lCodingEngineTest.setUp">
<polygon fill="none" stroke="black" points="469,-108.5 469,-138.5 596,-138.5 596,-108.5 469,-108.5"/>
<text text-anchor="start" x="477" y="-126.5" font-family="Helvetica,sans-Serif" font-size="10.00">org.msrg.raccoon.engine.</text>
<text text-anchor="middle" x="532.5" y="-115.5" font-family="Helvetica,sans-Serif" font-size="10.00">CodingEngineTest.setUp</text>
</a>
</g>
</g>
<!-- Node5&#45;&gt;Node8 -->
<g id="edge7" class="edge"><title>Node5&#45;&gt;Node8</title>
<path fill="none" stroke="midnightblue" d="M397.483,-123.5C421.586,-123.5 446.732,-123.5 468.645,-123.5"/>
<polygon fill="midnightblue" stroke="midnightblue" points="397.23,-120 387.23,-123.5 397.23,-127 397.23,-120"/>
</g>
<!-- Node9 -->
<g id="node9" class="node"><title>Node9</title>
<g id="a_node9"><a xlink:href="../../d5/d96/classorg_1_1msrg_1_1raccoon_1_1matrix_1_1finitefields_1_1ByteMatrixTest_a810788f9ce020bbab969821becb0ef3f.html#a810788f9ce020bbab969821becb0ef3f" target="_top" xlink:title="org.msrg.raccoon.matrix.finitefields.\lByteMatrixTest.testM2timesInvIsM\l_HasInvserse">
<polygon fill="none" stroke="black" points="446,-49 446,-90 619,-90 619,-49 446,-49"/>
<text text-anchor="start" x="454" y="-78" font-family="Helvetica,sans-Serif" font-size="10.00">org.msrg.raccoon.matrix.finitefields.</text>
<text text-anchor="start" x="454" y="-67" font-family="Helvetica,sans-Serif" font-size="10.00">ByteMatrixTest.testM2timesInvIsM</text>
<text text-anchor="middle" x="532.5" y="-56" font-family="Helvetica,sans-Serif" font-size="10.00">_HasInvserse</text>
</a>
</g>
</g>
<!-- Node5&#45;&gt;Node9 -->
<g id="edge8" class="edge"><title>Node5&#45;&gt;Node9</title>
<path fill="none" stroke="midnightblue" d="M373.776,-106.133C396.726,-100.802 422.158,-94.8956 445.78,-89.4093"/>
<polygon fill="midnightblue" stroke="midnightblue" points="372.713,-102.786 363.764,-108.458 374.297,-109.605 372.713,-102.786"/>
</g>
<!-- Node10 -->
<g id="node10" class="node"><title>Node10</title>
<g id="a_node10"><a xlink:href="../../d5/d96/classorg_1_1msrg_1_1raccoon_1_1matrix_1_1finitefields_1_1ByteMatrixTest_ac60808b559cdc155d008f0d650fe5c34.html#ac60808b559cdc155d008f0d650fe5c34" target="_top" xlink:title="org.msrg.raccoon.matrix.finitefields.\lByteMatrixTest.testMtimesBMtimesInvMIsBM">
<polygon fill="none" stroke="black" points="423,-0.5 423,-30.5 642,-30.5 642,-0.5 423,-0.5"/>
<text text-anchor="start" x="431" y="-18.5" font-family="Helvetica,sans-Serif" font-size="10.00">org.msrg.raccoon.matrix.finitefields.</text>
<text text-anchor="middle" x="532.5" y="-7.5" font-family="Helvetica,sans-Serif" font-size="10.00">ByteMatrixTest.testMtimesBMtimesInvMIsBM</text>
</a>
</g>
</g>
<!-- Node5&#45;&gt;Node10 -->
<g id="edge9" class="edge"><title>Node5&#45;&gt;Node10</title>
<path fill="none" stroke="midnightblue" d="M381.248,-103.456C383.232,-102.216 385.154,-100.898 387,-99.5 411.789,-80.7214 397.763,-57.6712 423,-39.5 427.775,-36.0618 432.953,-33.1023 438.369,-30.556"/>
<polygon fill="midnightblue" stroke="midnightblue" points="379.286,-100.54 372.201,-108.417 382.652,-106.678 379.286,-100.54"/>
</g>
<!-- Node7 -->
<g id="node7" class="node"><title>Node7</title>
<g id="a_node7"><a xlink:href="../../d5/d96/classorg_1_1msrg_1_1raccoon_1_1matrix_1_1finitefields_1_1ByteMatrixTest_ab8f3114007e92860f4f740a9cbae6e18.html#ab8f3114007e92860f4f740a9cbae6e18" target="_top" xlink:title="org.msrg.raccoon.matrix.finitefields.\lByteMatrixTest.testManyInverse">
<polygon fill="none" stroke="black" points="678,-157.5 678,-187.5 851,-187.5 851,-157.5 678,-157.5"/>
<text text-anchor="start" x="686" y="-175.5" font-family="Helvetica,sans-Serif" font-size="10.00">org.msrg.raccoon.matrix.finitefields.</text>
<text text-anchor="middle" x="764.5" y="-164.5" font-family="Helvetica,sans-Serif" font-size="10.00">ByteMatrixTest.testManyInverse</text>
</a>
</g>
</g>
<!-- Node6&#45;&gt;Node7 -->
<g id="edge6" class="edge"><title>Node6&#45;&gt;Node7</title>
<path fill="none" stroke="midnightblue" d="M630.939,-172.5C646.513,-172.5 662.526,-172.5 677.801,-172.5"/>
<polygon fill="midnightblue" stroke="midnightblue" points="630.781,-169 620.781,-172.5 630.781,-176 630.781,-169"/>
</g>
</g>
</svg>
