<?xml version="1.0" encoding="UTF-8" standalone="no"?>
<!DOCTYPE svg PUBLIC "-//W3C//DTD SVG 1.1//EN"
 "http://www.w3.org/Graphics/SVG/1.1/DTD/svg11.dtd">
<!-- Generated by graphviz version 2.38.0 (20140413.2041)
 -->
<!-- Title: org.msrg.raccoon.CodedCoefficients.CodedCoefficients Pages: 1 -->
<svg width="647pt" height="39pt"
 viewBox="0.00 0.00 647.00 39.00" xmlns="http://www.w3.org/2000/svg" xmlns:xlink="http://www.w3.org/1999/xlink">
<g id="graph0" class="graph" transform="scale(1 1) rotate(0) translate(4 35)">
<title>org.msrg.raccoon.CodedCoefficients.CodedCoefficients</title>
<!-- Node1 -->
<g id="node1" class="node"><title>Node1</title>
<polygon fill="#bfbfbf" stroke="black" points="0,-0.5 0,-30.5 179,-30.5 179,-0.5 0,-0.5"/>
<text text-anchor="start" x="8" y="-18.5" font-family="Helvetica,sans-Serif" font-size="10.00">org.msrg.raccoon.CodedCoefficients.</text>
<text text-anchor="middle" x="89.5" y="-7.5" font-family="Helvetica,sans-Serif" font-size="10.00">CodedCoefficients</text>
</g>
<!-- Node2 -->
<g id="node2" class="node"><title>Node2</title>
<g id="a_node2"><a xlink:href="../../dd/d36/classorg_1_1msrg_1_1raccoon_1_1CodedCoefficients_a5e288eb96a0fe5a9ccf0eb05f0a6f4e5.html#a5e288eb96a0fe5a9ccf0eb05f0a6f4e5" target="_top" xlink:title="org.msrg.raccoon.CodedCoefficients.equals">
<polygon fill="none" stroke="black" points="215,-6 215,-25 423,-25 423,-6 215,-6"/>
<text text-anchor="middle" x="319" y="-13" font-family="Helvetica,sans-Serif" font-size="10.00">org.msrg.raccoon.CodedCoefficients.equals</text>
</a>
</g>
</g>
<!-- Node1&#45;&gt;Node2 -->
<g id="edge1" class="edge"><title>Node1&#45;&gt;Node2</title>
<path fill="none" stroke="midnightblue" d="M189.36,-15.5C197.82,-15.5 206.392,-15.5 214.885,-15.5"/>
<polygon fill="midnightblue" stroke="midnightblue" points="189.109,-12.0001 179.109,-15.5 189.109,-19.0001 189.109,-12.0001"/>
</g>
<!-- Node3 -->
<g id="node3" class="node"><title>Node3</title>
<g id="a_node3"><a xlink:href="../../dd/dfd/classorg_1_1msrg_1_1raccoon_1_1CodedPiece_acaf7264810bbdf99b73278b11ac1da72.html#acaf7264810bbdf99b73278b11ac1da72" target="_top" xlink:title="org.msrg.raccoon.CodedPiece.equals">
<polygon fill="none" stroke="black" points="459,-6 459,-25 639,-25 639,-6 459,-6"/>
<text text-anchor="middle" x="549" y="-13" font-family="Helvetica,sans-Serif" font-size="10.00">org.msrg.raccoon.CodedPiece.equals</text>
</a>
</g>
</g>
<!-- Node2&#45;&gt;Node3 -->
<g id="edge2" class="edge"><title>Node2&#45;&gt;Node3</title>
<path fill="none" stroke="midnightblue" d="M433.393,-15.5C441.979,-15.5 450.571,-15.5 458.972,-15.5"/>
<polygon fill="midnightblue" stroke="midnightblue" points="433.326,-12.0001 423.326,-15.5 433.326,-19.0001 433.326,-12.0001"/>
</g>
</g>
</svg>
