<?xml version="1.0" encoding="UTF-8" standalone="no"?>
<!DOCTYPE svg PUBLIC "-//W3C//DTD SVG 1.1//EN"
 "http://www.w3.org/Graphics/SVG/1.1/DTD/svg11.dtd">
<!-- Generated by graphviz version 2.38.0 (20140413.2041)
 -->
<!-- Title: org.msrg.raccoon.matrix.finitefields.ByteMatrix.multiply Pages: 1 -->
<svg width="1109pt" height="398pt"
 viewBox="0.00 0.00 1109.00 398.00" xmlns="http://www.w3.org/2000/svg" xmlns:xlink="http://www.w3.org/1999/xlink">
<g id="graph0" class="graph" transform="scale(1 1) rotate(0) translate(4 394)">
<title>org.msrg.raccoon.matrix.finitefields.ByteMatrix.multiply</title>
<!-- Node6 -->
<g id="node1" class="node"><title>Node6</title>
<polygon fill="#bfbfbf" stroke="black" points="0,-131.5 0,-161.5 173,-161.5 173,-131.5 0,-131.5"/>
<text text-anchor="start" x="8" y="-149.5" font-family="Helvetica,sans-Serif" font-size="10.00">org.msrg.raccoon.matrix.finitefields.</text>
<text text-anchor="middle" x="86.5" y="-138.5" font-family="Helvetica,sans-Serif" font-size="10.00">ByteMatrix.multiply</text>
</g>
<!-- Node7 -->
<g id="node2" class="node"><title>Node7</title>
<g id="a_node2"><a xlink:href="../../dd/dfd/classorg_1_1msrg_1_1raccoon_1_1CodedPiece_a916100d89d5cbded0ba4a2d7c86727b6.html#a916100d89d5cbded0ba4a2d7c86727b6" target="_top" xlink:title="org.msrg.raccoon.CodedPiece.\lCodedPiece">
<polygon fill="none" stroke="black" points="250,-262.5 250,-292.5 402,-292.5 402,-262.5 250,-262.5"/>
<text text-anchor="start" x="258" y="-280.5" font-family="Helvetica,sans-Serif" font-size="10.00">org.msrg.raccoon.CodedPiece.</text>
<text text-anchor="middle" x="326" y="-269.5" font-family="Helvetica,sans-Serif" font-size="10.00">CodedPiece</text>
</a>
</g>
</g>
<!-- Node6&#45;&gt;Node7 -->
<g id="edge1" class="edge"><title>Node6&#45;&gt;Node7</title>
<path fill="none" stroke="midnightblue" d="M108.358,-168.897C131.009,-191.912 169.297,-227.167 209,-247.5 221.683,-253.995 235.883,-259.162 249.882,-263.247"/>
<polygon fill="midnightblue" stroke="midnightblue" points="110.766,-166.352 101.296,-161.6 105.735,-171.22 110.766,-166.352"/>
</g>
<!-- Node15 -->
<g id="node10" class="node"><title>Node15</title>
<g id="a_node10"><a xlink:href="../../da/df0/classorg_1_1msrg_1_1raccoon_1_1ReceivedCodedBatch_a5621d4c76e51a0ac69a179e1001e6371.html#a5621d4c76e51a0ac69a179e1001e6371" target="_top" xlink:title="org.msrg.raccoon.Received\lCodedBatch.decodeUsing">
<polygon fill="none" stroke="black" points="257.5,-208.5 257.5,-238.5 394.5,-238.5 394.5,-208.5 257.5,-208.5"/>
<text text-anchor="start" x="265.5" y="-226.5" font-family="Helvetica,sans-Serif" font-size="10.00">org.msrg.raccoon.Received</text>
<text text-anchor="middle" x="326" y="-215.5" font-family="Helvetica,sans-Serif" font-size="10.00">CodedBatch.decodeUsing</text>
</a>
</g>
</g>
<!-- Node6&#45;&gt;Node15 -->
<g id="edge9" class="edge"><title>Node6&#45;&gt;Node15</title>
<path fill="none" stroke="midnightblue" d="M127.569,-165.957C150.906,-176.701 181.138,-189.626 209,-198.5 224.409,-203.408 241.276,-207.656 257.257,-211.189"/>
<polygon fill="midnightblue" stroke="midnightblue" points="128.882,-162.707 118.339,-161.656 125.925,-169.052 128.882,-162.707"/>
</g>
<!-- Node17 -->
<g id="node12" class="node"><title>Node17</title>
<g id="a_node12"><a xlink:href="../../dd/d36/classorg_1_1msrg_1_1raccoon_1_1matrix_1_1finitefields_1_1ByteMatrix_a25491e8ba3b3c3e18ec2392b7393bac3.html#a25491e8ba3b3c3e18ec2392b7393bac3" target="_top" xlink:title="org.msrg.raccoon.matrix.finitefields.\lByteMatrix.multiply">
<polygon fill="none" stroke="black" points="239.5,-159.5 239.5,-189.5 412.5,-189.5 412.5,-159.5 239.5,-159.5"/>
<text text-anchor="start" x="247.5" y="-177.5" font-family="Helvetica,sans-Serif" font-size="10.00">org.msrg.raccoon.matrix.finitefields.</text>
<text text-anchor="middle" x="326" y="-166.5" font-family="Helvetica,sans-Serif" font-size="10.00">ByteMatrix.multiply</text>
</a>
</g>
</g>
<!-- Node6&#45;&gt;Node17 -->
<g id="edge14" class="edge"><title>Node6&#45;&gt;Node17</title>
<path fill="none" stroke="midnightblue" d="M183.179,-157.78C201.768,-159.972 221.142,-162.256 239.383,-164.406"/>
<polygon fill="midnightblue" stroke="midnightblue" points="183.584,-154.304 173.243,-156.609 182.764,-161.255 183.584,-154.304"/>
</g>
<!-- Node18 -->
<g id="node13" class="node"><title>Node18</title>
<g id="a_node13"><a xlink:href="../../d4/daf/classorg_1_1msrg_1_1raccoon_1_1engine_1_1task_1_1sequential_1_1EncodingReceivedCodedBatch__SequentialCodingTask_a42110602418c15d727175229b4b8f9cb.html#a42110602418c15d727175229b4b8f9cb" target="_top" xlink:title="org.msrg.raccoon.engine.task.sequential.\lEncodingReceivedCodedBatch_SequentialCoding\lTask.runStagePrivately">
<polygon fill="none" stroke="black" points="209,-99 209,-140 443,-140 443,-99 209,-99"/>
<text text-anchor="start" x="217" y="-128" font-family="Helvetica,sans-Serif" font-size="10.00">org.msrg.raccoon.engine.task.sequential.</text>
<text text-anchor="start" x="217" y="-117" font-family="Helvetica,sans-Serif" font-size="10.00">EncodingReceivedCodedBatch_SequentialCoding</text>
<text text-anchor="middle" x="326" y="-106" font-family="Helvetica,sans-Serif" font-size="10.00">Task.runStagePrivately</text>
</a>
</g>
</g>
<!-- Node6&#45;&gt;Node18 -->
<g id="edge15" class="edge"><title>Node6&#45;&gt;Node18</title>
<path fill="none" stroke="midnightblue" d="M183.369,-135.601C191.745,-134.649 200.278,-133.679 208.794,-132.711"/>
<polygon fill="midnightblue" stroke="midnightblue" points="182.784,-132.145 173.243,-136.752 183.574,-139.1 182.784,-132.145"/>
</g>
<!-- Node19 -->
<g id="node14" class="node"><title>Node19</title>
<g id="a_node14"><a xlink:href="../../d5/d96/classorg_1_1msrg_1_1raccoon_1_1matrix_1_1finitefields_1_1ByteMatrixTest_ae32ff4ec2714b4cecdb5f85253619a41.html#ae32ff4ec2714b4cecdb5f85253619a41" target="_top" xlink:title="org.msrg.raccoon.matrix.finitefields.\lByteMatrixTest.runTestM2timesInvIsM">
<polygon fill="none" stroke="black" points="232.5,-49.5 232.5,-79.5 419.5,-79.5 419.5,-49.5 232.5,-49.5"/>
<text text-anchor="start" x="240.5" y="-67.5" font-family="Helvetica,sans-Serif" font-size="10.00">org.msrg.raccoon.matrix.finitefields.</text>
<text text-anchor="middle" x="326" y="-56.5" font-family="Helvetica,sans-Serif" font-size="10.00">ByteMatrixTest.runTestM2timesInvIsM</text>
</a>
</g>
</g>
<!-- Node6&#45;&gt;Node19 -->
<g id="edge16" class="edge"><title>Node6&#45;&gt;Node19</title>
<path fill="none" stroke="midnightblue" d="M124.195,-126.614C147.846,-114.475 179.571,-99.4312 209,-89.5 220.126,-85.7453 232.049,-82.4232 243.861,-79.5273"/>
<polygon fill="midnightblue" stroke="midnightblue" points="122.486,-123.558 115.228,-131.276 125.715,-129.769 122.486,-123.558"/>
</g>
<!-- Node22 -->
<g id="node17" class="node"><title>Node22</title>
<g id="a_node17"><a xlink:href="../../d5/d96/classorg_1_1msrg_1_1raccoon_1_1matrix_1_1finitefields_1_1ByteMatrixTest_ac60808b559cdc155d008f0d650fe5c34.html#ac60808b559cdc155d008f0d650fe5c34" target="_top" xlink:title="org.msrg.raccoon.matrix.finitefields.\lByteMatrixTest.testMtimesBMtimesInvMIsBM">
<polygon fill="none" stroke="black" points="216.5,-0.5 216.5,-30.5 435.5,-30.5 435.5,-0.5 216.5,-0.5"/>
<text text-anchor="start" x="224.5" y="-18.5" font-family="Helvetica,sans-Serif" font-size="10.00">org.msrg.raccoon.matrix.finitefields.</text>
<text text-anchor="middle" x="326" y="-7.5" font-family="Helvetica,sans-Serif" font-size="10.00">ByteMatrixTest.testMtimesBMtimesInvMIsBM</text>
</a>
</g>
</g>
<!-- Node6&#45;&gt;Node22 -->
<g id="edge19" class="edge"><title>Node6&#45;&gt;Node22</title>
<path fill="none" stroke="midnightblue" d="M106.788,-123.544C128.881,-98.8225 167.427,-60.2538 209,-39.5 215.9,-36.0554 223.268,-33.105 230.818,-30.5778"/>
<polygon fill="midnightblue" stroke="midnightblue" points="103.905,-121.524 99.9458,-131.351 109.169,-126.137 103.905,-121.524"/>
</g>
<!-- Node8 -->
<g id="node3" class="node"><title>Node8</title>
<g id="a_node3"><a xlink:href="../../dd/dfd/classorg_1_1msrg_1_1raccoon_1_1CodedPiece_acaf7264810bbdf99b73278b11ac1da72.html#acaf7264810bbdf99b73278b11ac1da72" target="_top" xlink:title="org.msrg.raccoon.CodedPiece.equals">
<polygon fill="none" stroke="black" points="479,-268 479,-287 659,-287 659,-268 479,-268"/>
<text text-anchor="middle" x="569" y="-275" font-family="Helvetica,sans-Serif" font-size="10.00">org.msrg.raccoon.CodedPiece.equals</text>
</a>
</g>
</g>
<!-- Node7&#45;&gt;Node8 -->
<g id="edge2" class="edge"><title>Node7&#45;&gt;Node8</title>
<path fill="none" stroke="midnightblue" d="M412.381,-277.5C433.965,-277.5 457.196,-277.5 478.956,-277.5"/>
<polygon fill="midnightblue" stroke="midnightblue" points="412.263,-274 402.263,-277.5 412.263,-281 412.263,-274"/>
</g>
<!-- Node9 -->
<g id="node4" class="node"><title>Node9</title>
<g id="a_node4"><a xlink:href="../../dd/dfd/classorg_1_1msrg_1_1raccoon_1_1CodedPiece_a2356802d8204151b602ba47d25c34ff3.html#a2356802d8204151b602ba47d25c34ff3" target="_top" xlink:title="org.msrg.raccoon.CodedPiece.make\lCodedPiece">
<polygon fill="none" stroke="black" points="481,-309.5 481,-339.5 657,-339.5 657,-309.5 481,-309.5"/>
<text text-anchor="start" x="489" y="-327.5" font-family="Helvetica,sans-Serif" font-size="10.00">org.msrg.raccoon.CodedPiece.make</text>
<text text-anchor="middle" x="569" y="-316.5" font-family="Helvetica,sans-Serif" font-size="10.00">CodedPiece</text>
</a>
</g>
</g>
<!-- Node7&#45;&gt;Node9 -->
<g id="edge3" class="edge"><title>Node7&#45;&gt;Node9</title>
<path fill="none" stroke="midnightblue" d="M412.315,-294.138C437.894,-299.127 465.793,-304.567 490.816,-309.448"/>
<polygon fill="midnightblue" stroke="midnightblue" points="412.748,-290.657 402.263,-292.178 411.408,-297.527 412.748,-290.657"/>
</g>
<!-- Node10 -->
<g id="node5" class="node"><title>Node10</title>
<g id="a_node5"><a xlink:href="../../d2/da2/classorg_1_1msrg_1_1raccoon_1_1SourceCodedBatch_aa614a213e1484d4643bf8f6b4eb8616a.html#aa614a213e1484d4643bf8f6b4eb8616a" target="_top" xlink:title="org.msrg.raccoon.SourceCoded\lBatch.code">
<polygon fill="none" stroke="black" points="714.5,-359.5 714.5,-389.5 869.5,-389.5 869.5,-359.5 714.5,-359.5"/>
<text text-anchor="start" x="722.5" y="-377.5" font-family="Helvetica,sans-Serif" font-size="10.00">org.msrg.raccoon.SourceCoded</text>
<text text-anchor="middle" x="792" y="-366.5" font-family="Helvetica,sans-Serif" font-size="10.00">Batch.code</text>
</a>
</g>
</g>
<!-- Node9&#45;&gt;Node10 -->
<g id="edge4" class="edge"><title>Node9&#45;&gt;Node10</title>
<path fill="none" stroke="midnightblue" d="M646.267,-341.755C671.667,-347.502 699.745,-353.854 724.358,-359.423"/>
<polygon fill="midnightblue" stroke="midnightblue" points="646.833,-338.295 636.307,-339.502 645.288,-345.122 646.833,-338.295"/>
</g>
<!-- Node13 -->
<g id="node8" class="node"><title>Node13</title>
<g id="a_node8"><a xlink:href="../../d7/da5/classorg_1_1msrg_1_1raccoon_1_1CodedPieceTest_a264feb2dd21ccabd0fa19fe54a7c52db.html#a264feb2dd21ccabd0fa19fe54a7c52db" target="_top" xlink:title="org.msrg.raccoon.CodedPiece\lTest.setUp">
<polygon fill="none" stroke="black" points="717.5,-310.5 717.5,-340.5 866.5,-340.5 866.5,-310.5 717.5,-310.5"/>
<text text-anchor="start" x="725.5" y="-328.5" font-family="Helvetica,sans-Serif" font-size="10.00">org.msrg.raccoon.CodedPiece</text>
<text text-anchor="middle" x="792" y="-317.5" font-family="Helvetica,sans-Serif" font-size="10.00">Test.setUp</text>
</a>
</g>
</g>
<!-- Node9&#45;&gt;Node13 -->
<g id="edge7" class="edge"><title>Node9&#45;&gt;Node13</title>
<path fill="none" stroke="midnightblue" d="M667.385,-324.941C684.126,-325.016 701.275,-325.094 717.264,-325.166"/>
<polygon fill="midnightblue" stroke="midnightblue" points="667.044,-321.439 657.028,-324.894 667.012,-328.439 667.044,-321.439"/>
</g>
<!-- Node14 -->
<g id="node9" class="node"><title>Node14</title>
<g id="a_node9"><a xlink:href="../../db/d26/classorg_1_1msrg_1_1raccoon_1_1ReceivedCodedBatchTest_af7c8b12bc8b1dc5d9c5e353b838d830d.html#af7c8b12bc8b1dc5d9c5e353b838d830d" target="_top" xlink:title="org.msrg.raccoon.Received\lCodedBatchTest.ttestEncodingDecoding\lReceivedCodedBatch">
<polygon fill="none" stroke="black" points="695,-250 695,-291 889,-291 889,-250 695,-250"/>
<text text-anchor="start" x="703" y="-279" font-family="Helvetica,sans-Serif" font-size="10.00">org.msrg.raccoon.Received</text>
<text text-anchor="start" x="703" y="-268" font-family="Helvetica,sans-Serif" font-size="10.00">CodedBatchTest.ttestEncodingDecoding</text>
<text text-anchor="middle" x="792" y="-257" font-family="Helvetica,sans-Serif" font-size="10.00">ReceivedCodedBatch</text>
</a>
</g>
</g>
<!-- Node9&#45;&gt;Node14 -->
<g id="edge8" class="edge"><title>Node9&#45;&gt;Node14</title>
<path fill="none" stroke="midnightblue" d="M641.338,-307.069C662.289,-301.95 685.397,-296.303 707.058,-291.011"/>
<polygon fill="midnightblue" stroke="midnightblue" points="640.444,-303.684 631.561,-309.458 642.106,-310.484 640.444,-303.684"/>
</g>
<!-- Node11 -->
<g id="node6" class="node"><title>Node11</title>
<g id="a_node6"><a xlink:href="../../db/d77/classorg_1_1msrg_1_1raccoon_1_1CodedBatchTest_a04baac235b53bea4fab4b550de9271a5.html#a04baac235b53bea4fab4b550de9271a5" target="_top" xlink:title="org.msrg.raccoon.CodedBatch\lTest.testReceivedCodedBatch">
<polygon fill="none" stroke="black" points="937.5,-323.5 937.5,-353.5 1088.5,-353.5 1088.5,-323.5 937.5,-323.5"/>
<text text-anchor="start" x="945.5" y="-341.5" font-family="Helvetica,sans-Serif" font-size="10.00">org.msrg.raccoon.CodedBatch</text>
<text text-anchor="middle" x="1013" y="-330.5" font-family="Helvetica,sans-Serif" font-size="10.00">Test.testReceivedCodedBatch</text>
</a>
</g>
</g>
<!-- Node10&#45;&gt;Node11 -->
<g id="edge5" class="edge"><title>Node10&#45;&gt;Node11</title>
<path fill="none" stroke="midnightblue" d="M879.488,-360.283C898.601,-357.141 918.694,-353.838 937.293,-350.781"/>
<polygon fill="midnightblue" stroke="midnightblue" points="878.895,-356.833 869.596,-361.909 880.031,-363.74 878.895,-356.833"/>
</g>
<!-- Node12 -->
<g id="node7" class="node"><title>Node12</title>
<g id="a_node7"><a xlink:href="../../d7/d47/classorg_1_1msrg_1_1raccoon_1_1SlicedCodedBatchTest_aa7d0bdfa77013b46a1f2e416dbb71b8c.html#aa7d0bdfa77013b46a1f2e416dbb71b8c" target="_top" xlink:title="org.msrg.raccoon.SlicedCoded\lBatchTest.testReceivedCodedBatch">
<polygon fill="none" stroke="black" points="925,-239.5 925,-269.5 1101,-269.5 1101,-239.5 925,-239.5"/>
<text text-anchor="start" x="933" y="-257.5" font-family="Helvetica,sans-Serif" font-size="10.00">org.msrg.raccoon.SlicedCoded</text>
<text text-anchor="middle" x="1013" y="-246.5" font-family="Helvetica,sans-Serif" font-size="10.00">BatchTest.testReceivedCodedBatch</text>
</a>
</g>
</g>
<!-- Node10&#45;&gt;Node12 -->
<g id="edge6" class="edge"><title>Node10&#45;&gt;Node12</title>
<path fill="none" stroke="midnightblue" d="M878.856,-355.621C882.347,-354.047 885.744,-352.344 889,-350.5 908.69,-339.351 907.615,-328.983 925,-314.5 945.018,-297.824 969.596,-281.187 987.517,-269.677"/>
<polygon fill="midnightblue" stroke="midnightblue" points="877.352,-352.456 869.432,-359.493 880.012,-358.931 877.352,-352.456"/>
</g>
<!-- Node16 -->
<g id="node11" class="node"><title>Node16</title>
<g id="a_node11"><a xlink:href="../../da/df0/classorg_1_1msrg_1_1raccoon_1_1ReceivedCodedBatch_aa025693c18e525356f5750174ceccd70.html#aa025693c18e525356f5750174ceccd70" target="_top" xlink:title="org.msrg.raccoon.Received\lCodedBatch.decode">
<polygon fill="none" stroke="black" points="500.5,-207.5 500.5,-237.5 637.5,-237.5 637.5,-207.5 500.5,-207.5"/>
<text text-anchor="start" x="508.5" y="-225.5" font-family="Helvetica,sans-Serif" font-size="10.00">org.msrg.raccoon.Received</text>
<text text-anchor="middle" x="569" y="-214.5" font-family="Helvetica,sans-Serif" font-size="10.00">CodedBatch.decode</text>
</a>
</g>
</g>
<!-- Node15&#45;&gt;Node16 -->
<g id="edge10" class="edge"><title>Node15&#45;&gt;Node16</title>
<path fill="none" stroke="midnightblue" d="M405.016,-223.176C435.738,-223.049 470.685,-222.904 500.318,-222.781"/>
<polygon fill="midnightblue" stroke="midnightblue" points="404.759,-219.677 394.773,-223.219 404.788,-226.677 404.759,-219.677"/>
</g>
<!-- Node16&#45;&gt;Node11 -->
<g id="edge11" class="edge"><title>Node16&#45;&gt;Node11</title>
<path fill="none" stroke="midnightblue" d="M647.68,-211.395C714.769,-205.322 812.661,-205.083 889,-240.5 910.104,-250.291 907.328,-263.369 925,-278.5 944.791,-295.445 969.394,-312.052 987.382,-323.483"/>
<polygon fill="midnightblue" stroke="midnightblue" points="647.214,-207.923 637.598,-212.372 647.889,-214.891 647.214,-207.923"/>
</g>
<!-- Node16&#45;&gt;Node12 -->
<g id="edge12" class="edge"><title>Node16&#45;&gt;Node12</title>
<path fill="none" stroke="midnightblue" d="M647.678,-209.019C712.689,-200.075 807.617,-192.481 889,-207.5 921.821,-213.557 957.212,-227.992 981.567,-239.279"/>
<polygon fill="midnightblue" stroke="midnightblue" points="646.916,-205.592 637.507,-210.463 647.9,-212.523 646.916,-205.592"/>
</g>
<!-- Node16&#45;&gt;Node14 -->
<g id="edge13" class="edge"><title>Node16&#45;&gt;Node14</title>
<path fill="none" stroke="midnightblue" d="M647.669,-239.369C663.366,-242.779 680.036,-246.399 696.244,-249.92"/>
<polygon fill="midnightblue" stroke="midnightblue" points="648.023,-235.865 637.508,-237.162 646.537,-242.705 648.023,-235.865"/>
</g>
<!-- Node20 -->
<g id="node15" class="node"><title>Node20</title>
<g id="a_node15"><a xlink:href="../../d5/d96/classorg_1_1msrg_1_1raccoon_1_1matrix_1_1finitefields_1_1ByteMatrixTest_af84f780201f4ae5e9d625748fa84ca38.html#af84f780201f4ae5e9d625748fa84ca38" target="_top" xlink:title="org.msrg.raccoon.matrix.finitefields.\lByteMatrixTest.testM2timesInvIsM\l_HasNoInvserse">
<polygon fill="none" stroke="black" points="482.5,-14 482.5,-55 655.5,-55 655.5,-14 482.5,-14"/>
<text text-anchor="start" x="490.5" y="-43" font-family="Helvetica,sans-Serif" font-size="10.00">org.msrg.raccoon.matrix.finitefields.</text>
<text text-anchor="start" x="490.5" y="-32" font-family="Helvetica,sans-Serif" font-size="10.00">ByteMatrixTest.testM2timesInvIsM</text>
<text text-anchor="middle" x="569" y="-21" font-family="Helvetica,sans-Serif" font-size="10.00">_HasNoInvserse</text>
</a>
</g>
</g>
<!-- Node19&#45;&gt;Node20 -->
<g id="edge17" class="edge"><title>Node19&#45;&gt;Node20</title>
<path fill="none" stroke="midnightblue" d="M430.028,-51.6749C447.463,-49.5046 465.396,-47.2723 482.325,-45.1649"/>
<polygon fill="midnightblue" stroke="midnightblue" points="429.323,-48.2356 419.832,-52.9441 430.188,-55.182 429.323,-48.2356"/>
</g>
<!-- Node21 -->
<g id="node16" class="node"><title>Node21</title>
<g id="a_node16"><a xlink:href="../../d5/d96/classorg_1_1msrg_1_1raccoon_1_1matrix_1_1finitefields_1_1ByteMatrixTest_a810788f9ce020bbab969821becb0ef3f.html#a810788f9ce020bbab969821becb0ef3f" target="_top" xlink:title="org.msrg.raccoon.matrix.finitefields.\lByteMatrixTest.testM2timesInvIsM\l_HasInvserse">
<polygon fill="none" stroke="black" points="482.5,-74 482.5,-115 655.5,-115 655.5,-74 482.5,-74"/>
<text text-anchor="start" x="490.5" y="-103" font-family="Helvetica,sans-Serif" font-size="10.00">org.msrg.raccoon.matrix.finitefields.</text>
<text text-anchor="start" x="490.5" y="-92" font-family="Helvetica,sans-Serif" font-size="10.00">ByteMatrixTest.testM2timesInvIsM</text>
<text text-anchor="middle" x="569" y="-81" font-family="Helvetica,sans-Serif" font-size="10.00">_HasInvserse</text>
</a>
</g>
</g>
<!-- Node19&#45;&gt;Node21 -->
<g id="edge18" class="edge"><title>Node19&#45;&gt;Node21</title>
<path fill="none" stroke="midnightblue" d="M430.028,-77.3251C447.463,-79.4954 465.396,-81.7277 482.325,-83.8351"/>
<polygon fill="midnightblue" stroke="midnightblue" points="430.188,-73.818 419.832,-76.0559 429.323,-80.7644 430.188,-73.818"/>
</g>
</g>
</svg>
