<?xml version="1.0" encoding="UTF-8" standalone="no"?>
<!DOCTYPE svg PUBLIC "-//W3C//DTD SVG 1.1//EN"
 "http://www.w3.org/Graphics/SVG/1.1/DTD/svg11.dtd">
<!-- Generated by graphviz version 2.38.0 (20140413.2041)
 -->
<!-- Title: org.msrg.raccoon.CodedCoefficients.getCoefficients Pages: 1 -->
<!--zoomable 147 -->
<svg id="main" version="1.1" xmlns="http://www.w3.org/2000/svg" xmlns:xlink="http://www.w3.org/1999/xlink" xml:space="preserve" onload="init(evt)">
<style type="text/css"><![CDATA[
.edge:hover path { stroke: red; }
.edge:hover polygon { stroke: red; fill: red; }
]]></style>
<script type="text/javascript"><![CDATA[
var edges = document.getElementsByTagName('g');
if (edges && edges.length) {
  for (var i=0;i<edges.length;i++) {
    if (edges[i].id.substr(0,4)=='edge') {
      edges[i].setAttribute('class','edge');
    }
  }
}
]]></script>
        <defs>
                <circle id="rim" cx="0" cy="0" r="7"/>
                <circle id="rim2" cx="0" cy="0" r="3.5"/>
                <g id="zoomPlus">
                        <use xlink:href="#rim" fill="#404040">
                                <set attributeName="fill" to="#808080" begin="zoomplus.mouseover" end="zoomplus.mouseout"/>
                        </use>
                        <path d="M-4,0h8M0,-4v8" fill="none" stroke="white" stroke-width="1.5" pointer-events="none"/>
                </g>
                <g id="zoomMin">
                        <use xlink:href="#rim" fill="#404040">
                                <set attributeName="fill" to="#808080" begin="zoomminus.mouseover" end="zoomminus.mouseout"/>
                        </use>
                        <path d="M-4,0h8" fill="none" stroke="white" stroke-width="1.5" pointer-events="none"/>
                </g>
                <g id="dirArrow">
                        <path fill="none" stroke="white" stroke-width="1.5" d="M0,-3.0v7 M-2.5,-0.5L0,-3.0L2.5,-0.5"/>
                </g>
               <g id="resetDef">
                       <use xlink:href="#rim2" fill="#404040">
                               <set attributeName="fill" to="#808080" begin="reset.mouseover" end="reset.mouseout"/>
                       </use>
               </g>
        </defs>

<script type="text/javascript">
var viewWidth = 604;
var viewHeight = 147;
var sectionId = 'dynsection-0';
</script>
<script xlink:href="../../svgpan.js"/>
<svg id="graph" class="graph">
<g id="viewport">
<title>org.msrg.raccoon.CodedCoefficients.getCoefficients</title>
<!-- Node1 -->
<g id="node1" class="node"><title>Node1</title>
<polygon fill="#bfbfbf" stroke="black" points="0,-54.5 0,-84.5 193,-84.5 193,-54.5 0,-54.5"/>
<text text-anchor="start" x="8" y="-72.5" font-family="Helvetica,sans-Serif" font-size="10.00">org.msrg.raccoon.CodedCoefficients.get</text>
<text text-anchor="middle" x="96.5" y="-61.5" font-family="Helvetica,sans-Serif" font-size="10.00">Coefficients</text>
</g>
<!-- Node2 -->
<g id="node2" class="node"><title>Node2</title>
<g id="a_node2"><a xlink:href="../../da/df0/classorg_1_1msrg_1_1raccoon_1_1ReceivedCodedBatch_aa025693c18e525356f5750174ceccd70.html#aa025693c18e525356f5750174ceccd70" target="_top" xlink:title="org.msrg.raccoon.Received\lCodedBatch.decode">
<polygon fill="none" stroke="black" points="229,-54.5 229,-84.5 366,-84.5 366,-54.5 229,-54.5"/>
<text text-anchor="start" x="237" y="-72.5" font-family="Helvetica,sans-Serif" font-size="10.00">org.msrg.raccoon.Received</text>
<text text-anchor="middle" x="297.5" y="-61.5" font-family="Helvetica,sans-Serif" font-size="10.00">CodedBatch.decode</text>
</a>
</g>
</g>
<!-- Node1&#45;&gt;Node2 -->
<g id="edge1" class="edge"><title>Node1&#45;&gt;Node2</title>
<path fill="none" stroke="midnightblue" d="M203.379,-69.5C212.028,-69.5 220.613,-69.5 228.87,-69.5"/>
<polygon fill="midnightblue" stroke="midnightblue" points="203.211,-66.0001 193.211,-69.5 203.211,-73.0001 203.211,-66.0001"/>
</g>
<!-- Node3 -->
<g id="node3" class="node"><title>Node3</title>
<g id="a_node3"><a xlink:href="../../db/d77/classorg_1_1msrg_1_1raccoon_1_1CodedBatchTest_a04baac235b53bea4fab4b550de9271a5.html#a04baac235b53bea4fab4b550de9271a5" target="_top" xlink:title="org.msrg.raccoon.CodedBatch\lTest.testReceivedCodedBatch">
<polygon fill="none" stroke="black" points="423.5,-108.5 423.5,-138.5 574.5,-138.5 574.5,-108.5 423.5,-108.5"/>
<text text-anchor="start" x="431.5" y="-126.5" font-family="Helvetica,sans-Serif" font-size="10.00">org.msrg.raccoon.CodedBatch</text>
<text text-anchor="middle" x="499" y="-115.5" font-family="Helvetica,sans-Serif" font-size="10.00">Test.testReceivedCodedBatch</text>
</a>
</g>
</g>
<!-- Node2&#45;&gt;Node3 -->
<g id="edge2" class="edge"><title>Node2&#45;&gt;Node3</title>
<path fill="none" stroke="midnightblue" d="M358.596,-87.3284C372.8,-91.4285 387.911,-95.6985 402,-99.5 413.113,-102.499 424.985,-105.571 436.457,-108.474"/>
<polygon fill="midnightblue" stroke="midnightblue" points="359.511,-83.9496 348.932,-84.5249 357.561,-90.6724 359.511,-83.9496"/>
</g>
<!-- Node4 -->
<g id="node4" class="node"><title>Node4</title>
<g id="a_node4"><a xlink:href="../../db/d26/classorg_1_1msrg_1_1raccoon_1_1ReceivedCodedBatchTest_af7c8b12bc8b1dc5d9c5e353b838d830d.html#af7c8b12bc8b1dc5d9c5e353b838d830d" target="_top" xlink:title="org.msrg.raccoon.Received\lCodedBatchTest.ttestEncodingDecoding\lReceivedCodedBatch">
<polygon fill="none" stroke="black" points="402,-49 402,-90 596,-90 596,-49 402,-49"/>
<text text-anchor="start" x="410" y="-78" font-family="Helvetica,sans-Serif" font-size="10.00">org.msrg.raccoon.Received</text>
<text text-anchor="start" x="410" y="-67" font-family="Helvetica,sans-Serif" font-size="10.00">CodedBatchTest.ttestEncodingDecoding</text>
<text text-anchor="middle" x="499" y="-56" font-family="Helvetica,sans-Serif" font-size="10.00">ReceivedCodedBatch</text>
</a>
</g>
</g>
<!-- Node2&#45;&gt;Node4 -->
<g id="edge3" class="edge"><title>Node2&#45;&gt;Node4</title>
<path fill="none" stroke="midnightblue" d="M376.184,-69.5C384.603,-69.5 393.243,-69.5 401.847,-69.5"/>
<polygon fill="midnightblue" stroke="midnightblue" points="376.042,-66.0001 366.042,-69.5 376.042,-73.0001 376.042,-66.0001"/>
</g>
<!-- Node5 -->
<g id="node5" class="node"><title>Node5</title>
<g id="a_node5"><a xlink:href="../../d7/d47/classorg_1_1msrg_1_1raccoon_1_1SlicedCodedBatchTest_aa7d0bdfa77013b46a1f2e416dbb71b8c.html#aa7d0bdfa77013b46a1f2e416dbb71b8c" target="_top" xlink:title="org.msrg.raccoon.SlicedCoded\lBatchTest.testReceivedCodedBatch">
<polygon fill="none" stroke="black" points="411,-0.5 411,-30.5 587,-30.5 587,-0.5 411,-0.5"/>
<text text-anchor="start" x="419" y="-18.5" font-family="Helvetica,sans-Serif" font-size="10.00">org.msrg.raccoon.SlicedCoded</text>
<text text-anchor="middle" x="499" y="-7.5" font-family="Helvetica,sans-Serif" font-size="10.00">BatchTest.testReceivedCodedBatch</text>
</a>
</g>
</g>
<!-- Node2&#45;&gt;Node5 -->
<g id="edge4" class="edge"><title>Node2&#45;&gt;Node5</title>
<path fill="none" stroke="midnightblue" d="M358.596,-51.6716C372.8,-47.5715 387.911,-43.3015 402,-39.5 413.113,-36.5014 424.985,-33.4285 436.457,-30.5255"/>
<polygon fill="midnightblue" stroke="midnightblue" points="357.561,-48.3276 348.932,-54.4751 359.511,-55.0504 357.561,-48.3276"/>
</g>
</g>
</svg>
        <g id="navigator" transform="translate(0 0)" fill="#404254">
                <rect fill="#f2f5e9" fill-opacity="0.5" stroke="#606060" stroke-width=".5" x="0" y="0" width="60" height="60"/>
                <use id="zoomplus" xlink:href="#zoomPlus" x="17" y="9" onmousedown="handleZoom(evt,'in')"/>
                <use id="zoomminus" xlink:href="#zoomMin" x="42" y="9" onmousedown="handleZoom(evt,'out')"/>
                <use id="reset" xlink:href="#resetDef" x="30" y="36" onmousedown="handleReset()"/>
                <g id="arrowUp" xlink:href="#dirArrow" transform="translate(30 24)" onmousedown="handlePan(0,-1)">
                  <use xlink:href="#rim" fill="#404040">
                        <set attributeName="fill" to="#808080" begin="arrowUp.mouseover" end="arrowUp.mouseout"/>
                  </use>
                  <path fill="none" stroke="white" stroke-width="1.5" d="M0,-3.0v7 M-2.5,-0.5L0,-3.0L2.5,-0.5"/>
                </g>
                <g id="arrowRight" xlink:href="#dirArrow" transform="rotate(90) translate(36 -43)" onmousedown="handlePan(1,0)">
                  <use xlink:href="#rim" fill="#404040">
                        <set attributeName="fill" to="#808080" begin="arrowRight.mouseover" end="arrowRight.mouseout"/>
                  </use>
                  <path fill="none" stroke="white" stroke-width="1.5" d="M0,-3.0v7 M-2.5,-0.5L0,-3.0L2.5,-0.5"/>
                </g>
                <g id="arrowDown" xlink:href="#dirArrow" transform="rotate(180) translate(-30 -48)" onmousedown="handlePan(0,1)">
                  <use xlink:href="#rim" fill="#404040">
                        <set attributeName="fill" to="#808080" begin="arrowDown.mouseover" end="arrowDown.mouseout"/>
                  </use>
                  <path fill="none" stroke="white" stroke-width="1.5" d="M0,-3.0v7 M-2.5,-0.5L0,-3.0L2.5,-0.5"/>
                </g>
                <g id="arrowLeft" xlink:href="#dirArrow" transform="rotate(270) translate(-36 17)" onmousedown="handlePan(-1,0)">
                  <use xlink:href="#rim" fill="#404040">
                        <set attributeName="fill" to="#808080" begin="arrowLeft.mouseover" end="arrowLeft.mouseout"/>
                  </use>
                  <path fill="none" stroke="white" stroke-width="1.5" d="M0,-3.0v7 M-2.5,-0.5L0,-3.0L2.5,-0.5"/>
                </g>
        </g>
        <svg viewBox="0 0 15 15" width="100%" height="30px" preserveAspectRatio="xMaxYMin meet">
         <g id="arrow_out" transform="scale(0.3 0.3)">
          <a xlink:href="classorg_1_1msrg_1_1raccoon_1_1CodedCoefficients_acf918826c6649b7987d5138775e956ee_acf918826c6649b7987d5138775e956ee_icgraph_org.svg" target="_base">
           <rect id="button" ry="5" rx="5" y="6" x="6" height="38" width="38"
                fill="#f2f5e9" fill-opacity="0.5" stroke="#606060" stroke-width="1.0"/>
           <path id="arrow"
             d="M 11.500037,31.436501 C 11.940474,20.09759 22.043105,11.32322 32.158766,21.979434 L 37.068811,17.246167 C 37.068811,17.246167 37.088388,32 37.088388,32 L 22.160133,31.978069 C 22.160133,31.978069 26.997745,27.140456 26.997745,27.140456 C 18.528582,18.264221 13.291696,25.230495 11.500037,31.436501 z"
             style="fill:#404040;"/>
          </a>
         </g>
        </svg>
</svg>
