<?xml version="1.0" encoding="UTF-8" standalone="no"?>
<!DOCTYPE svg PUBLIC "-//W3C//DTD SVG 1.1//EN"
 "http://www.w3.org/Graphics/SVG/1.1/DTD/svg11.dtd">
<!-- Generated by graphviz version 2.38.0 (20140413.2041)
 -->
<!-- Title: org.msrg.raccoon.matrix.finitefields.ByteMatrix.multiply Pages: 1 -->
<svg width="1109pt" height="395pt"
 viewBox="0.00 0.00 1109.00 395.00" xmlns="http://www.w3.org/2000/svg" xmlns:xlink="http://www.w3.org/1999/xlink">
<g id="graph0" class="graph" transform="scale(1 1) rotate(0) translate(4 391)">
<title>org.msrg.raccoon.matrix.finitefields.ByteMatrix.multiply</title>
<!-- Node1 -->
<g id="node1" class="node"><title>Node1</title>
<polygon fill="#bfbfbf" stroke="black" points="0,-130.5 0,-160.5 173,-160.5 173,-130.5 0,-130.5"/>
<text text-anchor="start" x="8" y="-148.5" font-family="Helvetica,sans-Serif" font-size="10.00">org.msrg.raccoon.matrix.finitefields.</text>
<text text-anchor="middle" x="86.5" y="-137.5" font-family="Helvetica,sans-Serif" font-size="10.00">ByteMatrix.multiply</text>
</g>
<!-- Node2 -->
<g id="node2" class="node"><title>Node2</title>
<g id="a_node2"><a xlink:href="../../dd/dfd/classorg_1_1msrg_1_1raccoon_1_1CodedPiece_a916100d89d5cbded0ba4a2d7c86727b6.html#a916100d89d5cbded0ba4a2d7c86727b6" target="_top" xlink:title="org.msrg.raccoon.CodedPiece.\lCodedPiece">
<polygon fill="none" stroke="black" points="250,-260.5 250,-290.5 402,-290.5 402,-260.5 250,-260.5"/>
<text text-anchor="start" x="258" y="-278.5" font-family="Helvetica,sans-Serif" font-size="10.00">org.msrg.raccoon.CodedPiece.</text>
<text text-anchor="middle" x="326" y="-267.5" font-family="Helvetica,sans-Serif" font-size="10.00">CodedPiece</text>
</a>
</g>
</g>
<!-- Node1&#45;&gt;Node2 -->
<g id="edge1" class="edge"><title>Node1&#45;&gt;Node2</title>
<path fill="none" stroke="midnightblue" d="M108.779,-168.045C131.513,-190.831 169.627,-225.457 209,-245.5 221.698,-251.964 235.907,-257.117 249.907,-261.197"/>
<polygon fill="midnightblue" stroke="midnightblue" points="111.182,-165.496 101.68,-160.809 106.185,-170.398 111.182,-165.496"/>
</g>
<!-- Node10 -->
<g id="node10" class="node"><title>Node10</title>
<g id="a_node10"><a xlink:href="../../da/df0/classorg_1_1msrg_1_1raccoon_1_1ReceivedCodedBatch_a5621d4c76e51a0ac69a179e1001e6371.html#a5621d4c76e51a0ac69a179e1001e6371" target="_top" xlink:title="org.msrg.raccoon.Received\lCodedBatch.decodeUsing">
<polygon fill="none" stroke="black" points="257.5,-206.5 257.5,-236.5 394.5,-236.5 394.5,-206.5 257.5,-206.5"/>
<text text-anchor="start" x="265.5" y="-224.5" font-family="Helvetica,sans-Serif" font-size="10.00">org.msrg.raccoon.Received</text>
<text text-anchor="middle" x="326" y="-213.5" font-family="Helvetica,sans-Serif" font-size="10.00">CodedBatch.decodeUsing</text>
</a>
</g>
</g>
<!-- Node1&#45;&gt;Node10 -->
<g id="edge9" class="edge"><title>Node1&#45;&gt;Node10</title>
<path fill="none" stroke="midnightblue" d="M128.092,-164.765C151.375,-175.247 181.382,-187.81 209,-196.5 224.426,-201.354 241.299,-205.582 257.281,-209.111"/>
<polygon fill="midnightblue" stroke="midnightblue" points="129.426,-161.526 118.875,-160.566 126.524,-167.897 129.426,-161.526"/>
</g>
<!-- Node12 -->
<g id="node12" class="node"><title>Node12</title>
<g id="a_node12"><a xlink:href="../../dd/d36/classorg_1_1msrg_1_1raccoon_1_1matrix_1_1finitefields_1_1ByteMatrix_a25491e8ba3b3c3e18ec2392b7393bac3.html#a25491e8ba3b3c3e18ec2392b7393bac3" target="_top" xlink:title="org.msrg.raccoon.matrix.finitefields.\lByteMatrix.multiply">
<polygon fill="none" stroke="black" points="239.5,-157.5 239.5,-187.5 412.5,-187.5 412.5,-157.5 239.5,-157.5"/>
<text text-anchor="start" x="247.5" y="-175.5" font-family="Helvetica,sans-Serif" font-size="10.00">org.msrg.raccoon.matrix.finitefields.</text>
<text text-anchor="middle" x="326" y="-164.5" font-family="Helvetica,sans-Serif" font-size="10.00">ByteMatrix.multiply</text>
</a>
</g>
</g>
<!-- Node1&#45;&gt;Node12 -->
<g id="edge14" class="edge"><title>Node1&#45;&gt;Node12</title>
<path fill="none" stroke="midnightblue" d="M183.436,-156.406C201.947,-158.511 221.227,-160.703 239.383,-162.767"/>
<polygon fill="midnightblue" stroke="midnightblue" points="183.574,-152.9 173.243,-155.248 182.784,-159.855 183.574,-152.9"/>
</g>
<!-- Node13 -->
<g id="node13" class="node"><title>Node13</title>
<g id="a_node13"><a xlink:href="../../d4/daf/classorg_1_1msrg_1_1raccoon_1_1engine_1_1task_1_1sequential_1_1EncodingReceivedCodedBatch__SequentialCodingTask_a42110602418c15d727175229b4b8f9cb.html#a42110602418c15d727175229b4b8f9cb" target="_top" xlink:title="org.msrg.raccoon.engine.task.sequential.\lEncodingReceivedCodedBatch_SequentialCoding\lTask.runStagePrivately">
<polygon fill="none" stroke="black" points="209,-98 209,-139 443,-139 443,-98 209,-98"/>
<text text-anchor="start" x="217" y="-127" font-family="Helvetica,sans-Serif" font-size="10.00">org.msrg.raccoon.engine.task.sequential.</text>
<text text-anchor="start" x="217" y="-116" font-family="Helvetica,sans-Serif" font-size="10.00">EncodingReceivedCodedBatch_SequentialCoding</text>
<text text-anchor="middle" x="326" y="-105" font-family="Helvetica,sans-Serif" font-size="10.00">Task.runStagePrivately</text>
</a>
</g>
</g>
<!-- Node1&#45;&gt;Node13 -->
<g id="edge15" class="edge"><title>Node1&#45;&gt;Node13</title>
<path fill="none" stroke="midnightblue" d="M183.369,-134.601C191.745,-133.649 200.278,-132.679 208.794,-131.711"/>
<polygon fill="midnightblue" stroke="midnightblue" points="182.784,-131.145 173.243,-135.752 183.574,-138.1 182.784,-131.145"/>
</g>
<!-- Node14 -->
<g id="node14" class="node"><title>Node14</title>
<g id="a_node14"><a xlink:href="../../d5/d96/classorg_1_1msrg_1_1raccoon_1_1matrix_1_1finitefields_1_1ByteMatrixTest_ae32ff4ec2714b4cecdb5f85253619a41.html#ae32ff4ec2714b4cecdb5f85253619a41" target="_top" xlink:title="org.msrg.raccoon.matrix.finitefields.\lByteMatrixTest.runTestM2timesInvIsM">
<polygon fill="none" stroke="black" points="232.5,-49.5 232.5,-79.5 419.5,-79.5 419.5,-49.5 232.5,-49.5"/>
<text text-anchor="start" x="240.5" y="-67.5" font-family="Helvetica,sans-Serif" font-size="10.00">org.msrg.raccoon.matrix.finitefields.</text>
<text text-anchor="middle" x="326" y="-56.5" font-family="Helvetica,sans-Serif" font-size="10.00">ByteMatrixTest.runTestM2timesInvIsM</text>
</a>
</g>
</g>
<!-- Node1&#45;&gt;Node14 -->
<g id="edge16" class="edge"><title>Node1&#45;&gt;Node14</title>
<path fill="none" stroke="midnightblue" d="M123.699,-125.772C147.386,-113.558 179.335,-98.3746 209,-88.5 219.049,-85.1549 229.749,-82.1845 240.433,-79.5732"/>
<polygon fill="midnightblue" stroke="midnightblue" points="121.969,-122.727 114.727,-130.46 125.211,-128.931 121.969,-122.727"/>
</g>
<!-- Node17 -->
<g id="node17" class="node"><title>Node17</title>
<g id="a_node17"><a xlink:href="../../d5/d96/classorg_1_1msrg_1_1raccoon_1_1matrix_1_1finitefields_1_1ByteMatrixTest_ac60808b559cdc155d008f0d650fe5c34.html#ac60808b559cdc155d008f0d650fe5c34" target="_top" xlink:title="org.msrg.raccoon.matrix.finitefields.\lByteMatrixTest.testMtimesBMtimesInvMIsBM">
<polygon fill="none" stroke="black" points="216.5,-0.5 216.5,-30.5 435.5,-30.5 435.5,-0.5 216.5,-0.5"/>
<text text-anchor="start" x="224.5" y="-18.5" font-family="Helvetica,sans-Serif" font-size="10.00">org.msrg.raccoon.matrix.finitefields.</text>
<text text-anchor="middle" x="326" y="-7.5" font-family="Helvetica,sans-Serif" font-size="10.00">ByteMatrixTest.testMtimesBMtimesInvMIsBM</text>
</a>
</g>
</g>
<!-- Node1&#45;&gt;Node17 -->
<g id="edge19" class="edge"><title>Node1&#45;&gt;Node17</title>
<path fill="none" stroke="midnightblue" d="M106.834,-122.763C128.967,-98.2774 167.549,-60.0729 209,-39.5 216,-36.0257 223.478,-33.0541 231.138,-30.5124"/>
<polygon fill="midnightblue" stroke="midnightblue" points="103.993,-120.692 99.9778,-130.496 109.231,-125.335 103.993,-120.692"/>
</g>
<!-- Node3 -->
<g id="node3" class="node"><title>Node3</title>
<g id="a_node3"><a xlink:href="../../dd/dfd/classorg_1_1msrg_1_1raccoon_1_1CodedPiece_acaf7264810bbdf99b73278b11ac1da72.html#acaf7264810bbdf99b73278b11ac1da72" target="_top" xlink:title="org.msrg.raccoon.CodedPiece.equals">
<polygon fill="none" stroke="black" points="479,-266 479,-285 659,-285 659,-266 479,-266"/>
<text text-anchor="middle" x="569" y="-273" font-family="Helvetica,sans-Serif" font-size="10.00">org.msrg.raccoon.CodedPiece.equals</text>
</a>
</g>
</g>
<!-- Node2&#45;&gt;Node3 -->
<g id="edge2" class="edge"><title>Node2&#45;&gt;Node3</title>
<path fill="none" stroke="midnightblue" d="M412.381,-275.5C433.965,-275.5 457.196,-275.5 478.956,-275.5"/>
<polygon fill="midnightblue" stroke="midnightblue" points="412.263,-272 402.263,-275.5 412.263,-279 412.263,-272"/>
</g>
<!-- Node4 -->
<g id="node4" class="node"><title>Node4</title>
<g id="a_node4"><a xlink:href="../../dd/dfd/classorg_1_1msrg_1_1raccoon_1_1CodedPiece_a2356802d8204151b602ba47d25c34ff3.html#a2356802d8204151b602ba47d25c34ff3" target="_top" xlink:title="org.msrg.raccoon.CodedPiece.make\lCodedPiece">
<polygon fill="none" stroke="black" points="481,-306.5 481,-336.5 657,-336.5 657,-306.5 481,-306.5"/>
<text text-anchor="start" x="489" y="-324.5" font-family="Helvetica,sans-Serif" font-size="10.00">org.msrg.raccoon.CodedPiece.make</text>
<text text-anchor="middle" x="569" y="-313.5" font-family="Helvetica,sans-Serif" font-size="10.00">CodedPiece</text>
</a>
</g>
</g>
<!-- Node2&#45;&gt;Node4 -->
<g id="edge3" class="edge"><title>Node2&#45;&gt;Node4</title>
<path fill="none" stroke="midnightblue" d="M412.115,-291.746C437.181,-296.53 464.489,-301.743 489.145,-306.449"/>
<polygon fill="midnightblue" stroke="midnightblue" points="412.741,-288.302 402.263,-289.865 411.429,-295.178 412.741,-288.302"/>
</g>
<!-- Node5 -->
<g id="node5" class="node"><title>Node5</title>
<g id="a_node5"><a xlink:href="../../d2/da2/classorg_1_1msrg_1_1raccoon_1_1SourceCodedBatch_aa614a213e1484d4643bf8f6b4eb8616a.html#aa614a213e1484d4643bf8f6b4eb8616a" target="_top" xlink:title="org.msrg.raccoon.SourceCoded\lBatch.code">
<polygon fill="none" stroke="black" points="714.5,-356.5 714.5,-386.5 869.5,-386.5 869.5,-356.5 714.5,-356.5"/>
<text text-anchor="start" x="722.5" y="-374.5" font-family="Helvetica,sans-Serif" font-size="10.00">org.msrg.raccoon.SourceCoded</text>
<text text-anchor="middle" x="792" y="-363.5" font-family="Helvetica,sans-Serif" font-size="10.00">Batch.code</text>
</a>
</g>
</g>
<!-- Node4&#45;&gt;Node5 -->
<g id="edge4" class="edge"><title>Node4&#45;&gt;Node5</title>
<path fill="none" stroke="midnightblue" d="M646.267,-338.755C671.667,-344.502 699.745,-350.854 724.358,-356.423"/>
<polygon fill="midnightblue" stroke="midnightblue" points="646.833,-335.295 636.307,-336.502 645.288,-342.122 646.833,-335.295"/>
</g>
<!-- Node8 -->
<g id="node8" class="node"><title>Node8</title>
<g id="a_node8"><a xlink:href="../../d7/da5/classorg_1_1msrg_1_1raccoon_1_1CodedPieceTest_a264feb2dd21ccabd0fa19fe54a7c52db.html#a264feb2dd21ccabd0fa19fe54a7c52db" target="_top" xlink:title="org.msrg.raccoon.CodedPiece\lTest.setUp">
<polygon fill="none" stroke="black" points="717.5,-307.5 717.5,-337.5 866.5,-337.5 866.5,-307.5 717.5,-307.5"/>
<text text-anchor="start" x="725.5" y="-325.5" font-family="Helvetica,sans-Serif" font-size="10.00">org.msrg.raccoon.CodedPiece</text>
<text text-anchor="middle" x="792" y="-314.5" font-family="Helvetica,sans-Serif" font-size="10.00">Test.setUp</text>
</a>
</g>
</g>
<!-- Node4&#45;&gt;Node8 -->
<g id="edge7" class="edge"><title>Node4&#45;&gt;Node8</title>
<path fill="none" stroke="midnightblue" d="M667.385,-321.941C684.126,-322.016 701.275,-322.094 717.264,-322.166"/>
<polygon fill="midnightblue" stroke="midnightblue" points="667.044,-318.439 657.028,-321.894 667.012,-325.439 667.044,-318.439"/>
</g>
<!-- Node9 -->
<g id="node9" class="node"><title>Node9</title>
<g id="a_node9"><a xlink:href="../../db/d26/classorg_1_1msrg_1_1raccoon_1_1ReceivedCodedBatchTest_af7c8b12bc8b1dc5d9c5e353b838d830d.html#af7c8b12bc8b1dc5d9c5e353b838d830d" target="_top" xlink:title="org.msrg.raccoon.Received\lCodedBatchTest.ttestEncodingDecoding\lReceivedCodedBatch">
<polygon fill="none" stroke="black" points="695,-248 695,-289 889,-289 889,-248 695,-248"/>
<text text-anchor="start" x="703" y="-277" font-family="Helvetica,sans-Serif" font-size="10.00">org.msrg.raccoon.Received</text>
<text text-anchor="start" x="703" y="-266" font-family="Helvetica,sans-Serif" font-size="10.00">CodedBatchTest.ttestEncodingDecoding</text>
<text text-anchor="middle" x="792" y="-255" font-family="Helvetica,sans-Serif" font-size="10.00">ReceivedCodedBatch</text>
</a>
</g>
</g>
<!-- Node4&#45;&gt;Node9 -->
<g id="edge8" class="edge"><title>Node4&#45;&gt;Node9</title>
<path fill="none" stroke="midnightblue" d="M642.724,-304.059C662.773,-299.251 684.708,-293.991 705.412,-289.026"/>
<polygon fill="midnightblue" stroke="midnightblue" points="641.647,-300.718 632.739,-306.454 643.279,-307.525 641.647,-300.718"/>
</g>
<!-- Node6 -->
<g id="node6" class="node"><title>Node6</title>
<g id="a_node6"><a xlink:href="../../db/d77/classorg_1_1msrg_1_1raccoon_1_1CodedBatchTest_a04baac235b53bea4fab4b550de9271a5.html#a04baac235b53bea4fab4b550de9271a5" target="_top" xlink:title="org.msrg.raccoon.CodedBatch\lTest.testReceivedCodedBatch">
<polygon fill="none" stroke="black" points="937.5,-320.5 937.5,-350.5 1088.5,-350.5 1088.5,-320.5 937.5,-320.5"/>
<text text-anchor="start" x="945.5" y="-338.5" font-family="Helvetica,sans-Serif" font-size="10.00">org.msrg.raccoon.CodedBatch</text>
<text text-anchor="middle" x="1013" y="-327.5" font-family="Helvetica,sans-Serif" font-size="10.00">Test.testReceivedCodedBatch</text>
</a>
</g>
</g>
<!-- Node5&#45;&gt;Node6 -->
<g id="edge5" class="edge"><title>Node5&#45;&gt;Node6</title>
<path fill="none" stroke="midnightblue" d="M879.488,-357.283C898.601,-354.141 918.694,-350.838 937.293,-347.781"/>
<polygon fill="midnightblue" stroke="midnightblue" points="878.895,-353.833 869.596,-358.909 880.031,-360.74 878.895,-353.833"/>
</g>
<!-- Node7 -->
<g id="node7" class="node"><title>Node7</title>
<g id="a_node7"><a xlink:href="../../d7/d47/classorg_1_1msrg_1_1raccoon_1_1SlicedCodedBatchTest_aa7d0bdfa77013b46a1f2e416dbb71b8c.html#aa7d0bdfa77013b46a1f2e416dbb71b8c" target="_top" xlink:title="org.msrg.raccoon.SlicedCoded\lBatchTest.testReceivedCodedBatch">
<polygon fill="none" stroke="black" points="925,-236.5 925,-266.5 1101,-266.5 1101,-236.5 925,-236.5"/>
<text text-anchor="start" x="933" y="-254.5" font-family="Helvetica,sans-Serif" font-size="10.00">org.msrg.raccoon.SlicedCoded</text>
<text text-anchor="middle" x="1013" y="-243.5" font-family="Helvetica,sans-Serif" font-size="10.00">BatchTest.testReceivedCodedBatch</text>
</a>
</g>
</g>
<!-- Node5&#45;&gt;Node7 -->
<g id="edge6" class="edge"><title>Node5&#45;&gt;Node7</title>
<path fill="none" stroke="midnightblue" d="M878.856,-352.621C882.347,-351.047 885.744,-349.344 889,-347.5 908.69,-336.351 907.615,-325.983 925,-311.5 945.018,-294.824 969.596,-278.187 987.517,-266.677"/>
<polygon fill="midnightblue" stroke="midnightblue" points="877.352,-349.456 869.432,-356.493 880.012,-355.931 877.352,-349.456"/>
</g>
<!-- Node11 -->
<g id="node11" class="node"><title>Node11</title>
<g id="a_node11"><a xlink:href="../../da/df0/classorg_1_1msrg_1_1raccoon_1_1ReceivedCodedBatch_aa025693c18e525356f5750174ceccd70.html#aa025693c18e525356f5750174ceccd70" target="_top" xlink:title="org.msrg.raccoon.Received\lCodedBatch.decode">
<polygon fill="none" stroke="black" points="500.5,-205.5 500.5,-235.5 637.5,-235.5 637.5,-205.5 500.5,-205.5"/>
<text text-anchor="start" x="508.5" y="-223.5" font-family="Helvetica,sans-Serif" font-size="10.00">org.msrg.raccoon.Received</text>
<text text-anchor="middle" x="569" y="-212.5" font-family="Helvetica,sans-Serif" font-size="10.00">CodedBatch.decode</text>
</a>
</g>
</g>
<!-- Node10&#45;&gt;Node11 -->
<g id="edge10" class="edge"><title>Node10&#45;&gt;Node11</title>
<path fill="none" stroke="midnightblue" d="M405.016,-221.176C435.738,-221.049 470.685,-220.904 500.318,-220.781"/>
<polygon fill="midnightblue" stroke="midnightblue" points="404.759,-217.677 394.773,-221.219 404.788,-224.677 404.759,-217.677"/>
</g>
<!-- Node11&#45;&gt;Node6 -->
<g id="edge11" class="edge"><title>Node11&#45;&gt;Node6</title>
<path fill="none" stroke="midnightblue" d="M647.878,-209.621C714.885,-203.737 812.547,-203.647 889,-238.5 909.877,-248.017 907.473,-260.694 925,-275.5 944.903,-292.313 969.494,-308.935 987.449,-320.404"/>
<polygon fill="midnightblue" stroke="midnightblue" points="647.436,-206.147 637.809,-210.569 648.093,-213.116 647.436,-206.147"/>
</g>
<!-- Node11&#45;&gt;Node7 -->
<g id="edge12" class="edge"><title>Node11&#45;&gt;Node7</title>
<path fill="none" stroke="midnightblue" d="M647.96,-207.128C712.946,-198.293 807.694,-190.794 889,-205.5 921.642,-211.404 956.913,-225.456 981.279,-236.487"/>
<polygon fill="midnightblue" stroke="midnightblue" points="647.209,-203.699 637.793,-208.554 648.182,-210.631 647.209,-203.699"/>
</g>
<!-- Node11&#45;&gt;Node9 -->
<g id="edge13" class="edge"><title>Node11&#45;&gt;Node9</title>
<path fill="none" stroke="midnightblue" d="M647.669,-237.369C663.366,-240.779 680.036,-244.399 696.244,-247.92"/>
<polygon fill="midnightblue" stroke="midnightblue" points="648.023,-233.865 637.508,-235.162 646.537,-240.705 648.023,-233.865"/>
</g>
<!-- Node15 -->
<g id="node15" class="node"><title>Node15</title>
<g id="a_node15"><a xlink:href="../../d5/d96/classorg_1_1msrg_1_1raccoon_1_1matrix_1_1finitefields_1_1ByteMatrixTest_af84f780201f4ae5e9d625748fa84ca38.html#af84f780201f4ae5e9d625748fa84ca38" target="_top" xlink:title="org.msrg.raccoon.matrix.finitefields.\lByteMatrixTest.testM2timesInvIsM\l_HasNoInvserse">
<polygon fill="none" stroke="black" points="482.5,-14 482.5,-55 655.5,-55 655.5,-14 482.5,-14"/>
<text text-anchor="start" x="490.5" y="-43" font-family="Helvetica,sans-Serif" font-size="10.00">org.msrg.raccoon.matrix.finitefields.</text>
<text text-anchor="start" x="490.5" y="-32" font-family="Helvetica,sans-Serif" font-size="10.00">ByteMatrixTest.testM2timesInvIsM</text>
<text text-anchor="middle" x="569" y="-21" font-family="Helvetica,sans-Serif" font-size="10.00">_HasNoInvserse</text>
</a>
</g>
</g>
<!-- Node14&#45;&gt;Node15 -->
<g id="edge17" class="edge"><title>Node14&#45;&gt;Node15</title>
<path fill="none" stroke="midnightblue" d="M430.028,-51.6749C447.463,-49.5046 465.396,-47.2723 482.325,-45.1649"/>
<polygon fill="midnightblue" stroke="midnightblue" points="429.323,-48.2356 419.832,-52.9441 430.188,-55.182 429.323,-48.2356"/>
</g>
<!-- Node16 -->
<g id="node16" class="node"><title>Node16</title>
<g id="a_node16"><a xlink:href="../../d5/d96/classorg_1_1msrg_1_1raccoon_1_1matrix_1_1finitefields_1_1ByteMatrixTest_a810788f9ce020bbab969821becb0ef3f.html#a810788f9ce020bbab969821becb0ef3f" target="_top" xlink:title="org.msrg.raccoon.matrix.finitefields.\lByteMatrixTest.testM2timesInvIsM\l_HasInvserse">
<polygon fill="none" stroke="black" points="482.5,-74 482.5,-115 655.5,-115 655.5,-74 482.5,-74"/>
<text text-anchor="start" x="490.5" y="-103" font-family="Helvetica,sans-Serif" font-size="10.00">org.msrg.raccoon.matrix.finitefields.</text>
<text text-anchor="start" x="490.5" y="-92" font-family="Helvetica,sans-Serif" font-size="10.00">ByteMatrixTest.testM2timesInvIsM</text>
<text text-anchor="middle" x="569" y="-81" font-family="Helvetica,sans-Serif" font-size="10.00">_HasInvserse</text>
</a>
</g>
</g>
<!-- Node14&#45;&gt;Node16 -->
<g id="edge18" class="edge"><title>Node14&#45;&gt;Node16</title>
<path fill="none" stroke="midnightblue" d="M430.028,-77.3251C447.463,-79.4954 465.396,-81.7277 482.325,-83.8351"/>
<polygon fill="midnightblue" stroke="midnightblue" points="430.188,-73.818 419.832,-76.0559 429.323,-80.7644 430.188,-73.818"/>
</g>
</g>
</svg>
