<?xml version="1.0" encoding="UTF-8" standalone="no"?>
<!DOCTYPE svg PUBLIC "-//W3C//DTD SVG 1.1//EN"
 "http://www.w3.org/Graphics/SVG/1.1/DTD/svg11.dtd">
<!-- Generated by graphviz version 2.38.0 (20140413.2041)
 -->
<!-- Title: org.msrg.raccoon.engine.ICodingListener.codingFinished Pages: 1 -->
<svg width="948pt" height="137pt"
 viewBox="0.00 0.00 948.00 137.00" xmlns="http://www.w3.org/2000/svg" xmlns:xlink="http://www.w3.org/1999/xlink">
<g id="graph0" class="graph" transform="scale(1 1) rotate(0) translate(4 133)">
<title>org.msrg.raccoon.engine.ICodingListener.codingFinished</title>
<!-- Node1 -->
<g id="node1" class="node"><title>Node1</title>
<polygon fill="#bfbfbf" stroke="black" points="0,-24.5 0,-54.5 153,-54.5 153,-24.5 0,-24.5"/>
<text text-anchor="start" x="8" y="-42.5" font-family="Helvetica,sans-Serif" font-size="10.00">org.msrg.raccoon.engine.</text>
<text text-anchor="middle" x="76.5" y="-31.5" font-family="Helvetica,sans-Serif" font-size="10.00">ICodingListener.codingFinished</text>
</g>
<!-- Node2 -->
<g id="node2" class="node"><title>Node2</title>
<g id="a_node2"><a xlink:href="../../db/d98/classorg_1_1msrg_1_1raccoon_1_1engine_1_1CodingEngine_a1396555d04800f11479184ccff358804.html#a1396555d04800f11479184ccff358804" target="_top" xlink:title="org.msrg.raccoon.engine.\lCodingEngine.notifyListener">
<polygon fill="none" stroke="black" points="189,-47.5 189,-77.5 328,-77.5 328,-47.5 189,-47.5"/>
<text text-anchor="start" x="197" y="-65.5" font-family="Helvetica,sans-Serif" font-size="10.00">org.msrg.raccoon.engine.</text>
<text text-anchor="middle" x="258.5" y="-54.5" font-family="Helvetica,sans-Serif" font-size="10.00">CodingEngine.notifyListener</text>
</a>
</g>
</g>
<!-- Node1&#45;&gt;Node2 -->
<g id="edge1" class="edge"><title>Node1&#45;&gt;Node2</title>
<path fill="none" stroke="midnightblue" d="M163.101,-50.4379C171.696,-51.5362 180.346,-52.6414 188.734,-53.7132"/>
<polygon fill="midnightblue" stroke="midnightblue" points="163.417,-46.9499 153.054,-49.1541 162.53,-53.8934 163.417,-46.9499"/>
</g>
<!-- Node7 -->
<g id="node7" class="node"><title>Node7</title>
<g id="a_node7"><a xlink:href="../../d2/d9a/classorg_1_1msrg_1_1raccoon_1_1engine_1_1CodingEngineImpl_a0398a605548bebf4995dd161d4785b45.html#a0398a605548bebf4995dd161d4785b45" target="_top" xlink:title="org.msrg.raccoon.engine.\lCodingEngineImpl.processCodingEvent">
<polygon fill="none" stroke="black" points="364,-0.5 364,-30.5 554,-30.5 554,-0.5 364,-0.5"/>
<text text-anchor="start" x="372" y="-18.5" font-family="Helvetica,sans-Serif" font-size="10.00">org.msrg.raccoon.engine.</text>
<text text-anchor="middle" x="459" y="-7.5" font-family="Helvetica,sans-Serif" font-size="10.00">CodingEngineImpl.processCodingEvent</text>
</a>
</g>
</g>
<!-- Node1&#45;&gt;Node7 -->
<g id="edge8" class="edge"><title>Node1&#45;&gt;Node7</title>
<path fill="none" stroke="midnightblue" d="M163.282,-34.0893C222.973,-30.3243 302.551,-25.3049 363.969,-21.431"/>
<polygon fill="midnightblue" stroke="midnightblue" points="162.889,-30.607 153.129,-34.7297 163.33,-37.5931 162.889,-30.607"/>
</g>
<!-- Node3 -->
<g id="node3" class="node"><title>Node3</title>
<g id="a_node3"><a xlink:href="../../db/d98/classorg_1_1msrg_1_1raccoon_1_1engine_1_1CodingEngine_a2398d0be0c50a5b97c4f18b1d26da62f.html#a2398d0be0c50a5b97c4f18b1d26da62f" target="_top" xlink:title="org.msrg.raccoon.engine.\lCodingEngine.codingTaskFailed">
<polygon fill="none" stroke="black" points="380.5,-98.5 380.5,-128.5 537.5,-128.5 537.5,-98.5 380.5,-98.5"/>
<text text-anchor="start" x="388.5" y="-116.5" font-family="Helvetica,sans-Serif" font-size="10.00">org.msrg.raccoon.engine.</text>
<text text-anchor="middle" x="459" y="-105.5" font-family="Helvetica,sans-Serif" font-size="10.00">CodingEngine.codingTaskFailed</text>
</a>
</g>
</g>
<!-- Node2&#45;&gt;Node3 -->
<g id="edge2" class="edge"><title>Node2&#45;&gt;Node3</title>
<path fill="none" stroke="midnightblue" d="M327.234,-80.0308C339.47,-83.1891 352.114,-86.4471 364,-89.5 375.338,-92.4121 387.448,-95.5119 399.075,-98.4828"/>
<polygon fill="midnightblue" stroke="midnightblue" points="328.088,-76.6366 317.531,-77.5251 326.338,-83.4143 328.088,-76.6366"/>
</g>
<!-- Node6 -->
<g id="node6" class="node"><title>Node6</title>
<g id="a_node6"><a xlink:href="../../db/d98/classorg_1_1msrg_1_1raccoon_1_1engine_1_1CodingEngine_a3d4a6d3540939a6669282049714e7a92.html#a3d4a6d3540939a6669282049714e7a92" target="_top" xlink:title="org.msrg.raccoon.engine.\lCodingEngine.codingTaskFinished">
<polygon fill="none" stroke="black" points="375.5,-49.5 375.5,-79.5 542.5,-79.5 542.5,-49.5 375.5,-49.5"/>
<text text-anchor="start" x="383.5" y="-67.5" font-family="Helvetica,sans-Serif" font-size="10.00">org.msrg.raccoon.engine.</text>
<text text-anchor="middle" x="459" y="-56.5" font-family="Helvetica,sans-Serif" font-size="10.00">CodingEngine.codingTaskFinished</text>
</a>
</g>
</g>
<!-- Node2&#45;&gt;Node6 -->
<g id="edge5" class="edge"><title>Node2&#45;&gt;Node6</title>
<path fill="none" stroke="midnightblue" d="M338.228,-63.2932C350.439,-63.4163 363.083,-63.5437 375.377,-63.6675"/>
<polygon fill="midnightblue" stroke="midnightblue" points="338.125,-59.7921 328.09,-63.1911 338.055,-66.7918 338.125,-59.7921"/>
</g>
<!-- Node2&#45;&gt;Node7 -->
<g id="edge7" class="edge"><title>Node2&#45;&gt;Node7</title>
<path fill="none" stroke="midnightblue" d="M332.68,-45.1727C352.99,-40.3639 374.867,-35.184 394.569,-30.519"/>
<polygon fill="midnightblue" stroke="midnightblue" points="331.777,-41.7897 322.852,-47.4997 333.39,-48.6014 331.777,-41.7897"/>
</g>
<!-- Node4 -->
<g id="node4" class="node"><title>Node4</title>
<g id="a_node4"><a xlink:href="../../d1/da4/classorg_1_1msrg_1_1raccoon_1_1engine_1_1thread_1_1CodingThread_a31a8bf19549ed7009791f430c356a421.html#a31a8bf19549ed7009791f430c356a421" target="_top" xlink:title="org.msrg.raccoon.engine.thread.\lCodingThread.runMe">
<polygon fill="none" stroke="black" points="590,-73.5 590,-103.5 747,-103.5 747,-73.5 590,-73.5"/>
<text text-anchor="start" x="598" y="-91.5" font-family="Helvetica,sans-Serif" font-size="10.00">org.msrg.raccoon.engine.thread.</text>
<text text-anchor="middle" x="668.5" y="-80.5" font-family="Helvetica,sans-Serif" font-size="10.00">CodingThread.runMe</text>
</a>
</g>
</g>
<!-- Node3&#45;&gt;Node4 -->
<g id="edge3" class="edge"><title>Node3&#45;&gt;Node4</title>
<path fill="none" stroke="midnightblue" d="M547.643,-102.941C561.608,-101.258 575.971,-99.5276 589.688,-97.8749"/>
<polygon fill="midnightblue" stroke="midnightblue" points="547.07,-99.4842 537.56,-104.155 547.907,-106.434 547.07,-99.4842"/>
</g>
<!-- Node5 -->
<g id="node5" class="node"><title>Node5</title>
<g id="a_node5"><a xlink:href="../../d1/da4/classorg_1_1msrg_1_1raccoon_1_1engine_1_1thread_1_1CodingThread_ae09277e895c3233c7ff465cc8cb00e7c.html#ae09277e895c3233c7ff465cc8cb00e7c" target="_top" xlink:title="org.msrg.raccoon.engine.thread.\lCodingThread.run">
<polygon fill="none" stroke="black" points="783,-73.5 783,-103.5 940,-103.5 940,-73.5 783,-73.5"/>
<text text-anchor="start" x="791" y="-91.5" font-family="Helvetica,sans-Serif" font-size="10.00">org.msrg.raccoon.engine.thread.</text>
<text text-anchor="middle" x="861.5" y="-80.5" font-family="Helvetica,sans-Serif" font-size="10.00">CodingThread.run</text>
</a>
</g>
</g>
<!-- Node4&#45;&gt;Node5 -->
<g id="edge4" class="edge"><title>Node4&#45;&gt;Node5</title>
<path fill="none" stroke="midnightblue" d="M757.193,-88.5C765.765,-88.5 774.42,-88.5 782.882,-88.5"/>
<polygon fill="midnightblue" stroke="midnightblue" points="757.187,-85.0001 747.187,-88.5 757.187,-92.0001 757.187,-85.0001"/>
</g>
<!-- Node6&#45;&gt;Node4 -->
<g id="edge6" class="edge"><title>Node6&#45;&gt;Node4</title>
<path fill="none" stroke="midnightblue" d="M552.55,-75.2046C565.026,-76.6476 577.72,-78.1159 589.9,-79.5246"/>
<polygon fill="midnightblue" stroke="midnightblue" points="552.942,-71.7266 542.606,-74.0544 552.137,-78.6803 552.942,-71.7266"/>
</g>
</g>
</svg>
