<?xml version="1.0" encoding="UTF-8" standalone="no"?>
<!DOCTYPE svg PUBLIC "-//W3C//DTD SVG 1.1//EN"
 "http://www.w3.org/Graphics/SVG/1.1/DTD/svg11.dtd">
<!-- Generated by graphviz version 2.38.0 (20140413.2041)
 -->
<!-- Title: org.msrg.raccoon.SlicedCodedBatchTest Pages: 1 -->
<svg width="159pt" height="281pt"
 viewBox="0.00 0.00 159.00 281.00" xmlns="http://www.w3.org/2000/svg" xmlns:xlink="http://www.w3.org/1999/xlink">
<g id="graph0" class="graph" transform="scale(1 1) rotate(0) translate(4 277)">
<title>org.msrg.raccoon.SlicedCodedBatchTest</title>
<!-- Node1 -->
<g id="node1" class="node"><title>Node1</title>
<polygon fill="#bfbfbf" stroke="black" points="0,-0.5 0,-178.5 151,-178.5 151,-0.5 0,-0.5"/>
<text text-anchor="start" x="8" y="-166.5" font-family="Helvetica,sans-Serif" font-size="10.00">org.msrg.raccoon.SlicedCoded</text>
<text text-anchor="middle" x="75.5" y="-155.5" font-family="Helvetica,sans-Serif" font-size="10.00">BatchTest</text>
<polyline fill="none" stroke="black" points="0,-148.5 151,-148.5 "/>
<text text-anchor="start" x="8" y="-136.5" font-family="Helvetica,sans-Serif" font-size="10.00">~ ROWS_COUNT</text>
<text text-anchor="start" x="8" y="-125.5" font-family="Helvetica,sans-Serif" font-size="10.00">~ SLICE_WIDTH</text>
<text text-anchor="start" x="8" y="-114.5" font-family="Helvetica,sans-Serif" font-size="10.00">~ PIECE_WIDTH</text>
<text text-anchor="start" x="8" y="-103.5" font-family="Helvetica,sans-Serif" font-size="10.00">~ CONTENT_SIZE</text>
<text text-anchor="start" x="8" y="-92.5" font-family="Helvetica,sans-Serif" font-size="10.00">&#45; _contentSize</text>
<text text-anchor="start" x="8" y="-81.5" font-family="Helvetica,sans-Serif" font-size="10.00">&#45; _content</text>
<text text-anchor="start" x="8" y="-70.5" font-family="Helvetica,sans-Serif" font-size="10.00">&#45; _sourceCodedBatch</text>
<text text-anchor="start" x="8" y="-59.5" font-family="Helvetica,sans-Serif" font-size="10.00">&#45; _receivedCodedBatch</text>
<polyline fill="none" stroke="black" points="0,-52.5 151,-52.5 "/>
<text text-anchor="start" x="8" y="-40.5" font-family="Helvetica,sans-Serif" font-size="10.00">+ setUp()</text>
<text text-anchor="start" x="8" y="-29.5" font-family="Helvetica,sans-Serif" font-size="10.00">+ testSourceCodedBatch()</text>
<text text-anchor="start" x="8" y="-18.5" font-family="Helvetica,sans-Serif" font-size="10.00">+ testReceivedCodedBatch()</text>
<text text-anchor="start" x="8" y="-7.5" font-family="Helvetica,sans-Serif" font-size="10.00">~ [static initializer]()</text>
</g>
<!-- Node2 -->
<g id="node2" class="node"><title>Node2</title>
<polygon fill="none" stroke="#bfbfbf" points="46,-215.5 46,-272.5 105,-272.5 105,-215.5 46,-215.5"/>
<text text-anchor="middle" x="75.5" y="-260.5" font-family="Helvetica,sans-Serif" font-size="10.00">TestCase</text>
<polyline fill="none" stroke="#bfbfbf" points="46,-253.5 105,-253.5 "/>
<text text-anchor="middle" x="75.5" y="-241.5" font-family="Helvetica,sans-Serif" font-size="10.00"> </text>
<polyline fill="none" stroke="#bfbfbf" points="46,-234.5 105,-234.5 "/>
<text text-anchor="middle" x="75.5" y="-222.5" font-family="Helvetica,sans-Serif" font-size="10.00"> </text>
</g>
<!-- Node2&#45;&gt;Node1 -->
<g id="edge1" class="edge"><title>Node2&#45;&gt;Node1</title>
<path fill="none" stroke="midnightblue" d="M75.5,-205.374C75.5,-197.089 75.5,-187.977 75.5,-178.62"/>
<polygon fill="none" stroke="midnightblue" points="72.0001,-205.383 75.5,-215.383 79.0001,-205.383 72.0001,-205.383"/>
</g>
</g>
</svg>
