<?xml version="1.0" encoding="UTF-8" standalone="no"?>
<!DOCTYPE svg PUBLIC "-//W3C//DTD SVG 1.1//EN"
 "http://www.w3.org/Graphics/SVG/1.1/DTD/svg11.dtd">
<!-- Generated by graphviz version 2.38.0 (20140413.2041)
 -->
<!-- Title: org.msrg.raccoon.engine.task.CodingTask Pages: 1 -->
<!--zoomable 584 -->
<svg id="main" version="1.1" xmlns="http://www.w3.org/2000/svg" xmlns:xlink="http://www.w3.org/1999/xlink" xml:space="preserve" onload="init(evt)">
<style type="text/css"><![CDATA[
.edge:hover path { stroke: red; }
.edge:hover polygon { stroke: red; fill: red; }
]]></style>
<script type="text/javascript"><![CDATA[
var edges = document.getElementsByTagName('g');
if (edges && edges.length) {
  for (var i=0;i<edges.length;i++) {
    if (edges[i].id.substr(0,4)=='edge') {
      edges[i].setAttribute('class','edge');
    }
  }
}
]]></script>
        <defs>
                <circle id="rim" cx="0" cy="0" r="7"/>
                <circle id="rim2" cx="0" cy="0" r="3.5"/>
                <g id="zoomPlus">
                        <use xlink:href="#rim" fill="#404040">
                                <set attributeName="fill" to="#808080" begin="zoomplus.mouseover" end="zoomplus.mouseout"/>
                        </use>
                        <path d="M-4,0h8M0,-4v8" fill="none" stroke="white" stroke-width="1.5" pointer-events="none"/>
                </g>
                <g id="zoomMin">
                        <use xlink:href="#rim" fill="#404040">
                                <set attributeName="fill" to="#808080" begin="zoomminus.mouseover" end="zoomminus.mouseout"/>
                        </use>
                        <path d="M-4,0h8" fill="none" stroke="white" stroke-width="1.5" pointer-events="none"/>
                </g>
                <g id="dirArrow">
                        <path fill="none" stroke="white" stroke-width="1.5" d="M0,-3.0v7 M-2.5,-0.5L0,-3.0L2.5,-0.5"/>
                </g>
               <g id="resetDef">
                       <use xlink:href="#rim2" fill="#404040">
                               <set attributeName="fill" to="#808080" begin="reset.mouseover" end="reset.mouseout"/>
                       </use>
               </g>
        </defs>

<script type="text/javascript">
var viewWidth = 692;
var viewHeight = 584;
var sectionId = 'dynsection-1';
</script>
<script xlink:href="../../svgpan.js"/>
<svg id="graph" class="graph">
<g id="viewport">
<title>org.msrg.raccoon.engine.task.CodingTask</title>
<!-- Node14 -->
<g id="node1" class="node"><title>Node14</title>
<polygon fill="#bfbfbf" stroke="black" points="203,-193.5 203,-404.5 352,-404.5 352,-193.5 203,-193.5"/>
<text text-anchor="start" x="211" y="-392.5" font-family="Helvetica,sans-Serif" font-size="10.00">org.msrg.raccoon.engine.task.</text>
<text text-anchor="middle" x="277.5" y="-381.5" font-family="Helvetica,sans-Serif" font-size="10.00">CodingTask</text>
<polyline fill="none" stroke="black" points="203,-374.5 352,-374.5 "/>
<text text-anchor="middle" x="277.5" y="-362.5" font-family="Helvetica,sans-Serif" font-size="10.00"> </text>
<polyline fill="none" stroke="black" points="203,-355.5 352,-355.5 "/>
<text text-anchor="start" x="211" y="-343.5" font-family="Helvetica,sans-Serif" font-size="10.00">+ getCodingResults()</text>
<text text-anchor="start" x="211" y="-332.5" font-family="Helvetica,sans-Serif" font-size="10.00">+ getStatus()</text>
<text text-anchor="start" x="211" y="-321.5" font-family="Helvetica,sans-Serif" font-size="10.00">+ isStarted()</text>
<text text-anchor="start" x="211" y="-310.5" font-family="Helvetica,sans-Serif" font-size="10.00">+ isFinished()</text>
<text text-anchor="start" x="211" y="-299.5" font-family="Helvetica,sans-Serif" font-size="10.00">+ isFailed()</text>
<text text-anchor="start" x="211" y="-288.5" font-family="Helvetica,sans-Serif" font-size="10.00">+ failed()</text>
<text text-anchor="start" x="211" y="-277.5" font-family="Helvetica,sans-Serif" font-size="10.00">+ started()</text>
<text text-anchor="start" x="211" y="-266.5" font-family="Helvetica,sans-Serif" font-size="10.00">+ finished()</text>
<text text-anchor="start" x="211" y="-255.5" font-family="Helvetica,sans-Serif" font-size="10.00">+ isSequencial()</text>
<text text-anchor="start" x="211" y="-244.5" font-family="Helvetica,sans-Serif" font-size="10.00">+ equals()</text>
<text text-anchor="start" x="211" y="-233.5" font-family="Helvetica,sans-Serif" font-size="10.00">+ hashCode()</text>
<text text-anchor="start" x="211" y="-222.5" font-family="Helvetica,sans-Serif" font-size="10.00"># CodingTask()</text>
<text text-anchor="start" x="211" y="-211.5" font-family="Helvetica,sans-Serif" font-size="10.00"># getEmptyCodingResults()</text>
<text text-anchor="start" x="211" y="-200.5" font-family="Helvetica,sans-Serif" font-size="10.00"># changeStatus()</text>
</g>
<!-- Node17 -->
<g id="node4" class="node"><title>Node17</title>
<g id="a_node4"><a xlink:href="../../df/d3e/classorg_1_1msrg_1_1raccoon_1_1engine_1_1task_1_1result_1_1CodingResult.html" target="_top" xlink:title="{org.msrg.raccoon.engine.task.result.\lCodingResult\n||+ equals()\l+ hashCode()\l+ getStatus()\l+ setStatus()\l+ isStarted()\l+ isFailed()\l+ isFinished()\l# CodingResult()\l}">
<polygon fill="none" stroke="black" points="251.5,-0.5 251.5,-145.5 427.5,-145.5 427.5,-0.5 251.5,-0.5"/>
<text text-anchor="start" x="259.5" y="-133.5" font-family="Helvetica,sans-Serif" font-size="10.00">org.msrg.raccoon.engine.task.result.</text>
<text text-anchor="middle" x="339.5" y="-122.5" font-family="Helvetica,sans-Serif" font-size="10.00">CodingResult</text>
<polyline fill="none" stroke="black" points="251.5,-115.5 427.5,-115.5 "/>
<text text-anchor="middle" x="339.5" y="-103.5" font-family="Helvetica,sans-Serif" font-size="10.00"> </text>
<polyline fill="none" stroke="black" points="251.5,-96.5 427.5,-96.5 "/>
<text text-anchor="start" x="259.5" y="-84.5" font-family="Helvetica,sans-Serif" font-size="10.00">+ equals()</text>
<text text-anchor="start" x="259.5" y="-73.5" font-family="Helvetica,sans-Serif" font-size="10.00">+ hashCode()</text>
<text text-anchor="start" x="259.5" y="-62.5" font-family="Helvetica,sans-Serif" font-size="10.00">+ getStatus()</text>
<text text-anchor="start" x="259.5" y="-51.5" font-family="Helvetica,sans-Serif" font-size="10.00">+ setStatus()</text>
<text text-anchor="start" x="259.5" y="-40.5" font-family="Helvetica,sans-Serif" font-size="10.00">+ isStarted()</text>
<text text-anchor="start" x="259.5" y="-29.5" font-family="Helvetica,sans-Serif" font-size="10.00">+ isFailed()</text>
<text text-anchor="start" x="259.5" y="-18.5" font-family="Helvetica,sans-Serif" font-size="10.00">+ isFinished()</text>
<text text-anchor="start" x="259.5" y="-7.5" font-family="Helvetica,sans-Serif" font-size="10.00"># CodingResult()</text>
</a>
</g>
</g>
<!-- Node14&#45;&gt;Node17 -->
<g id="edge4" class="edge"><title>Node14&#45;&gt;Node17</title>
<path fill="none" stroke="#404040" d="M312.357,-193.199C314.157,-187.06 315.886,-180.96 317.5,-175 319.018,-169.395 320.503,-163.593 321.941,-157.733"/>
<polygon fill="none" stroke="#404040" points="322.034,-157.343 319.535,-150.578 324.818,-145.67 327.317,-152.434 322.034,-157.343"/>
<text text-anchor="middle" x="341.5" y="-167" font-family="Helvetica,sans-Serif" font-size="10.00"> +_cTask</text>
</g>
<!-- Node15 -->
<g id="node2" class="node"><title>Node15</title>
<g id="a_node2"><a xlink:href="../../d6/d58/interfaceorg_1_1msrg_1_1raccoon_1_1engine_1_1ICodingListener.html" target="_top" xlink:title="{org.msrg.raccoon.engine.\lICodingListener\n||+ codingStarted()\l+ codingPreliminaryStageCompleted()\l+ codingFailed()\l+ codingFinished()\l}">
<polygon fill="none" stroke="black" points="167.5,-463.5 167.5,-564.5 349.5,-564.5 349.5,-463.5 167.5,-463.5"/>
<text text-anchor="start" x="175.5" y="-552.5" font-family="Helvetica,sans-Serif" font-size="10.00">org.msrg.raccoon.engine.</text>
<text text-anchor="middle" x="258.5" y="-541.5" font-family="Helvetica,sans-Serif" font-size="10.00">ICodingListener</text>
<polyline fill="none" stroke="black" points="167.5,-534.5 349.5,-534.5 "/>
<text text-anchor="middle" x="258.5" y="-522.5" font-family="Helvetica,sans-Serif" font-size="10.00"> </text>
<polyline fill="none" stroke="black" points="167.5,-515.5 349.5,-515.5 "/>
<text text-anchor="start" x="175.5" y="-503.5" font-family="Helvetica,sans-Serif" font-size="10.00">+ codingStarted()</text>
<text text-anchor="start" x="175.5" y="-492.5" font-family="Helvetica,sans-Serif" font-size="10.00">+ codingPreliminaryStageCompleted()</text>
<text text-anchor="start" x="175.5" y="-481.5" font-family="Helvetica,sans-Serif" font-size="10.00">+ codingFailed()</text>
<text text-anchor="start" x="175.5" y="-470.5" font-family="Helvetica,sans-Serif" font-size="10.00">+ codingFinished()</text>
</a>
</g>
</g>
<!-- Node15&#45;&gt;Node14 -->
<g id="edge1" class="edge"><title>Node15&#45;&gt;Node14</title>
<path fill="none" stroke="#404040" d="M262.931,-463.33C264.18,-449.322 265.595,-433.458 267.04,-417.26"/>
<polygon fill="none" stroke="#404040" points="267.082,-416.785 263.631,-410.453 268.149,-404.832 271.6,-411.164 267.082,-416.785"/>
<text text-anchor="middle" x="289.5" y="-426" font-family="Helvetica,sans-Serif" font-size="10.00"> +_listener</text>
</g>
<!-- Node16 -->
<g id="node3" class="node"><title>Node16</title>
<g id="a_node3"><a xlink:href="../../d5/d15/classorg_1_1msrg_1_1raccoon_1_1engine_1_1task_1_1CodingId.html" target="_top" xlink:title="{org.msrg.raccoon.engine.task.\lCodingId\n|&#45; _id\l&#45; _lastId\l|+ equals()\l+ hashCode()\l+ toString()\l+ getNewCodingId()\l&#45; CodingId()\l}">
<polygon fill="none" stroke="black" points="0,-452.5 0,-575.5 149,-575.5 149,-452.5 0,-452.5"/>
<text text-anchor="start" x="8" y="-563.5" font-family="Helvetica,sans-Serif" font-size="10.00">org.msrg.raccoon.engine.task.</text>
<text text-anchor="middle" x="74.5" y="-552.5" font-family="Helvetica,sans-Serif" font-size="10.00">CodingId</text>
<polyline fill="none" stroke="black" points="0,-545.5 149,-545.5 "/>
<text text-anchor="start" x="8" y="-533.5" font-family="Helvetica,sans-Serif" font-size="10.00">&#45; _id</text>
<text text-anchor="start" x="8" y="-522.5" font-family="Helvetica,sans-Serif" font-size="10.00">&#45; _lastId</text>
<polyline fill="none" stroke="black" points="0,-515.5 149,-515.5 "/>
<text text-anchor="start" x="8" y="-503.5" font-family="Helvetica,sans-Serif" font-size="10.00">+ equals()</text>
<text text-anchor="start" x="8" y="-492.5" font-family="Helvetica,sans-Serif" font-size="10.00">+ hashCode()</text>
<text text-anchor="start" x="8" y="-481.5" font-family="Helvetica,sans-Serif" font-size="10.00">+ toString()</text>
<text text-anchor="start" x="8" y="-470.5" font-family="Helvetica,sans-Serif" font-size="10.00">+ getNewCodingId()</text>
<text text-anchor="start" x="8" y="-459.5" font-family="Helvetica,sans-Serif" font-size="10.00">&#45; CodingId()</text>
</a>
</g>
</g>
<!-- Node16&#45;&gt;Node14 -->
<g id="edge2" class="edge"><title>Node16&#45;&gt;Node14</title>
<path fill="none" stroke="#404040" d="M132.4,-452.248C151.661,-432.038 173.508,-409.115 194.296,-387.303"/>
<polygon fill="none" stroke="#404040" points="194.539,-387.047 195.783,-379.944 202.818,-378.36 201.575,-385.464 194.539,-387.047"/>
<text text-anchor="middle" x="169.5" y="-426" font-family="Helvetica,sans-Serif" font-size="10.00"> +_id</text>
</g>
<!-- Node16&#45;&gt;Node17 -->
<g id="edge6" class="edge"><title>Node16&#45;&gt;Node17</title>
<path fill="none" stroke="#404040" d="M80.9692,-452.381C90.8133,-383.866 114.823,-271.654 171.5,-193 189.855,-167.528 215.393,-145.526 241.024,-127.611"/>
<polygon fill="none" stroke="#404040" points="241.289,-127.432 244.008,-120.753 251.219,-120.695 248.5,-127.373 241.289,-127.432"/>
<text text-anchor="middle" x="182.5" y="-296.5" font-family="Helvetica,sans-Serif" font-size="10.00"> +_id</text>
</g>
<!-- Node17&#45;&gt;Node14 -->
<g id="edge3" class="edge"><title>Node17&#45;&gt;Node14</title>
<path fill="none" stroke="#404040" d="M285.869,-145.571C282.955,-151.605 280.434,-157.782 278.5,-164 276.777,-169.54 275.38,-175.272 274.262,-181.106"/>
<polygon fill="none" stroke="#404040" points="274.224,-181.345 277.235,-187.897 272.344,-193.197 269.334,-186.644 274.224,-181.345"/>
<text text-anchor="middle" x="298" y="-167" font-family="Helvetica,sans-Serif" font-size="10.00"> +_result</text>
</g>
<!-- Node18 -->
<g id="node5" class="node"><title>Node18</title>
<g id="a_node5"><a xlink:href="../../d1/dce/namespaceorg_1_1msrg_1_1raccoon_1_1engine_1_1task_1_1result.html#de/d82/enumorg_1_1msrg_1_1raccoon_1_1engine_1_1task_1_1result_1_1CodingResultsType" target="_top" xlink:title="{org.msrg.raccoon.engine.task.result.\lCodingResultsType\n|+ BOOLEAN\l+ NC_MATRIX\l+ BULK_MATRIX\l+ CODED_SLICE_MATRIX\l+ SLICE_MATRIX\l+ CODED_SLICE\l+ FILE_RESULT\l|}">
<polygon fill="none" stroke="black" points="369.5,-232 369.5,-366 545.5,-366 545.5,-232 369.5,-232"/>
<text text-anchor="start" x="377.5" y="-354" font-family="Helvetica,sans-Serif" font-size="10.00">org.msrg.raccoon.engine.task.result.</text>
<text text-anchor="middle" x="457.5" y="-343" font-family="Helvetica,sans-Serif" font-size="10.00">CodingResultsType</text>
<polyline fill="none" stroke="black" points="369.5,-336 545.5,-336 "/>
<text text-anchor="start" x="377.5" y="-324" font-family="Helvetica,sans-Serif" font-size="10.00">+ BOOLEAN</text>
<text text-anchor="start" x="377.5" y="-313" font-family="Helvetica,sans-Serif" font-size="10.00">+ NC_MATRIX</text>
<text text-anchor="start" x="377.5" y="-302" font-family="Helvetica,sans-Serif" font-size="10.00">+ BULK_MATRIX</text>
<text text-anchor="start" x="377.5" y="-291" font-family="Helvetica,sans-Serif" font-size="10.00">+ CODED_SLICE_MATRIX</text>
<text text-anchor="start" x="377.5" y="-280" font-family="Helvetica,sans-Serif" font-size="10.00">+ SLICE_MATRIX</text>
<text text-anchor="start" x="377.5" y="-269" font-family="Helvetica,sans-Serif" font-size="10.00">+ CODED_SLICE</text>
<text text-anchor="start" x="377.5" y="-258" font-family="Helvetica,sans-Serif" font-size="10.00">+ FILE_RESULT</text>
<polyline fill="none" stroke="black" points="369.5,-251 545.5,-251 "/>
<text text-anchor="middle" x="457.5" y="-239" font-family="Helvetica,sans-Serif" font-size="10.00"> </text>
</a>
</g>
</g>
<!-- Node18&#45;&gt;Node17 -->
<g id="edge5" class="edge"><title>Node18&#45;&gt;Node17</title>
<path fill="none" stroke="#404040" d="M422.575,-231.702C410.143,-208.102 395.99,-181.235 382.933,-156.448"/>
<polygon fill="none" stroke="#404040" points="382.81,-156.215 376.474,-152.771 377.217,-145.598 383.552,-149.042 382.81,-156.215"/>
<text text-anchor="middle" x="424.5" y="-167" font-family="Helvetica,sans-Serif" font-size="10.00"> +_resultsType</text>
</g>
<!-- Node19 -->
<g id="node6" class="node"><title>Node19</title>
<g id="a_node6"><a xlink:href="../../df/de9/namespaceorg_1_1msrg_1_1raccoon_1_1engine_1_1task.html#dd/d1c/enumorg_1_1msrg_1_1raccoon_1_1engine_1_1task_1_1CodingTaskStatus" target="_top" xlink:title="{org.msrg.raccoon.engine.task.\lCodingTaskStatus\n|+ CREATED\l+ STARTED\l+ FINISHED\l+ FAILED\l|}">
<polygon fill="none" stroke="black" points="535,-463.5 535,-564.5 684,-564.5 684,-463.5 535,-463.5"/>
<text text-anchor="start" x="543" y="-552.5" font-family="Helvetica,sans-Serif" font-size="10.00">org.msrg.raccoon.engine.task.</text>
<text text-anchor="middle" x="609.5" y="-541.5" font-family="Helvetica,sans-Serif" font-size="10.00">CodingTaskStatus</text>
<polyline fill="none" stroke="black" points="535,-534.5 684,-534.5 "/>
<text text-anchor="start" x="543" y="-522.5" font-family="Helvetica,sans-Serif" font-size="10.00">+ CREATED</text>
<text text-anchor="start" x="543" y="-511.5" font-family="Helvetica,sans-Serif" font-size="10.00">+ STARTED</text>
<text text-anchor="start" x="543" y="-500.5" font-family="Helvetica,sans-Serif" font-size="10.00">+ FINISHED</text>
<text text-anchor="start" x="543" y="-489.5" font-family="Helvetica,sans-Serif" font-size="10.00">+ FAILED</text>
<polyline fill="none" stroke="black" points="535,-482.5 684,-482.5 "/>
<text text-anchor="middle" x="609.5" y="-470.5" font-family="Helvetica,sans-Serif" font-size="10.00"> </text>
</a>
</g>
</g>
<!-- Node19&#45;&gt;Node14 -->
<g id="edge8" class="edge"><title>Node19&#45;&gt;Node14</title>
<path fill="none" stroke="#404040" d="M545.167,-463.367C538.683,-459.259 532.066,-455.39 525.5,-452 489.659,-433.493 478.325,-433.939 439.5,-423 408.223,-414.188 393.864,-422.271 362.829,-405.572"/>
<polygon fill="none" stroke="#404040" points="362.447,-405.346 355.246,-405.727 352.124,-399.227 359.325,-398.845 362.447,-405.346"/>
<text text-anchor="middle" x="502" y="-426" font-family="Helvetica,sans-Serif" font-size="10.00"> #_status</text>
</g>
<!-- Node19&#45;&gt;Node17 -->
<g id="edge7" class="edge"><title>Node19&#45;&gt;Node17</title>
<path fill="none" stroke="#404040" d="M613.542,-463.338C616.448,-395.829 612.208,-274.221 554.5,-193 526.373,-153.413 480.752,-125.503 438.755,-106.713"/>
<polygon fill="none" stroke="#404040" points="438.614,-106.652 431.52,-107.944 427.598,-101.892 434.693,-100.6 438.614,-106.652"/>
<text text-anchor="middle" x="634" y="-296.5" font-family="Helvetica,sans-Serif" font-size="10.00"> #_status</text>
</g>
<!-- Node20 -->
<g id="node7" class="node"><title>Node20</title>
<g id="a_node7"><a xlink:href="../../d5/da9/enumorg_1_1msrg_1_1raccoon_1_1engine_1_1task_1_1CodingTaskType.html" target="_top" xlink:title="{org.msrg.raccoon.engine.task.\lCodingTaskType\n|+ FILE_TASK\l+ SLICES_EQUAL\l+ MULTIPLY\l+ INVERSE\l+ SEQUENCIAL\l+ _isSequencial\l|+ CodingTaskType()\l}">
<polygon fill="none" stroke="black" points="368,-452.5 368,-575.5 517,-575.5 517,-452.5 368,-452.5"/>
<text text-anchor="start" x="376" y="-563.5" font-family="Helvetica,sans-Serif" font-size="10.00">org.msrg.raccoon.engine.task.</text>
<text text-anchor="middle" x="442.5" y="-552.5" font-family="Helvetica,sans-Serif" font-size="10.00">CodingTaskType</text>
<polyline fill="none" stroke="black" points="368,-545.5 517,-545.5 "/>
<text text-anchor="start" x="376" y="-533.5" font-family="Helvetica,sans-Serif" font-size="10.00">+ FILE_TASK</text>
<text text-anchor="start" x="376" y="-522.5" font-family="Helvetica,sans-Serif" font-size="10.00">+ SLICES_EQUAL</text>
<text text-anchor="start" x="376" y="-511.5" font-family="Helvetica,sans-Serif" font-size="10.00">+ MULTIPLY</text>
<text text-anchor="start" x="376" y="-500.5" font-family="Helvetica,sans-Serif" font-size="10.00">+ INVERSE</text>
<text text-anchor="start" x="376" y="-489.5" font-family="Helvetica,sans-Serif" font-size="10.00">+ SEQUENCIAL</text>
<text text-anchor="start" x="376" y="-478.5" font-family="Helvetica,sans-Serif" font-size="10.00">+ _isSequencial</text>
<polyline fill="none" stroke="black" points="368,-471.5 517,-471.5 "/>
<text text-anchor="start" x="376" y="-459.5" font-family="Helvetica,sans-Serif" font-size="10.00">+ CodingTaskType()</text>
</a>
</g>
</g>
<!-- Node20&#45;&gt;Node14 -->
<g id="edge9" class="edge"><title>Node20&#45;&gt;Node14</title>
<path fill="none" stroke="#404040" d="M395.438,-452.248C384.237,-437.788 371.96,-421.939 359.692,-406.102"/>
<polygon fill="none" stroke="#404040" points="359.413,-405.742 352.576,-403.448 352.064,-396.255 358.901,-398.549 359.413,-405.742"/>
<text text-anchor="middle" x="408" y="-426" font-family="Helvetica,sans-Serif" font-size="10.00"> +_taskType</text>
</g>
</g>
</svg>
        <g id="navigator" transform="translate(0 0)" fill="#404254">
                <rect fill="#f2f5e9" fill-opacity="0.5" stroke="#606060" stroke-width=".5" x="0" y="0" width="60" height="60"/>
                <use id="zoomplus" xlink:href="#zoomPlus" x="17" y="9" onmousedown="handleZoom(evt,'in')"/>
                <use id="zoomminus" xlink:href="#zoomMin" x="42" y="9" onmousedown="handleZoom(evt,'out')"/>
                <use id="reset" xlink:href="#resetDef" x="30" y="36" onmousedown="handleReset()"/>
                <g id="arrowUp" xlink:href="#dirArrow" transform="translate(30 24)" onmousedown="handlePan(0,-1)">
                  <use xlink:href="#rim" fill="#404040">
                        <set attributeName="fill" to="#808080" begin="arrowUp.mouseover" end="arrowUp.mouseout"/>
                  </use>
                  <path fill="none" stroke="white" stroke-width="1.5" d="M0,-3.0v7 M-2.5,-0.5L0,-3.0L2.5,-0.5"/>
                </g>
                <g id="arrowRight" xlink:href="#dirArrow" transform="rotate(90) translate(36 -43)" onmousedown="handlePan(1,0)">
                  <use xlink:href="#rim" fill="#404040">
                        <set attributeName="fill" to="#808080" begin="arrowRight.mouseover" end="arrowRight.mouseout"/>
                  </use>
                  <path fill="none" stroke="white" stroke-width="1.5" d="M0,-3.0v7 M-2.5,-0.5L0,-3.0L2.5,-0.5"/>
                </g>
                <g id="arrowDown" xlink:href="#dirArrow" transform="rotate(180) translate(-30 -48)" onmousedown="handlePan(0,1)">
                  <use xlink:href="#rim" fill="#404040">
                        <set attributeName="fill" to="#808080" begin="arrowDown.mouseover" end="arrowDown.mouseout"/>
                  </use>
                  <path fill="none" stroke="white" stroke-width="1.5" d="M0,-3.0v7 M-2.5,-0.5L0,-3.0L2.5,-0.5"/>
                </g>
                <g id="arrowLeft" xlink:href="#dirArrow" transform="rotate(270) translate(-36 17)" onmousedown="handlePan(-1,0)">
                  <use xlink:href="#rim" fill="#404040">
                        <set attributeName="fill" to="#808080" begin="arrowLeft.mouseover" end="arrowLeft.mouseout"/>
                  </use>
                  <path fill="none" stroke="white" stroke-width="1.5" d="M0,-3.0v7 M-2.5,-0.5L0,-3.0L2.5,-0.5"/>
                </g>
        </g>
        <svg viewBox="0 0 15 15" width="100%" height="30px" preserveAspectRatio="xMaxYMin meet">
         <g id="arrow_out" transform="scale(0.3 0.3)">
          <a xlink:href="classorg_1_1msrg_1_1raccoon_1_1engine_1_1task_1_1CodingTask__coll__graph_org.svg" target="_base">
           <rect id="button" ry="5" rx="5" y="6" x="6" height="38" width="38"
                fill="#f2f5e9" fill-opacity="0.5" stroke="#606060" stroke-width="1.0"/>
           <path id="arrow"
             d="M 11.500037,31.436501 C 11.940474,20.09759 22.043105,11.32322 32.158766,21.979434 L 37.068811,17.246167 C 37.068811,17.246167 37.088388,32 37.088388,32 L 22.160133,31.978069 C 22.160133,31.978069 26.997745,27.140456 26.997745,27.140456 C 18.528582,18.264221 13.291696,25.230495 11.500037,31.436501 z"
             style="fill:#404040;"/>
          </a>
         </g>
        </svg>
</svg>
