<?xml version="1.0" encoding="UTF-8" standalone="no"?>
<!DOCTYPE svg PUBLIC "-//W3C//DTD SVG 1.1//EN"
 "http://www.w3.org/Graphics/SVG/1.1/DTD/svg11.dtd">
<!-- Generated by graphviz version 2.38.0 (20140413.2041)
 -->
<!-- Title: org.msrg.raccoon.utils.BytesUtil.hex Pages: 1 -->
<svg width="374pt" height="186pt"
 viewBox="0.00 0.00 374.00 186.00" xmlns="http://www.w3.org/2000/svg" xmlns:xlink="http://www.w3.org/1999/xlink">
<g id="graph0" class="graph" transform="scale(1 1) rotate(0) translate(4 182)">
<title>org.msrg.raccoon.utils.BytesUtil.hex</title>
<!-- Node1 -->
<g id="node1" class="node"><title>Node1</title>
<polygon fill="#bfbfbf" stroke="black" points="0,-73.5 0,-103.5 142,-103.5 142,-73.5 0,-73.5"/>
<text text-anchor="start" x="8" y="-91.5" font-family="Helvetica,sans-Serif" font-size="10.00">org.msrg.raccoon.utils.Bytes</text>
<text text-anchor="middle" x="71" y="-80.5" font-family="Helvetica,sans-Serif" font-size="10.00">Util.hex</text>
</g>
<!-- Node2 -->
<g id="node2" class="node"><title>Node2</title>
<g id="a_node2"><a xlink:href="../../dd/da2/classorg_1_1msrg_1_1raccoon_1_1CodedBatch_a278ce8de1db74d107ffd3e449fc3717e.html#a278ce8de1db74d107ffd3e449fc3717e" target="_top" xlink:title="org.msrg.raccoon.CodedBatch.to\lString">
<polygon fill="none" stroke="black" points="191.5,-147.5 191.5,-177.5 352.5,-177.5 352.5,-147.5 191.5,-147.5"/>
<text text-anchor="start" x="199.5" y="-165.5" font-family="Helvetica,sans-Serif" font-size="10.00">org.msrg.raccoon.CodedBatch.to</text>
<text text-anchor="middle" x="272" y="-154.5" font-family="Helvetica,sans-Serif" font-size="10.00">String</text>
</a>
</g>
</g>
<!-- Node1&#45;&gt;Node2 -->
<g id="edge1" class="edge"><title>Node1&#45;&gt;Node2</title>
<path fill="none" stroke="midnightblue" d="M109.246,-108.18C129.243,-118.202 154.541,-130.026 178,-138.5 186.939,-141.729 196.508,-144.71 205.984,-147.394"/>
<polygon fill="midnightblue" stroke="midnightblue" points="110.674,-104.98 100.173,-103.575 107.506,-111.222 110.674,-104.98"/>
</g>
<!-- Node3 -->
<g id="node3" class="node"><title>Node3</title>
<g id="a_node3"><a xlink:href="../../dd/d36/classorg_1_1msrg_1_1raccoon_1_1CodedCoefficients_a9d688367a535bb88f0d8fcd5ce69c2bf.html#a9d688367a535bb88f0d8fcd5ce69c2bf" target="_top" xlink:title="org.msrg.raccoon.CodedCoefficients.to\lString">
<polygon fill="none" stroke="black" points="178,-98.5 178,-128.5 366,-128.5 366,-98.5 178,-98.5"/>
<text text-anchor="start" x="186" y="-116.5" font-family="Helvetica,sans-Serif" font-size="10.00">org.msrg.raccoon.CodedCoefficients.to</text>
<text text-anchor="middle" x="272" y="-105.5" font-family="Helvetica,sans-Serif" font-size="10.00">String</text>
</a>
</g>
</g>
<!-- Node1&#45;&gt;Node3 -->
<g id="edge2" class="edge"><title>Node1&#45;&gt;Node3</title>
<path fill="none" stroke="midnightblue" d="M152.283,-98.5858C160.672,-99.6398 169.252,-100.718 177.769,-101.788"/>
<polygon fill="midnightblue" stroke="midnightblue" points="152.518,-95.0879 142.16,-97.3141 151.646,-102.033 152.518,-95.0879"/>
</g>
<!-- Node4 -->
<g id="node4" class="node"><title>Node4</title>
<g id="a_node4"><a xlink:href="../../d6/d6d/classorg_1_1msrg_1_1raccoon_1_1matrix_1_1bulk_1_1SliceMatrix_ae7dda760e9d872eb7f5c6e74366fe855.html#ae7dda760e9d872eb7f5c6e74366fe855" target="_top" xlink:title="org.msrg.raccoon.matrix.bulk.\lSliceMatrix.toString">
<polygon fill="none" stroke="black" points="199,-49.5 199,-79.5 345,-79.5 345,-49.5 199,-49.5"/>
<text text-anchor="start" x="207" y="-67.5" font-family="Helvetica,sans-Serif" font-size="10.00">org.msrg.raccoon.matrix.bulk.</text>
<text text-anchor="middle" x="272" y="-56.5" font-family="Helvetica,sans-Serif" font-size="10.00">SliceMatrix.toString</text>
</a>
</g>
</g>
<!-- Node1&#45;&gt;Node4 -->
<g id="edge3" class="edge"><title>Node1&#45;&gt;Node4</title>
<path fill="none" stroke="midnightblue" d="M152.178,-78.8303C167.589,-76.9717 183.642,-75.0356 198.783,-73.2096"/>
<polygon fill="midnightblue" stroke="midnightblue" points="151.669,-75.3662 142.16,-80.0385 152.507,-82.3159 151.669,-75.3662"/>
</g>
<!-- Node5 -->
<g id="node5" class="node"><title>Node5</title>
<g id="a_node5"><a xlink:href="../../da/df0/classorg_1_1msrg_1_1raccoon_1_1ReceivedCodedBatch_aa20f61989dc946caf00948bd99bb8fda.html#aa20f61989dc946caf00948bd99bb8fda" target="_top" xlink:title="org.msrg.raccoon.Received\lCodedBatch.toString">
<polygon fill="none" stroke="black" points="203.5,-0.5 203.5,-30.5 340.5,-30.5 340.5,-0.5 203.5,-0.5"/>
<text text-anchor="start" x="211.5" y="-18.5" font-family="Helvetica,sans-Serif" font-size="10.00">org.msrg.raccoon.Received</text>
<text text-anchor="middle" x="272" y="-7.5" font-family="Helvetica,sans-Serif" font-size="10.00">CodedBatch.toString</text>
</a>
</g>
</g>
<!-- Node1&#45;&gt;Node5 -->
<g id="edge4" class="edge"><title>Node1&#45;&gt;Node5</title>
<path fill="none" stroke="midnightblue" d="M111.338,-68.8408C131.039,-59.4726 155.445,-48.5778 178,-40.5 188.074,-36.8922 198.923,-33.5259 209.53,-30.5057"/>
<polygon fill="midnightblue" stroke="midnightblue" points="109.567,-65.8087 102.073,-73.298 112.602,-72.1167 109.567,-65.8087"/>
</g>
</g>
</svg>
