<?xml version="1.0" encoding="UTF-8" standalone="no"?>
<!DOCTYPE svg PUBLIC "-//W3C//DTD SVG 1.1//EN"
 "http://www.w3.org/Graphics/SVG/1.1/DTD/svg11.dtd">
<!-- Generated by graphviz version 2.38.0 (20140413.2041)
 -->
<!-- Title: org.msrg.raccoon.ICodedBatch.getSize Pages: 1 -->
<svg width="842pt" height="88pt"
 viewBox="0.00 0.00 842.00 88.00" xmlns="http://www.w3.org/2000/svg" xmlns:xlink="http://www.w3.org/1999/xlink">
<g id="graph0" class="graph" transform="scale(1 1) rotate(0) translate(4 84)">
<title>org.msrg.raccoon.ICodedBatch.getSize</title>
<!-- Node1 -->
<g id="node1" class="node"><title>Node1</title>
<polygon fill="#bfbfbf" stroke="black" points="0,-30 0,-49 188,-49 188,-30 0,-30"/>
<text text-anchor="middle" x="94" y="-37" font-family="Helvetica,sans-Serif" font-size="10.00">org.msrg.raccoon.ICodedBatch.getSize</text>
</g>
<!-- Node2 -->
<g id="node2" class="node"><title>Node2</title>
<g id="a_node2"><a xlink:href="../../dd/da2/classorg_1_1msrg_1_1raccoon_1_1CodedBatch_a0f775cb64db97a1e67680d072ae4c202.html#a0f775cb64db97a1e67680d072ae4c202" target="_top" xlink:title="org.msrg.raccoon.CodedBatch.equals\lExact">
<polygon fill="none" stroke="black" points="224,-24.5 224,-54.5 405,-54.5 405,-24.5 224,-24.5"/>
<text text-anchor="start" x="232" y="-42.5" font-family="Helvetica,sans-Serif" font-size="10.00">org.msrg.raccoon.CodedBatch.equals</text>
<text text-anchor="middle" x="314.5" y="-31.5" font-family="Helvetica,sans-Serif" font-size="10.00">Exact</text>
</a>
</g>
</g>
<!-- Node1&#45;&gt;Node2 -->
<g id="edge1" class="edge"><title>Node1&#45;&gt;Node2</title>
<path fill="none" stroke="midnightblue" d="M198.328,-39.5C206.902,-39.5 215.525,-39.5 223.985,-39.5"/>
<polygon fill="midnightblue" stroke="midnightblue" points="198.297,-36.0001 188.297,-39.5 198.297,-43.0001 198.297,-36.0001"/>
</g>
<!-- Node3 -->
<g id="node3" class="node"><title>Node3</title>
<g id="a_node3"><a xlink:href="../../dd/da2/classorg_1_1msrg_1_1raccoon_1_1CodedBatch_aecd891a0b0992dcc4f97bb4c7d39a2ed.html#aecd891a0b0992dcc4f97bb4c7d39a2ed" target="_top" xlink:title="org.msrg.raccoon.CodedBatch.equals">
<polygon fill="none" stroke="black" points="441,-30 441,-49 622,-49 622,-30 441,-30"/>
<text text-anchor="middle" x="531.5" y="-37" font-family="Helvetica,sans-Serif" font-size="10.00">org.msrg.raccoon.CodedBatch.equals</text>
</a>
</g>
</g>
<!-- Node2&#45;&gt;Node3 -->
<g id="edge2" class="edge"><title>Node2&#45;&gt;Node3</title>
<path fill="none" stroke="midnightblue" d="M415.374,-39.5C423.815,-39.5 432.319,-39.5 440.677,-39.5"/>
<polygon fill="midnightblue" stroke="midnightblue" points="415.123,-36.0001 405.123,-39.5 415.122,-43.0001 415.123,-36.0001"/>
</g>
<!-- Node4 -->
<g id="node4" class="node"><title>Node4</title>
<g id="a_node4"><a xlink:href="../../db/d77/classorg_1_1msrg_1_1raccoon_1_1CodedBatchTest_a04baac235b53bea4fab4b550de9271a5.html#a04baac235b53bea4fab4b550de9271a5" target="_top" xlink:title="org.msrg.raccoon.CodedBatch\lTest.testReceivedCodedBatch">
<polygon fill="none" stroke="black" points="670.5,-49.5 670.5,-79.5 821.5,-79.5 821.5,-49.5 670.5,-49.5"/>
<text text-anchor="start" x="678.5" y="-67.5" font-family="Helvetica,sans-Serif" font-size="10.00">org.msrg.raccoon.CodedBatch</text>
<text text-anchor="middle" x="746" y="-56.5" font-family="Helvetica,sans-Serif" font-size="10.00">Test.testReceivedCodedBatch</text>
</a>
</g>
</g>
<!-- Node3&#45;&gt;Node4 -->
<g id="edge3" class="edge"><title>Node3&#45;&gt;Node4</title>
<path fill="none" stroke="midnightblue" d="M623.589,-50.2163C639.147,-52.0467 655.147,-53.9291 670.219,-55.7023"/>
<polygon fill="midnightblue" stroke="midnightblue" points="623.784,-46.7152 613.443,-49.0227 622.966,-53.6673 623.784,-46.7152"/>
</g>
<!-- Node5 -->
<g id="node5" class="node"><title>Node5</title>
<g id="a_node5"><a xlink:href="../../d7/d47/classorg_1_1msrg_1_1raccoon_1_1SlicedCodedBatchTest_aa7d0bdfa77013b46a1f2e416dbb71b8c.html#aa7d0bdfa77013b46a1f2e416dbb71b8c" target="_top" xlink:title="org.msrg.raccoon.SlicedCoded\lBatchTest.testReceivedCodedBatch">
<polygon fill="none" stroke="black" points="658,-0.5 658,-30.5 834,-30.5 834,-0.5 658,-0.5"/>
<text text-anchor="start" x="666" y="-18.5" font-family="Helvetica,sans-Serif" font-size="10.00">org.msrg.raccoon.SlicedCoded</text>
<text text-anchor="middle" x="746" y="-7.5" font-family="Helvetica,sans-Serif" font-size="10.00">BatchTest.testReceivedCodedBatch</text>
</a>
</g>
</g>
<!-- Node3&#45;&gt;Node5 -->
<g id="edge4" class="edge"><title>Node3&#45;&gt;Node5</title>
<path fill="none" stroke="midnightblue" d="M626.95,-28.8327C637.172,-27.6782 647.542,-26.507 657.675,-25.3626"/>
<polygon fill="midnightblue" stroke="midnightblue" points="626.335,-25.3798 616.791,-29.9801 627.12,-32.3356 626.335,-25.3798"/>
</g>
</g>
</svg>
