<?xml version="1.0" encoding="UTF-8" standalone="no"?>
<!DOCTYPE svg PUBLIC "-//W3C//DTD SVG 1.1//EN"
 "http://www.w3.org/Graphics/SVG/1.1/DTD/svg11.dtd">
<!-- Generated by graphviz version 2.38.0 (20140413.2041)
 -->
<!-- Title: org.msrg.raccoon.engine.task.result.CodingResult.isFailed Pages: 1 -->
<!--zoomable 571 -->
<svg id="main" version="1.1" xmlns="http://www.w3.org/2000/svg" xmlns:xlink="http://www.w3.org/1999/xlink" xml:space="preserve" onload="init(evt)">
<style type="text/css"><![CDATA[
.edge:hover path { stroke: red; }
.edge:hover polygon { stroke: red; fill: red; }
]]></style>
<script type="text/javascript"><![CDATA[
var edges = document.getElementsByTagName('g');
if (edges && edges.length) {
  for (var i=0;i<edges.length;i++) {
    if (edges[i].id.substr(0,4)=='edge') {
      edges[i].setAttribute('class','edge');
    }
  }
}
]]></script>
        <defs>
                <circle id="rim" cx="0" cy="0" r="7"/>
                <circle id="rim2" cx="0" cy="0" r="3.5"/>
                <g id="zoomPlus">
                        <use xlink:href="#rim" fill="#404040">
                                <set attributeName="fill" to="#808080" begin="zoomplus.mouseover" end="zoomplus.mouseout"/>
                        </use>
                        <path d="M-4,0h8M0,-4v8" fill="none" stroke="white" stroke-width="1.5" pointer-events="none"/>
                </g>
                <g id="zoomMin">
                        <use xlink:href="#rim" fill="#404040">
                                <set attributeName="fill" to="#808080" begin="zoomminus.mouseover" end="zoomminus.mouseout"/>
                        </use>
                        <path d="M-4,0h8" fill="none" stroke="white" stroke-width="1.5" pointer-events="none"/>
                </g>
                <g id="dirArrow">
                        <path fill="none" stroke="white" stroke-width="1.5" d="M0,-3.0v7 M-2.5,-0.5L0,-3.0L2.5,-0.5"/>
                </g>
               <g id="resetDef">
                       <use xlink:href="#rim2" fill="#404040">
                               <set attributeName="fill" to="#808080" begin="reset.mouseover" end="reset.mouseout"/>
                       </use>
               </g>
        </defs>

<script type="text/javascript">
var viewWidth = 757;
var viewHeight = 571;
var sectionId = 'dynsection-0';
</script>
<script xlink:href="../../svgpan.js"/>
<svg id="graph" class="graph">
<g id="viewport">
<title>org.msrg.raccoon.engine.task.result.CodingResult.isFailed</title>
<!-- Node1 -->
<g id="node1" class="node"><title>Node1</title>
<polygon fill="#bfbfbf" stroke="black" points="0,-250.5 0,-280.5 176,-280.5 176,-250.5 0,-250.5"/>
<text text-anchor="start" x="8" y="-268.5" font-family="Helvetica,sans-Serif" font-size="10.00">org.msrg.raccoon.engine.task.result.</text>
<text text-anchor="middle" x="88" y="-257.5" font-family="Helvetica,sans-Serif" font-size="10.00">CodingResult.isFailed</text>
</g>
<!-- Node2 -->
<g id="node2" class="node"><title>Node2</title>
<g id="a_node2"><a xlink:href="../../dc/dcf/classorg_1_1msrg_1_1raccoon_1_1engine_1_1CodingEngineTest_af19b6b7e9701fe8b427c49f07d091900.html#af19b6b7e9701fe8b427c49f07d091900" target="_top" xlink:title="org.msrg.raccoon.engine.\lCodingEngineTest.codingFailed">
<polygon fill="none" stroke="black" points="256,-532.5 256,-562.5 411,-562.5 411,-532.5 256,-532.5"/>
<text text-anchor="start" x="264" y="-550.5" font-family="Helvetica,sans-Serif" font-size="10.00">org.msrg.raccoon.engine.</text>
<text text-anchor="middle" x="333.5" y="-539.5" font-family="Helvetica,sans-Serif" font-size="10.00">CodingEngineTest.codingFailed</text>
</a>
</g>
</g>
<!-- Node1&#45;&gt;Node2 -->
<g id="edge1" class="edge"><title>Node1&#45;&gt;Node2</title>
<path fill="none" stroke="midnightblue" d="M93.2966,-290.738C103.605,-343.061 134.855,-463.471 212,-523.5 224.626,-533.325 240.197,-539.453 255.903,-543.207"/>
<polygon fill="midnightblue" stroke="midnightblue" points="96.6886,-289.837 91.4058,-280.653 89.8085,-291.127 96.6886,-289.837"/>
</g>
<!-- Node3 -->
<g id="node3" class="node"><title>Node3</title>
<g id="a_node3"><a xlink:href="../../d0/d6b/classorg_1_1msrg_1_1raccoon_1_1engine_1_1task_1_1sequential_1_1EncodingSourceCodedBatch__SequentialCodingTask_adfa33e105ef32cced4a8b532961cde23.html#adfa33e105ef32cced4a8b532961cde23" target="_top" xlink:title="org.msrg.raccoon.engine.task.sequential.\lEncodingSourceCodedBatch_SequentialCoding\lTask.runStagePrivately">
<polygon fill="none" stroke="black" points="221.5,-473 221.5,-514 445.5,-514 445.5,-473 221.5,-473"/>
<text text-anchor="start" x="229.5" y="-502" font-family="Helvetica,sans-Serif" font-size="10.00">org.msrg.raccoon.engine.task.sequential.</text>
<text text-anchor="start" x="229.5" y="-491" font-family="Helvetica,sans-Serif" font-size="10.00">EncodingSourceCodedBatch_SequentialCoding</text>
<text text-anchor="middle" x="333.5" y="-480" font-family="Helvetica,sans-Serif" font-size="10.00">Task.runStagePrivately</text>
</a>
</g>
</g>
<!-- Node1&#45;&gt;Node3 -->
<g id="edge2" class="edge"><title>Node1&#45;&gt;Node3</title>
<path fill="none" stroke="midnightblue" d="M97.2934,-290.197C112.811,-332.502 150.351,-418.601 212,-463.5 216.88,-467.054 222.133,-470.189 227.621,-472.955"/>
<polygon fill="midnightblue" stroke="midnightblue" points="100.554,-288.921 93.9031,-280.674 93.9596,-291.268 100.554,-288.921"/>
</g>
<!-- Node4 -->
<g id="node4" class="node"><title>Node4</title>
<g id="a_node4"><a xlink:href="../../d4/daf/classorg_1_1msrg_1_1raccoon_1_1engine_1_1task_1_1sequential_1_1EncodingReceivedCodedBatch__SequentialCodingTask_a42110602418c15d727175229b4b8f9cb.html#a42110602418c15d727175229b4b8f9cb" target="_top" xlink:title="org.msrg.raccoon.engine.task.sequential.\lEncodingReceivedCodedBatch_SequentialCoding\lTask.runStagePrivately">
<polygon fill="none" stroke="black" points="216.5,-413 216.5,-454 450.5,-454 450.5,-413 216.5,-413"/>
<text text-anchor="start" x="224.5" y="-442" font-family="Helvetica,sans-Serif" font-size="10.00">org.msrg.raccoon.engine.task.sequential.</text>
<text text-anchor="start" x="224.5" y="-431" font-family="Helvetica,sans-Serif" font-size="10.00">EncodingReceivedCodedBatch_SequentialCoding</text>
<text text-anchor="middle" x="333.5" y="-420" font-family="Helvetica,sans-Serif" font-size="10.00">Task.runStagePrivately</text>
</a>
</g>
</g>
<!-- Node1&#45;&gt;Node4 -->
<g id="edge3" class="edge"><title>Node1&#45;&gt;Node4</title>
<path fill="none" stroke="midnightblue" d="M103.481,-289.131C123.8,-320.229 163.745,-374.351 212,-403.5 217.905,-407.067 224.217,-410.211 230.741,-412.982"/>
<polygon fill="midnightblue" stroke="midnightblue" points="106.386,-287.177 98.0483,-280.64 100.49,-290.95 106.386,-287.177"/>
</g>
<!-- Node5 -->
<g id="node5" class="node"><title>Node5</title>
<g id="a_node5"><a xlink:href="../../d4/d5e/classorg_1_1msrg_1_1raccoon_1_1engine_1_1task_1_1sequential_1_1MultiplyInverseMultiplyEqual__SequentialCodingTask_a8870d11208f9be305c378f932d7abaa0.html#a8870d11208f9be305c378f932d7abaa0" target="_top" xlink:title="org.msrg.raccoon.engine.task.sequential.\lMultiplyInverseMultiplyEqual_Sequential\lCodingTask.runStagePrivately">
<polygon fill="none" stroke="black" points="235.5,-353 235.5,-394 431.5,-394 431.5,-353 235.5,-353"/>
<text text-anchor="start" x="243.5" y="-382" font-family="Helvetica,sans-Serif" font-size="10.00">org.msrg.raccoon.engine.task.sequential.</text>
<text text-anchor="start" x="243.5" y="-371" font-family="Helvetica,sans-Serif" font-size="10.00">MultiplyInverseMultiplyEqual_Sequential</text>
<text text-anchor="middle" x="333.5" y="-360" font-family="Helvetica,sans-Serif" font-size="10.00">CodingTask.runStagePrivately</text>
</a>
</g>
</g>
<!-- Node1&#45;&gt;Node5 -->
<g id="edge4" class="edge"><title>Node1&#45;&gt;Node5</title>
<path fill="none" stroke="midnightblue" d="M116.122,-286.73C140.099,-304.537 176.661,-329.411 212,-344.5 219.421,-347.669 227.253,-350.531 235.218,-353.109"/>
<polygon fill="midnightblue" stroke="midnightblue" points="117.975,-283.744 107.883,-280.52 113.762,-289.334 117.975,-283.744"/>
</g>
<!-- Node7 -->
<g id="node7" class="node"><title>Node7</title>
<g id="a_node7"><a xlink:href="../../d3/d36/classorg_1_1msrg_1_1raccoon_1_1engine_1_1task_1_1sequential_1_1Decoding__SequentialCodingTask_aa875e6c27f9bd356223417ae1689c3b4.html#aa875e6c27f9bd356223417ae1689c3b4" target="_top" xlink:title="org.msrg.raccoon.engine.task.sequential.\lDecoding_SequentialCodingTask.runStagePrivately">
<polygon fill="none" stroke="black" points="212.5,-304.5 212.5,-334.5 454.5,-334.5 454.5,-304.5 212.5,-304.5"/>
<text text-anchor="start" x="220.5" y="-322.5" font-family="Helvetica,sans-Serif" font-size="10.00">org.msrg.raccoon.engine.task.sequential.</text>
<text text-anchor="middle" x="333.5" y="-311.5" font-family="Helvetica,sans-Serif" font-size="10.00">Decoding_SequentialCodingTask.runStagePrivately</text>
</a>
</g>
</g>
<!-- Node1&#45;&gt;Node7 -->
<g id="edge6" class="edge"><title>Node1&#45;&gt;Node7</title>
<path fill="none" stroke="midnightblue" d="M158.426,-282.981C175.881,-287.225 194.599,-291.647 212,-295.5 225.746,-298.544 240.413,-301.613 254.613,-304.493"/>
<polygon fill="midnightblue" stroke="midnightblue" points="158.86,-279.484 148.315,-280.508 157.197,-286.284 158.86,-279.484"/>
</g>
<!-- Node9 -->
<g id="node9" class="node"><title>Node9</title>
<g id="a_node9"><a xlink:href="../../de/d11/classorg_1_1msrg_1_1raccoon_1_1engine_1_1task_1_1sequential_1_1EncodingDecodingEqual__SequentialCodingTask_ac93037a0e0b21d08ef67e2b1042b866e.html#ac93037a0e0b21d08ef67e2b1042b866e" target="_top" xlink:title="org.msrg.raccoon.engine.task.sequential.\lEncodingDecodingEqual_SequentialCodingTask.run\lStagePrivately">
<polygon fill="none" stroke="black" points="212,-245 212,-286 455,-286 455,-245 212,-245"/>
<text text-anchor="start" x="220" y="-274" font-family="Helvetica,sans-Serif" font-size="10.00">org.msrg.raccoon.engine.task.sequential.</text>
<text text-anchor="start" x="220" y="-263" font-family="Helvetica,sans-Serif" font-size="10.00">EncodingDecodingEqual_SequentialCodingTask.run</text>
<text text-anchor="middle" x="333.5" y="-252" font-family="Helvetica,sans-Serif" font-size="10.00">StagePrivately</text>
</a>
</g>
</g>
<!-- Node1&#45;&gt;Node9 -->
<g id="edge8" class="edge"><title>Node1&#45;&gt;Node9</title>
<path fill="none" stroke="midnightblue" d="M186.383,-265.5C194.789,-265.5 203.356,-265.5 211.916,-265.5"/>
<polygon fill="midnightblue" stroke="midnightblue" points="186.221,-262 176.221,-265.5 186.221,-269 186.221,-262"/>
</g>
<!-- Node11 -->
<g id="node11" class="node"><title>Node11</title>
<g id="a_node11"><a xlink:href="../../db/d63/classorg_1_1msrg_1_1raccoon_1_1engine_1_1task_1_1result_1_1Equals__CodingResult_a87b795e9e82f254bbf36ec8cedabb69a.html#a87b795e9e82f254bbf36ec8cedabb69a" target="_top" xlink:title="org.msrg.raccoon.engine.task.result.\lEquals_CodingResult.setResult">
<polygon fill="none" stroke="black" points="245.5,-196.5 245.5,-226.5 421.5,-226.5 421.5,-196.5 245.5,-196.5"/>
<text text-anchor="start" x="253.5" y="-214.5" font-family="Helvetica,sans-Serif" font-size="10.00">org.msrg.raccoon.engine.task.result.</text>
<text text-anchor="middle" x="333.5" y="-203.5" font-family="Helvetica,sans-Serif" font-size="10.00">Equals_CodingResult.setResult</text>
</a>
</g>
</g>
<!-- Node1&#45;&gt;Node11 -->
<g id="edge10" class="edge"><title>Node1&#45;&gt;Node11</title>
<path fill="none" stroke="midnightblue" d="M158.426,-248.019C175.881,-243.775 194.599,-239.353 212,-235.5 225.746,-232.456 240.413,-229.387 254.613,-226.507"/>
<polygon fill="midnightblue" stroke="midnightblue" points="157.197,-244.716 148.315,-250.492 158.86,-251.516 157.197,-244.716"/>
</g>
<!-- Node12 -->
<g id="node12" class="node"><title>Node12</title>
<g id="a_node12"><a xlink:href="../../d2/da1/classorg_1_1msrg_1_1raccoon_1_1engine_1_1task_1_1result_1_1ByteMatrix__CodingResult_a80327f5674030c28ae0d938a8ac15cb2.html#a80327f5674030c28ae0d938a8ac15cb2" target="_top" xlink:title="org.msrg.raccoon.engine.task.result.\lByteMatrix_CodingResult.setResult">
<polygon fill="none" stroke="black" points="245.5,-147.5 245.5,-177.5 421.5,-177.5 421.5,-147.5 245.5,-147.5"/>
<text text-anchor="start" x="253.5" y="-165.5" font-family="Helvetica,sans-Serif" font-size="10.00">org.msrg.raccoon.engine.task.result.</text>
<text text-anchor="middle" x="333.5" y="-154.5" font-family="Helvetica,sans-Serif" font-size="10.00">ByteMatrix_CodingResult.setResult</text>
</a>
</g>
</g>
<!-- Node1&#45;&gt;Node12 -->
<g id="edge11" class="edge"><title>Node1&#45;&gt;Node12</title>
<path fill="none" stroke="midnightblue" d="M116.049,-244.276C139.98,-226.528 176.516,-201.873 212,-187.5 222.594,-183.209 234.024,-179.619 245.476,-176.625"/>
<polygon fill="midnightblue" stroke="midnightblue" points="113.709,-241.657 107.828,-250.47 117.921,-247.248 113.709,-241.657"/>
</g>
<!-- Node13 -->
<g id="node13" class="node"><title>Node13</title>
<g id="a_node13"><a xlink:href="../../d0/d50/classorg_1_1msrg_1_1raccoon_1_1engine_1_1task_1_1result_1_1SliceMatrix__CodingResult_a2a4ffea67c5419dde007c6c5d3d1c358.html#a2a4ffea67c5419dde007c6c5d3d1c358" target="_top" xlink:title="org.msrg.raccoon.engine.task.result.\lSliceMatrix_CodingResult.setResult">
<polygon fill="none" stroke="black" points="245.5,-98.5 245.5,-128.5 421.5,-128.5 421.5,-98.5 245.5,-98.5"/>
<text text-anchor="start" x="253.5" y="-116.5" font-family="Helvetica,sans-Serif" font-size="10.00">org.msrg.raccoon.engine.task.result.</text>
<text text-anchor="middle" x="333.5" y="-105.5" font-family="Helvetica,sans-Serif" font-size="10.00">SliceMatrix_CodingResult.setResult</text>
</a>
</g>
</g>
<!-- Node1&#45;&gt;Node13 -->
<g id="edge12" class="edge"><title>Node1&#45;&gt;Node13</title>
<path fill="none" stroke="midnightblue" d="M105.029,-241.768C126.034,-212.637 165.694,-163.977 212,-138.5 222.296,-132.835 233.73,-128.451 245.337,-125.058"/>
<polygon fill="midnightblue" stroke="midnightblue" points="102.031,-239.946 99.1222,-250.134 107.749,-243.984 102.031,-239.946"/>
</g>
<!-- Node14 -->
<g id="node14" class="node"><title>Node14</title>
<g id="a_node14"><a xlink:href="../../d7/d68/classorg_1_1msrg_1_1raccoon_1_1engine_1_1task_1_1result_1_1CodedSlice__CodingResult_a79172dfdd50155425a7d0e234f766248.html#a79172dfdd50155425a7d0e234f766248" target="_top" xlink:title="org.msrg.raccoon.engine.task.result.\lCodedSlice_CodingResult.setResult">
<polygon fill="none" stroke="black" points="245.5,-49.5 245.5,-79.5 421.5,-79.5 421.5,-49.5 245.5,-49.5"/>
<text text-anchor="start" x="253.5" y="-67.5" font-family="Helvetica,sans-Serif" font-size="10.00">org.msrg.raccoon.engine.task.result.</text>
<text text-anchor="middle" x="333.5" y="-56.5" font-family="Helvetica,sans-Serif" font-size="10.00">CodedSlice_CodingResult.setResult</text>
</a>
</g>
</g>
<!-- Node1&#45;&gt;Node14 -->
<g id="edge13" class="edge"><title>Node1&#45;&gt;Node14</title>
<path fill="none" stroke="midnightblue" d="M98.9823,-240.846C116.028,-202.067 154.568,-127.349 212,-89.5 222.08,-82.8572 233.579,-77.9289 245.382,-74.2818"/>
<polygon fill="midnightblue" stroke="midnightblue" points="95.641,-239.758 94.9293,-250.329 102.078,-242.509 95.641,-239.758"/>
</g>
<!-- Node15 -->
<g id="node15" class="node"><title>Node15</title>
<g id="a_node15"><a xlink:href="../../d6/db6/classorg_1_1msrg_1_1raccoon_1_1engine_1_1task_1_1result_1_1BulkMatrix__CodingResult_ad1a064599aa73558531aa0690acde96c.html#ad1a064599aa73558531aa0690acde96c" target="_top" xlink:title="org.msrg.raccoon.engine.task.result.\lBulkMatrix_CodingResult.setResult">
<polygon fill="none" stroke="black" points="245.5,-0.5 245.5,-30.5 421.5,-30.5 421.5,-0.5 245.5,-0.5"/>
<text text-anchor="start" x="253.5" y="-18.5" font-family="Helvetica,sans-Serif" font-size="10.00">org.msrg.raccoon.engine.task.result.</text>
<text text-anchor="middle" x="333.5" y="-7.5" font-family="Helvetica,sans-Serif" font-size="10.00">BulkMatrix_CodingResult.setResult</text>
</a>
</g>
</g>
<!-- Node1&#45;&gt;Node15 -->
<g id="edge14" class="edge"><title>Node1&#45;&gt;Node15</title>
<path fill="none" stroke="midnightblue" d="M95.1551,-240.553C108.141,-193.461 142.99,-91.6178 212,-40.5 221.872,-33.1876 233.388,-27.8988 245.313,-24.0935"/>
<polygon fill="midnightblue" stroke="midnightblue" points="91.7632,-239.69 92.5787,-250.253 98.5287,-241.487 91.7632,-239.69"/>
</g>
<!-- Node6 -->
<g id="node6" class="node"><title>Node6</title>
<g id="a_node6"><a xlink:href="../../d4/d5e/classorg_1_1msrg_1_1raccoon_1_1engine_1_1task_1_1sequential_1_1MultiplyInverseMultiplyEqual__SequentialCodingTask_a486ab503957784e8d6aa52a9ddde130d.html#a486ab503957784e8d6aa52a9ddde130d" target="_top" xlink:title="org.msrg.raccoon.engine.task.sequential.\lMultiplyInverseMultiplyEqual_Sequential\lCodingTask.codingFinished">
<polygon fill="none" stroke="black" points="522,-353 522,-394 718,-394 718,-353 522,-353"/>
<text text-anchor="start" x="530" y="-382" font-family="Helvetica,sans-Serif" font-size="10.00">org.msrg.raccoon.engine.task.sequential.</text>
<text text-anchor="start" x="530" y="-371" font-family="Helvetica,sans-Serif" font-size="10.00">MultiplyInverseMultiplyEqual_Sequential</text>
<text text-anchor="middle" x="620" y="-360" font-family="Helvetica,sans-Serif" font-size="10.00">CodingTask.codingFinished</text>
</a>
</g>
</g>
<!-- Node5&#45;&gt;Node6 -->
<g id="edge5" class="edge"><title>Node5&#45;&gt;Node6</title>
<path fill="none" stroke="midnightblue" d="M441.615,-373.5C467.952,-373.5 496.004,-373.5 521.842,-373.5"/>
<polygon fill="midnightblue" stroke="midnightblue" points="441.613,-370 431.613,-373.5 441.613,-377 441.613,-370"/>
</g>
<!-- Node8 -->
<g id="node8" class="node"><title>Node8</title>
<g id="a_node8"><a xlink:href="../../d3/d36/classorg_1_1msrg_1_1raccoon_1_1engine_1_1task_1_1sequential_1_1Decoding__SequentialCodingTask_a3497f9c294517ca7934dea0ad28f411d.html#a3497f9c294517ca7934dea0ad28f411d" target="_top" xlink:title="org.msrg.raccoon.engine.task.sequential.\lDecoding_SequentialCodingTask.codingFinished">
<polygon fill="none" stroke="black" points="505,-304.5 505,-334.5 735,-334.5 735,-304.5 505,-304.5"/>
<text text-anchor="start" x="513" y="-322.5" font-family="Helvetica,sans-Serif" font-size="10.00">org.msrg.raccoon.engine.task.sequential.</text>
<text text-anchor="middle" x="620" y="-311.5" font-family="Helvetica,sans-Serif" font-size="10.00">Decoding_SequentialCodingTask.codingFinished</text>
</a>
</g>
</g>
<!-- Node7&#45;&gt;Node8 -->
<g id="edge7" class="edge"><title>Node7&#45;&gt;Node8</title>
<path fill="none" stroke="midnightblue" d="M464.857,-319.5C478.131,-319.5 491.543,-319.5 504.629,-319.5"/>
<polygon fill="midnightblue" stroke="midnightblue" points="464.741,-316 454.741,-319.5 464.741,-323 464.741,-316"/>
</g>
<!-- Node10 -->
<g id="node10" class="node"><title>Node10</title>
<g id="a_node10"><a xlink:href="../../de/d11/classorg_1_1msrg_1_1raccoon_1_1engine_1_1task_1_1sequential_1_1EncodingDecodingEqual__SequentialCodingTask_a13129faffdbf845a23ffdd2def1c2f1a.html#a13129faffdbf845a23ffdd2def1c2f1a" target="_top" xlink:title="org.msrg.raccoon.engine.task.sequential.\lEncodingDecodingEqual_SequentialCodingTask.coding\lFinished">
<polygon fill="none" stroke="black" points="491,-245 491,-286 749,-286 749,-245 491,-245"/>
<text text-anchor="start" x="499" y="-274" font-family="Helvetica,sans-Serif" font-size="10.00">org.msrg.raccoon.engine.task.sequential.</text>
<text text-anchor="start" x="499" y="-263" font-family="Helvetica,sans-Serif" font-size="10.00">EncodingDecodingEqual_SequentialCodingTask.coding</text>
<text text-anchor="middle" x="620" y="-252" font-family="Helvetica,sans-Serif" font-size="10.00">Finished</text>
</a>
</g>
</g>
<!-- Node9&#45;&gt;Node10 -->
<g id="edge9" class="edge"><title>Node9&#45;&gt;Node10</title>
<path fill="none" stroke="midnightblue" d="M465.161,-265.5C473.715,-265.5 482.325,-265.5 490.866,-265.5"/>
<polygon fill="midnightblue" stroke="midnightblue" points="465.154,-262 455.154,-265.5 465.154,-269 465.154,-262"/>
</g>
</g>
</svg>
        <g id="navigator" transform="translate(0 0)" fill="#404254">
                <rect fill="#f2f5e9" fill-opacity="0.5" stroke="#606060" stroke-width=".5" x="0" y="0" width="60" height="60"/>
                <use id="zoomplus" xlink:href="#zoomPlus" x="17" y="9" onmousedown="handleZoom(evt,'in')"/>
                <use id="zoomminus" xlink:href="#zoomMin" x="42" y="9" onmousedown="handleZoom(evt,'out')"/>
                <use id="reset" xlink:href="#resetDef" x="30" y="36" onmousedown="handleReset()"/>
                <g id="arrowUp" xlink:href="#dirArrow" transform="translate(30 24)" onmousedown="handlePan(0,-1)">
                  <use xlink:href="#rim" fill="#404040">
                        <set attributeName="fill" to="#808080" begin="arrowUp.mouseover" end="arrowUp.mouseout"/>
                  </use>
                  <path fill="none" stroke="white" stroke-width="1.5" d="M0,-3.0v7 M-2.5,-0.5L0,-3.0L2.5,-0.5"/>
                </g>
                <g id="arrowRight" xlink:href="#dirArrow" transform="rotate(90) translate(36 -43)" onmousedown="handlePan(1,0)">
                  <use xlink:href="#rim" fill="#404040">
                        <set attributeName="fill" to="#808080" begin="arrowRight.mouseover" end="arrowRight.mouseout"/>
                  </use>
                  <path fill="none" stroke="white" stroke-width="1.5" d="M0,-3.0v7 M-2.5,-0.5L0,-3.0L2.5,-0.5"/>
                </g>
                <g id="arrowDown" xlink:href="#dirArrow" transform="rotate(180) translate(-30 -48)" onmousedown="handlePan(0,1)">
                  <use xlink:href="#rim" fill="#404040">
                        <set attributeName="fill" to="#808080" begin="arrowDown.mouseover" end="arrowDown.mouseout"/>
                  </use>
                  <path fill="none" stroke="white" stroke-width="1.5" d="M0,-3.0v7 M-2.5,-0.5L0,-3.0L2.5,-0.5"/>
                </g>
                <g id="arrowLeft" xlink:href="#dirArrow" transform="rotate(270) translate(-36 17)" onmousedown="handlePan(-1,0)">
                  <use xlink:href="#rim" fill="#404040">
                        <set attributeName="fill" to="#808080" begin="arrowLeft.mouseover" end="arrowLeft.mouseout"/>
                  </use>
                  <path fill="none" stroke="white" stroke-width="1.5" d="M0,-3.0v7 M-2.5,-0.5L0,-3.0L2.5,-0.5"/>
                </g>
        </g>
        <svg viewBox="0 0 15 15" width="100%" height="30px" preserveAspectRatio="xMaxYMin meet">
         <g id="arrow_out" transform="scale(0.3 0.3)">
          <a xlink:href="classorg_1_1msrg_1_1raccoon_1_1engine_1_1task_1_1result_1_1CodingResult_af346f009892c564aa7b2a6751914b154_af346f009892c564aa7b2a6751914b154_icgraph_org.svg" target="_base">
           <rect id="button" ry="5" rx="5" y="6" x="6" height="38" width="38"
                fill="#f2f5e9" fill-opacity="0.5" stroke="#606060" stroke-width="1.0"/>
           <path id="arrow"
             d="M 11.500037,31.436501 C 11.940474,20.09759 22.043105,11.32322 32.158766,21.979434 L 37.068811,17.246167 C 37.068811,17.246167 37.088388,32 37.088388,32 L 22.160133,31.978069 C 22.160133,31.978069 26.997745,27.140456 26.997745,27.140456 C 18.528582,18.264221 13.291696,25.230495 11.500037,31.436501 z"
             style="fill:#404040;"/>
          </a>
         </g>
        </svg>
</svg>
