<?xml version="1.0" encoding="UTF-8" standalone="no"?>
<!DOCTYPE svg PUBLIC "-//W3C//DTD SVG 1.1//EN"
 "http://www.w3.org/Graphics/SVG/1.1/DTD/svg11.dtd">
<!-- Generated by graphviz version 2.38.0 (20140413.2041)
 -->
<!-- Title: org.msrg.raccoon.matrix.bulk.BulkMatrix Pages: 1 -->
<svg width="287pt" height="716pt"
 viewBox="0.00 0.00 286.50 716.00" xmlns="http://www.w3.org/2000/svg" xmlns:xlink="http://www.w3.org/1999/xlink">
<g id="graph0" class="graph" transform="scale(1 1) rotate(0) translate(4 712)">
<title>org.msrg.raccoon.matrix.bulk.BulkMatrix</title>
<!-- Node3 -->
<g id="node1" class="node"><title>Node3</title>
<polygon fill="#bfbfbf" stroke="black" points="16.5,-0.5 16.5,-321.5 190.5,-321.5 190.5,-0.5 16.5,-0.5"/>
<text text-anchor="start" x="24.5" y="-309.5" font-family="Helvetica,sans-Serif" font-size="10.00">org.msrg.raccoon.matrix.bulk.</text>
<text text-anchor="middle" x="103.5" y="-298.5" font-family="Helvetica,sans-Serif" font-size="10.00">BulkMatrix</text>
<polyline fill="none" stroke="black" points="16.5,-291.5 190.5,-291.5 "/>
<text text-anchor="start" x="24.5" y="-279.5" font-family="Helvetica,sans-Serif" font-size="10.00">+ _size</text>
<text text-anchor="start" x="24.5" y="-268.5" font-family="Helvetica,sans-Serif" font-size="10.00">+ _cols</text>
<text text-anchor="start" x="24.5" y="-257.5" font-family="Helvetica,sans-Serif" font-size="10.00">+ _rows</text>
<text text-anchor="start" x="24.5" y="-246.5" font-family="Helvetica,sans-Serif" font-size="10.00">+ _SLICE_LENGTH</text>
<text text-anchor="start" x="24.5" y="-235.5" font-family="Helvetica,sans-Serif" font-size="10.00">+ _MAX_ROWS_PRINT</text>
<text text-anchor="start" x="24.5" y="-224.5" font-family="Helvetica,sans-Serif" font-size="10.00">+ _MAX_SLICES_PRINT</text>
<text text-anchor="start" x="24.5" y="-213.5" font-family="Helvetica,sans-Serif" font-size="10.00">&#45; serialVersionUID</text>
<polyline fill="none" stroke="black" points="16.5,-206.5 190.5,-206.5 "/>
<text text-anchor="start" x="24.5" y="-194.5" font-family="Helvetica,sans-Serif" font-size="10.00">+ BulkMatrix()</text>
<text text-anchor="start" x="24.5" y="-183.5" font-family="Helvetica,sans-Serif" font-size="10.00">+ BulkMatrix()</text>
<text text-anchor="start" x="24.5" y="-172.5" font-family="Helvetica,sans-Serif" font-size="10.00">+ BulkMatrix()</text>
<text text-anchor="start" x="24.5" y="-161.5" font-family="Helvetica,sans-Serif" font-size="10.00">+ createEmptyMatrix()</text>
<text text-anchor="start" x="24.5" y="-150.5" font-family="Helvetica,sans-Serif" font-size="10.00">+ createOneEmtpySlice()</text>
<text text-anchor="start" x="24.5" y="-139.5" font-family="Helvetica,sans-Serif" font-size="10.00">+ getSliceCount()</text>
<text text-anchor="start" x="24.5" y="-128.5" font-family="Helvetica,sans-Serif" font-size="10.00">+ slice()</text>
<text text-anchor="start" x="24.5" y="-117.5" font-family="Helvetica,sans-Serif" font-size="10.00">+ equals()</text>
<text text-anchor="start" x="24.5" y="-106.5" font-family="Helvetica,sans-Serif" font-size="10.00">+ getByte()</text>
<text text-anchor="start" x="24.5" y="-95.5" font-family="Helvetica,sans-Serif" font-size="10.00">+ getSize()</text>
<text text-anchor="start" x="24.5" y="-84.5" font-family="Helvetica,sans-Serif" font-size="10.00">+ add()</text>
<text text-anchor="start" x="24.5" y="-73.5" font-family="Helvetica,sans-Serif" font-size="10.00">+ toString()</text>
<text text-anchor="start" x="24.5" y="-62.5" font-family="Helvetica,sans-Serif" font-size="10.00">+ getSizeInByteBuffer()</text>
<text text-anchor="start" x="24.5" y="-51.5" font-family="Helvetica,sans-Serif" font-size="10.00">+ getContent()</text>
<text text-anchor="start" x="24.5" y="-40.5" font-family="Helvetica,sans-Serif" font-size="10.00">+ getSlices()</text>
<text text-anchor="start" x="24.5" y="-29.5" font-family="Helvetica,sans-Serif" font-size="10.00">+ createBulkMatixRandomData()</text>
<text text-anchor="start" x="24.5" y="-18.5" font-family="Helvetica,sans-Serif" font-size="10.00">+ createBulkMatixIncrementalData()</text>
<text text-anchor="start" x="24.5" y="-7.5" font-family="Helvetica,sans-Serif" font-size="10.00"># toString()</text>
</g>
<!-- Node4 -->
<g id="node2" class="node"><title>Node4</title>
<polygon fill="none" stroke="#bfbfbf" points="0,-650.5 0,-707.5 67,-707.5 67,-650.5 0,-650.5"/>
<text text-anchor="middle" x="33.5" y="-695.5" font-family="Helvetica,sans-Serif" font-size="10.00">Serializable</text>
<polyline fill="none" stroke="#bfbfbf" points="0,-688.5 67,-688.5 "/>
<text text-anchor="middle" x="33.5" y="-676.5" font-family="Helvetica,sans-Serif" font-size="10.00"> </text>
<polyline fill="none" stroke="#bfbfbf" points="0,-669.5 67,-669.5 "/>
<text text-anchor="middle" x="33.5" y="-657.5" font-family="Helvetica,sans-Serif" font-size="10.00"> </text>
</g>
<!-- Node4&#45;&gt;Node3 -->
<g id="edge1" class="edge"><title>Node4&#45;&gt;Node3</title>
<path fill="none" stroke="midnightblue" d="M26.6381,-640.504C17.1298,-581.952 3.08073,-465.51 21.5,-369 24.4892,-353.338 28.6441,-337.348 33.5115,-321.544"/>
<polygon fill="none" stroke="midnightblue" points="23.1927,-641.122 28.2936,-650.408 30.0969,-639.968 23.1927,-641.122"/>
</g>
<!-- Node5 -->
<g id="node3" class="node"><title>Node5</title>
<g id="a_node3"><a xlink:href="../../d6/d6d/classorg_1_1msrg_1_1raccoon_1_1matrix_1_1bulk_1_1SliceMatrix.html" target="_top" xlink:title="{org.msrg.raccoon.matrix.bulk.\lSliceMatrix\n|+ _cols\l+ _MAX_COLS_PRINT\l# _b\l&#45; serialVersionUID\l|+ SliceMatrix()\l+ SliceMatrix()\l+ SliceMatrix()\l+ loadNoCopy()\l+ loadWithCopy()\l+ getContent()\l+ hasContent()\l+ clone()\l+ equals()\l+ getByte()\land 6 more...\l+ createRandomSliceMatrix()\l+ getEmptySliceMatrix()\l}">
<polygon fill="none" stroke="black" points="30.5,-369.5 30.5,-602.5 176.5,-602.5 176.5,-369.5 30.5,-369.5"/>
<text text-anchor="start" x="38.5" y="-590.5" font-family="Helvetica,sans-Serif" font-size="10.00">org.msrg.raccoon.matrix.bulk.</text>
<text text-anchor="middle" x="103.5" y="-579.5" font-family="Helvetica,sans-Serif" font-size="10.00">SliceMatrix</text>
<polyline fill="none" stroke="black" points="30.5,-572.5 176.5,-572.5 "/>
<text text-anchor="start" x="38.5" y="-560.5" font-family="Helvetica,sans-Serif" font-size="10.00">+ _cols</text>
<text text-anchor="start" x="38.5" y="-549.5" font-family="Helvetica,sans-Serif" font-size="10.00">+ _MAX_COLS_PRINT</text>
<text text-anchor="start" x="38.5" y="-538.5" font-family="Helvetica,sans-Serif" font-size="10.00"># _b</text>
<text text-anchor="start" x="38.5" y="-527.5" font-family="Helvetica,sans-Serif" font-size="10.00">&#45; serialVersionUID</text>
<polyline fill="none" stroke="black" points="30.5,-520.5 176.5,-520.5 "/>
<text text-anchor="start" x="38.5" y="-508.5" font-family="Helvetica,sans-Serif" font-size="10.00">+ SliceMatrix()</text>
<text text-anchor="start" x="38.5" y="-497.5" font-family="Helvetica,sans-Serif" font-size="10.00">+ SliceMatrix()</text>
<text text-anchor="start" x="38.5" y="-486.5" font-family="Helvetica,sans-Serif" font-size="10.00">+ SliceMatrix()</text>
<text text-anchor="start" x="38.5" y="-475.5" font-family="Helvetica,sans-Serif" font-size="10.00">+ loadNoCopy()</text>
<text text-anchor="start" x="38.5" y="-464.5" font-family="Helvetica,sans-Serif" font-size="10.00">+ loadWithCopy()</text>
<text text-anchor="start" x="38.5" y="-453.5" font-family="Helvetica,sans-Serif" font-size="10.00">+ getContent()</text>
<text text-anchor="start" x="38.5" y="-442.5" font-family="Helvetica,sans-Serif" font-size="10.00">+ hasContent()</text>
<text text-anchor="start" x="38.5" y="-431.5" font-family="Helvetica,sans-Serif" font-size="10.00">+ clone()</text>
<text text-anchor="start" x="38.5" y="-420.5" font-family="Helvetica,sans-Serif" font-size="10.00">+ equals()</text>
<text text-anchor="start" x="38.5" y="-409.5" font-family="Helvetica,sans-Serif" font-size="10.00">+ getByte()</text>
<text text-anchor="start" x="38.5" y="-398.5" font-family="Helvetica,sans-Serif" font-size="10.00">and 6 more...</text>
<text text-anchor="start" x="38.5" y="-387.5" font-family="Helvetica,sans-Serif" font-size="10.00">+ createRandomSliceMatrix()</text>
<text text-anchor="start" x="38.5" y="-376.5" font-family="Helvetica,sans-Serif" font-size="10.00">+ getEmptySliceMatrix()</text>
</a>
</g>
</g>
<!-- Node4&#45;&gt;Node5 -->
<g id="edge3" class="edge"><title>Node4&#45;&gt;Node5</title>
<path fill="none" stroke="midnightblue" d="M47.1397,-640.783C51.2798,-629.486 56.0656,-616.428 61.0634,-602.791"/>
<polygon fill="none" stroke="midnightblue" points="43.8335,-639.633 43.6786,-650.227 50.406,-642.042 43.8335,-639.633"/>
</g>
<!-- Node5&#45;&gt;Node3 -->
<g id="edge2" class="edge"><title>Node5&#45;&gt;Node3</title>
<path fill="none" stroke="#404040" d="M103.5,-369.302C103.5,-357.694 103.5,-345.742 103.5,-333.714"/>
<polygon fill="none" stroke="#404040" points="103.5,-333.671 99.5,-327.671 103.5,-321.671 107.5,-327.671 103.5,-333.671"/>
<text text-anchor="middle" x="123.5" y="-343" font-family="Helvetica,sans-Serif" font-size="10.00"> #_slices</text>
</g>
<!-- Node6 -->
<g id="node4" class="node"><title>Node6</title>
<polygon fill="none" stroke="#bfbfbf" points="116,-650.5 116,-707.5 169,-707.5 169,-650.5 116,-650.5"/>
<text text-anchor="middle" x="142.5" y="-695.5" font-family="Helvetica,sans-Serif" font-size="10.00">Random</text>
<polyline fill="none" stroke="#bfbfbf" points="116,-688.5 169,-688.5 "/>
<text text-anchor="middle" x="142.5" y="-676.5" font-family="Helvetica,sans-Serif" font-size="10.00"> </text>
<polyline fill="none" stroke="#bfbfbf" points="116,-669.5 169,-669.5 "/>
<text text-anchor="middle" x="142.5" y="-657.5" font-family="Helvetica,sans-Serif" font-size="10.00"> </text>
</g>
<!-- Node6&#45;&gt;Node3 -->
<g id="edge5" class="edge"><title>Node6&#45;&gt;Node3</title>
<path fill="none" stroke="#404040" d="M169.125,-662.078C179.37,-654.401 189.937,-644.193 195.5,-632 244.049,-525.578 209.703,-483.442 185.5,-369 183,-357.178 179.888,-345.157 176.35,-333.161"/>
<polygon fill="none" stroke="#404040" points="176.347,-333.15 170.766,-328.584 172.834,-321.676 178.415,-326.242 176.347,-333.15"/>
<text text-anchor="middle" x="249" y="-483.5" font-family="Helvetica,sans-Serif" font-size="10.00"> #_RANDOM</text>
</g>
<!-- Node6&#45;&gt;Node5 -->
<g id="edge4" class="edge"><title>Node6&#45;&gt;Node5</title>
<path fill="none" stroke="#404040" d="M136.829,-650.227C134.754,-640.064 132.248,-627.793 129.554,-614.597"/>
<polygon fill="none" stroke="#404040" points="129.544,-614.549 124.425,-609.47 127.143,-602.791 132.263,-607.87 129.544,-614.549"/>
<text text-anchor="middle" x="162" y="-624" font-family="Helvetica,sans-Serif" font-size="10.00"> #_RANDOM</text>
</g>
</g>
</svg>
