<?xml version="1.0" encoding="UTF-8" standalone="no"?>
<!DOCTYPE svg PUBLIC "-//W3C//DTD SVG 1.1//EN"
 "http://www.w3.org/Graphics/SVG/1.1/DTD/svg11.dtd">
<!-- Generated by graphviz version 2.38.0 (20140413.2041)
 -->
<!-- Title: org.msrg.raccoon.matrix.bulk.BulkMatrix1D Pages: 1 -->
<!--zoomable 844 -->
<svg id="main" version="1.1" xmlns="http://www.w3.org/2000/svg" xmlns:xlink="http://www.w3.org/1999/xlink" xml:space="preserve" onload="init(evt)">
<style type="text/css"><![CDATA[
.edge:hover path { stroke: red; }
.edge:hover polygon { stroke: red; fill: red; }
]]></style>
<script type="text/javascript"><![CDATA[
var edges = document.getElementsByTagName('g');
if (edges && edges.length) {
  for (var i=0;i<edges.length;i++) {
    if (edges[i].id.substr(0,4)=='edge') {
      edges[i].setAttribute('class','edge');
    }
  }
}
]]></script>
        <defs>
                <circle id="rim" cx="0" cy="0" r="7"/>
                <circle id="rim2" cx="0" cy="0" r="3.5"/>
                <g id="zoomPlus">
                        <use xlink:href="#rim" fill="#404040">
                                <set attributeName="fill" to="#808080" begin="zoomplus.mouseover" end="zoomplus.mouseout"/>
                        </use>
                        <path d="M-4,0h8M0,-4v8" fill="none" stroke="white" stroke-width="1.5" pointer-events="none"/>
                </g>
                <g id="zoomMin">
                        <use xlink:href="#rim" fill="#404040">
                                <set attributeName="fill" to="#808080" begin="zoomminus.mouseover" end="zoomminus.mouseout"/>
                        </use>
                        <path d="M-4,0h8" fill="none" stroke="white" stroke-width="1.5" pointer-events="none"/>
                </g>
                <g id="dirArrow">
                        <path fill="none" stroke="white" stroke-width="1.5" d="M0,-3.0v7 M-2.5,-0.5L0,-3.0L2.5,-0.5"/>
                </g>
               <g id="resetDef">
                       <use xlink:href="#rim2" fill="#404040">
                               <set attributeName="fill" to="#808080" begin="reset.mouseover" end="reset.mouseout"/>
                       </use>
               </g>
        </defs>

<script type="text/javascript">
var viewWidth = 287;
var viewHeight = 844;
var sectionId = 'dynsection-1';
</script>
<script xlink:href="../../svgpan.js"/>
<svg id="graph" class="graph">
<g id="viewport">
<title>org.msrg.raccoon.matrix.bulk.BulkMatrix1D</title>
<!-- Node3 -->
<g id="node1" class="node"><title>Node3</title>
<polygon fill="#bfbfbf" stroke="black" points="16.5,-0.5 16.5,-90.5 190.5,-90.5 190.5,-0.5 16.5,-0.5"/>
<text text-anchor="start" x="24.5" y="-78.5" font-family="Helvetica,sans-Serif" font-size="10.00">org.msrg.raccoon.matrix.bulk.</text>
<text text-anchor="middle" x="103.5" y="-67.5" font-family="Helvetica,sans-Serif" font-size="10.00">BulkMatrix1D</text>
<polyline fill="none" stroke="black" points="16.5,-60.5 190.5,-60.5 "/>
<text text-anchor="start" x="24.5" y="-48.5" font-family="Helvetica,sans-Serif" font-size="10.00">&#45; serialVersionUID</text>
<polyline fill="none" stroke="black" points="16.5,-41.5 190.5,-41.5 "/>
<text text-anchor="start" x="24.5" y="-29.5" font-family="Helvetica,sans-Serif" font-size="10.00">+ BulkMatrix1D()</text>
<text text-anchor="start" x="24.5" y="-18.5" font-family="Helvetica,sans-Serif" font-size="10.00">+ createBulkMatrix1D()</text>
<text text-anchor="start" x="24.5" y="-7.5" font-family="Helvetica,sans-Serif" font-size="10.00">+ createBulkMatixIncrementalData()</text>
</g>
<!-- Node4 -->
<g id="node2" class="node"><title>Node4</title>
<g id="a_node2"><a xlink:href="../../df/da4/classorg_1_1msrg_1_1raccoon_1_1matrix_1_1bulk_1_1BulkMatrix.html" target="_top" xlink:title="{org.msrg.raccoon.matrix.bulk.\lBulkMatrix\n|+ _size\l+ _cols\l+ _rows\l+ _SLICE_LENGTH\l+ _MAX_ROWS_PRINT\l+ _MAX_SLICES_PRINT\l&#45; serialVersionUID\l|+ BulkMatrix()\l+ BulkMatrix()\l+ BulkMatrix()\l+ createEmptyMatrix()\l+ createOneEmtpySlice()\l+ getSliceCount()\l+ slice()\l+ equals()\l+ getByte()\l+ getSize()\l+ add()\l+ toString()\l+ getSizeInByteBuffer()\l+ getContent()\l+ getSlices()\l+ createBulkMatixRandomData()\l+ createBulkMatixIncrementalData()\l# toString()\l}">
<polygon fill="none" stroke="black" points="16.5,-128.5 16.5,-449.5 190.5,-449.5 190.5,-128.5 16.5,-128.5"/>
<text text-anchor="start" x="24.5" y="-437.5" font-family="Helvetica,sans-Serif" font-size="10.00">org.msrg.raccoon.matrix.bulk.</text>
<text text-anchor="middle" x="103.5" y="-426.5" font-family="Helvetica,sans-Serif" font-size="10.00">BulkMatrix</text>
<polyline fill="none" stroke="black" points="16.5,-419.5 190.5,-419.5 "/>
<text text-anchor="start" x="24.5" y="-407.5" font-family="Helvetica,sans-Serif" font-size="10.00">+ _size</text>
<text text-anchor="start" x="24.5" y="-396.5" font-family="Helvetica,sans-Serif" font-size="10.00">+ _cols</text>
<text text-anchor="start" x="24.5" y="-385.5" font-family="Helvetica,sans-Serif" font-size="10.00">+ _rows</text>
<text text-anchor="start" x="24.5" y="-374.5" font-family="Helvetica,sans-Serif" font-size="10.00">+ _SLICE_LENGTH</text>
<text text-anchor="start" x="24.5" y="-363.5" font-family="Helvetica,sans-Serif" font-size="10.00">+ _MAX_ROWS_PRINT</text>
<text text-anchor="start" x="24.5" y="-352.5" font-family="Helvetica,sans-Serif" font-size="10.00">+ _MAX_SLICES_PRINT</text>
<text text-anchor="start" x="24.5" y="-341.5" font-family="Helvetica,sans-Serif" font-size="10.00">&#45; serialVersionUID</text>
<polyline fill="none" stroke="black" points="16.5,-334.5 190.5,-334.5 "/>
<text text-anchor="start" x="24.5" y="-322.5" font-family="Helvetica,sans-Serif" font-size="10.00">+ BulkMatrix()</text>
<text text-anchor="start" x="24.5" y="-311.5" font-family="Helvetica,sans-Serif" font-size="10.00">+ BulkMatrix()</text>
<text text-anchor="start" x="24.5" y="-300.5" font-family="Helvetica,sans-Serif" font-size="10.00">+ BulkMatrix()</text>
<text text-anchor="start" x="24.5" y="-289.5" font-family="Helvetica,sans-Serif" font-size="10.00">+ createEmptyMatrix()</text>
<text text-anchor="start" x="24.5" y="-278.5" font-family="Helvetica,sans-Serif" font-size="10.00">+ createOneEmtpySlice()</text>
<text text-anchor="start" x="24.5" y="-267.5" font-family="Helvetica,sans-Serif" font-size="10.00">+ getSliceCount()</text>
<text text-anchor="start" x="24.5" y="-256.5" font-family="Helvetica,sans-Serif" font-size="10.00">+ slice()</text>
<text text-anchor="start" x="24.5" y="-245.5" font-family="Helvetica,sans-Serif" font-size="10.00">+ equals()</text>
<text text-anchor="start" x="24.5" y="-234.5" font-family="Helvetica,sans-Serif" font-size="10.00">+ getByte()</text>
<text text-anchor="start" x="24.5" y="-223.5" font-family="Helvetica,sans-Serif" font-size="10.00">+ getSize()</text>
<text text-anchor="start" x="24.5" y="-212.5" font-family="Helvetica,sans-Serif" font-size="10.00">+ add()</text>
<text text-anchor="start" x="24.5" y="-201.5" font-family="Helvetica,sans-Serif" font-size="10.00">+ toString()</text>
<text text-anchor="start" x="24.5" y="-190.5" font-family="Helvetica,sans-Serif" font-size="10.00">+ getSizeInByteBuffer()</text>
<text text-anchor="start" x="24.5" y="-179.5" font-family="Helvetica,sans-Serif" font-size="10.00">+ getContent()</text>
<text text-anchor="start" x="24.5" y="-168.5" font-family="Helvetica,sans-Serif" font-size="10.00">+ getSlices()</text>
<text text-anchor="start" x="24.5" y="-157.5" font-family="Helvetica,sans-Serif" font-size="10.00">+ createBulkMatixRandomData()</text>
<text text-anchor="start" x="24.5" y="-146.5" font-family="Helvetica,sans-Serif" font-size="10.00">+ createBulkMatixIncrementalData()</text>
<text text-anchor="start" x="24.5" y="-135.5" font-family="Helvetica,sans-Serif" font-size="10.00"># toString()</text>
</a>
</g>
</g>
<!-- Node4&#45;&gt;Node3 -->
<g id="edge1" class="edge"><title>Node4&#45;&gt;Node3</title>
<path fill="none" stroke="midnightblue" d="M103.5,-117.972C103.5,-108.264 103.5,-99.0688 103.5,-90.707"/>
<polygon fill="none" stroke="midnightblue" points="100,-118.261 103.5,-128.261 107,-118.261 100,-118.261"/>
</g>
<!-- Node5 -->
<g id="node3" class="node"><title>Node5</title>
<polygon fill="none" stroke="#bfbfbf" points="0,-778.5 0,-835.5 67,-835.5 67,-778.5 0,-778.5"/>
<text text-anchor="middle" x="33.5" y="-823.5" font-family="Helvetica,sans-Serif" font-size="10.00">Serializable</text>
<polyline fill="none" stroke="#bfbfbf" points="0,-816.5 67,-816.5 "/>
<text text-anchor="middle" x="33.5" y="-804.5" font-family="Helvetica,sans-Serif" font-size="10.00"> </text>
<polyline fill="none" stroke="#bfbfbf" points="0,-797.5 67,-797.5 "/>
<text text-anchor="middle" x="33.5" y="-785.5" font-family="Helvetica,sans-Serif" font-size="10.00"> </text>
</g>
<!-- Node5&#45;&gt;Node4 -->
<g id="edge2" class="edge"><title>Node5&#45;&gt;Node4</title>
<path fill="none" stroke="midnightblue" d="M26.6381,-768.504C17.1298,-709.952 3.08073,-593.51 21.5,-497 24.4892,-481.338 28.6441,-465.348 33.5115,-449.544"/>
<polygon fill="none" stroke="midnightblue" points="23.1927,-769.122 28.2936,-778.408 30.0969,-767.968 23.1927,-769.122"/>
</g>
<!-- Node6 -->
<g id="node4" class="node"><title>Node6</title>
<g id="a_node4"><a xlink:href="../../d6/d6d/classorg_1_1msrg_1_1raccoon_1_1matrix_1_1bulk_1_1SliceMatrix.html" target="_top" xlink:title="{org.msrg.raccoon.matrix.bulk.\lSliceMatrix\n|+ _cols\l+ _MAX_COLS_PRINT\l# _b\l&#45; serialVersionUID\l|+ SliceMatrix()\l+ SliceMatrix()\l+ SliceMatrix()\l+ loadNoCopy()\l+ loadWithCopy()\l+ getContent()\l+ hasContent()\l+ clone()\l+ equals()\l+ getByte()\land 6 more...\l+ createRandomSliceMatrix()\l+ getEmptySliceMatrix()\l}">
<polygon fill="none" stroke="black" points="30.5,-497.5 30.5,-730.5 176.5,-730.5 176.5,-497.5 30.5,-497.5"/>
<text text-anchor="start" x="38.5" y="-718.5" font-family="Helvetica,sans-Serif" font-size="10.00">org.msrg.raccoon.matrix.bulk.</text>
<text text-anchor="middle" x="103.5" y="-707.5" font-family="Helvetica,sans-Serif" font-size="10.00">SliceMatrix</text>
<polyline fill="none" stroke="black" points="30.5,-700.5 176.5,-700.5 "/>
<text text-anchor="start" x="38.5" y="-688.5" font-family="Helvetica,sans-Serif" font-size="10.00">+ _cols</text>
<text text-anchor="start" x="38.5" y="-677.5" font-family="Helvetica,sans-Serif" font-size="10.00">+ _MAX_COLS_PRINT</text>
<text text-anchor="start" x="38.5" y="-666.5" font-family="Helvetica,sans-Serif" font-size="10.00"># _b</text>
<text text-anchor="start" x="38.5" y="-655.5" font-family="Helvetica,sans-Serif" font-size="10.00">&#45; serialVersionUID</text>
<polyline fill="none" stroke="black" points="30.5,-648.5 176.5,-648.5 "/>
<text text-anchor="start" x="38.5" y="-636.5" font-family="Helvetica,sans-Serif" font-size="10.00">+ SliceMatrix()</text>
<text text-anchor="start" x="38.5" y="-625.5" font-family="Helvetica,sans-Serif" font-size="10.00">+ SliceMatrix()</text>
<text text-anchor="start" x="38.5" y="-614.5" font-family="Helvetica,sans-Serif" font-size="10.00">+ SliceMatrix()</text>
<text text-anchor="start" x="38.5" y="-603.5" font-family="Helvetica,sans-Serif" font-size="10.00">+ loadNoCopy()</text>
<text text-anchor="start" x="38.5" y="-592.5" font-family="Helvetica,sans-Serif" font-size="10.00">+ loadWithCopy()</text>
<text text-anchor="start" x="38.5" y="-581.5" font-family="Helvetica,sans-Serif" font-size="10.00">+ getContent()</text>
<text text-anchor="start" x="38.5" y="-570.5" font-family="Helvetica,sans-Serif" font-size="10.00">+ hasContent()</text>
<text text-anchor="start" x="38.5" y="-559.5" font-family="Helvetica,sans-Serif" font-size="10.00">+ clone()</text>
<text text-anchor="start" x="38.5" y="-548.5" font-family="Helvetica,sans-Serif" font-size="10.00">+ equals()</text>
<text text-anchor="start" x="38.5" y="-537.5" font-family="Helvetica,sans-Serif" font-size="10.00">+ getByte()</text>
<text text-anchor="start" x="38.5" y="-526.5" font-family="Helvetica,sans-Serif" font-size="10.00">and 6 more...</text>
<text text-anchor="start" x="38.5" y="-515.5" font-family="Helvetica,sans-Serif" font-size="10.00">+ createRandomSliceMatrix()</text>
<text text-anchor="start" x="38.5" y="-504.5" font-family="Helvetica,sans-Serif" font-size="10.00">+ getEmptySliceMatrix()</text>
</a>
</g>
</g>
<!-- Node5&#45;&gt;Node6 -->
<g id="edge4" class="edge"><title>Node5&#45;&gt;Node6</title>
<path fill="none" stroke="midnightblue" d="M47.1397,-768.783C51.2798,-757.486 56.0656,-744.428 61.0634,-730.791"/>
<polygon fill="none" stroke="midnightblue" points="43.8335,-767.633 43.6786,-778.227 50.406,-770.042 43.8335,-767.633"/>
</g>
<!-- Node6&#45;&gt;Node4 -->
<g id="edge3" class="edge"><title>Node6&#45;&gt;Node4</title>
<path fill="none" stroke="#404040" d="M103.5,-497.302C103.5,-485.694 103.5,-473.742 103.5,-461.714"/>
<polygon fill="none" stroke="#404040" points="103.5,-461.671 99.5,-455.671 103.5,-449.671 107.5,-455.671 103.5,-461.671"/>
<text text-anchor="middle" x="123.5" y="-471" font-family="Helvetica,sans-Serif" font-size="10.00"> #_slices</text>
</g>
<!-- Node7 -->
<g id="node5" class="node"><title>Node7</title>
<polygon fill="none" stroke="#bfbfbf" points="116,-778.5 116,-835.5 169,-835.5 169,-778.5 116,-778.5"/>
<text text-anchor="middle" x="142.5" y="-823.5" font-family="Helvetica,sans-Serif" font-size="10.00">Random</text>
<polyline fill="none" stroke="#bfbfbf" points="116,-816.5 169,-816.5 "/>
<text text-anchor="middle" x="142.5" y="-804.5" font-family="Helvetica,sans-Serif" font-size="10.00"> </text>
<polyline fill="none" stroke="#bfbfbf" points="116,-797.5 169,-797.5 "/>
<text text-anchor="middle" x="142.5" y="-785.5" font-family="Helvetica,sans-Serif" font-size="10.00"> </text>
</g>
<!-- Node7&#45;&gt;Node4 -->
<g id="edge6" class="edge"><title>Node7&#45;&gt;Node4</title>
<path fill="none" stroke="#404040" d="M169.125,-790.078C179.37,-782.401 189.937,-772.193 195.5,-760 244.049,-653.578 209.703,-611.442 185.5,-497 183,-485.178 179.888,-473.157 176.35,-461.161"/>
<polygon fill="none" stroke="#404040" points="176.347,-461.15 170.766,-456.584 172.834,-449.676 178.415,-454.242 176.347,-461.15"/>
<text text-anchor="middle" x="249" y="-611.5" font-family="Helvetica,sans-Serif" font-size="10.00"> #_RANDOM</text>
</g>
<!-- Node7&#45;&gt;Node6 -->
<g id="edge5" class="edge"><title>Node7&#45;&gt;Node6</title>
<path fill="none" stroke="#404040" d="M136.829,-778.227C134.754,-768.064 132.248,-755.793 129.554,-742.597"/>
<polygon fill="none" stroke="#404040" points="129.544,-742.549 124.425,-737.47 127.143,-730.791 132.263,-735.87 129.544,-742.549"/>
<text text-anchor="middle" x="162" y="-752" font-family="Helvetica,sans-Serif" font-size="10.00"> #_RANDOM</text>
</g>
</g>
</svg>
        <g id="navigator" transform="translate(0 0)" fill="#404254">
                <rect fill="#f2f5e9" fill-opacity="0.5" stroke="#606060" stroke-width=".5" x="0" y="0" width="60" height="60"/>
                <use id="zoomplus" xlink:href="#zoomPlus" x="17" y="9" onmousedown="handleZoom(evt,'in')"/>
                <use id="zoomminus" xlink:href="#zoomMin" x="42" y="9" onmousedown="handleZoom(evt,'out')"/>
                <use id="reset" xlink:href="#resetDef" x="30" y="36" onmousedown="handleReset()"/>
                <g id="arrowUp" xlink:href="#dirArrow" transform="translate(30 24)" onmousedown="handlePan(0,-1)">
                  <use xlink:href="#rim" fill="#404040">
                        <set attributeName="fill" to="#808080" begin="arrowUp.mouseover" end="arrowUp.mouseout"/>
                  </use>
                  <path fill="none" stroke="white" stroke-width="1.5" d="M0,-3.0v7 M-2.5,-0.5L0,-3.0L2.5,-0.5"/>
                </g>
                <g id="arrowRight" xlink:href="#dirArrow" transform="rotate(90) translate(36 -43)" onmousedown="handlePan(1,0)">
                  <use xlink:href="#rim" fill="#404040">
                        <set attributeName="fill" to="#808080" begin="arrowRight.mouseover" end="arrowRight.mouseout"/>
                  </use>
                  <path fill="none" stroke="white" stroke-width="1.5" d="M0,-3.0v7 M-2.5,-0.5L0,-3.0L2.5,-0.5"/>
                </g>
                <g id="arrowDown" xlink:href="#dirArrow" transform="rotate(180) translate(-30 -48)" onmousedown="handlePan(0,1)">
                  <use xlink:href="#rim" fill="#404040">
                        <set attributeName="fill" to="#808080" begin="arrowDown.mouseover" end="arrowDown.mouseout"/>
                  </use>
                  <path fill="none" stroke="white" stroke-width="1.5" d="M0,-3.0v7 M-2.5,-0.5L0,-3.0L2.5,-0.5"/>
                </g>
                <g id="arrowLeft" xlink:href="#dirArrow" transform="rotate(270) translate(-36 17)" onmousedown="handlePan(-1,0)">
                  <use xlink:href="#rim" fill="#404040">
                        <set attributeName="fill" to="#808080" begin="arrowLeft.mouseover" end="arrowLeft.mouseout"/>
                  </use>
                  <path fill="none" stroke="white" stroke-width="1.5" d="M0,-3.0v7 M-2.5,-0.5L0,-3.0L2.5,-0.5"/>
                </g>
        </g>
        <svg viewBox="0 0 15 15" width="100%" height="30px" preserveAspectRatio="xMaxYMin meet">
         <g id="arrow_out" transform="scale(0.3 0.3)">
          <a xlink:href="classorg_1_1msrg_1_1raccoon_1_1matrix_1_1bulk_1_1BulkMatrix1D__coll__graph_org.svg" target="_base">
           <rect id="button" ry="5" rx="5" y="6" x="6" height="38" width="38"
                fill="#f2f5e9" fill-opacity="0.5" stroke="#606060" stroke-width="1.0"/>
           <path id="arrow"
             d="M 11.500037,31.436501 C 11.940474,20.09759 22.043105,11.32322 32.158766,21.979434 L 37.068811,17.246167 C 37.068811,17.246167 37.088388,32 37.088388,32 L 22.160133,31.978069 C 22.160133,31.978069 26.997745,27.140456 26.997745,27.140456 C 18.528582,18.264221 13.291696,25.230495 11.500037,31.436501 z"
             style="fill:#404040;"/>
          </a>
         </g>
        </svg>
</svg>
