<?xml version="1.0" encoding="UTF-8" standalone="no"?>
<!DOCTYPE svg PUBLIC "-//W3C//DTD SVG 1.1//EN"
 "http://www.w3.org/Graphics/SVG/1.1/DTD/svg11.dtd">
<!-- Generated by graphviz version 2.38.0 (20140413.2041)
 -->
<!-- Title: org.msrg.raccoon.engine.task.sequential.EncodingDecodingEqual_SequentialCodingTask.EncodingDecodingEqual_SequentialCodingTask Pages: 1 -->
<svg width="666pt" height="127pt"
 viewBox="0.00 0.00 666.00 127.00" xmlns="http://www.w3.org/2000/svg" xmlns:xlink="http://www.w3.org/1999/xlink">
<g id="graph0" class="graph" transform="scale(1 1) rotate(0) translate(4 123)">
<title>org.msrg.raccoon.engine.task.sequential.EncodingDecodingEqual_SequentialCodingTask.EncodingDecodingEqual_SequentialCodingTask</title>
<!-- Node0 -->
<g id="node1" class="node"><title>Node0</title>
<polygon fill="#bfbfbf" stroke="black" points="0,-39 0,-80 230,-80 230,-39 0,-39"/>
<text text-anchor="start" x="8" y="-68" font-family="Helvetica,sans-Serif" font-size="10.00">org.msrg.raccoon.engine.task.sequential.</text>
<text text-anchor="start" x="8" y="-57" font-family="Helvetica,sans-Serif" font-size="10.00">EncodingDecodingEqual_SequentialCodingTask.</text>
<text text-anchor="middle" x="115" y="-46" font-family="Helvetica,sans-Serif" font-size="10.00">EncodingDecodingEqual_SequentialCodingTask</text>
</g>
<!-- Node1 -->
<g id="node2" class="node"><title>Node1</title>
<g id="a_node2"><a xlink:href="../../dd/da2/classorg_1_1msrg_1_1raccoon_1_1CodedBatch_aa5a1b5260f8abc65a0cd2d07ee11caa0.html#aa5a1b5260f8abc65a0cd2d07ee11caa0" target="_top" xlink:title="org.msrg.raccoon.CodedBatch.get\lBulkMatrix">
<polygon fill="none" stroke="black" points="281,-88.5 281,-118.5 447,-118.5 447,-88.5 281,-88.5"/>
<text text-anchor="start" x="289" y="-106.5" font-family="Helvetica,sans-Serif" font-size="10.00">org.msrg.raccoon.CodedBatch.get</text>
<text text-anchor="middle" x="364" y="-95.5" font-family="Helvetica,sans-Serif" font-size="10.00">BulkMatrix</text>
</a>
</g>
</g>
<!-- Node0&#45;&gt;Node1 -->
<g id="edge1" class="edge"><title>Node0&#45;&gt;Node1</title>
<path fill="none" stroke="midnightblue" d="M230.101,-79.8257C243.699,-82.248 257.45,-84.6976 270.69,-87.056"/>
<polygon fill="midnightblue" stroke="midnightblue" points="270.244,-90.5317 280.703,-88.8398 271.472,-83.6402 270.244,-90.5317"/>
</g>
<!-- Node2 -->
<g id="node3" class="node"><title>Node2</title>
<g id="a_node3"><a xlink:href="../../dd/da2/classorg_1_1msrg_1_1raccoon_1_1CodedBatch_a790dedc7e8851563c2ab75be32a9425f.html#a790dedc7e8851563c2ab75be32a9425f" target="_top" xlink:title="org.msrg.raccoon.CodedBatch.getSize">
<polygon fill="none" stroke="black" points="271.5,-50 271.5,-69 456.5,-69 456.5,-50 271.5,-50"/>
<text text-anchor="middle" x="364" y="-57" font-family="Helvetica,sans-Serif" font-size="10.00">org.msrg.raccoon.CodedBatch.getSize</text>
</a>
</g>
</g>
<!-- Node0&#45;&gt;Node2 -->
<g id="edge2" class="edge"><title>Node0&#45;&gt;Node2</title>
<path fill="none" stroke="midnightblue" d="M230.101,-59.5C240.434,-59.5 250.856,-59.5 261.074,-59.5"/>
<polygon fill="midnightblue" stroke="midnightblue" points="261.214,-63.0001 271.214,-59.5 261.214,-56.0001 261.214,-63.0001"/>
</g>
<!-- Node4 -->
<g id="node5" class="node"><title>Node4</title>
<g id="a_node5"><a xlink:href="../../d6/d78/classorg_1_1msrg_1_1raccoon_1_1engine_1_1task_1_1sequential_1_1SequentialCodingTask_a9fee0e39302d3e057700653cea01cfe4.html#a9fee0e39302d3e057700653cea01cfe4" target="_top" xlink:title="org.msrg.raccoon.engine.task.sequential.\lSequentialCodingTask.setCurrentStage">
<polygon fill="none" stroke="black" points="266,-0.5 266,-30.5 462,-30.5 462,-0.5 266,-0.5"/>
<text text-anchor="start" x="274" y="-18.5" font-family="Helvetica,sans-Serif" font-size="10.00">org.msrg.raccoon.engine.task.sequential.</text>
<text text-anchor="middle" x="364" y="-7.5" font-family="Helvetica,sans-Serif" font-size="10.00">SequentialCodingTask.setCurrentStage</text>
</a>
</g>
</g>
<!-- Node0&#45;&gt;Node4 -->
<g id="edge4" class="edge"><title>Node0&#45;&gt;Node4</title>
<path fill="none" stroke="midnightblue" d="M230.101,-39.1743C242.967,-36.8823 255.971,-34.566 268.548,-32.3255"/>
<polygon fill="midnightblue" stroke="midnightblue" points="269.301,-35.7465 278.532,-30.5469 268.074,-28.855 269.301,-35.7465"/>
</g>
<!-- Node3 -->
<g id="node4" class="node"><title>Node3</title>
<g id="a_node4"><a xlink:href="../../dd/da2/classorg_1_1msrg_1_1raccoon_1_1CodedBatch_add35b13e6611e5eea0f1ce5c97923634.html#add35b13e6611e5eea0f1ce5c97923634" target="_top" xlink:title="org.msrg.raccoon.CodedBatch.is\lSolved">
<polygon fill="none" stroke="black" points="498,-44.5 498,-74.5 658,-74.5 658,-44.5 498,-44.5"/>
<text text-anchor="start" x="506" y="-62.5" font-family="Helvetica,sans-Serif" font-size="10.00">org.msrg.raccoon.CodedBatch.is</text>
<text text-anchor="middle" x="578" y="-51.5" font-family="Helvetica,sans-Serif" font-size="10.00">Solved</text>
</a>
</g>
</g>
<!-- Node2&#45;&gt;Node3 -->
<g id="edge3" class="edge"><title>Node2&#45;&gt;Node3</title>
<path fill="none" stroke="midnightblue" d="M456.753,-59.5C466.993,-59.5 477.413,-59.5 487.622,-59.5"/>
<polygon fill="midnightblue" stroke="midnightblue" points="487.746,-63.0001 497.746,-59.5 487.746,-56.0001 487.746,-63.0001"/>
</g>
</g>
</svg>
