<?xml version="1.0" encoding="UTF-8" standalone="no"?>
<!DOCTYPE svg PUBLIC "-//W3C//DTD SVG 1.1//EN"
 "http://www.w3.org/Graphics/SVG/1.1/DTD/svg11.dtd">
<!-- Generated by graphviz version 2.38.0 (20140413.2041)
 -->
<!-- Title: org.msrg.raccoon.engine.task.sequential.EncodingDecodingEqual_SequentialCodingTask.runStagePrivately Pages: 1 -->
<svg width="695pt" height="568pt"
 viewBox="0.00 0.00 695.00 568.00" xmlns="http://www.w3.org/2000/svg" xmlns:xlink="http://www.w3.org/1999/xlink">
<g id="graph0" class="graph" transform="scale(1 1) rotate(0) translate(4 564)">
<title>org.msrg.raccoon.engine.task.sequential.EncodingDecodingEqual_SequentialCodingTask.runStagePrivately</title>
<!-- Node0 -->
<g id="node1" class="node"><title>Node0</title>
<polygon fill="#bfbfbf" stroke="black" points="0,-254 0,-295 243,-295 243,-254 0,-254"/>
<text text-anchor="start" x="8" y="-283" font-family="Helvetica,sans-Serif" font-size="10.00">org.msrg.raccoon.engine.task.sequential.</text>
<text text-anchor="start" x="8" y="-272" font-family="Helvetica,sans-Serif" font-size="10.00">EncodingDecodingEqual_SequentialCodingTask.run</text>
<text text-anchor="middle" x="121.5" y="-261" font-family="Helvetica,sans-Serif" font-size="10.00">StagePrivately</text>
</g>
<!-- Node1 -->
<g id="node2" class="node"><title>Node1</title>
<g id="a_node2"><a xlink:href="../../da/df0/classorg_1_1msrg_1_1raccoon_1_1ReceivedCodedBatch_a7fb696930d2d487574d2ec3ecfbbcae7.html#a7fb696930d2d487574d2ec3ecfbbcae7" target="_top" xlink:title="org.msrg.raccoon.Received\lCodedBatch.addCodedSlice">
<polygon fill="none" stroke="black" points="307,-529.5 307,-559.5 447,-559.5 447,-529.5 307,-529.5"/>
<text text-anchor="start" x="315" y="-547.5" font-family="Helvetica,sans-Serif" font-size="10.00">org.msrg.raccoon.Received</text>
<text text-anchor="middle" x="377" y="-536.5" font-family="Helvetica,sans-Serif" font-size="10.00">CodedBatch.addCodedSlice</text>
</a>
</g>
</g>
<!-- Node0&#45;&gt;Node1 -->
<g id="edge1" class="edge"><title>Node0&#45;&gt;Node1</title>
<path fill="none" stroke="midnightblue" d="M129.499,-295.105C146.782,-342.741 196.188,-460.957 279,-520.5 284.583,-524.515 290.764,-527.861 297.222,-530.651"/>
<polygon fill="midnightblue" stroke="midnightblue" points="296.255,-534.029 306.845,-534.352 298.768,-527.496 296.255,-534.029"/>
</g>
<!-- Node3 -->
<g id="node4" class="node"><title>Node3</title>
<g id="a_node4"><a xlink:href="../../dd/dff/interfaceorg_1_1msrg_1_1raccoon_1_1engine_1_1ICodingEngine_addf00ef4ea73a36f94342e34fdebf456.html#addf00ef4ea73a36f94342e34fdebf456" target="_top" xlink:title="org.msrg.raccoon.engine.\lICodingEngine.checkEquality">
<polygon fill="none" stroke="black" points="304.5,-480.5 304.5,-510.5 449.5,-510.5 449.5,-480.5 304.5,-480.5"/>
<text text-anchor="start" x="312.5" y="-498.5" font-family="Helvetica,sans-Serif" font-size="10.00">org.msrg.raccoon.engine.</text>
<text text-anchor="middle" x="377" y="-487.5" font-family="Helvetica,sans-Serif" font-size="10.00">ICodingEngine.checkEquality</text>
</a>
</g>
</g>
<!-- Node0&#45;&gt;Node3 -->
<g id="edge3" class="edge"><title>Node0&#45;&gt;Node3</title>
<path fill="none" stroke="midnightblue" d="M132.881,-295.195C154.318,-335.721 207.52,-425.582 279,-471.5 283.956,-474.684 289.303,-477.445 294.851,-479.84"/>
<polygon fill="midnightblue" stroke="midnightblue" points="293.756,-483.169 304.344,-483.534 296.295,-476.646 293.756,-483.169"/>
</g>
<!-- Node4 -->
<g id="node5" class="node"><title>Node4</title>
<g id="a_node5"><a xlink:href="../../dd/dff/interfaceorg_1_1msrg_1_1raccoon_1_1engine_1_1ICodingEngine_aea8ac998374eff0d1e70a09ea543bf82.html#aea8ac998374eff0d1e70a09ea543bf82" target="_top" xlink:title="org.msrg.raccoon.engine.\lICodingEngine.decode">
<polygon fill="none" stroke="black" points="313.5,-431.5 313.5,-461.5 440.5,-461.5 440.5,-431.5 313.5,-431.5"/>
<text text-anchor="start" x="321.5" y="-449.5" font-family="Helvetica,sans-Serif" font-size="10.00">org.msrg.raccoon.engine.</text>
<text text-anchor="middle" x="377" y="-438.5" font-family="Helvetica,sans-Serif" font-size="10.00">ICodingEngine.decode</text>
</a>
</g>
</g>
<!-- Node0&#45;&gt;Node4 -->
<g id="edge4" class="edge"><title>Node0&#45;&gt;Node4</title>
<path fill="none" stroke="midnightblue" d="M138.345,-295.207C164.186,-327.486 218.616,-389.511 279,-422.5 286.688,-426.7 295.117,-430.177 303.695,-433.052"/>
<polygon fill="midnightblue" stroke="midnightblue" points="302.825,-436.447 313.413,-436.05 304.889,-429.758 302.825,-436.447"/>
</g>
<!-- Node5 -->
<g id="node6" class="node"><title>Node5</title>
<g id="a_node6"><a xlink:href="../../dd/dff/interfaceorg_1_1msrg_1_1raccoon_1_1engine_1_1ICodingEngine_a20761d073b00f407a6f4b50c9be5eceb.html#a20761d073b00f407a6f4b50c9be5eceb" target="_top" xlink:title="org.msrg.raccoon.engine.\lICodingEngine.encode">
<polygon fill="none" stroke="black" points="313.5,-382.5 313.5,-412.5 440.5,-412.5 440.5,-382.5 313.5,-382.5"/>
<text text-anchor="start" x="321.5" y="-400.5" font-family="Helvetica,sans-Serif" font-size="10.00">org.msrg.raccoon.engine.</text>
<text text-anchor="middle" x="377" y="-389.5" font-family="Helvetica,sans-Serif" font-size="10.00">ICodingEngine.encode</text>
</a>
</g>
</g>
<!-- Node0&#45;&gt;Node5 -->
<g id="edge5" class="edge"><title>Node0&#45;&gt;Node5</title>
<path fill="none" stroke="midnightblue" d="M148.998,-295.04C178.99,-317.36 230.06,-352.618 279,-373.5 286.799,-376.828 295.155,-379.759 303.572,-382.325"/>
<polygon fill="midnightblue" stroke="midnightblue" points="302.873,-385.766 313.451,-385.171 304.811,-379.039 302.873,-385.766"/>
</g>
<!-- Node6 -->
<g id="node7" class="node"><title>Node6</title>
<g id="a_node7"><a xlink:href="../../d6/d78/classorg_1_1msrg_1_1raccoon_1_1engine_1_1task_1_1sequential_1_1SequentialCodingTask_aa6775297516c20f0f7a5d691376b4937.html#aa6775297516c20f0f7a5d691376b4937" target="_top" xlink:title="org.msrg.raccoon.engine.task.sequential.\lSequentialCodingTask.failed">
<polygon fill="none" stroke="black" points="279,-333.5 279,-363.5 475,-363.5 475,-333.5 279,-333.5"/>
<text text-anchor="start" x="287" y="-351.5" font-family="Helvetica,sans-Serif" font-size="10.00">org.msrg.raccoon.engine.task.sequential.</text>
<text text-anchor="middle" x="377" y="-340.5" font-family="Helvetica,sans-Serif" font-size="10.00">SequentialCodingTask.failed</text>
</a>
</g>
</g>
<!-- Node0&#45;&gt;Node6 -->
<g id="edge6" class="edge"><title>Node0&#45;&gt;Node6</title>
<path fill="none" stroke="midnightblue" d="M183.532,-295.041C212.35,-304.472 247.302,-315.526 279,-324.5 286.714,-326.684 294.803,-328.861 302.881,-330.963"/>
<polygon fill="midnightblue" stroke="midnightblue" points="302.147,-334.388 312.704,-333.486 303.888,-327.608 302.147,-334.388"/>
</g>
<!-- Node7 -->
<g id="node8" class="node"><title>Node7</title>
<g id="a_node8"><a xlink:href="../../dd/da2/classorg_1_1msrg_1_1raccoon_1_1CodedBatch_ac3e6ebf9f6d3334dec7bba22a83f3999.html#ac3e6ebf9f6d3334dec7bba22a83f3999" target="_top" xlink:title="org.msrg.raccoon.CodedBatch.get\lAvailableCodedPieceCount">
<polygon fill="none" stroke="black" points="294,-284.5 294,-314.5 460,-314.5 460,-284.5 294,-284.5"/>
<text text-anchor="start" x="302" y="-302.5" font-family="Helvetica,sans-Serif" font-size="10.00">org.msrg.raccoon.CodedBatch.get</text>
<text text-anchor="middle" x="377" y="-291.5" font-family="Helvetica,sans-Serif" font-size="10.00">AvailableCodedPieceCount</text>
</a>
</g>
</g>
<!-- Node0&#45;&gt;Node7 -->
<g id="edge7" class="edge"><title>Node0&#45;&gt;Node7</title>
<path fill="none" stroke="midnightblue" d="M243.311,-286.414C256.928,-287.757 270.636,-289.109 283.806,-290.408"/>
<polygon fill="midnightblue" stroke="midnightblue" points="283.466,-293.891 293.761,-291.39 284.153,-286.925 283.466,-293.891"/>
</g>
<!-- Node8 -->
<g id="node9" class="node"><title>Node8</title>
<g id="a_node9"><a xlink:href="../../dd/da2/classorg_1_1msrg_1_1raccoon_1_1CodedBatch_aa5a1b5260f8abc65a0cd2d07ee11caa0.html#aa5a1b5260f8abc65a0cd2d07ee11caa0" target="_top" xlink:title="org.msrg.raccoon.CodedBatch.get\lBulkMatrix">
<polygon fill="none" stroke="black" points="294,-235.5 294,-265.5 460,-265.5 460,-235.5 294,-235.5"/>
<text text-anchor="start" x="302" y="-253.5" font-family="Helvetica,sans-Serif" font-size="10.00">org.msrg.raccoon.CodedBatch.get</text>
<text text-anchor="middle" x="377" y="-242.5" font-family="Helvetica,sans-Serif" font-size="10.00">BulkMatrix</text>
</a>
</g>
</g>
<!-- Node0&#45;&gt;Node8 -->
<g id="edge8" class="edge"><title>Node0&#45;&gt;Node8</title>
<path fill="none" stroke="midnightblue" d="M243.311,-263.062C256.928,-261.773 270.636,-260.475 283.806,-259.228"/>
<polygon fill="midnightblue" stroke="midnightblue" points="284.136,-262.713 293.761,-258.286 283.476,-255.744 284.136,-262.713"/>
</g>
<!-- Node9 -->
<g id="node10" class="node"><title>Node9</title>
<g id="a_node10"><a xlink:href="../../db/d63/classorg_1_1msrg_1_1raccoon_1_1engine_1_1task_1_1result_1_1Equals__CodingResult_af1abb9e1bfe895f261cd1c89334163df.html#af1abb9e1bfe895f261cd1c89334163df" target="_top" xlink:title="org.msrg.raccoon.engine.task.result.\lEquals_CodingResult.getResult">
<polygon fill="none" stroke="black" points="289,-186.5 289,-216.5 465,-216.5 465,-186.5 289,-186.5"/>
<text text-anchor="start" x="297" y="-204.5" font-family="Helvetica,sans-Serif" font-size="10.00">org.msrg.raccoon.engine.task.result.</text>
<text text-anchor="middle" x="377" y="-193.5" font-family="Helvetica,sans-Serif" font-size="10.00">Equals_CodingResult.getResult</text>
</a>
</g>
</g>
<!-- Node0&#45;&gt;Node9 -->
<g id="edge9" class="edge"><title>Node0&#45;&gt;Node9</title>
<path fill="none" stroke="midnightblue" d="M187.026,-253.989C215.184,-245.225 248.639,-235.064 279,-226.5 287.727,-224.038 296.923,-221.542 306.035,-219.128"/>
<polygon fill="midnightblue" stroke="midnightblue" points="307.081,-222.472 315.863,-216.546 305.302,-215.702 307.081,-222.472"/>
</g>
<!-- Node10 -->
<g id="node11" class="node"><title>Node10</title>
<g id="a_node11"><a xlink:href="../../df/d3e/classorg_1_1msrg_1_1raccoon_1_1engine_1_1task_1_1result_1_1CodingResult_a3d4ac3e6ad6ad1a0bbbbc8f345092652.html#a3d4ac3e6ad6ad1a0bbbbc8f345092652" target="_top" xlink:title="org.msrg.raccoon.engine.task.result.\lCodingResult.isFinished">
<polygon fill="none" stroke="black" points="511,-164.5 511,-194.5 687,-194.5 687,-164.5 511,-164.5"/>
<text text-anchor="start" x="519" y="-182.5" font-family="Helvetica,sans-Serif" font-size="10.00">org.msrg.raccoon.engine.task.result.</text>
<text text-anchor="middle" x="599" y="-171.5" font-family="Helvetica,sans-Serif" font-size="10.00">CodingResult.isFinished</text>
</a>
</g>
</g>
<!-- Node0&#45;&gt;Node10 -->
<g id="edge13" class="edge"><title>Node0&#45;&gt;Node10</title>
<path fill="none" stroke="midnightblue" d="M146.18,-253.843C175.177,-230.052 226.89,-192.34 279,-177.5 351.301,-156.911 436.615,-158.718 500.814,-164.959"/>
<polygon fill="midnightblue" stroke="midnightblue" points="500.626,-168.458 510.931,-165.996 501.34,-161.495 500.626,-168.458"/>
</g>
<!-- Node11 -->
<g id="node12" class="node"><title>Node11</title>
<g id="a_node12"><a xlink:href="../../df/d3e/classorg_1_1msrg_1_1raccoon_1_1engine_1_1task_1_1result_1_1CodingResult_af346f009892c564aa7b2a6751914b154.html#af346f009892c564aa7b2a6751914b154" target="_top" xlink:title="org.msrg.raccoon.engine.task.result.\lCodingResult.isFailed">
<polygon fill="none" stroke="black" points="289,-98.5 289,-128.5 465,-128.5 465,-98.5 289,-98.5"/>
<text text-anchor="start" x="297" y="-116.5" font-family="Helvetica,sans-Serif" font-size="10.00">org.msrg.raccoon.engine.task.result.</text>
<text text-anchor="middle" x="377" y="-105.5" font-family="Helvetica,sans-Serif" font-size="10.00">CodingResult.isFailed</text>
</a>
</g>
</g>
<!-- Node0&#45;&gt;Node11 -->
<g id="edge11" class="edge"><title>Node0&#45;&gt;Node11</title>
<path fill="none" stroke="midnightblue" d="M141.804,-253.824C169.582,-225.206 223.604,-173.651 279,-143.5 287.016,-139.137 295.757,-135.312 304.602,-131.985"/>
<polygon fill="midnightblue" stroke="midnightblue" points="305.961,-135.217 314.211,-128.57 303.616,-128.621 305.961,-135.217"/>
</g>
<!-- Node12 -->
<g id="node13" class="node"><title>Node12</title>
<g id="a_node13"><a xlink:href="../../d9/d22/classorg_1_1msrg_1_1raccoon_1_1engine_1_1task_1_1CodingTask_ae73495361c978756abf28bfd65138fb3.html#ae73495361c978756abf28bfd65138fb3" target="_top" xlink:title="org.msrg.raccoon.engine.task.\lCodingTask.isFailed">
<polygon fill="none" stroke="black" points="302.5,-49.5 302.5,-79.5 451.5,-79.5 451.5,-49.5 302.5,-49.5"/>
<text text-anchor="start" x="310.5" y="-67.5" font-family="Helvetica,sans-Serif" font-size="10.00">org.msrg.raccoon.engine.task.</text>
<text text-anchor="middle" x="377" y="-56.5" font-family="Helvetica,sans-Serif" font-size="10.00">CodingTask.isFailed</text>
</a>
</g>
</g>
<!-- Node0&#45;&gt;Node12 -->
<g id="edge12" class="edge"><title>Node0&#45;&gt;Node12</title>
<path fill="none" stroke="midnightblue" d="M133.949,-253.945C156.481,-215.461 210.407,-132.548 279,-89.5 283.398,-86.7397 288.09,-84.2832 292.947,-82.0972"/>
<polygon fill="midnightblue" stroke="midnightblue" points="294.521,-85.2356 302.458,-78.218 291.877,-78.754 294.521,-85.2356"/>
</g>
<!-- Node13 -->
<g id="node14" class="node"><title>Node13</title>
<g id="a_node14"><a xlink:href="../../d6/d78/classorg_1_1msrg_1_1raccoon_1_1engine_1_1task_1_1sequential_1_1SequentialCodingTask_a9fee0e39302d3e057700653cea01cfe4.html#a9fee0e39302d3e057700653cea01cfe4" target="_top" xlink:title="org.msrg.raccoon.engine.task.sequential.\lSequentialCodingTask.setCurrentStage">
<polygon fill="none" stroke="black" points="279,-0.5 279,-30.5 475,-30.5 475,-0.5 279,-0.5"/>
<text text-anchor="start" x="287" y="-18.5" font-family="Helvetica,sans-Serif" font-size="10.00">org.msrg.raccoon.engine.task.sequential.</text>
<text text-anchor="middle" x="377" y="-7.5" font-family="Helvetica,sans-Serif" font-size="10.00">SequentialCodingTask.setCurrentStage</text>
</a>
</g>
</g>
<!-- Node0&#45;&gt;Node13 -->
<g id="edge14" class="edge"><title>Node0&#45;&gt;Node13</title>
<path fill="none" stroke="midnightblue" d="M130.243,-253.923C148.595,-208.058 199.264,-97.0378 279,-40.5 281.695,-38.5888 284.525,-36.8236 287.454,-35.1932"/>
<polygon fill="midnightblue" stroke="midnightblue" points="289.107,-38.2801 296.505,-30.6955 285.992,-32.0115 289.107,-38.2801"/>
</g>
<!-- Node2 -->
<g id="node3" class="node"><title>Node2</title>
<g id="a_node3"><a xlink:href="../../da/df0/classorg_1_1msrg_1_1raccoon_1_1ReceivedCodedBatch_a7316fa460477ba3d98da31f9a7dd1326.html#a7316fa460477ba3d98da31f9a7dd1326" target="_top" xlink:title="org.msrg.raccoon.Received\lCodedBatch.isSolved">
<polygon fill="none" stroke="black" points="530.5,-529.5 530.5,-559.5 667.5,-559.5 667.5,-529.5 530.5,-529.5"/>
<text text-anchor="start" x="538.5" y="-547.5" font-family="Helvetica,sans-Serif" font-size="10.00">org.msrg.raccoon.Received</text>
<text text-anchor="middle" x="599" y="-536.5" font-family="Helvetica,sans-Serif" font-size="10.00">CodedBatch.isSolved</text>
</a>
</g>
</g>
<!-- Node1&#45;&gt;Node2 -->
<g id="edge2" class="edge"><title>Node1&#45;&gt;Node2</title>
<path fill="none" stroke="midnightblue" d="M447.006,-544.5C470.271,-544.5 496.391,-544.5 520.282,-544.5"/>
<polygon fill="midnightblue" stroke="midnightblue" points="520.37,-548 530.37,-544.5 520.37,-541 520.37,-548"/>
</g>
<!-- Node9&#45;&gt;Node10 -->
<g id="edge10" class="edge"><title>Node9&#45;&gt;Node10</title>
<path fill="none" stroke="midnightblue" d="M465.266,-192.773C476.864,-191.614 488.815,-190.419 500.572,-189.243"/>
<polygon fill="midnightblue" stroke="midnightblue" points="501.238,-192.694 510.84,-188.216 500.541,-185.729 501.238,-192.694"/>
</g>
</g>
</svg>
