<?xml version="1.0" encoding="UTF-8" standalone="no"?>
<!DOCTYPE svg PUBLIC "-//W3C//DTD SVG 1.1//EN"
 "http://www.w3.org/Graphics/SVG/1.1/DTD/svg11.dtd">
<!-- Generated by graphviz version 2.38.0 (20140413.2041)
 -->
<!-- Title: org.msrg.raccoon.engine.task.result.BulkMatrix_CodingResult.getResult Pages: 1 -->
<svg width="728pt" height="159pt"
 viewBox="0.00 0.00 728.00 158.50" xmlns="http://www.w3.org/2000/svg" xmlns:xlink="http://www.w3.org/1999/xlink">
<g id="graph0" class="graph" transform="scale(1 1) rotate(0) translate(4 154.5)">
<title>org.msrg.raccoon.engine.task.result.BulkMatrix_CodingResult.getResult</title>
<!-- Node1 -->
<g id="node1" class="node"><title>Node1</title>
<polygon fill="#bfbfbf" stroke="black" points="0,-54.5 0,-84.5 176,-84.5 176,-54.5 0,-54.5"/>
<text text-anchor="start" x="8" y="-72.5" font-family="Helvetica,sans-Serif" font-size="10.00">org.msrg.raccoon.engine.task.result.</text>
<text text-anchor="middle" x="88" y="-61.5" font-family="Helvetica,sans-Serif" font-size="10.00">BulkMatrix_CodingResult.getResult</text>
</g>
<!-- Node2 -->
<g id="node2" class="node"><title>Node2</title>
<g id="a_node2"><a xlink:href="../../dc/dcf/classorg_1_1msrg_1_1raccoon_1_1engine_1_1CodingEngineTest_af8b30ec26e68febeddd3f3ff75a13555.html#af8b30ec26e68febeddd3f3ff75a13555" target="_top" xlink:title="org.msrg.raccoon.engine.\lCodingEngineTest.processFinished\lResult">
<polygon fill="none" stroke="black" points="247.5,-109 247.5,-150 418.5,-150 418.5,-109 247.5,-109"/>
<text text-anchor="start" x="255.5" y="-138" font-family="Helvetica,sans-Serif" font-size="10.00">org.msrg.raccoon.engine.</text>
<text text-anchor="start" x="255.5" y="-127" font-family="Helvetica,sans-Serif" font-size="10.00">CodingEngineTest.processFinished</text>
<text text-anchor="middle" x="333" y="-116" font-family="Helvetica,sans-Serif" font-size="10.00">Result</text>
</a>
</g>
</g>
<!-- Node1&#45;&gt;Node2 -->
<g id="edge1" class="edge"><title>Node1&#45;&gt;Node2</title>
<path fill="none" stroke="midnightblue" d="M160.054,-87.0441C187.892,-93.9179 220.028,-101.852 248.929,-108.989"/>
<polygon fill="midnightblue" stroke="midnightblue" points="160.553,-83.5624 150.006,-84.5631 158.875,-90.3583 160.553,-83.5624"/>
</g>
<!-- Node4 -->
<g id="node4" class="node"><title>Node4</title>
<g id="a_node4"><a xlink:href="../../d4/d5e/classorg_1_1msrg_1_1raccoon_1_1engine_1_1task_1_1sequential_1_1MultiplyInverseMultiplyEqual__SequentialCodingTask_a8870d11208f9be305c378f932d7abaa0.html#a8870d11208f9be305c378f932d7abaa0" target="_top" xlink:title="org.msrg.raccoon.engine.task.sequential.\lMultiplyInverseMultiplyEqual_Sequential\lCodingTask.runStagePrivately">
<polygon fill="none" stroke="black" points="235,-49 235,-90 431,-90 431,-49 235,-49"/>
<text text-anchor="start" x="243" y="-78" font-family="Helvetica,sans-Serif" font-size="10.00">org.msrg.raccoon.engine.task.sequential.</text>
<text text-anchor="start" x="243" y="-67" font-family="Helvetica,sans-Serif" font-size="10.00">MultiplyInverseMultiplyEqual_Sequential</text>
<text text-anchor="middle" x="333" y="-56" font-family="Helvetica,sans-Serif" font-size="10.00">CodingTask.runStagePrivately</text>
</a>
</g>
</g>
<!-- Node1&#45;&gt;Node4 -->
<g id="edge3" class="edge"><title>Node1&#45;&gt;Node4</title>
<path fill="none" stroke="midnightblue" d="M186.427,-69.5C202.375,-69.5 218.9,-69.5 234.841,-69.5"/>
<polygon fill="midnightblue" stroke="midnightblue" points="186.042,-66.0001 176.042,-69.5 186.042,-73.0001 186.042,-66.0001"/>
</g>
<!-- Node6 -->
<g id="node6" class="node"><title>Node6</title>
<g id="a_node6"><a xlink:href="../../d3/d36/classorg_1_1msrg_1_1raccoon_1_1engine_1_1task_1_1sequential_1_1Decoding__SequentialCodingTask_aa875e6c27f9bd356223417ae1689c3b4.html#aa875e6c27f9bd356223417ae1689c3b4" target="_top" xlink:title="org.msrg.raccoon.engine.task.sequential.\lDecoding_SequentialCodingTask.runStagePrivately">
<polygon fill="none" stroke="black" points="212,-0.5 212,-30.5 454,-30.5 454,-0.5 212,-0.5"/>
<text text-anchor="start" x="220" y="-18.5" font-family="Helvetica,sans-Serif" font-size="10.00">org.msrg.raccoon.engine.task.sequential.</text>
<text text-anchor="middle" x="333" y="-7.5" font-family="Helvetica,sans-Serif" font-size="10.00">Decoding_SequentialCodingTask.runStagePrivately</text>
</a>
</g>
</g>
<!-- Node1&#45;&gt;Node6 -->
<g id="edge5" class="edge"><title>Node1&#45;&gt;Node6</title>
<path fill="none" stroke="midnightblue" d="M158.698,-51.9632C176.076,-47.7391 194.69,-43.3402 212,-39.5 225.689,-36.463 240.296,-33.3967 254.438,-30.5182"/>
<polygon fill="midnightblue" stroke="midnightblue" points="157.512,-48.6501 148.629,-54.4246 159.174,-55.4499 157.512,-48.6501"/>
</g>
<!-- Node3 -->
<g id="node3" class="node"><title>Node3</title>
<g id="a_node3"><a xlink:href="../../dc/dcf/classorg_1_1msrg_1_1raccoon_1_1engine_1_1CodingEngineTest_a312467d37f3faa057e1deaaeb5f527a4.html#a312467d37f3faa057e1deaaeb5f527a4" target="_top" xlink:title="org.msrg.raccoon.engine.\lCodingEngineTest.codingFinished">
<polygon fill="none" stroke="black" points="522.5,-114.5 522.5,-144.5 687.5,-144.5 687.5,-114.5 522.5,-114.5"/>
<text text-anchor="start" x="530.5" y="-132.5" font-family="Helvetica,sans-Serif" font-size="10.00">org.msrg.raccoon.engine.</text>
<text text-anchor="middle" x="605" y="-121.5" font-family="Helvetica,sans-Serif" font-size="10.00">CodingEngineTest.codingFinished</text>
</a>
</g>
</g>
<!-- Node2&#45;&gt;Node3 -->
<g id="edge2" class="edge"><title>Node2&#45;&gt;Node3</title>
<path fill="none" stroke="midnightblue" d="M428.908,-129.5C459.412,-129.5 492.918,-129.5 522.382,-129.5"/>
<polygon fill="midnightblue" stroke="midnightblue" points="428.689,-126 418.689,-129.5 428.689,-133 428.689,-126"/>
</g>
<!-- Node5 -->
<g id="node5" class="node"><title>Node5</title>
<g id="a_node5"><a xlink:href="../../d4/d5e/classorg_1_1msrg_1_1raccoon_1_1engine_1_1task_1_1sequential_1_1MultiplyInverseMultiplyEqual__SequentialCodingTask_a486ab503957784e8d6aa52a9ddde130d.html#a486ab503957784e8d6aa52a9ddde130d" target="_top" xlink:title="org.msrg.raccoon.engine.task.sequential.\lMultiplyInverseMultiplyEqual_Sequential\lCodingTask.codingFinished">
<polygon fill="none" stroke="black" points="507,-49 507,-90 703,-90 703,-49 507,-49"/>
<text text-anchor="start" x="515" y="-78" font-family="Helvetica,sans-Serif" font-size="10.00">org.msrg.raccoon.engine.task.sequential.</text>
<text text-anchor="start" x="515" y="-67" font-family="Helvetica,sans-Serif" font-size="10.00">MultiplyInverseMultiplyEqual_Sequential</text>
<text text-anchor="middle" x="605" y="-56" font-family="Helvetica,sans-Serif" font-size="10.00">CodingTask.codingFinished</text>
</a>
</g>
</g>
<!-- Node4&#45;&gt;Node5 -->
<g id="edge4" class="edge"><title>Node4&#45;&gt;Node5</title>
<path fill="none" stroke="midnightblue" d="M441.296,-69.5C462.943,-69.5 485.584,-69.5 506.86,-69.5"/>
<polygon fill="midnightblue" stroke="midnightblue" points="441.095,-66.0001 431.095,-69.5 441.095,-73.0001 441.095,-66.0001"/>
</g>
<!-- Node7 -->
<g id="node7" class="node"><title>Node7</title>
<g id="a_node7"><a xlink:href="../../d3/d36/classorg_1_1msrg_1_1raccoon_1_1engine_1_1task_1_1sequential_1_1Decoding__SequentialCodingTask_a3497f9c294517ca7934dea0ad28f411d.html#a3497f9c294517ca7934dea0ad28f411d" target="_top" xlink:title="org.msrg.raccoon.engine.task.sequential.\lDecoding_SequentialCodingTask.codingFinished">
<polygon fill="none" stroke="black" points="490,-0.5 490,-30.5 720,-30.5 720,-0.5 490,-0.5"/>
<text text-anchor="start" x="498" y="-18.5" font-family="Helvetica,sans-Serif" font-size="10.00">org.msrg.raccoon.engine.task.sequential.</text>
<text text-anchor="middle" x="605" y="-7.5" font-family="Helvetica,sans-Serif" font-size="10.00">Decoding_SequentialCodingTask.codingFinished</text>
</a>
</g>
</g>
<!-- Node6&#45;&gt;Node7 -->
<g id="edge6" class="edge"><title>Node6&#45;&gt;Node7</title>
<path fill="none" stroke="midnightblue" d="M464.664,-15.5C473.102,-15.5 481.563,-15.5 489.915,-15.5"/>
<polygon fill="midnightblue" stroke="midnightblue" points="464.392,-12.0001 454.392,-15.5 464.392,-19.0001 464.392,-12.0001"/>
</g>
</g>
</svg>
