<?xml version="1.0" encoding="UTF-8" standalone="no"?>
<!DOCTYPE svg PUBLIC "-//W3C//DTD SVG 1.1//EN"
 "http://www.w3.org/Graphics/SVG/1.1/DTD/svg11.dtd">
<!-- Generated by graphviz version 2.38.0 (20140413.2041)
 -->
<!-- Title: org.msrg.raccoon.matrix.finitefields.ByteMatrixTest.runTestM2timesInvIsM Pages: 1 -->
<!--zoomable 480 -->
<svg id="main" version="1.1" xmlns="http://www.w3.org/2000/svg" xmlns:xlink="http://www.w3.org/1999/xlink" xml:space="preserve" onload="init(evt)">
<style type="text/css"><![CDATA[
.edge:hover path { stroke: red; }
.edge:hover polygon { stroke: red; fill: red; }
]]></style>
<script type="text/javascript"><![CDATA[
var edges = document.getElementsByTagName('g');
if (edges && edges.length) {
  for (var i=0;i<edges.length;i++) {
    if (edges[i].id.substr(0,4)=='edge') {
      edges[i].setAttribute('class','edge');
    }
  }
}
]]></script>
        <defs>
                <circle id="rim" cx="0" cy="0" r="7"/>
                <circle id="rim2" cx="0" cy="0" r="3.5"/>
                <g id="zoomPlus">
                        <use xlink:href="#rim" fill="#404040">
                                <set attributeName="fill" to="#808080" begin="zoomplus.mouseover" end="zoomplus.mouseout"/>
                        </use>
                        <path d="M-4,0h8M0,-4v8" fill="none" stroke="white" stroke-width="1.5" pointer-events="none"/>
                </g>
                <g id="zoomMin">
                        <use xlink:href="#rim" fill="#404040">
                                <set attributeName="fill" to="#808080" begin="zoomminus.mouseover" end="zoomminus.mouseout"/>
                        </use>
                        <path d="M-4,0h8" fill="none" stroke="white" stroke-width="1.5" pointer-events="none"/>
                </g>
                <g id="dirArrow">
                        <path fill="none" stroke="white" stroke-width="1.5" d="M0,-3.0v7 M-2.5,-0.5L0,-3.0L2.5,-0.5"/>
                </g>
               <g id="resetDef">
                       <use xlink:href="#rim2" fill="#404040">
                               <set attributeName="fill" to="#808080" begin="reset.mouseover" end="reset.mouseout"/>
                       </use>
               </g>
        </defs>

<script type="text/javascript">
var viewWidth = 771;
var viewHeight = 480;
var sectionId = 'dynsection-0';
</script>
<script xlink:href="../../svgpan.js"/>
<svg id="graph" class="graph">
<g id="viewport">
<title>org.msrg.raccoon.matrix.finitefields.ByteMatrixTest.runTestM2timesInvIsM</title>
<!-- Node0 -->
<g id="node1" class="node"><title>Node0</title>
<polygon fill="#bfbfbf" stroke="black" points="0,-220.5 0,-250.5 187,-250.5 187,-220.5 0,-220.5"/>
<text text-anchor="start" x="8" y="-238.5" font-family="Helvetica,sans-Serif" font-size="10.00">org.msrg.raccoon.matrix.finitefields.</text>
<text text-anchor="middle" x="93.5" y="-227.5" font-family="Helvetica,sans-Serif" font-size="10.00">ByteMatrixTest.runTestM2timesInvIsM</text>
</g>
<!-- Node1 -->
<g id="node2" class="node"><title>Node1</title>
<g id="a_node2"><a xlink:href="../../db/d3f/classorg_1_1msrg_1_1raccoon_1_1matrix_1_1TypedMatrix_afa0d35cfc40f6148dd52f05636ef31c9.html#afa0d35cfc40f6148dd52f05636ef31c9" target="_top" xlink:title="org.msrg.raccoon.matrix.\lTypedMatrix.equals">
<polygon fill="none" stroke="black" points="247,-441.5 247,-471.5 372,-471.5 372,-441.5 247,-441.5"/>
<text text-anchor="start" x="255" y="-459.5" font-family="Helvetica,sans-Serif" font-size="10.00">org.msrg.raccoon.matrix.</text>
<text text-anchor="middle" x="309.5" y="-448.5" font-family="Helvetica,sans-Serif" font-size="10.00">TypedMatrix.equals</text>
</a>
</g>
</g>
<!-- Node0&#45;&gt;Node1 -->
<g id="edge1" class="edge"><title>Node0&#45;&gt;Node1</title>
<path fill="none" stroke="midnightblue" d="M100.045,-250.753C114.326,-287.847 156.014,-383.326 223,-432.5 227.428,-435.75 232.279,-438.561 237.35,-440.991"/>
<polygon fill="midnightblue" stroke="midnightblue" points="236.099,-444.262 246.671,-444.967 238.846,-437.824 236.099,-444.262"/>
</g>
<!-- Node2 -->
<g id="node3" class="node"><title>Node2</title>
<g id="a_node3"><a xlink:href="../../db/d3f/classorg_1_1msrg_1_1raccoon_1_1matrix_1_1TypedMatrix_af7ccc065eb74dab0bd851c7d59f2eb2a.html#af7ccc065eb74dab0bd851c7d59f2eb2a" target="_top" xlink:title="org.msrg.raccoon.matrix.\lTypedMatrix.getColumnSize">
<polygon fill="none" stroke="black" points="239.5,-392.5 239.5,-422.5 379.5,-422.5 379.5,-392.5 239.5,-392.5"/>
<text text-anchor="start" x="247.5" y="-410.5" font-family="Helvetica,sans-Serif" font-size="10.00">org.msrg.raccoon.matrix.</text>
<text text-anchor="middle" x="309.5" y="-399.5" font-family="Helvetica,sans-Serif" font-size="10.00">TypedMatrix.getColumnSize</text>
</a>
</g>
</g>
<!-- Node0&#45;&gt;Node2 -->
<g id="edge2" class="edge"><title>Node0&#45;&gt;Node2</title>
<path fill="none" stroke="midnightblue" d="M103.363,-250.656C121.73,-280.704 166.948,-347.988 223,-383.5 225.649,-385.179 228.418,-386.742 231.269,-388.198"/>
<polygon fill="midnightblue" stroke="midnightblue" points="230.068,-391.497 240.616,-392.491 232.99,-385.136 230.068,-391.497"/>
</g>
<!-- Node3 -->
<g id="node4" class="node"><title>Node3</title>
<g id="a_node4"><a xlink:href="../../db/d3f/classorg_1_1msrg_1_1raccoon_1_1matrix_1_1TypedMatrix_ae1d2f2c49745535f8586ada075ba449e.html#ae1d2f2c49745535f8586ada075ba449e" target="_top" xlink:title="org.msrg.raccoon.matrix.\lTypedMatrix.getInverseRowZero">
<polygon fill="none" stroke="black" points="230,-343.5 230,-373.5 389,-373.5 389,-343.5 230,-343.5"/>
<text text-anchor="start" x="238" y="-361.5" font-family="Helvetica,sans-Serif" font-size="10.00">org.msrg.raccoon.matrix.</text>
<text text-anchor="middle" x="309.5" y="-350.5" font-family="Helvetica,sans-Serif" font-size="10.00">TypedMatrix.getInverseRowZero</text>
</a>
</g>
</g>
<!-- Node0&#45;&gt;Node3 -->
<g id="edge3" class="edge"><title>Node0&#45;&gt;Node3</title>
<path fill="none" stroke="midnightblue" d="M110.154,-250.846C133.071,-272.498 177.944,-311.893 223,-334.5 226.798,-336.406 230.77,-338.179 234.833,-339.827"/>
<polygon fill="midnightblue" stroke="midnightblue" points="233.851,-343.197 244.442,-343.447 236.318,-336.646 233.851,-343.197"/>
</g>
<!-- Node4 -->
<g id="node5" class="node"><title>Node4</title>
<g id="a_node5"><a xlink:href="../../db/d3f/classorg_1_1msrg_1_1raccoon_1_1matrix_1_1TypedMatrix_aba5684317273db23da9933dd1acdc94c.html#aba5684317273db23da9933dd1acdc94c" target="_top" xlink:title="org.msrg.raccoon.matrix.\lTypedMatrix.getRowSize">
<polygon fill="none" stroke="black" points="246,-294.5 246,-324.5 373,-324.5 373,-294.5 246,-294.5"/>
<text text-anchor="start" x="254" y="-312.5" font-family="Helvetica,sans-Serif" font-size="10.00">org.msrg.raccoon.matrix.</text>
<text text-anchor="middle" x="309.5" y="-301.5" font-family="Helvetica,sans-Serif" font-size="10.00">TypedMatrix.getRowSize</text>
</a>
</g>
</g>
<!-- Node0&#45;&gt;Node4 -->
<g id="edge4" class="edge"><title>Node0&#45;&gt;Node4</title>
<path fill="none" stroke="midnightblue" d="M130.436,-250.567C156.015,-261.024 191.326,-274.92 223,-285.5 229.046,-287.519 235.369,-289.513 241.722,-291.435"/>
<polygon fill="midnightblue" stroke="midnightblue" points="241.112,-294.905 251.694,-294.392 243.102,-288.194 241.112,-294.905"/>
</g>
<!-- Node5 -->
<g id="node6" class="node"><title>Node5</title>
<g id="a_node6"><a xlink:href="../../db/d3f/classorg_1_1msrg_1_1raccoon_1_1matrix_1_1TypedMatrix_a62f3b28a72c0c130fa783e1129694d4e.html#a62f3b28a72c0c130fa783e1129694d4e" target="_top" xlink:title="org.msrg.raccoon.matrix.\lTypedMatrix.inverseMatrix">
<polygon fill="none" stroke="black" points="243.5,-245.5 243.5,-275.5 375.5,-275.5 375.5,-245.5 243.5,-245.5"/>
<text text-anchor="start" x="251.5" y="-263.5" font-family="Helvetica,sans-Serif" font-size="10.00">org.msrg.raccoon.matrix.</text>
<text text-anchor="middle" x="309.5" y="-252.5" font-family="Helvetica,sans-Serif" font-size="10.00">TypedMatrix.inverseMatrix</text>
</a>
</g>
</g>
<!-- Node0&#45;&gt;Node5 -->
<g id="edge5" class="edge"><title>Node0&#45;&gt;Node5</title>
<path fill="none" stroke="midnightblue" d="M187.119,-246.32C202.538,-248.121 218.363,-249.97 233.281,-251.713"/>
<polygon fill="midnightblue" stroke="midnightblue" points="233.11,-255.216 243.449,-252.901 233.922,-248.264 233.11,-255.216"/>
</g>
<!-- Node6 -->
<g id="node7" class="node"><title>Node6</title>
<g id="a_node7"><a xlink:href="../../dd/d25/enumorg_1_1msrg_1_1raccoon_1_1matrix_1_1MatrixFactory_ade989a224e218967ed11c1ca683d6cad.html#ade989a224e218967ed11c1ca683d6cad" target="_top" xlink:title="org.msrg.raccoon.matrix.\lMatrixFactory.multiply">
<polygon fill="none" stroke="black" points="247,-196.5 247,-226.5 372,-226.5 372,-196.5 247,-196.5"/>
<text text-anchor="start" x="255" y="-214.5" font-family="Helvetica,sans-Serif" font-size="10.00">org.msrg.raccoon.matrix.</text>
<text text-anchor="middle" x="309.5" y="-203.5" font-family="Helvetica,sans-Serif" font-size="10.00">MatrixFactory.multiply</text>
</a>
</g>
</g>
<!-- Node0&#45;&gt;Node6 -->
<g id="edge6" class="edge"><title>Node0&#45;&gt;Node6</title>
<path fill="none" stroke="midnightblue" d="M187.119,-225.113C203.706,-223.253 220.762,-221.34 236.654,-219.557"/>
<polygon fill="midnightblue" stroke="midnightblue" points="237.365,-223 246.913,-218.407 236.585,-216.043 237.365,-223"/>
</g>
<!-- Node8 -->
<g id="node9" class="node"><title>Node8</title>
<g id="a_node9"><a xlink:href="../../dd/d36/classorg_1_1msrg_1_1raccoon_1_1matrix_1_1finitefields_1_1ByteMatrix_a5a3c18a9905c1d33c6a992930e2b6a78.html#a5a3c18a9905c1d33c6a992930e2b6a78" target="_top" xlink:title="org.msrg.raccoon.matrix.finitefields.\lByteMatrix.multiply">
<polygon fill="none" stroke="black" points="223,-147.5 223,-177.5 396,-177.5 396,-147.5 223,-147.5"/>
<text text-anchor="start" x="231" y="-165.5" font-family="Helvetica,sans-Serif" font-size="10.00">org.msrg.raccoon.matrix.finitefields.</text>
<text text-anchor="middle" x="309.5" y="-154.5" font-family="Helvetica,sans-Serif" font-size="10.00">ByteMatrix.multiply</text>
</a>
</g>
</g>
<!-- Node0&#45;&gt;Node8 -->
<g id="edge8" class="edge"><title>Node0&#45;&gt;Node8</title>
<path fill="none" stroke="midnightblue" d="M132.475,-220.483C157.921,-210.626 192.266,-197.718 223,-187.5 230.143,-185.125 237.66,-182.75 245.151,-180.46"/>
<polygon fill="midnightblue" stroke="midnightblue" points="246.387,-183.743 254.951,-177.506 244.366,-177.041 246.387,-183.743"/>
</g>
<!-- Node14 -->
<g id="node15" class="node"><title>Node14</title>
<g id="a_node15"><a xlink:href="../../db/d3f/classorg_1_1msrg_1_1raccoon_1_1matrix_1_1TypedMatrix_ad1e32e3ad9d793648cb9c17cde3302a6.html#ad1e32e3ad9d793648cb9c17cde3302a6" target="_top" xlink:title="org.msrg.raccoon.matrix.\lTypedMatrix.toArray">
<polygon fill="none" stroke="black" points="247,-98.5 247,-128.5 372,-128.5 372,-98.5 247,-98.5"/>
<text text-anchor="start" x="255" y="-116.5" font-family="Helvetica,sans-Serif" font-size="10.00">org.msrg.raccoon.matrix.</text>
<text text-anchor="middle" x="309.5" y="-105.5" font-family="Helvetica,sans-Serif" font-size="10.00">TypedMatrix.toArray</text>
</a>
</g>
</g>
<!-- Node0&#45;&gt;Node14 -->
<g id="edge14" class="edge"><title>Node0&#45;&gt;Node14</title>
<path fill="none" stroke="midnightblue" d="M110.636,-220.193C133.783,-199.006 178.541,-160.835 223,-138.5 227.547,-136.216 232.339,-134.105 237.235,-132.162"/>
<polygon fill="midnightblue" stroke="midnightblue" points="238.591,-135.392 246.747,-128.63 236.154,-128.83 238.591,-135.392"/>
</g>
<!-- Node15 -->
<g id="node16" class="node"><title>Node15</title>
<g id="a_node16"><a xlink:href="../../dd/d36/classorg_1_1msrg_1_1raccoon_1_1matrix_1_1finitefields_1_1ByteMatrix_ae680bc03b706fb0ed7304506d2eb42fc.html#ae680bc03b706fb0ed7304506d2eb42fc" target="_top" xlink:title="org.msrg.raccoon.matrix.finitefields.\lByteMatrix.unwrap">
<polygon fill="none" stroke="black" points="223,-49.5 223,-79.5 396,-79.5 396,-49.5 223,-49.5"/>
<text text-anchor="start" x="231" y="-67.5" font-family="Helvetica,sans-Serif" font-size="10.00">org.msrg.raccoon.matrix.finitefields.</text>
<text text-anchor="middle" x="309.5" y="-56.5" font-family="Helvetica,sans-Serif" font-size="10.00">ByteMatrix.unwrap</text>
</a>
</g>
</g>
<!-- Node0&#45;&gt;Node15 -->
<g id="edge15" class="edge"><title>Node0&#45;&gt;Node15</title>
<path fill="none" stroke="midnightblue" d="M103.736,-220.146C122.436,-190.381 167.736,-124.671 223,-89.5 226.188,-87.4709 229.547,-85.6013 233.015,-83.8794"/>
<polygon fill="midnightblue" stroke="midnightblue" points="234.72,-86.9503 242.406,-79.6578 231.85,-80.5658 234.72,-86.9503"/>
</g>
<!-- Node16 -->
<g id="node17" class="node"><title>Node16</title>
<g id="a_node17"><a xlink:href="../../dd/d36/classorg_1_1msrg_1_1raccoon_1_1matrix_1_1finitefields_1_1ByteMatrix_aa97eedbd30bae79ecb654ad7c8b584ef.html#aa97eedbd30bae79ecb654ad7c8b584ef" target="_top" xlink:title="org.msrg.raccoon.matrix.finitefields.\lByteMatrix.wrap">
<polygon fill="none" stroke="black" points="223,-0.5 223,-30.5 396,-30.5 396,-0.5 223,-0.5"/>
<text text-anchor="start" x="231" y="-18.5" font-family="Helvetica,sans-Serif" font-size="10.00">org.msrg.raccoon.matrix.finitefields.</text>
<text text-anchor="middle" x="309.5" y="-7.5" font-family="Helvetica,sans-Serif" font-size="10.00">ByteMatrix.wrap</text>
</a>
</g>
</g>
<!-- Node0&#45;&gt;Node16 -->
<g id="edge16" class="edge"><title>Node0&#45;&gt;Node16</title>
<path fill="none" stroke="midnightblue" d="M100.068,-220.324C114.4,-183.418 156.195,-88.4208 223,-39.5 225.068,-37.9856 227.228,-36.5668 229.459,-35.2373"/>
<polygon fill="midnightblue" stroke="midnightblue" points="231.159,-38.2978 238.375,-30.5404 227.897,-32.1046 231.159,-38.2978"/>
</g>
<!-- Node7 -->
<g id="node8" class="node"><title>Node7</title>
<g id="a_node8"><a xlink:href="../../db/d3f/classorg_1_1msrg_1_1raccoon_1_1matrix_1_1TypedMatrix_acd4cb24423a09596877fe45fab025fb2.html#acd4cb24423a09596877fe45fab025fb2" target="_top" xlink:title="org.msrg.raccoon.matrix.\lTypedMatrix.multiply">
<polygon fill="none" stroke="black" points="444,-245.5 444,-275.5 569,-275.5 569,-245.5 444,-245.5"/>
<text text-anchor="start" x="452" y="-263.5" font-family="Helvetica,sans-Serif" font-size="10.00">org.msrg.raccoon.matrix.</text>
<text text-anchor="middle" x="506.5" y="-252.5" font-family="Helvetica,sans-Serif" font-size="10.00">TypedMatrix.multiply</text>
</a>
</g>
</g>
<!-- Node6&#45;&gt;Node7 -->
<g id="edge7" class="edge"><title>Node6&#45;&gt;Node7</title>
<path fill="none" stroke="midnightblue" d="M370.332,-226.535C391.108,-231.755 414.581,-237.654 436.067,-243.053"/>
<polygon fill="midnightblue" stroke="midnightblue" points="435.23,-246.451 445.782,-245.494 436.936,-239.662 435.23,-246.451"/>
</g>
<!-- Node9 -->
<g id="node10" class="node"><title>Node9</title>
<g id="a_node10"><a xlink:href="../../df/da4/classorg_1_1msrg_1_1raccoon_1_1matrix_1_1bulk_1_1BulkMatrix_a1ea2bca79aa590fdcfa5f472acc479cc.html#a1ea2bca79aa590fdcfa5f472acc479cc" target="_top" xlink:title="org.msrg.raccoon.matrix.bulk.\lBulkMatrix.createEmptyMatrix">
<polygon fill="none" stroke="black" points="432,-196.5 432,-226.5 581,-226.5 581,-196.5 432,-196.5"/>
<text text-anchor="start" x="440" y="-214.5" font-family="Helvetica,sans-Serif" font-size="10.00">org.msrg.raccoon.matrix.bulk.</text>
<text text-anchor="middle" x="506.5" y="-203.5" font-family="Helvetica,sans-Serif" font-size="10.00">BulkMatrix.createEmptyMatrix</text>
</a>
</g>
</g>
<!-- Node8&#45;&gt;Node9 -->
<g id="edge9" class="edge"><title>Node8&#45;&gt;Node9</title>
<path fill="none" stroke="midnightblue" d="M370.332,-177.535C391.108,-182.755 414.581,-188.654 436.067,-194.053"/>
<polygon fill="midnightblue" stroke="midnightblue" points="435.23,-197.451 445.782,-196.494 436.936,-190.662 435.23,-197.451"/>
</g>
<!-- Node11 -->
<g id="node12" class="node"><title>Node11</title>
<g id="a_node12"><a xlink:href="../../df/da4/classorg_1_1msrg_1_1raccoon_1_1matrix_1_1bulk_1_1BulkMatrix_a804160abadbedfe02caa0c441731a519.html#a804160abadbedfe02caa0c441731a519" target="_top" xlink:title="org.msrg.raccoon.matrix.bulk.\lBulkMatrix.getContent">
<polygon fill="none" stroke="black" points="433.5,-147.5 433.5,-177.5 579.5,-177.5 579.5,-147.5 433.5,-147.5"/>
<text text-anchor="start" x="441.5" y="-165.5" font-family="Helvetica,sans-Serif" font-size="10.00">org.msrg.raccoon.matrix.bulk.</text>
<text text-anchor="middle" x="506.5" y="-154.5" font-family="Helvetica,sans-Serif" font-size="10.00">BulkMatrix.getContent</text>
</a>
</g>
</g>
<!-- Node8&#45;&gt;Node11 -->
<g id="edge11" class="edge"><title>Node8&#45;&gt;Node11</title>
<path fill="none" stroke="midnightblue" d="M396.03,-162.5C405.101,-162.5 414.312,-162.5 423.343,-162.5"/>
<polygon fill="midnightblue" stroke="midnightblue" points="423.445,-166 433.445,-162.5 423.445,-159 423.445,-166"/>
</g>
<!-- Node12 -->
<g id="node13" class="node"><title>Node12</title>
<g id="a_node13"><a xlink:href="../../d6/d6d/classorg_1_1msrg_1_1raccoon_1_1matrix_1_1bulk_1_1SliceMatrix_a4c85807433398a037c9d6885569fba0e.html#a4c85807433398a037c9d6885569fba0e" target="_top" xlink:title="org.msrg.raccoon.matrix.bulk.\lSliceMatrix.loadNoCopy">
<polygon fill="none" stroke="black" points="433.5,-98.5 433.5,-128.5 579.5,-128.5 579.5,-98.5 433.5,-98.5"/>
<text text-anchor="start" x="441.5" y="-116.5" font-family="Helvetica,sans-Serif" font-size="10.00">org.msrg.raccoon.matrix.bulk.</text>
<text text-anchor="middle" x="506.5" y="-105.5" font-family="Helvetica,sans-Serif" font-size="10.00">SliceMatrix.loadNoCopy</text>
</a>
</g>
</g>
<!-- Node8&#45;&gt;Node12 -->
<g id="edge12" class="edge"><title>Node8&#45;&gt;Node12</title>
<path fill="none" stroke="midnightblue" d="M370.332,-147.465C391.108,-142.245 414.581,-136.346 436.067,-130.947"/>
<polygon fill="midnightblue" stroke="midnightblue" points="436.936,-134.338 445.782,-128.506 435.23,-127.549 436.936,-134.338"/>
</g>
<!-- Node13 -->
<g id="node14" class="node"><title>Node13</title>
<g id="a_node14"><a xlink:href="../../df/da4/classorg_1_1msrg_1_1raccoon_1_1matrix_1_1bulk_1_1BulkMatrix_a7f382b71b1e7fb03fa68f22724f75f88.html#a7f382b71b1e7fb03fa68f22724f75f88" target="_top" xlink:title="org.msrg.raccoon.matrix.bulk.\lBulkMatrix.slice">
<polygon fill="none" stroke="black" points="433.5,-49.5 433.5,-79.5 579.5,-79.5 579.5,-49.5 433.5,-49.5"/>
<text text-anchor="start" x="441.5" y="-67.5" font-family="Helvetica,sans-Serif" font-size="10.00">org.msrg.raccoon.matrix.bulk.</text>
<text text-anchor="middle" x="506.5" y="-56.5" font-family="Helvetica,sans-Serif" font-size="10.00">BulkMatrix.slice</text>
</a>
</g>
</g>
<!-- Node8&#45;&gt;Node13 -->
<g id="edge13" class="edge"><title>Node8&#45;&gt;Node13</title>
<path fill="none" stroke="midnightblue" d="M379.994,-147.377C385.634,-144.858 391.056,-141.922 396,-138.5 418.221,-123.121 410.204,-105.476 432,-89.5 434.527,-87.6474 437.202,-85.9252 439.976,-84.3248"/>
<polygon fill="midnightblue" stroke="midnightblue" points="441.829,-87.3078 449.117,-79.6183 438.624,-81.0843 441.829,-87.3078"/>
</g>
<!-- Node10 -->
<g id="node11" class="node"><title>Node10</title>
<g id="a_node11"><a xlink:href="../../df/da4/classorg_1_1msrg_1_1raccoon_1_1matrix_1_1bulk_1_1BulkMatrix_ae52685687565b5725a204d70237d300a.html#ae52685687565b5725a204d70237d300a" target="_top" xlink:title="org.msrg.raccoon.matrix.bulk.\lBulkMatrix.BulkMatrix">
<polygon fill="none" stroke="black" points="617,-196.5 617,-226.5 763,-226.5 763,-196.5 617,-196.5"/>
<text text-anchor="start" x="625" y="-214.5" font-family="Helvetica,sans-Serif" font-size="10.00">org.msrg.raccoon.matrix.bulk.</text>
<text text-anchor="middle" x="690" y="-203.5" font-family="Helvetica,sans-Serif" font-size="10.00">BulkMatrix.BulkMatrix</text>
</a>
</g>
</g>
<!-- Node9&#45;&gt;Node10 -->
<g id="edge10" class="edge"><title>Node9&#45;&gt;Node10</title>
<path fill="none" stroke="midnightblue" d="M581.061,-211.5C589.537,-211.5 598.22,-211.5 606.8,-211.5"/>
<polygon fill="midnightblue" stroke="midnightblue" points="606.806,-215 616.806,-211.5 606.806,-208 606.806,-215"/>
</g>
</g>
</svg>
        <g id="navigator" transform="translate(0 0)" fill="#404254">
                <rect fill="#f2f5e9" fill-opacity="0.5" stroke="#606060" stroke-width=".5" x="0" y="0" width="60" height="60"/>
                <use id="zoomplus" xlink:href="#zoomPlus" x="17" y="9" onmousedown="handleZoom(evt,'in')"/>
                <use id="zoomminus" xlink:href="#zoomMin" x="42" y="9" onmousedown="handleZoom(evt,'out')"/>
                <use id="reset" xlink:href="#resetDef" x="30" y="36" onmousedown="handleReset()"/>
                <g id="arrowUp" xlink:href="#dirArrow" transform="translate(30 24)" onmousedown="handlePan(0,-1)">
                  <use xlink:href="#rim" fill="#404040">
                        <set attributeName="fill" to="#808080" begin="arrowUp.mouseover" end="arrowUp.mouseout"/>
                  </use>
                  <path fill="none" stroke="white" stroke-width="1.5" d="M0,-3.0v7 M-2.5,-0.5L0,-3.0L2.5,-0.5"/>
                </g>
                <g id="arrowRight" xlink:href="#dirArrow" transform="rotate(90) translate(36 -43)" onmousedown="handlePan(1,0)">
                  <use xlink:href="#rim" fill="#404040">
                        <set attributeName="fill" to="#808080" begin="arrowRight.mouseover" end="arrowRight.mouseout"/>
                  </use>
                  <path fill="none" stroke="white" stroke-width="1.5" d="M0,-3.0v7 M-2.5,-0.5L0,-3.0L2.5,-0.5"/>
                </g>
                <g id="arrowDown" xlink:href="#dirArrow" transform="rotate(180) translate(-30 -48)" onmousedown="handlePan(0,1)">
                  <use xlink:href="#rim" fill="#404040">
                        <set attributeName="fill" to="#808080" begin="arrowDown.mouseover" end="arrowDown.mouseout"/>
                  </use>
                  <path fill="none" stroke="white" stroke-width="1.5" d="M0,-3.0v7 M-2.5,-0.5L0,-3.0L2.5,-0.5"/>
                </g>
                <g id="arrowLeft" xlink:href="#dirArrow" transform="rotate(270) translate(-36 17)" onmousedown="handlePan(-1,0)">
                  <use xlink:href="#rim" fill="#404040">
                        <set attributeName="fill" to="#808080" begin="arrowLeft.mouseover" end="arrowLeft.mouseout"/>
                  </use>
                  <path fill="none" stroke="white" stroke-width="1.5" d="M0,-3.0v7 M-2.5,-0.5L0,-3.0L2.5,-0.5"/>
                </g>
        </g>
        <svg viewBox="0 0 15 15" width="100%" height="30px" preserveAspectRatio="xMaxYMin meet">
         <g id="arrow_out" transform="scale(0.3 0.3)">
          <a xlink:href="classorg_1_1msrg_1_1raccoon_1_1matrix_1_1finitefields_1_1ByteMatrixTest_ae32ff4ec2714b4cecdb5f85253619a41_ae32ff4ec2714b4cecdb5f85253619a41_cgraph_org.svg" target="_base">
           <rect id="button" ry="5" rx="5" y="6" x="6" height="38" width="38"
                fill="#f2f5e9" fill-opacity="0.5" stroke="#606060" stroke-width="1.0"/>
           <path id="arrow"
             d="M 11.500037,31.436501 C 11.940474,20.09759 22.043105,11.32322 32.158766,21.979434 L 37.068811,17.246167 C 37.068811,17.246167 37.088388,32 37.088388,32 L 22.160133,31.978069 C 22.160133,31.978069 26.997745,27.140456 26.997745,27.140456 C 18.528582,18.264221 13.291696,25.230495 11.500037,31.436501 z"
             style="fill:#404040;"/>
          </a>
         </g>
        </svg>
</svg>
