<?xml version="1.0" encoding="UTF-8" standalone="no"?>
<!DOCTYPE svg PUBLIC "-//W3C//DTD SVG 1.1//EN"
 "http://www.w3.org/Graphics/SVG/1.1/DTD/svg11.dtd">
<!-- Generated by graphviz version 2.38.0 (20140413.2041)
 -->
<!-- Title: org.msrg.raccoon.matrix.finitefields.ByteMatrixTest.testM2timesInvIsM_HasNoInvserse Pages: 1 -->
<!--zoomable 529 -->
<svg id="main" version="1.1" xmlns="http://www.w3.org/2000/svg" xmlns:xlink="http://www.w3.org/1999/xlink" xml:space="preserve" onload="init(evt)">
<style type="text/css"><![CDATA[
.edge:hover path { stroke: red; }
.edge:hover polygon { stroke: red; fill: red; }
]]></style>
<script type="text/javascript"><![CDATA[
var edges = document.getElementsByTagName('g');
if (edges && edges.length) {
  for (var i=0;i<edges.length;i++) {
    if (edges[i].id.substr(0,4)=='edge') {
      edges[i].setAttribute('class','edge');
    }
  }
}
]]></script>
        <defs>
                <circle id="rim" cx="0" cy="0" r="7"/>
                <circle id="rim2" cx="0" cy="0" r="3.5"/>
                <g id="zoomPlus">
                        <use xlink:href="#rim" fill="#404040">
                                <set attributeName="fill" to="#808080" begin="zoomplus.mouseover" end="zoomplus.mouseout"/>
                        </use>
                        <path d="M-4,0h8M0,-4v8" fill="none" stroke="white" stroke-width="1.5" pointer-events="none"/>
                </g>
                <g id="zoomMin">
                        <use xlink:href="#rim" fill="#404040">
                                <set attributeName="fill" to="#808080" begin="zoomminus.mouseover" end="zoomminus.mouseout"/>
                        </use>
                        <path d="M-4,0h8" fill="none" stroke="white" stroke-width="1.5" pointer-events="none"/>
                </g>
                <g id="dirArrow">
                        <path fill="none" stroke="white" stroke-width="1.5" d="M0,-3.0v7 M-2.5,-0.5L0,-3.0L2.5,-0.5"/>
                </g>
               <g id="resetDef">
                       <use xlink:href="#rim2" fill="#404040">
                               <set attributeName="fill" to="#808080" begin="reset.mouseover" end="reset.mouseout"/>
                       </use>
               </g>
        </defs>

<script type="text/javascript">
var viewWidth = 980;
var viewHeight = 529;
var sectionId = 'dynsection-0';
</script>
<script xlink:href="../../svgpan.js"/>
<svg id="graph" class="graph">
<g id="viewport">
<title>org.msrg.raccoon.matrix.finitefields.ByteMatrixTest.testM2timesInvIsM_HasNoInvserse</title>
<!-- Node1 -->
<g id="node1" class="node"><title>Node1</title>
<polygon fill="#bfbfbf" stroke="black" points="0,-313 0,-354 173,-354 173,-313 0,-313"/>
<text text-anchor="start" x="8" y="-342" font-family="Helvetica,sans-Serif" font-size="10.00">org.msrg.raccoon.matrix.finitefields.</text>
<text text-anchor="start" x="8" y="-331" font-family="Helvetica,sans-Serif" font-size="10.00">ByteMatrixTest.testM2timesInvIsM</text>
<text text-anchor="middle" x="86.5" y="-320" font-family="Helvetica,sans-Serif" font-size="10.00">_HasNoInvserse</text>
</g>
<!-- Node2 -->
<g id="node2" class="node"><title>Node2</title>
<g id="a_node2"><a xlink:href="../../dd/d36/classorg_1_1msrg_1_1raccoon_1_1matrix_1_1finitefields_1_1ByteMatrix_a00c5dd396ae8e6d1af0c5aa19ff8d35b.html#a00c5dd396ae8e6d1af0c5aa19ff8d35b" target="_top" xlink:title="org.msrg.raccoon.matrix.finitefields.\lByteMatrix.createMatrix">
<polygon fill="none" stroke="black" points="216,-392.5 216,-422.5 389,-422.5 389,-392.5 216,-392.5"/>
<text text-anchor="start" x="224" y="-410.5" font-family="Helvetica,sans-Serif" font-size="10.00">org.msrg.raccoon.matrix.finitefields.</text>
<text text-anchor="middle" x="302.5" y="-399.5" font-family="Helvetica,sans-Serif" font-size="10.00">ByteMatrix.createMatrix</text>
</a>
</g>
</g>
<!-- Node1&#45;&gt;Node2 -->
<g id="edge1" class="edge"><title>Node1&#45;&gt;Node2</title>
<path fill="none" stroke="midnightblue" d="M146.827,-354.015C178.637,-365.015 217.514,-378.458 248.333,-389.115"/>
<polygon fill="midnightblue" stroke="midnightblue" points="247.443,-392.511 258.037,-392.471 249.73,-385.895 247.443,-392.511"/>
</g>
<!-- Node4 -->
<g id="node4" class="node"><title>Node4</title>
<g id="a_node4"><a xlink:href="../../d5/d96/classorg_1_1msrg_1_1raccoon_1_1matrix_1_1finitefields_1_1ByteMatrixTest_ae32ff4ec2714b4cecdb5f85253619a41.html#ae32ff4ec2714b4cecdb5f85253619a41" target="_top" xlink:title="org.msrg.raccoon.matrix.finitefields.\lByteMatrixTest.runTestM2timesInvIsM">
<polygon fill="none" stroke="black" points="209,-245.5 209,-275.5 396,-275.5 396,-245.5 209,-245.5"/>
<text text-anchor="start" x="217" y="-263.5" font-family="Helvetica,sans-Serif" font-size="10.00">org.msrg.raccoon.matrix.finitefields.</text>
<text text-anchor="middle" x="302.5" y="-252.5" font-family="Helvetica,sans-Serif" font-size="10.00">ByteMatrixTest.runTestM2timesInvIsM</text>
</a>
</g>
</g>
<!-- Node1&#45;&gt;Node4 -->
<g id="edge3" class="edge"><title>Node1&#45;&gt;Node4</title>
<path fill="none" stroke="midnightblue" d="M147.68,-312.971C179.138,-302.24 217.321,-289.215 247.774,-278.827"/>
<polygon fill="midnightblue" stroke="midnightblue" points="249.037,-282.094 257.372,-275.553 246.777,-275.469 249.037,-282.094"/>
</g>
<!-- Node3 -->
<g id="node3" class="node"><title>Node3</title>
<g id="a_node3"><a xlink:href="../../dd/d36/classorg_1_1msrg_1_1raccoon_1_1matrix_1_1finitefields_1_1ByteMatrix_a515c451c10e6b9529825b809f477c655.html#a515c451c10e6b9529825b809f477c655" target="_top" xlink:title="org.msrg.raccoon.matrix.finitefields.\lByteMatrix.ByteMatrix">
<polygon fill="none" stroke="black" points="432,-490.5 432,-520.5 605,-520.5 605,-490.5 432,-490.5"/>
<text text-anchor="start" x="440" y="-508.5" font-family="Helvetica,sans-Serif" font-size="10.00">org.msrg.raccoon.matrix.finitefields.</text>
<text text-anchor="middle" x="518.5" y="-497.5" font-family="Helvetica,sans-Serif" font-size="10.00">ByteMatrix.ByteMatrix</text>
</a>
</g>
</g>
<!-- Node2&#45;&gt;Node3 -->
<g id="edge2" class="edge"><title>Node2&#45;&gt;Node3</title>
<path fill="none" stroke="midnightblue" d="M325.825,-422.662C350.781,-439.053 392.844,-465.034 432,-481.5 436.763,-483.503 441.745,-485.393 446.806,-487.165"/>
<polygon fill="midnightblue" stroke="midnightblue" points="446.006,-490.588 456.6,-490.427 448.218,-483.946 446.006,-490.588"/>
</g>
<!-- Node5 -->
<g id="node5" class="node"><title>Node5</title>
<g id="a_node5"><a xlink:href="../../db/d3f/classorg_1_1msrg_1_1raccoon_1_1matrix_1_1TypedMatrix_afa0d35cfc40f6148dd52f05636ef31c9.html#afa0d35cfc40f6148dd52f05636ef31c9" target="_top" xlink:title="org.msrg.raccoon.matrix.\lTypedMatrix.equals">
<polygon fill="none" stroke="black" points="456,-441.5 456,-471.5 581,-471.5 581,-441.5 456,-441.5"/>
<text text-anchor="start" x="464" y="-459.5" font-family="Helvetica,sans-Serif" font-size="10.00">org.msrg.raccoon.matrix.</text>
<text text-anchor="middle" x="518.5" y="-448.5" font-family="Helvetica,sans-Serif" font-size="10.00">TypedMatrix.equals</text>
</a>
</g>
</g>
<!-- Node4&#45;&gt;Node5 -->
<g id="edge4" class="edge"><title>Node4&#45;&gt;Node5</title>
<path fill="none" stroke="midnightblue" d="M314.947,-275.608C332.476,-298.769 366.99,-344.473 396,-383.5 412.121,-405.188 409.779,-417.121 432,-432.5 436.516,-435.626 441.431,-438.346 446.547,-440.714"/>
<polygon fill="midnightblue" stroke="midnightblue" points="445.35,-444.007 455.928,-444.606 448.032,-437.541 445.35,-444.007"/>
</g>
<!-- Node6 -->
<g id="node6" class="node"><title>Node6</title>
<g id="a_node6"><a xlink:href="../../db/d3f/classorg_1_1msrg_1_1raccoon_1_1matrix_1_1TypedMatrix_af7ccc065eb74dab0bd851c7d59f2eb2a.html#af7ccc065eb74dab0bd851c7d59f2eb2a" target="_top" xlink:title="org.msrg.raccoon.matrix.\lTypedMatrix.getColumnSize">
<polygon fill="none" stroke="black" points="448.5,-392.5 448.5,-422.5 588.5,-422.5 588.5,-392.5 448.5,-392.5"/>
<text text-anchor="start" x="456.5" y="-410.5" font-family="Helvetica,sans-Serif" font-size="10.00">org.msrg.raccoon.matrix.</text>
<text text-anchor="middle" x="518.5" y="-399.5" font-family="Helvetica,sans-Serif" font-size="10.00">TypedMatrix.getColumnSize</text>
</a>
</g>
</g>
<!-- Node4&#45;&gt;Node6 -->
<g id="edge5" class="edge"><title>Node4&#45;&gt;Node6</title>
<path fill="none" stroke="midnightblue" d="M315.21,-275.834C335.911,-301.877 381.576,-354.723 432,-383.5 435.201,-385.327 438.55,-387.022 441.991,-388.594"/>
<polygon fill="midnightblue" stroke="midnightblue" points="440.701,-391.848 451.277,-392.472 443.399,-385.388 440.701,-391.848"/>
</g>
<!-- Node7 -->
<g id="node7" class="node"><title>Node7</title>
<g id="a_node7"><a xlink:href="../../db/d3f/classorg_1_1msrg_1_1raccoon_1_1matrix_1_1TypedMatrix_ae1d2f2c49745535f8586ada075ba449e.html#ae1d2f2c49745535f8586ada075ba449e" target="_top" xlink:title="org.msrg.raccoon.matrix.\lTypedMatrix.getInverseRowZero">
<polygon fill="none" stroke="black" points="439,-343.5 439,-373.5 598,-373.5 598,-343.5 439,-343.5"/>
<text text-anchor="start" x="447" y="-361.5" font-family="Helvetica,sans-Serif" font-size="10.00">org.msrg.raccoon.matrix.</text>
<text text-anchor="middle" x="518.5" y="-350.5" font-family="Helvetica,sans-Serif" font-size="10.00">TypedMatrix.getInverseRowZero</text>
</a>
</g>
</g>
<!-- Node4&#45;&gt;Node7 -->
<g id="edge6" class="edge"><title>Node4&#45;&gt;Node7</title>
<path fill="none" stroke="midnightblue" d="M325.825,-275.662C350.781,-292.053 392.844,-318.034 432,-334.5 436.763,-336.503 441.745,-338.393 446.806,-340.165"/>
<polygon fill="midnightblue" stroke="midnightblue" points="446.006,-343.588 456.6,-343.427 448.218,-336.946 446.006,-343.588"/>
</g>
<!-- Node8 -->
<g id="node8" class="node"><title>Node8</title>
<g id="a_node8"><a xlink:href="../../db/d3f/classorg_1_1msrg_1_1raccoon_1_1matrix_1_1TypedMatrix_aba5684317273db23da9933dd1acdc94c.html#aba5684317273db23da9933dd1acdc94c" target="_top" xlink:title="org.msrg.raccoon.matrix.\lTypedMatrix.getRowSize">
<polygon fill="none" stroke="black" points="455,-294.5 455,-324.5 582,-324.5 582,-294.5 455,-294.5"/>
<text text-anchor="start" x="463" y="-312.5" font-family="Helvetica,sans-Serif" font-size="10.00">org.msrg.raccoon.matrix.</text>
<text text-anchor="middle" x="518.5" y="-301.5" font-family="Helvetica,sans-Serif" font-size="10.00">TypedMatrix.getRowSize</text>
</a>
</g>
</g>
<!-- Node4&#45;&gt;Node8 -->
<g id="edge7" class="edge"><title>Node4&#45;&gt;Node8</title>
<path fill="none" stroke="midnightblue" d="M369.161,-275.535C393.134,-281.024 420.378,-287.262 444.919,-292.881"/>
<polygon fill="midnightblue" stroke="midnightblue" points="444.364,-296.344 454.893,-295.165 445.927,-289.521 444.364,-296.344"/>
</g>
<!-- Node9 -->
<g id="node9" class="node"><title>Node9</title>
<g id="a_node9"><a xlink:href="../../db/d3f/classorg_1_1msrg_1_1raccoon_1_1matrix_1_1TypedMatrix_a62f3b28a72c0c130fa783e1129694d4e.html#a62f3b28a72c0c130fa783e1129694d4e" target="_top" xlink:title="org.msrg.raccoon.matrix.\lTypedMatrix.inverseMatrix">
<polygon fill="none" stroke="black" points="452.5,-245.5 452.5,-275.5 584.5,-275.5 584.5,-245.5 452.5,-245.5"/>
<text text-anchor="start" x="460.5" y="-263.5" font-family="Helvetica,sans-Serif" font-size="10.00">org.msrg.raccoon.matrix.</text>
<text text-anchor="middle" x="518.5" y="-252.5" font-family="Helvetica,sans-Serif" font-size="10.00">TypedMatrix.inverseMatrix</text>
</a>
</g>
</g>
<!-- Node4&#45;&gt;Node9 -->
<g id="edge8" class="edge"><title>Node4&#45;&gt;Node9</title>
<path fill="none" stroke="midnightblue" d="M396.119,-260.5C411.538,-260.5 427.363,-260.5 442.281,-260.5"/>
<polygon fill="midnightblue" stroke="midnightblue" points="442.449,-264 452.449,-260.5 442.449,-257 442.449,-264"/>
</g>
<!-- Node10 -->
<g id="node10" class="node"><title>Node10</title>
<g id="a_node10"><a xlink:href="../../d5/dcc/classorg_1_1msrg_1_1raccoon_1_1matrix_1_1MatrixFactory_ade989a224e218967ed11c1ca683d6cad.html#ade989a224e218967ed11c1ca683d6cad" target="_top" xlink:title="org.msrg.raccoon.matrix.\lMatrixFactory.multiply">
<polygon fill="none" stroke="black" points="456,-196.5 456,-226.5 581,-226.5 581,-196.5 456,-196.5"/>
<text text-anchor="start" x="464" y="-214.5" font-family="Helvetica,sans-Serif" font-size="10.00">org.msrg.raccoon.matrix.</text>
<text text-anchor="middle" x="518.5" y="-203.5" font-family="Helvetica,sans-Serif" font-size="10.00">MatrixFactory.multiply</text>
</a>
</g>
</g>
<!-- Node4&#45;&gt;Node10 -->
<g id="edge9" class="edge"><title>Node4&#45;&gt;Node10</title>
<path fill="none" stroke="midnightblue" d="M369.161,-245.465C393.458,-239.902 421.115,-233.569 445.913,-227.892"/>
<polygon fill="midnightblue" stroke="midnightblue" points="447.016,-231.229 455.983,-225.586 445.454,-224.406 447.016,-231.229"/>
</g>
<!-- Node12 -->
<g id="node12" class="node"><title>Node12</title>
<g id="a_node12"><a xlink:href="../../dd/d36/classorg_1_1msrg_1_1raccoon_1_1matrix_1_1finitefields_1_1ByteMatrix_a5a3c18a9905c1d33c6a992930e2b6a78.html#a5a3c18a9905c1d33c6a992930e2b6a78" target="_top" xlink:title="org.msrg.raccoon.matrix.finitefields.\lByteMatrix.multiply">
<polygon fill="none" stroke="black" points="432,-147.5 432,-177.5 605,-177.5 605,-147.5 432,-147.5"/>
<text text-anchor="start" x="440" y="-165.5" font-family="Helvetica,sans-Serif" font-size="10.00">org.msrg.raccoon.matrix.finitefields.</text>
<text text-anchor="middle" x="518.5" y="-154.5" font-family="Helvetica,sans-Serif" font-size="10.00">ByteMatrix.multiply</text>
</a>
</g>
</g>
<!-- Node4&#45;&gt;Node12 -->
<g id="edge11" class="edge"><title>Node4&#45;&gt;Node12</title>
<path fill="none" stroke="midnightblue" d="M326.346,-245.349C351.414,-229.252 393.252,-203.907 432,-187.5 437.701,-185.086 443.71,-182.816 449.79,-180.703"/>
<polygon fill="midnightblue" stroke="midnightblue" points="450.988,-183.993 459.371,-177.515 448.778,-177.351 450.988,-183.993"/>
</g>
<!-- Node18 -->
<g id="node18" class="node"><title>Node18</title>
<g id="a_node18"><a xlink:href="../../db/d3f/classorg_1_1msrg_1_1raccoon_1_1matrix_1_1TypedMatrix_ad1e32e3ad9d793648cb9c17cde3302a6.html#ad1e32e3ad9d793648cb9c17cde3302a6" target="_top" xlink:title="org.msrg.raccoon.matrix.\lTypedMatrix.toArray">
<polygon fill="none" stroke="black" points="456,-98.5 456,-128.5 581,-128.5 581,-98.5 456,-98.5"/>
<text text-anchor="start" x="464" y="-116.5" font-family="Helvetica,sans-Serif" font-size="10.00">org.msrg.raccoon.matrix.</text>
<text text-anchor="middle" x="518.5" y="-105.5" font-family="Helvetica,sans-Serif" font-size="10.00">TypedMatrix.toArray</text>
</a>
</g>
</g>
<!-- Node4&#45;&gt;Node18 -->
<g id="edge17" class="edge"><title>Node4&#45;&gt;Node18</title>
<path fill="none" stroke="midnightblue" d="M315.272,-245.353C336.066,-219.614 381.868,-167.334 432,-138.5 436.493,-135.916 441.275,-133.58 446.194,-131.471"/>
<polygon fill="midnightblue" stroke="midnightblue" points="447.761,-134.615 455.78,-127.691 445.193,-128.103 447.761,-134.615"/>
</g>
<!-- Node19 -->
<g id="node19" class="node"><title>Node19</title>
<g id="a_node19"><a xlink:href="../../dd/d36/classorg_1_1msrg_1_1raccoon_1_1matrix_1_1finitefields_1_1ByteMatrix_ae680bc03b706fb0ed7304506d2eb42fc.html#ae680bc03b706fb0ed7304506d2eb42fc" target="_top" xlink:title="org.msrg.raccoon.matrix.finitefields.\lByteMatrix.unwrap">
<polygon fill="none" stroke="black" points="432,-49.5 432,-79.5 605,-79.5 605,-49.5 432,-49.5"/>
<text text-anchor="start" x="440" y="-67.5" font-family="Helvetica,sans-Serif" font-size="10.00">org.msrg.raccoon.matrix.finitefields.</text>
<text text-anchor="middle" x="518.5" y="-56.5" font-family="Helvetica,sans-Serif" font-size="10.00">ByteMatrix.unwrap</text>
</a>
</g>
</g>
<!-- Node4&#45;&gt;Node19 -->
<g id="edge18" class="edge"><title>Node4&#45;&gt;Node19</title>
<path fill="none" stroke="midnightblue" d="M310.613,-245.35C327.072,-211.96 371.082,-131.662 432,-89.5 434.885,-87.5032 437.93,-85.664 441.085,-83.9701"/>
<polygon fill="midnightblue" stroke="midnightblue" points="442.729,-87.0629 450.221,-79.5709 439.692,-80.7559 442.729,-87.0629"/>
</g>
<!-- Node20 -->
<g id="node20" class="node"><title>Node20</title>
<g id="a_node20"><a xlink:href="../../dd/d36/classorg_1_1msrg_1_1raccoon_1_1matrix_1_1finitefields_1_1ByteMatrix_aa97eedbd30bae79ecb654ad7c8b584ef.html#aa97eedbd30bae79ecb654ad7c8b584ef" target="_top" xlink:title="org.msrg.raccoon.matrix.finitefields.\lByteMatrix.wrap">
<polygon fill="none" stroke="black" points="432,-0.5 432,-30.5 605,-30.5 605,-0.5 432,-0.5"/>
<text text-anchor="start" x="440" y="-18.5" font-family="Helvetica,sans-Serif" font-size="10.00">org.msrg.raccoon.matrix.finitefields.</text>
<text text-anchor="middle" x="518.5" y="-7.5" font-family="Helvetica,sans-Serif" font-size="10.00">ByteMatrix.wrap</text>
</a>
</g>
</g>
<!-- Node4&#45;&gt;Node20 -->
<g id="edge19" class="edge"><title>Node4&#45;&gt;Node20</title>
<path fill="none" stroke="midnightblue" d="M307.837,-245.492C320.176,-205.527 359.36,-95.7478 432,-39.5 433.783,-38.1195 435.641,-36.8184 437.56,-35.5922"/>
<polygon fill="midnightblue" stroke="midnightblue" points="439.309,-38.6243 446.32,-30.6809 435.886,-32.5185 439.309,-38.6243"/>
</g>
<!-- Node11 -->
<g id="node11" class="node"><title>Node11</title>
<g id="a_node11"><a xlink:href="../../db/d3f/classorg_1_1msrg_1_1raccoon_1_1matrix_1_1TypedMatrix_acd4cb24423a09596877fe45fab025fb2.html#acd4cb24423a09596877fe45fab025fb2" target="_top" xlink:title="org.msrg.raccoon.matrix.\lTypedMatrix.multiply">
<polygon fill="none" stroke="black" points="653,-245.5 653,-275.5 778,-275.5 778,-245.5 653,-245.5"/>
<text text-anchor="start" x="661" y="-263.5" font-family="Helvetica,sans-Serif" font-size="10.00">org.msrg.raccoon.matrix.</text>
<text text-anchor="middle" x="715.5" y="-252.5" font-family="Helvetica,sans-Serif" font-size="10.00">TypedMatrix.multiply</text>
</a>
</g>
</g>
<!-- Node10&#45;&gt;Node11 -->
<g id="edge10" class="edge"><title>Node10&#45;&gt;Node11</title>
<path fill="none" stroke="midnightblue" d="M579.332,-226.535C600.108,-231.755 623.581,-237.654 645.067,-243.053"/>
<polygon fill="midnightblue" stroke="midnightblue" points="644.23,-246.451 654.782,-245.494 645.936,-239.662 644.23,-246.451"/>
</g>
<!-- Node13 -->
<g id="node13" class="node"><title>Node13</title>
<g id="a_node13"><a xlink:href="../../df/da4/classorg_1_1msrg_1_1raccoon_1_1matrix_1_1bulk_1_1BulkMatrix_a1ea2bca79aa590fdcfa5f472acc479cc.html#a1ea2bca79aa590fdcfa5f472acc479cc" target="_top" xlink:title="org.msrg.raccoon.matrix.bulk.\lBulkMatrix.createEmptyMatrix">
<polygon fill="none" stroke="black" points="641,-196.5 641,-226.5 790,-226.5 790,-196.5 641,-196.5"/>
<text text-anchor="start" x="649" y="-214.5" font-family="Helvetica,sans-Serif" font-size="10.00">org.msrg.raccoon.matrix.bulk.</text>
<text text-anchor="middle" x="715.5" y="-203.5" font-family="Helvetica,sans-Serif" font-size="10.00">BulkMatrix.createEmptyMatrix</text>
</a>
</g>
</g>
<!-- Node12&#45;&gt;Node13 -->
<g id="edge12" class="edge"><title>Node12&#45;&gt;Node13</title>
<path fill="none" stroke="midnightblue" d="M579.332,-177.535C600.108,-182.755 623.581,-188.654 645.067,-194.053"/>
<polygon fill="midnightblue" stroke="midnightblue" points="644.23,-197.451 654.782,-196.494 645.936,-190.662 644.23,-197.451"/>
</g>
<!-- Node15 -->
<g id="node15" class="node"><title>Node15</title>
<g id="a_node15"><a xlink:href="../../df/da4/classorg_1_1msrg_1_1raccoon_1_1matrix_1_1bulk_1_1BulkMatrix_a804160abadbedfe02caa0c441731a519.html#a804160abadbedfe02caa0c441731a519" target="_top" xlink:title="org.msrg.raccoon.matrix.bulk.\lBulkMatrix.getContent">
<polygon fill="none" stroke="black" points="642.5,-147.5 642.5,-177.5 788.5,-177.5 788.5,-147.5 642.5,-147.5"/>
<text text-anchor="start" x="650.5" y="-165.5" font-family="Helvetica,sans-Serif" font-size="10.00">org.msrg.raccoon.matrix.bulk.</text>
<text text-anchor="middle" x="715.5" y="-154.5" font-family="Helvetica,sans-Serif" font-size="10.00">BulkMatrix.getContent</text>
</a>
</g>
</g>
<!-- Node12&#45;&gt;Node15 -->
<g id="edge14" class="edge"><title>Node12&#45;&gt;Node15</title>
<path fill="none" stroke="midnightblue" d="M605.03,-162.5C614.101,-162.5 623.312,-162.5 632.343,-162.5"/>
<polygon fill="midnightblue" stroke="midnightblue" points="632.445,-166 642.445,-162.5 632.445,-159 632.445,-166"/>
</g>
<!-- Node16 -->
<g id="node16" class="node"><title>Node16</title>
<g id="a_node16"><a xlink:href="../../d6/d6d/classorg_1_1msrg_1_1raccoon_1_1matrix_1_1bulk_1_1SliceMatrix_a4c85807433398a037c9d6885569fba0e.html#a4c85807433398a037c9d6885569fba0e" target="_top" xlink:title="org.msrg.raccoon.matrix.bulk.\lSliceMatrix.loadNoCopy">
<polygon fill="none" stroke="black" points="642.5,-98.5 642.5,-128.5 788.5,-128.5 788.5,-98.5 642.5,-98.5"/>
<text text-anchor="start" x="650.5" y="-116.5" font-family="Helvetica,sans-Serif" font-size="10.00">org.msrg.raccoon.matrix.bulk.</text>
<text text-anchor="middle" x="715.5" y="-105.5" font-family="Helvetica,sans-Serif" font-size="10.00">SliceMatrix.loadNoCopy</text>
</a>
</g>
</g>
<!-- Node12&#45;&gt;Node16 -->
<g id="edge15" class="edge"><title>Node12&#45;&gt;Node16</title>
<path fill="none" stroke="midnightblue" d="M579.332,-147.465C600.108,-142.245 623.581,-136.346 645.067,-130.947"/>
<polygon fill="midnightblue" stroke="midnightblue" points="645.936,-134.338 654.782,-128.506 644.23,-127.549 645.936,-134.338"/>
</g>
<!-- Node17 -->
<g id="node17" class="node"><title>Node17</title>
<g id="a_node17"><a xlink:href="../../df/da4/classorg_1_1msrg_1_1raccoon_1_1matrix_1_1bulk_1_1BulkMatrix_a7f382b71b1e7fb03fa68f22724f75f88.html#a7f382b71b1e7fb03fa68f22724f75f88" target="_top" xlink:title="org.msrg.raccoon.matrix.bulk.\lBulkMatrix.slice">
<polygon fill="none" stroke="black" points="642.5,-49.5 642.5,-79.5 788.5,-79.5 788.5,-49.5 642.5,-49.5"/>
<text text-anchor="start" x="650.5" y="-67.5" font-family="Helvetica,sans-Serif" font-size="10.00">org.msrg.raccoon.matrix.bulk.</text>
<text text-anchor="middle" x="715.5" y="-56.5" font-family="Helvetica,sans-Serif" font-size="10.00">BulkMatrix.slice</text>
</a>
</g>
</g>
<!-- Node12&#45;&gt;Node17 -->
<g id="edge16" class="edge"><title>Node12&#45;&gt;Node17</title>
<path fill="none" stroke="midnightblue" d="M588.994,-147.377C594.634,-144.858 600.056,-141.922 605,-138.5 627.221,-123.121 619.204,-105.476 641,-89.5 643.527,-87.6474 646.202,-85.9252 648.976,-84.3248"/>
<polygon fill="midnightblue" stroke="midnightblue" points="650.829,-87.3078 658.117,-79.6183 647.624,-81.0843 650.829,-87.3078"/>
</g>
<!-- Node14 -->
<g id="node14" class="node"><title>Node14</title>
<g id="a_node14"><a xlink:href="../../df/da4/classorg_1_1msrg_1_1raccoon_1_1matrix_1_1bulk_1_1BulkMatrix_ae52685687565b5725a204d70237d300a.html#ae52685687565b5725a204d70237d300a" target="_top" xlink:title="org.msrg.raccoon.matrix.bulk.\lBulkMatrix.BulkMatrix">
<polygon fill="none" stroke="black" points="826,-196.5 826,-226.5 972,-226.5 972,-196.5 826,-196.5"/>
<text text-anchor="start" x="834" y="-214.5" font-family="Helvetica,sans-Serif" font-size="10.00">org.msrg.raccoon.matrix.bulk.</text>
<text text-anchor="middle" x="899" y="-203.5" font-family="Helvetica,sans-Serif" font-size="10.00">BulkMatrix.BulkMatrix</text>
</a>
</g>
</g>
<!-- Node13&#45;&gt;Node14 -->
<g id="edge13" class="edge"><title>Node13&#45;&gt;Node14</title>
<path fill="none" stroke="midnightblue" d="M790.061,-211.5C798.537,-211.5 807.22,-211.5 815.8,-211.5"/>
<polygon fill="midnightblue" stroke="midnightblue" points="815.806,-215 825.806,-211.5 815.806,-208 815.806,-215"/>
</g>
</g>
</svg>
        <g id="navigator" transform="translate(0 0)" fill="#404254">
                <rect fill="#f2f5e9" fill-opacity="0.5" stroke="#606060" stroke-width=".5" x="0" y="0" width="60" height="60"/>
                <use id="zoomplus" xlink:href="#zoomPlus" x="17" y="9" onmousedown="handleZoom(evt,'in')"/>
                <use id="zoomminus" xlink:href="#zoomMin" x="42" y="9" onmousedown="handleZoom(evt,'out')"/>
                <use id="reset" xlink:href="#resetDef" x="30" y="36" onmousedown="handleReset()"/>
                <g id="arrowUp" xlink:href="#dirArrow" transform="translate(30 24)" onmousedown="handlePan(0,-1)">
                  <use xlink:href="#rim" fill="#404040">
                        <set attributeName="fill" to="#808080" begin="arrowUp.mouseover" end="arrowUp.mouseout"/>
                  </use>
                  <path fill="none" stroke="white" stroke-width="1.5" d="M0,-3.0v7 M-2.5,-0.5L0,-3.0L2.5,-0.5"/>
                </g>
                <g id="arrowRight" xlink:href="#dirArrow" transform="rotate(90) translate(36 -43)" onmousedown="handlePan(1,0)">
                  <use xlink:href="#rim" fill="#404040">
                        <set attributeName="fill" to="#808080" begin="arrowRight.mouseover" end="arrowRight.mouseout"/>
                  </use>
                  <path fill="none" stroke="white" stroke-width="1.5" d="M0,-3.0v7 M-2.5,-0.5L0,-3.0L2.5,-0.5"/>
                </g>
                <g id="arrowDown" xlink:href="#dirArrow" transform="rotate(180) translate(-30 -48)" onmousedown="handlePan(0,1)">
                  <use xlink:href="#rim" fill="#404040">
                        <set attributeName="fill" to="#808080" begin="arrowDown.mouseover" end="arrowDown.mouseout"/>
                  </use>
                  <path fill="none" stroke="white" stroke-width="1.5" d="M0,-3.0v7 M-2.5,-0.5L0,-3.0L2.5,-0.5"/>
                </g>
                <g id="arrowLeft" xlink:href="#dirArrow" transform="rotate(270) translate(-36 17)" onmousedown="handlePan(-1,0)">
                  <use xlink:href="#rim" fill="#404040">
                        <set attributeName="fill" to="#808080" begin="arrowLeft.mouseover" end="arrowLeft.mouseout"/>
                  </use>
                  <path fill="none" stroke="white" stroke-width="1.5" d="M0,-3.0v7 M-2.5,-0.5L0,-3.0L2.5,-0.5"/>
                </g>
        </g>
        <svg viewBox="0 0 15 15" width="100%" height="30px" preserveAspectRatio="xMaxYMin meet">
         <g id="arrow_out" transform="scale(0.3 0.3)">
          <a xlink:href="classorg_1_1msrg_1_1raccoon_1_1matrix_1_1finitefields_1_1ByteMatrixTest_af84f780201f4ae5e9d625748fa84ca38_af84f780201f4ae5e9d625748fa84ca38_cgraph_org.svg" target="_base">
           <rect id="button" ry="5" rx="5" y="6" x="6" height="38" width="38"
                fill="#f2f5e9" fill-opacity="0.5" stroke="#606060" stroke-width="1.0"/>
           <path id="arrow"
             d="M 11.500037,31.436501 C 11.940474,20.09759 22.043105,11.32322 32.158766,21.979434 L 37.068811,17.246167 C 37.068811,17.246167 37.088388,32 37.088388,32 L 22.160133,31.978069 C 22.160133,31.978069 26.997745,27.140456 26.997745,27.140456 C 18.528582,18.264221 13.291696,25.230495 11.500037,31.436501 z"
             style="fill:#404040;"/>
          </a>
         </g>
        </svg>
</svg>
