<?xml version="1.0" encoding="UTF-8" standalone="no"?>
<!DOCTYPE svg PUBLIC "-//W3C//DTD SVG 1.1//EN"
 "http://www.w3.org/Graphics/SVG/1.1/DTD/svg11.dtd">
<!-- Generated by graphviz version 2.38.0 (20140413.2041)
 -->
<!-- Title: org.msrg.raccoon.CodedPiece Pages: 1 -->
<svg width="545pt" height="1529pt"
 viewBox="0.00 0.00 544.50 1529.00" xmlns="http://www.w3.org/2000/svg" xmlns:xlink="http://www.w3.org/1999/xlink">
<g id="graph0" class="graph" transform="scale(1 1) rotate(0) translate(4 1525)">
<title>org.msrg.raccoon.CodedPiece</title>
<!-- Node1 -->
<g id="node1" class="node"><title>Node1</title>
<polygon fill="#bfbfbf" stroke="black" points="347,-0.5 347,-112.5 496,-112.5 496,-0.5 347,-0.5"/>
<text text-anchor="middle" x="421.5" y="-100.5" font-family="Helvetica,sans-Serif" font-size="10.00">org.msrg.raccoon.CodedPiece</text>
<polyline fill="none" stroke="black" points="347,-93.5 496,-93.5 "/>
<text text-anchor="middle" x="421.5" y="-81.5" font-family="Helvetica,sans-Serif" font-size="10.00"> </text>
<polyline fill="none" stroke="black" points="347,-74.5 496,-74.5 "/>
<text text-anchor="start" x="355" y="-62.5" font-family="Helvetica,sans-Serif" font-size="10.00">+ CodedPiece()</text>
<text text-anchor="start" x="355" y="-51.5" font-family="Helvetica,sans-Serif" font-size="10.00">+ CodedPiece()</text>
<text text-anchor="start" x="355" y="-40.5" font-family="Helvetica,sans-Serif" font-size="10.00">+ equals()</text>
<text text-anchor="start" x="355" y="-29.5" font-family="Helvetica,sans-Serif" font-size="10.00">+ toString()</text>
<text text-anchor="start" x="355" y="-18.5" font-family="Helvetica,sans-Serif" font-size="10.00">+ makeCodedPiece()</text>
<text text-anchor="start" x="355" y="-7.5" font-family="Helvetica,sans-Serif" font-size="10.00">+ makeCodedSlice()</text>
</g>
<!-- Node2 -->
<g id="node2" class="node"><title>Node2</title>
<g id="a_node2"><a xlink:href="../../dd/d36/classorg_1_1msrg_1_1raccoon_1_1CodedCoefficients.html" target="_top" xlink:title="{org.msrg.raccoon.CodedCoefficients\n|# _MAX_COEFFICIENTS_PRINT\l|+ CodedCoefficients()\l+ CodedCoefficients()\l+ CodedCoefficients()\l+ getCoefficients()\l+ getSizeInByteBuffer()\l+ getLength()\l+ toString()\l+ toString()\l+ equals()\l# makeRand1dArray()\l}">
<polygon fill="none" stroke="black" points="256.5,-160.5 256.5,-316.5 432.5,-316.5 432.5,-160.5 256.5,-160.5"/>
<text text-anchor="middle" x="344.5" y="-304.5" font-family="Helvetica,sans-Serif" font-size="10.00">org.msrg.raccoon.CodedCoefficients</text>
<polyline fill="none" stroke="black" points="256.5,-297.5 432.5,-297.5 "/>
<text text-anchor="start" x="264.5" y="-285.5" font-family="Helvetica,sans-Serif" font-size="10.00"># _MAX_COEFFICIENTS_PRINT</text>
<polyline fill="none" stroke="black" points="256.5,-278.5 432.5,-278.5 "/>
<text text-anchor="start" x="264.5" y="-266.5" font-family="Helvetica,sans-Serif" font-size="10.00">+ CodedCoefficients()</text>
<text text-anchor="start" x="264.5" y="-255.5" font-family="Helvetica,sans-Serif" font-size="10.00">+ CodedCoefficients()</text>
<text text-anchor="start" x="264.5" y="-244.5" font-family="Helvetica,sans-Serif" font-size="10.00">+ CodedCoefficients()</text>
<text text-anchor="start" x="264.5" y="-233.5" font-family="Helvetica,sans-Serif" font-size="10.00">+ getCoefficients()</text>
<text text-anchor="start" x="264.5" y="-222.5" font-family="Helvetica,sans-Serif" font-size="10.00">+ getSizeInByteBuffer()</text>
<text text-anchor="start" x="264.5" y="-211.5" font-family="Helvetica,sans-Serif" font-size="10.00">+ getLength()</text>
<text text-anchor="start" x="264.5" y="-200.5" font-family="Helvetica,sans-Serif" font-size="10.00">+ toString()</text>
<text text-anchor="start" x="264.5" y="-189.5" font-family="Helvetica,sans-Serif" font-size="10.00">+ toString()</text>
<text text-anchor="start" x="264.5" y="-178.5" font-family="Helvetica,sans-Serif" font-size="10.00">+ equals()</text>
<text text-anchor="start" x="264.5" y="-167.5" font-family="Helvetica,sans-Serif" font-size="10.00"># makeRand1dArray()</text>
</a>
</g>
</g>
<!-- Node2&#45;&gt;Node1 -->
<g id="edge1" class="edge"><title>Node2&#45;&gt;Node1</title>
<path fill="none" stroke="#404040" d="M377.49,-160.38C382.687,-148.232 388.02,-135.764 393.101,-123.887"/>
<polygon fill="none" stroke="#404040" points="393.163,-123.743 391.845,-116.653 397.882,-112.71 399.2,-119.8 393.163,-123.743"/>
<text text-anchor="middle" x="403" y="-134" font-family="Helvetica,sans-Serif" font-size="10.00"> +_cc</text>
</g>
<!-- Node3 -->
<g id="node3" class="node"><title>Node3</title>
<g id="a_node3"><a xlink:href="../../d6/d37/classorg_1_1msrg_1_1raccoon_1_1matrix_1_1finitefields_1_1ByteMatrix1D.html" target="_top" xlink:title="{org.msrg.raccoon.matrix.finitefields.\lByteMatrix1D\n||+ ByteMatrix1D()\l+ ByteMatrix1D()\l+ ByteMatrix1D()\l+ multiply1D()\l# make1dArray2d()\l}">
<polygon fill="none" stroke="black" points="152,-354.5 152,-466.5 325,-466.5 325,-354.5 152,-354.5"/>
<text text-anchor="start" x="160" y="-454.5" font-family="Helvetica,sans-Serif" font-size="10.00">org.msrg.raccoon.matrix.finitefields.</text>
<text text-anchor="middle" x="238.5" y="-443.5" font-family="Helvetica,sans-Serif" font-size="10.00">ByteMatrix1D</text>
<polyline fill="none" stroke="black" points="152,-436.5 325,-436.5 "/>
<text text-anchor="middle" x="238.5" y="-424.5" font-family="Helvetica,sans-Serif" font-size="10.00"> </text>
<polyline fill="none" stroke="black" points="152,-417.5 325,-417.5 "/>
<text text-anchor="start" x="160" y="-405.5" font-family="Helvetica,sans-Serif" font-size="10.00">+ ByteMatrix1D()</text>
<text text-anchor="start" x="160" y="-394.5" font-family="Helvetica,sans-Serif" font-size="10.00">+ ByteMatrix1D()</text>
<text text-anchor="start" x="160" y="-383.5" font-family="Helvetica,sans-Serif" font-size="10.00">+ ByteMatrix1D()</text>
<text text-anchor="start" x="160" y="-372.5" font-family="Helvetica,sans-Serif" font-size="10.00">+ multiply1D()</text>
<text text-anchor="start" x="160" y="-361.5" font-family="Helvetica,sans-Serif" font-size="10.00"># make1dArray2d()</text>
</a>
</g>
</g>
<!-- Node3&#45;&gt;Node2 -->
<g id="edge2" class="edge"><title>Node3&#45;&gt;Node2</title>
<path fill="none" stroke="midnightblue" d="M278.27,-345.718C284.183,-336.235 290.331,-326.375 296.392,-316.654"/>
<polygon fill="none" stroke="midnightblue" points="275.236,-343.968 272.915,-354.306 281.176,-347.672 275.236,-343.968"/>
</g>
<!-- Node4 -->
<g id="node4" class="node"><title>Node4</title>
<g id="a_node4"><a xlink:href="../../dd/d36/classorg_1_1msrg_1_1raccoon_1_1matrix_1_1finitefields_1_1ByteMatrix.html" target="_top" xlink:title="{org.msrg.raccoon.matrix.finitefields.\lByteMatrix\n||+ ByteMatrix()\l+ ByteMatrix()\l+ ByteMatrix()\l+ isInversable()\l+ getByteArray()\l+ multiply()\l+ multiply()\l+ getZeroMatrix()\l+ verifyNotNull()\l+ wrap()\l+ wrap()\l+ unwrap()\l+ createRandomByteMatrix()\l+ createMatrix()\l# createByteMatrix()\l# createNewMatrix()\l}">
<polygon fill="none" stroke="black" points="143,-504.5 143,-737.5 316,-737.5 316,-504.5 143,-504.5"/>
<text text-anchor="start" x="151" y="-725.5" font-family="Helvetica,sans-Serif" font-size="10.00">org.msrg.raccoon.matrix.finitefields.</text>
<text text-anchor="middle" x="229.5" y="-714.5" font-family="Helvetica,sans-Serif" font-size="10.00">ByteMatrix</text>
<polyline fill="none" stroke="black" points="143,-707.5 316,-707.5 "/>
<text text-anchor="middle" x="229.5" y="-695.5" font-family="Helvetica,sans-Serif" font-size="10.00"> </text>
<polyline fill="none" stroke="black" points="143,-688.5 316,-688.5 "/>
<text text-anchor="start" x="151" y="-676.5" font-family="Helvetica,sans-Serif" font-size="10.00">+ ByteMatrix()</text>
<text text-anchor="start" x="151" y="-665.5" font-family="Helvetica,sans-Serif" font-size="10.00">+ ByteMatrix()</text>
<text text-anchor="start" x="151" y="-654.5" font-family="Helvetica,sans-Serif" font-size="10.00">+ ByteMatrix()</text>
<text text-anchor="start" x="151" y="-643.5" font-family="Helvetica,sans-Serif" font-size="10.00">+ isInversable()</text>
<text text-anchor="start" x="151" y="-632.5" font-family="Helvetica,sans-Serif" font-size="10.00">+ getByteArray()</text>
<text text-anchor="start" x="151" y="-621.5" font-family="Helvetica,sans-Serif" font-size="10.00">+ multiply()</text>
<text text-anchor="start" x="151" y="-610.5" font-family="Helvetica,sans-Serif" font-size="10.00">+ multiply()</text>
<text text-anchor="start" x="151" y="-599.5" font-family="Helvetica,sans-Serif" font-size="10.00">+ getZeroMatrix()</text>
<text text-anchor="start" x="151" y="-588.5" font-family="Helvetica,sans-Serif" font-size="10.00">+ verifyNotNull()</text>
<text text-anchor="start" x="151" y="-577.5" font-family="Helvetica,sans-Serif" font-size="10.00">+ wrap()</text>
<text text-anchor="start" x="151" y="-566.5" font-family="Helvetica,sans-Serif" font-size="10.00">+ wrap()</text>
<text text-anchor="start" x="151" y="-555.5" font-family="Helvetica,sans-Serif" font-size="10.00">+ unwrap()</text>
<text text-anchor="start" x="151" y="-544.5" font-family="Helvetica,sans-Serif" font-size="10.00">+ createRandomByteMatrix()</text>
<text text-anchor="start" x="151" y="-533.5" font-family="Helvetica,sans-Serif" font-size="10.00">+ createMatrix()</text>
<text text-anchor="start" x="151" y="-522.5" font-family="Helvetica,sans-Serif" font-size="10.00"># createByteMatrix()</text>
<text text-anchor="start" x="151" y="-511.5" font-family="Helvetica,sans-Serif" font-size="10.00"># createNewMatrix()</text>
</a>
</g>
</g>
<!-- Node4&#45;&gt;Node3 -->
<g id="edge3" class="edge"><title>Node4&#45;&gt;Node3</title>
<path fill="none" stroke="midnightblue" d="M234.923,-494.358C235.339,-484.73 235.744,-475.357 236.122,-466.586"/>
<polygon fill="none" stroke="midnightblue" points="231.422,-494.327 234.487,-504.469 238.415,-494.629 231.422,-494.327"/>
</g>
<!-- Node5 -->
<g id="node5" class="node"><title>Node5</title>
<g id="a_node5"><a xlink:href="../../de/d17/classorg_1_1msrg_1_1raccoon_1_1matrix_1_1finitefields_1_1FFByteMatrix.html" target="_top" xlink:title="{org.msrg.raccoon.matrix.finitefields.\lFFByteMatrix\n|# m\l# DIG\l|+ FFByteMatrix()\l+ FFByteMatrix()\l+ add()\l+ decloneExtended()\l+ cloneExtended()\l+ clone()\l+ getOne()\l+ getZero()\l+ getZeroMatrix()\l+ getNullMatrix()\land 10 more...\l+ createRandomSquareByteMatrix()\l+ createRandomByteMatrix()\l+ createMatrix()\l+ random()\l# createNewMatrix()\l# toString()\l# multiply2()\l# makeZero2d()\l}">
<polygon fill="none" stroke="black" points="134,-775.5 134,-1052.5 307,-1052.5 307,-775.5 134,-775.5"/>
<text text-anchor="start" x="142" y="-1040.5" font-family="Helvetica,sans-Serif" font-size="10.00">org.msrg.raccoon.matrix.finitefields.</text>
<text text-anchor="middle" x="220.5" y="-1029.5" font-family="Helvetica,sans-Serif" font-size="10.00">FFByteMatrix</text>
<polyline fill="none" stroke="black" points="134,-1022.5 307,-1022.5 "/>
<text text-anchor="start" x="142" y="-1010.5" font-family="Helvetica,sans-Serif" font-size="10.00"># m</text>
<text text-anchor="start" x="142" y="-999.5" font-family="Helvetica,sans-Serif" font-size="10.00"># DIG</text>
<polyline fill="none" stroke="black" points="134,-992.5 307,-992.5 "/>
<text text-anchor="start" x="142" y="-980.5" font-family="Helvetica,sans-Serif" font-size="10.00">+ FFByteMatrix()</text>
<text text-anchor="start" x="142" y="-969.5" font-family="Helvetica,sans-Serif" font-size="10.00">+ FFByteMatrix()</text>
<text text-anchor="start" x="142" y="-958.5" font-family="Helvetica,sans-Serif" font-size="10.00">+ add()</text>
<text text-anchor="start" x="142" y="-947.5" font-family="Helvetica,sans-Serif" font-size="10.00">+ decloneExtended()</text>
<text text-anchor="start" x="142" y="-936.5" font-family="Helvetica,sans-Serif" font-size="10.00">+ cloneExtended()</text>
<text text-anchor="start" x="142" y="-925.5" font-family="Helvetica,sans-Serif" font-size="10.00">+ clone()</text>
<text text-anchor="start" x="142" y="-914.5" font-family="Helvetica,sans-Serif" font-size="10.00">+ getOne()</text>
<text text-anchor="start" x="142" y="-903.5" font-family="Helvetica,sans-Serif" font-size="10.00">+ getZero()</text>
<text text-anchor="start" x="142" y="-892.5" font-family="Helvetica,sans-Serif" font-size="10.00">+ getZeroMatrix()</text>
<text text-anchor="start" x="142" y="-881.5" font-family="Helvetica,sans-Serif" font-size="10.00">+ getNullMatrix()</text>
<text text-anchor="start" x="142" y="-870.5" font-family="Helvetica,sans-Serif" font-size="10.00">and 10 more...</text>
<text text-anchor="start" x="142" y="-859.5" font-family="Helvetica,sans-Serif" font-size="10.00">+ createRandomSquareByteMatrix()</text>
<text text-anchor="start" x="142" y="-848.5" font-family="Helvetica,sans-Serif" font-size="10.00">+ createRandomByteMatrix()</text>
<text text-anchor="start" x="142" y="-837.5" font-family="Helvetica,sans-Serif" font-size="10.00">+ createMatrix()</text>
<text text-anchor="start" x="142" y="-826.5" font-family="Helvetica,sans-Serif" font-size="10.00">+ random()</text>
<text text-anchor="start" x="142" y="-815.5" font-family="Helvetica,sans-Serif" font-size="10.00"># createNewMatrix()</text>
<text text-anchor="start" x="142" y="-804.5" font-family="Helvetica,sans-Serif" font-size="10.00"># toString()</text>
<text text-anchor="start" x="142" y="-793.5" font-family="Helvetica,sans-Serif" font-size="10.00"># multiply2()</text>
<text text-anchor="start" x="142" y="-782.5" font-family="Helvetica,sans-Serif" font-size="10.00"># makeZero2d()</text>
</a>
</g>
</g>
<!-- Node5&#45;&gt;Node4 -->
<g id="edge4" class="edge"><title>Node5&#45;&gt;Node4</title>
<path fill="none" stroke="midnightblue" d="M225.08,-764.917C225.361,-755.835 225.641,-746.766 225.917,-737.852"/>
<polygon fill="none" stroke="midnightblue" points="221.574,-765.066 224.763,-775.17 228.57,-765.283 221.574,-765.066"/>
</g>
<!-- Node6 -->
<g id="node6" class="node"><title>Node6</title>
<g id="a_node6"><a xlink:href="../../db/d3f/classorg_1_1msrg_1_1raccoon_1_1matrix_1_1TypedMatrix.html" target="_top" xlink:title="{org::msrg::raccoon\l::matrix::TypedMatrix\l\&lt; Byte \&gt;\n|+ _b\l+ _MAX_ROWS_PRINT\l+ _MAX_COLS_PRINT\l# _rows\l# _cols\l# _inverseRowZero\l# _inverse\l# _lock\l|+ clone()\l+ cloneExtended()\l+ decloneExtended()\l+ compareToAbs()\l+ isZero()\l+ isOne()\l+ getOne()\l+ getZero()\l+ inverse()\l+ clone()\land 25 more...\l+ toStringMult()\l+ toStringAdd()\l+ toString()\l# toString()\l# getNullMatrix()\l# getZeroMatrix()\l# getEmptyArray()\l# inverseMatrixPrivately()\l# devideRow()\l# subtractRow()\l# subtractRowFromRow()\l# addRow()\l# multiplyRow()\land 8 more...\l}">
<polygon fill="none" stroke="black" points="0,-1100.5 0,-1520.5 129,-1520.5 129,-1100.5 0,-1100.5"/>
<text text-anchor="start" x="8" y="-1508.5" font-family="Helvetica,sans-Serif" font-size="10.00">org::msrg::raccoon</text>
<text text-anchor="start" x="8" y="-1497.5" font-family="Helvetica,sans-Serif" font-size="10.00">::matrix::TypedMatrix</text>
<text text-anchor="middle" x="64.5" y="-1486.5" font-family="Helvetica,sans-Serif" font-size="10.00">&lt; Byte &gt;</text>
<polyline fill="none" stroke="black" points="0,-1479.5 129,-1479.5 "/>
<text text-anchor="start" x="8" y="-1467.5" font-family="Helvetica,sans-Serif" font-size="10.00">+ _b</text>
<text text-anchor="start" x="8" y="-1456.5" font-family="Helvetica,sans-Serif" font-size="10.00">+ _MAX_ROWS_PRINT</text>
<text text-anchor="start" x="8" y="-1445.5" font-family="Helvetica,sans-Serif" font-size="10.00">+ _MAX_COLS_PRINT</text>
<text text-anchor="start" x="8" y="-1434.5" font-family="Helvetica,sans-Serif" font-size="10.00"># _rows</text>
<text text-anchor="start" x="8" y="-1423.5" font-family="Helvetica,sans-Serif" font-size="10.00"># _cols</text>
<text text-anchor="start" x="8" y="-1412.5" font-family="Helvetica,sans-Serif" font-size="10.00"># _inverseRowZero</text>
<text text-anchor="start" x="8" y="-1401.5" font-family="Helvetica,sans-Serif" font-size="10.00"># _inverse</text>
<text text-anchor="start" x="8" y="-1390.5" font-family="Helvetica,sans-Serif" font-size="10.00"># _lock</text>
<polyline fill="none" stroke="black" points="0,-1383.5 129,-1383.5 "/>
<text text-anchor="start" x="8" y="-1371.5" font-family="Helvetica,sans-Serif" font-size="10.00">+ clone()</text>
<text text-anchor="start" x="8" y="-1360.5" font-family="Helvetica,sans-Serif" font-size="10.00">+ cloneExtended()</text>
<text text-anchor="start" x="8" y="-1349.5" font-family="Helvetica,sans-Serif" font-size="10.00">+ decloneExtended()</text>
<text text-anchor="start" x="8" y="-1338.5" font-family="Helvetica,sans-Serif" font-size="10.00">+ compareToAbs()</text>
<text text-anchor="start" x="8" y="-1327.5" font-family="Helvetica,sans-Serif" font-size="10.00">+ isZero()</text>
<text text-anchor="start" x="8" y="-1316.5" font-family="Helvetica,sans-Serif" font-size="10.00">+ isOne()</text>
<text text-anchor="start" x="8" y="-1305.5" font-family="Helvetica,sans-Serif" font-size="10.00">+ getOne()</text>
<text text-anchor="start" x="8" y="-1294.5" font-family="Helvetica,sans-Serif" font-size="10.00">+ getZero()</text>
<text text-anchor="start" x="8" y="-1283.5" font-family="Helvetica,sans-Serif" font-size="10.00">+ inverse()</text>
<text text-anchor="start" x="8" y="-1272.5" font-family="Helvetica,sans-Serif" font-size="10.00">+ clone()</text>
<text text-anchor="start" x="8" y="-1261.5" font-family="Helvetica,sans-Serif" font-size="10.00">and 25 more...</text>
<text text-anchor="start" x="8" y="-1250.5" font-family="Helvetica,sans-Serif" font-size="10.00">+ toStringMult()</text>
<text text-anchor="start" x="8" y="-1239.5" font-family="Helvetica,sans-Serif" font-size="10.00">+ toStringAdd()</text>
<text text-anchor="start" x="8" y="-1228.5" font-family="Helvetica,sans-Serif" font-size="10.00">+ toString()</text>
<text text-anchor="start" x="8" y="-1217.5" font-family="Helvetica,sans-Serif" font-size="10.00"># toString()</text>
<text text-anchor="start" x="8" y="-1206.5" font-family="Helvetica,sans-Serif" font-size="10.00"># getNullMatrix()</text>
<text text-anchor="start" x="8" y="-1195.5" font-family="Helvetica,sans-Serif" font-size="10.00"># getZeroMatrix()</text>
<text text-anchor="start" x="8" y="-1184.5" font-family="Helvetica,sans-Serif" font-size="10.00"># getEmptyArray()</text>
<text text-anchor="start" x="8" y="-1173.5" font-family="Helvetica,sans-Serif" font-size="10.00"># inverseMatrixPrivately()</text>
<text text-anchor="start" x="8" y="-1162.5" font-family="Helvetica,sans-Serif" font-size="10.00"># devideRow()</text>
<text text-anchor="start" x="8" y="-1151.5" font-family="Helvetica,sans-Serif" font-size="10.00"># subtractRow()</text>
<text text-anchor="start" x="8" y="-1140.5" font-family="Helvetica,sans-Serif" font-size="10.00"># subtractRowFromRow()</text>
<text text-anchor="start" x="8" y="-1129.5" font-family="Helvetica,sans-Serif" font-size="10.00"># addRow()</text>
<text text-anchor="start" x="8" y="-1118.5" font-family="Helvetica,sans-Serif" font-size="10.00"># multiplyRow()</text>
<text text-anchor="start" x="8" y="-1107.5" font-family="Helvetica,sans-Serif" font-size="10.00">and 8 more...</text>
</a>
</g>
</g>
<!-- Node6&#45;&gt;Node5 -->
<g id="edge5" class="edge"><title>Node6&#45;&gt;Node5</title>
<path fill="none" stroke="midnightblue" d="M132.759,-1112.06C134.337,-1108 135.919,-1103.98 137.5,-1100 143.647,-1084.54 150.352,-1068.49 157.2,-1052.59"/>
<polygon fill="none" stroke="midnightblue" points="129.411,-1111.02 129.081,-1121.61 135.943,-1113.54 129.411,-1111.02"/>
</g>
<!-- Node7 -->
<g id="node7" class="node"><title>Node7</title>
<g id="a_node7"><a xlink:href="../../d6/d93/classorg_1_1msrg_1_1raccoon_1_1finitefields_1_1Tables.html" target="_top" xlink:title="{org.msrg.raccoon.finitefields.\lTables\n|+ LOG\l+ EXP\l|+ Tables()\l+ FFMulFast()\l+ FFInv()\l}">
<polygon fill="none" stroke="black" points="147,-1260 147,-1361 290,-1361 290,-1260 147,-1260"/>
<text text-anchor="start" x="155" y="-1349" font-family="Helvetica,sans-Serif" font-size="10.00">org.msrg.raccoon.finitefields.</text>
<text text-anchor="middle" x="218.5" y="-1338" font-family="Helvetica,sans-Serif" font-size="10.00">Tables</text>
<polyline fill="none" stroke="black" points="147,-1331 290,-1331 "/>
<text text-anchor="start" x="155" y="-1319" font-family="Helvetica,sans-Serif" font-size="10.00">+ LOG</text>
<text text-anchor="start" x="155" y="-1308" font-family="Helvetica,sans-Serif" font-size="10.00">+ EXP</text>
<polyline fill="none" stroke="black" points="147,-1301 290,-1301 "/>
<text text-anchor="start" x="155" y="-1289" font-family="Helvetica,sans-Serif" font-size="10.00">+ Tables()</text>
<text text-anchor="start" x="155" y="-1278" font-family="Helvetica,sans-Serif" font-size="10.00">+ FFMulFast()</text>
<text text-anchor="start" x="155" y="-1267" font-family="Helvetica,sans-Serif" font-size="10.00">+ FFInv()</text>
</a>
</g>
</g>
<!-- Node7&#45;&gt;Node5 -->
<g id="edge6" class="edge"><title>Node7&#45;&gt;Node5</title>
<path fill="none" stroke="#404040" d="M218.677,-1259.71C218.855,-1211.46 219.154,-1136.21 219.5,-1071 219.511,-1068.95 219.522,-1066.89 219.533,-1064.81"/>
<polygon fill="none" stroke="#404040" points="219.533,-1064.81 215.567,-1058.78 219.6,-1052.81 223.567,-1058.83 219.533,-1064.81"/>
<text text-anchor="middle" x="239.5" y="-1074" font-family="Helvetica,sans-Serif" font-size="10.00"> #_tables</text>
</g>
<!-- Node8 -->
<g id="node8" class="node"><title>Node8</title>
<polygon fill="none" stroke="#bfbfbf" points="330,-1282 330,-1339 383,-1339 383,-1282 330,-1282"/>
<text text-anchor="middle" x="356.5" y="-1327" font-family="Helvetica,sans-Serif" font-size="10.00">Random</text>
<polyline fill="none" stroke="#bfbfbf" points="330,-1320 383,-1320 "/>
<text text-anchor="middle" x="356.5" y="-1308" font-family="Helvetica,sans-Serif" font-size="10.00"> </text>
<polyline fill="none" stroke="#bfbfbf" points="330,-1301 383,-1301 "/>
<text text-anchor="middle" x="356.5" y="-1289" font-family="Helvetica,sans-Serif" font-size="10.00"> </text>
</g>
<!-- Node8&#45;&gt;Node2 -->
<g id="edge8" class="edge"><title>Node8&#45;&gt;Node2</title>
<path fill="none" stroke="#404040" d="M356.5,-1281.76C356.5,-1217.35 356.5,-1052.66 356.5,-915 356.5,-915 356.5,-915 356.5,-409.5 356.5,-383.319 355.066,-354.927 353.19,-328.979"/>
<polygon fill="none" stroke="#404040" points="353.178,-328.819 348.735,-323.14 352.269,-316.854 356.712,-322.534 353.178,-328.819"/>
<text text-anchor="middle" x="373.5" y="-618.5" font-family="Helvetica,sans-Serif" font-size="10.00"> ~_rand</text>
</g>
<!-- Node8&#45;&gt;Node5 -->
<g id="edge7" class="edge"><title>Node8&#45;&gt;Node5</title>
<path fill="none" stroke="#404040" d="M352.941,-1281.89C346.711,-1240.33 331.241,-1160.17 298.5,-1100 293.384,-1090.6 288.013,-1091.17 282.5,-1082 278.928,-1076.06 275.507,-1069.87 272.237,-1063.54"/>
<polygon fill="none" stroke="#404040" points="272.215,-1063.49 265.963,-1059.9 266.876,-1052.74 273.127,-1056.34 272.215,-1063.49"/>
<text text-anchor="middle" x="312.5" y="-1074" font-family="Helvetica,sans-Serif" font-size="10.00"> ~_RANDOM</text>
</g>
<!-- Node9 -->
<g id="node9" class="node"><title>Node9</title>
<g id="a_node9"><a xlink:href="../../d6/d6d/classorg_1_1msrg_1_1raccoon_1_1matrix_1_1bulk_1_1SliceMatrix.html" target="_top" xlink:title="{org.msrg.raccoon.matrix.bulk.\lSliceMatrix\n|+ _cols\l+ _MAX_COLS_PRINT\l# _b\l&#45; serialVersionUID\l|+ SliceMatrix()\l+ loadNoCopy()\l+ loadWithCopy()\l+ SliceMatrix()\l+ SliceMatrix()\l+ getContent()\l+ hasContent()\l+ clone()\l+ equals()\l+ getByte()\land 6 more...\l+ createRandomSliceMatrix()\l+ getEmptySliceMatrix()\l}">
<polygon fill="none" stroke="black" points="387.5,-797.5 387.5,-1030.5 533.5,-1030.5 533.5,-797.5 387.5,-797.5"/>
<text text-anchor="start" x="395.5" y="-1018.5" font-family="Helvetica,sans-Serif" font-size="10.00">org.msrg.raccoon.matrix.bulk.</text>
<text text-anchor="middle" x="460.5" y="-1007.5" font-family="Helvetica,sans-Serif" font-size="10.00">SliceMatrix</text>
<polyline fill="none" stroke="black" points="387.5,-1000.5 533.5,-1000.5 "/>
<text text-anchor="start" x="395.5" y="-988.5" font-family="Helvetica,sans-Serif" font-size="10.00">+ _cols</text>
<text text-anchor="start" x="395.5" y="-977.5" font-family="Helvetica,sans-Serif" font-size="10.00">+ _MAX_COLS_PRINT</text>
<text text-anchor="start" x="395.5" y="-966.5" font-family="Helvetica,sans-Serif" font-size="10.00"># _b</text>
<text text-anchor="start" x="395.5" y="-955.5" font-family="Helvetica,sans-Serif" font-size="10.00">&#45; serialVersionUID</text>
<polyline fill="none" stroke="black" points="387.5,-948.5 533.5,-948.5 "/>
<text text-anchor="start" x="395.5" y="-936.5" font-family="Helvetica,sans-Serif" font-size="10.00">+ SliceMatrix()</text>
<text text-anchor="start" x="395.5" y="-925.5" font-family="Helvetica,sans-Serif" font-size="10.00">+ loadNoCopy()</text>
<text text-anchor="start" x="395.5" y="-914.5" font-family="Helvetica,sans-Serif" font-size="10.00">+ loadWithCopy()</text>
<text text-anchor="start" x="395.5" y="-903.5" font-family="Helvetica,sans-Serif" font-size="10.00">+ SliceMatrix()</text>
<text text-anchor="start" x="395.5" y="-892.5" font-family="Helvetica,sans-Serif" font-size="10.00">+ SliceMatrix()</text>
<text text-anchor="start" x="395.5" y="-881.5" font-family="Helvetica,sans-Serif" font-size="10.00">+ getContent()</text>
<text text-anchor="start" x="395.5" y="-870.5" font-family="Helvetica,sans-Serif" font-size="10.00">+ hasContent()</text>
<text text-anchor="start" x="395.5" y="-859.5" font-family="Helvetica,sans-Serif" font-size="10.00">+ clone()</text>
<text text-anchor="start" x="395.5" y="-848.5" font-family="Helvetica,sans-Serif" font-size="10.00">+ equals()</text>
<text text-anchor="start" x="395.5" y="-837.5" font-family="Helvetica,sans-Serif" font-size="10.00">+ getByte()</text>
<text text-anchor="start" x="395.5" y="-826.5" font-family="Helvetica,sans-Serif" font-size="10.00">and 6 more...</text>
<text text-anchor="start" x="395.5" y="-815.5" font-family="Helvetica,sans-Serif" font-size="10.00">+ createRandomSliceMatrix()</text>
<text text-anchor="start" x="395.5" y="-804.5" font-family="Helvetica,sans-Serif" font-size="10.00">+ getEmptySliceMatrix()</text>
</a>
</g>
</g>
<!-- Node8&#45;&gt;Node9 -->
<g id="edge11" class="edge"><title>Node8&#45;&gt;Node9</title>
<path fill="none" stroke="#404040" d="M359.701,-1281.92C365.297,-1237.1 378.322,-1145.9 399.5,-1071 402.144,-1061.65 405.137,-1052.08 408.343,-1042.51"/>
<polygon fill="none" stroke="#404040" points="408.449,-1042.21 406.616,-1035.23 412.349,-1030.86 414.182,-1037.83 408.449,-1042.21"/>
<text text-anchor="middle" x="429" y="-1074" font-family="Helvetica,sans-Serif" font-size="10.00"> #_RANDOM</text>
</g>
<!-- Node9&#45;&gt;Node1 -->
<g id="edge9" class="edge"><title>Node9&#45;&gt;Node1</title>
<path fill="none" stroke="#404040" d="M460.5,-797.236C460.5,-743.88 460.5,-679.72 460.5,-622 460.5,-622 460.5,-622 460.5,-237.5 460.5,-199.625 452.15,-158.262 443.178,-124.748"/>
<polygon fill="none" stroke="#404040" points="443.065,-124.341 437.607,-119.628 439.858,-112.777 445.316,-117.49 443.065,-124.341"/>
<text text-anchor="middle" x="498.5" y="-408" font-family="Helvetica,sans-Serif" font-size="10.00"> +_codedContent</text>
</g>
<!-- Node10 -->
<g id="node10" class="node"><title>Node10</title>
<polygon fill="none" stroke="#bfbfbf" points="430,-1282 430,-1339 497,-1339 497,-1282 430,-1282"/>
<text text-anchor="middle" x="463.5" y="-1327" font-family="Helvetica,sans-Serif" font-size="10.00">Serializable</text>
<polyline fill="none" stroke="#bfbfbf" points="430,-1320 497,-1320 "/>
<text text-anchor="middle" x="463.5" y="-1308" font-family="Helvetica,sans-Serif" font-size="10.00"> </text>
<polyline fill="none" stroke="#bfbfbf" points="430,-1301 497,-1301 "/>
<text text-anchor="middle" x="463.5" y="-1289" font-family="Helvetica,sans-Serif" font-size="10.00"> </text>
</g>
<!-- Node10&#45;&gt;Node9 -->
<g id="edge10" class="edge"><title>Node10&#45;&gt;Node9</title>
<path fill="none" stroke="midnightblue" d="M463.21,-1271.43C462.792,-1216.39 462,-1112.25 461.38,-1030.7"/>
<polygon fill="none" stroke="midnightblue" points="459.713,-1271.79 463.289,-1281.76 466.713,-1271.73 459.713,-1271.79"/>
</g>
</g>
</svg>
