<?xml version="1.0" encoding="UTF-8" standalone="no"?>
<!DOCTYPE svg PUBLIC "-//W3C//DTD SVG 1.1//EN"
 "http://www.w3.org/Graphics/SVG/1.1/DTD/svg11.dtd">
<!-- Generated by graphviz version 2.38.0 (20140413.2041)
 -->
<!-- Title: org.msrg.raccoon.engine.task.sequential.BulkMatrixEqual_CodingTask Pages: 1 -->
<svg width="1497pt" height="1314pt"
 viewBox="0.00 0.00 1496.50 1314.00" xmlns="http://www.w3.org/2000/svg" xmlns:xlink="http://www.w3.org/1999/xlink">
<g id="graph0" class="graph" transform="scale(1 1) rotate(0) translate(4 1310)">
<title>org.msrg.raccoon.engine.task.sequential.BulkMatrixEqual_CodingTask</title>
<!-- Node4 -->
<g id="node1" class="node"><title>Node4</title>
<polygon fill="#bfbfbf" stroke="black" points="898.5,-0.5 898.5,-134.5 1094.5,-134.5 1094.5,-0.5 898.5,-0.5"/>
<text text-anchor="start" x="906.5" y="-122.5" font-family="Helvetica,sans-Serif" font-size="10.00">org.msrg.raccoon.engine.task.sequential.</text>
<text text-anchor="middle" x="996.5" y="-111.5" font-family="Helvetica,sans-Serif" font-size="10.00">BulkMatrixEqual_CodingTask</text>
<polyline fill="none" stroke="black" points="898.5,-104.5 1094.5,-104.5 "/>
<text text-anchor="start" x="906.5" y="-92.5" font-family="Helvetica,sans-Serif" font-size="10.00"># FINAL_STAGE</text>
<polyline fill="none" stroke="black" points="898.5,-85.5 1094.5,-85.5 "/>
<text text-anchor="start" x="906.5" y="-73.5" font-family="Helvetica,sans-Serif" font-size="10.00">+ BulkMatrixEqual_CodingTask()</text>
<text text-anchor="start" x="906.5" y="-62.5" font-family="Helvetica,sans-Serif" font-size="10.00">+ codingFailed()</text>
<text text-anchor="start" x="906.5" y="-51.5" font-family="Helvetica,sans-Serif" font-size="10.00">+ codingFinished()</text>
<text text-anchor="start" x="906.5" y="-40.5" font-family="Helvetica,sans-Serif" font-size="10.00">+ codingStarted()</text>
<text text-anchor="start" x="906.5" y="-29.5" font-family="Helvetica,sans-Serif" font-size="10.00"># runStagePrivately()</text>
<text text-anchor="start" x="906.5" y="-18.5" font-family="Helvetica,sans-Serif" font-size="10.00"># getEmptyCodingResults()</text>
<text text-anchor="start" x="906.5" y="-7.5" font-family="Helvetica,sans-Serif" font-size="10.00"># getFinalStage()</text>
</g>
<!-- Node5 -->
<g id="node2" class="node"><title>Node5</title>
<g id="a_node2"><a xlink:href="../../d6/d78/classorg_1_1msrg_1_1raccoon_1_1engine_1_1task_1_1sequential_1_1SequentialCodingTask.html" target="_top" xlink:title="{org.msrg.raccoon.engine.task.sequential.\lSequentialCodingTask\n|# _currentStage\l&#45; _stageTimes\l|+ runInitialSequencialTasks()\l+ codingFailed()\l+ codingFinished()\l+ codingStarted()\l+ finished()\l+ failed()\l+ getStageTimes()\l+ codingPreliminaryStageCompleted()\l# SequentialCodingTask()\l# runStagePrivately()\l# reachedFinalStage()\l# getFinalStage()\l# setCurrentStage()\l}">
<polygon fill="none" stroke="black" points="728.5,-573.5 728.5,-784.5 924.5,-784.5 924.5,-573.5 728.5,-573.5"/>
<text text-anchor="start" x="736.5" y="-772.5" font-family="Helvetica,sans-Serif" font-size="10.00">org.msrg.raccoon.engine.task.sequential.</text>
<text text-anchor="middle" x="826.5" y="-761.5" font-family="Helvetica,sans-Serif" font-size="10.00">SequentialCodingTask</text>
<polyline fill="none" stroke="black" points="728.5,-754.5 924.5,-754.5 "/>
<text text-anchor="start" x="736.5" y="-742.5" font-family="Helvetica,sans-Serif" font-size="10.00"># _currentStage</text>
<text text-anchor="start" x="736.5" y="-731.5" font-family="Helvetica,sans-Serif" font-size="10.00">&#45; _stageTimes</text>
<polyline fill="none" stroke="black" points="728.5,-724.5 924.5,-724.5 "/>
<text text-anchor="start" x="736.5" y="-712.5" font-family="Helvetica,sans-Serif" font-size="10.00">+ runInitialSequencialTasks()</text>
<text text-anchor="start" x="736.5" y="-701.5" font-family="Helvetica,sans-Serif" font-size="10.00">+ codingFailed()</text>
<text text-anchor="start" x="736.5" y="-690.5" font-family="Helvetica,sans-Serif" font-size="10.00">+ codingFinished()</text>
<text text-anchor="start" x="736.5" y="-679.5" font-family="Helvetica,sans-Serif" font-size="10.00">+ codingStarted()</text>
<text text-anchor="start" x="736.5" y="-668.5" font-family="Helvetica,sans-Serif" font-size="10.00">+ finished()</text>
<text text-anchor="start" x="736.5" y="-657.5" font-family="Helvetica,sans-Serif" font-size="10.00">+ failed()</text>
<text text-anchor="start" x="736.5" y="-646.5" font-family="Helvetica,sans-Serif" font-size="10.00">+ getStageTimes()</text>
<text text-anchor="start" x="736.5" y="-635.5" font-family="Helvetica,sans-Serif" font-size="10.00">+ codingPreliminaryStageCompleted()</text>
<text text-anchor="start" x="736.5" y="-624.5" font-family="Helvetica,sans-Serif" font-size="10.00"># SequentialCodingTask()</text>
<text text-anchor="start" x="736.5" y="-613.5" font-family="Helvetica,sans-Serif" font-size="10.00"># runStagePrivately()</text>
<text text-anchor="start" x="736.5" y="-602.5" font-family="Helvetica,sans-Serif" font-size="10.00"># reachedFinalStage()</text>
<text text-anchor="start" x="736.5" y="-591.5" font-family="Helvetica,sans-Serif" font-size="10.00"># getFinalStage()</text>
<text text-anchor="start" x="736.5" y="-580.5" font-family="Helvetica,sans-Serif" font-size="10.00"># setCurrentStage()</text>
</a>
</g>
</g>
<!-- Node5&#45;&gt;Node4 -->
<g id="edge1" class="edge"><title>Node5&#45;&gt;Node4</title>
<path fill="none" stroke="midnightblue" d="M858.439,-563.489C893.717,-437.008 949.316,-237.668 978.007,-134.802"/>
<polygon fill="none" stroke="midnightblue" points="855.039,-562.651 855.724,-573.223 861.782,-564.531 855.039,-562.651"/>
</g>
<!-- Node6 -->
<g id="node3" class="node"><title>Node6</title>
<g id="a_node3"><a xlink:href="../../d9/d22/classorg_1_1msrg_1_1raccoon_1_1engine_1_1task_1_1CodingTask.html" target="_top" xlink:title="{org.msrg.raccoon.engine.task.\lCodingTask\n||+ getCodingResults()\l+ getStatus()\l+ isStarted()\l+ isFinished()\l+ isFailed()\l+ failed()\l+ started()\l+ finished()\l+ isSequencial()\l+ equals()\l+ hashCode()\l# CodingTask()\l# getEmptyCodingResults()\l# changeStatus()\l}">
<polygon fill="none" stroke="black" points="333,-901.5 333,-1112.5 482,-1112.5 482,-901.5 333,-901.5"/>
<text text-anchor="start" x="341" y="-1100.5" font-family="Helvetica,sans-Serif" font-size="10.00">org.msrg.raccoon.engine.task.</text>
<text text-anchor="middle" x="407.5" y="-1089.5" font-family="Helvetica,sans-Serif" font-size="10.00">CodingTask</text>
<polyline fill="none" stroke="black" points="333,-1082.5 482,-1082.5 "/>
<text text-anchor="middle" x="407.5" y="-1070.5" font-family="Helvetica,sans-Serif" font-size="10.00"> </text>
<polyline fill="none" stroke="black" points="333,-1063.5 482,-1063.5 "/>
<text text-anchor="start" x="341" y="-1051.5" font-family="Helvetica,sans-Serif" font-size="10.00">+ getCodingResults()</text>
<text text-anchor="start" x="341" y="-1040.5" font-family="Helvetica,sans-Serif" font-size="10.00">+ getStatus()</text>
<text text-anchor="start" x="341" y="-1029.5" font-family="Helvetica,sans-Serif" font-size="10.00">+ isStarted()</text>
<text text-anchor="start" x="341" y="-1018.5" font-family="Helvetica,sans-Serif" font-size="10.00">+ isFinished()</text>
<text text-anchor="start" x="341" y="-1007.5" font-family="Helvetica,sans-Serif" font-size="10.00">+ isFailed()</text>
<text text-anchor="start" x="341" y="-996.5" font-family="Helvetica,sans-Serif" font-size="10.00">+ failed()</text>
<text text-anchor="start" x="341" y="-985.5" font-family="Helvetica,sans-Serif" font-size="10.00">+ started()</text>
<text text-anchor="start" x="341" y="-974.5" font-family="Helvetica,sans-Serif" font-size="10.00">+ finished()</text>
<text text-anchor="start" x="341" y="-963.5" font-family="Helvetica,sans-Serif" font-size="10.00">+ isSequencial()</text>
<text text-anchor="start" x="341" y="-952.5" font-family="Helvetica,sans-Serif" font-size="10.00">+ equals()</text>
<text text-anchor="start" x="341" y="-941.5" font-family="Helvetica,sans-Serif" font-size="10.00">+ hashCode()</text>
<text text-anchor="start" x="341" y="-930.5" font-family="Helvetica,sans-Serif" font-size="10.00"># CodingTask()</text>
<text text-anchor="start" x="341" y="-919.5" font-family="Helvetica,sans-Serif" font-size="10.00"># getEmptyCodingResults()</text>
<text text-anchor="start" x="341" y="-908.5" font-family="Helvetica,sans-Serif" font-size="10.00"># changeStatus()</text>
</a>
</g>
</g>
<!-- Node6&#45;&gt;Node5 -->
<g id="edge2" class="edge"><title>Node6&#45;&gt;Node5</title>
<path fill="none" stroke="midnightblue" d="M489.441,-901.976C489.794,-901.649 490.147,-901.324 490.5,-901 563.206,-834.367 657.971,-773.984 728.317,-733.24"/>
<polygon fill="none" stroke="midnightblue" points="486.865,-899.597 482.088,-909.054 491.72,-904.641 486.865,-899.597"/>
</g>
<!-- Node9 -->
<g id="node6" class="node"><title>Node9</title>
<g id="a_node6"><a xlink:href="../../df/d3e/classorg_1_1msrg_1_1raccoon_1_1engine_1_1task_1_1result_1_1CodingResult.html" target="_top" xlink:title="{org.msrg.raccoon.engine.task.result.\lCodingResult\n||+ equals()\l+ hashCode()\l+ getStatus()\l+ setStatus()\l+ isStarted()\l+ isFailed()\l+ isFinished()\l# CodingResult()\l}">
<polygon fill="none" stroke="black" points="226.5,-606.5 226.5,-751.5 402.5,-751.5 402.5,-606.5 226.5,-606.5"/>
<text text-anchor="start" x="234.5" y="-739.5" font-family="Helvetica,sans-Serif" font-size="10.00">org.msrg.raccoon.engine.task.result.</text>
<text text-anchor="middle" x="314.5" y="-728.5" font-family="Helvetica,sans-Serif" font-size="10.00">CodingResult</text>
<polyline fill="none" stroke="black" points="226.5,-721.5 402.5,-721.5 "/>
<text text-anchor="middle" x="314.5" y="-709.5" font-family="Helvetica,sans-Serif" font-size="10.00"> </text>
<polyline fill="none" stroke="black" points="226.5,-702.5 402.5,-702.5 "/>
<text text-anchor="start" x="234.5" y="-690.5" font-family="Helvetica,sans-Serif" font-size="10.00">+ equals()</text>
<text text-anchor="start" x="234.5" y="-679.5" font-family="Helvetica,sans-Serif" font-size="10.00">+ hashCode()</text>
<text text-anchor="start" x="234.5" y="-668.5" font-family="Helvetica,sans-Serif" font-size="10.00">+ getStatus()</text>
<text text-anchor="start" x="234.5" y="-657.5" font-family="Helvetica,sans-Serif" font-size="10.00">+ setStatus()</text>
<text text-anchor="start" x="234.5" y="-646.5" font-family="Helvetica,sans-Serif" font-size="10.00">+ isStarted()</text>
<text text-anchor="start" x="234.5" y="-635.5" font-family="Helvetica,sans-Serif" font-size="10.00">+ isFailed()</text>
<text text-anchor="start" x="234.5" y="-624.5" font-family="Helvetica,sans-Serif" font-size="10.00">+ isFinished()</text>
<text text-anchor="start" x="234.5" y="-613.5" font-family="Helvetica,sans-Serif" font-size="10.00"># CodingResult()</text>
</a>
</g>
</g>
<!-- Node6&#45;&gt;Node9 -->
<g id="edge6" class="edge"><title>Node6&#45;&gt;Node9</title>
<path fill="none" stroke="#404040" d="M395.877,-901.182C391.274,-872.549 384.99,-841.769 376.5,-814 371.324,-797.071 364.428,-779.523 357.118,-762.923"/>
<polygon fill="none" stroke="#404040" points="356.944,-762.538 350.83,-758.716 352.006,-751.601 358.121,-755.424 356.944,-762.538"/>
<text text-anchor="middle" x="413.5" y="-846" font-family="Helvetica,sans-Serif" font-size="10.00"> +_cTask</text>
</g>
<!-- Node7 -->
<g id="node4" class="node"><title>Node7</title>
<g id="a_node4"><a xlink:href="../../d6/d58/interfaceorg_1_1msrg_1_1raccoon_1_1engine_1_1ICodingListener.html" target="_top" xlink:title="{org.msrg.raccoon.engine.\lICodingListener\n||+ codingStarted()\l+ codingPreliminaryStageCompleted()\l+ codingFailed()\l+ codingFinished()\l}">
<polygon fill="none" stroke="black" points="682.5,-1193.5 682.5,-1294.5 864.5,-1294.5 864.5,-1193.5 682.5,-1193.5"/>
<text text-anchor="start" x="690.5" y="-1282.5" font-family="Helvetica,sans-Serif" font-size="10.00">org.msrg.raccoon.engine.</text>
<text text-anchor="middle" x="773.5" y="-1271.5" font-family="Helvetica,sans-Serif" font-size="10.00">ICodingListener</text>
<polyline fill="none" stroke="black" points="682.5,-1264.5 864.5,-1264.5 "/>
<text text-anchor="middle" x="773.5" y="-1252.5" font-family="Helvetica,sans-Serif" font-size="10.00"> </text>
<polyline fill="none" stroke="black" points="682.5,-1245.5 864.5,-1245.5 "/>
<text text-anchor="start" x="690.5" y="-1233.5" font-family="Helvetica,sans-Serif" font-size="10.00">+ codingStarted()</text>
<text text-anchor="start" x="690.5" y="-1222.5" font-family="Helvetica,sans-Serif" font-size="10.00">+ codingPreliminaryStageCompleted()</text>
<text text-anchor="start" x="690.5" y="-1211.5" font-family="Helvetica,sans-Serif" font-size="10.00">+ codingFailed()</text>
<text text-anchor="start" x="690.5" y="-1200.5" font-family="Helvetica,sans-Serif" font-size="10.00">+ codingFinished()</text>
</a>
</g>
</g>
<!-- Node7&#45;&gt;Node5 -->
<g id="edge12" class="edge"><title>Node7&#45;&gt;Node5</title>
<path fill="none" stroke="midnightblue" d="M824.097,-1185.11C839.542,-1163.88 854.539,-1138.72 862.5,-1113 896.067,-1004.55 877.724,-873.961 856.905,-784.747"/>
<polygon fill="none" stroke="midnightblue" points="821.122,-1183.24 817.938,-1193.35 826.729,-1187.43 821.122,-1183.24"/>
</g>
<!-- Node7&#45;&gt;Node6 -->
<g id="edge3" class="edge"><title>Node7&#45;&gt;Node6</title>
<path fill="none" stroke="#404040" d="M682.379,-1213.68C626.588,-1192.98 555.343,-1161.46 491.842,-1113.51"/>
<polygon fill="none" stroke="#404040" points="491.619,-1113.34 484.426,-1112.83 482.127,-1106 489.32,-1106.51 491.619,-1113.34"/>
<text text-anchor="middle" x="592.5" y="-1145" font-family="Helvetica,sans-Serif" font-size="10.00"> +_listener</text>
</g>
<!-- Node8 -->
<g id="node5" class="node"><title>Node8</title>
<g id="a_node5"><a xlink:href="../../d5/d15/classorg_1_1msrg_1_1raccoon_1_1engine_1_1task_1_1CodingId.html" target="_top" xlink:title="{org.msrg.raccoon.engine.task.\lCodingId\n|&#45; _id\l&#45; _lastId\l|+ equals()\l+ hashCode()\l+ toString()\l+ getNewCodingId()\l&#45; CodingId()\l}">
<polygon fill="none" stroke="black" points="219,-1182.5 219,-1305.5 368,-1305.5 368,-1182.5 219,-1182.5"/>
<text text-anchor="start" x="227" y="-1293.5" font-family="Helvetica,sans-Serif" font-size="10.00">org.msrg.raccoon.engine.task.</text>
<text text-anchor="middle" x="293.5" y="-1282.5" font-family="Helvetica,sans-Serif" font-size="10.00">CodingId</text>
<polyline fill="none" stroke="black" points="219,-1275.5 368,-1275.5 "/>
<text text-anchor="start" x="227" y="-1263.5" font-family="Helvetica,sans-Serif" font-size="10.00">&#45; _id</text>
<text text-anchor="start" x="227" y="-1252.5" font-family="Helvetica,sans-Serif" font-size="10.00">&#45; _lastId</text>
<polyline fill="none" stroke="black" points="219,-1245.5 368,-1245.5 "/>
<text text-anchor="start" x="227" y="-1233.5" font-family="Helvetica,sans-Serif" font-size="10.00">+ equals()</text>
<text text-anchor="start" x="227" y="-1222.5" font-family="Helvetica,sans-Serif" font-size="10.00">+ hashCode()</text>
<text text-anchor="start" x="227" y="-1211.5" font-family="Helvetica,sans-Serif" font-size="10.00">+ toString()</text>
<text text-anchor="start" x="227" y="-1200.5" font-family="Helvetica,sans-Serif" font-size="10.00">+ getNewCodingId()</text>
<text text-anchor="start" x="227" y="-1189.5" font-family="Helvetica,sans-Serif" font-size="10.00">&#45; CodingId()</text>
</a>
</g>
</g>
<!-- Node8&#45;&gt;Node6 -->
<g id="edge4" class="edge"><title>Node8&#45;&gt;Node6</title>
<path fill="none" stroke="#404040" d="M322.858,-1182.48C331.637,-1164.38 341.572,-1143.91 351.467,-1123.51"/>
<polygon fill="none" stroke="#404040" points="351.554,-1123.33 350.574,-1116.18 356.791,-1112.53 357.771,-1119.68 351.554,-1123.33"/>
<text text-anchor="middle" x="358.5" y="-1145" font-family="Helvetica,sans-Serif" font-size="10.00"> +_id</text>
</g>
<!-- Node8&#45;&gt;Node9 -->
<g id="edge8" class="edge"><title>Node8&#45;&gt;Node9</title>
<path fill="none" stroke="#404040" d="M294.27,-1182.44C295.29,-1114.06 297.452,-999.506 301.5,-901 303.363,-855.66 306.273,-805.134 308.868,-763.85"/>
<polygon fill="none" stroke="#404040" points="308.883,-763.605 305.271,-757.364 309.643,-751.629 313.255,-757.871 308.883,-763.605"/>
<text text-anchor="middle" x="312.5" y="-1004.5" font-family="Helvetica,sans-Serif" font-size="10.00"> +_id</text>
</g>
<!-- Node9&#45;&gt;Node6 -->
<g id="edge5" class="edge"><title>Node9&#45;&gt;Node6</title>
<path fill="none" stroke="#404040" d="M315.61,-751.954C317.954,-791.46 323.76,-840.847 337.5,-883 338.242,-885.278 339.03,-887.56 339.858,-889.844"/>
<polygon fill="none" stroke="#404040" points="339.949,-890.078 345.858,-894.212 344.314,-901.256 338.405,-897.122 339.949,-890.078"/>
<text text-anchor="middle" x="357" y="-846" font-family="Helvetica,sans-Serif" font-size="10.00"> +_result</text>
</g>
<!-- Node22 -->
<g id="node19" class="node"><title>Node22</title>
<g id="a_node19"><a xlink:href="../../db/d63/classorg_1_1msrg_1_1raccoon_1_1engine_1_1task_1_1result_1_1Equals__CodingResult.html" target="_top" xlink:title="{org.msrg.raccoon.engine.task.result.\lEquals_CodingResult\n|# _equals\l|+ Equals_CodingResult()\l+ getResult()\l+ setResult()\l+ toString()\l}">
<polygon fill="none" stroke="black" points="509.5,-303.5 509.5,-404.5 685.5,-404.5 685.5,-303.5 509.5,-303.5"/>
<text text-anchor="start" x="517.5" y="-392.5" font-family="Helvetica,sans-Serif" font-size="10.00">org.msrg.raccoon.engine.task.result.</text>
<text text-anchor="middle" x="597.5" y="-381.5" font-family="Helvetica,sans-Serif" font-size="10.00">Equals_CodingResult</text>
<polyline fill="none" stroke="black" points="509.5,-374.5 685.5,-374.5 "/>
<text text-anchor="start" x="517.5" y="-362.5" font-family="Helvetica,sans-Serif" font-size="10.00"># _equals</text>
<polyline fill="none" stroke="black" points="509.5,-355.5 685.5,-355.5 "/>
<text text-anchor="start" x="517.5" y="-343.5" font-family="Helvetica,sans-Serif" font-size="10.00">+ Equals_CodingResult()</text>
<text text-anchor="start" x="517.5" y="-332.5" font-family="Helvetica,sans-Serif" font-size="10.00">+ getResult()</text>
<text text-anchor="start" x="517.5" y="-321.5" font-family="Helvetica,sans-Serif" font-size="10.00">+ setResult()</text>
<text text-anchor="start" x="517.5" y="-310.5" font-family="Helvetica,sans-Serif" font-size="10.00">+ toString()</text>
</a>
</g>
</g>
<!-- Node9&#45;&gt;Node22 -->
<g id="edge26" class="edge"><title>Node9&#45;&gt;Node22</title>
<path fill="none" stroke="midnightblue" d="M384.007,-598.669C437.038,-538.142 508.46,-456.625 553.752,-404.932"/>
<polygon fill="none" stroke="midnightblue" points="381.264,-596.488 377.307,-606.316 386.529,-601.101 381.264,-596.488"/>
</g>
<!-- Node10 -->
<g id="node7" class="node"><title>Node10</title>
<g id="a_node7"><a xlink:href="../../d1/dce/namespaceorg_1_1msrg_1_1raccoon_1_1engine_1_1task_1_1result.html#de/d82/enumorg_1_1msrg_1_1raccoon_1_1engine_1_1task_1_1result_1_1CodingResultsType" target="_top" xlink:title="{org.msrg.raccoon.engine.task.result.\lCodingResultsType\n|+ BOOLEAN\l+ NC_MATRIX\l+ BULK_MATRIX\l+ CODED_SLICE_MATRIX\l+ SLICE_MATRIX\l+ CODED_SLICE\l+ FILE_RESULT\l|}">
<polygon fill="none" stroke="black" points="81.5,-940 81.5,-1074 257.5,-1074 257.5,-940 81.5,-940"/>
<text text-anchor="start" x="89.5" y="-1062" font-family="Helvetica,sans-Serif" font-size="10.00">org.msrg.raccoon.engine.task.result.</text>
<text text-anchor="middle" x="169.5" y="-1051" font-family="Helvetica,sans-Serif" font-size="10.00">CodingResultsType</text>
<polyline fill="none" stroke="black" points="81.5,-1044 257.5,-1044 "/>
<text text-anchor="start" x="89.5" y="-1032" font-family="Helvetica,sans-Serif" font-size="10.00">+ BOOLEAN</text>
<text text-anchor="start" x="89.5" y="-1021" font-family="Helvetica,sans-Serif" font-size="10.00">+ NC_MATRIX</text>
<text text-anchor="start" x="89.5" y="-1010" font-family="Helvetica,sans-Serif" font-size="10.00">+ BULK_MATRIX</text>
<text text-anchor="start" x="89.5" y="-999" font-family="Helvetica,sans-Serif" font-size="10.00">+ CODED_SLICE_MATRIX</text>
<text text-anchor="start" x="89.5" y="-988" font-family="Helvetica,sans-Serif" font-size="10.00">+ SLICE_MATRIX</text>
<text text-anchor="start" x="89.5" y="-977" font-family="Helvetica,sans-Serif" font-size="10.00">+ CODED_SLICE</text>
<text text-anchor="start" x="89.5" y="-966" font-family="Helvetica,sans-Serif" font-size="10.00">+ FILE_RESULT</text>
<polyline fill="none" stroke="black" points="81.5,-959 257.5,-959 "/>
<text text-anchor="middle" x="169.5" y="-947" font-family="Helvetica,sans-Serif" font-size="10.00"> </text>
</a>
</g>
</g>
<!-- Node10&#45;&gt;Node9 -->
<g id="edge7" class="edge"><title>Node10&#45;&gt;Node9</title>
<path fill="none" stroke="#404040" d="M177.648,-939.764C184.031,-901.685 195.031,-853.685 213.5,-814 221.847,-796.065 232.872,-778.216 244.568,-761.67"/>
<polygon fill="none" stroke="#404040" points="244.868,-761.257 245.156,-754.051 251.918,-751.546 251.63,-758.752 244.868,-761.257"/>
<text text-anchor="middle" x="246.5" y="-846" font-family="Helvetica,sans-Serif" font-size="10.00"> +_resultsType</text>
</g>
<!-- Node11 -->
<g id="node8" class="node"><title>Node11</title>
<g id="a_node8"><a xlink:href="../../df/de9/namespaceorg_1_1msrg_1_1raccoon_1_1engine_1_1task.html#dd/d1c/enumorg_1_1msrg_1_1raccoon_1_1engine_1_1task_1_1CodingTaskStatus" target="_top" xlink:title="{org.msrg.raccoon.engine.task.\lCodingTaskStatus\n|+ CREATED\l+ STARTED\l+ FINISHED\l+ FAILED\l|}">
<polygon fill="none" stroke="black" points="0,-1193.5 0,-1294.5 149,-1294.5 149,-1193.5 0,-1193.5"/>
<text text-anchor="start" x="8" y="-1282.5" font-family="Helvetica,sans-Serif" font-size="10.00">org.msrg.raccoon.engine.task.</text>
<text text-anchor="middle" x="74.5" y="-1271.5" font-family="Helvetica,sans-Serif" font-size="10.00">CodingTaskStatus</text>
<polyline fill="none" stroke="black" points="0,-1264.5 149,-1264.5 "/>
<text text-anchor="start" x="8" y="-1252.5" font-family="Helvetica,sans-Serif" font-size="10.00">+ CREATED</text>
<text text-anchor="start" x="8" y="-1241.5" font-family="Helvetica,sans-Serif" font-size="10.00">+ STARTED</text>
<text text-anchor="start" x="8" y="-1230.5" font-family="Helvetica,sans-Serif" font-size="10.00">+ FINISHED</text>
<text text-anchor="start" x="8" y="-1219.5" font-family="Helvetica,sans-Serif" font-size="10.00">+ FAILED</text>
<polyline fill="none" stroke="black" points="0,-1212.5 149,-1212.5 "/>
<text text-anchor="middle" x="74.5" y="-1200.5" font-family="Helvetica,sans-Serif" font-size="10.00"> </text>
</a>
</g>
</g>
<!-- Node11&#45;&gt;Node6 -->
<g id="edge10" class="edge"><title>Node11&#45;&gt;Node6</title>
<path fill="none" stroke="#404040" d="M149.187,-1204.25C218.476,-1168.17 312.027,-1119.05 319.5,-1113 320.915,-1111.85 322.325,-1110.68 323.727,-1109.49"/>
<polygon fill="none" stroke="#404040" points="323.932,-1109.31 325.736,-1102.32 332.875,-1101.3 331.071,-1108.29 323.932,-1109.31"/>
<text text-anchor="middle" x="305" y="-1145" font-family="Helvetica,sans-Serif" font-size="10.00"> #_status</text>
</g>
<!-- Node11&#45;&gt;Node9 -->
<g id="edge9" class="edge"><title>Node11&#45;&gt;Node9</title>
<path fill="none" stroke="#404040" d="M51.8306,-1193.47C23.7178,-1124.32 -15.1404,-996.599 31.5,-901 69.6263,-822.852 150.221,-764.254 215.687,-727.103"/>
<polygon fill="none" stroke="#404040" points="215.986,-726.936 219.281,-720.523 226.47,-721.098 223.174,-727.512 215.986,-726.936"/>
<text text-anchor="middle" x="52" y="-1004.5" font-family="Helvetica,sans-Serif" font-size="10.00"> #_status</text>
</g>
<!-- Node12 -->
<g id="node9" class="node"><title>Node12</title>
<g id="a_node9"><a xlink:href="../../d5/da9/enumorg_1_1msrg_1_1raccoon_1_1engine_1_1task_1_1CodingTaskType.html" target="_top" xlink:title="{org.msrg.raccoon.engine.task.\lCodingTaskType\n|+ FILE_TASK\l+ SLICES_EQUAL\l+ MULTIPLY\l+ INVERSE\l+ SEQUENCIAL\l+ _isSequencial\l|+ CodingTaskType()\l}">
<polygon fill="none" stroke="black" points="386,-1182.5 386,-1305.5 535,-1305.5 535,-1182.5 386,-1182.5"/>
<text text-anchor="start" x="394" y="-1293.5" font-family="Helvetica,sans-Serif" font-size="10.00">org.msrg.raccoon.engine.task.</text>
<text text-anchor="middle" x="460.5" y="-1282.5" font-family="Helvetica,sans-Serif" font-size="10.00">CodingTaskType</text>
<polyline fill="none" stroke="black" points="386,-1275.5 535,-1275.5 "/>
<text text-anchor="start" x="394" y="-1263.5" font-family="Helvetica,sans-Serif" font-size="10.00">+ FILE_TASK</text>
<text text-anchor="start" x="394" y="-1252.5" font-family="Helvetica,sans-Serif" font-size="10.00">+ SLICES_EQUAL</text>
<text text-anchor="start" x="394" y="-1241.5" font-family="Helvetica,sans-Serif" font-size="10.00">+ MULTIPLY</text>
<text text-anchor="start" x="394" y="-1230.5" font-family="Helvetica,sans-Serif" font-size="10.00">+ INVERSE</text>
<text text-anchor="start" x="394" y="-1219.5" font-family="Helvetica,sans-Serif" font-size="10.00">+ SEQUENCIAL</text>
<text text-anchor="start" x="394" y="-1208.5" font-family="Helvetica,sans-Serif" font-size="10.00">+ _isSequencial</text>
<polyline fill="none" stroke="black" points="386,-1201.5 535,-1201.5 "/>
<text text-anchor="start" x="394" y="-1189.5" font-family="Helvetica,sans-Serif" font-size="10.00">+ CodingTaskType()</text>
</a>
</g>
</g>
<!-- Node12&#45;&gt;Node6 -->
<g id="edge11" class="edge"><title>Node12&#45;&gt;Node6</title>
<path fill="none" stroke="#404040" d="M446.851,-1182.48C442.826,-1164.63 438.279,-1144.47 433.741,-1124.35"/>
<polygon fill="none" stroke="#404040" points="433.715,-1124.24 428.493,-1119.26 431.075,-1112.53 436.297,-1117.5 433.715,-1124.24"/>
<text text-anchor="middle" x="470" y="-1145" font-family="Helvetica,sans-Serif" font-size="10.00"> +_taskType</text>
</g>
<!-- Node13 -->
<g id="node10" class="node"><title>Node13</title>
<g id="a_node10"><a xlink:href="../../dd/dff/interfaceorg_1_1msrg_1_1raccoon_1_1engine_1_1ICodingEngine.html" target="_top" xlink:title="{org.msrg.raccoon.engine.\lICodingEngine\n||+ init()\l+ startComponent()\l+ registerCodingListener()\l+ deregisterCodingListener()\l+ encode()\l+ decode()\l+ multiply()\l+ multiply()\l+ inverse()\l+ checkEquality()\l+ checkEquality()\l+ getFreeThreadsCount()\l+ getBusyThreadsCount()\l+ getTotalThreadsCount()\l}">
<polygon fill="none" stroke="black" points="713.5,-901.5 713.5,-1112.5 853.5,-1112.5 853.5,-901.5 713.5,-901.5"/>
<text text-anchor="start" x="721.5" y="-1100.5" font-family="Helvetica,sans-Serif" font-size="10.00">org.msrg.raccoon.engine.</text>
<text text-anchor="middle" x="783.5" y="-1089.5" font-family="Helvetica,sans-Serif" font-size="10.00">ICodingEngine</text>
<polyline fill="none" stroke="black" points="713.5,-1082.5 853.5,-1082.5 "/>
<text text-anchor="middle" x="783.5" y="-1070.5" font-family="Helvetica,sans-Serif" font-size="10.00"> </text>
<polyline fill="none" stroke="black" points="713.5,-1063.5 853.5,-1063.5 "/>
<text text-anchor="start" x="721.5" y="-1051.5" font-family="Helvetica,sans-Serif" font-size="10.00">+ init()</text>
<text text-anchor="start" x="721.5" y="-1040.5" font-family="Helvetica,sans-Serif" font-size="10.00">+ startComponent()</text>
<text text-anchor="start" x="721.5" y="-1029.5" font-family="Helvetica,sans-Serif" font-size="10.00">+ registerCodingListener()</text>
<text text-anchor="start" x="721.5" y="-1018.5" font-family="Helvetica,sans-Serif" font-size="10.00">+ deregisterCodingListener()</text>
<text text-anchor="start" x="721.5" y="-1007.5" font-family="Helvetica,sans-Serif" font-size="10.00">+ encode()</text>
<text text-anchor="start" x="721.5" y="-996.5" font-family="Helvetica,sans-Serif" font-size="10.00">+ decode()</text>
<text text-anchor="start" x="721.5" y="-985.5" font-family="Helvetica,sans-Serif" font-size="10.00">+ multiply()</text>
<text text-anchor="start" x="721.5" y="-974.5" font-family="Helvetica,sans-Serif" font-size="10.00">+ multiply()</text>
<text text-anchor="start" x="721.5" y="-963.5" font-family="Helvetica,sans-Serif" font-size="10.00">+ inverse()</text>
<text text-anchor="start" x="721.5" y="-952.5" font-family="Helvetica,sans-Serif" font-size="10.00">+ checkEquality()</text>
<text text-anchor="start" x="721.5" y="-941.5" font-family="Helvetica,sans-Serif" font-size="10.00">+ checkEquality()</text>
<text text-anchor="start" x="721.5" y="-930.5" font-family="Helvetica,sans-Serif" font-size="10.00">+ getFreeThreadsCount()</text>
<text text-anchor="start" x="721.5" y="-919.5" font-family="Helvetica,sans-Serif" font-size="10.00">+ getBusyThreadsCount()</text>
<text text-anchor="start" x="721.5" y="-908.5" font-family="Helvetica,sans-Serif" font-size="10.00">+ getTotalThreadsCount()</text>
</a>
</g>
</g>
<!-- Node13&#45;&gt;Node5 -->
<g id="edge13" class="edge"><title>Node13&#45;&gt;Node5</title>
<path fill="none" stroke="#404040" d="M797.342,-901.057C801.735,-867.757 806.617,-830.738 811.112,-796.665"/>
<polygon fill="none" stroke="#404040" points="811.114,-796.643 807.933,-790.172 812.684,-784.746 815.865,-791.218 811.114,-796.643"/>
<text text-anchor="middle" x="830" y="-846" font-family="Helvetica,sans-Serif" font-size="10.00"> #_engine</text>
</g>
<!-- Node14 -->
<g id="node11" class="node"><title>Node14</title>
<polygon fill="none" stroke="#bfbfbf" points="910,-973 910,-1041 1083,-1041 1083,-973 910,-973"/>
<text text-anchor="start" x="918" y="-1029" font-family="Helvetica,sans-Serif" font-size="10.00">Set&lt; org.msrg.raccoon.engine.task.</text>
<text text-anchor="middle" x="996.5" y="-1018" font-family="Helvetica,sans-Serif" font-size="10.00">CodingTask &gt;</text>
<polyline fill="none" stroke="#bfbfbf" points="910,-1011 1083,-1011 "/>
<text text-anchor="middle" x="996.5" y="-999" font-family="Helvetica,sans-Serif" font-size="10.00"> </text>
<polyline fill="none" stroke="#bfbfbf" points="910,-992 1083,-992 "/>
<text text-anchor="middle" x="996.5" y="-980" font-family="Helvetica,sans-Serif" font-size="10.00"> </text>
</g>
<!-- Node14&#45;&gt;Node5 -->
<g id="edge14" class="edge"><title>Node14&#45;&gt;Node5</title>
<path fill="none" stroke="#404040" d="M968.342,-972.756C949.563,-949.076 925.632,-915.762 910.5,-883 897.211,-854.228 903.558,-843.701 892.5,-814 890.322,-808.15 887.97,-802.216 885.496,-796.265"/>
<polygon fill="none" stroke="#404040" points="885.319,-795.851 879.283,-791.906 880.602,-784.817 886.639,-788.761 885.319,-795.851"/>
<text text-anchor="middle" x="953" y="-846" font-family="Helvetica,sans-Serif" font-size="10.00"> #_activeSubTasks</text>
</g>
<!-- Node15 -->
<g id="node12" class="node"><title>Node15</title>
<polygon fill="none" stroke="#bfbfbf" points="976.5,-1215.5 976.5,-1272.5 1008.5,-1272.5 1008.5,-1215.5 976.5,-1215.5"/>
<text text-anchor="middle" x="992.5" y="-1260.5" font-family="Helvetica,sans-Serif" font-size="10.00">Set</text>
<polyline fill="none" stroke="#bfbfbf" points="976.5,-1253.5 1008.5,-1253.5 "/>
<text text-anchor="middle" x="992.5" y="-1241.5" font-family="Helvetica,sans-Serif" font-size="10.00"> </text>
<polyline fill="none" stroke="#bfbfbf" points="976.5,-1234.5 1008.5,-1234.5 "/>
<text text-anchor="middle" x="992.5" y="-1222.5" font-family="Helvetica,sans-Serif" font-size="10.00"> </text>
</g>
<!-- Node15&#45;&gt;Node14 -->
<g id="edge15" class="edge"><title>Node15&#45;&gt;Node14</title>
<path fill="none" stroke="orange" d="M985.014,-1205.32C982.768,-1192.29 980.608,-1177.55 979.5,-1164 976.027,-1121.51 983.154,-1072.67 989.218,-1041.12"/>
<polygon fill="orange" stroke="orange" points="981.603,-1206.13 986.815,-1215.35 988.493,-1204.89 981.603,-1206.13"/>
<text text-anchor="start" x="979.5" y="-1150.5" font-family="Helvetica,sans-Serif" font-size="10.00"> &lt; org::msrg::raccoon</text>
<text text-anchor="middle" x="1043" y="-1139.5" font-family="Helvetica,sans-Serif" font-size="10.00">::engine::task::CodingTask &gt;</text>
</g>
<!-- Node17 -->
<g id="node14" class="node"><title>Node17</title>
<polygon fill="none" stroke="#bfbfbf" points="1004.5,-814.5 1004.5,-882.5 1204.5,-882.5 1204.5,-814.5 1004.5,-814.5"/>
<text text-anchor="start" x="1012.5" y="-870.5" font-family="Helvetica,sans-Serif" font-size="10.00">Set&lt; org.msrg.raccoon.engine.task.result.</text>
<text text-anchor="middle" x="1104.5" y="-859.5" font-family="Helvetica,sans-Serif" font-size="10.00">Equals_CodingResult &gt;</text>
<polyline fill="none" stroke="#bfbfbf" points="1004.5,-852.5 1204.5,-852.5 "/>
<text text-anchor="middle" x="1104.5" y="-840.5" font-family="Helvetica,sans-Serif" font-size="10.00"> </text>
<polyline fill="none" stroke="#bfbfbf" points="1004.5,-833.5 1204.5,-833.5 "/>
<text text-anchor="middle" x="1104.5" y="-821.5" font-family="Helvetica,sans-Serif" font-size="10.00"> </text>
</g>
<!-- Node15&#45;&gt;Node17 -->
<g id="edge18" class="edge"><title>Node15&#45;&gt;Node17</title>
<path fill="none" stroke="orange" d="M1018.16,-1233.63C1045.7,-1222.02 1088,-1199.34 1106.5,-1164 1154.75,-1071.85 1130.08,-942.694 1114.3,-882.633"/>
<polygon fill="orange" stroke="orange" points="1016.72,-1230.44 1008.75,-1237.41 1019.33,-1236.93 1016.72,-1230.44"/>
<text text-anchor="start" x="1118.5" y="-1156" font-family="Helvetica,sans-Serif" font-size="10.00"> &lt; org::msrg::raccoon</text>
<text text-anchor="start" x="1118.5" y="-1145" font-family="Helvetica,sans-Serif" font-size="10.00">::engine::task::result</text>
<text text-anchor="middle" x="1173.5" y="-1134" font-family="Helvetica,sans-Serif" font-size="10.00">::Equals_CodingResult &gt;</text>
</g>
<!-- Node16 -->
<g id="node13" class="node"><title>Node16</title>
<g id="a_node13"><a xlink:href="../../d4/ddf/namespaceorg_1_1msrg_1_1raccoon_1_1engine_1_1task_1_1sequential.html#dc/df8/enumorg_1_1msrg_1_1raccoon_1_1engine_1_1task_1_1sequential_1_1SequentialCodingTaskType" target="_top" xlink:title="{org.msrg.raccoon.engine.task.sequential.\lSequentialCodingTaskType\n|+ PAGEIN_PAGEOUT_EQUALS\l+ MULTIPLY_INVERSE_MULTIPLY\l_EQUAL\l+ ENCODE_DECODE_EQUAL\l+ ENCODE_RECEIVED_ENCODE\l_DECODE_EQUAL\l+ MULTIPLY_BULK_MATRIX\l+ BULK_MATRIX_EQUAL\l+ ENCODE\l+ DECODE\l|}">
<polygon fill="none" stroke="black" points="499.5,-923.5 499.5,-1090.5 695.5,-1090.5 695.5,-923.5 499.5,-923.5"/>
<text text-anchor="start" x="507.5" y="-1078.5" font-family="Helvetica,sans-Serif" font-size="10.00">org.msrg.raccoon.engine.task.sequential.</text>
<text text-anchor="middle" x="597.5" y="-1067.5" font-family="Helvetica,sans-Serif" font-size="10.00">SequentialCodingTaskType</text>
<polyline fill="none" stroke="black" points="499.5,-1060.5 695.5,-1060.5 "/>
<text text-anchor="start" x="507.5" y="-1048.5" font-family="Helvetica,sans-Serif" font-size="10.00">+ PAGEIN_PAGEOUT_EQUALS</text>
<text text-anchor="start" x="507.5" y="-1037.5" font-family="Helvetica,sans-Serif" font-size="10.00">+ MULTIPLY_INVERSE_MULTIPLY</text>
<text text-anchor="start" x="507.5" y="-1026.5" font-family="Helvetica,sans-Serif" font-size="10.00">_EQUAL</text>
<text text-anchor="start" x="507.5" y="-1015.5" font-family="Helvetica,sans-Serif" font-size="10.00">+ ENCODE_DECODE_EQUAL</text>
<text text-anchor="start" x="507.5" y="-1004.5" font-family="Helvetica,sans-Serif" font-size="10.00">+ ENCODE_RECEIVED_ENCODE</text>
<text text-anchor="start" x="507.5" y="-993.5" font-family="Helvetica,sans-Serif" font-size="10.00">_DECODE_EQUAL</text>
<text text-anchor="start" x="507.5" y="-982.5" font-family="Helvetica,sans-Serif" font-size="10.00">+ MULTIPLY_BULK_MATRIX</text>
<text text-anchor="start" x="507.5" y="-971.5" font-family="Helvetica,sans-Serif" font-size="10.00">+ BULK_MATRIX_EQUAL</text>
<text text-anchor="start" x="507.5" y="-960.5" font-family="Helvetica,sans-Serif" font-size="10.00">+ ENCODE</text>
<text text-anchor="start" x="507.5" y="-949.5" font-family="Helvetica,sans-Serif" font-size="10.00">+ DECODE</text>
<polyline fill="none" stroke="black" points="499.5,-942.5 695.5,-942.5 "/>
<text text-anchor="middle" x="597.5" y="-930.5" font-family="Helvetica,sans-Serif" font-size="10.00"> </text>
</a>
</g>
</g>
<!-- Node16&#45;&gt;Node5 -->
<g id="edge16" class="edge"><title>Node16&#45;&gt;Node5</title>
<path fill="none" stroke="#404040" d="M649.249,-923.249C671.209,-889.005 697.476,-849.16 722.5,-814 727.089,-807.552 731.861,-800.981 736.726,-794.384"/>
<polygon fill="none" stroke="#404040" points="736.756,-794.345 737.123,-787.143 743.912,-784.711 743.545,-791.913 736.756,-794.345"/>
<text text-anchor="middle" x="759.5" y="-846" font-family="Helvetica,sans-Serif" font-size="10.00"> +_seqTaskType</text>
</g>
<!-- Node17&#45;&gt;Node4 -->
<g id="edge17" class="edge"><title>Node17&#45;&gt;Node4</title>
<path fill="none" stroke="#404040" d="M1099.86,-814.027C1083.83,-698.394 1030.5,-313.734 1007.36,-146.86"/>
<polygon fill="none" stroke="#404040" points="1007.33,-146.635 1002.55,-141.241 1005.68,-134.749 1010.47,-140.143 1007.33,-146.635"/>
<text text-anchor="middle" x="1124.5" y="-536" font-family="Helvetica,sans-Serif" font-size="10.00"> #_slicesEqualityResultsSet</text>
</g>
<!-- Node18 -->
<g id="node15" class="node"><title>Node18</title>
<g id="a_node15"><a xlink:href="../../df/da4/classorg_1_1msrg_1_1raccoon_1_1matrix_1_1bulk_1_1BulkMatrix.html" target="_top" xlink:title="{org.msrg.raccoon.matrix.bulk.\lBulkMatrix\n|+ _size\l+ _cols\l+ _rows\l+ _SLICE_LENGTH\l+ _MAX_ROWS_PRINT\l+ _MAX_SLICES_PRINT\l&#45; serialVersionUID\l|+ BulkMatrix()\l+ BulkMatrix()\l+ BulkMatrix()\l+ createEmptyMatrix()\l+ createOneEmtpySlice()\l+ getSliceCount()\l+ slice()\l+ equals()\l+ getByte()\l+ getSize()\l+ add()\l+ toString()\l+ getSizeInByteBuffer()\l+ getContent()\l+ getSlices()\l+ createBulkMatixRandomData()\l+ createBulkMatixIncrementalData()\l# toString()\l}">
<polygon fill="none" stroke="black" points="1166.5,-193.5 1166.5,-514.5 1340.5,-514.5 1340.5,-193.5 1166.5,-193.5"/>
<text text-anchor="start" x="1174.5" y="-502.5" font-family="Helvetica,sans-Serif" font-size="10.00">org.msrg.raccoon.matrix.bulk.</text>
<text text-anchor="middle" x="1253.5" y="-491.5" font-family="Helvetica,sans-Serif" font-size="10.00">BulkMatrix</text>
<polyline fill="none" stroke="black" points="1166.5,-484.5 1340.5,-484.5 "/>
<text text-anchor="start" x="1174.5" y="-472.5" font-family="Helvetica,sans-Serif" font-size="10.00">+ _size</text>
<text text-anchor="start" x="1174.5" y="-461.5" font-family="Helvetica,sans-Serif" font-size="10.00">+ _cols</text>
<text text-anchor="start" x="1174.5" y="-450.5" font-family="Helvetica,sans-Serif" font-size="10.00">+ _rows</text>
<text text-anchor="start" x="1174.5" y="-439.5" font-family="Helvetica,sans-Serif" font-size="10.00">+ _SLICE_LENGTH</text>
<text text-anchor="start" x="1174.5" y="-428.5" font-family="Helvetica,sans-Serif" font-size="10.00">+ _MAX_ROWS_PRINT</text>
<text text-anchor="start" x="1174.5" y="-417.5" font-family="Helvetica,sans-Serif" font-size="10.00">+ _MAX_SLICES_PRINT</text>
<text text-anchor="start" x="1174.5" y="-406.5" font-family="Helvetica,sans-Serif" font-size="10.00">&#45; serialVersionUID</text>
<polyline fill="none" stroke="black" points="1166.5,-399.5 1340.5,-399.5 "/>
<text text-anchor="start" x="1174.5" y="-387.5" font-family="Helvetica,sans-Serif" font-size="10.00">+ BulkMatrix()</text>
<text text-anchor="start" x="1174.5" y="-376.5" font-family="Helvetica,sans-Serif" font-size="10.00">+ BulkMatrix()</text>
<text text-anchor="start" x="1174.5" y="-365.5" font-family="Helvetica,sans-Serif" font-size="10.00">+ BulkMatrix()</text>
<text text-anchor="start" x="1174.5" y="-354.5" font-family="Helvetica,sans-Serif" font-size="10.00">+ createEmptyMatrix()</text>
<text text-anchor="start" x="1174.5" y="-343.5" font-family="Helvetica,sans-Serif" font-size="10.00">+ createOneEmtpySlice()</text>
<text text-anchor="start" x="1174.5" y="-332.5" font-family="Helvetica,sans-Serif" font-size="10.00">+ getSliceCount()</text>
<text text-anchor="start" x="1174.5" y="-321.5" font-family="Helvetica,sans-Serif" font-size="10.00">+ slice()</text>
<text text-anchor="start" x="1174.5" y="-310.5" font-family="Helvetica,sans-Serif" font-size="10.00">+ equals()</text>
<text text-anchor="start" x="1174.5" y="-299.5" font-family="Helvetica,sans-Serif" font-size="10.00">+ getByte()</text>
<text text-anchor="start" x="1174.5" y="-288.5" font-family="Helvetica,sans-Serif" font-size="10.00">+ getSize()</text>
<text text-anchor="start" x="1174.5" y="-277.5" font-family="Helvetica,sans-Serif" font-size="10.00">+ add()</text>
<text text-anchor="start" x="1174.5" y="-266.5" font-family="Helvetica,sans-Serif" font-size="10.00">+ toString()</text>
<text text-anchor="start" x="1174.5" y="-255.5" font-family="Helvetica,sans-Serif" font-size="10.00">+ getSizeInByteBuffer()</text>
<text text-anchor="start" x="1174.5" y="-244.5" font-family="Helvetica,sans-Serif" font-size="10.00">+ getContent()</text>
<text text-anchor="start" x="1174.5" y="-233.5" font-family="Helvetica,sans-Serif" font-size="10.00">+ getSlices()</text>
<text text-anchor="start" x="1174.5" y="-222.5" font-family="Helvetica,sans-Serif" font-size="10.00">+ createBulkMatixRandomData()</text>
<text text-anchor="start" x="1174.5" y="-211.5" font-family="Helvetica,sans-Serif" font-size="10.00">+ createBulkMatixIncrementalData()</text>
<text text-anchor="start" x="1174.5" y="-200.5" font-family="Helvetica,sans-Serif" font-size="10.00"># toString()</text>
</a>
</g>
</g>
<!-- Node18&#45;&gt;Node4 -->
<g id="edge19" class="edge"><title>Node18&#45;&gt;Node4</title>
<path fill="none" stroke="#404040" d="M1166.49,-256.681C1133.21,-219.835 1095.76,-178.382 1064.5,-143.78"/>
<polygon fill="none" stroke="#404040" points="1064.32,-143.58 1057.33,-141.809 1056.28,-134.675 1063.27,-136.446 1064.32,-143.58"/>
<text text-anchor="middle" x="1104" y="-167" font-family="Helvetica,sans-Serif" font-size="10.00"> #_bm1</text>
<text text-anchor="middle" x="1104" y="-156" font-family="Helvetica,sans-Serif" font-size="10.00">#_bm2</text>
</g>
<!-- Node19 -->
<g id="node16" class="node"><title>Node19</title>
<polygon fill="none" stroke="#bfbfbf" points="1204,-978.5 1204,-1035.5 1271,-1035.5 1271,-978.5 1204,-978.5"/>
<text text-anchor="middle" x="1237.5" y="-1023.5" font-family="Helvetica,sans-Serif" font-size="10.00">Serializable</text>
<polyline fill="none" stroke="#bfbfbf" points="1204,-1016.5 1271,-1016.5 "/>
<text text-anchor="middle" x="1237.5" y="-1004.5" font-family="Helvetica,sans-Serif" font-size="10.00"> </text>
<polyline fill="none" stroke="#bfbfbf" points="1204,-997.5 1271,-997.5 "/>
<text text-anchor="middle" x="1237.5" y="-985.5" font-family="Helvetica,sans-Serif" font-size="10.00"> </text>
</g>
<!-- Node19&#45;&gt;Node18 -->
<g id="edge20" class="edge"><title>Node19&#45;&gt;Node18</title>
<path fill="none" stroke="midnightblue" d="M1236.7,-968.341C1235.26,-891.775 1232.89,-712.45 1238.5,-562 1239.07,-546.607 1239.88,-530.583 1240.81,-514.567"/>
<polygon fill="none" stroke="midnightblue" points="1233.2,-968.518 1236.89,-978.449 1240.2,-968.383 1233.2,-968.518"/>
</g>
<!-- Node20 -->
<g id="node17" class="node"><title>Node20</title>
<g id="a_node17"><a xlink:href="../../d6/d6d/classorg_1_1msrg_1_1raccoon_1_1matrix_1_1bulk_1_1SliceMatrix.html" target="_top" xlink:title="{org.msrg.raccoon.matrix.bulk.\lSliceMatrix\n|+ _cols\l+ _MAX_COLS_PRINT\l# _b\l&#45; serialVersionUID\l|+ SliceMatrix()\l+ SliceMatrix()\l+ SliceMatrix()\l+ loadNoCopy()\l+ loadWithCopy()\l+ getContent()\l+ hasContent()\l+ clone()\l+ equals()\l+ getByte()\land 6 more...\l+ createRandomSliceMatrix()\l+ getEmptySliceMatrix()\l}">
<polygon fill="none" stroke="black" points="1247.5,-562.5 1247.5,-795.5 1393.5,-795.5 1393.5,-562.5 1247.5,-562.5"/>
<text text-anchor="start" x="1255.5" y="-783.5" font-family="Helvetica,sans-Serif" font-size="10.00">org.msrg.raccoon.matrix.bulk.</text>
<text text-anchor="middle" x="1320.5" y="-772.5" font-family="Helvetica,sans-Serif" font-size="10.00">SliceMatrix</text>
<polyline fill="none" stroke="black" points="1247.5,-765.5 1393.5,-765.5 "/>
<text text-anchor="start" x="1255.5" y="-753.5" font-family="Helvetica,sans-Serif" font-size="10.00">+ _cols</text>
<text text-anchor="start" x="1255.5" y="-742.5" font-family="Helvetica,sans-Serif" font-size="10.00">+ _MAX_COLS_PRINT</text>
<text text-anchor="start" x="1255.5" y="-731.5" font-family="Helvetica,sans-Serif" font-size="10.00"># _b</text>
<text text-anchor="start" x="1255.5" y="-720.5" font-family="Helvetica,sans-Serif" font-size="10.00">&#45; serialVersionUID</text>
<polyline fill="none" stroke="black" points="1247.5,-713.5 1393.5,-713.5 "/>
<text text-anchor="start" x="1255.5" y="-701.5" font-family="Helvetica,sans-Serif" font-size="10.00">+ SliceMatrix()</text>
<text text-anchor="start" x="1255.5" y="-690.5" font-family="Helvetica,sans-Serif" font-size="10.00">+ SliceMatrix()</text>
<text text-anchor="start" x="1255.5" y="-679.5" font-family="Helvetica,sans-Serif" font-size="10.00">+ SliceMatrix()</text>
<text text-anchor="start" x="1255.5" y="-668.5" font-family="Helvetica,sans-Serif" font-size="10.00">+ loadNoCopy()</text>
<text text-anchor="start" x="1255.5" y="-657.5" font-family="Helvetica,sans-Serif" font-size="10.00">+ loadWithCopy()</text>
<text text-anchor="start" x="1255.5" y="-646.5" font-family="Helvetica,sans-Serif" font-size="10.00">+ getContent()</text>
<text text-anchor="start" x="1255.5" y="-635.5" font-family="Helvetica,sans-Serif" font-size="10.00">+ hasContent()</text>
<text text-anchor="start" x="1255.5" y="-624.5" font-family="Helvetica,sans-Serif" font-size="10.00">+ clone()</text>
<text text-anchor="start" x="1255.5" y="-613.5" font-family="Helvetica,sans-Serif" font-size="10.00">+ equals()</text>
<text text-anchor="start" x="1255.5" y="-602.5" font-family="Helvetica,sans-Serif" font-size="10.00">+ getByte()</text>
<text text-anchor="start" x="1255.5" y="-591.5" font-family="Helvetica,sans-Serif" font-size="10.00">and 6 more...</text>
<text text-anchor="start" x="1255.5" y="-580.5" font-family="Helvetica,sans-Serif" font-size="10.00">+ createRandomSliceMatrix()</text>
<text text-anchor="start" x="1255.5" y="-569.5" font-family="Helvetica,sans-Serif" font-size="10.00">+ getEmptySliceMatrix()</text>
</a>
</g>
</g>
<!-- Node19&#45;&gt;Node20 -->
<g id="edge22" class="edge"><title>Node19&#45;&gt;Node20</title>
<path fill="none" stroke="midnightblue" d="M1247,-968.693C1257.7,-926.68 1275.6,-856.338 1291.07,-795.608"/>
<polygon fill="none" stroke="midnightblue" points="1243.58,-967.932 1244.51,-978.486 1250.36,-969.659 1243.58,-967.932"/>
</g>
<!-- Node20&#45;&gt;Node18 -->
<g id="edge21" class="edge"><title>Node20&#45;&gt;Node18</title>
<path fill="none" stroke="#404040" d="M1296.5,-562.302C1294.09,-550.694 1291.61,-538.742 1289.12,-526.714"/>
<polygon fill="none" stroke="#404040" points="1289.06,-526.421 1283.92,-521.359 1286.62,-514.671 1291.76,-519.734 1289.06,-526.421"/>
<text text-anchor="middle" x="1311.5" y="-536" font-family="Helvetica,sans-Serif" font-size="10.00"> #_slices</text>
</g>
<!-- Node21 -->
<g id="node18" class="node"><title>Node21</title>
<polygon fill="none" stroke="#bfbfbf" points="1306,-978.5 1306,-1035.5 1359,-1035.5 1359,-978.5 1306,-978.5"/>
<text text-anchor="middle" x="1332.5" y="-1023.5" font-family="Helvetica,sans-Serif" font-size="10.00">Random</text>
<polyline fill="none" stroke="#bfbfbf" points="1306,-1016.5 1359,-1016.5 "/>
<text text-anchor="middle" x="1332.5" y="-1004.5" font-family="Helvetica,sans-Serif" font-size="10.00"> </text>
<polyline fill="none" stroke="#bfbfbf" points="1306,-997.5 1359,-997.5 "/>
<text text-anchor="middle" x="1332.5" y="-985.5" font-family="Helvetica,sans-Serif" font-size="10.00"> </text>
</g>
<!-- Node21&#45;&gt;Node18 -->
<g id="edge24" class="edge"><title>Node21&#45;&gt;Node18</title>
<path fill="none" stroke="#404040" d="M1349.03,-978.211C1362.68,-953.934 1381.39,-917.305 1391.5,-883 1431.84,-746.069 1446.31,-697.861 1402.5,-562 1390.82,-525.779 1370.19,-490.547 1347.93,-459.722"/>
<polygon fill="none" stroke="#404040" points="1347.79,-459.526 1341,-457.076 1340.66,-449.874 1347.44,-452.324 1347.79,-459.526"/>
<text text-anchor="middle" x="1459" y="-676.5" font-family="Helvetica,sans-Serif" font-size="10.00"> #_RANDOM</text>
</g>
<!-- Node21&#45;&gt;Node20 -->
<g id="edge23" class="edge"><title>Node21&#45;&gt;Node20</title>
<path fill="none" stroke="#404040" d="M1331.49,-978.486C1330.1,-940.775 1327.51,-870.534 1325.2,-807.662"/>
<polygon fill="none" stroke="#404040" points="1325.2,-807.6 1320.98,-801.751 1324.76,-795.608 1328.97,-801.457 1325.2,-807.6"/>
<text text-anchor="middle" x="1358" y="-846" font-family="Helvetica,sans-Serif" font-size="10.00"> #_RANDOM</text>
</g>
<!-- Node22&#45;&gt;Node4 -->
<g id="edge25" class="edge"><title>Node22&#45;&gt;Node4</title>
<path fill="none" stroke="#404040" d="M648.848,-303.242C694.691,-260.343 764.855,-198.336 832.5,-153 849.706,-141.469 868.684,-130.371 887.442,-120.224"/>
<polygon fill="none" stroke="#404040" points="887.544,-120.169 890.958,-113.818 898.134,-114.526 894.72,-120.878 887.544,-120.169"/>
<text text-anchor="middle" x="887" y="-161.5" font-family="Helvetica,sans-Serif" font-size="10.00"> #_slicesEqualityResults</text>
</g>
</g>
</svg>
