<?xml version="1.0" encoding="UTF-8" standalone="no"?>
<!DOCTYPE svg PUBLIC "-//W3C//DTD SVG 1.1//EN"
 "http://www.w3.org/Graphics/SVG/1.1/DTD/svg11.dtd">
<!-- Generated by graphviz version 2.38.0 (20140413.2041)
 -->
<!-- Title: org.msrg.raccoon.SourceCodedBatch Pages: 1 -->
<!--zoomable 1191 -->
<svg id="main" version="1.1" xmlns="http://www.w3.org/2000/svg" xmlns:xlink="http://www.w3.org/1999/xlink" xml:space="preserve" onload="init(evt)">
<style type="text/css"><![CDATA[
.edge:hover path { stroke: red; }
.edge:hover polygon { stroke: red; fill: red; }
]]></style>
<script type="text/javascript"><![CDATA[
var edges = document.getElementsByTagName('g');
if (edges && edges.length) {
  for (var i=0;i<edges.length;i++) {
    if (edges[i].id.substr(0,4)=='edge') {
      edges[i].setAttribute('class','edge');
    }
  }
}
]]></script>
        <defs>
                <circle id="rim" cx="0" cy="0" r="7"/>
                <circle id="rim2" cx="0" cy="0" r="3.5"/>
                <g id="zoomPlus">
                        <use xlink:href="#rim" fill="#404040">
                                <set attributeName="fill" to="#808080" begin="zoomplus.mouseover" end="zoomplus.mouseout"/>
                        </use>
                        <path d="M-4,0h8M0,-4v8" fill="none" stroke="white" stroke-width="1.5" pointer-events="none"/>
                </g>
                <g id="zoomMin">
                        <use xlink:href="#rim" fill="#404040">
                                <set attributeName="fill" to="#808080" begin="zoomminus.mouseover" end="zoomminus.mouseout"/>
                        </use>
                        <path d="M-4,0h8" fill="none" stroke="white" stroke-width="1.5" pointer-events="none"/>
                </g>
                <g id="dirArrow">
                        <path fill="none" stroke="white" stroke-width="1.5" d="M0,-3.0v7 M-2.5,-0.5L0,-3.0L2.5,-0.5"/>
                </g>
               <g id="resetDef">
                       <use xlink:href="#rim2" fill="#404040">
                               <set attributeName="fill" to="#808080" begin="reset.mouseover" end="reset.mouseout"/>
                       </use>
               </g>
        </defs>

<script type="text/javascript">
var viewWidth = 611;
var viewHeight = 1191;
var sectionId = 'dynsection-1';
</script>
<script xlink:href="../../svgpan.js"/>
<svg id="graph" class="graph">
<g id="viewport">
<title>org.msrg.raccoon.SourceCodedBatch</title>
<!-- Node1 -->
<g id="node1" class="node"><title>Node1</title>
<polygon fill="#bfbfbf" stroke="black" points="249,-0.5 249,-167.5 413,-167.5 413,-0.5 249,-0.5"/>
<text text-anchor="start" x="257" y="-155.5" font-family="Helvetica,sans-Serif" font-size="10.00">org.msrg.raccoon.SourceCoded</text>
<text text-anchor="middle" x="331" y="-144.5" font-family="Helvetica,sans-Serif" font-size="10.00">Batch</text>
<polyline fill="none" stroke="black" points="249,-137.5 413,-137.5 "/>
<text text-anchor="middle" x="331" y="-125.5" font-family="Helvetica,sans-Serif" font-size="10.00"> </text>
<polyline fill="none" stroke="black" points="249,-118.5 413,-118.5 "/>
<text text-anchor="start" x="257" y="-106.5" font-family="Helvetica,sans-Serif" font-size="10.00">+ SourceCodedBatch()</text>
<text text-anchor="start" x="257" y="-95.5" font-family="Helvetica,sans-Serif" font-size="10.00">+ isSolved()</text>
<text text-anchor="start" x="257" y="-84.5" font-family="Helvetica,sans-Serif" font-size="10.00">+ code()</text>
<text text-anchor="start" x="257" y="-73.5" font-family="Helvetica,sans-Serif" font-size="10.00">+ getAvailableCodedPieceCount()</text>
<text text-anchor="start" x="257" y="-62.5" font-family="Helvetica,sans-Serif" font-size="10.00">+ addCodedSlice()</text>
<text text-anchor="start" x="257" y="-51.5" font-family="Helvetica,sans-Serif" font-size="10.00">+ getCols()</text>
<text text-anchor="start" x="257" y="-40.5" font-family="Helvetica,sans-Serif" font-size="10.00">+ getRows()</text>
<text text-anchor="start" x="257" y="-29.5" font-family="Helvetica,sans-Serif" font-size="10.00">+ canPotentiallyBeSolved()</text>
<text text-anchor="start" x="257" y="-18.5" font-family="Helvetica,sans-Serif" font-size="10.00">+ isInversed()</text>
<text text-anchor="start" x="257" y="-7.5" font-family="Helvetica,sans-Serif" font-size="10.00">+ decode()</text>
</g>
<!-- Node2 -->
<g id="node2" class="node"><title>Node2</title>
<g id="a_node2"><a xlink:href="../../dd/da2/classorg_1_1msrg_1_1raccoon_1_1CodedBatch.html" target="_top" xlink:title="{org.msrg.raccoon.CodedBatch\n|# _lock\l# _size\l# _MAX_WRITE_SIZE\l# I_CONTENT_SIZE\l# I_CONTENT\l|+ getRequiredCodedPieceCount()\l+ equals()\l+ equalsExact()\l+ getAvailableCodedPieceCount()\l+ CodedBatch()\l+ getSize()\l+ isSolved()\l+ getNewCodedCoefficients()\l+ getBulkMatrix()\l+ getSizeInByteBuffer()\land 8 more...\l# CodedBatch()\l}">
<polygon fill="none" stroke="black" points="249,-205.5 249,-427.5 413,-427.5 413,-205.5 249,-205.5"/>
<text text-anchor="middle" x="331" y="-415.5" font-family="Helvetica,sans-Serif" font-size="10.00">org.msrg.raccoon.CodedBatch</text>
<polyline fill="none" stroke="black" points="249,-408.5 413,-408.5 "/>
<text text-anchor="start" x="257" y="-396.5" font-family="Helvetica,sans-Serif" font-size="10.00"># _lock</text>
<text text-anchor="start" x="257" y="-385.5" font-family="Helvetica,sans-Serif" font-size="10.00"># _size</text>
<text text-anchor="start" x="257" y="-374.5" font-family="Helvetica,sans-Serif" font-size="10.00"># _MAX_WRITE_SIZE</text>
<text text-anchor="start" x="257" y="-363.5" font-family="Helvetica,sans-Serif" font-size="10.00"># I_CONTENT_SIZE</text>
<text text-anchor="start" x="257" y="-352.5" font-family="Helvetica,sans-Serif" font-size="10.00"># I_CONTENT</text>
<polyline fill="none" stroke="black" points="249,-345.5 413,-345.5 "/>
<text text-anchor="start" x="257" y="-333.5" font-family="Helvetica,sans-Serif" font-size="10.00">+ getRequiredCodedPieceCount()</text>
<text text-anchor="start" x="257" y="-322.5" font-family="Helvetica,sans-Serif" font-size="10.00">+ equals()</text>
<text text-anchor="start" x="257" y="-311.5" font-family="Helvetica,sans-Serif" font-size="10.00">+ equalsExact()</text>
<text text-anchor="start" x="257" y="-300.5" font-family="Helvetica,sans-Serif" font-size="10.00">+ getAvailableCodedPieceCount()</text>
<text text-anchor="start" x="257" y="-289.5" font-family="Helvetica,sans-Serif" font-size="10.00">+ CodedBatch()</text>
<text text-anchor="start" x="257" y="-278.5" font-family="Helvetica,sans-Serif" font-size="10.00">+ getSize()</text>
<text text-anchor="start" x="257" y="-267.5" font-family="Helvetica,sans-Serif" font-size="10.00">+ isSolved()</text>
<text text-anchor="start" x="257" y="-256.5" font-family="Helvetica,sans-Serif" font-size="10.00">+ getNewCodedCoefficients()</text>
<text text-anchor="start" x="257" y="-245.5" font-family="Helvetica,sans-Serif" font-size="10.00">+ getBulkMatrix()</text>
<text text-anchor="start" x="257" y="-234.5" font-family="Helvetica,sans-Serif" font-size="10.00">+ getSizeInByteBuffer()</text>
<text text-anchor="start" x="257" y="-223.5" font-family="Helvetica,sans-Serif" font-size="10.00">and 8 more...</text>
<text text-anchor="start" x="257" y="-212.5" font-family="Helvetica,sans-Serif" font-size="10.00"># CodedBatch()</text>
</a>
</g>
</g>
<!-- Node2&#45;&gt;Node1 -->
<g id="edge1" class="edge"><title>Node2&#45;&gt;Node1</title>
<path fill="none" stroke="midnightblue" d="M331,-195.254C331,-185.988 331,-176.766 331,-167.827"/>
<polygon fill="none" stroke="midnightblue" points="327.5,-195.313 331,-205.313 334.5,-195.313 327.5,-195.313"/>
</g>
<!-- Node3 -->
<g id="node3" class="node"><title>Node3</title>
<g id="a_node3"><a xlink:href="../../d1/d78/interfaceorg_1_1msrg_1_1raccoon_1_1ICodedBatch.html" target="_top" xlink:title="{org.msrg.raccoon.ICodedBatch\n||+ toString()\l+ equals()\l+ equalsExact()\l+ getBulkMatrix()\l+ getRows()\l+ getCols()\l+ getSize()\l+ getSizeInByteBuffer()\l+ addCodedSlice()\l+ getCodedBatchType()\land 7 more...\l}">
<polygon fill="none" stroke="black" points="0,-552.5 0,-719.5 152,-719.5 152,-552.5 0,-552.5"/>
<text text-anchor="middle" x="76" y="-707.5" font-family="Helvetica,sans-Serif" font-size="10.00">org.msrg.raccoon.ICodedBatch</text>
<polyline fill="none" stroke="black" points="0,-700.5 152,-700.5 "/>
<text text-anchor="middle" x="76" y="-688.5" font-family="Helvetica,sans-Serif" font-size="10.00"> </text>
<polyline fill="none" stroke="black" points="0,-681.5 152,-681.5 "/>
<text text-anchor="start" x="8" y="-669.5" font-family="Helvetica,sans-Serif" font-size="10.00">+ toString()</text>
<text text-anchor="start" x="8" y="-658.5" font-family="Helvetica,sans-Serif" font-size="10.00">+ equals()</text>
<text text-anchor="start" x="8" y="-647.5" font-family="Helvetica,sans-Serif" font-size="10.00">+ equalsExact()</text>
<text text-anchor="start" x="8" y="-636.5" font-family="Helvetica,sans-Serif" font-size="10.00">+ getBulkMatrix()</text>
<text text-anchor="start" x="8" y="-625.5" font-family="Helvetica,sans-Serif" font-size="10.00">+ getRows()</text>
<text text-anchor="start" x="8" y="-614.5" font-family="Helvetica,sans-Serif" font-size="10.00">+ getCols()</text>
<text text-anchor="start" x="8" y="-603.5" font-family="Helvetica,sans-Serif" font-size="10.00">+ getSize()</text>
<text text-anchor="start" x="8" y="-592.5" font-family="Helvetica,sans-Serif" font-size="10.00">+ getSizeInByteBuffer()</text>
<text text-anchor="start" x="8" y="-581.5" font-family="Helvetica,sans-Serif" font-size="10.00">+ addCodedSlice()</text>
<text text-anchor="start" x="8" y="-570.5" font-family="Helvetica,sans-Serif" font-size="10.00">+ getCodedBatchType()</text>
<text text-anchor="start" x="8" y="-559.5" font-family="Helvetica,sans-Serif" font-size="10.00">and 7 more...</text>
</a>
</g>
</g>
<!-- Node3&#45;&gt;Node2 -->
<g id="edge2" class="edge"><title>Node3&#45;&gt;Node2</title>
<path fill="none" stroke="midnightblue" d="M117.819,-543.559C130.266,-520.243 144.925,-495.887 161,-475 186.398,-442 219.046,-409.939 248.932,-383.452"/>
<polygon fill="none" stroke="midnightblue" points="114.709,-541.954 113.158,-552.435 120.906,-545.209 114.709,-541.954"/>
</g>
<!-- Node4 -->
<g id="node4" class="node"><title>Node4</title>
<g id="a_node4"><a xlink:href="../../da/d9f/enumorg_1_1msrg_1_1raccoon_1_1CodedBatchType.html" target="_top" xlink:title="{org.msrg.raccoon.CodedBatchType\n|+ SRC_CODED_BATCH\l+ RCV_CODED_BATCH\l&#45; _str\l|+ CodedBatchType()\l+ toString()\l}">
<polygon fill="none" stroke="black" points="170.5,-591 170.5,-681 341.5,-681 341.5,-591 170.5,-591"/>
<text text-anchor="middle" x="256" y="-669" font-family="Helvetica,sans-Serif" font-size="10.00">org.msrg.raccoon.CodedBatchType</text>
<polyline fill="none" stroke="black" points="170.5,-662 341.5,-662 "/>
<text text-anchor="start" x="178.5" y="-650" font-family="Helvetica,sans-Serif" font-size="10.00">+ SRC_CODED_BATCH</text>
<text text-anchor="start" x="178.5" y="-639" font-family="Helvetica,sans-Serif" font-size="10.00">+ RCV_CODED_BATCH</text>
<text text-anchor="start" x="178.5" y="-628" font-family="Helvetica,sans-Serif" font-size="10.00">&#45; _str</text>
<polyline fill="none" stroke="black" points="170.5,-621 341.5,-621 "/>
<text text-anchor="start" x="178.5" y="-609" font-family="Helvetica,sans-Serif" font-size="10.00">+ CodedBatchType()</text>
<text text-anchor="start" x="178.5" y="-598" font-family="Helvetica,sans-Serif" font-size="10.00">+ toString()</text>
</a>
</g>
</g>
<!-- Node4&#45;&gt;Node2 -->
<g id="edge3" class="edge"><title>Node4&#45;&gt;Node2</title>
<path fill="none" stroke="#404040" d="M264.969,-590.954C272.925,-552.568 285.099,-495.455 297,-446 297.514,-443.863 298.037,-441.708 298.568,-439.538"/>
<polygon fill="none" stroke="#404040" points="298.585,-439.468 296.143,-432.683 301.467,-427.819 303.909,-434.604 298.585,-439.468"/>
<text text-anchor="middle" x="341" y="-449" font-family="Helvetica,sans-Serif" font-size="10.00"> #_codedBatchType</text>
</g>
<!-- Node5 -->
<g id="node5" class="node"><title>Node5</title>
<g id="a_node5"><a xlink:href="../../df/da4/classorg_1_1msrg_1_1raccoon_1_1matrix_1_1bulk_1_1BulkMatrix.html" target="_top" xlink:title="{org.msrg.raccoon.matrix.bulk.\lBulkMatrix\n|+ _size\l+ _cols\l+ _rows\l+ _SLICE_LENGTH\l+ _MAX_ROWS_PRINT\l+ _MAX_SLICES_PRINT\l&#45; serialVersionUID\l|+ BulkMatrix()\l+ BulkMatrix()\l+ createEmptyMatrix()\l+ BulkMatrix()\l+ createOneEmtpySlice()\l+ getSliceCount()\l+ slice()\l+ equals()\l+ getByte()\l+ getSize()\l+ add()\l+ toString()\l+ getSizeInByteBuffer()\l+ getContent()\l+ getSlices()\l+ createBulkMatixRandomData()\l+ createBulkMatixIncrementalData()\l# toString()\l}">
<polygon fill="none" stroke="black" points="360,-475.5 360,-796.5 534,-796.5 534,-475.5 360,-475.5"/>
<text text-anchor="start" x="368" y="-784.5" font-family="Helvetica,sans-Serif" font-size="10.00">org.msrg.raccoon.matrix.bulk.</text>
<text text-anchor="middle" x="447" y="-773.5" font-family="Helvetica,sans-Serif" font-size="10.00">BulkMatrix</text>
<polyline fill="none" stroke="black" points="360,-766.5 534,-766.5 "/>
<text text-anchor="start" x="368" y="-754.5" font-family="Helvetica,sans-Serif" font-size="10.00">+ _size</text>
<text text-anchor="start" x="368" y="-743.5" font-family="Helvetica,sans-Serif" font-size="10.00">+ _cols</text>
<text text-anchor="start" x="368" y="-732.5" font-family="Helvetica,sans-Serif" font-size="10.00">+ _rows</text>
<text text-anchor="start" x="368" y="-721.5" font-family="Helvetica,sans-Serif" font-size="10.00">+ _SLICE_LENGTH</text>
<text text-anchor="start" x="368" y="-710.5" font-family="Helvetica,sans-Serif" font-size="10.00">+ _MAX_ROWS_PRINT</text>
<text text-anchor="start" x="368" y="-699.5" font-family="Helvetica,sans-Serif" font-size="10.00">+ _MAX_SLICES_PRINT</text>
<text text-anchor="start" x="368" y="-688.5" font-family="Helvetica,sans-Serif" font-size="10.00">&#45; serialVersionUID</text>
<polyline fill="none" stroke="black" points="360,-681.5 534,-681.5 "/>
<text text-anchor="start" x="368" y="-669.5" font-family="Helvetica,sans-Serif" font-size="10.00">+ BulkMatrix()</text>
<text text-anchor="start" x="368" y="-658.5" font-family="Helvetica,sans-Serif" font-size="10.00">+ BulkMatrix()</text>
<text text-anchor="start" x="368" y="-647.5" font-family="Helvetica,sans-Serif" font-size="10.00">+ createEmptyMatrix()</text>
<text text-anchor="start" x="368" y="-636.5" font-family="Helvetica,sans-Serif" font-size="10.00">+ BulkMatrix()</text>
<text text-anchor="start" x="368" y="-625.5" font-family="Helvetica,sans-Serif" font-size="10.00">+ createOneEmtpySlice()</text>
<text text-anchor="start" x="368" y="-614.5" font-family="Helvetica,sans-Serif" font-size="10.00">+ getSliceCount()</text>
<text text-anchor="start" x="368" y="-603.5" font-family="Helvetica,sans-Serif" font-size="10.00">+ slice()</text>
<text text-anchor="start" x="368" y="-592.5" font-family="Helvetica,sans-Serif" font-size="10.00">+ equals()</text>
<text text-anchor="start" x="368" y="-581.5" font-family="Helvetica,sans-Serif" font-size="10.00">+ getByte()</text>
<text text-anchor="start" x="368" y="-570.5" font-family="Helvetica,sans-Serif" font-size="10.00">+ getSize()</text>
<text text-anchor="start" x="368" y="-559.5" font-family="Helvetica,sans-Serif" font-size="10.00">+ add()</text>
<text text-anchor="start" x="368" y="-548.5" font-family="Helvetica,sans-Serif" font-size="10.00">+ toString()</text>
<text text-anchor="start" x="368" y="-537.5" font-family="Helvetica,sans-Serif" font-size="10.00">+ getSizeInByteBuffer()</text>
<text text-anchor="start" x="368" y="-526.5" font-family="Helvetica,sans-Serif" font-size="10.00">+ getContent()</text>
<text text-anchor="start" x="368" y="-515.5" font-family="Helvetica,sans-Serif" font-size="10.00">+ getSlices()</text>
<text text-anchor="start" x="368" y="-504.5" font-family="Helvetica,sans-Serif" font-size="10.00">+ createBulkMatixRandomData()</text>
<text text-anchor="start" x="368" y="-493.5" font-family="Helvetica,sans-Serif" font-size="10.00">+ createBulkMatixIncrementalData()</text>
<text text-anchor="start" x="368" y="-482.5" font-family="Helvetica,sans-Serif" font-size="10.00"># toString()</text>
</a>
</g>
</g>
<!-- Node5&#45;&gt;Node2 -->
<g id="edge4" class="edge"><title>Node5&#45;&gt;Node2</title>
<path fill="none" stroke="#404040" d="M395.65,-475.363C392.13,-465.397 388.564,-455.543 385,-446 384.124,-443.653 383.23,-441.286 382.322,-438.905"/>
<polygon fill="none" stroke="#404040" points="382.305,-438.861 376.409,-434.709 377.975,-427.67 383.87,-431.822 382.305,-438.861"/>
<text text-anchor="middle" x="403" y="-449" font-family="Helvetica,sans-Serif" font-size="10.00"> #_bm</text>
</g>
<!-- Node6 -->
<g id="node6" class="node"><title>Node6</title>
<polygon fill="none" stroke="#bfbfbf" points="284.5,-1125.5 284.5,-1182.5 351.5,-1182.5 351.5,-1125.5 284.5,-1125.5"/>
<text text-anchor="middle" x="318" y="-1170.5" font-family="Helvetica,sans-Serif" font-size="10.00">Serializable</text>
<polyline fill="none" stroke="#bfbfbf" points="284.5,-1163.5 351.5,-1163.5 "/>
<text text-anchor="middle" x="318" y="-1151.5" font-family="Helvetica,sans-Serif" font-size="10.00"> </text>
<polyline fill="none" stroke="#bfbfbf" points="284.5,-1144.5 351.5,-1144.5 "/>
<text text-anchor="middle" x="318" y="-1132.5" font-family="Helvetica,sans-Serif" font-size="10.00"> </text>
</g>
<!-- Node6&#45;&gt;Node5 -->
<g id="edge5" class="edge"><title>Node6&#45;&gt;Node5</title>
<path fill="none" stroke="midnightblue" d="M308.688,-1115.42C295.756,-1055.81 277.494,-936.849 311,-844 320.214,-818.468 334.254,-819.11 350,-797 353.298,-792.369 356.598,-787.624 359.884,-782.802"/>
<polygon fill="none" stroke="midnightblue" points="305.344,-1116.5 310.947,-1125.49 312.174,-1114.97 305.344,-1116.5"/>
</g>
<!-- Node7 -->
<g id="node7" class="node"><title>Node7</title>
<g id="a_node7"><a xlink:href="../../d6/d6d/classorg_1_1msrg_1_1raccoon_1_1matrix_1_1bulk_1_1SliceMatrix.html" target="_top" xlink:title="{org.msrg.raccoon.matrix.bulk.\lSliceMatrix\n|+ _cols\l+ _MAX_COLS_PRINT\l# _b\l&#45; serialVersionUID\l|+ SliceMatrix()\l+ loadNoCopy()\l+ loadWithCopy()\l+ SliceMatrix()\l+ SliceMatrix()\l+ getContent()\l+ hasContent()\l+ clone()\l+ equals()\l+ getByte()\land 6 more...\l+ createRandomSliceMatrix()\l+ getEmptySliceMatrix()\l}">
<polygon fill="none" stroke="black" points="320,-844.5 320,-1077.5 466,-1077.5 466,-844.5 320,-844.5"/>
<text text-anchor="start" x="328" y="-1065.5" font-family="Helvetica,sans-Serif" font-size="10.00">org.msrg.raccoon.matrix.bulk.</text>
<text text-anchor="middle" x="393" y="-1054.5" font-family="Helvetica,sans-Serif" font-size="10.00">SliceMatrix</text>
<polyline fill="none" stroke="black" points="320,-1047.5 466,-1047.5 "/>
<text text-anchor="start" x="328" y="-1035.5" font-family="Helvetica,sans-Serif" font-size="10.00">+ _cols</text>
<text text-anchor="start" x="328" y="-1024.5" font-family="Helvetica,sans-Serif" font-size="10.00">+ _MAX_COLS_PRINT</text>
<text text-anchor="start" x="328" y="-1013.5" font-family="Helvetica,sans-Serif" font-size="10.00"># _b</text>
<text text-anchor="start" x="328" y="-1002.5" font-family="Helvetica,sans-Serif" font-size="10.00">&#45; serialVersionUID</text>
<polyline fill="none" stroke="black" points="320,-995.5 466,-995.5 "/>
<text text-anchor="start" x="328" y="-983.5" font-family="Helvetica,sans-Serif" font-size="10.00">+ SliceMatrix()</text>
<text text-anchor="start" x="328" y="-972.5" font-family="Helvetica,sans-Serif" font-size="10.00">+ loadNoCopy()</text>
<text text-anchor="start" x="328" y="-961.5" font-family="Helvetica,sans-Serif" font-size="10.00">+ loadWithCopy()</text>
<text text-anchor="start" x="328" y="-950.5" font-family="Helvetica,sans-Serif" font-size="10.00">+ SliceMatrix()</text>
<text text-anchor="start" x="328" y="-939.5" font-family="Helvetica,sans-Serif" font-size="10.00">+ SliceMatrix()</text>
<text text-anchor="start" x="328" y="-928.5" font-family="Helvetica,sans-Serif" font-size="10.00">+ getContent()</text>
<text text-anchor="start" x="328" y="-917.5" font-family="Helvetica,sans-Serif" font-size="10.00">+ hasContent()</text>
<text text-anchor="start" x="328" y="-906.5" font-family="Helvetica,sans-Serif" font-size="10.00">+ clone()</text>
<text text-anchor="start" x="328" y="-895.5" font-family="Helvetica,sans-Serif" font-size="10.00">+ equals()</text>
<text text-anchor="start" x="328" y="-884.5" font-family="Helvetica,sans-Serif" font-size="10.00">+ getByte()</text>
<text text-anchor="start" x="328" y="-873.5" font-family="Helvetica,sans-Serif" font-size="10.00">and 6 more...</text>
<text text-anchor="start" x="328" y="-862.5" font-family="Helvetica,sans-Serif" font-size="10.00">+ createRandomSliceMatrix()</text>
<text text-anchor="start" x="328" y="-851.5" font-family="Helvetica,sans-Serif" font-size="10.00">+ getEmptySliceMatrix()</text>
</a>
</g>
</g>
<!-- Node6&#45;&gt;Node7 -->
<g id="edge7" class="edge"><title>Node6&#45;&gt;Node7</title>
<path fill="none" stroke="midnightblue" d="M332.614,-1115.78C337.05,-1104.49 342.177,-1091.43 347.532,-1077.79"/>
<polygon fill="none" stroke="midnightblue" points="329.303,-1114.64 328.906,-1125.23 335.819,-1117.2 329.303,-1114.64"/>
</g>
<!-- Node7&#45;&gt;Node5 -->
<g id="edge6" class="edge"><title>Node7&#45;&gt;Node5</title>
<path fill="none" stroke="#404040" d="M412.343,-844.302C414.283,-832.694 416.281,-820.742 418.292,-808.714"/>
<polygon fill="none" stroke="#404040" points="418.327,-808.507 415.371,-801.929 420.306,-796.671 423.262,-803.249 418.327,-808.507"/>
<text text-anchor="middle" x="437" y="-818" font-family="Helvetica,sans-Serif" font-size="10.00"> #_slices</text>
</g>
<!-- Node8 -->
<g id="node8" class="node"><title>Node8</title>
<polygon fill="none" stroke="#bfbfbf" points="475.5,-1125.5 475.5,-1182.5 528.5,-1182.5 528.5,-1125.5 475.5,-1125.5"/>
<text text-anchor="middle" x="502" y="-1170.5" font-family="Helvetica,sans-Serif" font-size="10.00">Random</text>
<polyline fill="none" stroke="#bfbfbf" points="475.5,-1163.5 528.5,-1163.5 "/>
<text text-anchor="middle" x="502" y="-1151.5" font-family="Helvetica,sans-Serif" font-size="10.00"> </text>
<polyline fill="none" stroke="#bfbfbf" points="475.5,-1144.5 528.5,-1144.5 "/>
<text text-anchor="middle" x="502" y="-1132.5" font-family="Helvetica,sans-Serif" font-size="10.00"> </text>
</g>
<!-- Node8&#45;&gt;Node2 -->
<g id="edge10" class="edge"><title>Node8&#45;&gt;Node2</title>
<path fill="none" stroke="#404040" d="M528.614,-1127.48C540.691,-1114.05 553.669,-1096.54 560,-1078 587.329,-997.987 558.689,-504.488 543,-475 516.882,-425.908 467.931,-387.982 423.643,-361.66"/>
<polygon fill="none" stroke="#404040" points="423.48,-361.566 416.284,-362.022 413.095,-355.554 420.292,-355.098 423.48,-361.566"/>
<text text-anchor="middle" x="586.5" y="-818" font-family="Helvetica,sans-Serif" font-size="10.00"> #_rand</text>
</g>
<!-- Node8&#45;&gt;Node5 -->
<g id="edge9" class="edge"><title>Node8&#45;&gt;Node5</title>
<path fill="none" stroke="#404040" d="M500.018,-1125.26C496.052,-1071.11 486.522,-947.561 475,-844 473.714,-832.444 472.311,-820.535 470.841,-808.544"/>
<polygon fill="none" stroke="#404040" points="470.829,-808.444 466.12,-802.983 469.35,-796.535 474.059,-801.997 470.829,-808.444"/>
<text text-anchor="middle" x="526.5" y="-958.5" font-family="Helvetica,sans-Serif" font-size="10.00"> #_RANDOM</text>
</g>
<!-- Node8&#45;&gt;Node7 -->
<g id="edge8" class="edge"><title>Node8&#45;&gt;Node7</title>
<path fill="none" stroke="#404040" d="M475.364,-1142.36C459.631,-1134.75 440.584,-1123.02 429,-1107 424.863,-1101.28 421.198,-1095.13 417.953,-1088.72"/>
<polygon fill="none" stroke="#404040" points="417.897,-1088.6 411.754,-1084.82 412.877,-1077.7 419.02,-1081.47 417.897,-1088.6"/>
<text text-anchor="middle" x="458.5" y="-1099" font-family="Helvetica,sans-Serif" font-size="10.00"> #_RANDOM</text>
</g>
</g>
</svg>
        <g id="navigator" transform="translate(0 0)" fill="#404254">
                <rect fill="#f2f5e9" fill-opacity="0.5" stroke="#606060" stroke-width=".5" x="0" y="0" width="60" height="60"/>
                <use id="zoomplus" xlink:href="#zoomPlus" x="17" y="9" onmousedown="handleZoom(evt,'in')"/>
                <use id="zoomminus" xlink:href="#zoomMin" x="42" y="9" onmousedown="handleZoom(evt,'out')"/>
                <use id="reset" xlink:href="#resetDef" x="30" y="36" onmousedown="handleReset()"/>
                <g id="arrowUp" xlink:href="#dirArrow" transform="translate(30 24)" onmousedown="handlePan(0,-1)">
                  <use xlink:href="#rim" fill="#404040">
                        <set attributeName="fill" to="#808080" begin="arrowUp.mouseover" end="arrowUp.mouseout"/>
                  </use>
                  <path fill="none" stroke="white" stroke-width="1.5" d="M0,-3.0v7 M-2.5,-0.5L0,-3.0L2.5,-0.5"/>
                </g>
                <g id="arrowRight" xlink:href="#dirArrow" transform="rotate(90) translate(36 -43)" onmousedown="handlePan(1,0)">
                  <use xlink:href="#rim" fill="#404040">
                        <set attributeName="fill" to="#808080" begin="arrowRight.mouseover" end="arrowRight.mouseout"/>
                  </use>
                  <path fill="none" stroke="white" stroke-width="1.5" d="M0,-3.0v7 M-2.5,-0.5L0,-3.0L2.5,-0.5"/>
                </g>
                <g id="arrowDown" xlink:href="#dirArrow" transform="rotate(180) translate(-30 -48)" onmousedown="handlePan(0,1)">
                  <use xlink:href="#rim" fill="#404040">
                        <set attributeName="fill" to="#808080" begin="arrowDown.mouseover" end="arrowDown.mouseout"/>
                  </use>
                  <path fill="none" stroke="white" stroke-width="1.5" d="M0,-3.0v7 M-2.5,-0.5L0,-3.0L2.5,-0.5"/>
                </g>
                <g id="arrowLeft" xlink:href="#dirArrow" transform="rotate(270) translate(-36 17)" onmousedown="handlePan(-1,0)">
                  <use xlink:href="#rim" fill="#404040">
                        <set attributeName="fill" to="#808080" begin="arrowLeft.mouseover" end="arrowLeft.mouseout"/>
                  </use>
                  <path fill="none" stroke="white" stroke-width="1.5" d="M0,-3.0v7 M-2.5,-0.5L0,-3.0L2.5,-0.5"/>
                </g>
        </g>
        <svg viewBox="0 0 15 15" width="100%" height="30px" preserveAspectRatio="xMaxYMin meet">
         <g id="arrow_out" transform="scale(0.3 0.3)">
          <a xlink:href="classorg_1_1msrg_1_1raccoon_1_1SourceCodedBatch__coll__graph_org.svg" target="_base">
           <rect id="button" ry="5" rx="5" y="6" x="6" height="38" width="38"
                fill="#f2f5e9" fill-opacity="0.5" stroke="#606060" stroke-width="1.0"/>
           <path id="arrow"
             d="M 11.500037,31.436501 C 11.940474,20.09759 22.043105,11.32322 32.158766,21.979434 L 37.068811,17.246167 C 37.068811,17.246167 37.088388,32 37.088388,32 L 22.160133,31.978069 C 22.160133,31.978069 26.997745,27.140456 26.997745,27.140456 C 18.528582,18.264221 13.291696,25.230495 11.500037,31.436501 z"
             style="fill:#404040;"/>
          </a>
         </g>
        </svg>
</svg>
