<?xml version="1.0" encoding="UTF-8" standalone="no"?>
<!DOCTYPE svg PUBLIC "-//W3C//DTD SVG 1.1//EN"
 "http://www.w3.org/Graphics/SVG/1.1/DTD/svg11.dtd">
<!-- Generated by graphviz version 2.38.0 (20140413.2041)
 -->
<!-- Title: org.msrg.raccoon.finitefields.Tables.FFMulFast Pages: 1 -->
<svg width="576pt" height="88pt"
 viewBox="0.00 0.00 576.00 88.00" xmlns="http://www.w3.org/2000/svg" xmlns:xlink="http://www.w3.org/1999/xlink">
<g id="graph0" class="graph" transform="scale(1 1) rotate(0) translate(4 84)">
<title>org.msrg.raccoon.finitefields.Tables.FFMulFast</title>
<!-- Node1 -->
<g id="node1" class="node"><title>Node1</title>
<polygon fill="#bfbfbf" stroke="black" points="0,-24.5 0,-54.5 143,-54.5 143,-24.5 0,-24.5"/>
<text text-anchor="start" x="8" y="-42.5" font-family="Helvetica,sans-Serif" font-size="10.00">org.msrg.raccoon.finitefields.</text>
<text text-anchor="middle" x="71.5" y="-31.5" font-family="Helvetica,sans-Serif" font-size="10.00">Tables.FFMulFast</text>
</g>
<!-- Node2 -->
<g id="node2" class="node"><title>Node2</title>
<g id="a_node2"><a xlink:href="../../de/d17/classorg_1_1msrg_1_1raccoon_1_1matrix_1_1finitefields_1_1FFByteMatrix_a486c7b8600578fcd9816671318051e8e.html#a486c7b8600578fcd9816671318051e8e" target="_top" xlink:title="org.msrg.raccoon.matrix.finitefields.\lFFByteMatrix.multiply">
<polygon fill="none" stroke="black" points="179,-24.5 179,-54.5 352,-54.5 352,-24.5 179,-24.5"/>
<text text-anchor="start" x="187" y="-42.5" font-family="Helvetica,sans-Serif" font-size="10.00">org.msrg.raccoon.matrix.finitefields.</text>
<text text-anchor="middle" x="265.5" y="-31.5" font-family="Helvetica,sans-Serif" font-size="10.00">FFByteMatrix.multiply</text>
</a>
</g>
</g>
<!-- Node1&#45;&gt;Node2 -->
<g id="edge1" class="edge"><title>Node1&#45;&gt;Node2</title>
<path fill="none" stroke="midnightblue" d="M153.399,-39.5C161.86,-39.5 170.482,-39.5 178.993,-39.5"/>
<polygon fill="midnightblue" stroke="midnightblue" points="153.176,-36.0001 143.176,-39.5 153.176,-43.0001 153.176,-36.0001"/>
</g>
<!-- Node3 -->
<g id="node3" class="node"><title>Node3</title>
<g id="a_node3"><a xlink:href="../../de/d17/classorg_1_1msrg_1_1raccoon_1_1matrix_1_1finitefields_1_1FFByteMatrix_a1d366abbfeb41906e5e66731c26de47a.html#a1d366abbfeb41906e5e66731c26de47a" target="_top" xlink:title="org.msrg.raccoon.matrix.finitefields.\lFFByteMatrix.divide">
<polygon fill="none" stroke="black" points="391.5,-49.5 391.5,-79.5 564.5,-79.5 564.5,-49.5 391.5,-49.5"/>
<text text-anchor="start" x="399.5" y="-67.5" font-family="Helvetica,sans-Serif" font-size="10.00">org.msrg.raccoon.matrix.finitefields.</text>
<text text-anchor="middle" x="478" y="-56.5" font-family="Helvetica,sans-Serif" font-size="10.00">FFByteMatrix.divide</text>
</a>
</g>
</g>
<!-- Node2&#45;&gt;Node3 -->
<g id="edge2" class="edge"><title>Node2&#45;&gt;Node3</title>
<path fill="none" stroke="midnightblue" d="M362.223,-50.8685C371.97,-52.0262 381.828,-53.1969 391.457,-54.3406"/>
<polygon fill="midnightblue" stroke="midnightblue" points="362.461,-47.3723 352.118,-49.6685 361.636,-54.3235 362.461,-47.3723"/>
</g>
<!-- Node4 -->
<g id="node4" class="node"><title>Node4</title>
<g id="a_node4"><a xlink:href="../../de/d17/classorg_1_1msrg_1_1raccoon_1_1matrix_1_1finitefields_1_1FFByteMatrix_a5ae32dafc3af3803729cd9010c118a73.html#a5ae32dafc3af3803729cd9010c118a73" target="_top" xlink:title="org.msrg.raccoon.matrix.finitefields.\lFFByteMatrix.multiplyAndAddInPlace">
<polygon fill="none" stroke="black" points="388,-0.5 388,-30.5 568,-30.5 568,-0.5 388,-0.5"/>
<text text-anchor="start" x="396" y="-18.5" font-family="Helvetica,sans-Serif" font-size="10.00">org.msrg.raccoon.matrix.finitefields.</text>
<text text-anchor="middle" x="478" y="-7.5" font-family="Helvetica,sans-Serif" font-size="10.00">FFByteMatrix.multiplyAndAddInPlace</text>
</a>
</g>
</g>
<!-- Node2&#45;&gt;Node4 -->
<g id="edge3" class="edge"><title>Node2&#45;&gt;Node4</title>
<path fill="none" stroke="midnightblue" d="M362.077,-28.6029C370.605,-27.6306 379.218,-26.6485 387.691,-25.6825"/>
<polygon fill="midnightblue" stroke="midnightblue" points="361.658,-25.1279 352.118,-29.7383 362.451,-32.0829 361.658,-25.1279"/>
</g>
</g>
</svg>
