<?xml version="1.0" encoding="UTF-8" standalone="no"?>
<!DOCTYPE svg PUBLIC "-//W3C//DTD SVG 1.1//EN"
 "http://www.w3.org/Graphics/SVG/1.1/DTD/svg11.dtd">
<!-- Generated by graphviz version 2.38.0 (20140413.2041)
 -->
<!-- Title: org.msrg.raccoon.finitefields.Tables.FFInv Pages: 1 -->
<svg width="569pt" height="39pt"
 viewBox="0.00 0.00 569.00 39.00" xmlns="http://www.w3.org/2000/svg" xmlns:xlink="http://www.w3.org/1999/xlink">
<g id="graph0" class="graph" transform="scale(1 1) rotate(0) translate(4 35)">
<title>org.msrg.raccoon.finitefields.Tables.FFInv</title>
<!-- Node1 -->
<g id="node1" class="node"><title>Node1</title>
<polygon fill="#bfbfbf" stroke="black" points="0,-0.5 0,-30.5 143,-30.5 143,-0.5 0,-0.5"/>
<text text-anchor="start" x="8" y="-18.5" font-family="Helvetica,sans-Serif" font-size="10.00">org.msrg.raccoon.finitefields.</text>
<text text-anchor="middle" x="71.5" y="-7.5" font-family="Helvetica,sans-Serif" font-size="10.00">Tables.FFInv</text>
</g>
<!-- Node2 -->
<g id="node2" class="node"><title>Node2</title>
<g id="a_node2"><a xlink:href="../../de/d17/classorg_1_1msrg_1_1raccoon_1_1matrix_1_1finitefields_1_1FFByteMatrix_a3b821503d7ac12e3711ffca12bdcd735.html#a3b821503d7ac12e3711ffca12bdcd735" target="_top" xlink:title="org.msrg.raccoon.matrix.finitefields.\lFFByteMatrix.inverse">
<polygon fill="none" stroke="black" points="179,-0.5 179,-30.5 352,-30.5 352,-0.5 179,-0.5"/>
<text text-anchor="start" x="187" y="-18.5" font-family="Helvetica,sans-Serif" font-size="10.00">org.msrg.raccoon.matrix.finitefields.</text>
<text text-anchor="middle" x="265.5" y="-7.5" font-family="Helvetica,sans-Serif" font-size="10.00">FFByteMatrix.inverse</text>
</a>
</g>
</g>
<!-- Node1&#45;&gt;Node2 -->
<g id="edge1" class="edge"><title>Node1&#45;&gt;Node2</title>
<path fill="none" stroke="midnightblue" d="M153.399,-15.5C161.86,-15.5 170.482,-15.5 178.993,-15.5"/>
<polygon fill="midnightblue" stroke="midnightblue" points="153.176,-12.0001 143.176,-15.5 153.176,-19.0001 153.176,-12.0001"/>
</g>
<!-- Node3 -->
<g id="node3" class="node"><title>Node3</title>
<g id="a_node3"><a xlink:href="../../de/d17/classorg_1_1msrg_1_1raccoon_1_1matrix_1_1finitefields_1_1FFByteMatrix_a1d366abbfeb41906e5e66731c26de47a.html#a1d366abbfeb41906e5e66731c26de47a" target="_top" xlink:title="org.msrg.raccoon.matrix.finitefields.\lFFByteMatrix.divide">
<polygon fill="none" stroke="black" points="388,-0.5 388,-30.5 561,-30.5 561,-0.5 388,-0.5"/>
<text text-anchor="start" x="396" y="-18.5" font-family="Helvetica,sans-Serif" font-size="10.00">org.msrg.raccoon.matrix.finitefields.</text>
<text text-anchor="middle" x="474.5" y="-7.5" font-family="Helvetica,sans-Serif" font-size="10.00">FFByteMatrix.divide</text>
</a>
</g>
</g>
<!-- Node2&#45;&gt;Node3 -->
<g id="edge2" class="edge"><title>Node2&#45;&gt;Node3</title>
<path fill="none" stroke="midnightblue" d="M362.198,-15.5C370.764,-15.5 379.402,-15.5 387.875,-15.5"/>
<polygon fill="midnightblue" stroke="midnightblue" points="362.189,-12.0001 352.189,-15.5 362.189,-19.0001 362.189,-12.0001"/>
</g>
</g>
</svg>
