<?xml version="1.0" encoding="UTF-8" standalone="no"?>
<!DOCTYPE svg PUBLIC "-//W3C//DTD SVG 1.1//EN"
 "http://www.w3.org/Graphics/SVG/1.1/DTD/svg11.dtd">
<!-- Generated by graphviz version 2.38.0 (20140413.2041)
 -->
<!-- Title: org.msrg.raccoon.engine.thread.CodingThreadImpl.runTask Pages: 1 -->
<svg width="898pt" height="431pt"
 viewBox="0.00 0.00 898.00 431.00" xmlns="http://www.w3.org/2000/svg" xmlns:xlink="http://www.w3.org/1999/xlink">
<g id="graph0" class="graph" transform="scale(1 1) rotate(0) translate(4 427)">
<title>org.msrg.raccoon.engine.thread.CodingThreadImpl.runTask</title>
<!-- Node1 -->
<g id="node1" class="node"><title>Node1</title>
<polygon fill="#bfbfbf" stroke="black" points="0,-269.5 0,-299.5 157,-299.5 157,-269.5 0,-269.5"/>
<text text-anchor="start" x="8" y="-287.5" font-family="Helvetica,sans-Serif" font-size="10.00">org.msrg.raccoon.engine.thread.</text>
<text text-anchor="middle" x="78.5" y="-276.5" font-family="Helvetica,sans-Serif" font-size="10.00">CodingThreadImpl.runTask</text>
</g>
<!-- Node2 -->
<g id="node2" class="node"><title>Node2</title>
<g id="a_node2"><a xlink:href="../../d6/d6d/classorg_1_1msrg_1_1raccoon_1_1matrix_1_1bulk_1_1SliceMatrix_ab8a2304660d8a4a21f13ddd94b15949e.html#ab8a2304660d8a4a21f13ddd94b15949e" target="_top" xlink:title="org.msrg.raccoon.matrix.bulk.\lSliceMatrix.equals">
<polygon fill="none" stroke="black" points="235,-392.5 235,-422.5 381,-422.5 381,-392.5 235,-392.5"/>
<text text-anchor="start" x="243" y="-410.5" font-family="Helvetica,sans-Serif" font-size="10.00">org.msrg.raccoon.matrix.bulk.</text>
<text text-anchor="middle" x="308" y="-399.5" font-family="Helvetica,sans-Serif" font-size="10.00">SliceMatrix.equals</text>
</a>
</g>
</g>
<!-- Node1&#45;&gt;Node2 -->
<g id="edge1" class="edge"><title>Node1&#45;&gt;Node2</title>
<path fill="none" stroke="midnightblue" d="M92.1106,-299.577C111.443,-321.64 150.643,-362.388 193,-383.5 203.01,-388.489 214.016,-392.443 225.119,-395.576"/>
<polygon fill="midnightblue" stroke="midnightblue" points="224.319,-398.984 234.879,-398.123 226.087,-392.211 224.319,-398.984"/>
</g>
<!-- Node4 -->
<g id="node4" class="node"><title>Node4</title>
<g id="a_node4"><a xlink:href="../../d9/d22/classorg_1_1msrg_1_1raccoon_1_1engine_1_1task_1_1CodingTask_aa30b067dc85770bd21c6d4bf3f1030e3.html#aa30b067dc85770bd21c6d4bf3f1030e3" target="_top" xlink:title="org.msrg.raccoon.engine.task.\lCodingTask.failed">
<polygon fill="none" stroke="black" points="233.5,-343.5 233.5,-373.5 382.5,-373.5 382.5,-343.5 233.5,-343.5"/>
<text text-anchor="start" x="241.5" y="-361.5" font-family="Helvetica,sans-Serif" font-size="10.00">org.msrg.raccoon.engine.task.</text>
<text text-anchor="middle" x="308" y="-350.5" font-family="Helvetica,sans-Serif" font-size="10.00">CodingTask.failed</text>
</a>
</g>
</g>
<!-- Node1&#45;&gt;Node4 -->
<g id="edge3" class="edge"><title>Node1&#45;&gt;Node4</title>
<path fill="none" stroke="midnightblue" d="M109.187,-299.614C131.708,-310.575 163.688,-325.071 193,-334.5 202.776,-337.645 213.158,-340.486 223.522,-343.021"/>
<polygon fill="midnightblue" stroke="midnightblue" points="222.896,-346.469 233.432,-345.357 224.502,-339.656 222.896,-346.469"/>
</g>
<!-- Node7 -->
<g id="node7" class="node"><title>Node7</title>
<g id="a_node7"><a xlink:href="../../d9/d22/classorg_1_1msrg_1_1raccoon_1_1engine_1_1task_1_1CodingTask_ad70fe3d442e4abc077f97950a73a6de6.html#ad70fe3d442e4abc077f97950a73a6de6" target="_top" xlink:title="org.msrg.raccoon.engine.task.\lCodingTask.finished">
<polygon fill="none" stroke="black" points="233.5,-294.5 233.5,-324.5 382.5,-324.5 382.5,-294.5 233.5,-294.5"/>
<text text-anchor="start" x="241.5" y="-312.5" font-family="Helvetica,sans-Serif" font-size="10.00">org.msrg.raccoon.engine.task.</text>
<text text-anchor="middle" x="308" y="-301.5" font-family="Helvetica,sans-Serif" font-size="10.00">CodingTask.finished</text>
</a>
</g>
</g>
<!-- Node1&#45;&gt;Node7 -->
<g id="edge6" class="edge"><title>Node1&#45;&gt;Node7</title>
<path fill="none" stroke="midnightblue" d="M157.156,-293.034C178.381,-295.366 201.475,-297.904 223.034,-300.273"/>
<polygon fill="midnightblue" stroke="midnightblue" points="222.826,-303.771 233.148,-301.384 223.591,-296.813 222.826,-303.771"/>
</g>
<!-- Node8 -->
<g id="node8" class="node"><title>Node8</title>
<g id="a_node8"><a xlink:href="../../db/d3f/classorg_1_1msrg_1_1raccoon_1_1matrix_1_1TypedMatrix_a62f3b28a72c0c130fa783e1129694d4e.html#a62f3b28a72c0c130fa783e1129694d4e" target="_top" xlink:title="org.msrg.raccoon.matrix.\lTypedMatrix.inverseMatrix">
<polygon fill="none" stroke="black" points="242,-245.5 242,-275.5 374,-275.5 374,-245.5 242,-245.5"/>
<text text-anchor="start" x="250" y="-263.5" font-family="Helvetica,sans-Serif" font-size="10.00">org.msrg.raccoon.matrix.</text>
<text text-anchor="middle" x="308" y="-252.5" font-family="Helvetica,sans-Serif" font-size="10.00">TypedMatrix.inverseMatrix</text>
</a>
</g>
</g>
<!-- Node1&#45;&gt;Node8 -->
<g id="edge8" class="edge"><title>Node1&#45;&gt;Node8</title>
<path fill="none" stroke="midnightblue" d="M157.156,-276.308C181.259,-273.765 207.774,-270.968 231.713,-268.442"/>
<polygon fill="midnightblue" stroke="midnightblue" points="232.223,-271.908 241.8,-267.378 231.488,-264.947 232.223,-271.908"/>
</g>
<!-- Node9 -->
<g id="node9" class="node"><title>Node9</title>
<g id="a_node9"><a xlink:href="../../d6/d37/classorg_1_1msrg_1_1raccoon_1_1matrix_1_1finitefields_1_1ByteMatrix1D_afdc7ff8a8726716ba954854799d35af1.html#afdc7ff8a8726716ba954854799d35af1" target="_top" xlink:title="org.msrg.raccoon.matrix.finitefields.\lByteMatrix1D.multiply1D">
<polygon fill="none" stroke="black" points="221.5,-196.5 221.5,-226.5 394.5,-226.5 394.5,-196.5 221.5,-196.5"/>
<text text-anchor="start" x="229.5" y="-214.5" font-family="Helvetica,sans-Serif" font-size="10.00">org.msrg.raccoon.matrix.finitefields.</text>
<text text-anchor="middle" x="308" y="-203.5" font-family="Helvetica,sans-Serif" font-size="10.00">ByteMatrix1D.multiply1D</text>
</a>
</g>
</g>
<!-- Node1&#45;&gt;Node9 -->
<g id="edge9" class="edge"><title>Node1&#45;&gt;Node9</title>
<path fill="none" stroke="midnightblue" d="M110.711,-269.458C133.188,-259.084 164.457,-245.58 193,-236.5 201.508,-233.794 210.464,-231.278 219.463,-228.968"/>
<polygon fill="midnightblue" stroke="midnightblue" points="220.363,-232.351 229.224,-226.543 218.675,-225.557 220.363,-232.351"/>
</g>
<!-- Node14 -->
<g id="node14" class="node"><title>Node14</title>
<g id="a_node14"><a xlink:href="../../d6/d78/classorg_1_1msrg_1_1raccoon_1_1engine_1_1task_1_1sequential_1_1SequentialCodingTask_a0f1697228b30f8a446c0e9c2516010f8.html#a0f1697228b30f8a446c0e9c2516010f8" target="_top" xlink:title="org.msrg.raccoon.engine.task.sequential.\lSequentialCodingTask.runInitialSequencialTasks">
<polygon fill="none" stroke="black" points="193,-74.5 193,-104.5 423,-104.5 423,-74.5 193,-74.5"/>
<text text-anchor="start" x="201" y="-92.5" font-family="Helvetica,sans-Serif" font-size="10.00">org.msrg.raccoon.engine.task.sequential.</text>
<text text-anchor="middle" x="308" y="-81.5" font-family="Helvetica,sans-Serif" font-size="10.00">SequentialCodingTask.runInitialSequencialTasks</text>
</a>
</g>
</g>
<!-- Node1&#45;&gt;Node14 -->
<g id="edge14" class="edge"><title>Node1&#45;&gt;Node14</title>
<path fill="none" stroke="midnightblue" d="M97.3515,-269.199C137.47,-234.811 234.883,-151.314 281.422,-111.424"/>
<polygon fill="midnightblue" stroke="midnightblue" points="283.917,-113.896 289.231,-104.73 279.361,-108.581 283.917,-113.896"/>
</g>
<!-- Node3 -->
<g id="node3" class="node"><title>Node3</title>
<g id="a_node3"><a xlink:href="../../d6/d6d/classorg_1_1msrg_1_1raccoon_1_1matrix_1_1bulk_1_1SliceMatrix_aeb3fa63b05dee9bbf6e2f5779ab0c134.html#aeb3fa63b05dee9bbf6e2f5779ab0c134" target="_top" xlink:title="org.msrg.raccoon.matrix.bulk.\lSliceMatrix.SliceMatrix">
<polygon fill="none" stroke="black" points="485.5,-392.5 485.5,-422.5 631.5,-422.5 631.5,-392.5 485.5,-392.5"/>
<text text-anchor="start" x="493.5" y="-410.5" font-family="Helvetica,sans-Serif" font-size="10.00">org.msrg.raccoon.matrix.bulk.</text>
<text text-anchor="middle" x="558.5" y="-399.5" font-family="Helvetica,sans-Serif" font-size="10.00">SliceMatrix.SliceMatrix</text>
</a>
</g>
</g>
<!-- Node2&#45;&gt;Node3 -->
<g id="edge2" class="edge"><title>Node2&#45;&gt;Node3</title>
<path fill="none" stroke="midnightblue" d="M381.21,-407.5C410.565,-407.5 444.649,-407.5 474.98,-407.5"/>
<polygon fill="midnightblue" stroke="midnightblue" points="475.11,-411 485.11,-407.5 475.11,-404 475.11,-411"/>
</g>
<!-- Node5 -->
<g id="node5" class="node"><title>Node5</title>
<g id="a_node5"><a xlink:href="../../d9/d22/classorg_1_1msrg_1_1raccoon_1_1engine_1_1task_1_1CodingTask_a044111e531607f65b98aa358f8b9ea87.html#a044111e531607f65b98aa358f8b9ea87" target="_top" xlink:title="org.msrg.raccoon.engine.task.\lCodingTask.changeStatus">
<polygon fill="none" stroke="black" points="484,-343.5 484,-373.5 633,-373.5 633,-343.5 484,-343.5"/>
<text text-anchor="start" x="492" y="-361.5" font-family="Helvetica,sans-Serif" font-size="10.00">org.msrg.raccoon.engine.task.</text>
<text text-anchor="middle" x="558.5" y="-350.5" font-family="Helvetica,sans-Serif" font-size="10.00">CodingTask.changeStatus</text>
</a>
</g>
</g>
<!-- Node4&#45;&gt;Node5 -->
<g id="edge4" class="edge"><title>Node4&#45;&gt;Node5</title>
<path fill="none" stroke="midnightblue" d="M382.55,-358.5C411.099,-358.5 443.959,-358.5 473.437,-358.5"/>
<polygon fill="midnightblue" stroke="midnightblue" points="473.71,-362 483.71,-358.5 473.71,-355 473.71,-362"/>
</g>
<!-- Node6 -->
<g id="node6" class="node"><title>Node6</title>
<g id="a_node6"><a xlink:href="../../df/d3e/classorg_1_1msrg_1_1raccoon_1_1engine_1_1task_1_1result_1_1CodingResult_adc1efbef3678d862aeb3e8d2caea6a47.html#adc1efbef3678d862aeb3e8d2caea6a47" target="_top" xlink:title="org.msrg.raccoon.engine.task.result.\lCodingResult.setStatus">
<polygon fill="none" stroke="black" points="704,-343.5 704,-373.5 880,-373.5 880,-343.5 704,-343.5"/>
<text text-anchor="start" x="712" y="-361.5" font-family="Helvetica,sans-Serif" font-size="10.00">org.msrg.raccoon.engine.task.result.</text>
<text text-anchor="middle" x="792" y="-350.5" font-family="Helvetica,sans-Serif" font-size="10.00">CodingResult.setStatus</text>
</a>
</g>
</g>
<!-- Node5&#45;&gt;Node6 -->
<g id="edge5" class="edge"><title>Node5&#45;&gt;Node6</title>
<path fill="none" stroke="midnightblue" d="M633.066,-358.5C652.32,-358.5 673.379,-358.5 693.663,-358.5"/>
<polygon fill="midnightblue" stroke="midnightblue" points="693.865,-362 703.865,-358.5 693.865,-355 693.865,-362"/>
</g>
<!-- Node7&#45;&gt;Node5 -->
<g id="edge7" class="edge"><title>Node7&#45;&gt;Node5</title>
<path fill="none" stroke="midnightblue" d="M382.55,-324.003C411.224,-329.657 444.246,-336.168 473.823,-342"/>
<polygon fill="midnightblue" stroke="midnightblue" points="473.222,-345.449 483.71,-343.95 474.576,-338.581 473.222,-345.449"/>
</g>
<!-- Node10 -->
<g id="node10" class="node"><title>Node10</title>
<g id="a_node10"><a xlink:href="../../df/da4/classorg_1_1msrg_1_1raccoon_1_1matrix_1_1bulk_1_1BulkMatrix_a4af2f7af83b88f86fe2b33adfdd1db48.html#a4af2f7af83b88f86fe2b33adfdd1db48" target="_top" xlink:title="org.msrg.raccoon.matrix.bulk.\lBulkMatrix.createOneEmtpySlice">
<polygon fill="none" stroke="black" points="478,-294.5 478,-324.5 639,-324.5 639,-294.5 478,-294.5"/>
<text text-anchor="start" x="486" y="-312.5" font-family="Helvetica,sans-Serif" font-size="10.00">org.msrg.raccoon.matrix.bulk.</text>
<text text-anchor="middle" x="558.5" y="-301.5" font-family="Helvetica,sans-Serif" font-size="10.00">BulkMatrix.createOneEmtpySlice</text>
</a>
</g>
</g>
<!-- Node9&#45;&gt;Node10 -->
<g id="edge10" class="edge"><title>Node9&#45;&gt;Node10</title>
<path fill="none" stroke="midnightblue" d="M394.563,-223.082C404.601,-226.486 414.337,-230.867 423,-236.5 445.656,-251.231 436.516,-270.508 459,-285.5 462.112,-287.575 465.386,-289.471 468.774,-291.203"/>
<polygon fill="midnightblue" stroke="midnightblue" points="467.424,-294.434 477.973,-295.416 470.339,-288.07 467.424,-294.434"/>
</g>
<!-- Node11 -->
<g id="node11" class="node"><title>Node11</title>
<g id="a_node11"><a xlink:href="../../df/da4/classorg_1_1msrg_1_1raccoon_1_1matrix_1_1bulk_1_1BulkMatrix_a804160abadbedfe02caa0c441731a519.html#a804160abadbedfe02caa0c441731a519" target="_top" xlink:title="org.msrg.raccoon.matrix.bulk.\lBulkMatrix.getContent">
<polygon fill="none" stroke="black" points="485.5,-245.5 485.5,-275.5 631.5,-275.5 631.5,-245.5 485.5,-245.5"/>
<text text-anchor="start" x="493.5" y="-263.5" font-family="Helvetica,sans-Serif" font-size="10.00">org.msrg.raccoon.matrix.bulk.</text>
<text text-anchor="middle" x="558.5" y="-252.5" font-family="Helvetica,sans-Serif" font-size="10.00">BulkMatrix.getContent</text>
</a>
</g>
</g>
<!-- Node9&#45;&gt;Node11 -->
<g id="edge11" class="edge"><title>Node9&#45;&gt;Node11</title>
<path fill="none" stroke="midnightblue" d="M385.247,-226.535C413.707,-232.146 446.138,-238.541 475.125,-244.257"/>
<polygon fill="midnightblue" stroke="midnightblue" points="474.734,-247.747 485.222,-246.248 476.089,-240.88 474.734,-247.747"/>
</g>
<!-- Node12 -->
<g id="node12" class="node"><title>Node12</title>
<g id="a_node12"><a xlink:href="../../db/d3f/classorg_1_1msrg_1_1raccoon_1_1matrix_1_1TypedMatrix_af8b135c80a283acac5996df88e99c99a.html#af8b135c80a283acac5996df88e99c99a" target="_top" xlink:title="org.msrg.raccoon.matrix.\lTypedMatrix.verify">
<polygon fill="none" stroke="black" points="496,-196.5 496,-226.5 621,-226.5 621,-196.5 496,-196.5"/>
<text text-anchor="start" x="504" y="-214.5" font-family="Helvetica,sans-Serif" font-size="10.00">org.msrg.raccoon.matrix.</text>
<text text-anchor="middle" x="558.5" y="-203.5" font-family="Helvetica,sans-Serif" font-size="10.00">TypedMatrix.verify</text>
</a>
</g>
</g>
<!-- Node9&#45;&gt;Node12 -->
<g id="edge12" class="edge"><title>Node9&#45;&gt;Node12</title>
<path fill="none" stroke="midnightblue" d="M394.52,-211.5C424.154,-211.5 457.054,-211.5 485.491,-211.5"/>
<polygon fill="midnightblue" stroke="midnightblue" points="485.751,-215 495.751,-211.5 485.751,-208 485.751,-215"/>
</g>
<!-- Node13 -->
<g id="node13" class="node"><title>Node13</title>
<g id="a_node13"><a xlink:href="../../d6/d6d/classorg_1_1msrg_1_1raccoon_1_1matrix_1_1bulk_1_1SliceMatrix_a4c85807433398a037c9d6885569fba0e.html#a4c85807433398a037c9d6885569fba0e" target="_top" xlink:title="org.msrg.raccoon.matrix.bulk.\lSliceMatrix.loadNoCopy">
<polygon fill="none" stroke="black" points="485.5,-147.5 485.5,-177.5 631.5,-177.5 631.5,-147.5 485.5,-147.5"/>
<text text-anchor="start" x="493.5" y="-165.5" font-family="Helvetica,sans-Serif" font-size="10.00">org.msrg.raccoon.matrix.bulk.</text>
<text text-anchor="middle" x="558.5" y="-154.5" font-family="Helvetica,sans-Serif" font-size="10.00">SliceMatrix.loadNoCopy</text>
</a>
</g>
</g>
<!-- Node9&#45;&gt;Node13 -->
<g id="edge13" class="edge"><title>Node9&#45;&gt;Node13</title>
<path fill="none" stroke="midnightblue" d="M385.247,-196.465C413.707,-190.854 446.138,-184.459 475.125,-178.743"/>
<polygon fill="midnightblue" stroke="midnightblue" points="476.089,-182.12 485.222,-176.752 474.734,-175.253 476.089,-182.12"/>
</g>
<!-- Node15 -->
<g id="node15" class="node"><title>Node15</title>
<g id="a_node15"><a xlink:href="../../d6/d78/classorg_1_1msrg_1_1raccoon_1_1engine_1_1task_1_1sequential_1_1SequentialCodingTask_a144e5086b6be72e0c13869c563c7189c.html#a144e5086b6be72e0c13869c563c7189c" target="_top" xlink:title="org.msrg.raccoon.engine.task.sequential.\lSequentialCodingTask.finished">
<polygon fill="none" stroke="black" points="460.5,-98.5 460.5,-128.5 656.5,-128.5 656.5,-98.5 460.5,-98.5"/>
<text text-anchor="start" x="468.5" y="-116.5" font-family="Helvetica,sans-Serif" font-size="10.00">org.msrg.raccoon.engine.task.sequential.</text>
<text text-anchor="middle" x="558.5" y="-105.5" font-family="Helvetica,sans-Serif" font-size="10.00">SequentialCodingTask.finished</text>
</a>
</g>
</g>
<!-- Node14&#45;&gt;Node15 -->
<g id="edge15" class="edge"><title>Node14&#45;&gt;Node15</title>
<path fill="none" stroke="midnightblue" d="M423.068,-100.517C432.153,-101.394 441.311,-102.278 450.346,-103.151"/>
<polygon fill="midnightblue" stroke="midnightblue" points="450.194,-106.653 460.484,-104.13 450.867,-99.685 450.194,-106.653"/>
</g>
<!-- Node16 -->
<g id="node16" class="node"><title>Node16</title>
<g id="a_node16"><a xlink:href="../../d6/d78/classorg_1_1msrg_1_1raccoon_1_1engine_1_1task_1_1sequential_1_1SequentialCodingTask_a20507db4cd28c24453172612ae32afe5.html#a20507db4cd28c24453172612ae32afe5" target="_top" xlink:title="org.msrg.raccoon.engine.task.sequential.\lSequentialCodingTask.reachedFinalStage">
<polygon fill="none" stroke="black" points="459,-49.5 459,-79.5 658,-79.5 658,-49.5 459,-49.5"/>
<text text-anchor="start" x="467" y="-67.5" font-family="Helvetica,sans-Serif" font-size="10.00">org.msrg.raccoon.engine.task.sequential.</text>
<text text-anchor="middle" x="558.5" y="-56.5" font-family="Helvetica,sans-Serif" font-size="10.00">SequentialCodingTask.reachedFinalStage</text>
</a>
</g>
</g>
<!-- Node14&#45;&gt;Node16 -->
<g id="edge16" class="edge"><title>Node14&#45;&gt;Node16</title>
<path fill="none" stroke="midnightblue" d="M423.068,-78.0244C431.688,-77.1571 440.374,-76.2833 448.959,-75.4196"/>
<polygon fill="midnightblue" stroke="midnightblue" points="449.38,-78.895 458.98,-74.4115 448.679,-71.9302 449.38,-78.895"/>
</g>
<!-- Node18 -->
<g id="node18" class="node"><title>Node18</title>
<g id="a_node18"><a xlink:href="../../d6/d78/classorg_1_1msrg_1_1raccoon_1_1engine_1_1task_1_1sequential_1_1SequentialCodingTask_ad77c45b81cc45af6ec6f65eb2984ae62.html#ad77c45b81cc45af6ec6f65eb2984ae62" target="_top" xlink:title="org.msrg.raccoon.engine.task.sequential.\lSequentialCodingTask.runStagePrivately">
<polygon fill="none" stroke="black" points="460.5,-0.5 460.5,-30.5 656.5,-30.5 656.5,-0.5 460.5,-0.5"/>
<text text-anchor="start" x="468.5" y="-18.5" font-family="Helvetica,sans-Serif" font-size="10.00">org.msrg.raccoon.engine.task.sequential.</text>
<text text-anchor="middle" x="558.5" y="-7.5" font-family="Helvetica,sans-Serif" font-size="10.00">SequentialCodingTask.runStagePrivately</text>
</a>
</g>
</g>
<!-- Node14&#45;&gt;Node18 -->
<g id="edge18" class="edge"><title>Node14&#45;&gt;Node18</title>
<path fill="none" stroke="midnightblue" d="M352.409,-74.4642C382.232,-64.3453 422.82,-50.9879 459,-40.5 467.649,-37.9929 476.764,-35.4918 485.816,-33.0939"/>
<polygon fill="midnightblue" stroke="midnightblue" points="486.801,-36.4542 495.589,-30.537 485.029,-29.6822 486.801,-36.4542"/>
</g>
<!-- Node17 -->
<g id="node17" class="node"><title>Node17</title>
<g id="a_node17"><a xlink:href="../../d6/d78/classorg_1_1msrg_1_1raccoon_1_1engine_1_1task_1_1sequential_1_1SequentialCodingTask_aac71a63fa055d799d050d072c04e5eec.html#aac71a63fa055d799d050d072c04e5eec" target="_top" xlink:title="org.msrg.raccoon.engine.task.sequential.\lSequentialCodingTask.getFinalStage">
<polygon fill="none" stroke="black" points="694,-49.5 694,-79.5 890,-79.5 890,-49.5 694,-49.5"/>
<text text-anchor="start" x="702" y="-67.5" font-family="Helvetica,sans-Serif" font-size="10.00">org.msrg.raccoon.engine.task.sequential.</text>
<text text-anchor="middle" x="792" y="-56.5" font-family="Helvetica,sans-Serif" font-size="10.00">SequentialCodingTask.getFinalStage</text>
</a>
</g>
</g>
<!-- Node16&#45;&gt;Node17 -->
<g id="edge17" class="edge"><title>Node16&#45;&gt;Node17</title>
<path fill="none" stroke="midnightblue" d="M658.013,-64.5C666.504,-64.5 675.122,-64.5 683.678,-64.5"/>
<polygon fill="midnightblue" stroke="midnightblue" points="683.683,-68.0001 693.683,-64.5 683.683,-61.0001 683.683,-68.0001"/>
</g>
</g>
</svg>
