<?xml version="1.0" encoding="UTF-8" standalone="no"?>
<!DOCTYPE svg PUBLIC "-//W3C//DTD SVG 1.1//EN"
 "http://www.w3.org/Graphics/SVG/1.1/DTD/svg11.dtd">
<!-- Generated by graphviz version 2.38.0 (20140413.2041)
 -->
<!-- Title: org.msrg.raccoon.engine.thread.CodingThreadImpl.runTask Pages: 1 -->
<svg width="898pt" height="578pt"
 viewBox="0.00 0.00 898.00 578.00" xmlns="http://www.w3.org/2000/svg" xmlns:xlink="http://www.w3.org/1999/xlink">
<g id="graph0" class="graph" transform="scale(1 1) rotate(0) translate(4 574)">
<title>org.msrg.raccoon.engine.thread.CodingThreadImpl.runTask</title>
<!-- Node0 -->
<g id="node1" class="node"><title>Node0</title>
<polygon fill="#bfbfbf" stroke="black" points="0,-416.5 0,-446.5 157,-446.5 157,-416.5 0,-416.5"/>
<text text-anchor="start" x="8" y="-434.5" font-family="Helvetica,sans-Serif" font-size="10.00">org.msrg.raccoon.engine.thread.</text>
<text text-anchor="middle" x="78.5" y="-423.5" font-family="Helvetica,sans-Serif" font-size="10.00">CodingThreadImpl.runTask</text>
</g>
<!-- Node1 -->
<g id="node2" class="node"><title>Node1</title>
<g id="a_node2"><a xlink:href="../../d6/d6d/classorg_1_1msrg_1_1raccoon_1_1matrix_1_1bulk_1_1SliceMatrix_ab8a2304660d8a4a21f13ddd94b15949e.html#ab8a2304660d8a4a21f13ddd94b15949e" target="_top" xlink:title="org.msrg.raccoon.matrix.bulk.\lSliceMatrix.equals">
<polygon fill="none" stroke="black" points="235,-539.5 235,-569.5 381,-569.5 381,-539.5 235,-539.5"/>
<text text-anchor="start" x="243" y="-557.5" font-family="Helvetica,sans-Serif" font-size="10.00">org.msrg.raccoon.matrix.bulk.</text>
<text text-anchor="middle" x="308" y="-546.5" font-family="Helvetica,sans-Serif" font-size="10.00">SliceMatrix.equals</text>
</a>
</g>
</g>
<!-- Node0&#45;&gt;Node1 -->
<g id="edge1" class="edge"><title>Node0&#45;&gt;Node1</title>
<path fill="none" stroke="midnightblue" d="M92.1106,-446.577C111.443,-468.64 150.643,-509.388 193,-530.5 203.01,-535.489 214.016,-539.443 225.119,-542.576"/>
<polygon fill="midnightblue" stroke="midnightblue" points="224.319,-545.984 234.879,-545.123 226.087,-539.211 224.319,-545.984"/>
</g>
<!-- Node3 -->
<g id="node4" class="node"><title>Node3</title>
<g id="a_node4"><a xlink:href="../../d9/d22/classorg_1_1msrg_1_1raccoon_1_1engine_1_1task_1_1CodingTask_aa30b067dc85770bd21c6d4bf3f1030e3.html#aa30b067dc85770bd21c6d4bf3f1030e3" target="_top" xlink:title="org.msrg.raccoon.engine.task.\lCodingTask.failed">
<polygon fill="none" stroke="black" points="233.5,-490.5 233.5,-520.5 382.5,-520.5 382.5,-490.5 233.5,-490.5"/>
<text text-anchor="start" x="241.5" y="-508.5" font-family="Helvetica,sans-Serif" font-size="10.00">org.msrg.raccoon.engine.task.</text>
<text text-anchor="middle" x="308" y="-497.5" font-family="Helvetica,sans-Serif" font-size="10.00">CodingTask.failed</text>
</a>
</g>
</g>
<!-- Node0&#45;&gt;Node3 -->
<g id="edge3" class="edge"><title>Node0&#45;&gt;Node3</title>
<path fill="none" stroke="midnightblue" d="M109.187,-446.614C131.708,-457.575 163.688,-472.071 193,-481.5 202.776,-484.645 213.158,-487.486 223.522,-490.021"/>
<polygon fill="midnightblue" stroke="midnightblue" points="222.896,-493.469 233.432,-492.357 224.502,-486.656 222.896,-493.469"/>
</g>
<!-- Node6 -->
<g id="node7" class="node"><title>Node6</title>
<g id="a_node7"><a xlink:href="../../d9/d22/classorg_1_1msrg_1_1raccoon_1_1engine_1_1task_1_1CodingTask_ad70fe3d442e4abc077f97950a73a6de6.html#ad70fe3d442e4abc077f97950a73a6de6" target="_top" xlink:title="org.msrg.raccoon.engine.task.\lCodingTask.finished">
<polygon fill="none" stroke="black" points="233.5,-441.5 233.5,-471.5 382.5,-471.5 382.5,-441.5 233.5,-441.5"/>
<text text-anchor="start" x="241.5" y="-459.5" font-family="Helvetica,sans-Serif" font-size="10.00">org.msrg.raccoon.engine.task.</text>
<text text-anchor="middle" x="308" y="-448.5" font-family="Helvetica,sans-Serif" font-size="10.00">CodingTask.finished</text>
</a>
</g>
</g>
<!-- Node0&#45;&gt;Node6 -->
<g id="edge6" class="edge"><title>Node0&#45;&gt;Node6</title>
<path fill="none" stroke="midnightblue" d="M157.156,-440.034C178.381,-442.366 201.475,-444.904 223.034,-447.273"/>
<polygon fill="midnightblue" stroke="midnightblue" points="222.826,-450.771 233.148,-448.384 223.591,-443.813 222.826,-450.771"/>
</g>
<!-- Node7 -->
<g id="node8" class="node"><title>Node7</title>
<g id="a_node8"><a xlink:href="../../db/d3f/classorg_1_1msrg_1_1raccoon_1_1matrix_1_1TypedMatrix_a62f3b28a72c0c130fa783e1129694d4e.html#a62f3b28a72c0c130fa783e1129694d4e" target="_top" xlink:title="org.msrg.raccoon.matrix.\lTypedMatrix.inverseMatrix">
<polygon fill="none" stroke="black" points="242,-392.5 242,-422.5 374,-422.5 374,-392.5 242,-392.5"/>
<text text-anchor="start" x="250" y="-410.5" font-family="Helvetica,sans-Serif" font-size="10.00">org.msrg.raccoon.matrix.</text>
<text text-anchor="middle" x="308" y="-399.5" font-family="Helvetica,sans-Serif" font-size="10.00">TypedMatrix.inverseMatrix</text>
</a>
</g>
</g>
<!-- Node0&#45;&gt;Node7 -->
<g id="edge8" class="edge"><title>Node0&#45;&gt;Node7</title>
<path fill="none" stroke="midnightblue" d="M157.156,-423.308C181.259,-420.765 207.774,-417.968 231.713,-415.442"/>
<polygon fill="midnightblue" stroke="midnightblue" points="232.223,-418.908 241.8,-414.378 231.488,-411.947 232.223,-418.908"/>
</g>
<!-- Node8 -->
<g id="node9" class="node"><title>Node8</title>
<g id="a_node9"><a xlink:href="../../d6/d37/classorg_1_1msrg_1_1raccoon_1_1matrix_1_1finitefields_1_1ByteMatrix1D_afdc7ff8a8726716ba954854799d35af1.html#afdc7ff8a8726716ba954854799d35af1" target="_top" xlink:title="org.msrg.raccoon.matrix.finitefields.\lByteMatrix1D.multiply1D">
<polygon fill="none" stroke="black" points="221.5,-343.5 221.5,-373.5 394.5,-373.5 394.5,-343.5 221.5,-343.5"/>
<text text-anchor="start" x="229.5" y="-361.5" font-family="Helvetica,sans-Serif" font-size="10.00">org.msrg.raccoon.matrix.finitefields.</text>
<text text-anchor="middle" x="308" y="-350.5" font-family="Helvetica,sans-Serif" font-size="10.00">ByteMatrix1D.multiply1D</text>
</a>
</g>
</g>
<!-- Node0&#45;&gt;Node8 -->
<g id="edge9" class="edge"><title>Node0&#45;&gt;Node8</title>
<path fill="none" stroke="midnightblue" d="M110.711,-416.458C133.188,-406.084 164.457,-392.58 193,-383.5 201.508,-380.794 210.464,-378.278 219.463,-375.968"/>
<polygon fill="midnightblue" stroke="midnightblue" points="220.363,-379.351 229.224,-373.543 218.675,-372.557 220.363,-379.351"/>
</g>
<!-- Node13 -->
<g id="node14" class="node"><title>Node13</title>
<g id="a_node14"><a xlink:href="../../d6/d78/classorg_1_1msrg_1_1raccoon_1_1engine_1_1task_1_1sequential_1_1SequentialCodingTask_a0f1697228b30f8a446c0e9c2516010f8.html#a0f1697228b30f8a446c0e9c2516010f8" target="_top" xlink:title="org.msrg.raccoon.engine.task.sequential.\lSequentialCodingTask.runInitialSequencialTasks">
<polygon fill="none" stroke="black" points="193,-147.5 193,-177.5 423,-177.5 423,-147.5 193,-147.5"/>
<text text-anchor="start" x="201" y="-165.5" font-family="Helvetica,sans-Serif" font-size="10.00">org.msrg.raccoon.engine.task.sequential.</text>
<text text-anchor="middle" x="308" y="-154.5" font-family="Helvetica,sans-Serif" font-size="10.00">SequentialCodingTask.runInitialSequencialTasks</text>
</a>
</g>
</g>
<!-- Node0&#45;&gt;Node13 -->
<g id="edge14" class="edge"><title>Node0&#45;&gt;Node13</title>
<path fill="none" stroke="midnightblue" d="M92.3832,-416.267C130.392,-371.324 242.231,-239.084 287.573,-185.47"/>
<polygon fill="midnightblue" stroke="midnightblue" points="290.473,-187.462 294.258,-177.566 285.128,-182.942 290.473,-187.462"/>
</g>
<!-- Node2 -->
<g id="node3" class="node"><title>Node2</title>
<g id="a_node3"><a xlink:href="../../d6/d6d/classorg_1_1msrg_1_1raccoon_1_1matrix_1_1bulk_1_1SliceMatrix_aeb3fa63b05dee9bbf6e2f5779ab0c134.html#aeb3fa63b05dee9bbf6e2f5779ab0c134" target="_top" xlink:title="org.msrg.raccoon.matrix.bulk.\lSliceMatrix.SliceMatrix">
<polygon fill="none" stroke="black" points="485.5,-539.5 485.5,-569.5 631.5,-569.5 631.5,-539.5 485.5,-539.5"/>
<text text-anchor="start" x="493.5" y="-557.5" font-family="Helvetica,sans-Serif" font-size="10.00">org.msrg.raccoon.matrix.bulk.</text>
<text text-anchor="middle" x="558.5" y="-546.5" font-family="Helvetica,sans-Serif" font-size="10.00">SliceMatrix.SliceMatrix</text>
</a>
</g>
</g>
<!-- Node1&#45;&gt;Node2 -->
<g id="edge2" class="edge"><title>Node1&#45;&gt;Node2</title>
<path fill="none" stroke="midnightblue" d="M381.21,-554.5C410.565,-554.5 444.649,-554.5 474.98,-554.5"/>
<polygon fill="midnightblue" stroke="midnightblue" points="475.11,-558 485.11,-554.5 475.11,-551 475.11,-558"/>
</g>
<!-- Node4 -->
<g id="node5" class="node"><title>Node4</title>
<g id="a_node5"><a xlink:href="../../d9/d22/classorg_1_1msrg_1_1raccoon_1_1engine_1_1task_1_1CodingTask_a044111e531607f65b98aa358f8b9ea87.html#a044111e531607f65b98aa358f8b9ea87" target="_top" xlink:title="org.msrg.raccoon.engine.task.\lCodingTask.changeStatus">
<polygon fill="none" stroke="black" points="484,-490.5 484,-520.5 633,-520.5 633,-490.5 484,-490.5"/>
<text text-anchor="start" x="492" y="-508.5" font-family="Helvetica,sans-Serif" font-size="10.00">org.msrg.raccoon.engine.task.</text>
<text text-anchor="middle" x="558.5" y="-497.5" font-family="Helvetica,sans-Serif" font-size="10.00">CodingTask.changeStatus</text>
</a>
</g>
</g>
<!-- Node3&#45;&gt;Node4 -->
<g id="edge4" class="edge"><title>Node3&#45;&gt;Node4</title>
<path fill="none" stroke="midnightblue" d="M382.55,-505.5C411.099,-505.5 443.959,-505.5 473.437,-505.5"/>
<polygon fill="midnightblue" stroke="midnightblue" points="473.71,-509 483.71,-505.5 473.71,-502 473.71,-509"/>
</g>
<!-- Node5 -->
<g id="node6" class="node"><title>Node5</title>
<g id="a_node6"><a xlink:href="../../df/d3e/classorg_1_1msrg_1_1raccoon_1_1engine_1_1task_1_1result_1_1CodingResult_adc1efbef3678d862aeb3e8d2caea6a47.html#adc1efbef3678d862aeb3e8d2caea6a47" target="_top" xlink:title="org.msrg.raccoon.engine.task.result.\lCodingResult.setStatus">
<polygon fill="none" stroke="black" points="704,-490.5 704,-520.5 880,-520.5 880,-490.5 704,-490.5"/>
<text text-anchor="start" x="712" y="-508.5" font-family="Helvetica,sans-Serif" font-size="10.00">org.msrg.raccoon.engine.task.result.</text>
<text text-anchor="middle" x="792" y="-497.5" font-family="Helvetica,sans-Serif" font-size="10.00">CodingResult.setStatus</text>
</a>
</g>
</g>
<!-- Node4&#45;&gt;Node5 -->
<g id="edge5" class="edge"><title>Node4&#45;&gt;Node5</title>
<path fill="none" stroke="midnightblue" d="M633.066,-505.5C652.32,-505.5 673.379,-505.5 693.663,-505.5"/>
<polygon fill="midnightblue" stroke="midnightblue" points="693.865,-509 703.865,-505.5 693.865,-502 693.865,-509"/>
</g>
<!-- Node6&#45;&gt;Node4 -->
<g id="edge7" class="edge"><title>Node6&#45;&gt;Node4</title>
<path fill="none" stroke="midnightblue" d="M382.55,-471.003C411.224,-476.657 444.246,-483.168 473.823,-489"/>
<polygon fill="midnightblue" stroke="midnightblue" points="473.222,-492.449 483.71,-490.95 474.576,-485.581 473.222,-492.449"/>
</g>
<!-- Node9 -->
<g id="node10" class="node"><title>Node9</title>
<g id="a_node10"><a xlink:href="../../df/da4/classorg_1_1msrg_1_1raccoon_1_1matrix_1_1bulk_1_1BulkMatrix_a4af2f7af83b88f86fe2b33adfdd1db48.html#a4af2f7af83b88f86fe2b33adfdd1db48" target="_top" xlink:title="org.msrg.raccoon.matrix.bulk.\lBulkMatrix.createOneEmtpySlice">
<polygon fill="none" stroke="black" points="478,-441.5 478,-471.5 639,-471.5 639,-441.5 478,-441.5"/>
<text text-anchor="start" x="486" y="-459.5" font-family="Helvetica,sans-Serif" font-size="10.00">org.msrg.raccoon.matrix.bulk.</text>
<text text-anchor="middle" x="558.5" y="-448.5" font-family="Helvetica,sans-Serif" font-size="10.00">BulkMatrix.createOneEmtpySlice</text>
</a>
</g>
</g>
<!-- Node8&#45;&gt;Node9 -->
<g id="edge10" class="edge"><title>Node8&#45;&gt;Node9</title>
<path fill="none" stroke="midnightblue" d="M394.563,-370.082C404.601,-373.486 414.337,-377.867 423,-383.5 445.656,-398.231 436.516,-417.508 459,-432.5 462.112,-434.575 465.386,-436.471 468.774,-438.203"/>
<polygon fill="midnightblue" stroke="midnightblue" points="467.424,-441.434 477.973,-442.416 470.339,-435.07 467.424,-441.434"/>
</g>
<!-- Node10 -->
<g id="node11" class="node"><title>Node10</title>
<g id="a_node11"><a xlink:href="../../df/da4/classorg_1_1msrg_1_1raccoon_1_1matrix_1_1bulk_1_1BulkMatrix_a804160abadbedfe02caa0c441731a519.html#a804160abadbedfe02caa0c441731a519" target="_top" xlink:title="org.msrg.raccoon.matrix.bulk.\lBulkMatrix.getContent">
<polygon fill="none" stroke="black" points="485.5,-392.5 485.5,-422.5 631.5,-422.5 631.5,-392.5 485.5,-392.5"/>
<text text-anchor="start" x="493.5" y="-410.5" font-family="Helvetica,sans-Serif" font-size="10.00">org.msrg.raccoon.matrix.bulk.</text>
<text text-anchor="middle" x="558.5" y="-399.5" font-family="Helvetica,sans-Serif" font-size="10.00">BulkMatrix.getContent</text>
</a>
</g>
</g>
<!-- Node8&#45;&gt;Node10 -->
<g id="edge11" class="edge"><title>Node8&#45;&gt;Node10</title>
<path fill="none" stroke="midnightblue" d="M385.247,-373.535C413.707,-379.146 446.138,-385.541 475.125,-391.257"/>
<polygon fill="midnightblue" stroke="midnightblue" points="474.734,-394.747 485.222,-393.248 476.089,-387.88 474.734,-394.747"/>
</g>
<!-- Node11 -->
<g id="node12" class="node"><title>Node11</title>
<g id="a_node12"><a xlink:href="../../db/d3f/classorg_1_1msrg_1_1raccoon_1_1matrix_1_1TypedMatrix_af8b135c80a283acac5996df88e99c99a.html#af8b135c80a283acac5996df88e99c99a" target="_top" xlink:title="org.msrg.raccoon.matrix.\lTypedMatrix.verify">
<polygon fill="none" stroke="black" points="496,-343.5 496,-373.5 621,-373.5 621,-343.5 496,-343.5"/>
<text text-anchor="start" x="504" y="-361.5" font-family="Helvetica,sans-Serif" font-size="10.00">org.msrg.raccoon.matrix.</text>
<text text-anchor="middle" x="558.5" y="-350.5" font-family="Helvetica,sans-Serif" font-size="10.00">TypedMatrix.verify</text>
</a>
</g>
</g>
<!-- Node8&#45;&gt;Node11 -->
<g id="edge12" class="edge"><title>Node8&#45;&gt;Node11</title>
<path fill="none" stroke="midnightblue" d="M394.52,-358.5C424.154,-358.5 457.054,-358.5 485.491,-358.5"/>
<polygon fill="midnightblue" stroke="midnightblue" points="485.751,-362 495.751,-358.5 485.751,-355 485.751,-362"/>
</g>
<!-- Node12 -->
<g id="node13" class="node"><title>Node12</title>
<g id="a_node13"><a xlink:href="../../d6/d6d/classorg_1_1msrg_1_1raccoon_1_1matrix_1_1bulk_1_1SliceMatrix_a4c85807433398a037c9d6885569fba0e.html#a4c85807433398a037c9d6885569fba0e" target="_top" xlink:title="org.msrg.raccoon.matrix.bulk.\lSliceMatrix.loadNoCopy">
<polygon fill="none" stroke="black" points="485.5,-294.5 485.5,-324.5 631.5,-324.5 631.5,-294.5 485.5,-294.5"/>
<text text-anchor="start" x="493.5" y="-312.5" font-family="Helvetica,sans-Serif" font-size="10.00">org.msrg.raccoon.matrix.bulk.</text>
<text text-anchor="middle" x="558.5" y="-301.5" font-family="Helvetica,sans-Serif" font-size="10.00">SliceMatrix.loadNoCopy</text>
</a>
</g>
</g>
<!-- Node8&#45;&gt;Node12 -->
<g id="edge13" class="edge"><title>Node8&#45;&gt;Node12</title>
<path fill="none" stroke="midnightblue" d="M385.247,-343.465C413.707,-337.854 446.138,-331.459 475.125,-325.743"/>
<polygon fill="midnightblue" stroke="midnightblue" points="476.089,-329.12 485.222,-323.752 474.734,-322.253 476.089,-329.12"/>
</g>
<!-- Node14 -->
<g id="node15" class="node"><title>Node14</title>
<g id="a_node15"><a xlink:href="../../d6/d78/classorg_1_1msrg_1_1raccoon_1_1engine_1_1task_1_1sequential_1_1SequentialCodingTask_a55a9867d03e0044839edd97a56de20af.html#a55a9867d03e0044839edd97a56de20af" target="_top" xlink:title="org.msrg.raccoon.engine.task.sequential.\lSequentialCodingTask.codingFailed">
<polygon fill="none" stroke="black" points="460.5,-245.5 460.5,-275.5 656.5,-275.5 656.5,-245.5 460.5,-245.5"/>
<text text-anchor="start" x="468.5" y="-263.5" font-family="Helvetica,sans-Serif" font-size="10.00">org.msrg.raccoon.engine.task.sequential.</text>
<text text-anchor="middle" x="558.5" y="-252.5" font-family="Helvetica,sans-Serif" font-size="10.00">SequentialCodingTask.codingFailed</text>
</a>
</g>
</g>
<!-- Node13&#45;&gt;Node14 -->
<g id="edge15" class="edge"><title>Node13&#45;&gt;Node14</title>
<path fill="none" stroke="midnightblue" d="M335.05,-177.55C364.374,-193.964 413.833,-220.082 459,-236.5 464.971,-238.67 471.216,-240.706 477.539,-242.601"/>
<polygon fill="midnightblue" stroke="midnightblue" points="476.935,-246.069 487.512,-245.464 478.866,-239.341 476.935,-246.069"/>
</g>
<!-- Node15 -->
<g id="node16" class="node"><title>Node15</title>
<g id="a_node16"><a xlink:href="../../d6/d78/classorg_1_1msrg_1_1raccoon_1_1engine_1_1task_1_1sequential_1_1SequentialCodingTask_af201120dcdecadf7a6c5341fa349fa73.html#af201120dcdecadf7a6c5341fa349fa73" target="_top" xlink:title="org.msrg.raccoon.engine.task.sequential.\lSequentialCodingTask.codingFinished">
<polygon fill="none" stroke="black" points="460.5,-196.5 460.5,-226.5 656.5,-226.5 656.5,-196.5 460.5,-196.5"/>
<text text-anchor="start" x="468.5" y="-214.5" font-family="Helvetica,sans-Serif" font-size="10.00">org.msrg.raccoon.engine.task.sequential.</text>
<text text-anchor="middle" x="558.5" y="-203.5" font-family="Helvetica,sans-Serif" font-size="10.00">SequentialCodingTask.codingFinished</text>
</a>
</g>
</g>
<!-- Node13&#45;&gt;Node15 -->
<g id="edge16" class="edge"><title>Node13&#45;&gt;Node15</title>
<path fill="none" stroke="midnightblue" d="M385.247,-177.535C412.439,-182.896 443.256,-188.973 471.231,-194.489"/>
<polygon fill="midnightblue" stroke="midnightblue" points="470.909,-197.993 481.397,-196.494 472.263,-191.125 470.909,-197.993"/>
</g>
<!-- Node16 -->
<g id="node17" class="node"><title>Node16</title>
<g id="a_node17"><a xlink:href="../../d6/d78/classorg_1_1msrg_1_1raccoon_1_1engine_1_1task_1_1sequential_1_1SequentialCodingTask_ab9f1bc177fa57e9b84592b84127ef62b.html#ab9f1bc177fa57e9b84592b84127ef62b" target="_top" xlink:title="org.msrg.raccoon.engine.task.sequential.\lSequentialCodingTask.codingStarted">
<polygon fill="none" stroke="black" points="460.5,-147.5 460.5,-177.5 656.5,-177.5 656.5,-147.5 460.5,-147.5"/>
<text text-anchor="start" x="468.5" y="-165.5" font-family="Helvetica,sans-Serif" font-size="10.00">org.msrg.raccoon.engine.task.sequential.</text>
<text text-anchor="middle" x="558.5" y="-154.5" font-family="Helvetica,sans-Serif" font-size="10.00">SequentialCodingTask.codingStarted</text>
</a>
</g>
</g>
<!-- Node13&#45;&gt;Node16 -->
<g id="edge17" class="edge"><title>Node13&#45;&gt;Node16</title>
<path fill="none" stroke="midnightblue" d="M423.068,-162.5C432.153,-162.5 441.311,-162.5 450.346,-162.5"/>
<polygon fill="midnightblue" stroke="midnightblue" points="450.484,-166 460.484,-162.5 450.484,-159 450.484,-166"/>
</g>
<!-- Node17 -->
<g id="node18" class="node"><title>Node17</title>
<g id="a_node18"><a xlink:href="../../d6/d78/classorg_1_1msrg_1_1raccoon_1_1engine_1_1task_1_1sequential_1_1SequentialCodingTask_a144e5086b6be72e0c13869c563c7189c.html#a144e5086b6be72e0c13869c563c7189c" target="_top" xlink:title="org.msrg.raccoon.engine.task.sequential.\lSequentialCodingTask.finished">
<polygon fill="none" stroke="black" points="460.5,-98.5 460.5,-128.5 656.5,-128.5 656.5,-98.5 460.5,-98.5"/>
<text text-anchor="start" x="468.5" y="-116.5" font-family="Helvetica,sans-Serif" font-size="10.00">org.msrg.raccoon.engine.task.sequential.</text>
<text text-anchor="middle" x="558.5" y="-105.5" font-family="Helvetica,sans-Serif" font-size="10.00">SequentialCodingTask.finished</text>
</a>
</g>
</g>
<!-- Node13&#45;&gt;Node17 -->
<g id="edge18" class="edge"><title>Node13&#45;&gt;Node17</title>
<path fill="none" stroke="midnightblue" d="M385.247,-147.465C412.439,-142.104 443.256,-136.027 471.231,-130.511"/>
<polygon fill="midnightblue" stroke="midnightblue" points="472.263,-133.875 481.397,-128.506 470.909,-127.007 472.263,-133.875"/>
</g>
<!-- Node18 -->
<g id="node19" class="node"><title>Node18</title>
<g id="a_node19"><a xlink:href="../../d6/d78/classorg_1_1msrg_1_1raccoon_1_1engine_1_1task_1_1sequential_1_1SequentialCodingTask_a20507db4cd28c24453172612ae32afe5.html#a20507db4cd28c24453172612ae32afe5" target="_top" xlink:title="org.msrg.raccoon.engine.task.sequential.\lSequentialCodingTask.reachedFinalStage">
<polygon fill="none" stroke="black" points="459,-49.5 459,-79.5 658,-79.5 658,-49.5 459,-49.5"/>
<text text-anchor="start" x="467" y="-67.5" font-family="Helvetica,sans-Serif" font-size="10.00">org.msrg.raccoon.engine.task.sequential.</text>
<text text-anchor="middle" x="558.5" y="-56.5" font-family="Helvetica,sans-Serif" font-size="10.00">SequentialCodingTask.reachedFinalStage</text>
</a>
</g>
</g>
<!-- Node13&#45;&gt;Node18 -->
<g id="edge19" class="edge"><title>Node13&#45;&gt;Node18</title>
<path fill="none" stroke="midnightblue" d="M335.642,-147.463C365.081,-131.344 414.258,-105.87 459,-89.5 465.892,-86.9786 473.144,-84.6166 480.458,-82.4287"/>
<polygon fill="midnightblue" stroke="midnightblue" points="481.8,-85.6845 490.442,-79.5545 479.864,-78.9577 481.8,-85.6845"/>
</g>
<!-- Node20 -->
<g id="node21" class="node"><title>Node20</title>
<g id="a_node21"><a xlink:href="../../d6/d78/classorg_1_1msrg_1_1raccoon_1_1engine_1_1task_1_1sequential_1_1SequentialCodingTask_ad77c45b81cc45af6ec6f65eb2984ae62.html#ad77c45b81cc45af6ec6f65eb2984ae62" target="_top" xlink:title="org.msrg.raccoon.engine.task.sequential.\lSequentialCodingTask.runStagePrivately">
<polygon fill="none" stroke="black" points="460.5,-0.5 460.5,-30.5 656.5,-30.5 656.5,-0.5 460.5,-0.5"/>
<text text-anchor="start" x="468.5" y="-18.5" font-family="Helvetica,sans-Serif" font-size="10.00">org.msrg.raccoon.engine.task.sequential.</text>
<text text-anchor="middle" x="558.5" y="-7.5" font-family="Helvetica,sans-Serif" font-size="10.00">SequentialCodingTask.runStagePrivately</text>
</a>
</g>
</g>
<!-- Node13&#45;&gt;Node20 -->
<g id="edge21" class="edge"><title>Node13&#45;&gt;Node20</title>
<path fill="none" stroke="midnightblue" d="M323.193,-147.247C348.148,-121.35 402.613,-68.8375 459,-40.5 463.659,-38.1586 468.555,-36.0246 473.572,-34.0813"/>
<polygon fill="midnightblue" stroke="midnightblue" points="475.107,-37.2488 483.336,-30.575 472.741,-30.6607 475.107,-37.2488"/>
</g>
<!-- Node19 -->
<g id="node20" class="node"><title>Node19</title>
<g id="a_node20"><a xlink:href="../../d6/d78/classorg_1_1msrg_1_1raccoon_1_1engine_1_1task_1_1sequential_1_1SequentialCodingTask_aac71a63fa055d799d050d072c04e5eec.html#aac71a63fa055d799d050d072c04e5eec" target="_top" xlink:title="org.msrg.raccoon.engine.task.sequential.\lSequentialCodingTask.getFinalStage">
<polygon fill="none" stroke="black" points="694,-49.5 694,-79.5 890,-79.5 890,-49.5 694,-49.5"/>
<text text-anchor="start" x="702" y="-67.5" font-family="Helvetica,sans-Serif" font-size="10.00">org.msrg.raccoon.engine.task.sequential.</text>
<text text-anchor="middle" x="792" y="-56.5" font-family="Helvetica,sans-Serif" font-size="10.00">SequentialCodingTask.getFinalStage</text>
</a>
</g>
</g>
<!-- Node18&#45;&gt;Node19 -->
<g id="edge20" class="edge"><title>Node18&#45;&gt;Node19</title>
<path fill="none" stroke="midnightblue" d="M658.013,-64.5C666.504,-64.5 675.122,-64.5 683.678,-64.5"/>
<polygon fill="midnightblue" stroke="midnightblue" points="683.683,-68.0001 693.683,-64.5 683.683,-61.0001 683.683,-68.0001"/>
</g>
</g>
</svg>
