<?xml version="1.0" encoding="UTF-8" standalone="no"?>
<!DOCTYPE svg PUBLIC "-//W3C//DTD SVG 1.1//EN"
 "http://www.w3.org/Graphics/SVG/1.1/DTD/svg11.dtd">
<!-- Generated by graphviz version 2.38.0 (20140413.2041)
 -->
<!-- Title: org.msrg.raccoon.engine.thread.CodingThread Pages: 1 -->
<svg width="1378pt" height="953pt"
 viewBox="0.00 0.00 1378.00 953.00" xmlns="http://www.w3.org/2000/svg" xmlns:xlink="http://www.w3.org/1999/xlink">
<g id="graph0" class="graph" transform="scale(1 1) rotate(0) translate(4 949)">
<title>org.msrg.raccoon.engine.thread.CodingThread</title>
<!-- Node1 -->
<g id="node1" class="node"><title>Node1</title>
<polygon fill="#bfbfbf" stroke="black" points="891,-0.5 891,-178.5 1048,-178.5 1048,-0.5 891,-0.5"/>
<text text-anchor="start" x="899" y="-166.5" font-family="Helvetica,sans-Serif" font-size="10.00">org.msrg.raccoon.engine.thread.</text>
<text text-anchor="middle" x="969.5" y="-155.5" font-family="Helvetica,sans-Serif" font-size="10.00">CodingThread</text>
<polyline fill="none" stroke="black" points="891,-148.5 1048,-148.5 "/>
<text text-anchor="start" x="899" y="-136.5" font-family="Helvetica,sans-Serif" font-size="10.00">+ MAX_WAIT_TIME</text>
<text text-anchor="start" x="899" y="-125.5" font-family="Helvetica,sans-Serif" font-size="10.00"># _LOCK</text>
<text text-anchor="start" x="899" y="-114.5" font-family="Helvetica,sans-Serif" font-size="10.00"># _continue</text>
<polyline fill="none" stroke="black" points="891,-107.5 1048,-107.5 "/>
<text text-anchor="start" x="899" y="-95.5" font-family="Helvetica,sans-Serif" font-size="10.00">+ addNewTask()</text>
<text text-anchor="start" x="899" y="-84.5" font-family="Helvetica,sans-Serif" font-size="10.00">+ init()</text>
<text text-anchor="start" x="899" y="-73.5" font-family="Helvetica,sans-Serif" font-size="10.00">+ retire()</text>
<text text-anchor="start" x="899" y="-62.5" font-family="Helvetica,sans-Serif" font-size="10.00">+ run()</text>
<text text-anchor="start" x="899" y="-51.5" font-family="Helvetica,sans-Serif" font-size="10.00">+ toString()</text>
<text text-anchor="start" x="899" y="-40.5" font-family="Helvetica,sans-Serif" font-size="10.00"># CodingThread()</text>
<text text-anchor="start" x="899" y="-29.5" font-family="Helvetica,sans-Serif" font-size="10.00"># CodingThread()</text>
<text text-anchor="start" x="899" y="-18.5" font-family="Helvetica,sans-Serif" font-size="10.00"># runTask()</text>
<text text-anchor="start" x="899" y="-7.5" font-family="Helvetica,sans-Serif" font-size="10.00"># runMe()</text>
</g>
<!-- Node2 -->
<g id="node2" class="node"><title>Node2</title>
<polygon fill="none" stroke="#bfbfbf" points="203,-683.5 203,-740.5 250,-740.5 250,-683.5 203,-683.5"/>
<text text-anchor="middle" x="226.5" y="-728.5" font-family="Helvetica,sans-Serif" font-size="10.00">Thread</text>
<polyline fill="none" stroke="#bfbfbf" points="203,-721.5 250,-721.5 "/>
<text text-anchor="middle" x="226.5" y="-709.5" font-family="Helvetica,sans-Serif" font-size="10.00"> </text>
<polyline fill="none" stroke="#bfbfbf" points="203,-702.5 250,-702.5 "/>
<text text-anchor="middle" x="226.5" y="-690.5" font-family="Helvetica,sans-Serif" font-size="10.00"> </text>
</g>
<!-- Node2&#45;&gt;Node1 -->
<g id="edge1" class="edge"><title>Node2&#45;&gt;Node1</title>
<path fill="none" stroke="midnightblue" d="M230.801,-673.434C234.908,-651.774 242.913,-625.132 258.5,-606 269.052,-593.048 278.862,-598.926 291.5,-588 310.53,-571.548 543.089,-240.703 563.5,-226 663.436,-154.01 804.16,-118.439 890.961,-102.306"/>
<polygon fill="none" stroke="midnightblue" points="227.349,-672.856 229.129,-683.301 234.251,-674.026 227.349,-672.856"/>
</g>
<!-- Node3 -->
<g id="node3" class="node"><title>Node3</title>
<g id="a_node3"><a xlink:href="../../db/d98/classorg_1_1msrg_1_1raccoon_1_1engine_1_1CodingEngine.html" target="_top" xlink:title="This abstract class implements ICodingEngine and deals with management of the engine&#39;s worker threads...">
<polygon fill="none" stroke="black" points="573,-226.5 573,-536.5 728,-536.5 728,-226.5 573,-226.5"/>
<text text-anchor="start" x="581" y="-524.5" font-family="Helvetica,sans-Serif" font-size="10.00">org.msrg.raccoon.engine.</text>
<text text-anchor="middle" x="650.5" y="-513.5" font-family="Helvetica,sans-Serif" font-size="10.00">CodingEngine</text>
<polyline fill="none" stroke="black" points="573,-506.5 728,-506.5 "/>
<text text-anchor="start" x="581" y="-494.5" font-family="Helvetica,sans-Serif" font-size="10.00">+ DEBUG</text>
<text text-anchor="start" x="581" y="-483.5" font-family="Helvetica,sans-Serif" font-size="10.00">+ LATE_THREAD_CHECKIN</text>
<text text-anchor="start" x="581" y="-472.5" font-family="Helvetica,sans-Serif" font-size="10.00">_TIMEOUT</text>
<text text-anchor="start" x="581" y="-461.5" font-family="Helvetica,sans-Serif" font-size="10.00"># _lock</text>
<text text-anchor="start" x="581" y="-450.5" font-family="Helvetica,sans-Serif" font-size="10.00"># _threadCount</text>
<polyline fill="none" stroke="black" points="573,-443.5 728,-443.5 "/>
<text text-anchor="start" x="581" y="-431.5" font-family="Helvetica,sans-Serif" font-size="10.00">+ registerCodingListener()</text>
<text text-anchor="start" x="581" y="-420.5" font-family="Helvetica,sans-Serif" font-size="10.00">+ deregisterCodingListener()</text>
<text text-anchor="start" x="581" y="-409.5" font-family="Helvetica,sans-Serif" font-size="10.00">+ threadIsFree()</text>
<text text-anchor="start" x="581" y="-398.5" font-family="Helvetica,sans-Serif" font-size="10.00">+ startComponent()</text>
<text text-anchor="start" x="581" y="-387.5" font-family="Helvetica,sans-Serif" font-size="10.00">+ start()</text>
<text text-anchor="start" x="581" y="-376.5" font-family="Helvetica,sans-Serif" font-size="10.00">+ run()</text>
<text text-anchor="start" x="581" y="-365.5" font-family="Helvetica,sans-Serif" font-size="10.00">+ init()</text>
<text text-anchor="start" x="581" y="-354.5" font-family="Helvetica,sans-Serif" font-size="10.00">+ codingThreadFailed()</text>
<text text-anchor="start" x="581" y="-343.5" font-family="Helvetica,sans-Serif" font-size="10.00">+ codingTaskStarted()</text>
<text text-anchor="start" x="581" y="-332.5" font-family="Helvetica,sans-Serif" font-size="10.00">+ codingTaskFinished()</text>
<text text-anchor="start" x="581" y="-321.5" font-family="Helvetica,sans-Serif" font-size="10.00">and 11 more...</text>
<text text-anchor="start" x="581" y="-310.5" font-family="Helvetica,sans-Serif" font-size="10.00"># addCodingTaskEngineEvent()</text>
<text text-anchor="start" x="581" y="-299.5" font-family="Helvetica,sans-Serif" font-size="10.00"># CodingEngine()</text>
<text text-anchor="start" x="581" y="-288.5" font-family="Helvetica,sans-Serif" font-size="10.00"># threadIsBusy()</text>
<text text-anchor="start" x="581" y="-277.5" font-family="Helvetica,sans-Serif" font-size="10.00"># processCodingEvent()</text>
<text text-anchor="start" x="581" y="-266.5" font-family="Helvetica,sans-Serif" font-size="10.00"># scheduleTask()</text>
<text text-anchor="start" x="581" y="-255.5" font-family="Helvetica,sans-Serif" font-size="10.00"># scheduleTask()</text>
<text text-anchor="start" x="581" y="-244.5" font-family="Helvetica,sans-Serif" font-size="10.00"># notifyListener()</text>
<text text-anchor="start" x="581" y="-233.5" font-family="Helvetica,sans-Serif" font-size="10.00"># getLateThreads()</text>
</a>
</g>
</g>
<!-- Node2&#45;&gt;Node3 -->
<g id="edge3" class="edge"><title>Node2&#45;&gt;Node3</title>
<path fill="none" stroke="midnightblue" d="M229.238,-673.027C232.779,-650.748 240.74,-623.603 258.5,-606 278.576,-586.101 293.705,-599.559 319.5,-588 411.163,-546.926 507.861,-484.355 572.909,-439.049"/>
<polygon fill="none" stroke="midnightblue" points="225.735,-672.81 227.867,-683.189 232.672,-673.747 225.735,-672.81"/>
</g>
<!-- Node3&#45;&gt;Node1 -->
<g id="edge2" class="edge"><title>Node3&#45;&gt;Node1</title>
<path fill="none" stroke="#404040" d="M728.128,-309.929C774.561,-267.717 833.695,-213.959 881.81,-170.218"/>
<polygon fill="none" stroke="#404040" points="882.09,-169.964 883.839,-162.968 890.969,-161.892 889.22,-168.888 882.09,-169.964"/>
<text text-anchor="middle" x="870" y="-200" font-family="Helvetica,sans-Serif" font-size="10.00"> +_engine</text>
</g>
<!-- Node4 -->
<g id="node4" class="node"><title>Node4</title>
<g id="a_node4"><a xlink:href="../../dd/dff/interfaceorg_1_1msrg_1_1raccoon_1_1engine_1_1ICodingEngine.html" target="_top" xlink:title="{org.msrg.raccoon.engine.\lICodingEngine\n||+ init()\l+ startComponent()\l+ registerCodingListener()\l+ deregisterCodingListener()\l+ encode()\l+ decode()\l+ multiply()\l+ multiply()\l+ inverse()\l+ checkEquality()\l+ checkEquality()\l+ getFreeThreadsCount()\l+ getBusyThreadsCount()\l+ getTotalThreadsCount()\l}">
<polygon fill="none" stroke="black" points="637.5,-606.5 637.5,-817.5 777.5,-817.5 777.5,-606.5 637.5,-606.5"/>
<text text-anchor="start" x="645.5" y="-805.5" font-family="Helvetica,sans-Serif" font-size="10.00">org.msrg.raccoon.engine.</text>
<text text-anchor="middle" x="707.5" y="-794.5" font-family="Helvetica,sans-Serif" font-size="10.00">ICodingEngine</text>
<polyline fill="none" stroke="black" points="637.5,-787.5 777.5,-787.5 "/>
<text text-anchor="middle" x="707.5" y="-775.5" font-family="Helvetica,sans-Serif" font-size="10.00"> </text>
<polyline fill="none" stroke="black" points="637.5,-768.5 777.5,-768.5 "/>
<text text-anchor="start" x="645.5" y="-756.5" font-family="Helvetica,sans-Serif" font-size="10.00">+ init()</text>
<text text-anchor="start" x="645.5" y="-745.5" font-family="Helvetica,sans-Serif" font-size="10.00">+ startComponent()</text>
<text text-anchor="start" x="645.5" y="-734.5" font-family="Helvetica,sans-Serif" font-size="10.00">+ registerCodingListener()</text>
<text text-anchor="start" x="645.5" y="-723.5" font-family="Helvetica,sans-Serif" font-size="10.00">+ deregisterCodingListener()</text>
<text text-anchor="start" x="645.5" y="-712.5" font-family="Helvetica,sans-Serif" font-size="10.00">+ encode()</text>
<text text-anchor="start" x="645.5" y="-701.5" font-family="Helvetica,sans-Serif" font-size="10.00">+ decode()</text>
<text text-anchor="start" x="645.5" y="-690.5" font-family="Helvetica,sans-Serif" font-size="10.00">+ multiply()</text>
<text text-anchor="start" x="645.5" y="-679.5" font-family="Helvetica,sans-Serif" font-size="10.00">+ multiply()</text>
<text text-anchor="start" x="645.5" y="-668.5" font-family="Helvetica,sans-Serif" font-size="10.00">+ inverse()</text>
<text text-anchor="start" x="645.5" y="-657.5" font-family="Helvetica,sans-Serif" font-size="10.00">+ checkEquality()</text>
<text text-anchor="start" x="645.5" y="-646.5" font-family="Helvetica,sans-Serif" font-size="10.00">+ checkEquality()</text>
<text text-anchor="start" x="645.5" y="-635.5" font-family="Helvetica,sans-Serif" font-size="10.00">+ getFreeThreadsCount()</text>
<text text-anchor="start" x="645.5" y="-624.5" font-family="Helvetica,sans-Serif" font-size="10.00">+ getBusyThreadsCount()</text>
<text text-anchor="start" x="645.5" y="-613.5" font-family="Helvetica,sans-Serif" font-size="10.00">+ getTotalThreadsCount()</text>
</a>
</g>
</g>
<!-- Node4&#45;&gt;Node3 -->
<g id="edge4" class="edge"><title>Node4&#45;&gt;Node3</title>
<path fill="none" stroke="midnightblue" d="M687.578,-596.187C684.237,-576.934 680.723,-556.682 677.244,-536.632"/>
<polygon fill="none" stroke="midnightblue" points="684.15,-596.903 689.308,-606.157 691.047,-595.706 684.15,-596.903"/>
</g>
<!-- Node5 -->
<g id="node5" class="node"><title>Node5</title>
<polygon fill="none" stroke="#bfbfbf" points="268,-678 268,-746 449,-746 449,-678 268,-678"/>
<text text-anchor="start" x="276" y="-734" font-family="Helvetica,sans-Serif" font-size="10.00">Set&lt; org.msrg.raccoon.engine.thread.</text>
<text text-anchor="middle" x="358.5" y="-723" font-family="Helvetica,sans-Serif" font-size="10.00">CodingThread &gt;</text>
<polyline fill="none" stroke="#bfbfbf" points="268,-716 449,-716 "/>
<text text-anchor="middle" x="358.5" y="-704" font-family="Helvetica,sans-Serif" font-size="10.00"> </text>
<polyline fill="none" stroke="#bfbfbf" points="268,-697 449,-697 "/>
<text text-anchor="middle" x="358.5" y="-685" font-family="Helvetica,sans-Serif" font-size="10.00"> </text>
</g>
<!-- Node5&#45;&gt;Node3 -->
<g id="edge5" class="edge"><title>Node5&#45;&gt;Node3</title>
<path fill="none" stroke="#404040" d="M387.835,-677.998C428.79,-631.924 504.792,-546.422 564.545,-479.2"/>
<polygon fill="none" stroke="#404040" points="564.891,-478.811 565.887,-471.669 572.863,-469.842 571.867,-476.983 564.891,-478.811"/>
<text text-anchor="middle" x="530" y="-580" font-family="Helvetica,sans-Serif" font-size="10.00"> #_freeThreads</text>
<text text-anchor="middle" x="530" y="-569" font-family="Helvetica,sans-Serif" font-size="10.00">#_busyThreads</text>
<text text-anchor="middle" x="530" y="-558" font-family="Helvetica,sans-Serif" font-size="10.00">#_threads</text>
</g>
<!-- Node6 -->
<g id="node6" class="node"><title>Node6</title>
<polygon fill="none" stroke="#bfbfbf" points="342.5,-887.5 342.5,-944.5 374.5,-944.5 374.5,-887.5 342.5,-887.5"/>
<text text-anchor="middle" x="358.5" y="-932.5" font-family="Helvetica,sans-Serif" font-size="10.00">Set</text>
<polyline fill="none" stroke="#bfbfbf" points="342.5,-925.5 374.5,-925.5 "/>
<text text-anchor="middle" x="358.5" y="-913.5" font-family="Helvetica,sans-Serif" font-size="10.00"> </text>
<polyline fill="none" stroke="#bfbfbf" points="342.5,-906.5 374.5,-906.5 "/>
<text text-anchor="middle" x="358.5" y="-894.5" font-family="Helvetica,sans-Serif" font-size="10.00"> </text>
</g>
<!-- Node6&#45;&gt;Node5 -->
<g id="edge6" class="edge"><title>Node6&#45;&gt;Node5</title>
<path fill="none" stroke="orange" d="M358.5,-877.245C358.5,-839.492 358.5,-782.009 358.5,-746.02"/>
<polygon fill="orange" stroke="orange" points="355,-877.336 358.5,-887.336 362,-877.336 355,-877.336"/>
<text text-anchor="start" x="358.5" y="-855.5" font-family="Helvetica,sans-Serif" font-size="10.00"> &lt; org::msrg::raccoon</text>
<text text-anchor="middle" x="430.5" y="-844.5" font-family="Helvetica,sans-Serif" font-size="10.00">::engine::thread::CodingThread &gt;</text>
</g>
<!-- Node7 -->
<g id="node7" class="node"><title>Node7</title>
<polygon fill="none" stroke="#bfbfbf" points="966,-678 966,-746 1139,-746 1139,-678 966,-678"/>
<text text-anchor="start" x="974" y="-734" font-family="Helvetica,sans-Serif" font-size="10.00">List&lt; org.msrg.raccoon.engine.task.</text>
<text text-anchor="middle" x="1052.5" y="-723" font-family="Helvetica,sans-Serif" font-size="10.00">CodingTask &gt;</text>
<polyline fill="none" stroke="#bfbfbf" points="966,-716 1139,-716 "/>
<text text-anchor="middle" x="1052.5" y="-704" font-family="Helvetica,sans-Serif" font-size="10.00"> </text>
<polyline fill="none" stroke="#bfbfbf" points="966,-697 1139,-697 "/>
<text text-anchor="middle" x="1052.5" y="-685" font-family="Helvetica,sans-Serif" font-size="10.00"> </text>
</g>
<!-- Node7&#45;&gt;Node1 -->
<g id="edge16" class="edge"><title>Node7&#45;&gt;Node1</title>
<path fill="none" stroke="#404040" d="M1033.9,-677.931C1015.83,-643.831 989.542,-588.517 978.5,-537 953.464,-420.188 955.305,-282.24 960.739,-190.915"/>
<polygon fill="none" stroke="#404040" points="960.741,-190.879 957.124,-184.641 961.491,-178.903 965.108,-185.141 960.741,-190.879"/>
<text text-anchor="middle" x="1003" y="-379" font-family="Helvetica,sans-Serif" font-size="10.00"> #_taskList</text>
</g>
<!-- Node7&#45;&gt;Node3 -->
<g id="edge7" class="edge"><title>Node7&#45;&gt;Node3</title>
<path fill="none" stroke="#404040" d="M1030.9,-677.795C1013.64,-654.031 987.297,-623.294 956.5,-606 920.172,-585.6 899.404,-610.751 864.5,-588 849.523,-578.238 853.321,-568.411 841.5,-555 810.038,-519.306 771.701,-483.46 737.654,-453.764"/>
<polygon fill="none" stroke="#404040" points="737.246,-453.41 730.091,-452.507 728.173,-445.556 735.328,-446.459 737.246,-453.41"/>
<text text-anchor="middle" x="910" y="-569" font-family="Helvetica,sans-Serif" font-size="10.00"> #_outstandingTasks</text>
</g>
<!-- Node8 -->
<g id="node8" class="node"><title>Node8</title>
<polygon fill="none" stroke="#bfbfbf" points="855.5,-887.5 855.5,-944.5 887.5,-944.5 887.5,-887.5 855.5,-887.5"/>
<text text-anchor="middle" x="871.5" y="-932.5" font-family="Helvetica,sans-Serif" font-size="10.00">List</text>
<polyline fill="none" stroke="#bfbfbf" points="855.5,-925.5 887.5,-925.5 "/>
<text text-anchor="middle" x="871.5" y="-913.5" font-family="Helvetica,sans-Serif" font-size="10.00"> </text>
<polyline fill="none" stroke="#bfbfbf" points="855.5,-906.5 887.5,-906.5 "/>
<text text-anchor="middle" x="871.5" y="-894.5" font-family="Helvetica,sans-Serif" font-size="10.00"> </text>
</g>
<!-- Node8&#45;&gt;Node7 -->
<g id="edge8" class="edge"><title>Node8&#45;&gt;Node7</title>
<path fill="none" stroke="orange" d="M897.716,-913.682C929.211,-910.662 981.539,-900.829 1011.5,-869 1042.98,-835.56 1050.95,-780.942 1052.62,-746.005"/>
<polygon fill="orange" stroke="orange" points="897.208,-910.211 887.516,-914.491 897.761,-917.189 897.208,-910.211"/>
<text text-anchor="start" x="1033.5" y="-855.5" font-family="Helvetica,sans-Serif" font-size="10.00"> &lt; org::msrg::raccoon</text>
<text text-anchor="middle" x="1097" y="-844.5" font-family="Helvetica,sans-Serif" font-size="10.00">::engine::task::CodingTask &gt;</text>
</g>
<!-- Node11 -->
<g id="node11" class="node"><title>Node11</title>
<polygon fill="none" stroke="#bfbfbf" points="467.5,-678 467.5,-746 619.5,-746 619.5,-678 467.5,-678"/>
<text text-anchor="start" x="475.5" y="-734" font-family="Helvetica,sans-Serif" font-size="10.00">List&lt; org.msrg.raccoon.engine.</text>
<text text-anchor="middle" x="543.5" y="-723" font-family="Helvetica,sans-Serif" font-size="10.00">ICodingListener &gt;</text>
<polyline fill="none" stroke="#bfbfbf" points="467.5,-716 619.5,-716 "/>
<text text-anchor="middle" x="543.5" y="-704" font-family="Helvetica,sans-Serif" font-size="10.00"> </text>
<polyline fill="none" stroke="#bfbfbf" points="467.5,-697 619.5,-697 "/>
<text text-anchor="middle" x="543.5" y="-685" font-family="Helvetica,sans-Serif" font-size="10.00"> </text>
</g>
<!-- Node8&#45;&gt;Node11 -->
<g id="edge12" class="edge"><title>Node8&#45;&gt;Node11</title>
<path fill="none" stroke="orange" d="M845.268,-909.356C798.123,-898.227 697.556,-869.909 628.5,-818 602.441,-798.412 579.621,-769.139 564.205,-746.474"/>
<polygon fill="orange" stroke="orange" points="844.744,-912.826 855.273,-911.647 846.306,-906.003 844.744,-912.826"/>
<text text-anchor="start" x="715.5" y="-855.5" font-family="Helvetica,sans-Serif" font-size="10.00"> &lt; org::msrg::raccoon</text>
<text text-anchor="middle" x="774.5" y="-844.5" font-family="Helvetica,sans-Serif" font-size="10.00">::engine::ICodingListener &gt;</text>
</g>
<!-- Node12 -->
<g id="node12" class="node"><title>Node12</title>
<polygon fill="none" stroke="#bfbfbf" points="795.5,-678 795.5,-746 947.5,-746 947.5,-678 795.5,-678"/>
<text text-anchor="start" x="803.5" y="-734" font-family="Helvetica,sans-Serif" font-size="10.00">List&lt; org.msrg.raccoon.engine.</text>
<text text-anchor="middle" x="871.5" y="-723" font-family="Helvetica,sans-Serif" font-size="10.00">CodingEngineEvent &gt;</text>
<polyline fill="none" stroke="#bfbfbf" points="795.5,-716 947.5,-716 "/>
<text text-anchor="middle" x="871.5" y="-704" font-family="Helvetica,sans-Serif" font-size="10.00"> </text>
<polyline fill="none" stroke="#bfbfbf" points="795.5,-697 947.5,-697 "/>
<text text-anchor="middle" x="871.5" y="-685" font-family="Helvetica,sans-Serif" font-size="10.00"> </text>
</g>
<!-- Node8&#45;&gt;Node12 -->
<g id="edge14" class="edge"><title>Node8&#45;&gt;Node12</title>
<path fill="none" stroke="orange" d="M871.5,-877.245C871.5,-839.492 871.5,-782.009 871.5,-746.02"/>
<polygon fill="orange" stroke="orange" points="868,-877.336 871.5,-887.336 875,-877.336 868,-877.336"/>
<text text-anchor="start" x="871.5" y="-855.5" font-family="Helvetica,sans-Serif" font-size="10.00"> &lt; org::msrg::raccoon</text>
<text text-anchor="middle" x="939.5" y="-844.5" font-family="Helvetica,sans-Serif" font-size="10.00">::engine::CodingEngineEvent &gt;</text>
</g>
<!-- Node9 -->
<g id="node9" class="node"><title>Node9</title>
<polygon fill="none" stroke="#bfbfbf" points="0,-678 0,-746 185,-746 185,-678 0,-678"/>
<text text-anchor="start" x="8" y="-734" font-family="Helvetica,sans-Serif" font-size="10.00">Map&lt; org.msrg.raccoon.engine.thread.</text>
<text text-anchor="middle" x="92.5" y="-723" font-family="Helvetica,sans-Serif" font-size="10.00">CodingThread, Long &gt;</text>
<polyline fill="none" stroke="#bfbfbf" points="0,-716 185,-716 "/>
<text text-anchor="middle" x="92.5" y="-704" font-family="Helvetica,sans-Serif" font-size="10.00"> </text>
<polyline fill="none" stroke="#bfbfbf" points="0,-697 185,-697 "/>
<text text-anchor="middle" x="92.5" y="-685" font-family="Helvetica,sans-Serif" font-size="10.00"> </text>
</g>
<!-- Node9&#45;&gt;Node3 -->
<g id="edge9" class="edge"><title>Node9&#45;&gt;Node3</title>
<path fill="none" stroke="#404040" d="M115.549,-677.769C141,-643.155 184.865,-589.286 233.5,-555 335.688,-482.961 472.519,-433.704 561.091,-406.819"/>
<polygon fill="none" stroke="#404040" points="561.227,-406.778 565.826,-401.224 572.722,-403.333 568.123,-408.887 561.227,-406.778"/>
<text text-anchor="middle" x="274.5" y="-569" font-family="Helvetica,sans-Serif" font-size="10.00"> #_threadCheckins</text>
</g>
<!-- Node10 -->
<g id="node10" class="node"><title>Node10</title>
<polygon fill="none" stroke="#bfbfbf" points="75,-887.5 75,-944.5 110,-944.5 110,-887.5 75,-887.5"/>
<text text-anchor="middle" x="92.5" y="-932.5" font-family="Helvetica,sans-Serif" font-size="10.00">Map</text>
<polyline fill="none" stroke="#bfbfbf" points="75,-925.5 110,-925.5 "/>
<text text-anchor="middle" x="92.5" y="-913.5" font-family="Helvetica,sans-Serif" font-size="10.00"> </text>
<polyline fill="none" stroke="#bfbfbf" points="75,-906.5 110,-906.5 "/>
<text text-anchor="middle" x="92.5" y="-894.5" font-family="Helvetica,sans-Serif" font-size="10.00"> </text>
</g>
<!-- Node10&#45;&gt;Node9 -->
<g id="edge10" class="edge"><title>Node10&#45;&gt;Node9</title>
<path fill="none" stroke="orange" d="M92.5,-877.245C92.5,-839.492 92.5,-782.009 92.5,-746.02"/>
<polygon fill="orange" stroke="orange" points="89.0001,-877.336 92.5,-887.336 96.0001,-877.336 89.0001,-877.336"/>
<text text-anchor="start" x="92.5" y="-861" font-family="Helvetica,sans-Serif" font-size="10.00"> &lt; org::msrg::raccoon</text>
<text text-anchor="start" x="92.5" y="-850" font-family="Helvetica,sans-Serif" font-size="10.00">::engine::thread::CodingThread,</text>
<text text-anchor="middle" x="161.5" y="-839" font-family="Helvetica,sans-Serif" font-size="10.00"> Long &gt;</text>
</g>
<!-- Node11&#45;&gt;Node3 -->
<g id="edge11" class="edge"><title>Node11&#45;&gt;Node3</title>
<path fill="none" stroke="#404040" d="M554.249,-677.998C564.402,-646.828 580.433,-597.613 596.521,-548.22"/>
<polygon fill="none" stroke="#404040" points="596.563,-548.093 594.618,-541.149 600.279,-536.683 602.224,-543.627 596.563,-548.093"/>
<text text-anchor="middle" x="619" y="-569" font-family="Helvetica,sans-Serif" font-size="10.00"> &#45;_listeners</text>
</g>
<!-- Node12&#45;&gt;Node3 -->
<g id="edge13" class="edge"><title>Node12&#45;&gt;Node3</title>
<path fill="none" stroke="#404040" d="M852.615,-677.787C837.609,-654.337 814.521,-623.999 786.5,-606 759.472,-588.639 739.875,-610.034 716.5,-588 708.616,-580.569 700.926,-566.009 693.745,-547.921"/>
<polygon fill="none" stroke="#404040" points="693.697,-547.792 687.836,-543.59 689.461,-536.564 695.321,-540.766 693.697,-547.792"/>
<text text-anchor="middle" x="779" y="-580" font-family="Helvetica,sans-Serif" font-size="10.00"> #_lowPriorityEventQueue</text>
<text text-anchor="middle" x="779" y="-569" font-family="Helvetica,sans-Serif" font-size="10.00">#_highPriorityEventQueue</text>
<text text-anchor="middle" x="779" y="-558" font-family="Helvetica,sans-Serif" font-size="10.00">#_normalPriorityEventQueue</text>
</g>
<!-- Node13 -->
<g id="node13" class="node"><title>Node13</title>
<g id="a_node13"><a xlink:href="../../d4/df5/namespaceorg_1_1msrg_1_1raccoon_1_1engine_1_1thread.html#d2/de7/enumorg_1_1msrg_1_1raccoon_1_1engine_1_1thread_1_1ThreadType" target="_top" xlink:title="{org.msrg.raccoon.engine.thread.\lThreadType\n|+ CODING_THREAD\l+ FILE_MANANGER_THREAD\l|}">
<polygon fill="none" stroke="black" points="1036.5,-342 1036.5,-421 1194.5,-421 1194.5,-342 1036.5,-342"/>
<text text-anchor="start" x="1044.5" y="-409" font-family="Helvetica,sans-Serif" font-size="10.00">org.msrg.raccoon.engine.thread.</text>
<text text-anchor="middle" x="1115.5" y="-398" font-family="Helvetica,sans-Serif" font-size="10.00">ThreadType</text>
<polyline fill="none" stroke="black" points="1036.5,-391 1194.5,-391 "/>
<text text-anchor="start" x="1044.5" y="-379" font-family="Helvetica,sans-Serif" font-size="10.00">+ CODING_THREAD</text>
<text text-anchor="start" x="1044.5" y="-368" font-family="Helvetica,sans-Serif" font-size="10.00">+ FILE_MANANGER_THREAD</text>
<polyline fill="none" stroke="black" points="1036.5,-361 1194.5,-361 "/>
<text text-anchor="middle" x="1115.5" y="-349" font-family="Helvetica,sans-Serif" font-size="10.00"> </text>
</a>
</g>
</g>
<!-- Node13&#45;&gt;Node1 -->
<g id="edge15" class="edge"><title>Node13&#45;&gt;Node1</title>
<path fill="none" stroke="#404040" d="M1096.11,-341.99C1076.63,-303.297 1045.8,-242.055 1019.44,-189.695"/>
<polygon fill="none" stroke="#404040" points="1019.28,-189.386 1013.01,-185.825 1013.89,-178.668 1020.16,-182.228 1019.28,-189.386"/>
<text text-anchor="middle" x="1057.5" y="-200" font-family="Helvetica,sans-Serif" font-size="10.00"> +_threadType</text>
</g>
<!-- Node14 -->
<g id="node14" class="node"><title>Node14</title>
<g id="a_node14"><a xlink:href="../../d0/dca/classorg_1_1msrg_1_1raccoon_1_1engine_1_1thread_1_1ThreadId.html" target="_top" xlink:title="{org.msrg.raccoon.engine.thread.\lThreadId\n|&#45; _id\l&#45; _lastId\l|+ equals()\l+ hashCode()\l+ toString()\l+ getNewThreadId()\l&#45; ThreadId()\l}">
<polygon fill="none" stroke="black" points="1213,-320 1213,-443 1370,-443 1370,-320 1213,-320"/>
<text text-anchor="start" x="1221" y="-431" font-family="Helvetica,sans-Serif" font-size="10.00">org.msrg.raccoon.engine.thread.</text>
<text text-anchor="middle" x="1291.5" y="-420" font-family="Helvetica,sans-Serif" font-size="10.00">ThreadId</text>
<polyline fill="none" stroke="black" points="1213,-413 1370,-413 "/>
<text text-anchor="start" x="1221" y="-401" font-family="Helvetica,sans-Serif" font-size="10.00">&#45; _id</text>
<text text-anchor="start" x="1221" y="-390" font-family="Helvetica,sans-Serif" font-size="10.00">&#45; _lastId</text>
<polyline fill="none" stroke="black" points="1213,-383 1370,-383 "/>
<text text-anchor="start" x="1221" y="-371" font-family="Helvetica,sans-Serif" font-size="10.00">+ equals()</text>
<text text-anchor="start" x="1221" y="-360" font-family="Helvetica,sans-Serif" font-size="10.00">+ hashCode()</text>
<text text-anchor="start" x="1221" y="-349" font-family="Helvetica,sans-Serif" font-size="10.00">+ toString()</text>
<text text-anchor="start" x="1221" y="-338" font-family="Helvetica,sans-Serif" font-size="10.00">+ getNewThreadId()</text>
<text text-anchor="start" x="1221" y="-327" font-family="Helvetica,sans-Serif" font-size="10.00">&#45; ThreadId()</text>
</a>
</g>
</g>
<!-- Node14&#45;&gt;Node1 -->
<g id="edge17" class="edge"><title>Node14&#45;&gt;Node1</title>
<path fill="none" stroke="#404040" d="M1266.22,-319.789C1251.26,-289.066 1230.03,-252.724 1203.5,-226 1162.38,-184.587 1106.02,-151.442 1058.91,-128.3"/>
<polygon fill="none" stroke="#404040" points="1058.89,-128.291 1051.75,-129.286 1048.08,-123.076 1055.22,-122.08 1058.89,-128.291"/>
<text text-anchor="middle" x="1193.5" y="-200" font-family="Helvetica,sans-Serif" font-size="10.00"> +_id</text>
</g>
</g>
</svg>
