<?xml version="1.0" encoding="UTF-8" standalone="no"?>
<!DOCTYPE svg PUBLIC "-//W3C//DTD SVG 1.1//EN"
 "http://www.w3.org/Graphics/SVG/1.1/DTD/svg11.dtd">
<!-- Generated by graphviz version 2.38.0 (20140413.2041)
 -->
<!-- Title: org.msrg.raccoon.engine.thread.CodingThread Pages: 1 -->
<!--zoomable 953 -->
<svg id="main" version="1.1" xmlns="http://www.w3.org/2000/svg" xmlns:xlink="http://www.w3.org/1999/xlink" xml:space="preserve" onload="init(evt)">
<style type="text/css"><![CDATA[
.edge:hover path { stroke: red; }
.edge:hover polygon { stroke: red; fill: red; }
]]></style>
<script type="text/javascript"><![CDATA[
var edges = document.getElementsByTagName('g');
if (edges && edges.length) {
  for (var i=0;i<edges.length;i++) {
    if (edges[i].id.substr(0,4)=='edge') {
      edges[i].setAttribute('class','edge');
    }
  }
}
]]></script>
        <defs>
                <circle id="rim" cx="0" cy="0" r="7"/>
                <circle id="rim2" cx="0" cy="0" r="3.5"/>
                <g id="zoomPlus">
                        <use xlink:href="#rim" fill="#404040">
                                <set attributeName="fill" to="#808080" begin="zoomplus.mouseover" end="zoomplus.mouseout"/>
                        </use>
                        <path d="M-4,0h8M0,-4v8" fill="none" stroke="white" stroke-width="1.5" pointer-events="none"/>
                </g>
                <g id="zoomMin">
                        <use xlink:href="#rim" fill="#404040">
                                <set attributeName="fill" to="#808080" begin="zoomminus.mouseover" end="zoomminus.mouseout"/>
                        </use>
                        <path d="M-4,0h8" fill="none" stroke="white" stroke-width="1.5" pointer-events="none"/>
                </g>
                <g id="dirArrow">
                        <path fill="none" stroke="white" stroke-width="1.5" d="M0,-3.0v7 M-2.5,-0.5L0,-3.0L2.5,-0.5"/>
                </g>
               <g id="resetDef">
                       <use xlink:href="#rim2" fill="#404040">
                               <set attributeName="fill" to="#808080" begin="reset.mouseover" end="reset.mouseout"/>
                       </use>
               </g>
        </defs>

<script type="text/javascript">
var viewWidth = 1544;
var viewHeight = 953;
var sectionId = 'dynsection-1';
</script>
<script xlink:href="../../svgpan.js"/>
<svg id="graph" class="graph">
<g id="viewport">
<title>org.msrg.raccoon.engine.thread.CodingThread</title>
<!-- Node3 -->
<g id="node1" class="node"><title>Node3</title>
<polygon fill="#bfbfbf" stroke="black" points="1057.43,-0.5 1057.43,-178.5 1214.43,-178.5 1214.43,-0.5 1057.43,-0.5"/>
<text text-anchor="start" x="1065.43" y="-166.5" font-family="Helvetica,sans-Serif" font-size="10.00">org.msrg.raccoon.engine.thread.</text>
<text text-anchor="middle" x="1135.93" y="-155.5" font-family="Helvetica,sans-Serif" font-size="10.00">CodingThread</text>
<polyline fill="none" stroke="black" points="1057.43,-148.5 1214.43,-148.5 "/>
<text text-anchor="start" x="1065.43" y="-136.5" font-family="Helvetica,sans-Serif" font-size="10.00">+ MAX_WAIT_TIME</text>
<text text-anchor="start" x="1065.43" y="-125.5" font-family="Helvetica,sans-Serif" font-size="10.00"># _LOCK</text>
<text text-anchor="start" x="1065.43" y="-114.5" font-family="Helvetica,sans-Serif" font-size="10.00"># _continue</text>
<polyline fill="none" stroke="black" points="1057.43,-107.5 1214.43,-107.5 "/>
<text text-anchor="start" x="1065.43" y="-95.5" font-family="Helvetica,sans-Serif" font-size="10.00">+ addNewTask()</text>
<text text-anchor="start" x="1065.43" y="-84.5" font-family="Helvetica,sans-Serif" font-size="10.00">+ init()</text>
<text text-anchor="start" x="1065.43" y="-73.5" font-family="Helvetica,sans-Serif" font-size="10.00">+ retire()</text>
<text text-anchor="start" x="1065.43" y="-62.5" font-family="Helvetica,sans-Serif" font-size="10.00">+ run()</text>
<text text-anchor="start" x="1065.43" y="-51.5" font-family="Helvetica,sans-Serif" font-size="10.00">+ toString()</text>
<text text-anchor="start" x="1065.43" y="-40.5" font-family="Helvetica,sans-Serif" font-size="10.00"># CodingThread()</text>
<text text-anchor="start" x="1065.43" y="-29.5" font-family="Helvetica,sans-Serif" font-size="10.00"># CodingThread()</text>
<text text-anchor="start" x="1065.43" y="-18.5" font-family="Helvetica,sans-Serif" font-size="10.00"># runTask()</text>
<text text-anchor="start" x="1065.43" y="-7.5" font-family="Helvetica,sans-Serif" font-size="10.00"># runMe()</text>
</g>
<!-- Node4 -->
<g id="node2" class="node"><title>Node4</title>
<polygon fill="none" stroke="#bfbfbf" points="14.433,-887.5 14.433,-944.5 61.433,-944.5 61.433,-887.5 14.433,-887.5"/>
<text text-anchor="middle" x="37.933" y="-932.5" font-family="Helvetica,sans-Serif" font-size="10.00">Thread</text>
<polyline fill="none" stroke="#bfbfbf" points="14.433,-925.5 61.433,-925.5 "/>
<text text-anchor="middle" x="37.933" y="-913.5" font-family="Helvetica,sans-Serif" font-size="10.00"> </text>
<polyline fill="none" stroke="#bfbfbf" points="14.433,-906.5 61.433,-906.5 "/>
<text text-anchor="middle" x="37.933" y="-894.5" font-family="Helvetica,sans-Serif" font-size="10.00"> </text>
</g>
<!-- Node4&#45;&gt;Node3 -->
<g id="edge1" class="edge"><title>Node4&#45;&gt;Node3</title>
<path fill="none" stroke="midnightblue" d="M24.6633,-877.476C6.04406,-817.853 -20.5639,-699.774 26.933,-617 247.701,-232.262 842.499,-125.109 1057.25,-98.4866"/>
<polygon fill="none" stroke="midnightblue" points="21.4034,-878.772 27.7986,-887.219 28.0669,-876.627 21.4034,-878.772"/>
</g>
<!-- Node7 -->
<g id="node5" class="node"><title>Node7</title>
<g id="a_node5"><a xlink:href="../../d0/d4e/classorg_1_1msrg_1_1raccoon_1_1engine_1_1CodingEngine_1_1MyThread.html" target="_top" xlink:title="{org.msrg.raccoon.engine.\lCodingEngine.MyThread\n||+ MyThread()\l+ run()\l+ toString()\l}">
<polygon fill="none" stroke="black" points="36.433,-678 36.433,-768 163.433,-768 163.433,-678 36.433,-678"/>
<text text-anchor="start" x="44.433" y="-756" font-family="Helvetica,sans-Serif" font-size="10.00">org.msrg.raccoon.engine.</text>
<text text-anchor="middle" x="99.933" y="-745" font-family="Helvetica,sans-Serif" font-size="10.00">CodingEngine.MyThread</text>
<polyline fill="none" stroke="black" points="36.433,-738 163.433,-738 "/>
<text text-anchor="middle" x="99.933" y="-726" font-family="Helvetica,sans-Serif" font-size="10.00"> </text>
<polyline fill="none" stroke="black" points="36.433,-719 163.433,-719 "/>
<text text-anchor="start" x="44.433" y="-707" font-family="Helvetica,sans-Serif" font-size="10.00">+ MyThread()</text>
<text text-anchor="start" x="44.433" y="-696" font-family="Helvetica,sans-Serif" font-size="10.00">+ run()</text>
<text text-anchor="start" x="44.433" y="-685" font-family="Helvetica,sans-Serif" font-size="10.00">+ toString()</text>
</a>
</g>
</g>
<!-- Node4&#45;&gt;Node7 -->
<g id="edge5" class="edge"><title>Node4&#45;&gt;Node7</title>
<path fill="none" stroke="midnightblue" d="M50.0945,-877.535C60.2908,-846.124 74.8669,-801.22 85.6232,-768.083"/>
<polygon fill="none" stroke="midnightblue" points="46.7069,-876.635 46.9484,-887.227 53.3649,-878.796 46.7069,-876.635"/>
</g>
<!-- Node5 -->
<g id="node3" class="node"><title>Node5</title>
<g id="a_node3"><a xlink:href="../../db/d98/classorg_1_1msrg_1_1raccoon_1_1engine_1_1CodingEngine.html" target="_top" xlink:title="This abstract class implements ICodingEngine and deals with management of the engine&#39;s worker threads...">
<polygon fill="none" stroke="black" points="705.433,-226.5 705.433,-547.5 860.433,-547.5 860.433,-226.5 705.433,-226.5"/>
<text text-anchor="start" x="713.433" y="-535.5" font-family="Helvetica,sans-Serif" font-size="10.00">org.msrg.raccoon.engine.</text>
<text text-anchor="middle" x="782.933" y="-524.5" font-family="Helvetica,sans-Serif" font-size="10.00">CodingEngine</text>
<polyline fill="none" stroke="black" points="705.433,-517.5 860.433,-517.5 "/>
<text text-anchor="start" x="713.433" y="-505.5" font-family="Helvetica,sans-Serif" font-size="10.00">+ LATE_THREAD_CHECKIN</text>
<text text-anchor="start" x="713.433" y="-494.5" font-family="Helvetica,sans-Serif" font-size="10.00">_TIMEOUT</text>
<text text-anchor="start" x="713.433" y="-483.5" font-family="Helvetica,sans-Serif" font-size="10.00">+ DEBUG</text>
<text text-anchor="start" x="713.433" y="-472.5" font-family="Helvetica,sans-Serif" font-size="10.00"># _lock</text>
<text text-anchor="start" x="713.433" y="-461.5" font-family="Helvetica,sans-Serif" font-size="10.00"># _threadCount</text>
<text text-anchor="start" x="713.433" y="-450.5" font-family="Helvetica,sans-Serif" font-size="10.00"># _threadCheckins</text>
<polyline fill="none" stroke="black" points="705.433,-443.5 860.433,-443.5 "/>
<text text-anchor="start" x="713.433" y="-431.5" font-family="Helvetica,sans-Serif" font-size="10.00">+ registerCodingListener()</text>
<text text-anchor="start" x="713.433" y="-420.5" font-family="Helvetica,sans-Serif" font-size="10.00">+ deregisterCodingListener()</text>
<text text-anchor="start" x="713.433" y="-409.5" font-family="Helvetica,sans-Serif" font-size="10.00">+ threadIsFree()</text>
<text text-anchor="start" x="713.433" y="-398.5" font-family="Helvetica,sans-Serif" font-size="10.00">+ startComponent()</text>
<text text-anchor="start" x="713.433" y="-387.5" font-family="Helvetica,sans-Serif" font-size="10.00">+ init()</text>
<text text-anchor="start" x="713.433" y="-376.5" font-family="Helvetica,sans-Serif" font-size="10.00">+ codingThreadFailed()</text>
<text text-anchor="start" x="713.433" y="-365.5" font-family="Helvetica,sans-Serif" font-size="10.00">+ codingTaskStarted()</text>
<text text-anchor="start" x="713.433" y="-354.5" font-family="Helvetica,sans-Serif" font-size="10.00">+ codingTaskFinished()</text>
<text text-anchor="start" x="713.433" y="-343.5" font-family="Helvetica,sans-Serif" font-size="10.00">+ codingTaskFailed()</text>
<text text-anchor="start" x="713.433" y="-332.5" font-family="Helvetica,sans-Serif" font-size="10.00">+ getFreeThreadsCount()</text>
<text text-anchor="start" x="713.433" y="-321.5" font-family="Helvetica,sans-Serif" font-size="10.00">and 9 more...</text>
<text text-anchor="start" x="713.433" y="-310.5" font-family="Helvetica,sans-Serif" font-size="10.00"># CodingEngine()</text>
<text text-anchor="start" x="713.433" y="-299.5" font-family="Helvetica,sans-Serif" font-size="10.00"># addCodingTaskEngineEvent()</text>
<text text-anchor="start" x="713.433" y="-288.5" font-family="Helvetica,sans-Serif" font-size="10.00"># threadIsBusy()</text>
<text text-anchor="start" x="713.433" y="-277.5" font-family="Helvetica,sans-Serif" font-size="10.00"># processCodingEvent()</text>
<text text-anchor="start" x="713.433" y="-266.5" font-family="Helvetica,sans-Serif" font-size="10.00"># scheduleTask()</text>
<text text-anchor="start" x="713.433" y="-255.5" font-family="Helvetica,sans-Serif" font-size="10.00"># scheduleTask()</text>
<text text-anchor="start" x="713.433" y="-244.5" font-family="Helvetica,sans-Serif" font-size="10.00"># notifyListener()</text>
<text text-anchor="start" x="713.433" y="-233.5" font-family="Helvetica,sans-Serif" font-size="10.00"># getLateThreads()</text>
</a>
</g>
</g>
<!-- Node5&#45;&gt;Node3 -->
<g id="edge2" class="edge"><title>Node5&#45;&gt;Node3</title>
<path fill="none" stroke="#404040" d="M860.837,-320.785C916.132,-274.498 990.436,-212.297 1047.88,-164.209"/>
<polygon fill="none" stroke="#404040" points="1048.11,-164.016 1050.14,-157.098 1057.31,-156.314 1055.28,-163.232 1048.11,-164.016"/>
<text text-anchor="middle" x="1023.43" y="-200" font-family="Helvetica,sans-Serif" font-size="10.00"> +_engine</text>
</g>
<!-- Node6 -->
<g id="node4" class="node"><title>Node6</title>
<g id="a_node4"><a xlink:href="../../dd/dff/interfaceorg_1_1msrg_1_1raccoon_1_1engine_1_1ICodingEngine.html" target="_top" xlink:title="{org.msrg.raccoon.engine.\lICodingEngine\n||+ init()\l+ startComponent()\l+ registerCodingListener()\l+ deregisterCodingListener()\l+ encode()\l+ decode()\l+ multiply()\l+ multiply()\l+ inverse()\l+ checkEquality()\l+ checkEquality()\l+ getFreeThreadsCount()\l+ getBusyThreadsCount()\l+ getTotalThreadsCount()\l}">
<polygon fill="none" stroke="black" points="975.933,-617.5 975.933,-828.5 1115.93,-828.5 1115.93,-617.5 975.933,-617.5"/>
<text text-anchor="start" x="983.933" y="-816.5" font-family="Helvetica,sans-Serif" font-size="10.00">org.msrg.raccoon.engine.</text>
<text text-anchor="middle" x="1045.93" y="-805.5" font-family="Helvetica,sans-Serif" font-size="10.00">ICodingEngine</text>
<polyline fill="none" stroke="black" points="975.933,-798.5 1115.93,-798.5 "/>
<text text-anchor="middle" x="1045.93" y="-786.5" font-family="Helvetica,sans-Serif" font-size="10.00"> </text>
<polyline fill="none" stroke="black" points="975.933,-779.5 1115.93,-779.5 "/>
<text text-anchor="start" x="983.933" y="-767.5" font-family="Helvetica,sans-Serif" font-size="10.00">+ init()</text>
<text text-anchor="start" x="983.933" y="-756.5" font-family="Helvetica,sans-Serif" font-size="10.00">+ startComponent()</text>
<text text-anchor="start" x="983.933" y="-745.5" font-family="Helvetica,sans-Serif" font-size="10.00">+ registerCodingListener()</text>
<text text-anchor="start" x="983.933" y="-734.5" font-family="Helvetica,sans-Serif" font-size="10.00">+ deregisterCodingListener()</text>
<text text-anchor="start" x="983.933" y="-723.5" font-family="Helvetica,sans-Serif" font-size="10.00">+ encode()</text>
<text text-anchor="start" x="983.933" y="-712.5" font-family="Helvetica,sans-Serif" font-size="10.00">+ decode()</text>
<text text-anchor="start" x="983.933" y="-701.5" font-family="Helvetica,sans-Serif" font-size="10.00">+ multiply()</text>
<text text-anchor="start" x="983.933" y="-690.5" font-family="Helvetica,sans-Serif" font-size="10.00">+ multiply()</text>
<text text-anchor="start" x="983.933" y="-679.5" font-family="Helvetica,sans-Serif" font-size="10.00">+ inverse()</text>
<text text-anchor="start" x="983.933" y="-668.5" font-family="Helvetica,sans-Serif" font-size="10.00">+ checkEquality()</text>
<text text-anchor="start" x="983.933" y="-657.5" font-family="Helvetica,sans-Serif" font-size="10.00">+ checkEquality()</text>
<text text-anchor="start" x="983.933" y="-646.5" font-family="Helvetica,sans-Serif" font-size="10.00">+ getFreeThreadsCount()</text>
<text text-anchor="start" x="983.933" y="-635.5" font-family="Helvetica,sans-Serif" font-size="10.00">+ getBusyThreadsCount()</text>
<text text-anchor="start" x="983.933" y="-624.5" font-family="Helvetica,sans-Serif" font-size="10.00">+ getTotalThreadsCount()</text>
</a>
</g>
</g>
<!-- Node6&#45;&gt;Node5 -->
<g id="edge3" class="edge"><title>Node6&#45;&gt;Node5</title>
<path fill="none" stroke="midnightblue" d="M969.606,-621.715C968.374,-620.131 967.149,-618.558 965.933,-617 931.65,-573.067 893.214,-524.82 860.45,-483.988"/>
<polygon fill="none" stroke="midnightblue" points="966.918,-623.961 975.813,-629.717 972.45,-619.671 966.918,-623.961"/>
</g>
<!-- Node7&#45;&gt;Node5 -->
<g id="edge4" class="edge"><title>Node7&#45;&gt;Node5</title>
<path fill="none" stroke="#404040" d="M121.929,-677.902C134.207,-657.041 151.221,-633.213 171.933,-617 331.476,-492.111 566.328,-429.952 693.384,-403.83"/>
<polygon fill="none" stroke="#404040" points="693.575,-403.791 698.663,-398.682 705.337,-401.413 700.248,-406.523 693.575,-403.791"/>
<text text-anchor="middle" x="261.933" y="-580" font-family="Helvetica,sans-Serif" font-size="10.00"> &#45;thread</text>
</g>
<!-- Node8 -->
<g id="node6" class="node"><title>Node8</title>
<polygon fill="none" stroke="#bfbfbf" points="776.433,-689 776.433,-757 957.433,-757 957.433,-689 776.433,-689"/>
<text text-anchor="start" x="784.433" y="-745" font-family="Helvetica,sans-Serif" font-size="10.00">Set&lt; org.msrg.raccoon.engine.thread.</text>
<text text-anchor="middle" x="866.933" y="-734" font-family="Helvetica,sans-Serif" font-size="10.00">CodingThread &gt;</text>
<polyline fill="none" stroke="#bfbfbf" points="776.433,-727 957.433,-727 "/>
<text text-anchor="middle" x="866.933" y="-715" font-family="Helvetica,sans-Serif" font-size="10.00"> </text>
<polyline fill="none" stroke="#bfbfbf" points="776.433,-708 957.433,-708 "/>
<text text-anchor="middle" x="866.933" y="-696" font-family="Helvetica,sans-Serif" font-size="10.00"> </text>
</g>
<!-- Node8&#45;&gt;Node5 -->
<g id="edge6" class="edge"><title>Node8&#45;&gt;Node5</title>
<path fill="none" stroke="#404040" d="M858.572,-688.754C850.773,-657.744 838.508,-608.978 826.107,-559.669"/>
<polygon fill="none" stroke="#404040" points="826.051,-559.446 820.709,-554.603 823.124,-547.808 828.467,-552.652 826.051,-559.446"/>
<text text-anchor="middle" x="868.433" y="-585.5" font-family="Helvetica,sans-Serif" font-size="10.00"> #_freeThreads</text>
<text text-anchor="middle" x="868.433" y="-574.5" font-family="Helvetica,sans-Serif" font-size="10.00">#_busyThreads</text>
</g>
<!-- Node9 -->
<g id="node7" class="node"><title>Node9</title>
<polygon fill="none" stroke="#bfbfbf" points="850.933,-887.5 850.933,-944.5 882.933,-944.5 882.933,-887.5 850.933,-887.5"/>
<text text-anchor="middle" x="866.933" y="-932.5" font-family="Helvetica,sans-Serif" font-size="10.00">Set</text>
<polyline fill="none" stroke="#bfbfbf" points="850.933,-925.5 882.933,-925.5 "/>
<text text-anchor="middle" x="866.933" y="-913.5" font-family="Helvetica,sans-Serif" font-size="10.00"> </text>
<polyline fill="none" stroke="#bfbfbf" points="850.933,-906.5 882.933,-906.5 "/>
<text text-anchor="middle" x="866.933" y="-894.5" font-family="Helvetica,sans-Serif" font-size="10.00"> </text>
</g>
<!-- Node9&#45;&gt;Node8 -->
<g id="edge7" class="edge"><title>Node9&#45;&gt;Node8</title>
<path fill="none" stroke="orange" d="M866.933,-876.936C866.933,-841.963 866.933,-790.638 866.933,-757.269"/>
<polygon fill="orange" stroke="orange" points="863.433,-877.227 866.933,-887.227 870.433,-877.227 863.433,-877.227"/>
<text text-anchor="start" x="866.933" y="-861" font-family="Helvetica,sans-Serif" font-size="10.00"> &lt; org::msrg::raccoon</text>
<text text-anchor="middle" x="938.933" y="-850" font-family="Helvetica,sans-Serif" font-size="10.00">::engine::thread::CodingThread &gt;</text>
</g>
<!-- Node10 -->
<g id="node8" class="node"><title>Node10</title>
<polygon fill="none" stroke="#bfbfbf" points="1134.43,-689 1134.43,-757 1307.43,-757 1307.43,-689 1134.43,-689"/>
<text text-anchor="start" x="1142.43" y="-745" font-family="Helvetica,sans-Serif" font-size="10.00">List&lt; org.msrg.raccoon.engine.task.</text>
<text text-anchor="middle" x="1220.93" y="-734" font-family="Helvetica,sans-Serif" font-size="10.00">CodingTask &gt;</text>
<polyline fill="none" stroke="#bfbfbf" points="1134.43,-727 1307.43,-727 "/>
<text text-anchor="middle" x="1220.93" y="-715" font-family="Helvetica,sans-Serif" font-size="10.00"> </text>
<polyline fill="none" stroke="#bfbfbf" points="1134.43,-708 1307.43,-708 "/>
<text text-anchor="middle" x="1220.93" y="-696" font-family="Helvetica,sans-Serif" font-size="10.00"> </text>
</g>
<!-- Node10&#45;&gt;Node3 -->
<g id="edge17" class="edge"><title>Node10&#45;&gt;Node3</title>
<path fill="none" stroke="#404040" d="M1201.82,-688.999C1183.26,-654.953 1156.26,-599.681 1144.93,-548 1118.46,-427.194 1120.85,-284.132 1126.8,-190.556"/>
<polygon fill="none" stroke="#404040" points="1126.8,-190.516 1123.21,-184.263 1127.6,-178.542 1131.19,-184.795 1126.8,-190.516"/>
<text text-anchor="middle" x="1169.43" y="-384.5" font-family="Helvetica,sans-Serif" font-size="10.00"> #_taskList</text>
</g>
<!-- Node10&#45;&gt;Node5 -->
<g id="edge8" class="edge"><title>Node10&#45;&gt;Node5</title>
<path fill="none" stroke="#404040" d="M1199.35,-688.759C1182.11,-664.976 1155.76,-634.233 1124.93,-617 1087.8,-596.247 1069.29,-617.39 1030.93,-599 970.959,-570.245 913.728,-523.352 869.387,-481.068"/>
<polygon fill="none" stroke="#404040" points="869.329,-481.012 862.234,-479.724 860.693,-472.679 867.789,-473.967 869.329,-481.012"/>
<text text-anchor="middle" x="1076.43" y="-580" font-family="Helvetica,sans-Serif" font-size="10.00"> #_outstandingTasks</text>
</g>
<!-- Node11 -->
<g id="node9" class="node"><title>Node11</title>
<polygon fill="none" stroke="#bfbfbf" points="1114.93,-887.5 1114.93,-944.5 1146.93,-944.5 1146.93,-887.5 1114.93,-887.5"/>
<text text-anchor="middle" x="1130.93" y="-932.5" font-family="Helvetica,sans-Serif" font-size="10.00">List</text>
<polyline fill="none" stroke="#bfbfbf" points="1114.93,-925.5 1146.93,-925.5 "/>
<text text-anchor="middle" x="1130.93" y="-913.5" font-family="Helvetica,sans-Serif" font-size="10.00"> </text>
<polyline fill="none" stroke="#bfbfbf" points="1114.93,-906.5 1146.93,-906.5 "/>
<text text-anchor="middle" x="1130.93" y="-894.5" font-family="Helvetica,sans-Serif" font-size="10.00"> </text>
</g>
<!-- Node11&#45;&gt;Node10 -->
<g id="edge9" class="edge"><title>Node11&#45;&gt;Node10</title>
<path fill="none" stroke="orange" d="M1155.4,-900.715C1166.93,-892.778 1179.89,-881.896 1187.93,-869 1209.32,-834.72 1216.89,-788.163 1219.54,-757.151"/>
<polygon fill="orange" stroke="orange" points="1153.44,-897.812 1146.96,-906.195 1157.26,-903.681 1153.44,-897.812"/>
<text text-anchor="start" x="1199.93" y="-861" font-family="Helvetica,sans-Serif" font-size="10.00"> &lt; org::msrg::raccoon</text>
<text text-anchor="middle" x="1263.43" y="-850" font-family="Helvetica,sans-Serif" font-size="10.00">::engine::task::CodingTask &gt;</text>
</g>
<!-- Node14 -->
<g id="node12" class="node"><title>Node14</title>
<polygon fill="none" stroke="#bfbfbf" points="605.933,-689 605.933,-757 757.933,-757 757.933,-689 605.933,-689"/>
<text text-anchor="start" x="613.933" y="-745" font-family="Helvetica,sans-Serif" font-size="10.00">List&lt; org.msrg.raccoon.engine.</text>
<text text-anchor="middle" x="681.933" y="-734" font-family="Helvetica,sans-Serif" font-size="10.00">CodingEngineEvent &gt;</text>
<polyline fill="none" stroke="#bfbfbf" points="605.933,-727 757.933,-727 "/>
<text text-anchor="middle" x="681.933" y="-715" font-family="Helvetica,sans-Serif" font-size="10.00"> </text>
<polyline fill="none" stroke="#bfbfbf" points="605.933,-708 757.933,-708 "/>
<text text-anchor="middle" x="681.933" y="-696" font-family="Helvetica,sans-Serif" font-size="10.00"> </text>
</g>
<!-- Node11&#45;&gt;Node14 -->
<g id="edge13" class="edge"><title>Node11&#45;&gt;Node14</title>
<path fill="none" stroke="orange" d="M1105.72,-901.722C1089.11,-892.804 1066.99,-880.605 1047.93,-869 1032.88,-859.831 1031.61,-852.716 1014.93,-847 962.663,-829.083 815.91,-854.583 766.933,-829 736.79,-813.255 713.524,-781.66 699.015,-757.222"/>
<polygon fill="orange" stroke="orange" points="1104.33,-904.946 1114.8,-906.564 1107.62,-898.77 1104.33,-904.946"/>
<text text-anchor="start" x="1047.93" y="-861" font-family="Helvetica,sans-Serif" font-size="10.00"> &lt; org::msrg::raccoon</text>
<text text-anchor="middle" x="1115.93" y="-850" font-family="Helvetica,sans-Serif" font-size="10.00">::engine::CodingEngineEvent &gt;</text>
</g>
<!-- Node12 -->
<g id="node10" class="node"><title>Node12</title>
<polygon fill="none" stroke="#bfbfbf" points="181.433,-689 181.433,-757 360.433,-757 360.433,-689 181.433,-689"/>
<text text-anchor="start" x="189.433" y="-745" font-family="Helvetica,sans-Serif" font-size="10.00">Collection&lt; org.msrg.raccoon.engine.</text>
<text text-anchor="middle" x="270.933" y="-734" font-family="Helvetica,sans-Serif" font-size="10.00">ICodingListener &gt;</text>
<polyline fill="none" stroke="#bfbfbf" points="181.433,-727 360.433,-727 "/>
<text text-anchor="middle" x="270.933" y="-715" font-family="Helvetica,sans-Serif" font-size="10.00"> </text>
<polyline fill="none" stroke="#bfbfbf" points="181.433,-708 360.433,-708 "/>
<text text-anchor="middle" x="270.933" y="-696" font-family="Helvetica,sans-Serif" font-size="10.00"> </text>
</g>
<!-- Node12&#45;&gt;Node5 -->
<g id="edge10" class="edge"><title>Node12&#45;&gt;Node5</title>
<path fill="none" stroke="#404040" d="M297.314,-688.65C315.827,-666.608 341.999,-638.014 368.933,-617 472.024,-536.567 606.991,-467.616 694.326,-426.969"/>
<polygon fill="none" stroke="#404040" points="694.373,-426.948 698.14,-420.798 705.265,-421.91 701.498,-428.06 694.373,-426.948"/>
<text text-anchor="middle" x="456.433" y="-580" font-family="Helvetica,sans-Serif" font-size="10.00"> &#45;_listeners</text>
</g>
<!-- Node13 -->
<g id="node11" class="node"><title>Node13</title>
<polygon fill="none" stroke="#bfbfbf" points="338.933,-887.5 338.933,-944.5 398.933,-944.5 398.933,-887.5 338.933,-887.5"/>
<text text-anchor="middle" x="368.933" y="-932.5" font-family="Helvetica,sans-Serif" font-size="10.00">Collection</text>
<polyline fill="none" stroke="#bfbfbf" points="338.933,-925.5 398.933,-925.5 "/>
<text text-anchor="middle" x="368.933" y="-913.5" font-family="Helvetica,sans-Serif" font-size="10.00"> </text>
<polyline fill="none" stroke="#bfbfbf" points="338.933,-906.5 398.933,-906.5 "/>
<text text-anchor="middle" x="368.933" y="-894.5" font-family="Helvetica,sans-Serif" font-size="10.00"> </text>
</g>
<!-- Node13&#45;&gt;Node12 -->
<g id="edge11" class="edge"><title>Node13&#45;&gt;Node12</title>
<path fill="none" stroke="orange" d="M330.522,-892.275C322.041,-885.702 313.837,-877.87 307.933,-869 285.333,-835.045 276.537,-788.201 273.114,-757.049"/>
<polygon fill="orange" stroke="orange" points="328.521,-895.147 338.671,-898.184 332.63,-889.48 328.521,-895.147"/>
<text text-anchor="start" x="307.933" y="-861" font-family="Helvetica,sans-Serif" font-size="10.00"> &lt; org::msrg::raccoon</text>
<text text-anchor="middle" x="366.933" y="-850" font-family="Helvetica,sans-Serif" font-size="10.00">::engine::ICodingListener &gt;</text>
</g>
<!-- Node15 -->
<g id="node13" class="node"><title>Node15</title>
<polygon fill="none" stroke="#bfbfbf" points="378.433,-689 378.433,-757 587.433,-757 587.433,-689 378.433,-689"/>
<text text-anchor="start" x="386.433" y="-745" font-family="Helvetica,sans-Serif" font-size="10.00">Collection&lt; org.msrg.raccoon.engine.thread.</text>
<text text-anchor="middle" x="482.933" y="-734" font-family="Helvetica,sans-Serif" font-size="10.00">CodingThread &gt;</text>
<polyline fill="none" stroke="#bfbfbf" points="378.433,-727 587.433,-727 "/>
<text text-anchor="middle" x="482.933" y="-715" font-family="Helvetica,sans-Serif" font-size="10.00"> </text>
<polyline fill="none" stroke="#bfbfbf" points="378.433,-708 587.433,-708 "/>
<text text-anchor="middle" x="482.933" y="-696" font-family="Helvetica,sans-Serif" font-size="10.00"> </text>
</g>
<!-- Node13&#45;&gt;Node15 -->
<g id="edge15" class="edge"><title>Node13&#45;&gt;Node15</title>
<path fill="none" stroke="orange" d="M407.22,-888.73C414.071,-882.813 420.687,-876.147 425.933,-869 450.981,-834.874 466.706,-788.283 475.146,-757.221"/>
<polygon fill="orange" stroke="orange" points="404.679,-886.285 399.138,-895.316 409.101,-891.712 404.679,-886.285"/>
<text text-anchor="start" x="439.933" y="-861" font-family="Helvetica,sans-Serif" font-size="10.00"> &lt; org::msrg::raccoon</text>
<text text-anchor="middle" x="511.933" y="-850" font-family="Helvetica,sans-Serif" font-size="10.00">::engine::thread::CodingThread &gt;</text>
</g>
<!-- Node14&#45;&gt;Node5 -->
<g id="edge12" class="edge"><title>Node14&#45;&gt;Node5</title>
<path fill="none" stroke="#404040" d="M683.309,-688.858C685.304,-656.878 690.161,-607.363 701.933,-566 702.578,-563.735 703.247,-561.461 703.939,-559.182"/>
<polygon fill="none" stroke="#404040" points="703.939,-559.181 701.949,-552.25 707.581,-547.747 709.571,-554.678 703.939,-559.181"/>
<text text-anchor="middle" x="764.433" y="-591" font-family="Helvetica,sans-Serif" font-size="10.00"> #_lowPriorityEventQueue</text>
<text text-anchor="middle" x="764.433" y="-580" font-family="Helvetica,sans-Serif" font-size="10.00">#_highPriorityEventQueue</text>
<text text-anchor="middle" x="764.433" y="-569" font-family="Helvetica,sans-Serif" font-size="10.00">#_normalPriorityEventQueue</text>
</g>
<!-- Node15&#45;&gt;Node5 -->
<g id="edge14" class="edge"><title>Node15&#45;&gt;Node5</title>
<path fill="none" stroke="#404040" d="M512.795,-688.754C555.346,-641.38 635.121,-552.564 696.992,-483.681"/>
<polygon fill="none" stroke="#404040" points="697.193,-483.457 698.227,-476.32 705.212,-474.529 704.179,-481.666 697.193,-483.457"/>
<text text-anchor="middle" x="638.933" y="-580" font-family="Helvetica,sans-Serif" font-size="10.00"> #_threads</text>
</g>
<!-- Node16 -->
<g id="node14" class="node"><title>Node16</title>
<g id="a_node14"><a xlink:href="../../d4/df5/namespaceorg_1_1msrg_1_1raccoon_1_1engine_1_1thread.html#d2/de7/enumorg_1_1msrg_1_1raccoon_1_1engine_1_1thread_1_1ThreadType" target="_top" xlink:title="{org.msrg.raccoon.engine.thread.\lThreadType\n|+ CODING_THREAD\l+ FILE_MANANGER_THREAD\l|}">
<polygon fill="none" stroke="black" points="1202.93,-347.5 1202.93,-426.5 1360.93,-426.5 1360.93,-347.5 1202.93,-347.5"/>
<text text-anchor="start" x="1210.93" y="-414.5" font-family="Helvetica,sans-Serif" font-size="10.00">org.msrg.raccoon.engine.thread.</text>
<text text-anchor="middle" x="1281.93" y="-403.5" font-family="Helvetica,sans-Serif" font-size="10.00">ThreadType</text>
<polyline fill="none" stroke="black" points="1202.93,-396.5 1360.93,-396.5 "/>
<text text-anchor="start" x="1210.93" y="-384.5" font-family="Helvetica,sans-Serif" font-size="10.00">+ CODING_THREAD</text>
<text text-anchor="start" x="1210.93" y="-373.5" font-family="Helvetica,sans-Serif" font-size="10.00">+ FILE_MANANGER_THREAD</text>
<polyline fill="none" stroke="black" points="1202.93,-366.5 1360.93,-366.5 "/>
<text text-anchor="middle" x="1281.93" y="-354.5" font-family="Helvetica,sans-Serif" font-size="10.00"> </text>
</a>
</g>
</g>
<!-- Node16&#45;&gt;Node3 -->
<g id="edge16" class="edge"><title>Node16&#45;&gt;Node3</title>
<path fill="none" stroke="#404040" d="M1262.85,-347.369C1243.14,-307.486 1211.59,-243.635 1184.88,-189.573"/>
<polygon fill="none" stroke="#404040" points="1184.75,-189.309 1178.51,-185.701 1179.44,-178.55 1185.68,-182.158 1184.75,-189.309"/>
<text text-anchor="middle" x="1223.93" y="-200" font-family="Helvetica,sans-Serif" font-size="10.00"> +_threadType</text>
</g>
<!-- Node17 -->
<g id="node15" class="node"><title>Node17</title>
<g id="a_node15"><a xlink:href="../../d0/dca/classorg_1_1msrg_1_1raccoon_1_1engine_1_1thread_1_1ThreadId.html" target="_top" xlink:title="{org.msrg.raccoon.engine.thread.\lThreadId\n|&#45; _id\l&#45; _lastId\l|+ equals()\l+ hashCode()\l+ toString()\l+ getNewThreadId()\l&#45; ThreadId()\l}">
<polygon fill="none" stroke="black" points="1379.43,-325.5 1379.43,-448.5 1536.43,-448.5 1536.43,-325.5 1379.43,-325.5"/>
<text text-anchor="start" x="1387.43" y="-436.5" font-family="Helvetica,sans-Serif" font-size="10.00">org.msrg.raccoon.engine.thread.</text>
<text text-anchor="middle" x="1457.93" y="-425.5" font-family="Helvetica,sans-Serif" font-size="10.00">ThreadId</text>
<polyline fill="none" stroke="black" points="1379.43,-418.5 1536.43,-418.5 "/>
<text text-anchor="start" x="1387.43" y="-406.5" font-family="Helvetica,sans-Serif" font-size="10.00">&#45; _id</text>
<text text-anchor="start" x="1387.43" y="-395.5" font-family="Helvetica,sans-Serif" font-size="10.00">&#45; _lastId</text>
<polyline fill="none" stroke="black" points="1379.43,-388.5 1536.43,-388.5 "/>
<text text-anchor="start" x="1387.43" y="-376.5" font-family="Helvetica,sans-Serif" font-size="10.00">+ equals()</text>
<text text-anchor="start" x="1387.43" y="-365.5" font-family="Helvetica,sans-Serif" font-size="10.00">+ hashCode()</text>
<text text-anchor="start" x="1387.43" y="-354.5" font-family="Helvetica,sans-Serif" font-size="10.00">+ toString()</text>
<text text-anchor="start" x="1387.43" y="-343.5" font-family="Helvetica,sans-Serif" font-size="10.00">+ getNewThreadId()</text>
<text text-anchor="start" x="1387.43" y="-332.5" font-family="Helvetica,sans-Serif" font-size="10.00">&#45; ThreadId()</text>
</a>
</g>
</g>
<!-- Node17&#45;&gt;Node3 -->
<g id="edge18" class="edge"><title>Node17&#45;&gt;Node3</title>
<path fill="none" stroke="#404040" d="M1434.15,-325.442C1419.27,-293.139 1397.64,-254.328 1369.93,-226 1329.05,-184.203 1272.56,-151.004 1225.32,-127.929"/>
<polygon fill="none" stroke="#404040" points="1225.29,-127.911 1218.15,-128.923 1214.47,-122.722 1221.61,-121.71 1225.29,-127.911"/>
<text text-anchor="middle" x="1359.93" y="-200" font-family="Helvetica,sans-Serif" font-size="10.00"> +_id</text>
</g>
</g>
</svg>
        <g id="navigator" transform="translate(0 0)" fill="#404254">
                <rect fill="#f2f5e9" fill-opacity="0.5" stroke="#606060" stroke-width=".5" x="0" y="0" width="60" height="60"/>
                <use id="zoomplus" xlink:href="#zoomPlus" x="17" y="9" onmousedown="handleZoom(evt,'in')"/>
                <use id="zoomminus" xlink:href="#zoomMin" x="42" y="9" onmousedown="handleZoom(evt,'out')"/>
                <use id="reset" xlink:href="#resetDef" x="30" y="36" onmousedown="handleReset()"/>
                <g id="arrowUp" xlink:href="#dirArrow" transform="translate(30 24)" onmousedown="handlePan(0,-1)">
                  <use xlink:href="#rim" fill="#404040">
                        <set attributeName="fill" to="#808080" begin="arrowUp.mouseover" end="arrowUp.mouseout"/>
                  </use>
                  <path fill="none" stroke="white" stroke-width="1.5" d="M0,-3.0v7 M-2.5,-0.5L0,-3.0L2.5,-0.5"/>
                </g>
                <g id="arrowRight" xlink:href="#dirArrow" transform="rotate(90) translate(36 -43)" onmousedown="handlePan(1,0)">
                  <use xlink:href="#rim" fill="#404040">
                        <set attributeName="fill" to="#808080" begin="arrowRight.mouseover" end="arrowRight.mouseout"/>
                  </use>
                  <path fill="none" stroke="white" stroke-width="1.5" d="M0,-3.0v7 M-2.5,-0.5L0,-3.0L2.5,-0.5"/>
                </g>
                <g id="arrowDown" xlink:href="#dirArrow" transform="rotate(180) translate(-30 -48)" onmousedown="handlePan(0,1)">
                  <use xlink:href="#rim" fill="#404040">
                        <set attributeName="fill" to="#808080" begin="arrowDown.mouseover" end="arrowDown.mouseout"/>
                  </use>
                  <path fill="none" stroke="white" stroke-width="1.5" d="M0,-3.0v7 M-2.5,-0.5L0,-3.0L2.5,-0.5"/>
                </g>
                <g id="arrowLeft" xlink:href="#dirArrow" transform="rotate(270) translate(-36 17)" onmousedown="handlePan(-1,0)">
                  <use xlink:href="#rim" fill="#404040">
                        <set attributeName="fill" to="#808080" begin="arrowLeft.mouseover" end="arrowLeft.mouseout"/>
                  </use>
                  <path fill="none" stroke="white" stroke-width="1.5" d="M0,-3.0v7 M-2.5,-0.5L0,-3.0L2.5,-0.5"/>
                </g>
        </g>
        <svg viewBox="0 0 15 15" width="100%" height="30px" preserveAspectRatio="xMaxYMin meet">
         <g id="arrow_out" transform="scale(0.3 0.3)">
          <a xlink:href="classorg_1_1msrg_1_1raccoon_1_1engine_1_1thread_1_1CodingThread__coll__graph_org.svg" target="_base">
           <rect id="button" ry="5" rx="5" y="6" x="6" height="38" width="38"
                fill="#f2f5e9" fill-opacity="0.5" stroke="#606060" stroke-width="1.0"/>
           <path id="arrow"
             d="M 11.500037,31.436501 C 11.940474,20.09759 22.043105,11.32322 32.158766,21.979434 L 37.068811,17.246167 C 37.068811,17.246167 37.088388,32 37.088388,32 L 22.160133,31.978069 C 22.160133,31.978069 26.997745,27.140456 26.997745,27.140456 C 18.528582,18.264221 13.291696,25.230495 11.500037,31.436501 z"
             style="fill:#404040;"/>
          </a>
         </g>
        </svg>
</svg>
