<?xml version="1.0" encoding="UTF-8" standalone="no"?>
<!DOCTYPE svg PUBLIC "-//W3C//DTD SVG 1.1//EN"
 "http://www.w3.org/Graphics/SVG/1.1/DTD/svg11.dtd">
<!-- Generated by graphviz version 2.38.0 (20140413.2041)
 -->
<!-- Title: org.msrg.raccoon.engine.task.result.ByteMatrix_CodingResult Pages: 1 -->
<!--zoomable 1294 -->
<svg id="main" version="1.1" xmlns="http://www.w3.org/2000/svg" xmlns:xlink="http://www.w3.org/1999/xlink" xml:space="preserve" onload="init(evt)">
<style type="text/css"><![CDATA[
.edge:hover path { stroke: red; }
.edge:hover polygon { stroke: red; fill: red; }
]]></style>
<script type="text/javascript"><![CDATA[
var edges = document.getElementsByTagName('g');
if (edges && edges.length) {
  for (var i=0;i<edges.length;i++) {
    if (edges[i].id.substr(0,4)=='edge') {
      edges[i].setAttribute('class','edge');
    }
  }
}
]]></script>
        <defs>
                <circle id="rim" cx="0" cy="0" r="7"/>
                <circle id="rim2" cx="0" cy="0" r="3.5"/>
                <g id="zoomPlus">
                        <use xlink:href="#rim" fill="#404040">
                                <set attributeName="fill" to="#808080" begin="zoomplus.mouseover" end="zoomplus.mouseout"/>
                        </use>
                        <path d="M-4,0h8M0,-4v8" fill="none" stroke="white" stroke-width="1.5" pointer-events="none"/>
                </g>
                <g id="zoomMin">
                        <use xlink:href="#rim" fill="#404040">
                                <set attributeName="fill" to="#808080" begin="zoomminus.mouseover" end="zoomminus.mouseout"/>
                        </use>
                        <path d="M-4,0h8" fill="none" stroke="white" stroke-width="1.5" pointer-events="none"/>
                </g>
                <g id="dirArrow">
                        <path fill="none" stroke="white" stroke-width="1.5" d="M0,-3.0v7 M-2.5,-0.5L0,-3.0L2.5,-0.5"/>
                </g>
               <g id="resetDef">
                       <use xlink:href="#rim2" fill="#404040">
                               <set attributeName="fill" to="#808080" begin="reset.mouseover" end="reset.mouseout"/>
                       </use>
               </g>
        </defs>

<script type="text/javascript">
var viewWidth = 986;
var viewHeight = 1294;
var sectionId = 'dynsection-1';
</script>
<script xlink:href="../../svgpan.js"/>
<svg id="graph" class="graph">
<g id="viewport">
<title>org.msrg.raccoon.engine.task.result.ByteMatrix_CodingResult</title>
<!-- Node1 -->
<g id="node1" class="node"><title>Node1</title>
<polygon fill="#bfbfbf" stroke="black" points="639.5,-61 639.5,-151 815.5,-151 815.5,-61 639.5,-61"/>
<text text-anchor="start" x="647.5" y="-139" font-family="Helvetica,sans-Serif" font-size="10.00">org.msrg.raccoon.engine.task.result.</text>
<text text-anchor="middle" x="727.5" y="-128" font-family="Helvetica,sans-Serif" font-size="10.00">ByteMatrix_CodingResult</text>
<polyline fill="none" stroke="black" points="639.5,-121 815.5,-121 "/>
<text text-anchor="middle" x="727.5" y="-109" font-family="Helvetica,sans-Serif" font-size="10.00"> </text>
<polyline fill="none" stroke="black" points="639.5,-102 815.5,-102 "/>
<text text-anchor="start" x="647.5" y="-90" font-family="Helvetica,sans-Serif" font-size="10.00">+ ByteMatrix_CodingResult()</text>
<text text-anchor="start" x="647.5" y="-79" font-family="Helvetica,sans-Serif" font-size="10.00">+ setResult()</text>
<text text-anchor="start" x="647.5" y="-68" font-family="Helvetica,sans-Serif" font-size="10.00">+ getResult()</text>
</g>
<!-- Node2 -->
<g id="node2" class="node"><title>Node2</title>
<g id="a_node2"><a xlink:href="../../df/d3e/classorg_1_1msrg_1_1raccoon_1_1engine_1_1task_1_1result_1_1CodingResult.html" target="_top" xlink:title="{org.msrg.raccoon.engine.task.result.\lCodingResult\n||+ setStatus()\l+ equals()\l+ hashCode()\l+ getStatus()\l+ isStarted()\l+ isFailed()\l+ isFinished()\l# CodingResult()\l}">
<polygon fill="none" stroke="black" points="554.5,-303.5 554.5,-448.5 730.5,-448.5 730.5,-303.5 554.5,-303.5"/>
<text text-anchor="start" x="562.5" y="-436.5" font-family="Helvetica,sans-Serif" font-size="10.00">org.msrg.raccoon.engine.task.result.</text>
<text text-anchor="middle" x="642.5" y="-425.5" font-family="Helvetica,sans-Serif" font-size="10.00">CodingResult</text>
<polyline fill="none" stroke="black" points="554.5,-418.5 730.5,-418.5 "/>
<text text-anchor="middle" x="642.5" y="-406.5" font-family="Helvetica,sans-Serif" font-size="10.00"> </text>
<polyline fill="none" stroke="black" points="554.5,-399.5 730.5,-399.5 "/>
<text text-anchor="start" x="562.5" y="-387.5" font-family="Helvetica,sans-Serif" font-size="10.00">+ setStatus()</text>
<text text-anchor="start" x="562.5" y="-376.5" font-family="Helvetica,sans-Serif" font-size="10.00">+ equals()</text>
<text text-anchor="start" x="562.5" y="-365.5" font-family="Helvetica,sans-Serif" font-size="10.00">+ hashCode()</text>
<text text-anchor="start" x="562.5" y="-354.5" font-family="Helvetica,sans-Serif" font-size="10.00">+ getStatus()</text>
<text text-anchor="start" x="562.5" y="-343.5" font-family="Helvetica,sans-Serif" font-size="10.00">+ isStarted()</text>
<text text-anchor="start" x="562.5" y="-332.5" font-family="Helvetica,sans-Serif" font-size="10.00">+ isFailed()</text>
<text text-anchor="start" x="562.5" y="-321.5" font-family="Helvetica,sans-Serif" font-size="10.00">+ isFinished()</text>
<text text-anchor="start" x="562.5" y="-310.5" font-family="Helvetica,sans-Serif" font-size="10.00"># CodingResult()</text>
</a>
</g>
</g>
<!-- Node2&#45;&gt;Node1 -->
<g id="edge1" class="edge"><title>Node2&#45;&gt;Node1</title>
<path fill="none" stroke="midnightblue" d="M668.39,-293.37C683.215,-246.629 701.239,-189.798 713.458,-151.274"/>
<polygon fill="none" stroke="midnightblue" points="664.966,-292.591 665.278,-303.181 671.638,-294.707 664.966,-292.591"/>
</g>
<!-- Node3 -->
<g id="node3" class="node"><title>Node3</title>
<g id="a_node3"><a xlink:href="../../d9/d22/classorg_1_1msrg_1_1raccoon_1_1engine_1_1task_1_1CodingTask.html" target="_top" xlink:title="{org.msrg.raccoon.engine.task.\lCodingTask\n||+ getCodingResults()\l+ getStatus()\l+ isStarted()\l+ isFinished()\l+ isFailed()\l+ failed()\l+ started()\l+ finished()\l+ isSequencial()\l+ equals()\l+ hashCode()\l# CodingTask()\l# getEmptyCodingResults()\l# changeStatus()\l}">
<polygon fill="none" stroke="black" points="279,-0.5 279,-211.5 428,-211.5 428,-0.5 279,-0.5"/>
<text text-anchor="start" x="287" y="-199.5" font-family="Helvetica,sans-Serif" font-size="10.00">org.msrg.raccoon.engine.task.</text>
<text text-anchor="middle" x="353.5" y="-188.5" font-family="Helvetica,sans-Serif" font-size="10.00">CodingTask</text>
<polyline fill="none" stroke="black" points="279,-181.5 428,-181.5 "/>
<text text-anchor="middle" x="353.5" y="-169.5" font-family="Helvetica,sans-Serif" font-size="10.00"> </text>
<polyline fill="none" stroke="black" points="279,-162.5 428,-162.5 "/>
<text text-anchor="start" x="287" y="-150.5" font-family="Helvetica,sans-Serif" font-size="10.00">+ getCodingResults()</text>
<text text-anchor="start" x="287" y="-139.5" font-family="Helvetica,sans-Serif" font-size="10.00">+ getStatus()</text>
<text text-anchor="start" x="287" y="-128.5" font-family="Helvetica,sans-Serif" font-size="10.00">+ isStarted()</text>
<text text-anchor="start" x="287" y="-117.5" font-family="Helvetica,sans-Serif" font-size="10.00">+ isFinished()</text>
<text text-anchor="start" x="287" y="-106.5" font-family="Helvetica,sans-Serif" font-size="10.00">+ isFailed()</text>
<text text-anchor="start" x="287" y="-95.5" font-family="Helvetica,sans-Serif" font-size="10.00">+ failed()</text>
<text text-anchor="start" x="287" y="-84.5" font-family="Helvetica,sans-Serif" font-size="10.00">+ started()</text>
<text text-anchor="start" x="287" y="-73.5" font-family="Helvetica,sans-Serif" font-size="10.00">+ finished()</text>
<text text-anchor="start" x="287" y="-62.5" font-family="Helvetica,sans-Serif" font-size="10.00">+ isSequencial()</text>
<text text-anchor="start" x="287" y="-51.5" font-family="Helvetica,sans-Serif" font-size="10.00">+ equals()</text>
<text text-anchor="start" x="287" y="-40.5" font-family="Helvetica,sans-Serif" font-size="10.00">+ hashCode()</text>
<text text-anchor="start" x="287" y="-29.5" font-family="Helvetica,sans-Serif" font-size="10.00"># CodingTask()</text>
<text text-anchor="start" x="287" y="-18.5" font-family="Helvetica,sans-Serif" font-size="10.00"># getEmptyCodingResults()</text>
<text text-anchor="start" x="287" y="-7.5" font-family="Helvetica,sans-Serif" font-size="10.00"># changeStatus()</text>
</a>
</g>
</g>
<!-- Node2&#45;&gt;Node3 -->
<g id="edge5" class="edge"><title>Node2&#45;&gt;Node3</title>
<path fill="none" stroke="#404040" d="M586.495,-303.327C573.586,-288.169 559.513,-272.643 545.5,-259 512.226,-226.606 472.392,-194.183 437.653,-167.653"/>
<polygon fill="none" stroke="#404040" points="437.561,-167.583 430.363,-167.145 428,-160.332 435.198,-160.771 437.561,-167.583"/>
<text text-anchor="middle" x="546" y="-233" font-family="Helvetica,sans-Serif" font-size="10.00"> +_result</text>
</g>
<!-- Node3&#45;&gt;Node2 -->
<g id="edge2" class="edge"><title>Node3&#45;&gt;Node2</title>
<path fill="none" stroke="#404040" d="M428.119,-129.727C479.773,-148.928 546.677,-181.213 589.5,-230 604.933,-247.582 616.003,-270.031 623.892,-291.985"/>
<polygon fill="none" stroke="#404040" points="623.903,-292.019 629.609,-296.428 627.733,-303.391 622.027,-298.982 623.903,-292.019"/>
<text text-anchor="middle" x="618.5" y="-233" font-family="Helvetica,sans-Serif" font-size="10.00"> +_cTask</text>
</g>
<!-- Node4 -->
<g id="node4" class="node"><title>Node4</title>
<g id="a_node4"><a xlink:href="../../d6/d58/interfaceorg_1_1msrg_1_1raccoon_1_1engine_1_1ICodingListener.html" target="_top" xlink:title="{org.msrg.raccoon.engine.\lICodingListener\n||+ codingStarted()\l+ codingPreliminaryStageCompleted()\l+ codingFailed()\l+ codingFinished()\l}">
<polygon fill="none" stroke="black" points="354.5,-325.5 354.5,-426.5 536.5,-426.5 536.5,-325.5 354.5,-325.5"/>
<text text-anchor="start" x="362.5" y="-414.5" font-family="Helvetica,sans-Serif" font-size="10.00">org.msrg.raccoon.engine.</text>
<text text-anchor="middle" x="445.5" y="-403.5" font-family="Helvetica,sans-Serif" font-size="10.00">ICodingListener</text>
<polyline fill="none" stroke="black" points="354.5,-396.5 536.5,-396.5 "/>
<text text-anchor="middle" x="445.5" y="-384.5" font-family="Helvetica,sans-Serif" font-size="10.00"> </text>
<polyline fill="none" stroke="black" points="354.5,-377.5 536.5,-377.5 "/>
<text text-anchor="start" x="362.5" y="-365.5" font-family="Helvetica,sans-Serif" font-size="10.00">+ codingStarted()</text>
<text text-anchor="start" x="362.5" y="-354.5" font-family="Helvetica,sans-Serif" font-size="10.00">+ codingPreliminaryStageCompleted()</text>
<text text-anchor="start" x="362.5" y="-343.5" font-family="Helvetica,sans-Serif" font-size="10.00">+ codingFailed()</text>
<text text-anchor="start" x="362.5" y="-332.5" font-family="Helvetica,sans-Serif" font-size="10.00">+ codingFinished()</text>
</a>
</g>
</g>
<!-- Node4&#45;&gt;Node3 -->
<g id="edge3" class="edge"><title>Node4&#45;&gt;Node3</title>
<path fill="none" stroke="#404040" d="M428.411,-325.219C418.541,-296.467 405.684,-259.014 393.415,-223.275"/>
<polygon fill="none" stroke="#404040" points="393.353,-223.094 387.622,-218.718 389.457,-211.744 395.188,-216.12 393.353,-223.094"/>
<text text-anchor="middle" x="422.5" y="-233" font-family="Helvetica,sans-Serif" font-size="10.00"> +_listener</text>
</g>
<!-- Node5 -->
<g id="node5" class="node"><title>Node5</title>
<g id="a_node5"><a xlink:href="../../d5/d15/classorg_1_1msrg_1_1raccoon_1_1engine_1_1task_1_1CodingId.html" target="_top" xlink:title="{org.msrg.raccoon.engine.task.\lCodingId\n|&#45; _id\l&#45; _lastId\l|+ equals()\l+ hashCode()\l+ toString()\l+ getNewCodingId()\l&#45; CodingId()\l}">
<polygon fill="none" stroke="black" points="285,-617.5 285,-740.5 434,-740.5 434,-617.5 285,-617.5"/>
<text text-anchor="start" x="293" y="-728.5" font-family="Helvetica,sans-Serif" font-size="10.00">org.msrg.raccoon.engine.task.</text>
<text text-anchor="middle" x="359.5" y="-717.5" font-family="Helvetica,sans-Serif" font-size="10.00">CodingId</text>
<polyline fill="none" stroke="black" points="285,-710.5 434,-710.5 "/>
<text text-anchor="start" x="293" y="-698.5" font-family="Helvetica,sans-Serif" font-size="10.00">&#45; _id</text>
<text text-anchor="start" x="293" y="-687.5" font-family="Helvetica,sans-Serif" font-size="10.00">&#45; _lastId</text>
<polyline fill="none" stroke="black" points="285,-680.5 434,-680.5 "/>
<text text-anchor="start" x="293" y="-668.5" font-family="Helvetica,sans-Serif" font-size="10.00">+ equals()</text>
<text text-anchor="start" x="293" y="-657.5" font-family="Helvetica,sans-Serif" font-size="10.00">+ hashCode()</text>
<text text-anchor="start" x="293" y="-646.5" font-family="Helvetica,sans-Serif" font-size="10.00">+ toString()</text>
<text text-anchor="start" x="293" y="-635.5" font-family="Helvetica,sans-Serif" font-size="10.00">+ getNewCodingId()</text>
<text text-anchor="start" x="293" y="-624.5" font-family="Helvetica,sans-Serif" font-size="10.00">&#45; CodingId()</text>
</a>
</g>
</g>
<!-- Node5&#45;&gt;Node2 -->
<g id="edge9" class="edge"><title>Node5&#45;&gt;Node2</title>
<path fill="none" stroke="#404040" d="M423.375,-617.305C459.957,-581.85 506.248,-535.794 545.5,-493 555.652,-481.933 566.11,-470.019 576.231,-458.19"/>
<polygon fill="none" stroke="#404040" points="576.492,-457.883 577.33,-450.72 584.263,-448.739 583.426,-455.901 576.492,-457.883"/>
<text text-anchor="middle" x="537.5" y="-514" font-family="Helvetica,sans-Serif" font-size="10.00"> +_id</text>
</g>
<!-- Node5&#45;&gt;Node3 -->
<g id="edge4" class="edge"><title>Node5&#45;&gt;Node3</title>
<path fill="none" stroke="#404040" d="M284.928,-633.705C238.181,-601.301 181.939,-552.667 155.5,-493 113.368,-397.916 109.512,-352.28 155.5,-259 179.222,-210.883 226.301,-173.758 268.601,-148.246"/>
<polygon fill="none" stroke="#404040" points="268.602,-148.246 271.752,-141.76 278.951,-142.173 275.801,-148.66 268.602,-148.246"/>
<text text-anchor="middle" x="166.5" y="-373.5" font-family="Helvetica,sans-Serif" font-size="10.00"> +_id</text>
</g>
<!-- Node6 -->
<g id="node6" class="node"><title>Node6</title>
<g id="a_node6"><a xlink:href="../../df/de9/namespaceorg_1_1msrg_1_1raccoon_1_1engine_1_1task.html#dd/d1c/enumorg_1_1msrg_1_1raccoon_1_1engine_1_1task_1_1CodingTaskStatus" target="_top" xlink:title="{org.msrg.raccoon.engine.task.\lCodingTaskStatus\n|+ CREATED\l+ STARTED\l+ FINISHED\l+ FAILED\l|}">
<polygon fill="none" stroke="black" points="0,-628.5 0,-729.5 149,-729.5 149,-628.5 0,-628.5"/>
<text text-anchor="start" x="8" y="-717.5" font-family="Helvetica,sans-Serif" font-size="10.00">org.msrg.raccoon.engine.task.</text>
<text text-anchor="middle" x="74.5" y="-706.5" font-family="Helvetica,sans-Serif" font-size="10.00">CodingTaskStatus</text>
<polyline fill="none" stroke="black" points="0,-699.5 149,-699.5 "/>
<text text-anchor="start" x="8" y="-687.5" font-family="Helvetica,sans-Serif" font-size="10.00">+ CREATED</text>
<text text-anchor="start" x="8" y="-676.5" font-family="Helvetica,sans-Serif" font-size="10.00">+ STARTED</text>
<text text-anchor="start" x="8" y="-665.5" font-family="Helvetica,sans-Serif" font-size="10.00">+ FINISHED</text>
<text text-anchor="start" x="8" y="-654.5" font-family="Helvetica,sans-Serif" font-size="10.00">+ FAILED</text>
<polyline fill="none" stroke="black" points="0,-647.5 149,-647.5 "/>
<text text-anchor="middle" x="74.5" y="-635.5" font-family="Helvetica,sans-Serif" font-size="10.00"> </text>
</a>
</g>
</g>
<!-- Node6&#45;&gt;Node2 -->
<g id="edge10" class="edge"><title>Node6&#45;&gt;Node2</title>
<path fill="none" stroke="#404040" d="M132.151,-628.433C170.365,-598.214 222.974,-561.407 275.5,-540 303.699,-528.507 519.125,-508.219 545.5,-493 561.261,-483.905 575.599,-471.231 588.128,-457.583"/>
<polygon fill="none" stroke="#404040" points="588.182,-457.521 589.133,-450.373 596.097,-448.501 595.146,-455.649 588.182,-457.521"/>
<text text-anchor="middle" x="475" y="-514" font-family="Helvetica,sans-Serif" font-size="10.00"> #_status</text>
</g>
<!-- Node6&#45;&gt;Node3 -->
<g id="edge6" class="edge"><title>Node6&#45;&gt;Node3</title>
<path fill="none" stroke="#404040" d="M59.7767,-628.228C38.2875,-545.117 7.97143,-375.71 77.5,-259 118.437,-190.283 202.652,-150.476 267.351,-128.973"/>
<polygon fill="none" stroke="#404040" points="267.357,-128.971 271.844,-123.325 278.78,-125.295 274.294,-130.94 267.357,-128.971"/>
<text text-anchor="middle" x="98" y="-373.5" font-family="Helvetica,sans-Serif" font-size="10.00"> #_status</text>
</g>
<!-- Node7 -->
<g id="node7" class="node"><title>Node7</title>
<g id="a_node7"><a xlink:href="../../d5/da9/enumorg_1_1msrg_1_1raccoon_1_1engine_1_1task_1_1CodingTaskType.html" target="_top" xlink:title="{org.msrg.raccoon.engine.task.\lCodingTaskType\n|+ FILE_TASK\l+ SLICES_EQUAL\l+ MULTIPLY\l+ INVERSE\l+ SEQUENCIAL\l+ _isSequencial\l|+ CodingTaskType()\l}">
<polygon fill="none" stroke="black" points="187,-314.5 187,-437.5 336,-437.5 336,-314.5 187,-314.5"/>
<text text-anchor="start" x="195" y="-425.5" font-family="Helvetica,sans-Serif" font-size="10.00">org.msrg.raccoon.engine.task.</text>
<text text-anchor="middle" x="261.5" y="-414.5" font-family="Helvetica,sans-Serif" font-size="10.00">CodingTaskType</text>
<polyline fill="none" stroke="black" points="187,-407.5 336,-407.5 "/>
<text text-anchor="start" x="195" y="-395.5" font-family="Helvetica,sans-Serif" font-size="10.00">+ FILE_TASK</text>
<text text-anchor="start" x="195" y="-384.5" font-family="Helvetica,sans-Serif" font-size="10.00">+ SLICES_EQUAL</text>
<text text-anchor="start" x="195" y="-373.5" font-family="Helvetica,sans-Serif" font-size="10.00">+ MULTIPLY</text>
<text text-anchor="start" x="195" y="-362.5" font-family="Helvetica,sans-Serif" font-size="10.00">+ INVERSE</text>
<text text-anchor="start" x="195" y="-351.5" font-family="Helvetica,sans-Serif" font-size="10.00">+ SEQUENCIAL</text>
<text text-anchor="start" x="195" y="-340.5" font-family="Helvetica,sans-Serif" font-size="10.00">+ _isSequencial</text>
<polyline fill="none" stroke="black" points="187,-333.5 336,-333.5 "/>
<text text-anchor="start" x="195" y="-321.5" font-family="Helvetica,sans-Serif" font-size="10.00">+ CodingTaskType()</text>
</a>
</g>
</g>
<!-- Node7&#45;&gt;Node3 -->
<g id="edge7" class="edge"><title>Node7&#45;&gt;Node3</title>
<path fill="none" stroke="#404040" d="M282.376,-314.187C291.631,-287.228 302.842,-254.568 313.601,-223.229"/>
<polygon fill="none" stroke="#404040" points="313.643,-223.105 311.808,-216.131 317.539,-211.755 319.374,-218.729 313.643,-223.105"/>
<text text-anchor="middle" x="338" y="-233" font-family="Helvetica,sans-Serif" font-size="10.00"> +_taskType</text>
</g>
<!-- Node8 -->
<g id="node8" class="node"><title>Node8</title>
<g id="a_node8"><a xlink:href="../../d1/dce/namespaceorg_1_1msrg_1_1raccoon_1_1engine_1_1task_1_1result.html#de/d82/enumorg_1_1msrg_1_1raccoon_1_1engine_1_1task_1_1result_1_1CodingResultsType" target="_top" xlink:title="{org.msrg.raccoon.engine.task.result.\lCodingResultsType\n|+ BOOLEAN\l+ NC_MATRIX\l+ BULK_MATRIX\l+ CODED_SLICE_MATRIX\l+ SLICE_MATRIX\l+ CODED_SLICE\l+ FILE_RESULT\l|}">
<polygon fill="none" stroke="black" points="554.5,-612 554.5,-746 730.5,-746 730.5,-612 554.5,-612"/>
<text text-anchor="start" x="562.5" y="-734" font-family="Helvetica,sans-Serif" font-size="10.00">org.msrg.raccoon.engine.task.result.</text>
<text text-anchor="middle" x="642.5" y="-723" font-family="Helvetica,sans-Serif" font-size="10.00">CodingResultsType</text>
<polyline fill="none" stroke="black" points="554.5,-716 730.5,-716 "/>
<text text-anchor="start" x="562.5" y="-704" font-family="Helvetica,sans-Serif" font-size="10.00">+ BOOLEAN</text>
<text text-anchor="start" x="562.5" y="-693" font-family="Helvetica,sans-Serif" font-size="10.00">+ NC_MATRIX</text>
<text text-anchor="start" x="562.5" y="-682" font-family="Helvetica,sans-Serif" font-size="10.00">+ BULK_MATRIX</text>
<text text-anchor="start" x="562.5" y="-671" font-family="Helvetica,sans-Serif" font-size="10.00">+ CODED_SLICE_MATRIX</text>
<text text-anchor="start" x="562.5" y="-660" font-family="Helvetica,sans-Serif" font-size="10.00">+ SLICE_MATRIX</text>
<text text-anchor="start" x="562.5" y="-649" font-family="Helvetica,sans-Serif" font-size="10.00">+ CODED_SLICE</text>
<text text-anchor="start" x="562.5" y="-638" font-family="Helvetica,sans-Serif" font-size="10.00">+ FILE_RESULT</text>
<polyline fill="none" stroke="black" points="554.5,-631 730.5,-631 "/>
<text text-anchor="middle" x="642.5" y="-619" font-family="Helvetica,sans-Serif" font-size="10.00"> </text>
</a>
</g>
</g>
<!-- Node8&#45;&gt;Node2 -->
<g id="edge8" class="edge"><title>Node8&#45;&gt;Node2</title>
<path fill="none" stroke="#404040" d="M642.5,-611.944C642.5,-567.528 642.5,-508.604 642.5,-460.878"/>
<polygon fill="none" stroke="#404040" points="642.5,-460.686 638.5,-454.686 642.5,-448.686 646.5,-454.686 642.5,-460.686"/>
<text text-anchor="middle" x="675.5" y="-514" font-family="Helvetica,sans-Serif" font-size="10.00"> +_resultsType</text>
</g>
<!-- Node9 -->
<g id="node9" class="node"><title>Node9</title>
<g id="a_node9"><a xlink:href="../../dd/d36/classorg_1_1msrg_1_1raccoon_1_1matrix_1_1finitefields_1_1ByteMatrix.html" target="_top" xlink:title="{org.msrg.raccoon.matrix.finitefields.\lByteMatrix\n||+ ByteMatrix()\l+ ByteMatrix()\l+ ByteMatrix()\l+ isInversable()\l+ getByteArray()\l+ multiply()\l+ multiply()\l+ getZeroMatrix()\l+ verifyNotNull()\l+ wrap()\l+ wrap()\l+ unwrap()\l+ createRandomByteMatrix()\l+ createMatrix()\l# createByteMatrix()\l# createNewMatrix()\l}">
<polygon fill="none" stroke="black" points="749,-259.5 749,-492.5 922,-492.5 922,-259.5 749,-259.5"/>
<text text-anchor="start" x="757" y="-480.5" font-family="Helvetica,sans-Serif" font-size="10.00">org.msrg.raccoon.matrix.finitefields.</text>
<text text-anchor="middle" x="835.5" y="-469.5" font-family="Helvetica,sans-Serif" font-size="10.00">ByteMatrix</text>
<polyline fill="none" stroke="black" points="749,-462.5 922,-462.5 "/>
<text text-anchor="middle" x="835.5" y="-450.5" font-family="Helvetica,sans-Serif" font-size="10.00"> </text>
<polyline fill="none" stroke="black" points="749,-443.5 922,-443.5 "/>
<text text-anchor="start" x="757" y="-431.5" font-family="Helvetica,sans-Serif" font-size="10.00">+ ByteMatrix()</text>
<text text-anchor="start" x="757" y="-420.5" font-family="Helvetica,sans-Serif" font-size="10.00">+ ByteMatrix()</text>
<text text-anchor="start" x="757" y="-409.5" font-family="Helvetica,sans-Serif" font-size="10.00">+ ByteMatrix()</text>
<text text-anchor="start" x="757" y="-398.5" font-family="Helvetica,sans-Serif" font-size="10.00">+ isInversable()</text>
<text text-anchor="start" x="757" y="-387.5" font-family="Helvetica,sans-Serif" font-size="10.00">+ getByteArray()</text>
<text text-anchor="start" x="757" y="-376.5" font-family="Helvetica,sans-Serif" font-size="10.00">+ multiply()</text>
<text text-anchor="start" x="757" y="-365.5" font-family="Helvetica,sans-Serif" font-size="10.00">+ multiply()</text>
<text text-anchor="start" x="757" y="-354.5" font-family="Helvetica,sans-Serif" font-size="10.00">+ getZeroMatrix()</text>
<text text-anchor="start" x="757" y="-343.5" font-family="Helvetica,sans-Serif" font-size="10.00">+ verifyNotNull()</text>
<text text-anchor="start" x="757" y="-332.5" font-family="Helvetica,sans-Serif" font-size="10.00">+ wrap()</text>
<text text-anchor="start" x="757" y="-321.5" font-family="Helvetica,sans-Serif" font-size="10.00">+ wrap()</text>
<text text-anchor="start" x="757" y="-310.5" font-family="Helvetica,sans-Serif" font-size="10.00">+ unwrap()</text>
<text text-anchor="start" x="757" y="-299.5" font-family="Helvetica,sans-Serif" font-size="10.00">+ createRandomByteMatrix()</text>
<text text-anchor="start" x="757" y="-288.5" font-family="Helvetica,sans-Serif" font-size="10.00">+ createMatrix()</text>
<text text-anchor="start" x="757" y="-277.5" font-family="Helvetica,sans-Serif" font-size="10.00"># createByteMatrix()</text>
<text text-anchor="start" x="757" y="-266.5" font-family="Helvetica,sans-Serif" font-size="10.00"># createNewMatrix()</text>
</a>
</g>
</g>
<!-- Node9&#45;&gt;Node1 -->
<g id="edge11" class="edge"><title>Node9&#45;&gt;Node1</title>
<path fill="none" stroke="#404040" d="M788.915,-259.399C775.367,-225.781 761.185,-190.587 749.866,-162.501"/>
<polygon fill="none" stroke="#404040" points="749.845,-162.45 743.893,-158.38 745.36,-151.319 751.313,-155.389 749.845,-162.45"/>
<text text-anchor="middle" x="792.5" y="-233" font-family="Helvetica,sans-Serif" font-size="10.00"> #_m</text>
</g>
<!-- Node10 -->
<g id="node10" class="node"><title>Node10</title>
<g id="a_node10"><a xlink:href="../../de/d17/classorg_1_1msrg_1_1raccoon_1_1matrix_1_1finitefields_1_1FFByteMatrix.html" target="_top" xlink:title="{org.msrg.raccoon.matrix.finitefields.\lFFByteMatrix\n|# m\l# DIG\l|+ FFByteMatrix()\l+ FFByteMatrix()\l+ add()\l+ decloneExtended()\l+ cloneExtended()\l+ clone()\l+ getOne()\l+ getZero()\l+ getZeroMatrix()\l+ getNullMatrix()\land 10 more...\l+ createRandomSquareByteMatrix()\l+ createRandomByteMatrix()\l+ createMatrix()\l+ random()\l# createNewMatrix()\l# toString()\l# multiply2()\l# makeZero2d()\l}">
<polygon fill="none" stroke="black" points="749,-540.5 749,-817.5 922,-817.5 922,-540.5 749,-540.5"/>
<text text-anchor="start" x="757" y="-805.5" font-family="Helvetica,sans-Serif" font-size="10.00">org.msrg.raccoon.matrix.finitefields.</text>
<text text-anchor="middle" x="835.5" y="-794.5" font-family="Helvetica,sans-Serif" font-size="10.00">FFByteMatrix</text>
<polyline fill="none" stroke="black" points="749,-787.5 922,-787.5 "/>
<text text-anchor="start" x="757" y="-775.5" font-family="Helvetica,sans-Serif" font-size="10.00"># m</text>
<text text-anchor="start" x="757" y="-764.5" font-family="Helvetica,sans-Serif" font-size="10.00"># DIG</text>
<polyline fill="none" stroke="black" points="749,-757.5 922,-757.5 "/>
<text text-anchor="start" x="757" y="-745.5" font-family="Helvetica,sans-Serif" font-size="10.00">+ FFByteMatrix()</text>
<text text-anchor="start" x="757" y="-734.5" font-family="Helvetica,sans-Serif" font-size="10.00">+ FFByteMatrix()</text>
<text text-anchor="start" x="757" y="-723.5" font-family="Helvetica,sans-Serif" font-size="10.00">+ add()</text>
<text text-anchor="start" x="757" y="-712.5" font-family="Helvetica,sans-Serif" font-size="10.00">+ decloneExtended()</text>
<text text-anchor="start" x="757" y="-701.5" font-family="Helvetica,sans-Serif" font-size="10.00">+ cloneExtended()</text>
<text text-anchor="start" x="757" y="-690.5" font-family="Helvetica,sans-Serif" font-size="10.00">+ clone()</text>
<text text-anchor="start" x="757" y="-679.5" font-family="Helvetica,sans-Serif" font-size="10.00">+ getOne()</text>
<text text-anchor="start" x="757" y="-668.5" font-family="Helvetica,sans-Serif" font-size="10.00">+ getZero()</text>
<text text-anchor="start" x="757" y="-657.5" font-family="Helvetica,sans-Serif" font-size="10.00">+ getZeroMatrix()</text>
<text text-anchor="start" x="757" y="-646.5" font-family="Helvetica,sans-Serif" font-size="10.00">+ getNullMatrix()</text>
<text text-anchor="start" x="757" y="-635.5" font-family="Helvetica,sans-Serif" font-size="10.00">and 10 more...</text>
<text text-anchor="start" x="757" y="-624.5" font-family="Helvetica,sans-Serif" font-size="10.00">+ createRandomSquareByteMatrix()</text>
<text text-anchor="start" x="757" y="-613.5" font-family="Helvetica,sans-Serif" font-size="10.00">+ createRandomByteMatrix()</text>
<text text-anchor="start" x="757" y="-602.5" font-family="Helvetica,sans-Serif" font-size="10.00">+ createMatrix()</text>
<text text-anchor="start" x="757" y="-591.5" font-family="Helvetica,sans-Serif" font-size="10.00">+ random()</text>
<text text-anchor="start" x="757" y="-580.5" font-family="Helvetica,sans-Serif" font-size="10.00"># createNewMatrix()</text>
<text text-anchor="start" x="757" y="-569.5" font-family="Helvetica,sans-Serif" font-size="10.00"># toString()</text>
<text text-anchor="start" x="757" y="-558.5" font-family="Helvetica,sans-Serif" font-size="10.00"># multiply2()</text>
<text text-anchor="start" x="757" y="-547.5" font-family="Helvetica,sans-Serif" font-size="10.00"># makeZero2d()</text>
</a>
</g>
</g>
<!-- Node10&#45;&gt;Node9 -->
<g id="edge12" class="edge"><title>Node10&#45;&gt;Node9</title>
<path fill="none" stroke="midnightblue" d="M835.5,-530.164C835.5,-517.544 835.5,-504.9 835.5,-492.585"/>
<polygon fill="none" stroke="midnightblue" points="832,-530.273 835.5,-540.273 839,-530.273 832,-530.273"/>
</g>
<!-- Node11 -->
<g id="node11" class="node"><title>Node11</title>
<g id="a_node11"><a xlink:href="../../db/d3f/classorg_1_1msrg_1_1raccoon_1_1matrix_1_1TypedMatrix.html" target="_top" xlink:title="{org::msrg::raccoon\l::matrix::TypedMatrix\l\&lt; Byte \&gt;\n|+ _b\l+ _MAX_ROWS_PRINT\l+ _MAX_COLS_PRINT\l# _rows\l# _cols\l# _inverseRowZero\l# _inverse\l# _lock\l|+ clone()\l+ cloneExtended()\l+ decloneExtended()\l+ compareToAbs()\l+ isZero()\l+ isOne()\l+ getOne()\l+ getZero()\l+ inverse()\l+ clone()\land 25 more...\l+ toStringMult()\l+ toStringAdd()\l+ toString()\l# toString()\l# getNullMatrix()\l# getZeroMatrix()\l# getEmptyArray()\l# inverseMatrixPrivately()\l# devideRow()\l# subtractRow()\l# subtractRowFromRow()\l# addRow()\l# multiplyRow()\land 8 more...\l}">
<polygon fill="none" stroke="black" points="617,-865.5 617,-1285.5 746,-1285.5 746,-865.5 617,-865.5"/>
<text text-anchor="start" x="625" y="-1273.5" font-family="Helvetica,sans-Serif" font-size="10.00">org::msrg::raccoon</text>
<text text-anchor="start" x="625" y="-1262.5" font-family="Helvetica,sans-Serif" font-size="10.00">::matrix::TypedMatrix</text>
<text text-anchor="middle" x="681.5" y="-1251.5" font-family="Helvetica,sans-Serif" font-size="10.00">&lt; Byte &gt;</text>
<polyline fill="none" stroke="black" points="617,-1244.5 746,-1244.5 "/>
<text text-anchor="start" x="625" y="-1232.5" font-family="Helvetica,sans-Serif" font-size="10.00">+ _b</text>
<text text-anchor="start" x="625" y="-1221.5" font-family="Helvetica,sans-Serif" font-size="10.00">+ _MAX_ROWS_PRINT</text>
<text text-anchor="start" x="625" y="-1210.5" font-family="Helvetica,sans-Serif" font-size="10.00">+ _MAX_COLS_PRINT</text>
<text text-anchor="start" x="625" y="-1199.5" font-family="Helvetica,sans-Serif" font-size="10.00"># _rows</text>
<text text-anchor="start" x="625" y="-1188.5" font-family="Helvetica,sans-Serif" font-size="10.00"># _cols</text>
<text text-anchor="start" x="625" y="-1177.5" font-family="Helvetica,sans-Serif" font-size="10.00"># _inverseRowZero</text>
<text text-anchor="start" x="625" y="-1166.5" font-family="Helvetica,sans-Serif" font-size="10.00"># _inverse</text>
<text text-anchor="start" x="625" y="-1155.5" font-family="Helvetica,sans-Serif" font-size="10.00"># _lock</text>
<polyline fill="none" stroke="black" points="617,-1148.5 746,-1148.5 "/>
<text text-anchor="start" x="625" y="-1136.5" font-family="Helvetica,sans-Serif" font-size="10.00">+ clone()</text>
<text text-anchor="start" x="625" y="-1125.5" font-family="Helvetica,sans-Serif" font-size="10.00">+ cloneExtended()</text>
<text text-anchor="start" x="625" y="-1114.5" font-family="Helvetica,sans-Serif" font-size="10.00">+ decloneExtended()</text>
<text text-anchor="start" x="625" y="-1103.5" font-family="Helvetica,sans-Serif" font-size="10.00">+ compareToAbs()</text>
<text text-anchor="start" x="625" y="-1092.5" font-family="Helvetica,sans-Serif" font-size="10.00">+ isZero()</text>
<text text-anchor="start" x="625" y="-1081.5" font-family="Helvetica,sans-Serif" font-size="10.00">+ isOne()</text>
<text text-anchor="start" x="625" y="-1070.5" font-family="Helvetica,sans-Serif" font-size="10.00">+ getOne()</text>
<text text-anchor="start" x="625" y="-1059.5" font-family="Helvetica,sans-Serif" font-size="10.00">+ getZero()</text>
<text text-anchor="start" x="625" y="-1048.5" font-family="Helvetica,sans-Serif" font-size="10.00">+ inverse()</text>
<text text-anchor="start" x="625" y="-1037.5" font-family="Helvetica,sans-Serif" font-size="10.00">+ clone()</text>
<text text-anchor="start" x="625" y="-1026.5" font-family="Helvetica,sans-Serif" font-size="10.00">and 25 more...</text>
<text text-anchor="start" x="625" y="-1015.5" font-family="Helvetica,sans-Serif" font-size="10.00">+ toStringMult()</text>
<text text-anchor="start" x="625" y="-1004.5" font-family="Helvetica,sans-Serif" font-size="10.00">+ toStringAdd()</text>
<text text-anchor="start" x="625" y="-993.5" font-family="Helvetica,sans-Serif" font-size="10.00">+ toString()</text>
<text text-anchor="start" x="625" y="-982.5" font-family="Helvetica,sans-Serif" font-size="10.00"># toString()</text>
<text text-anchor="start" x="625" y="-971.5" font-family="Helvetica,sans-Serif" font-size="10.00"># getNullMatrix()</text>
<text text-anchor="start" x="625" y="-960.5" font-family="Helvetica,sans-Serif" font-size="10.00"># getZeroMatrix()</text>
<text text-anchor="start" x="625" y="-949.5" font-family="Helvetica,sans-Serif" font-size="10.00"># getEmptyArray()</text>
<text text-anchor="start" x="625" y="-938.5" font-family="Helvetica,sans-Serif" font-size="10.00"># inverseMatrixPrivately()</text>
<text text-anchor="start" x="625" y="-927.5" font-family="Helvetica,sans-Serif" font-size="10.00"># devideRow()</text>
<text text-anchor="start" x="625" y="-916.5" font-family="Helvetica,sans-Serif" font-size="10.00"># subtractRow()</text>
<text text-anchor="start" x="625" y="-905.5" font-family="Helvetica,sans-Serif" font-size="10.00"># subtractRowFromRow()</text>
<text text-anchor="start" x="625" y="-894.5" font-family="Helvetica,sans-Serif" font-size="10.00"># addRow()</text>
<text text-anchor="start" x="625" y="-883.5" font-family="Helvetica,sans-Serif" font-size="10.00"># multiplyRow()</text>
<text text-anchor="start" x="625" y="-872.5" font-family="Helvetica,sans-Serif" font-size="10.00">and 8 more...</text>
</a>
</g>
</g>
<!-- Node11&#45;&gt;Node10 -->
<g id="edge13" class="edge"><title>Node11&#45;&gt;Node10</title>
<path fill="none" stroke="midnightblue" d="M749.749,-877.239C751.332,-873.117 752.917,-869.034 754.5,-865 760.552,-849.578 767.13,-833.547 773.833,-817.657"/>
<polygon fill="none" stroke="midnightblue" points="746.35,-876.328 746.058,-886.919 752.891,-878.822 746.35,-876.328"/>
</g>
<!-- Node12 -->
<g id="node12" class="node"><title>Node12</title>
<g id="a_node12"><a xlink:href="../../d6/d93/classorg_1_1msrg_1_1raccoon_1_1finitefields_1_1Tables.html" target="_top" xlink:title="{org.msrg.raccoon.finitefields.\lTables\n|+ LOG\l+ EXP\l|+ Tables()\l+ FFMulFast()\l+ FFInv()\l}">
<polygon fill="none" stroke="black" points="764,-1025 764,-1126 907,-1126 907,-1025 764,-1025"/>
<text text-anchor="start" x="772" y="-1114" font-family="Helvetica,sans-Serif" font-size="10.00">org.msrg.raccoon.finitefields.</text>
<text text-anchor="middle" x="835.5" y="-1103" font-family="Helvetica,sans-Serif" font-size="10.00">Tables</text>
<polyline fill="none" stroke="black" points="764,-1096 907,-1096 "/>
<text text-anchor="start" x="772" y="-1084" font-family="Helvetica,sans-Serif" font-size="10.00">+ LOG</text>
<text text-anchor="start" x="772" y="-1073" font-family="Helvetica,sans-Serif" font-size="10.00">+ EXP</text>
<polyline fill="none" stroke="black" points="764,-1066 907,-1066 "/>
<text text-anchor="start" x="772" y="-1054" font-family="Helvetica,sans-Serif" font-size="10.00">+ Tables()</text>
<text text-anchor="start" x="772" y="-1043" font-family="Helvetica,sans-Serif" font-size="10.00">+ FFMulFast()</text>
<text text-anchor="start" x="772" y="-1032" font-family="Helvetica,sans-Serif" font-size="10.00">+ FFInv()</text>
</a>
</g>
</g>
<!-- Node12&#45;&gt;Node10 -->
<g id="edge14" class="edge"><title>Node12&#45;&gt;Node10</title>
<path fill="none" stroke="#404040" d="M835.5,-1024.94C835.5,-976.13 835.5,-899.1 835.5,-830.203"/>
<polygon fill="none" stroke="#404040" points="835.5,-829.888 831.5,-823.888 835.5,-817.888 839.5,-823.888 835.5,-829.888"/>
<text text-anchor="middle" x="855.5" y="-839" font-family="Helvetica,sans-Serif" font-size="10.00"> #_tables</text>
</g>
<!-- Node13 -->
<g id="node13" class="node"><title>Node13</title>
<polygon fill="none" stroke="#bfbfbf" points="925,-1047 925,-1104 978,-1104 978,-1047 925,-1047"/>
<text text-anchor="middle" x="951.5" y="-1092" font-family="Helvetica,sans-Serif" font-size="10.00">Random</text>
<polyline fill="none" stroke="#bfbfbf" points="925,-1085 978,-1085 "/>
<text text-anchor="middle" x="951.5" y="-1073" font-family="Helvetica,sans-Serif" font-size="10.00"> </text>
<polyline fill="none" stroke="#bfbfbf" points="925,-1066 978,-1066 "/>
<text text-anchor="middle" x="951.5" y="-1054" font-family="Helvetica,sans-Serif" font-size="10.00"> </text>
</g>
<!-- Node13&#45;&gt;Node10 -->
<g id="edge15" class="edge"><title>Node13&#45;&gt;Node10</title>
<path fill="none" stroke="#404040" d="M949.081,-1046.89C945.04,-1006.35 935.424,-928.621 916.5,-865 912.978,-853.158 908.89,-841.07 904.46,-829.03"/>
<polygon fill="none" stroke="#404040" points="904.35,-828.737 898.489,-824.535 900.115,-817.509 905.975,-821.712 904.35,-828.737"/>
<text text-anchor="middle" x="939.5" y="-839" font-family="Helvetica,sans-Serif" font-size="10.00"> ~_RANDOM</text>
</g>
</g>
</svg>
        <g id="navigator" transform="translate(0 0)" fill="#404254">
                <rect fill="#f2f5e9" fill-opacity="0.5" stroke="#606060" stroke-width=".5" x="0" y="0" width="60" height="60"/>
                <use id="zoomplus" xlink:href="#zoomPlus" x="17" y="9" onmousedown="handleZoom(evt,'in')"/>
                <use id="zoomminus" xlink:href="#zoomMin" x="42" y="9" onmousedown="handleZoom(evt,'out')"/>
                <use id="reset" xlink:href="#resetDef" x="30" y="36" onmousedown="handleReset()"/>
                <g id="arrowUp" xlink:href="#dirArrow" transform="translate(30 24)" onmousedown="handlePan(0,-1)">
                  <use xlink:href="#rim" fill="#404040">
                        <set attributeName="fill" to="#808080" begin="arrowUp.mouseover" end="arrowUp.mouseout"/>
                  </use>
                  <path fill="none" stroke="white" stroke-width="1.5" d="M0,-3.0v7 M-2.5,-0.5L0,-3.0L2.5,-0.5"/>
                </g>
                <g id="arrowRight" xlink:href="#dirArrow" transform="rotate(90) translate(36 -43)" onmousedown="handlePan(1,0)">
                  <use xlink:href="#rim" fill="#404040">
                        <set attributeName="fill" to="#808080" begin="arrowRight.mouseover" end="arrowRight.mouseout"/>
                  </use>
                  <path fill="none" stroke="white" stroke-width="1.5" d="M0,-3.0v7 M-2.5,-0.5L0,-3.0L2.5,-0.5"/>
                </g>
                <g id="arrowDown" xlink:href="#dirArrow" transform="rotate(180) translate(-30 -48)" onmousedown="handlePan(0,1)">
                  <use xlink:href="#rim" fill="#404040">
                        <set attributeName="fill" to="#808080" begin="arrowDown.mouseover" end="arrowDown.mouseout"/>
                  </use>
                  <path fill="none" stroke="white" stroke-width="1.5" d="M0,-3.0v7 M-2.5,-0.5L0,-3.0L2.5,-0.5"/>
                </g>
                <g id="arrowLeft" xlink:href="#dirArrow" transform="rotate(270) translate(-36 17)" onmousedown="handlePan(-1,0)">
                  <use xlink:href="#rim" fill="#404040">
                        <set attributeName="fill" to="#808080" begin="arrowLeft.mouseover" end="arrowLeft.mouseout"/>
                  </use>
                  <path fill="none" stroke="white" stroke-width="1.5" d="M0,-3.0v7 M-2.5,-0.5L0,-3.0L2.5,-0.5"/>
                </g>
        </g>
        <svg viewBox="0 0 15 15" width="100%" height="30px" preserveAspectRatio="xMaxYMin meet">
         <g id="arrow_out" transform="scale(0.3 0.3)">
          <a xlink:href="classorg_1_1msrg_1_1raccoon_1_1engine_1_1task_1_1result_1_1ByteMatrix__CodingResult__coll__graph_org.svg" target="_base">
           <rect id="button" ry="5" rx="5" y="6" x="6" height="38" width="38"
                fill="#f2f5e9" fill-opacity="0.5" stroke="#606060" stroke-width="1.0"/>
           <path id="arrow"
             d="M 11.500037,31.436501 C 11.940474,20.09759 22.043105,11.32322 32.158766,21.979434 L 37.068811,17.246167 C 37.068811,17.246167 37.088388,32 37.088388,32 L 22.160133,31.978069 C 22.160133,31.978069 26.997745,27.140456 26.997745,27.140456 C 18.528582,18.264221 13.291696,25.230495 11.500037,31.436501 z"
             style="fill:#404040;"/>
          </a>
         </g>
        </svg>
</svg>
